<?xml version="1.0" encoding="UTF-8" standalone="no"?>
<!-- Created with Inkscape (http://www.inkscape.org/) -->

<svg
   xmlns:dc="http://purl.org/dc/elements/1.1/"
   xmlns:cc="http://creativecommons.org/ns#"
   xmlns:rdf="http://www.w3.org/1999/02/22-rdf-syntax-ns#"
   xmlns:svg="http://www.w3.org/2000/svg"
   xmlns="http://www.w3.org/2000/svg"
   xmlns:xlink="http://www.w3.org/1999/xlink"
   xmlns:sodipodi="http://sodipodi.sourceforge.net/DTD/sodipodi-0.dtd"
   xmlns:inkscape="http://www.inkscape.org/namespaces/inkscape"
   id="svg3379"
   sodipodi:version="0.32"
   inkscape:version="0.47 r22583"
   width="2592"
   height="1944"
   version="1.0"
   sodipodi:docname="packbotaxes.svg"
   inkscape:output_extension="org.inkscape.output.svg.inkscape"
   inkscape:export-filename="/home/thomas/docs/thesis/thomas/images/packbotaxes.png"
   inkscape:export-xdpi="300"
   inkscape:export-ydpi="300">
  <metadata
     id="metadata3384">
    <rdf:RDF>
      <cc:Work
         rdf:about="">
        <dc:format>image/svg+xml</dc:format>
        <dc:type
           rdf:resource="http://purl.org/dc/dcmitype/StillImage" />
        <dc:title></dc:title>
      </cc:Work>
    </rdf:RDF>
  </metadata>
  <defs
     id="defs3382">
    <marker
       inkscape:stockid="Arrow1Lend"
       orient="auto"
       refY="0"
       refX="0"
       id="Arrow1Lend"
       style="overflow:visible">
      <path
         id="path3238"
         d="M 0,0 L 5,-5 L -12.5,0 L 5,5 L 0,0 z"
         style="fill-rule:evenodd;stroke:#000000;stroke-width:1pt;marker-start:none"
         transform="matrix(-0.8,0,0,-0.8,-10,0)" />
    </marker>
    <marker
       inkscape:stockid="Arrow1Lstart"
       orient="auto"
       refY="0"
       refX="0"
       id="Arrow1Lstart"
       style="overflow:visible">
      <path
         id="path3235"
         d="M 0,0 L 5,-5 L -12.5,0 L 5,5 L 0,0 z"
         style="fill-rule:evenodd;stroke:#000000;stroke-width:1pt;marker-start:none"
         transform="matrix(0.8,0,0,0.8,10,0)" />
    </marker>
    <inkscape:perspective
       sodipodi:type="inkscape:persp3d"
       inkscape:vp_x="0 : 526.18109 : 1"
       inkscape:vp_y="0 : 1000 : 0"
       inkscape:vp_z="744.09448 : 526.18109 : 1"
       inkscape:persp3d-origin="372.04724 : 350.78739 : 1"
       id="perspective3386" />
    <clipPath
       clipPathUnits="userSpaceOnUse"
       id="clipPath3392">
      <path
         style="fill:none;fill-rule:evenodd;stroke:#000000;stroke-width:1px;stroke-linecap:butt;stroke-linejoin:miter;stroke-opacity:1"
         d="M -1878.1017,-269.08475 L -1971.4576,-1.0257243e-06 L -1872.6102,65.898304 L -2092.2712,477.76271 L -2520.6102,900.61017 L -2355.8644,1043.3898 L -2229.5593,922.57627 L -2108.7458,939.05085 L -2053.8305,862.16949 L -1933.017,928.0678 L -1905.5593,1026.9153 L -2059.322,1252.0678 L -1900.0678,1334.4407 L -1004.9492,538.16949 L -1131.2542,43.932202 L -1482.7119,-197.69492 L -1878.1017,-269.08475 z"
         id="path3394" />
    </clipPath>
    <clipPath
       clipPathUnits="userSpaceOnUse"
       id="clipPath2540">
      <path
         style="fill:none;fill-rule:evenodd;stroke:#000000;stroke-width:1px;stroke-linecap:butt;stroke-linejoin:miter;stroke-opacity:1"
         d="M -1773.6731,-206.4676 L -1847.1831,-222.26881 L -1874.6634,-131.58362 L -1880.1595,-120.59147 L -1887.7166,-113.72138 L -1892.5257,-117.15642 L -1900.0828,-110.28632 L -1900.0828,-104.79026 L -1904.8919,-95.859136 L -1900.7697,-93.111096 L -1896.6477,-86.928017 L -1887.7166,-91.05007 L -1888.4037,-83.492977 L -1827.9468,-61.508684 L -1778.4822,-48.455511 L -1810.0846,13.375315 L -1815.5807,12.001302 L -1844.435,70.397073 L -1814.8937,88.946327 L -1915.197,286.80495 L -1948.8604,292.30103 L -1974.2797,303.98017 L -1990.768,326.65148 L -1993.5161,352.07081 L -1989.394,377.49016 L -1981.8369,396.0394 L -2079.3921,569.85266 L -2096.5674,560.92158 L -2101.3764,567.10469 L -2119.2387,560.92158 L -2124.6924,563.00814 L -2131.9792,558.8789 L -2138.5374,559.85042 L -2140.9663,565.67996 L -2157.9689,572.48103 L -2172.7854,581.71104 L -2178.3721,586.3259 L -2182.7441,585.59726 L -2184.6873,587.78332 L -2184.2015,592.39832 L -2200.4755,607.70061 L -2212.6202,622.03138 L -2215.292,627.61805 L -2220.1499,628.83245 L -2220.1499,635.14775 L -2251.969,674.01082 L -2254.8838,672.79642 L -2256.8269,675.22536 L -2255.8554,680.08324 L -2285.2455,716.27449 L -2290.1034,715.78873 L -2291.318,718.94631 L -2290.8322,725.01874 L -2303.4627,740.56391 L -2307.8348,740.80679 L -2308.3206,745.90755 L -2319.7366,759.75256 L -2323.38,757.5665 L -2325.3231,759.2668 L -2325.566,766.55362 L -2354.2276,801.53047 L -2359.0854,801.28745 L -2362.486,804.20229 L -2362.2432,811.732 L -2379.9744,834.07823 L -2382.6462,833.83535 L -2381.9176,837.47883 L -2391.6333,848.89476 L -2398.1915,848.409 L -2399.1631,851.8096 L -2396.977,856.42461 L -2404.7496,869.54084 L -2407.6644,879.74236 L -2407.9073,890.67267 L -2404.5067,896.74495 L -2403.7781,901.11708 L -2402.8064,902.81738 L -2407.6644,907.1895 L -2373.4162,936.3368 L -2365.1579,931.96468 L -2355.9279,937.79422 L -2343.7832,939.00862 L -2326.5377,932.45044 L -2324.5945,934.87938 L -2321.4368,934.39362 L -2321.4368,927.34968 L -2283.0595,903.54602 L -2278.9304,906.21784 L -2276.0155,904.03178 L -2276.7443,897.71662 L -2239.5814,872.9413 L -2236.6667,875.85614 L -2233.9949,874.6416 L -2234.2378,867.59765 L -2225.4935,863.22553 L -2222.0931,860.55371 L -2193.1886,878.52796 L -2183.9586,882.90009 L -2172.2997,884.35737 L -2162.5839,889.21525 L -2148.2531,890.67267 L -2133.9224,884.35737 L -2124.2066,875.12736 L -2114.0051,859.58219 L -2109.633,852.29536 L -2103.8034,851.8096 L -2093.8448,842.33672 L -2091.1729,836.99293 L -2090.2014,833.10671 L -2082.6716,832.86383 L -2079.9998,825.57701 L -2068.8267,825.57701 L -2053.0385,824.11958 L -2045.9946,825.81989 L -2040.1652,825.81989 L -2037.9791,822.66216 L -2039.1935,817.07564 L -2033.607,816.347 L -2028.7491,815.13246 L -2027.5346,812.46064 L -1873.2967,901.84586 L -1872.325,928.56422 L -1869.8961,937.55134 L -1875.2399,944.35227 L -1873.7824,949.69605 L -1848.2785,966.69864 L -1851.1933,973.49971 L -1850.7074,978.84335 L -1849.0073,982.4867 L -1841.2345,986.85882 L -1874.2682,1032.0372 L -1877.4259,1032.2801 L -1878.8832,1034.709 L -1878.8832,1039.5669 L -1912.4026,1086.9313 L -1916.0461,1087.1742 L -1916.0461,1093.2466 L -1950.7799,1140.8539 L -1955.3949,1140.8539 L -1955.1521,1147.8979 L -1971.6689,1172.4302 L -1975.7981,1185.5464 L -1976.5268,1200.606 L -1976.7697,1204.4922 L -1980.656,1206.9211 L -1979.6844,1209.593 L -1930.6198,1246.0272 L -1923.0901,1245.7843 L -1916.7748,1251.6137 L -1908.7593,1253.314 L -1901.4725,1252.5853 L -1890.5422,1247.2416 L -1884.2269,1247.9704 L -1883.4982,1241.4122 L -1874.5111,1234.6112 L -1872.325,1234.6112 L -1872.8109,1231.4536 L -1677.038,1066.0424 L -1659.0638,1051.2258 L -1656.8777,1051.9545 L -1655.9062,1047.8254 L -1628.702,1023.7788 L -1613.8854,1005.3188 L -1601.4978,986.85882 L -1589.3531,967.1844 L -1578.9086,943.86651 L -1572.5934,926.13528 L -1570.8931,914.47633 L -1568.2213,909.86132 L -1568.2213,884.35737 L -1563.8492,884.35737 L -1546.6037,868.08341 L -1541.7458,868.56932 L -1540.0455,862.49689 L -1510.8982,838.20747 L -1505.5545,838.69323 L -1504.3401,832.86383 L -1476.6501,808.81729 L -1470.0919,809.30305 L -1467.4201,800.55881 L -1442.8878,779.91287 L -1436.8154,781.37015 L -1435.6009,773.84045 L -1408.8825,751.73709 L -1401.3528,751.49421 L -1401.1099,744.93603 L -1376.5776,723.31843 L -1369.2908,723.56131 L -1369.0479,715.78873 L -1345.4871,695.14265 L -1336.0142,695.87129 L -1336.2571,686.39841 L -1313.1822,668.66718 L -1305.4095,667.93854 L -1305.1666,660.89459 L -1284.0348,643.892 L -1276.2622,643.4061 L -1275.2906,634.66199 L -1255.3733,610.12955 L -1242.0141,585.84014 L -1242.4999,583.4112 L -1239.828,580.73937 L -1237.3991,578.79619 L -1237.3991,575.39573 L -1236.4275,573.20967 L -1226.9546,547.21995 L -1223.5541,528.27418 L -1222.8254,500.34128 L -1218.4533,495.48345 L -1221.3681,491.11136 L -1224.2828,489.89688 L -1226.9546,479.69532 L -1233.027,472.40849 L -1229.3836,459.53509 L -1231.8125,457.10614 L -1255.6162,446.66168 L -1279.9056,436.46011 L -1248.3293,407.06989 L -1238.6136,385.2094 L -1236.1846,365.53494 L -1237.1562,351.20417 L -1238.1278,349.26102 L -1238.8565,342.21709 L -1241.5283,330.31526 L -1242.4999,324.97158 L -1243.7144,318.41343 L -1244.9288,317.44186 L -1244.9288,310.64081 L -1242.7428,308.94055 L -1243.4715,304.81135 L -1243.7144,297.52451 L -1225.7402,291.93794 L -1202.9081,281.73637 L -1180.076,267.16271 L -1167.2026,256.47536 L -1160.6445,247.73116 L -1158.4584,234.61486 L -1158.9442,220.52698 L -1168.66,202.5528 L -1192.2207,180.20651 L -1222.8254,164.90416 L -1252.2157,158.10313 L -1277.7196,156.40287 L -1306.624,155.43128 L -1332.6137,156.88866 L -1348.6447,160.04628 L -1364.4329,163.2039 L -1383.1357,170.73364 L -1405.2391,180.4494 L -1421.2702,194.05149 L -1434.1436,209.59673 L -1440.7017,221.01277 L -1441.1875,238.25827 L -1439.0014,249.43142 L -1425.3994,265.94824 L -1407.4252,278.09296 L -1392.8515,285.1369 L -1413.9833,298.73899 L -1413.0118,365.29205 L -1469.8491,346.83208 L -1447.2599,325.94315 L -1446.0454,321.08527 L -1446.5312,317.44186 L -1450.9033,314.28423 L -1456.4899,315.4987 L -1479.079,341.48841 L -1479.079,343.67445 L -1481.7509,342.21709 L -1520.614,372.0931 L -1537.1308,365.29205 L -1514.2987,273.72086 L -1486.123,178.50625 L -1467.1772,101.26584 L -1466.2056,87.420853 L -1468.6346,81.348485 L -1473.0067,80.619803 L -1476.6501,84.749018 L -1477.8646,97.865303 L -1487.8232,152.51655 L -1499.4822,191.13676 L -1509.6837,220.52698 L -1519.3995,254.04641 L -1530.5726,291.69505 L -1539.8026,323.02842 L -1550.49,354.84759 L -1553.1618,354.60469 L -1555.5908,349.9897 L -1565.5494,339.54524 L -1566.0352,330.55816 L -1569.1928,326.91474 L -1595.6683,318.17054 L -1608.2989,313.79844 L -1627.7304,307.48318 L -1631.8596,309.18344 L -1633.317,313.06976 L -1647.8906,305.78292 L -1655.6633,305.54003 L -1662.9501,305.54003 L -1663.9217,312.34106 L -1687.4824,324 L -1693.069,321.32816 L -1697.1982,324.72868 L -1697.684,330.31526 L -1721.0019,345.8605 L -1728.0458,344.16024 L -1729.7461,345.8605 L -1730.2319,351.68996 L -1754.0355,367.2352 L -1762.2939,364.80626 L -1765.2087,367.2352 L -1764.2371,374.52204 L -1789.0122,390.06728 L -1794.8418,386.18098 L -1797.7565,389.09571 L -1799.2139,395.89674 L -1822.5318,410.47041 L -1771.0381,307.96897 L -1719.5444,289.509 L -1674.6091,279.55032 L -1654.4488,272.0206 L -1626.273,256.71826 L -1601.9836,238.50117 L -1575.2652,210.32542 L -1551.4616,172.191 L -1537.1308,141.10051 L -1531.5442,120.45449 L -1521.5856,86.692171 L -1514.7845,56.81616 L -1511.1411,27.911726 L -1509.1979,15.524109 L -1505.3116,-21.881635 L -1502.3969,-23.096106 L -1502.3969,-32.568993 L -1502.8827,-33.297675 L -1500.9395,-39.855818 L -1498.5106,-54.91527 L -1484.1798,-107.86626 L -1484.1798,-119.2823 L -1490.2522,-124.62597 L -1495.1101,-124.62597 L -1495.8387,-131.91281 L -1498.0248,-134.09885 L -1498.0248,-145.272 L -1500.2108,-158.87409 L -1507.2548,-172.71907 L -1512.5985,-177.33406 L -1518.4279,-180.00589 L -1526.6863,-179.27721 L -1532.7587,-176.11959 L -1536.8879,-173.44775 L -1541.5029,-172.71907 L -1545.875,-165.18934 L -1545.875,-161.30303 L -1551.7045,-161.30303 L -1555.8337,-147.70094 L -1569.9215,-149.64409 L -1569.9215,-155.95934 L -1591.2962,-161.30303 L -1601.9836,-163.48908 L -1607.5702,-165.67512 L -1610.4849,-164.94644 L -1612.1852,-170.7759 L -1617.0431,-182.67773 L -1624.8157,-192.8793 L -1633.5599,-200.65191 L -1644.2472,-207.21007 L -1649.5909,-209.63901 L -1662.4644,-209.39612 L -1668.7795,-205.26692 L -1674.852,-204.78113 L -1677.2809,-202.35219 L -1677.2809,-198.46586 L -1680.9243,-197.25139 L -1681.41,-193.12219 L -1686.7538,-192.8793 L -1688.9399,-188.26431 L -1709.8287,-195.79403 L -1713.4722,-196.52271 L -1714.4437,-199.19455 L -1743.834,-209.39612 L -1745.777,-209.8819 L -1746.0199,-205.26692 L -1747.7202,-209.8819 L -1749.1776,-214.01111 L -1752.821,-216.44006 L -1759.8649,-215.95427 L -1762.2939,-212.79663 L -1769.5807,-215.46848 L -1773.6731,-206.4676 z"
         id="path2542" />
    </clipPath>
  </defs>
  <sodipodi:namedview
     inkscape:window-height="1143"
     inkscape:window-width="1918"
     inkscape:pageshadow="2"
     inkscape:pageopacity="0.0"
     guidetolerance="10.0"
     gridtolerance="10.0"
     objecttolerance="10.0"
     borderopacity="1.0"
     bordercolor="#666666"
     pagecolor="#ffffff"
     id="base"
     showgrid="false"
     inkscape:zoom="0.35355339"
     inkscape:cx="1748.6001"
     inkscape:cy="964.36937"
     inkscape:window-x="0"
     inkscape:window-y="25"
     inkscape:current-layer="svg3379"
     inkscape:window-maximized="0" />
  <path
     style="opacity:0.2;fill:#f4818a;fill-opacity:1;stroke:#ff0000;stroke-width:1.78273344;stroke-miterlimit:4;stroke-dasharray:none;stroke-opacity:1"
     d="M 914.4889,1384.1238 C 910.136,1382.5771 802.1683,1346.1845 674.5606,1303.2515 C 546.9529,1260.3185 438.6717,1224.2884 437.3404,1223.7572 C 434.9262,1222.794 455.5286,1206.9391 622.5241,1060.8414 C 724.1743,971.5112 808.7401,896.88222 809.4936,896.33572 C 810.6204,895.51832 853.0232,910.8949 1052.0207,977.9041 C 1185.0867,1022.712 1296.8972,1059.7413 1296.3912,1060.1319 C 1295.2059,1061.047 925.2657,1386.202 923.8673,1387.0797 C 923.3731,1387.3899 918.8418,1385.6706 914.4889,1384.1238 z"
     id="path5647"
     sodipodi:nodetypes="ccscssssc" />
  <path
     style="opacity:0.2;fill:#0000ff;fill-opacity:1;stroke:#0000ff;stroke-width:2.52116609;stroke-miterlimit:4;stroke-dasharray:none;stroke-opacity:1"
     d="M 1298.3873,1310.5745 L 1298.4609,1060.3818 L 1388.222,981.3495 C 1437.631,937.9526 1524.3141,861.80152 1580.851,812.12482 L 1683.2712,722.34062 L 1683.605,972.4316 L 1683.4266,1223.0872 L 1494.4825,1389.176 C 1390.4875,1480.5401 1303.9266,1556.6054 1301.998,1558.1463 L 1298.5175,1561.2084 L 1298.3873,1310.5745 z"
     id="path5681"
     sodipodi:nodetypes="ccccccccccc" />
  <path
     style="opacity:0.2;fill:#f4818a;fill-opacity:1;stroke:#ff0000;stroke-width:1.78273344;stroke-miterlimit:4;stroke-dasharray:none;stroke-opacity:1"
     d="M 1775.9541,1220.2268 C 1771.6012,1218.6801 1663.6335,1182.2876 1536.0257,1139.3545 C 1408.418,1096.4215 1300.1368,1060.3914 1298.8055,1059.8602 C 1296.3913,1058.897 1316.9937,1043.0421 1483.9893,896.94442 C 1585.6395,807.61422 1670.2053,732.98522 1670.9587,732.43872 C 1672.0855,731.62132 1714.4883,746.99792 1913.4859,814.00712 C 2046.5518,858.81502 2158.3623,895.84442 2157.8563,896.23502 C 2156.671,897.15002 1786.7309,1222.305 1785.3325,1223.1827 C 1784.8382,1223.4929 1780.3069,1221.7736 1775.9541,1220.2268 z"
     id="path5623"
     sodipodi:nodetypes="ccscssssc" />
  <path
     sodipodi:nodetypes="ccscssssc"
     id="path5645"
     d="M 1402.7205,1548.3229 C 1398.3677,1546.7762 1290.3998,1510.3837 1162.7921,1467.4506 C 1035.1844,1424.5177 926.9033,1388.4875 925.572,1387.9563 C 923.1578,1386.9931 943.7602,1371.1382 1110.7557,1225.0406 C 1212.4059,1135.7103 1296.9717,1061.0814 1297.7251,1060.5348 C 1298.8519,1059.7174 1341.2548,1075.094 1540.2524,1142.1032 C 1673.3183,1186.9111 1785.1288,1223.9405 1784.6228,1224.3311 C 1783.4375,1225.2461 1413.4974,1550.4011 1412.099,1551.2788 C 1411.6047,1551.589 1407.0734,1549.8697 1402.7205,1548.3229 z"
     style="opacity:0.2;fill:#f4818a;fill-opacity:1;stroke:#ff0000;stroke-width:1.78273344;stroke-miterlimit:4;stroke-dasharray:none;stroke-opacity:1" />
  <path
     sodipodi:nodetypes="ccccccccccc"
     id="path5679"
     d="M 912.0802,1649.916 L 912.1539,1399.7233 L 1001.9148,1320.6911 C 1051.3239,1277.2942 1138.0069,1201.1431 1194.5439,1151.4664 L 1296.964,1061.6821 L 1297.2978,1311.7732 L 1297.1194,1562.4287 L 1108.1754,1728.5176 C 1004.1803,1819.8816 917.6195,1895.9469 915.6909,1897.4879 L 912.2104,1900.55 L 912.0802,1649.916 z"
     style="opacity:0.2;fill:#0000ff;fill-opacity:1;stroke:#0000ff;stroke-width:2.52116609;stroke-miterlimit:4;stroke-dasharray:none;stroke-opacity:1" />
  <image
     sodipodi:absref="/home/thomas/docs/thesis/thomas/images/packbot.jpg"
     xlink:href="packbot.jpg"
     width="2592"
     height="1944"
     id="image3388"
     x="-3272.9492"
     y="-538.16949"
     clip-path="url(#clipPath2540)"
     transform="matrix(0.706382,-1.4050793e-2,1.4050793e-2,0.706382,2564.6374,579.85672)"
     style="opacity:1;fill:#ffffff;fill-opacity:1;stroke:#000000;stroke-width:1;stroke-linejoin:miter;stroke-miterlimit:4;stroke-dasharray:none;stroke-dashoffset:0;stroke-opacity:1" />
  <path
     style="fill:none;fill-rule:evenodd;stroke:#000000;stroke-width:5;stroke-linecap:butt;stroke-linejoin:miter;marker-start:url(#Arrow1Lstart);stroke-miterlimit:4;stroke-dasharray:none;stroke-opacity:1"
     d="M 1297.6814,144.31511 L 1297.6814,1805.4233"
     id="path2454" />
  <path
     style="fill:none;fill-rule:evenodd;stroke:#000000;stroke-width:5;stroke-linecap:butt;stroke-linejoin:miter;marker-start:none;marker-end:url(#Arrow1Lend);stroke-miterlimit:4;stroke-dasharray:none;stroke-opacity:1"
     d="M 729.2329,868.5174 L 2200.963,1365.106"
     id="path3228"
     sodipodi:nodetypes="cc" />
  <path
     sodipodi:nodetypes="ccscssssc"
     id="path5649"
     d="M 1288.4697,1056.093 C 1284.1168,1054.5463 1176.1491,1018.1538 1048.5414,975.2207 C 920.9337,932.2878 812.6525,896.25762 811.3212,895.72642 C 808.907,894.76322 829.5094,878.90832 996.5049,732.81062 C 1098.1551,643.48042 1182.7209,568.85142 1183.4744,568.30492 C 1184.6012,567.48752 1227.004,582.86412 1426.0016,649.87332 C 1559.0676,694.68122 1670.878,731.71062 1670.3721,732.10122 C 1669.1868,733.01622 1299.2465,1058.1712 1297.8481,1059.0489 C 1297.3539,1059.3591 1292.8225,1057.6398 1288.4697,1056.093 z"
     style="opacity:0.2;fill:#f4818a;fill-opacity:1;stroke:#ff0000;stroke-width:1.78273344;stroke-miterlimit:4;stroke-dasharray:none;stroke-opacity:1" />
  <g
     id="g3362">
    <path
       id="path3393"
       d="M 1478.8569,501.6272 L 1480.9344,496.05034 L 1481.6674,491.91631 L 1479.7579,490.8386 L 1480.0723,487.22782 L 1482.5596,484.98989 L 1482.8043,482.1958 L 1484.1523,480.92457 L 1488.1396,480.75943 L 1491.6911,482.40524 L 1493.1243,485.42341 L 1495.6753,488.54808 L 1496.3441,491.96766 L 1497.3938,495.1222 C 1497.3938,495.1222 1497.8122,505.36961 1497.8173,505.62698 C 1497.8224,505.88434 1496.2927,506.64426 1496.2927,506.64426 L 1495.1266,508.4268 L 1494.3203,508.87195 L 1494.1168,509.43384 L 1478.8569,501.6272 z"
       style="opacity:1;fill:#ffffff;fill-opacity:1;stroke:#000000;stroke-width:0;stroke-linejoin:miter;stroke-miterlimit:4;stroke-dasharray:none;stroke-dashoffset:0;stroke-opacity:1" />
    <g
       id="g3349">
      <path
         style="opacity:1;fill:#ffffff;fill-opacity:1;stroke:#000000;stroke-width:0;stroke-linejoin:miter;stroke-miterlimit:4;stroke-dasharray:none;stroke-dashoffset:0;stroke-opacity:1"
         d="M 1173.7849,880.8228 L 1172.9142,876.7135 L 1170.7299,870.62773 L 1169.4506,864.28122 L 1168.3712,861.87527 L 1168.1278,846.58741 L 1169.3883,845.89479 L 1169.4131,841.03947 L 1171.9966,836.67942 L 1175.9511,831.0784 L 1179.1592,827.61619 L 1183.4713,824.73891 L 1190.802,821.07334 L 1196.3491,819.26381 L 1203.0512,817.55267 L 1209.7846,817.41874 L 1186.8134,861.56912 L 1183.7568,866.54544 L 1180.8242,868.60639 L 1177.735,871.94484 L 1175.9719,874.83213 L 1175.4013,876.66404 L 1174.7216,879.10497 L 1174.8246,881.22691 L 1173.7849,880.8228 z"
         id="path3369"
         sodipodi:nodetypes="ccccccccccccccccccccccccc" />
      <path
         style="opacity:1;fill:#ffffff;fill-opacity:1;stroke:#000000;stroke-width:0;stroke-linejoin:miter;stroke-miterlimit:4;stroke-dasharray:none;stroke-dashoffset:0;stroke-opacity:1"
         d="M 1207.4942,949.39427 L 1199.0614,934.26929 L 1239.9347,847.40443 L 1260.7884,840.19288 L 1258.7132,845.69584 L 1238.6396,886.02608 L 1228.854,906.61102 L 1221.5147,922.04971 L 1211.2245,941.67371 L 1207.4942,949.39427 z"
         id="path3374" />
      <path
         style="opacity:1;fill:#ffffff;fill-opacity:1;stroke:#000000;stroke-width:0;stroke-linejoin:miter;stroke-miterlimit:4;stroke-dasharray:none;stroke-dashoffset:0;stroke-opacity:1"
         d="M 1327.0635,803.91981 L 1348.1736,760.77741 L 1364.3761,727.19955 L 1377.3362,701.45391 L 1398.3104,657.58598 L 1399.7613,657.31438 L 1400.3246,655.1185 L 1408.6151,638.68992 L 1414.219,627.53372 L 1414.5034,623.52283 L 1419.5513,614.92647 L 1420.2407,612.97082 L 1422.6477,611.95198 L 1425.5595,611.89406 L 1430.2373,615.19939 L 1434.6387,616.81103 L 1442.6533,617.01573 L 1455.1544,617.0098 L 1460.2208,615.45257 L 1461.3322,616.40145 L 1463.7586,616.35318 L 1465.5958,635.49321 L 1466.714,661.20156 L 1466.0233,675.2943 L 1464.3477,688.6784 L 1463.109,699.62641 L 1460.0069,708.42681 L 1457.4072,718.06681 L 1451.7768,727.88846 L 1445.5639,738.93541 L 1439.8803,746.08796 L 1431.8186,755.71524 L 1423.9296,761.81932 L 1416.0648,769.13664 L 1406.7149,775.02703 L 1394.8295,781.57473 L 1384.0287,787.73674 L 1375.463,790.33453 L 1362.8423,796.53273 L 1356.4678,799.45106 L 1350.1927,801.27507 L 1342.3236,802.28119 L 1333.7266,803.30179 L 1327.0635,803.91981 z"
         id="path3385" />
      <path
         style="opacity:1;fill:#ffffff;fill-opacity:1;stroke:#000000;stroke-width:0;stroke-linejoin:miter;stroke-miterlimit:4;stroke-dasharray:none;stroke-dashoffset:0;stroke-opacity:1"
         d="M 1454.7506,737.05348 L 1461.0535,724.42692 L 1464.9975,715.24568 L 1468.1507,702.9245 L 1470.5907,691.34575 L 1471.5233,683.31674 L 1473.6625,668.83107 L 1473.2565,654.5174 L 1472.9186,637.53222 L 1471.9124,629.66314 L 1470.5888,618.03787 L 1469.5393,607.98498 L 1468.1741,600.36578 L 1477.4405,602.4875 L 1478.918,603.55045 L 1484.2852,604.90014 L 1492.1808,605.22857 L 1491.0828,617.14474 L 1489.3757,628.95165 L 1487.1899,647.20075 L 1484.456,662.30509 L 1479.9313,678.90151 L 1476.7877,691.70797 L 1473.7099,701.72159 L 1469.5354,711.51429 L 1464.7783,722.53226 L 1460.7861,729.28708 L 1456.8981,735.19019 L 1454.7506,737.05348 z"
         id="path3387" />
      <path
         style="opacity:1;fill:#ffffff;fill-opacity:1;stroke:#000000;stroke-width:0;stroke-linejoin:miter;stroke-miterlimit:4;stroke-dasharray:none;stroke-dashoffset:0;stroke-opacity:1"
         d="M 1263.6693,806.37056 L 1276.6704,782.59671 L 1283.5297,769.3295 L 1290.3289,757.35082 L 1303.9738,731.41861 L 1318.3856,705.21367 L 1332.4763,680.13082 L 1338.0248,682.9384 L 1337.6214,684.23375 L 1334.1344,690.13902 L 1327.3297,706.15145 L 1318.8592,720.39476 L 1311.2324,738.22581 L 1294.5465,770.91263 L 1285.0682,790.58276 L 1279.3672,801.68138 L 1278.0783,805.9123 L 1263.6693,806.37056 z"
         id="path3381" />
      <path
         style="opacity:1;fill:#ffffff;fill-opacity:1;stroke:#000000;stroke-width:0;stroke-linejoin:miter;stroke-miterlimit:4;stroke-dasharray:none;stroke-dashoffset:0;stroke-opacity:1"
         d="M 1246.474,837.50402 L 1251.0474,829.46326 L 1252.4345,825.9766 L 1256.7107,818.2452 L 1258.5783,814.50624 L 1259.2785,813.09656 L 1274.445,812.85556 L 1274.7263,814.79189 L 1265.0478,831.6122 L 1260.64,832.73152 L 1256.7854,834.20396 L 1254.3771,835.16214 L 1252.0949,836.36055 L 1250.3466,836.9415 L 1248.3022,837.89244 L 1246.474,837.50402 z"
         id="path3379" />
      <path
         style="opacity:1;fill:#ffffff;fill-opacity:1;stroke:#000000;stroke-width:0;stroke-linejoin:miter;stroke-miterlimit:4;stroke-dasharray:none;stroke-dashoffset:0;stroke-opacity:1"
         d="M 1195.309,942.12769 L 1187.2004,957.30787 L 1187.9634,961.15466 L 1188.6237,964.14528 L 1193.9877,974.93802 L 1195.0051,974.31691 L 1195.6403,971.72974 L 1202.999,957.68019 L 1203.2944,955.27129 L 1195.309,942.12769 z"
         id="path3367" />
      <path
         style="opacity:1;fill:#ffffff;fill-opacity:1;stroke:#000000;stroke-width:0;stroke-linejoin:miter;stroke-miterlimit:4;stroke-dasharray:none;stroke-dashoffset:0;stroke-opacity:1"
         d="M 1182.9838,968.02682 L 1183.1266,972.1505 L 1181.3779,975.76575 L 1180.0723,977.24815 L 1178.3749,977.34255 L 1175.1798,984.50636 L 1171.6218,991.7379 L 1169.9954,998.44572 L 1167.9615,1002.9768 L 1165.9183,1003.9885 L 1164.2243,1007.2992 L 1162.7219,1011.0916 L 1162.3251,1012.4952 L 1163.4544,1014.354 L 1162.5356,1016.9817 L 1162.2079,1018.8088 L 1168.9642,1019.8275 L 1172.0058,1020.1917 L 1174.7201,1016.3145 L 1174.8095,1008.6058 L 1177.0565,1008.6825 L 1178.2437,1001.2552 L 1180.9044,1000.7775 L 1182.0311,993.35141 L 1184.8738,992.87007 L 1186.1182,985.25975 L 1188.1794,985.15802 L 1188.3943,983.758 L 1190.3331,983.59813 L 1184.2051,971.46143 L 1182.9838,968.02682 z"
         id="path3383" />
      <path
         style="opacity:1;fill:#ffffff;fill-opacity:1;stroke:#000000;stroke-width:0;stroke-linejoin:miter;stroke-miterlimit:4;stroke-dasharray:none;stroke-dashoffset:0;stroke-opacity:1"
         d="M 1384.5745,475.39585 L 1384.1468,471.15617 L 1383.9428,469.52962 L 1384.4535,467.15936 L 1386.0364,466.91331 L 1386.5084,464.75837 L 1386.0874,463.00739 L 1388.7425,462.74002 L 1391.0074,462.26586 L 1392.9016,462.57147 L 1396.7603,462.4089 L 1399.4951,463.98512 L 1403.9343,467.11515 L 1407.0618,469.02684 L 1408.8624,471.09367 L 1411.0574,473.58176 L 1412.9102,476.11956 L 1415.1557,478.99284 L 1416.2716,481.15911 L 1416.6867,482.60984 L 1415.1965,483.19731 L 1412.1081,483.25875 L 1406.1041,481.27553 L 1400.1926,479.63377 L 1393.4301,478.35223 L 1388.9375,476.85388 L 1384.5745,475.39585 z"
         id="path3391" />
      <path
         style="opacity:1;fill:#ffffff;fill-opacity:1;stroke:#000000;stroke-width:0;stroke-linejoin:miter;stroke-miterlimit:4;stroke-dasharray:none;stroke-dashoffset:0;stroke-opacity:1"
         d="M 1429.2823,561.08705 L 1428.243,557.64865 L 1424.2396,554.69402 L 1418.9115,552.25123 L 1412.4572,551.16589 L 1405.8901,550.50761 L 1401.8756,550.0413 L 1399.4129,548.26972 L 1396.7912,547.65433 L 1394.2959,544.24491 L 1392.6572,541.18255 L 1393.0994,535.95481 L 1398.2187,518.73971 L 1400.7662,509.52554 L 1403.5138,501.21769 L 1405.784,499.41265 L 1409.8422,499.02849 L 1413.8447,498.88819 L 1415.7374,499.4574 L 1418.2499,500.68182 L 1418.7009,502.00793 L 1417.5762,503.42607 L 1415.0244,506.32903 L 1414.7658,508.57954 L 1416.2554,510.24909 L 1418.1681,514.88382 L 1419.9319,518.12575 L 1420.8828,520.17014 L 1423.4996,520.54288 L 1422.615,521.83487 L 1421.5204,524.76954 L 1421.5238,527.9858 L 1422.4807,530.33349 L 1425.004,532.10386 L 1428.4035,532.15762 L 1431.6138,531.85101 L 1431.0221,538.72022 L 1429.3926,539.17743 L 1429.6169,541.29697 L 1432.2532,542.64029 L 1436.1134,544.50544 L 1433.9486,548.55373 L 1432.7747,553.61396 L 1431.5552,556.36906 L 1430.8876,559.41662 L 1429.2823,561.08705 z"
         id="path3389" />
      <path
         style="opacity:1;fill:#ffffff;fill-opacity:1;stroke:#000000;stroke-width:0;stroke-linejoin:miter;stroke-miterlimit:4;stroke-dasharray:none;stroke-dashoffset:0;stroke-opacity:1"
         d="M 1035.6011,1212.5709 C 1034.0405,1210.7834 1033.2472,1211.101 1032.4087,1211.5714 C 1029.3727,1212.8708 1026.3278,1210.4112 1023.5629,1209.055 C 1023.8484,1207.6401 1026.2747,1208.675 1027.5808,1209.6885 C 1027.6336,1210.0282 1030.387,1208.0328 1030.1951,1206.3212 C 1029.8497,1203.2401 1030.4591,1203.1721 1032.334,1202.1331 C 1035.1134,1200.4808 1046.3041,1191.877 1048.0256,1191.486 C 1048.8075,1193.0698 1049.8521,1195.6773 1049.6202,1197.7736 C 1049.3572,1198.3361 1048.361,1200.5978 1048.0747,1202.1048 C 1047.2562,1206.8768 1046.8668,1210.2637 1044.2098,1215.3219 L 1040.7035,1217.7087 C 1038.8933,1216.105 1037.2296,1214.3555 1035.6011,1212.5709 z"
         id="path2555"
         sodipodi:nodetypes="ccccsccccccc" />
    </g>
  </g>
  <path
     sodipodi:nodetypes="ccccccccccc"
     id="path5683"
     d="M 911.8686,1147.0261 L 911.9423,896.83342 L 1001.7033,817.80112 C 1051.1123,774.40422 1137.7954,698.25312 1194.3323,648.57642 L 1296.7525,558.79212 L 1297.0863,808.88322 L 1296.9079,1059.5388 L 1107.9638,1225.6276 C 1003.9688,1316.9916 917.4079,1393.0569 915.4794,1394.5979 L 911.9988,1397.66 L 911.8686,1147.0261 z"
     style="opacity:0.2;fill:#0000ff;fill-opacity:1;stroke:#0000ff;stroke-width:2.52116609;stroke-miterlimit:4;stroke-dasharray:none;stroke-opacity:1" />
  <path
     style="fill:none;fill-rule:evenodd;stroke:#000000;stroke-width:5;stroke-linecap:butt;stroke-linejoin:miter;marker-end:url(#Arrow1Lend);stroke-miterlimit:4;stroke-dasharray:none;stroke-opacity:1"
     d="M 1754.1719,657.6706 L 574.4846,1695.5712"
     id="path3230" />
  <text
     xml:space="preserve"
     style="font-size:72px;font-style:italic;font-variant:normal;font-weight:normal;font-stretch:normal;text-align:start;line-height:125%;writing-mode:lr-tb;text-anchor:start;fill:#000000;fill-opacity:1;stroke:none;stroke-width:1px;stroke-linecap:butt;stroke-linejoin:miter;stroke-opacity:1;font-family:Bitstream Vera Serif;-inkscape-font-specification:Bitstream Vera Serif Italic"
     x="1273.1885"
     y="118.00219"
     id="text5589"
     sodipodi:linespacing="125%"
     transform="scale(1.0000121,0.9999879)"><tspan
       sodipodi:role="line"
       id="tspan5591"
       x="1273.1885"
       y="118.00219">z</tspan></text>
  <text
     xml:space="preserve"
     style="font-size:72px;font-style:italic;font-variant:normal;font-weight:normal;font-stretch:normal;text-align:start;line-height:125%;writing-mode:lr-tb;text-anchor:start;fill:#000000;fill-opacity:1;stroke:none;stroke-width:1px;stroke-linecap:butt;stroke-linejoin:miter;stroke-opacity:1;font-family:Bitstream Vera Serif;-inkscape-font-specification:Bitstream Vera Serif Italic"
     x="2217.5759"
     y="1397.7024"
     id="text5593"
     sodipodi:linespacing="125%"
     transform="scale(1.0000121,0.9999879)"><tspan
       sodipodi:role="line"
       id="tspan5595"
       x="2217.5759"
       y="1397.7024">y</tspan></text>
  <text
     xml:space="preserve"
     style="font-size:72px;font-style:italic;font-variant:normal;font-weight:normal;font-stretch:normal;text-align:start;line-height:125%;writing-mode:lr-tb;text-anchor:start;fill:#000000;fill-opacity:1;stroke:none;stroke-width:1px;stroke-linecap:butt;stroke-linejoin:miter;stroke-opacity:1;font-family:Bitstream Vera Serif;-inkscape-font-specification:Bitstream Vera Serif Italic"
     x="518.72717"
     y="1742.2743"
     id="text5597"
     sodipodi:linespacing="125%"
     transform="scale(1.0000121,0.9999879)"><tspan
       sodipodi:role="line"
       id="tspan5599"
       x="518.72717"
       y="1742.2743">x</tspan></text>
  <g
     id="g5665"
     style="opacity:0.2"
     transform="matrix(0.4490823,0,0,0.4490715,-569.0868,542.46642)">
    <path
       sodipodi:nodetypes="cc"
       id="path5657"
       d="M 4156.8359,1152.5359 L 4156.8179,31.987172"
       style="fill:none;fill-rule:evenodd;stroke:#0000ff;stroke-width:2.22678995px;stroke-linecap:butt;stroke-linejoin:miter;stroke-opacity:1" />
    <path
       style="fill:none;fill-rule:evenodd;stroke:#0000ff;stroke-width:2.22678995px;stroke-linecap:butt;stroke-linejoin:miter;stroke-opacity:1"
       d="M 4157.0102,1152.1475 L 5017.6429,396.08508"
       id="path5659"
       sodipodi:nodetypes="cc" />
    <path
       sodipodi:nodetypes="cc"
       id="path5661"
       d="M 4156.6538,32.356489 L 5017.2865,-723.70592"
       style="fill:none;fill-rule:evenodd;stroke:#0000ff;stroke-width:2.22678995px;stroke-linecap:butt;stroke-linejoin:miter;stroke-opacity:1" />
    <path
       style="fill:none;fill-rule:evenodd;stroke:#0000ff;stroke-width:2.22678995px;stroke-linecap:butt;stroke-linejoin:miter;stroke-opacity:1"
       d="M 5017.459,396.49446 L 5017.1149,-723.32963"
       id="path5663"
       sodipodi:nodetypes="cc" />
  </g>
  <path
     style="fill:none;fill-rule:evenodd;stroke:#000000;stroke-width:5;stroke-linecap:butt;stroke-linejoin:miter;marker-start:url(#Arrow1Lstart);marker-end:none;stroke-miterlimit:4;stroke-dasharray:none;stroke-opacity:1"
     d="m 2020.0063,1331.7686 c -33.5114,34.8388 -89.9043,107.9899 -123.7201,67.4395 -104.7192,-125.5748 134.9316,-334.2998 151.265,-101.4027"
     id="path2549"
     sodipodi:nodetypes="csc" />
  <text
     xml:space="preserve"
     style="font-size:10.77784634px;font-style:italic;font-variant:normal;font-weight:normal;font-stretch:normal;text-align:start;line-height:125%;writing-mode:lr-tb;text-anchor:start;fill:#000000;fill-opacity:1;stroke:none;stroke-width:1px;stroke-linecap:butt;stroke-linejoin:miter;stroke-opacity:1;font-family:Bitstream Vera Serif;-inkscape-font-specification:Bitstream Vera Serif Italic"
     x="736.35242"
     y="752.4082"
     id="text4924"
     sodipodi:linespacing="125%"
     transform="scale(1.0000121,0.9999879)"><tspan
       sodipodi:role="line"
       id="tspan4926"
       x="736.35242"
       y="752.4082" /></text>
  <text
     xml:space="preserve"
     style="font-size:72px;font-style:italic;font-variant:normal;font-weight:normal;font-stretch:normal;text-align:start;line-height:125%;writing-mode:lr-tb;text-anchor:start;fill:#000000;fill-opacity:1;stroke:none;stroke-width:1px;stroke-linecap:butt;stroke-linejoin:miter;stroke-opacity:1;font-family:Bitstream Vera Serif;-inkscape-font-specification:Bitstream Vera Serif Italic"
     x="1943.3646"
     y="1454.7726"
     id="text4928"
     sodipodi:linespacing="125%"
     transform="scale(1.0000121,0.9999879)"><tspan
       sodipodi:role="line"
       id="tspan4930"
       x="1943.3646"
       y="1454.7726">θ</tspan></text>
  <path
     sodipodi:nodetypes="csc"
     id="path4932"
     d="m 1278.8819,425.75444 c -26.8639,-16.2656 -85.4503,-39.95987 -88.7562,-75.61016 -8.1261,-87.63196 327.9989,-71.11146 164.1328,76.12116"
     style="fill:none;stroke:#000000;stroke-width:5;stroke-linecap:butt;stroke-linejoin:miter;stroke-miterlimit:4;stroke-opacity:1;stroke-dasharray:none;marker-start:url(#Arrow1Lstart);marker-end:none" />
  <path
     style="opacity:0.2;fill:#0000ff;fill-opacity:1;stroke:#0000ff;stroke-width:2.52116609;stroke-miterlimit:4;stroke-dasharray:none;stroke-opacity:1"
     d="M 1298.3382,807.51332 L 1298.4119,557.32062 L 1388.173,478.28842 C 1437.582,434.89152 1524.2651,358.74042 1580.802,309.06372 L 1683.2222,219.27942 L 1683.556,469.37052 L 1683.3775,720.02602 L 1494.4335,886.11492 C 1390.4385,977.4789 1303.8775,1053.5442 1301.9489,1055.0852 L 1298.4684,1058.1473 L 1298.3382,807.51332 z"
     id="path5677"
     sodipodi:nodetypes="ccccccccccc" />
  <text
     xml:space="preserve"
     style="font-size:72px;font-style:italic;font-variant:normal;font-weight:normal;font-stretch:normal;text-align:start;line-height:125%;writing-mode:lr-tb;text-anchor:start;fill:#000000;fill-opacity:1;stroke:none;stroke-width:1px;stroke-linecap:butt;stroke-linejoin:miter;stroke-opacity:1;font-family:Bitstream Vera Serif;-inkscape-font-specification:Bitstream Vera Serif Italic"
     x="1129.9945"
     y="425.84967"
     id="text4934"
     sodipodi:linespacing="125%"
     transform="scale(1.0000121,0.9999879)"><tspan
       sodipodi:role="line"
       id="tspan4936"
       x="1129.9945"
       y="425.84967">ψ</tspan></text>
  <path
     style="fill:none;fill-rule:evenodd;stroke:#000000;stroke-width:5;stroke-linecap:butt;stroke-linejoin:miter;marker-start:none;marker-end:url(#Arrow1Lend);stroke-miterlimit:4;stroke-dasharray:none;stroke-opacity:1"
     d="m 716.744,1539.3405 c -33.36539,-193.5019 251.17113,-10.8329 142.0449,54.2954 -19.50617,11.6416 -72.25135,-7.2445 -100.4359,-10.0386"
     id="path4938"
     sodipodi:nodetypes="csc" />
  <text
     xml:space="preserve"
     style="font-size:72px;font-style:italic;font-variant:normal;font-weight:normal;font-stretch:normal;text-align:start;line-height:125%;writing-mode:lr-tb;text-anchor:start;fill:#000000;fill-opacity:1;stroke:none;font-family:Bitstream Vera Serif;-inkscape-font-specification:Bitstream Vera Serif Italic"
     x="817.86652"
     y="1672.4209"
     id="text4940"
     sodipodi:linespacing="125%"
     transform="scale(1.0000121,0.9999879)"><tspan
       sodipodi:role="line"
       id="tspan4942"
       x="817.86652"
       y="1672.4209">ϕ</tspan></text>
  <g
     inkscape:groupmode="layer"
     id="layer1"
     inkscape:label="floor" />
</svg>
