<?xml version="1.0" standalone="no"?>
<!DOCTYPE svg PUBLIC "-//W3C//DTD SVG 1.1//EN"
  "http://www.w3.org/Graphics/SVG/1.1/DTD/svg11.dtd">
<!-- Created with matplotlib (http://matplotlib.sourceforge.net/) -->
<svg width="576pt" height="432pt" viewBox="0 0 576 432"
   xmlns="http://www.w3.org/2000/svg"
   xmlns:xlink="http://www.w3.org/1999/xlink"
   version="1.1"
   id="svg1">
<g id="figure1">
<g id="patch1">
<path style="fill: #ffffff; stroke: #ffffff; stroke-width: 1.000000; stroke-linejoin: round; stroke-linecap: square;  opacity: 1.000000"  d="M0.000000 432.000000L576.000000 432.000000L576.000000 0.000000
L0.000000 0.000000L0.000000 432.000000"/>
</g>
<g id="axes1">
<g id="patch2">
<path style="fill: #ffffff; opacity: 1.000000"  d="M72.000000 388.800000L518.400000 388.800000L518.400000 43.200000
L72.000000 43.200000L72.000000 388.800000"/>
</g>
<g id="line2d1">
<defs>
  <clipPath id="p50431ccdcb28178602d99d9270004dde">
<rect x="72.000000" y="43.200000" width="446.400000" height="345.600000"/>
  </clipPath>
</defs><path style="fill: none; stroke: #0000ff; stroke-width: 1.000000; stroke-linejoin: round; stroke-linecap: square;  opacity: 1.000000" clip-path="url(#p50431ccdcb28178602d99d9270004dde)" d="M72.000000 216.000000L98.784000 216.000000L99.621000 209.712190
L100.737000 210.106475L101.853000 209.974656L103.248000 203.527725
L103.527000 202.059835L104.643000 203.141750L105.480000 205.939332
L106.596000 206.676732L107.712000 206.595923L107.991000 221.530531
L108.549000 220.272805L109.386000 208.802673L110.223000 184.814964
L110.781000 179.384527L111.339000 178.285539L113.013000 168.798541
L113.850000 163.962208L114.966000 156.656265L116.361000 160.656781
L117.756000 168.862622L119.430000 173.896606L123.336000 182.659759
L126.963000 189.574157L128.916000 193.441152L130.590000 196.023518
L131.985000 198.351628L132.822000 199.352438L133.938000 199.968934
L139.518000 205.473961L141.750000 205.935898L142.587000 224.591936
L143.424000 222.450949L145.377000 177.370328L145.935000 165.161806
L148.167000 50.120654L148.446000 47.548633L149.562000 56.307255
L150.120000 63.984330L150.399000 65.884918L151.236000 64.085126
L152.073000 66.379376L156.816000 99.169308L157.932000 106.826710
L159.327000 116.068374L160.164000 119.918887L161.001000 124.231802
L163.512000 137.137325L164.907000 145.930298L166.023000 148.713109
L169.929000 165.609543L170.487000 167.199896L171.603000 168.184239
L174.393000 178.723807L174.951000 180.063214L176.067000 181.469996
L178.020000 185.689971L179.136000 188.424697L188.622000 199.851532
L189.738000 200.079860L193.086000 202.890587L195.318000 203.635493
L197.550000 205.518669L199.782000 205.931212L200.061000 120.575402
L201.177000 122.742864L201.735000 120.946758L202.851000 110.741799
L203.409000 112.371240L205.362000 135.651447L206.478000 135.266503
L206.757000 133.851155L207.873000 136.882113L209.826000 150.194359
L210.942000 150.381142L211.500000 151.395820L213.732000 164.230112
L214.848000 163.783014L215.685000 165.355703L217.080000 171.828667
L217.638000 173.254020L218.754000 173.705512L220.707000 178.749181
L222.660000 184.912413L224.892000 185.371772L227.403000 190.187088
L231.588000 194.867047L233.541000 197.388951L234.657000 197.194287
L235.773000 197.753977L238.842000 200.827745L239.958000 200.663528
L242.190000 202.986855L243.306000 202.130649L243.864000 200.868198
L244.701000 202.404913L246.096000 209.540663L246.933000 208.319579
L247.770000 205.368525L248.886000 205.006587L249.444000 190.372132
L250.560000 217.204627L251.118000 208.562138L253.071000 143.030033
L253.629000 138.175575L254.466000 141.518877L255.582000 168.075658
L256.140000 164.614858L256.698000 159.313878L257.535000 156.588678
L258.651000 156.520612L259.767000 157.552038L262.278000 169.834987
L263.673000 173.126305L266.463000 179.071629L266.742000 180.463027
L271.206000 188.450791L280.692000 201.332790L282.924000 203.185242
L285.156000 204.640166L286.272000 205.544154L287.388000 154.620669
L287.946000 148.635864L288.225000 143.679825L289.620000 82.302343
L290.457000 72.650898L290.736000 69.507298L291.573000 72.095853
L292.689000 82.028732L293.526000 98.707253L293.805000 100.628165
L295.479000 95.506783L296.037000 96.758043L296.874000 104.222267
L297.711000 114.618643L298.827000 113.794483L299.943000 115.487502
L300.501000 123.653373L301.059000 131.263015L302.175000 131.880262
L302.733000 128.363460L303.291000 129.767217L304.128000 135.365078
L304.965000 145.590489L305.523000 148.487560L306.639000 147.543296
L307.197000 145.034766L308.313000 147.300476L308.871000 151.581966
L309.708000 168.700861L310.266000 176.896509L311.103000 169.486261
L311.940000 159.376639L313.056000 159.546658L313.335000 160.742059
L313.893000 165.734090L314.730000 167.818478L315.567000 173.460528
L316.683000 181.341606L317.520000 180.312017L318.078000 177.583258
L318.915000 178.934224L319.752000 177.719554L320.310000 178.775172
L321.147000 184.524181L322.263000 193.219190L323.658000 195.945407
L324.774000 197.337268L325.611000 195.958875L328.680000 201.915884
L329.517000 203.130031L330.633000 203.849582L331.749000 203.856767
L336.213000 207.375428L337.329000 208.020974L337.608000 193.638260
L338.724000 191.991327L340.119000 186.951328L341.235000 187.582243
L347.931000 199.166448L351.279000 202.255671L353.511000 204.590859
L354.348000 219.953301L355.464000 219.480558L357.138000 202.525709
L358.254000 203.551277L359.370000 206.129569L360.486000 206.719301
L362.718000 207.218003L363.834000 202.131988L365.229000 183.523800
L366.345000 184.221427L367.182000 189.496755L368.298000 187.951838
L370.530000 189.525855L371.646000 194.717060L372.762000 194.573560
L373.320000 193.139497L374.436000 192.978506L375.831000 196.491808
L376.947000 196.743225L378.063000 196.093233L380.295000 198.490637
L382.527000 199.781637L384.759000 201.626052L386.991000 202.795015
L389.223000 204.060450L390.339000 204.635749L391.176000 220.011863
L392.292000 219.834809L394.524000 194.533841L395.640000 193.562380
L396.477000 196.216356L397.593000 196.891404L399.546000 199.242499
L404.289000 205.164640L404.568000 222.943752L405.684000 222.491918
L407.637000 204.045608L408.753000 203.179012L409.869000 203.774041
L410.706000 207.358205L410.985000 209.700778L411.264000 232.033189
L412.101000 211.777276L413.496000 181.089071L413.775000 179.961115
L415.728000 185.422171L417.960000 188.751398L421.587000 195.129199
L424.098000 198.589768L431.352000 205.378990L432.189000 243.042892
L432.747000 242.039090L433.584000 228.952613L434.421000 204.837638
L435.258000 196.203502L435.816000 194.726210L436.653000 185.440038
L437.490000 175.879966L437.769000 174.620386L438.606000 168.353427
L439.443000 165.982506L440.001000 164.543946L440.559000 159.863554
L441.396000 162.653585L441.675000 166.064655L442.512000 191.337402
L443.070000 187.825537L443.628000 180.308991L444.186000 177.976157
L445.023000 168.840255L446.139000 168.560483L446.976000 169.791039
L449.487000 178.274166L450.324000 180.520390L451.440000 181.687764
L451.998000 182.960744L453.114000 184.413530L454.509000 187.506040
L455.904000 189.632814L457.020000 190.667757L458.415000 193.007051
L461.763000 197.621884L462.879000 198.146458L464.553000 200.463535
L466.785000 202.303616L469.017000 204.045112L471.249000 205.210898
L472.365000 205.790489L473.202000 185.476471L474.318000 185.041308
L475.434000 174.389347L476.550000 185.784242L477.666000 183.401639
L478.224000 179.999824L479.340000 182.052103L480.456000 185.811284
L481.293000 186.866343L481.572000 188.033545L482.409000 189.111670
L482.688000 190.877301L486.036000 195.895339L488.547000 199.669152
L490.500000 201.718616L492.732000 203.737315L493.569000 216.000000
L504.729000 216.000000L504.729000 216.000000"/>
</g>
<g id="line2d2">
<path style="fill: none; stroke: #008000; stroke-width: 1.000000; stroke-linejoin: round; stroke-linecap: square;  opacity: 1.000000" clip-path="url(#p50431ccdcb28178602d99d9270004dde)" d="M72.000000 216.000000L98.784000 216.000000L99.621000 62.701911
L101.295000 55.790389L101.853000 59.315155L102.132000 73.148203
L102.411000 43.200000L103.527000 43.200000L104.643000 142.830969
L105.480000 228.125179L106.038000 241.983767L106.875000 240.426154
L107.154000 237.873978L107.712000 230.574507L107.991000 325.697727
L109.107000 324.216565L109.386000 322.907800L110.781000 307.272424
L111.339000 306.017433L113.571000 285.499282L114.408000 260.047276
L114.966000 204.516434L115.524000 185.760256L115.803000 183.058196
L116.361000 191.355001L117.756000 219.812500L118.035000 223.767782
L119.151000 222.514199L119.709000 225.755396L120.267000 222.871402
L121.383000 223.456284L121.662000 222.067106L121.941000 223.128658
L123.057000 222.859602L125.010000 215.947830L126.963000 220.259081
L127.242000 218.511888L128.358000 217.676656L128.916000 220.194290
L130.032000 212.945738L131.706000 225.834024L132.264000 227.741033
L133.101000 223.738663L133.659000 210.736327L134.496000 213.390170
L135.333000 221.027210L138.402000 232.829383L139.239000 231.063721
L141.471000 209.592236L142.308000 212.238645L142.587000 325.592207
L143.703000 324.458369L144.540000 319.230112L145.377000 317.261543
L145.935000 313.576581L146.493000 298.023330L146.772000 339.406178
L147.051000 331.991072L147.609000 310.710222L147.888000 388.800000
L148.167000 374.400871L150.120000 163.244412L150.678000 171.626923
L150.957000 181.127441L151.794000 229.895232L152.073000 232.264143
L152.631000 229.230372L153.468000 214.782900L153.747000 213.427618
L154.305000 204.384600L155.142000 194.018010L155.700000 187.798924
L156.816000 213.056150L157.653000 200.645381L158.211000 189.439280
L158.490000 192.999212L159.048000 195.840723L159.885000 198.350804
L160.443000 191.320300L161.559000 209.670163L162.117000 225.727190
L162.396000 223.288255L162.954000 224.725697L164.349000 189.463438
L164.628000 186.769895L165.186000 189.904176L166.302000 217.040266
L167.139000 211.885069L168.255000 191.690283L168.534000 190.482956
L168.813000 187.619178L169.092000 191.470147L169.929000 180.625709
L170.766000 189.575681L171.882000 232.701612L172.440000 226.495729
L173.277000 209.429658L173.556000 198.811809L174.672000 188.863467
L175.230000 192.463104L175.788000 212.760211L176.625000 219.412971
L178.020000 209.024080L179.136000 189.551458L179.415000 191.306287
L179.694000 187.300109L180.252000 190.144843L180.531000 193.135432
L180.810000 200.011092L181.647000 198.991953L183.042000 219.443503
L183.600000 217.261018L184.995000 202.304389L185.832000 203.669547
L186.111000 205.260464L187.227000 201.136325L187.506000 199.931931
L187.785000 196.989907L189.180000 218.317274L189.459000 224.683241
L189.738000 223.358346L190.017000 217.209351L190.575000 213.489475
L191.412000 202.778478L192.528000 195.391170L193.086000 196.866784
L193.644000 201.165626L194.760000 226.049927L195.039000 230.907207
L195.318000 227.725612L196.713000 194.620268L197.550000 191.418813
L197.829000 187.384495L198.666000 197.170713L199.782000 240.312825
L200.061000 157.220604L200.898000 153.631159L201.456000 155.993171
L201.735000 159.166737L202.014000 167.746778L203.130000 276.677911
L203.409000 272.294145L204.525000 201.382691L205.083000 160.792861
L205.362000 157.187093L205.920000 160.360095L206.199000 166.337892
L207.315000 243.865102L207.594000 247.839651L208.431000 216.250980
L209.268000 166.062366L209.547000 167.445165L210.105000 171.594174
L210.663000 219.058322L211.500000 247.454796L212.895000 203.372808
L213.453000 166.904900L213.732000 163.122376L214.569000 173.624676
L215.127000 226.095223L215.685000 232.052731L216.522000 213.998461
L217.080000 171.370778L217.359000 169.877591L217.917000 173.479007
L218.196000 225.327715L218.754000 223.572447L219.312000 232.200988
L220.428000 211.770153L222.660000 165.047705L222.939000 166.552703
L223.497000 173.308899L224.613000 213.807401L225.729000 211.244681
L226.566000 201.225557L227.682000 195.942430L228.519000 199.162365
L229.356000 203.941731L229.914000 208.795121L231.030000 207.602063
L232.983000 188.725080L233.820000 186.393547L234.378000 200.245478
L235.215000 228.145103L236.331000 217.175532L238.005000 193.655070
L238.563000 188.918570L239.121000 198.353937L239.679000 215.505135
L239.958000 218.423575L240.795000 207.244450L241.911000 189.853169
L242.469000 43.200000L243.585000 43.200000L244.422000 64.459181
L245.259000 258.740423L246.096000 321.646709L246.375000 317.819659
L246.654000 311.132707L247.212000 258.298160L248.607000 141.265446
L248.886000 139.621159L249.165000 141.307663L249.723000 316.573237
L250.281000 323.773534L250.560000 324.875244L251.118000 322.326164
L251.676000 311.555737L251.955000 295.102981L252.234000 339.922293
L252.792000 321.766619L253.071000 388.800000L253.629000 367.836993
L253.908000 337.451505L254.745000 153.007334L255.582000 117.531302
L256.140000 124.813115L256.977000 145.990825L257.256000 150.291250
L257.535000 138.814819L258.372000 175.383685L258.930000 204.973425
L259.767000 266.824145L260.325000 260.185551L261.999000 183.656720
L262.557000 177.496393L265.068000 228.941514L265.347000 230.776118
L266.463000 223.313508L267.021000 199.238362L267.300000 197.051944
L267.579000 191.914384L268.137000 195.543012L268.416000 209.583506
L269.253000 210.666611L270.369000 200.537369L270.927000 208.678531
L271.764000 214.331253L272.043000 213.011369L272.601000 214.757245
L275.391000 204.176157L276.228000 195.688710L276.786000 204.940354
L277.623000 221.538741L277.902000 224.453062L278.460000 221.161280
L280.971000 195.547459L281.529000 191.283440L282.924000 202.588861
L283.482000 219.083911L284.877000 207.065158L285.714000 208.525294
L286.551000 197.058595L287.109000 110.871950L288.225000 114.200425
L288.783000 124.097632L289.899000 170.802009L290.457000 236.504286
L291.015000 273.797489L291.294000 276.390173L291.573000 271.093271
L292.131000 274.751706L292.689000 245.849565L293.247000 165.470622
L293.805000 159.390825L294.363000 162.156381L294.642000 166.051337
L294.921000 178.145599L295.479000 246.814221L295.758000 257.304552
L296.037000 255.759466L296.595000 234.499899L297.153000 169.772744
L297.432000 164.208564L298.548000 174.633474L298.827000 178.914960
L299.385000 248.693646L299.664000 260.335308L300.222000 242.172988
L300.780000 167.852161L301.059000 162.200070L301.896000 166.180115
L302.175000 169.496375L302.454000 177.384018L303.012000 259.323082
L303.570000 270.921717L303.849000 264.779137L304.128000 251.282755
L304.686000 170.393546L305.244000 163.137646L305.802000 164.775118
L306.360000 169.929177L306.918000 180.403991L307.476000 288.235721
L308.034000 299.011800L308.313000 296.261510L308.592000 285.916058
L308.871000 262.775175L309.429000 159.401845L310.266000 130.319988
L310.545000 131.503903L311.382000 165.734944L311.661000 178.000850
L312.219000 292.686259L312.498000 317.119289L312.777000 43.200000
L313.614000 297.374708L313.893000 281.080745L314.451000 296.230257
L315.288000 270.139413L315.846000 170.322637L316.683000 154.743017
L317.241000 158.527848L317.799000 241.081009L318.078000 43.200000
L319.194000 43.200000L320.310000 50.010922L321.984000 224.292871
L322.542000 241.075093L323.100000 243.856338L323.658000 242.483662
L324.216000 243.620407L324.774000 238.284829L325.053000 233.423443
L325.890000 187.098293L326.169000 188.975692L327.564000 219.908560
L329.517000 234.544989L330.633000 234.987661L331.749000 216.609873
L332.028000 209.462731L334.539000 229.928117L335.097000 234.772150
L336.492000 226.984383L337.329000 229.342911L337.608000 332.931984
L337.887000 330.482773L338.445000 328.383485L339.282000 293.598073
L340.119000 248.311122L341.235000 220.163196L341.793000 216.278182
L342.630000 214.863061L343.467000 202.524135L344.862000 206.337980
L345.420000 208.650064L346.257000 210.101004L347.094000 214.391054
L347.931000 220.106488L350.721000 223.670272L351.279000 221.426988
L352.116000 212.442530L352.674000 213.997053L353.790000 215.873421
L354.069000 217.586790L354.348000 388.800000L355.464000 388.800000
L356.301000 374.163026L357.975000 133.027979L358.533000 149.087383
L359.649000 230.320408L359.928000 235.899900L361.044000 235.642347
L362.160000 227.468186L362.439000 381.789146L362.718000 380.289825
L362.997000 378.670433L363.276000 374.096750L363.555000 352.514196
L363.834000 388.800000L364.950000 388.800000L365.229000 384.055792
L367.182000 95.680386L367.461000 93.987945L368.019000 130.529837
L369.135000 346.665312L369.414000 368.386853L369.693000 360.103890
L370.530000 251.611529L371.925000 102.917881L372.483000 117.198156
L373.878000 324.856126L374.157000 323.190335L374.436000 317.562706
L375.831000 158.479421L376.110000 156.219643L376.668000 168.727408
L378.063000 275.459870L378.621000 254.861092L379.458000 210.770338
L380.016000 200.112398L381.132000 204.604436L381.411000 207.035532
L381.969000 208.651993L382.527000 220.648831L384.201000 215.026493
L386.154000 217.174584L386.712000 219.880383L387.549000 217.321557
L390.897000 209.347309L391.176000 43.200000L393.408000 43.200000
L394.245000 69.953031L395.082000 156.342941L395.919000 223.495991
L396.477000 240.234279L397.035000 237.312758L398.151000 220.441342
L398.988000 216.349849L400.104000 215.642176L400.941000 212.682326
L402.057000 211.766457L403.173000 212.805331L404.010000 216.580802
L404.568000 388.800000L405.684000 388.800000L406.800000 380.803582
L407.358000 273.897138L407.637000 388.800000L408.753000 388.800000
L409.311000 365.577940L410.148000 200.868440L410.706000 69.570068
L410.985000 43.200000L412.101000 43.200000L413.217000 75.169545
L413.775000 142.217840L414.612000 232.213188L415.170000 239.458761
L415.728000 238.264623L416.844000 233.934775L417.681000 225.192191
L418.518000 223.829141L419.076000 218.262707L419.355000 212.932867
L419.913000 214.006640L423.261000 224.400418L424.098000 222.634815
L424.377000 221.074137L425.214000 213.490652L425.772000 216.769458
L427.446000 225.892940L428.004000 232.602360L428.841000 235.245901
L429.120000 236.962727L429.957000 235.802579L430.794000 233.162709
L431.631000 223.125949L431.910000 224.596271L432.189000 322.182016
L433.305000 320.719402L435.258000 331.193434L438.885000 252.228640
L439.164000 331.425104L439.443000 329.543270L439.722000 327.815410
L440.001000 322.136984L440.280000 388.800000L440.838000 374.823504
L441.396000 239.666550L442.233000 121.497662L442.512000 111.185076
L443.070000 115.584377L444.465000 149.398468L444.744000 159.912092
L445.302000 196.184585L446.697000 240.928657L447.255000 237.247946
L449.487000 196.029497L449.766000 194.279842L450.603000 198.615411
L451.161000 205.973328L451.719000 210.338802L452.835000 216.738537
L453.393000 215.093420L453.951000 209.836058L454.788000 206.208884
L455.346000 207.398018L456.183000 214.662257L457.020000 213.013543
L457.578000 209.130758L458.415000 210.356620L458.694000 211.802056
L459.810000 212.097998L460.647000 204.147266L461.763000 205.292234
L462.879000 217.246819L463.437000 214.411757L464.274000 206.174431
L464.832000 203.202577L465.948000 201.525223L466.506000 207.611498
L466.785000 211.846457L467.343000 212.944989L468.738000 207.982946
L469.575000 210.216289L470.133000 208.855012L470.970000 205.525490
L472.644000 215.517781L472.923000 213.800669L473.202000 43.200000
L474.318000 43.200000L474.597000 50.637067L474.876000 71.831913
L476.271000 308.032143L476.550000 317.846761L476.829000 316.794328
L477.108000 314.251027L477.387000 308.074565L479.898000 181.376225
L480.456000 188.894768L481.572000 217.339255L482.130000 219.154203
L482.409000 217.976101L484.641000 217.841922L486.873000 216.074199
L487.431000 213.849136L488.547000 214.595114L489.105000 213.523137
L489.942000 216.946935L491.058000 218.392121L493.290000 217.967181
L493.569000 216.000000L504.729000 216.000000L504.729000 216.000000"/>
</g>
<g id="matplotlib.axis1">
<g id="xtick1">
<g id="line2d3">
<defs><path id="m30e32995789d870ad79a2e54c91cf9c6" d="M0.000000 0.000000L0.000000 -4.000000"/></defs>
<g ><use style="fill: none; stroke: #000000; stroke-width: 0.500000; stroke-linejoin: round; stroke-linecap: butt;  opacity: 1.000000" xlink:href="#m30e32995789d870ad79a2e54c91cf9c6" x="72.000000" y="388.800000"/>
</g></g>
<g id="line2d4">
<defs><path id="m9281cae24120827b11d5ea8a7ad3e96b" d="M0.000000 0.000000L0.000000 4.000000"/></defs>
<g ><use style="fill: none; stroke: #000000; stroke-width: 0.500000; stroke-linejoin: round; stroke-linecap: butt;  opacity: 1.000000" xlink:href="#m9281cae24120827b11d5ea8a7ad3e96b" x="72.000000" y="43.200000"/>
</g></g>
<g id="text1">
<defs>
<path id="c_7a2040fe3b94fcd41d0a72c84e93b115" d="M31.781250 -66.406250q-7.609375 0.000000 -11.453125 7.500000q-3.828125 7.484375 -3.828125 22.531250q0.000000 14.984375 3.828125 22.484375q3.843750 7.500000 11.453125 7.500000q7.671875 0.000000 11.500000 -7.500000q3.843750 -7.500000 3.843750 -22.484375q0.000000 -15.046875 -3.843750 -22.531250q-3.828125 -7.500000 -11.500000 -7.500000M31.781250 -74.218750q12.265625 0.000000 18.734375 9.703125q6.468750 9.687500 6.468750 28.140625q0.000000 18.406250 -6.468750 28.109375q-6.468750 9.687500 -18.734375 9.687500q-12.250000 0.000000 -18.718750 -9.687500q-6.468750 -9.703125 -6.468750 -28.109375q0.000000 -18.453125 6.468750 -28.140625q6.468750 -9.703125 18.718750 -9.703125"/>
</defs>
<g style="fill: #000000; opacity: 1.000000" transform="translate(68.976562,401.706250)scale(0.120000)">
<use xlink:href="#c_7a2040fe3b94fcd41d0a72c84e93b115"/>
</g>
</g>
</g>
<g id="xtick2">
<g id="line2d5">
<g ><use style="fill: none; stroke: #000000; stroke-width: 0.500000; stroke-linejoin: round; stroke-linecap: butt;  opacity: 1.000000" xlink:href="#m30e32995789d870ad79a2e54c91cf9c6" x="127.800000" y="388.800000"/>
</g></g>
<g id="line2d6">
<g ><use style="fill: none; stroke: #000000; stroke-width: 0.500000; stroke-linejoin: round; stroke-linecap: butt;  opacity: 1.000000" xlink:href="#m9281cae24120827b11d5ea8a7ad3e96b" x="127.800000" y="43.200000"/>
</g></g>
<g id="text2">
<defs>
<path id="c_ed3f3ed3ebfbd18bcb9c012009a68ad1" d="M19.187500 -8.296875l34.421875 0.000000l0.000000 8.296875l-46.281250 0.000000l0.000000 -8.296875q5.609375 -5.812500 15.296875 -15.593750q9.703125 -9.796875 12.187500 -12.640625q4.734375 -5.312500 6.609375 -9.000000q1.890625 -3.687500 1.890625 -7.250000q0.000000 -5.812500 -4.078125 -9.468750q-4.078125 -3.671875 -10.625000 -3.671875q-4.640625 0.000000 -9.796875 1.609375q-5.140625 1.609375 -11.000000 4.890625l0.000000 -9.968750q5.953125 -2.390625 11.125000 -3.609375q5.187500 -1.218750 9.484375 -1.218750q11.328125 0.000000 18.062500 5.671875q6.734375 5.656250 6.734375 15.125000q0.000000 4.500000 -1.687500 8.531250q-1.671875 4.015625 -6.125000 9.484375q-1.218750 1.421875 -7.765625 8.187500q-6.531250 6.765625 -18.453125 18.921875"/>
</defs>
<g style="fill: #000000; opacity: 1.000000" transform="translate(117.175000,401.706250)scale(0.120000)">
<use xlink:href="#c_ed3f3ed3ebfbd18bcb9c012009a68ad1"/>
<use xlink:href="#c_7a2040fe3b94fcd41d0a72c84e93b115" x="63.623047"/>
<use xlink:href="#c_7a2040fe3b94fcd41d0a72c84e93b115" x="127.246094"/>
</g>
</g>
</g>
<g id="xtick3">
<g id="line2d7">
<g ><use style="fill: none; stroke: #000000; stroke-width: 0.500000; stroke-linejoin: round; stroke-linecap: butt;  opacity: 1.000000" xlink:href="#m30e32995789d870ad79a2e54c91cf9c6" x="183.600000" y="388.800000"/>
</g></g>
<g id="line2d8">
<g ><use style="fill: none; stroke: #000000; stroke-width: 0.500000; stroke-linejoin: round; stroke-linecap: butt;  opacity: 1.000000" xlink:href="#m9281cae24120827b11d5ea8a7ad3e96b" x="183.600000" y="43.200000"/>
</g></g>
<g id="text3">
<defs>
<path id="c_a0416418d96557a09b8c1332d34883ba" d="M37.796875 -64.312500l-24.906250 38.921875l24.906250 0.000000zM35.203125 -72.906250l12.406250 0.000000l0.000000 47.515625l10.406250 0.000000l0.000000 8.203125l-10.406250 0.000000l0.000000 17.187500l-9.812500 0.000000l0.000000 -17.187500l-32.906250 0.000000l0.000000 -9.515625z"/>
</defs>
<g style="fill: #000000; opacity: 1.000000" transform="translate(172.834375,401.706250)scale(0.120000)">
<use xlink:href="#c_a0416418d96557a09b8c1332d34883ba"/>
<use xlink:href="#c_7a2040fe3b94fcd41d0a72c84e93b115" x="63.623047"/>
<use xlink:href="#c_7a2040fe3b94fcd41d0a72c84e93b115" x="127.246094"/>
</g>
</g>
</g>
<g id="xtick4">
<g id="line2d9">
<g ><use style="fill: none; stroke: #000000; stroke-width: 0.500000; stroke-linejoin: round; stroke-linecap: butt;  opacity: 1.000000" xlink:href="#m30e32995789d870ad79a2e54c91cf9c6" x="239.400000" y="388.800000"/>
</g></g>
<g id="line2d10">
<g ><use style="fill: none; stroke: #000000; stroke-width: 0.500000; stroke-linejoin: round; stroke-linecap: butt;  opacity: 1.000000" xlink:href="#m9281cae24120827b11d5ea8a7ad3e96b" x="239.400000" y="43.200000"/>
</g></g>
<g id="text4">
<defs>
<path id="c_cc8d6d580d1b10c8632f7a42cd53db8a" d="M33.015625 -40.375000q-6.640625 0.000000 -10.531250 4.546875q-3.875000 4.531250 -3.875000 12.437500q0.000000 7.859375 3.875000 12.437500q3.890625 4.562500 10.531250 4.562500q6.640625 0.000000 10.515625 -4.562500q3.875000 -4.578125 3.875000 -12.437500q0.000000 -7.906250 -3.875000 -12.437500q-3.875000 -4.546875 -10.515625 -4.546875M52.593750 -71.296875l0.000000 8.984375q-3.718750 -1.750000 -7.500000 -2.671875q-3.781250 -0.937500 -7.500000 -0.937500q-9.765625 0.000000 -14.921875 6.593750q-5.140625 6.593750 -5.875000 19.921875q2.875000 -4.250000 7.218750 -6.515625q4.359375 -2.265625 9.578125 -2.265625q10.984375 0.000000 17.359375 6.671875q6.375000 6.656250 6.375000 18.125000q0.000000 11.234375 -6.640625 18.031250q-6.640625 6.781250 -17.671875 6.781250q-12.656250 0.000000 -19.343750 -9.687500q-6.687500 -9.703125 -6.687500 -28.109375q0.000000 -17.281250 8.203125 -27.562500q8.203125 -10.281250 22.015625 -10.281250q3.718750 0.000000 7.500000 0.734375q3.781250 0.734375 7.890625 2.187500"/>
</defs>
<g style="fill: #000000; opacity: 1.000000" transform="translate(228.759375,401.706250)scale(0.120000)">
<use xlink:href="#c_cc8d6d580d1b10c8632f7a42cd53db8a"/>
<use xlink:href="#c_7a2040fe3b94fcd41d0a72c84e93b115" x="63.623047"/>
<use xlink:href="#c_7a2040fe3b94fcd41d0a72c84e93b115" x="127.246094"/>
</g>
</g>
</g>
<g id="xtick5">
<g id="line2d11">
<g ><use style="fill: none; stroke: #000000; stroke-width: 0.500000; stroke-linejoin: round; stroke-linecap: butt;  opacity: 1.000000" xlink:href="#m30e32995789d870ad79a2e54c91cf9c6" x="295.200000" y="388.800000"/>
</g></g>
<g id="line2d12">
<g ><use style="fill: none; stroke: #000000; stroke-width: 0.500000; stroke-linejoin: round; stroke-linecap: butt;  opacity: 1.000000" xlink:href="#m9281cae24120827b11d5ea8a7ad3e96b" x="295.200000" y="43.200000"/>
</g></g>
<g id="text5">
<defs>
<path id="c_bef35738d52871942e50b9de9b122bab" d="M31.781250 -34.625000q-7.031250 0.000000 -11.062500 3.765625q-4.015625 3.765625 -4.015625 10.343750q0.000000 6.593750 4.015625 10.359375q4.031250 3.765625 11.062500 3.765625q7.031250 0.000000 11.078125 -3.781250q4.062500 -3.796875 4.062500 -10.343750q0.000000 -6.578125 -4.031250 -10.343750q-4.015625 -3.765625 -11.109375 -3.765625M21.921875 -38.812500q-6.343750 -1.562500 -9.890625 -5.906250q-3.531250 -4.359375 -3.531250 -10.609375q0.000000 -8.734375 6.218750 -13.812500q6.234375 -5.078125 17.062500 -5.078125q10.890625 0.000000 17.093750 5.078125q6.203125 5.078125 6.203125 13.812500q0.000000 6.250000 -3.546875 10.609375q-3.531250 4.343750 -9.828125 5.906250q7.125000 1.656250 11.093750 6.500000q3.984375 4.828125 3.984375 11.796875q0.000000 10.609375 -6.468750 16.281250q-6.468750 5.656250 -18.531250 5.656250q-12.046875 0.000000 -18.531250 -5.656250q-6.468750 -5.671875 -6.468750 -16.281250q0.000000 -6.968750 4.000000 -11.796875q4.015625 -4.843750 11.140625 -6.500000M18.312500 -54.390625q0.000000 5.656250 3.531250 8.828125q3.546875 3.171875 9.937500 3.171875q6.359375 0.000000 9.937500 -3.171875q3.593750 -3.171875 3.593750 -8.828125q0.000000 -5.671875 -3.593750 -8.843750q-3.578125 -3.171875 -9.937500 -3.171875q-6.390625 0.000000 -9.937500 3.171875q-3.531250 3.171875 -3.531250 8.843750"/>
</defs>
<g style="fill: #000000; opacity: 1.000000" transform="translate(284.543750,401.706250)scale(0.120000)">
<use xlink:href="#c_bef35738d52871942e50b9de9b122bab"/>
<use xlink:href="#c_7a2040fe3b94fcd41d0a72c84e93b115" x="63.623047"/>
<use xlink:href="#c_7a2040fe3b94fcd41d0a72c84e93b115" x="127.246094"/>
</g>
</g>
</g>
<g id="xtick6">
<g id="line2d13">
<g ><use style="fill: none; stroke: #000000; stroke-width: 0.500000; stroke-linejoin: round; stroke-linecap: butt;  opacity: 1.000000" xlink:href="#m30e32995789d870ad79a2e54c91cf9c6" x="351.000000" y="388.800000"/>
</g></g>
<g id="line2d14">
<g ><use style="fill: none; stroke: #000000; stroke-width: 0.500000; stroke-linejoin: round; stroke-linecap: butt;  opacity: 1.000000" xlink:href="#m9281cae24120827b11d5ea8a7ad3e96b" x="351.000000" y="43.200000"/>
</g></g>
<g id="text6">
<defs>
<path id="c_42baa63129a918535c52adb20d687ea7" d="M12.406250 -8.296875l16.109375 0.000000l0.000000 -55.625000l-17.531250 3.515625l0.000000 -8.984375l17.437500 -3.515625l9.859375 0.000000l0.000000 64.609375l16.109375 0.000000l0.000000 8.296875l-41.984375 0.000000z"/>
</defs>
<g style="fill: #000000; opacity: 1.000000" transform="translate(336.773437,401.706250)scale(0.120000)">
<use xlink:href="#c_42baa63129a918535c52adb20d687ea7"/>
<use xlink:href="#c_7a2040fe3b94fcd41d0a72c84e93b115" x="63.623047"/>
<use xlink:href="#c_7a2040fe3b94fcd41d0a72c84e93b115" x="127.246094"/>
<use xlink:href="#c_7a2040fe3b94fcd41d0a72c84e93b115" x="190.869141"/>
</g>
</g>
</g>
<g id="xtick7">
<g id="line2d15">
<g ><use style="fill: none; stroke: #000000; stroke-width: 0.500000; stroke-linejoin: round; stroke-linecap: butt;  opacity: 1.000000" xlink:href="#m30e32995789d870ad79a2e54c91cf9c6" x="406.800000" y="388.800000"/>
</g></g>
<g id="line2d16">
<g ><use style="fill: none; stroke: #000000; stroke-width: 0.500000; stroke-linejoin: round; stroke-linecap: butt;  opacity: 1.000000" xlink:href="#m9281cae24120827b11d5ea8a7ad3e96b" x="406.800000" y="43.200000"/>
</g></g>
<g id="text7">
<g style="fill: #000000; opacity: 1.000000" transform="translate(392.573437,401.706250)scale(0.120000)">
<use xlink:href="#c_42baa63129a918535c52adb20d687ea7"/>
<use xlink:href="#c_ed3f3ed3ebfbd18bcb9c012009a68ad1" x="63.623047"/>
<use xlink:href="#c_7a2040fe3b94fcd41d0a72c84e93b115" x="127.246094"/>
<use xlink:href="#c_7a2040fe3b94fcd41d0a72c84e93b115" x="190.869141"/>
</g>
</g>
</g>
<g id="xtick8">
<g id="line2d17">
<g ><use style="fill: none; stroke: #000000; stroke-width: 0.500000; stroke-linejoin: round; stroke-linecap: butt;  opacity: 1.000000" xlink:href="#m30e32995789d870ad79a2e54c91cf9c6" x="462.600000" y="388.800000"/>
</g></g>
<g id="line2d18">
<g ><use style="fill: none; stroke: #000000; stroke-width: 0.500000; stroke-linejoin: round; stroke-linecap: butt;  opacity: 1.000000" xlink:href="#m9281cae24120827b11d5ea8a7ad3e96b" x="462.600000" y="43.200000"/>
</g></g>
<g id="text8">
<g style="fill: #000000; opacity: 1.000000" transform="translate(448.373437,401.706250)scale(0.120000)">
<use xlink:href="#c_42baa63129a918535c52adb20d687ea7"/>
<use xlink:href="#c_a0416418d96557a09b8c1332d34883ba" x="63.623047"/>
<use xlink:href="#c_7a2040fe3b94fcd41d0a72c84e93b115" x="127.246094"/>
<use xlink:href="#c_7a2040fe3b94fcd41d0a72c84e93b115" x="190.869141"/>
</g>
</g>
</g>
<g id="xtick9">
<g id="line2d19">
<g ><use style="fill: none; stroke: #000000; stroke-width: 0.500000; stroke-linejoin: round; stroke-linecap: butt;  opacity: 1.000000" xlink:href="#m30e32995789d870ad79a2e54c91cf9c6" x="518.400000" y="388.800000"/>
</g></g>
<g id="line2d20">
<g ><use style="fill: none; stroke: #000000; stroke-width: 0.500000; stroke-linejoin: round; stroke-linecap: butt;  opacity: 1.000000" xlink:href="#m9281cae24120827b11d5ea8a7ad3e96b" x="518.400000" y="43.200000"/>
</g></g>
<g id="text9">
<g style="fill: #000000; opacity: 1.000000" transform="translate(504.173437,401.706250)scale(0.120000)">
<use xlink:href="#c_42baa63129a918535c52adb20d687ea7"/>
<use xlink:href="#c_cc8d6d580d1b10c8632f7a42cd53db8a" x="63.623047"/>
<use xlink:href="#c_7a2040fe3b94fcd41d0a72c84e93b115" x="127.246094"/>
<use xlink:href="#c_7a2040fe3b94fcd41d0a72c84e93b115" x="190.869141"/>
</g>
</g>
</g>
<g id="text10">
<defs>
<path id="c_9e4b30cbdf32072672ded72e9074c4c9" d="M-0.296875 -72.906250l61.671875 0.000000l0.000000 8.312500l-25.875000 0.000000l0.000000 64.593750l-9.906250 0.000000l0.000000 -64.593750l-25.890625 0.000000z"/>
<path id="c_6a63bda47b2f3da1cec6aadd80692cfe" d="M9.421875 -54.687500l8.984375 0.000000l0.000000 54.687500l-8.984375 0.000000zM9.421875 -75.984375l8.984375 0.000000l0.000000 11.390625l-8.984375 0.000000z"/>
<path id="c_4653c6dfde66c7610eae0911760d3490" d="M52.000000 -44.187500q3.375000 -6.062500 8.062500 -8.937500q4.687500 -2.875000 11.031250 -2.875000q8.546875 0.000000 13.187500 5.984375q4.640625 5.968750 4.640625 17.000000l0.000000 33.015625l-9.031250 0.000000l0.000000 -32.718750q0.000000 -7.859375 -2.796875 -11.656250q-2.781250 -3.812500 -8.484375 -3.812500q-6.984375 0.000000 -11.046875 4.640625q-4.046875 4.625000 -4.046875 12.640625l0.000000 30.906250l-9.031250 0.000000l0.000000 -32.718750q0.000000 -7.906250 -2.781250 -11.687500q-2.781250 -3.781250 -8.593750 -3.781250q-6.890625 0.000000 -10.953125 4.656250q-4.046875 4.656250 -4.046875 12.625000l0.000000 30.906250l-9.031250 0.000000l0.000000 -54.687500l9.031250 0.000000l0.000000 8.500000q3.078125 -5.031250 7.375000 -7.421875q4.296875 -2.390625 10.203125 -2.390625q5.968750 0.000000 10.140625 3.031250q4.171875 3.015625 6.171875 8.781250"/>
<path id="c_0bce5afba2dc6b9024b26277c38ad8e8" d="M56.203125 -29.593750l0.000000 4.390625l-41.312500 0.000000q0.593750 9.281250 5.593750 14.140625q5.000000 4.859375 13.937500 4.859375q5.171875 0.000000 10.031250 -1.265625q4.859375 -1.265625 9.656250 -3.812500l0.000000 8.500000q-4.843750 2.046875 -9.921875 3.125000q-5.078125 1.078125 -10.296875 1.078125q-13.093750 0.000000 -20.734375 -7.609375q-7.640625 -7.625000 -7.640625 -20.625000q0.000000 -13.421875 7.250000 -21.296875q7.250000 -7.890625 19.562500 -7.890625q11.031250 0.000000 17.453125 7.109375q6.421875 7.093750 6.421875 19.296875M47.218750 -32.234375q-0.093750 -7.359375 -4.125000 -11.750000q-4.031250 -4.406250 -10.671875 -4.406250q-7.515625 0.000000 -12.031250 4.250000q-4.515625 4.250000 -5.203125 11.968750z"/>
<path id="c_d41d8cd98f00b204e9800998ecf8427e" d=""/>
<path id="c_7efa9804c2b4c09a4b614b91fdebee3d" d="M31.000000 -75.875000q-6.531250 11.218750 -9.718750 22.218750q-3.171875 10.984375 -3.171875 22.265625q0.000000 11.265625 3.203125 22.328125q3.203125 11.062500 9.687500 22.250000l-7.812500 0.000000q-7.312500 -11.484375 -10.953125 -22.562500q-3.640625 -11.078125 -3.640625 -22.015625q0.000000 -10.890625 3.609375 -21.921875q3.625000 -11.046875 10.984375 -22.562500z"/>
<path id="c_9c6d5cbc59c6231647eb409cc6b37bb3" d="M25.390625 -72.906250l8.296875 0.000000l-25.390625 82.187500l-8.296875 0.000000z"/>
<path id="c_0f8c41144cfbf448378cb6fd1cc8e549" d="M18.312500 -70.218750l0.000000 15.531250l18.500000 0.000000l0.000000 6.984375l-18.500000 0.000000l0.000000 29.687500q0.000000 6.687500 1.828125 8.593750q1.828125 1.906250 7.453125 1.906250l9.218750 0.000000l0.000000 7.515625l-9.218750 0.000000q-10.406250 0.000000 -14.359375 -3.875000q-3.953125 -3.890625 -3.953125 -14.140625l0.000000 -29.687500l-6.593750 0.000000l0.000000 -6.984375l6.593750 0.000000l0.000000 -15.531250z"/>
<path id="c_74d54c94aa871ec39e2bc6697dde6c00" d="M54.890625 -33.015625l0.000000 33.015625l-8.984375 0.000000l0.000000 -32.718750q0.000000 -7.765625 -3.031250 -11.609375q-3.031250 -3.859375 -9.078125 -3.859375q-7.281250 0.000000 -11.484375 4.640625q-4.203125 4.625000 -4.203125 12.640625l0.000000 30.906250l-9.031250 0.000000l0.000000 -75.984375l9.031250 0.000000l0.000000 29.796875q3.234375 -4.937500 7.593750 -7.375000q4.375000 -2.437500 10.093750 -2.437500q9.421875 0.000000 14.250000 5.828125q4.843750 5.828125 4.843750 17.156250"/>
<path id="c_8e0810ad13fe20a2a87a2619799b154d" d="M44.281250 -53.078125l0.000000 8.500000q-3.796875 -1.953125 -7.906250 -2.921875q-4.093750 -0.984375 -8.500000 -0.984375q-6.687500 0.000000 -10.031250 2.046875q-3.343750 2.046875 -3.343750 6.156250q0.000000 3.125000 2.390625 4.906250q2.390625 1.781250 9.625000 3.390625l3.078125 0.687500q9.562500 2.046875 13.593750 5.781250q4.031250 3.734375 4.031250 10.421875q0.000000 7.625000 -6.031250 12.078125q-6.031250 4.437500 -16.578125 4.437500q-4.390625 0.000000 -9.156250 -0.859375q-4.765625 -0.859375 -10.031250 -2.562500l0.000000 -9.281250q4.984375 2.593750 9.812500 3.890625q4.828125 1.281250 9.578125 1.281250q6.343750 0.000000 9.750000 -2.171875q3.421875 -2.171875 3.421875 -6.125000q0.000000 -3.656250 -2.468750 -5.609375q-2.453125 -1.953125 -10.812500 -3.765625l-3.125000 -0.734375q-8.343750 -1.750000 -12.062500 -5.390625q-3.703125 -3.640625 -3.703125 -9.984375q0.000000 -7.718750 5.468750 -11.906250q5.468750 -4.203125 15.531250 -4.203125q4.968750 0.000000 9.359375 0.734375q4.406250 0.718750 8.109375 2.187500"/>
<path id="c_e96974be642f6eac0427d72f9cec6c19" d="M8.015625 -75.875000l7.812500 0.000000q7.312500 11.515625 10.953125 22.562500q3.640625 11.031250 3.640625 21.921875q0.000000 10.937500 -3.640625 22.015625q-3.640625 11.078125 -10.953125 22.562500l-7.812500 0.000000q6.484375 -11.187500 9.687500 -22.250000q3.203125 -11.062500 3.203125 -22.328125q0.000000 -11.281250 -3.203125 -22.265625q-3.203125 -11.000000 -9.687500 -22.218750"/>
</defs>
<g style="fill: #000000; opacity: 1.000000" transform="translate(249.754687,416.003125)scale(0.120000)">
<use xlink:href="#c_9e4b30cbdf32072672ded72e9074c4c9"/>
<use xlink:href="#c_6a63bda47b2f3da1cec6aadd80692cfe" x="57.958984"/>
<use xlink:href="#c_4653c6dfde66c7610eae0911760d3490" x="85.742187"/>
<use xlink:href="#c_0bce5afba2dc6b9024b26277c38ad8e8" x="183.154297"/>
<use xlink:href="#c_d41d8cd98f00b204e9800998ecf8427e" x="244.677734"/>
<use xlink:href="#c_7efa9804c2b4c09a4b614b91fdebee3d" x="276.464844"/>
<use xlink:href="#c_42baa63129a918535c52adb20d687ea7" x="315.478516"/>
<use xlink:href="#c_9c6d5cbc59c6231647eb409cc6b37bb3" x="379.101562"/>
<use xlink:href="#c_42baa63129a918535c52adb20d687ea7" x="412.792969"/>
<use xlink:href="#c_7a2040fe3b94fcd41d0a72c84e93b115" x="476.416016"/>
<use xlink:href="#c_0f8c41144cfbf448378cb6fd1cc8e549" x="540.039062"/>
<use xlink:href="#c_74d54c94aa871ec39e2bc6697dde6c00" x="579.248047"/>
<use xlink:href="#c_d41d8cd98f00b204e9800998ecf8427e" x="642.626953"/>
<use xlink:href="#c_8e0810ad13fe20a2a87a2619799b154d" x="674.414062"/>
<use xlink:href="#c_e96974be642f6eac0427d72f9cec6c19" x="726.513672"/>
</g>
</g>
</g>
<g id="matplotlib.axis2">
<g id="ytick1">
<g id="line2d21">
<defs><path id="m3400efa6b1638b3fea9e19e898273957" d="M0.000000 0.000000L4.000000 0.000000"/></defs>
<g ><use style="fill: none; stroke: #000000; stroke-width: 0.500000; stroke-linejoin: round; stroke-linecap: butt;  opacity: 1.000000" xlink:href="#m3400efa6b1638b3fea9e19e898273957" x="72.000000" y="388.800000"/>
</g></g>
<g id="line2d22">
<defs><path id="m20b58b2501143cb5e0a5e8f1ef6f1643" d="M0.000000 0.000000L-4.000000 0.000000"/></defs>
<g ><use style="fill: none; stroke: #000000; stroke-width: 0.500000; stroke-linejoin: round; stroke-linecap: butt;  opacity: 1.000000" xlink:href="#m20b58b2501143cb5e0a5e8f1ef6f1643" x="518.400000" y="388.800000"/>
</g></g>
<g id="text11">
<defs>
<path id="c_6a8d56c819c37117ab4cf023bec22a5a" d="M10.593750 -35.500000l62.593750 0.000000l0.000000 8.296875l-62.593750 0.000000z"/>
</defs>
<g style="fill: #000000; opacity: 1.000000" transform="translate(37.078125,393.167188)scale(0.120000)">
<use xlink:href="#c_6a8d56c819c37117ab4cf023bec22a5a"/>
<use xlink:href="#c_42baa63129a918535c52adb20d687ea7" x="83.789062"/>
<use xlink:href="#c_7a2040fe3b94fcd41d0a72c84e93b115" x="147.412109"/>
<use xlink:href="#c_7a2040fe3b94fcd41d0a72c84e93b115" x="211.035156"/>
</g>
</g>
</g>
<g id="ytick2">
<g id="line2d23">
<g ><use style="fill: none; stroke: #000000; stroke-width: 0.500000; stroke-linejoin: round; stroke-linecap: butt;  opacity: 1.000000" xlink:href="#m3400efa6b1638b3fea9e19e898273957" x="72.000000" y="302.400000"/>
</g></g>
<g id="line2d24">
<g ><use style="fill: none; stroke: #000000; stroke-width: 0.500000; stroke-linejoin: round; stroke-linecap: butt;  opacity: 1.000000" xlink:href="#m20b58b2501143cb5e0a5e8f1ef6f1643" x="518.400000" y="302.400000"/>
</g></g>
<g id="text12">
<defs>
<path id="c_1260a2df50f305f3db244e29828f968e" d="M10.796875 -72.906250l38.718750 0.000000l0.000000 8.312500l-29.687500 0.000000l0.000000 17.859375q2.140625 -0.734375 4.281250 -1.093750q2.156250 -0.359375 4.312500 -0.359375q12.203125 0.000000 19.328125 6.687500q7.140625 6.687500 7.140625 18.109375q0.000000 11.765625 -7.328125 18.296875q-7.328125 6.515625 -20.656250 6.515625q-4.593750 0.000000 -9.359375 -0.781250q-4.750000 -0.781250 -9.828125 -2.343750l0.000000 -9.921875q4.390625 2.390625 9.078125 3.562500q4.687500 1.171875 9.906250 1.171875q8.453125 0.000000 13.375000 -4.437500q4.937500 -4.437500 4.937500 -12.062500q0.000000 -7.609375 -4.937500 -12.046875q-4.921875 -4.453125 -13.375000 -4.453125q-3.953125 0.000000 -7.890625 0.875000q-3.921875 0.875000 -8.015625 2.734375z"/>
</defs>
<g style="fill: #000000; opacity: 1.000000" transform="translate(44.718750,306.767187)scale(0.120000)">
<use xlink:href="#c_6a8d56c819c37117ab4cf023bec22a5a"/>
<use xlink:href="#c_1260a2df50f305f3db244e29828f968e" x="83.789062"/>
<use xlink:href="#c_7a2040fe3b94fcd41d0a72c84e93b115" x="147.412109"/>
</g>
</g>
</g>
<g id="ytick3">
<g id="line2d25">
<g ><use style="fill: none; stroke: #000000; stroke-width: 0.500000; stroke-linejoin: round; stroke-linecap: butt;  opacity: 1.000000" xlink:href="#m3400efa6b1638b3fea9e19e898273957" x="72.000000" y="216.000000"/>
</g></g>
<g id="line2d26">
<g ><use style="fill: none; stroke: #000000; stroke-width: 0.500000; stroke-linejoin: round; stroke-linecap: butt;  opacity: 1.000000" xlink:href="#m20b58b2501143cb5e0a5e8f1ef6f1643" x="518.400000" y="216.000000"/>
</g></g>
<g id="text13">
<g style="fill: #000000; opacity: 1.000000" transform="translate(61.953125,220.367188)scale(0.120000)">
<use xlink:href="#c_7a2040fe3b94fcd41d0a72c84e93b115"/>
</g>
</g>
</g>
<g id="ytick4">
<g id="line2d27">
<g ><use style="fill: none; stroke: #000000; stroke-width: 0.500000; stroke-linejoin: round; stroke-linecap: butt;  opacity: 1.000000" xlink:href="#m3400efa6b1638b3fea9e19e898273957" x="72.000000" y="129.600000"/>
</g></g>
<g id="line2d28">
<g ><use style="fill: none; stroke: #000000; stroke-width: 0.500000; stroke-linejoin: round; stroke-linecap: butt;  opacity: 1.000000" xlink:href="#m20b58b2501143cb5e0a5e8f1ef6f1643" x="518.400000" y="129.600000"/>
</g></g>
<g id="text14">
<g style="fill: #000000; opacity: 1.000000" transform="translate(54.437500,133.967187)scale(0.120000)">
<use xlink:href="#c_1260a2df50f305f3db244e29828f968e"/>
<use xlink:href="#c_7a2040fe3b94fcd41d0a72c84e93b115" x="63.623047"/>
</g>
</g>
</g>
<g id="ytick5">
<g id="line2d29">
<g ><use style="fill: none; stroke: #000000; stroke-width: 0.500000; stroke-linejoin: round; stroke-linecap: butt;  opacity: 1.000000" xlink:href="#m3400efa6b1638b3fea9e19e898273957" x="72.000000" y="43.200000"/>
</g></g>
<g id="line2d30">
<g ><use style="fill: none; stroke: #000000; stroke-width: 0.500000; stroke-linejoin: round; stroke-linecap: butt;  opacity: 1.000000" xlink:href="#m20b58b2501143cb5e0a5e8f1ef6f1643" x="518.400000" y="43.200000"/>
</g></g>
<g id="text15">
<g style="fill: #000000; opacity: 1.000000" transform="translate(47.187500,47.567187)scale(0.120000)">
<use xlink:href="#c_42baa63129a918535c52adb20d687ea7"/>
<use xlink:href="#c_7a2040fe3b94fcd41d0a72c84e93b115" x="63.623047"/>
<use xlink:href="#c_7a2040fe3b94fcd41d0a72c84e93b115" x="127.246094"/>
</g>
</g>
</g>
<g id="text16">
<defs>
<path id="c_ff9441f72805bc441fcb0bfe0d774f13" d="M19.671875 -64.796875l0.000000 56.687500l11.921875 0.000000q15.093750 0.000000 22.093750 -6.828125q7.000000 -6.843750 7.000000 -21.593750q0.000000 -14.640625 -7.000000 -21.453125q-7.000000 -6.812500 -22.093750 -6.812500zM9.812500 -72.906250l20.265625 0.000000q21.187500 0.000000 31.093750 8.812500q9.921875 8.812500 9.921875 27.562500q0.000000 18.859375 -9.968750 27.703125q-9.953125 8.828125 -31.046875 8.828125l-20.265625 0.000000z"/>
<path id="c_01d93a582460e35a7945ca50d148ffeb" d="M34.281250 -27.484375q-10.890625 0.000000 -15.093750 2.484375q-4.203125 2.484375 -4.203125 8.500000q0.000000 4.781250 3.156250 7.593750q3.156250 2.796875 8.562500 2.796875q7.484375 0.000000 12.000000 -5.296875q4.515625 -5.296875 4.515625 -14.078125l0.000000 -2.000000zM52.203125 -31.203125l0.000000 31.203125l-8.984375 0.000000l0.000000 -8.296875q-3.078125 4.968750 -7.671875 7.343750q-4.593750 2.375000 -11.234375 2.375000q-8.390625 0.000000 -13.359375 -4.718750q-4.953125 -4.718750 -4.953125 -12.625000q0.000000 -9.218750 6.171875 -13.906250q6.187500 -4.687500 18.437500 -4.687500l12.609375 0.000000l0.000000 -0.890625q0.000000 -6.203125 -4.078125 -9.593750q-4.078125 -3.390625 -11.453125 -3.390625q-4.687500 0.000000 -9.140625 1.125000q-4.437500 1.125000 -8.531250 3.375000l0.000000 -8.312500q4.921875 -1.906250 9.562500 -2.843750q4.640625 -0.953125 9.031250 -0.953125q11.875000 0.000000 17.734375 6.156250q5.859375 6.140625 5.859375 18.640625"/>
</defs>
<g style="fill: #000000; opacity: 1.000000" transform="translate(32.078125,229.023438)rotate(-90.0)scale(0.120000)">
<use xlink:href="#c_ff9441f72805bc441fcb0bfe0d774f13"/>
<use xlink:href="#c_01d93a582460e35a7945ca50d148ffeb" x="77.001953"/>
<use xlink:href="#c_0f8c41144cfbf448378cb6fd1cc8e549" x="138.281250"/>
<use xlink:href="#c_01d93a582460e35a7945ca50d148ffeb" x="177.490234"/>
</g>
</g>
</g>
<g id="patch3">
<path style="fill: none; stroke: #000000; stroke-width: 1.000000; stroke-linejoin: round; stroke-linecap: square;  opacity: 1.000000"  d="M72.000000 43.200000L518.400000 43.200000"/>
</g>
<g id="patch4">
<path style="fill: none; stroke: #000000; stroke-width: 1.000000; stroke-linejoin: round; stroke-linecap: square;  opacity: 1.000000"  d="M518.400000 388.800000L518.400000 43.200000"/>
</g>
<g id="patch5">
<path style="fill: none; stroke: #000000; stroke-width: 1.000000; stroke-linejoin: round; stroke-linecap: square;  opacity: 1.000000"  d="M72.000000 388.800000L518.400000 388.800000"/>
</g>
<g id="patch6">
<path style="fill: none; stroke: #000000; stroke-width: 1.000000; stroke-linejoin: round; stroke-linecap: square;  opacity: 1.000000"  d="M72.000000 388.800000L72.000000 43.200000"/>
</g>
<g id="text17">
<defs>
<path id="c_518d586bee075aa0153eaebfcb5ab11f" d="M19.671875 -64.796875l0.000000 27.390625l12.406250 0.000000q6.890625 0.000000 10.640625 -3.562500q3.765625 -3.562500 3.765625 -10.156250q0.000000 -6.546875 -3.765625 -10.109375q-3.750000 -3.562500 -10.640625 -3.562500zM9.812500 -72.906250l22.265625 0.000000q12.265625 0.000000 18.531250 5.546875q6.281250 5.546875 6.281250 16.234375q0.000000 10.796875 -6.281250 16.312500q-6.265625 5.515625 -18.531250 5.515625l-12.406250 0.000000l0.000000 29.296875l-9.859375 0.000000z"/>
<path id="c_d650c37394b681142a10dfc54356d478" d="M48.781250 -52.593750l0.000000 8.406250q-3.812500 -2.109375 -7.640625 -3.156250q-3.828125 -1.046875 -7.734375 -1.046875q-8.750000 0.000000 -13.593750 5.546875q-4.828125 5.531250 -4.828125 15.546875q0.000000 10.015625 4.828125 15.562500q4.843750 5.531250 13.593750 5.531250q3.906250 0.000000 7.734375 -1.046875q3.828125 -1.046875 7.640625 -3.156250l0.000000 8.312500q-3.765625 1.750000 -7.796875 2.625000q-4.015625 0.890625 -8.562500 0.890625q-12.359375 0.000000 -19.640625 -7.765625q-7.265625 -7.765625 -7.265625 -20.953125q0.000000 -13.375000 7.343750 -21.031250q7.359375 -7.671875 20.156250 -7.671875q4.140625 0.000000 8.093750 0.859375q3.953125 0.843750 7.671875 2.546875"/>
<path id="c_dcb78ab3124be785176d70a27dde1356" d="M9.078125 -75.984375l9.031250 0.000000l0.000000 44.875000l26.812500 -23.578125l11.468750 0.000000l-29.000000 25.578125l30.234375 29.109375l-11.718750 0.000000l-27.796875 -26.703125l0.000000 26.703125l-9.031250 0.000000z"/>
<path id="c_425fd1cbcd899bef0a79975ae4756bf8" d="M19.671875 -34.812500l0.000000 26.703125l15.828125 0.000000q7.953125 0.000000 11.781250 -3.296875q3.843750 -3.296875 3.843750 -10.078125q0.000000 -6.843750 -3.843750 -10.078125q-3.828125 -3.250000 -11.781250 -3.250000zM19.671875 -64.796875l0.000000 21.968750l14.609375 0.000000q7.218750 0.000000 10.750000 -2.703125q3.546875 -2.718750 3.546875 -8.281250q0.000000 -5.515625 -3.546875 -8.250000q-3.531250 -2.734375 -10.750000 -2.734375zM9.812500 -72.906250l25.203125 0.000000q11.281250 0.000000 17.375000 4.687500q6.109375 4.687500 6.109375 13.328125q0.000000 6.703125 -3.125000 10.656250q-3.125000 3.953125 -9.187500 4.921875q7.281250 1.562500 11.312500 6.531250q4.031250 4.953125 4.031250 12.375000q0.000000 9.765625 -6.640625 15.093750q-6.640625 5.312500 -18.906250 5.312500l-26.171875 0.000000z"/>
<path id="c_f05dd90d41f04bb96ef1ca503cc2044b" d="M30.609375 -48.390625q-7.218750 0.000000 -11.421875 5.640625q-4.203125 5.640625 -4.203125 15.453125q0.000000 9.812500 4.171875 15.453125q4.187500 5.640625 11.453125 5.640625q7.187500 0.000000 11.375000 -5.656250q4.203125 -5.671875 4.203125 -15.437500q0.000000 -9.718750 -4.203125 -15.406250q-4.187500 -5.687500 -11.375000 -5.687500M30.609375 -56.000000q11.718750 0.000000 18.406250 7.625000q6.703125 7.609375 6.703125 21.078125q0.000000 13.421875 -6.703125 21.078125q-6.687500 7.640625 -18.406250 7.640625q-11.765625 0.000000 -18.437500 -7.640625q-6.656250 -7.656250 -6.656250 -21.078125q0.000000 -13.468750 6.656250 -21.078125q6.671875 -7.625000 18.437500 -7.625000"/>
<path id="c_c48ceabac27bf136feba2f4bf2716ab6" d="M2.984375 -54.687500l9.515625 0.000000l17.093750 45.890625l17.093750 -45.890625l9.515625 0.000000l-20.515625 54.687500l-12.203125 0.000000z"/>
<path id="c_ed3e21196fb739f392806f09ca0594ef" d="M10.687500 -12.406250l10.312500 0.000000l0.000000 12.406250l-10.312500 0.000000z"/>
</defs>
<g style="fill: #000000; opacity: 1.000000" transform="translate(215.004687,37.996875)scale(0.144000)">
<use xlink:href="#c_518d586bee075aa0153eaebfcb5ab11f"/>
<use xlink:href="#c_01d93a582460e35a7945ca50d148ffeb" x="55.802734"/>
<use xlink:href="#c_d650c37394b681142a10dfc54356d478" x="117.082031"/>
<use xlink:href="#c_dcb78ab3124be785176d70a27dde1356" x="172.062500"/>
<use xlink:href="#c_425fd1cbcd899bef0a79975ae4756bf8" x="229.972656"/>
<use xlink:href="#c_f05dd90d41f04bb96ef1ca503cc2044b" x="298.576172"/>
<use xlink:href="#c_0f8c41144cfbf448378cb6fd1cc8e549" x="359.757812"/>
<use xlink:href="#c_d41d8cd98f00b204e9800998ecf8427e" x="398.966797"/>
<use xlink:href="#c_ff9441f72805bc441fcb0bfe0d774f13" x="430.753906"/>
<use xlink:href="#c_01d93a582460e35a7945ca50d148ffeb" x="507.755859"/>
<use xlink:href="#c_0f8c41144cfbf448378cb6fd1cc8e549" x="569.035156"/>
<use xlink:href="#c_01d93a582460e35a7945ca50d148ffeb" x="608.244141"/>
<use xlink:href="#c_d41d8cd98f00b204e9800998ecf8427e" x="669.523438"/>
<use xlink:href="#c_c48ceabac27bf136feba2f4bf2716ab6" x="701.310547"/>
<use xlink:href="#c_8e0810ad13fe20a2a87a2619799b154d" x="760.490234"/>
<use xlink:href="#c_ed3e21196fb739f392806f09ca0594ef" x="812.589844"/>
<use xlink:href="#c_d41d8cd98f00b204e9800998ecf8427e" x="844.376953"/>
<use xlink:href="#c_9e4b30cbdf32072672ded72e9074c4c9" x="876.164062"/>
<use xlink:href="#c_6a63bda47b2f3da1cec6aadd80692cfe" x="934.123047"/>
<use xlink:href="#c_4653c6dfde66c7610eae0911760d3490" x="961.906250"/>
<use xlink:href="#c_0bce5afba2dc6b9024b26277c38ad8e8" x="1059.318359"/>
</g>
</g>
</g>
<g id="legend1">
<g id="patch7">
<path style="fill: #ffffff; stroke: #000000; stroke-width: 1.000000; stroke-linejoin: round; stroke-linecap: square;  opacity: 1.000000"  d="M400.522500 53.013750L568.800000 53.013750L568.800000 7.200000
L400.522500 7.200000L400.522500 53.013750z"/>
</g>
<g id="line2d31">
<path style="fill: none; stroke: #0000ff; stroke-width: 1.000000; stroke-linejoin: round; stroke-linecap: square;  opacity: 1.000000"  d="M410.602500 18.560625L430.762500 18.560625"/>
</g>
<g id="line2d32">
</g>
<g id="text18">
<defs>
<path id="c_07e3f33241aff50afcba519606f2a979" d="M9.812500 -72.906250l9.859375 0.000000l0.000000 64.609375l35.500000 0.000000l0.000000 8.296875l-45.359375 0.000000z"/>
<path id="c_fe791a90f5471e2ab20a5ed41a7fa451" d="M54.890625 -33.015625l0.000000 33.015625l-8.984375 0.000000l0.000000 -32.718750q0.000000 -7.765625 -3.031250 -11.609375q-3.031250 -3.859375 -9.078125 -3.859375q-7.281250 0.000000 -11.484375 4.640625q-4.203125 4.625000 -4.203125 12.640625l0.000000 30.906250l-9.031250 0.000000l0.000000 -54.687500l9.031250 0.000000l0.000000 8.500000q3.234375 -4.937500 7.593750 -7.375000q4.375000 -2.437500 10.093750 -2.437500q9.421875 0.000000 14.250000 5.828125q4.843750 5.828125 4.843750 17.156250"/>
<path id="c_6ec8d5749226675394676a5d2a3b468b" d="M41.109375 -46.296875q-1.515625 -0.875000 -3.296875 -1.281250q-1.781250 -0.421875 -3.921875 -0.421875q-7.625000 0.000000 -11.703125 4.953125q-4.078125 4.953125 -4.078125 14.234375l0.000000 28.812500l-9.031250 0.000000l0.000000 -54.687500l9.031250 0.000000l0.000000 8.500000q2.843750 -4.984375 7.375000 -7.390625q4.546875 -2.421875 11.046875 -2.421875q0.921875 0.000000 2.046875 0.125000q1.125000 0.109375 2.484375 0.359375z"/>
<path id="c_ae70b0af174184799fa4976b9c5da571" d="M28.609375 -0.000000l-27.828125 -72.906250l10.296875 0.000000l23.109375 61.375000l23.140625 -61.375000l10.250000 0.000000l-27.781250 72.906250z"/>
<path id="c_5099edb83619131346ae654950954dea" d="M9.421875 -75.984375l8.984375 0.000000l0.000000 75.984375l-8.984375 0.000000z"/>
<path id="c_3fe22c4af425ac970aec982ae9662abe" d="M32.171875 5.078125q-3.796875 9.765625 -7.421875 12.734375q-3.609375 2.984375 -9.656250 2.984375l-7.187500 0.000000l0.000000 -7.515625l5.281250 0.000000q3.703125 0.000000 5.750000 -1.765625q2.062500 -1.750000 4.546875 -8.296875l1.609375 -4.093750l-22.109375 -53.812500l9.515625 0.000000l17.093750 42.765625l17.093750 -42.765625l9.515625 0.000000z"/>
</defs>
<g style="fill: #000000; opacity: 1.000000" transform="translate(446.602500,23.600625)scale(0.144000)">
<use xlink:href="#c_07e3f33241aff50afcba519606f2a979"/>
<use xlink:href="#c_6a63bda47b2f3da1cec6aadd80692cfe" x="55.712891"/>
<use xlink:href="#c_fe791a90f5471e2ab20a5ed41a7fa451" x="83.496094"/>
<use xlink:href="#c_0bce5afba2dc6b9024b26277c38ad8e8" x="146.875000"/>
<use xlink:href="#c_01d93a582460e35a7945ca50d148ffeb" x="208.398438"/>
<use xlink:href="#c_6ec8d5749226675394676a5d2a3b468b" x="269.677734"/>
<use xlink:href="#c_d41d8cd98f00b204e9800998ecf8427e" x="310.791016"/>
<use xlink:href="#c_ae70b0af174184799fa4976b9c5da571" x="342.578125"/>
<use xlink:href="#c_0bce5afba2dc6b9024b26277c38ad8e8" x="403.236328"/>
<use xlink:href="#c_5099edb83619131346ae654950954dea" x="464.759766"/>
<use xlink:href="#c_f05dd90d41f04bb96ef1ca503cc2044b" x="492.542969"/>
<use xlink:href="#c_d650c37394b681142a10dfc54356d478" x="553.724609"/>
<use xlink:href="#c_6a63bda47b2f3da1cec6aadd80692cfe" x="608.705078"/>
<use xlink:href="#c_0f8c41144cfbf448378cb6fd1cc8e549" x="636.488281"/>
<use xlink:href="#c_3fe22c4af425ac970aec982ae9662abe" x="675.697266"/>
</g>
</g>
<g id="line2d33">
<path style="fill: none; stroke: #008000; stroke-width: 1.000000; stroke-linejoin: round; stroke-linecap: square;  opacity: 1.000000"  d="M410.602500 39.307500L430.762500 39.307500"/>
</g>
<g id="line2d34">
</g>
<g id="text19">
<defs>
<path id="c_6023715d605f81e6eb43b7f9d77e7c51" d="M34.187500 -63.187500l-13.390625 36.281250l26.812500 0.000000zM28.609375 -72.906250l11.187500 0.000000l27.781250 72.906250l-10.250000 0.000000l-6.640625 -18.703125l-32.859375 0.000000l-6.640625 18.703125l-10.406250 0.000000z"/>
<path id="c_e3864de5dabf2f8dd9eee74726882ec1" d="M45.406250 -27.984375q0.000000 -9.765625 -4.031250 -15.125000q-4.015625 -5.375000 -11.296875 -5.375000q-7.218750 0.000000 -11.250000 5.375000q-4.031250 5.359375 -4.031250 15.125000q0.000000 9.718750 4.031250 15.093750q4.031250 5.375000 11.250000 5.375000q7.281250 0.000000 11.296875 -5.375000q4.031250 -5.375000 4.031250 -15.093750M54.390625 -6.781250q0.000000 13.953125 -6.203125 20.765625q-6.187500 6.812500 -18.984375 6.812500q-4.734375 0.000000 -8.937500 -0.703125q-4.203125 -0.703125 -8.156250 -2.171875l0.000000 -8.734375q3.953125 2.140625 7.812500 3.156250q3.859375 1.031250 7.859375 1.031250q8.843750 0.000000 13.234375 -4.609375q4.390625 -4.609375 4.390625 -13.937500l0.000000 -4.453125q-2.781250 4.843750 -7.125000 7.234375q-4.343750 2.390625 -10.406250 2.390625q-10.046875 0.000000 -16.203125 -7.656250q-6.156250 -7.671875 -6.156250 -20.328125q0.000000 -12.687500 6.156250 -20.343750q6.156250 -7.671875 16.203125 -7.671875q6.062500 0.000000 10.406250 2.390625q4.343750 2.390625 7.125000 7.218750l0.000000 -8.296875l8.984375 0.000000z"/>
<path id="c_3b515ad41f960e225ec85275856806ca" d="M8.500000 -21.578125l0.000000 -33.109375l8.984375 0.000000l0.000000 32.765625q0.000000 7.765625 3.015625 11.656250q3.031250 3.875000 9.093750 3.875000q7.265625 0.000000 11.484375 -4.640625q4.234375 -4.640625 4.234375 -12.656250l0.000000 -31.000000l8.984375 0.000000l0.000000 54.687500l-8.984375 0.000000l0.000000 -8.406250q-3.265625 4.984375 -7.593750 7.406250q-4.312500 2.421875 -10.031250 2.421875q-9.421875 0.000000 -14.312500 -5.859375q-4.875000 -5.859375 -4.875000 -17.140625M31.109375 -56.000000z"/>
</defs>
<g style="fill: #000000; opacity: 1.000000" transform="translate(446.602500,44.347500)scale(0.144000)">
<use xlink:href="#c_6023715d605f81e6eb43b7f9d77e7c51"/>
<use xlink:href="#c_fe791a90f5471e2ab20a5ed41a7fa451" x="68.408203"/>
<use xlink:href="#c_e3864de5dabf2f8dd9eee74726882ec1" x="131.787109"/>
<use xlink:href="#c_3b515ad41f960e225ec85275856806ca" x="195.263672"/>
<use xlink:href="#c_5099edb83619131346ae654950954dea" x="258.642578"/>
<use xlink:href="#c_01d93a582460e35a7945ca50d148ffeb" x="286.425781"/>
<use xlink:href="#c_6ec8d5749226675394676a5d2a3b468b" x="347.705078"/>
<use xlink:href="#c_d41d8cd98f00b204e9800998ecf8427e" x="388.818359"/>
<use xlink:href="#c_ae70b0af174184799fa4976b9c5da571" x="420.605469"/>
<use xlink:href="#c_0bce5afba2dc6b9024b26277c38ad8e8" x="481.263672"/>
<use xlink:href="#c_5099edb83619131346ae654950954dea" x="542.787109"/>
<use xlink:href="#c_f05dd90d41f04bb96ef1ca503cc2044b" x="570.570313"/>
<use xlink:href="#c_d650c37394b681142a10dfc54356d478" x="631.751953"/>
<use xlink:href="#c_6a63bda47b2f3da1cec6aadd80692cfe" x="686.732422"/>
<use xlink:href="#c_0f8c41144cfbf448378cb6fd1cc8e549" x="714.515625"/>
<use xlink:href="#c_3fe22c4af425ac970aec982ae9662abe" x="753.724609"/>
</g>
</g>
</g>
</g>
</svg>
