<?xml version="1.0" standalone="no"?>
<!DOCTYPE svg PUBLIC "-//W3C//DTD SVG 1.1//EN"
  "http://www.w3.org/Graphics/SVG/1.1/DTD/svg11.dtd">
<!-- Created with matplotlib (http://matplotlib.sourceforge.net/) -->
<svg width="576pt" height="432pt" viewBox="0 0 576 432"
   xmlns="http://www.w3.org/2000/svg"
   xmlns:xlink="http://www.w3.org/1999/xlink"
   version="1.1"
   id="svg1">
<g id="figure1">
<g id="patch1">
<path style="fill: #ffffff; stroke: #ffffff; stroke-width: 1.000000; stroke-linejoin: round; stroke-linecap: square;  opacity: 1.000000"  d="M0.000000 432.000000L576.000000 432.000000L576.000000 0.000000
L0.000000 0.000000L0.000000 432.000000"/>
</g>
<g id="axes1">
<g id="patch2">
<path style="fill: #ffffff; opacity: 1.000000"  d="M72.000000 388.800000L518.400000 388.800000L518.400000 43.200000
L72.000000 43.200000L72.000000 388.800000"/>
</g>
<g id="line2d1">
<defs>
  <clipPath id="p50431ccdcb28178602d99d9270004dde">
<rect x="72.000000" y="43.200000" width="446.400000" height="345.600000"/>
  </clipPath>
</defs><path style="fill: none; stroke: #0000ff; stroke-width: 1.000000; stroke-linejoin: round; stroke-linecap: square;  opacity: 1.000000" clip-path="url(#p50431ccdcb28178602d99d9270004dde)" d="M72.000000 216.000000L145.923840 216.000000L146.459520 175.826239
L147.530880 175.727413L148.602240 176.444993L149.495040 182.988755
L150.030720 186.272285L150.923520 188.587647L151.994880 189.433747
L153.244800 192.906096L154.316160 196.592452L158.601600 203.544794
L159.315840 204.555843L160.030080 155.764260L160.744320 154.458313
L160.922880 153.119219L161.637120 156.936780L162.172800 159.955468
L162.529920 161.175182L162.708480 149.776617L162.887040 154.026372
L163.244160 158.511329L164.315520 158.414162L164.672640 164.426480
L165.208320 163.306487L165.744000 167.080519L166.458240 170.953444
L166.636800 166.073169L166.993920 167.075651L167.529600 171.188873
L168.065280 173.473051L168.958080 178.615097L169.672320 181.201104
L170.029440 179.050078L173.957760 191.883621L175.029120 194.326247
L175.921920 196.675819L178.421760 201.467256L179.850240 203.628828
L180.564480 216.000000L256.631040 216.000000L257.166720 204.748961
L259.309440 204.656247L259.845120 261.674340L260.023680 260.481798
L261.095040 226.763427L261.809280 188.001921L262.344960 173.236260
L263.773440 126.363439L264.487680 128.954675L270.558720 174.567027
L270.915840 176.101294L271.630080 177.458323L272.880000 183.288032
L273.594240 184.610723L275.379840 191.439694L276.451200 192.230912
L277.879680 195.928708L278.415360 200.206030L280.022400 203.683450
L280.915200 204.839600L281.093760 221.643259L281.450880 223.131617
L281.629440 221.860942L281.986560 208.298415L283.593600 108.645430
L284.486400 110.345153L285.736320 121.541849L287.164800 139.222073
L287.700480 142.028680L288.771840 150.938417L289.664640 157.658587
L290.200320 162.543304L290.378880 160.415258L290.557440 161.973318
L291.271680 166.451753L291.807360 174.660375L293.235840 182.041805
L293.592960 180.507194L297.878400 194.896510L300.556800 200.736014
L302.699520 204.164349L303.949440 162.625052L304.306560 158.173066
L305.556480 117.701331L305.913600 114.068276L306.627840 122.253171
L306.806400 124.226330L307.342080 125.495155L307.699200 127.202975
L308.592000 136.668742L312.877440 169.741582L313.234560 168.501870
L315.020160 177.202678L315.198720 175.195354L315.912960 183.526365
L317.698560 190.033866L318.055680 187.645725L319.127040 190.819954
L319.662720 195.807624L320.734080 198.508956L321.805440 199.206776
L323.233920 201.747142L325.376640 202.551793L325.912320 216.000000
L355.910400 216.000000L356.267520 211.057358L356.446080 308.034885
L357.517440 308.089331L358.053120 301.896649L359.124480 227.739946
L359.838720 193.892400L361.445760 129.838500L361.802880 127.732276
L362.517120 129.372376L363.767040 144.523761L365.016960 151.871561
L365.909760 161.046830L366.266880 162.050140L366.802560 166.649794
L368.052480 172.526459L369.302400 179.555346L371.266560 186.572226
L372.695040 189.689075L373.944960 193.231675L376.623360 198.503592
L378.587520 200.972890L379.301760 202.003940L380.373120 202.839968
L381.087360 203.890762L381.444480 336.074053L382.515840 335.724521
L382.872960 327.748374L384.301440 192.148378L385.015680 118.306454
L386.444160 93.499472L386.801280 102.420155L388.229760 116.311188
L388.586880 114.753117L388.944000 122.541583L389.301120 121.496867
L390.015360 123.606750L390.372480 127.941161L391.265280 133.349297
L392.158080 134.658181L392.872320 150.256939L393.586560 149.079604
L393.765120 147.985965L394.300800 157.699380L394.657920 156.236040
L395.907840 168.977578L396.264960 167.795104L396.622080 169.437132
L396.979200 168.281988L397.336320 169.405881L398.229120 175.252625
L399.300480 182.403478L399.479040 181.213133L399.836160 182.340198
L400.014720 184.469967L401.443200 190.292686L401.800320 189.087675
L402.157440 190.159730L403.228800 190.154931L403.764480 194.599390
L404.835840 194.107747L405.728640 196.086136L405.907200 199.470565
L406.978560 202.053395L408.049920 202.624981L408.407040 203.816017
L409.478400 205.050455L409.835520 165.989314L410.371200 162.473792
L411.621120 128.592334L411.978240 125.891729L413.049600 132.855593
L414.120960 142.678028L415.192320 150.475564L416.085120 158.382240
L417.156480 159.242629L417.692160 169.204803L418.763520 175.065132
L419.834880 175.395995L420.192000 180.559931L421.441920 186.071024
L424.656000 186.075832L425.370240 200.018706L426.441600 201.869247
L426.620160 202.915088L427.691520 202.788732L427.870080 204.177689
L428.048640 216.000000L433.405440 216.000000L433.405440 216.000000"/>
</g>
<g id="line2d2">
<path style="fill: none; stroke: #008000; stroke-width: 1.000000; stroke-linejoin: round; stroke-linecap: square;  opacity: 1.000000" clip-path="url(#p50431ccdcb28178602d99d9270004dde)" d="M72.000000 216.000000L145.923840 216.000000L146.459520 156.690877
L147.530880 156.821165L148.066560 158.275467L148.423680 165.606353
L149.852160 248.223148L150.566400 246.972800L151.102080 240.212252
L151.280640 238.525360L151.637760 224.238612L152.352000 188.810478
L154.673280 227.868163L155.387520 224.973447L155.744640 223.477666
L156.994560 220.805476L157.351680 219.359033L158.065920 218.009187
L159.137280 219.919351L159.494400 218.789707L160.030080 317.474046
L160.208640 313.685034L160.387200 310.545049L160.744320 293.545329
L161.815680 149.492833L161.994240 152.144743L162.529920 194.010056
L162.887040 327.046587L163.065600 287.075693L163.244160 288.648160
L163.422720 337.140109L163.601280 330.813272L164.315520 277.159933
L164.494080 298.986127L164.672640 329.824331L164.851200 327.539317
L165.922560 157.402758L166.458240 162.345946L166.636800 153.981472
L166.815360 160.558062L166.993920 171.052163L167.172480 154.447285
L167.351040 168.517102L168.422400 248.895037L168.779520 245.681875
L169.315200 234.735304L170.208000 164.211430L170.565120 169.306304
L170.743680 172.980305L171.279360 264.570230L172.529280 242.645321
L172.707840 234.972854L173.600640 157.566363L173.957760 159.599174
L174.136320 163.039781L174.493440 186.354347L175.207680 259.683786
L175.386240 264.434520L175.564800 261.209946L176.100480 242.834860
L177.171840 179.419323L177.528960 180.612718L177.886080 189.505438
L178.778880 227.894016L179.671680 218.492484L180.385920 206.022141
L180.564480 216.000000L256.631040 216.000000L257.166720 292.283224
L258.238080 292.337915L258.595200 290.186347L259.130880 261.011818
L259.488000 111.862768L260.559360 112.033128L261.095040 109.392231
L261.452160 105.768516L262.344960 107.492690L262.702080 114.022458
L264.487680 201.622463L265.201920 205.503535L265.380480 211.838494
L266.094720 208.508602L266.630400 219.297166L267.166080 217.184378
L267.344640 219.519661L267.523200 218.075757L268.416000 207.810559
L268.951680 204.632387L269.130240 207.123777L269.844480 200.130698
L270.558720 197.307177L271.094400 200.971976L271.808640 262.008135
L272.344320 258.065342L273.058560 226.340889L273.237120 225.259619
L273.415680 237.336620L273.594240 231.958714L274.487040 216.720989
L275.736960 201.069017L275.915520 220.833582L276.808320 219.602019
L277.879680 212.198381L278.058240 210.773123L278.415360 227.912068
L278.593920 226.618290L280.558080 212.271754L280.736640 208.817850
L281.093760 108.138240L281.986560 106.574915L282.522240 110.990912
L282.879360 131.611928L284.129280 205.171084L284.664960 215.558577
L285.379200 219.930587L285.736320 216.718359L286.986240 194.400138
L287.164800 198.324820L288.414720 210.605139L288.593280 208.963413
L289.486080 214.962022L290.021760 229.169387L290.557440 227.940418
L291.271680 216.143630L291.450240 218.470805L292.164480 213.105028
L293.414400 209.180970L293.592960 219.491205L294.307200 216.329194
L294.664320 212.917656L295.378560 209.766079L295.914240 211.550521
L297.521280 214.409625L297.878400 209.990037L298.592640 208.917122
L298.949760 210.281756L299.128320 212.373151L300.199680 211.904707
L300.556800 210.543413L301.271040 211.593963L301.985280 210.513664
L303.056640 209.643953L303.413760 210.843041L303.592320 105.600748
L304.306560 107.238106L304.663680 115.502307L305.020800 137.537815
L305.199360 96.025129L305.377920 107.980322L305.735040 152.040738
L306.806400 297.655188L306.984960 296.398202L308.234880 168.593312
L308.770560 190.312419L309.484800 234.931344L310.199040 257.683217
L310.377600 254.044177L311.984640 212.263235L312.163200 214.744105
L312.341760 212.697536L313.591680 223.851469L314.127360 218.718291
L314.484480 215.618033L315.020160 218.579634L315.555840 234.154577
L315.734400 232.262799L316.091520 234.091559L316.805760 212.568252
L317.341440 213.586974L318.055680 220.110629L318.769920 221.231898
L319.127040 219.628143L319.305600 229.430826L319.484160 227.699954
L320.376960 222.532813L320.912640 226.393542L321.448320 217.159977
L322.162560 219.777360L322.698240 223.536707L323.233920 224.766956
L323.591040 223.568925L323.769600 221.660002L325.019520 216.918207
L326.090880 216.000000L356.088960 216.000000L356.446080 44.003282
L357.517440 43.674206L357.874560 45.680622L358.945920 101.429446
L360.195840 127.805365L360.374400 139.862817L360.552960 93.544053
L360.731520 100.106071L361.088640 119.195512L362.517120 231.888563
L362.695680 226.667846L362.874240 229.884176L363.588480 226.127307
L363.767040 224.758544L364.124160 212.824999L364.481280 220.039233
L365.195520 206.291163L366.266880 207.814694L366.802560 222.043201
L367.159680 218.551390L367.338240 220.654677L367.516800 216.537926
L367.695360 217.635514L367.873920 216.595025L368.052480 251.481226
L368.231040 249.616928L368.409600 236.836770L368.588160 257.714729
L368.766720 254.253173L370.195200 209.251773L371.266560 196.777814
L371.445120 198.711557L372.516480 213.117827L372.873600 206.199467
L373.230720 203.409999L373.587840 205.474603L373.944960 198.967272
L374.302080 205.183563L374.659200 198.076730L375.016320 199.081346
L375.194880 197.540236L375.730560 201.811200L375.909120 204.084757
L376.087680 199.404993L376.444800 171.294525L376.623360 174.128144
L376.801920 175.943296L377.337600 242.560730L377.516160 236.030363
L377.873280 213.878087L378.230400 215.307953L379.301760 198.782123
L379.480320 200.147107L379.658880 197.028046L380.194560 204.129362
L380.730240 218.236960L381.265920 180.558689L381.444480 388.800000
L382.515840 388.800000L382.872960 384.864435L383.408640 334.826710
L384.480000 305.551592L384.658560 340.682660L384.837120 332.555103
L386.087040 283.943329L387.158400 204.048749L387.694080 193.693701
L387.872640 191.607208L388.229760 165.273708L388.408320 168.805467
L388.765440 181.218009L388.944000 171.701047L389.301120 194.677106
L389.836800 203.050876L390.015360 200.909234L390.193920 198.780632
L390.551040 201.253063L391.086720 207.812314L391.265280 205.431879
L391.800960 217.398019L391.979520 212.139503L392.693760 177.664040
L393.229440 170.911128L393.943680 190.131467L394.122240 185.398438
L395.193600 208.374678L395.550720 168.249678L396.622080 183.808438
L397.693440 269.892826L398.050560 271.262143L398.943360 226.927571
L399.121920 223.805969L399.479040 209.125237L399.836160 203.201666
L400.014720 192.908631L400.371840 191.782075L400.728960 165.691898
L400.907520 167.297791L401.086080 170.160159L401.264640 164.522457
L401.443200 167.984885L401.621760 171.461265L401.978880 189.456621
L402.157440 183.892970L402.693120 193.308618L403.228800 206.903258
L403.585920 197.472410L403.943040 198.708060L405.371520 215.522889
L405.907200 200.249320L406.800000 203.007254L406.978560 193.839573
L407.157120 196.930160L407.335680 195.224987L407.514240 196.478148
L407.871360 202.513689L408.049920 197.870185L408.585600 199.253529
L409.299840 202.567663L409.656960 106.375340L410.192640 107.732848
L410.728320 115.146357L411.264000 140.603420L411.442560 98.403635
L411.621120 116.762847L411.978240 140.561247L413.049600 254.608246
L413.763840 259.938577L414.120960 232.406005L414.835200 195.187968
L415.013760 196.786351L415.370880 198.901936L415.728000 206.768979
L415.906560 205.715468L416.799360 212.379780L417.513600 220.501462
L417.692160 221.804746L417.870720 228.707569L418.763520 221.324493
L420.192000 204.124087L420.906240 209.641726L421.084800 206.404651
L421.799040 212.534491L422.870400 224.886905L423.584640 218.040630
L425.013120 204.682182L426.263040 209.276587L426.620160 204.057149
L427.334400 207.649528L427.512960 209.756135L427.870080 207.384750
L428.048640 216.000000L433.405440 216.000000L433.405440 216.000000"/>
</g>
<g id="matplotlib.axis1">
<g id="xtick1">
<g id="line2d3">
<defs><path id="m30e32995789d870ad79a2e54c91cf9c6" d="M0.000000 0.000000L0.000000 -4.000000"/></defs>
<g ><use style="fill: none; stroke: #000000; stroke-width: 0.500000; stroke-linejoin: round; stroke-linecap: butt;  opacity: 1.000000" xlink:href="#m30e32995789d870ad79a2e54c91cf9c6" x="72.000000" y="388.800000"/>
</g></g>
<g id="line2d4">
<defs><path id="m9281cae24120827b11d5ea8a7ad3e96b" d="M0.000000 0.000000L0.000000 4.000000"/></defs>
<g ><use style="fill: none; stroke: #000000; stroke-width: 0.500000; stroke-linejoin: round; stroke-linecap: butt;  opacity: 1.000000" xlink:href="#m9281cae24120827b11d5ea8a7ad3e96b" x="72.000000" y="43.200000"/>
</g></g>
<g id="text1">
<defs>
<path id="c_7a2040fe3b94fcd41d0a72c84e93b115" d="M31.781250 -66.406250q-7.609375 0.000000 -11.453125 7.500000q-3.828125 7.484375 -3.828125 22.531250q0.000000 14.984375 3.828125 22.484375q3.843750 7.500000 11.453125 7.500000q7.671875 0.000000 11.500000 -7.500000q3.843750 -7.500000 3.843750 -22.484375q0.000000 -15.046875 -3.843750 -22.531250q-3.828125 -7.500000 -11.500000 -7.500000M31.781250 -74.218750q12.265625 0.000000 18.734375 9.703125q6.468750 9.687500 6.468750 28.140625q0.000000 18.406250 -6.468750 28.109375q-6.468750 9.687500 -18.734375 9.687500q-12.250000 0.000000 -18.718750 -9.687500q-6.468750 -9.703125 -6.468750 -28.109375q0.000000 -18.453125 6.468750 -28.140625q6.468750 -9.703125 18.718750 -9.703125"/>
</defs>
<g style="fill: #000000; opacity: 1.000000" transform="translate(68.976562,401.706250)scale(0.120000)">
<use xlink:href="#c_7a2040fe3b94fcd41d0a72c84e93b115"/>
</g>
</g>
</g>
<g id="xtick2">
<g id="line2d5">
<g ><use style="fill: none; stroke: #000000; stroke-width: 0.500000; stroke-linejoin: round; stroke-linecap: butt;  opacity: 1.000000" xlink:href="#m30e32995789d870ad79a2e54c91cf9c6" x="161.280000" y="388.800000"/>
</g></g>
<g id="line2d6">
<g ><use style="fill: none; stroke: #000000; stroke-width: 0.500000; stroke-linejoin: round; stroke-linecap: butt;  opacity: 1.000000" xlink:href="#m9281cae24120827b11d5ea8a7ad3e96b" x="161.280000" y="43.200000"/>
</g></g>
<g id="text2">
<defs>
<path id="c_1260a2df50f305f3db244e29828f968e" d="M10.796875 -72.906250l38.718750 0.000000l0.000000 8.312500l-29.687500 0.000000l0.000000 17.859375q2.140625 -0.734375 4.281250 -1.093750q2.156250 -0.359375 4.312500 -0.359375q12.203125 0.000000 19.328125 6.687500q7.140625 6.687500 7.140625 18.109375q0.000000 11.765625 -7.328125 18.296875q-7.328125 6.515625 -20.656250 6.515625q-4.593750 0.000000 -9.359375 -0.781250q-4.750000 -0.781250 -9.828125 -2.343750l0.000000 -9.921875q4.390625 2.390625 9.078125 3.562500q4.687500 1.171875 9.906250 1.171875q8.453125 0.000000 13.375000 -4.437500q4.937500 -4.437500 4.937500 -12.062500q0.000000 -7.609375 -4.937500 -12.046875q-4.921875 -4.453125 -13.375000 -4.453125q-3.953125 0.000000 -7.890625 0.875000q-3.921875 0.875000 -8.015625 2.734375z"/>
</defs>
<g style="fill: #000000; opacity: 1.000000" transform="translate(150.678438,401.706250)scale(0.120000)">
<use xlink:href="#c_1260a2df50f305f3db244e29828f968e"/>
<use xlink:href="#c_7a2040fe3b94fcd41d0a72c84e93b115" x="63.623047"/>
<use xlink:href="#c_7a2040fe3b94fcd41d0a72c84e93b115" x="127.246094"/>
</g>
</g>
</g>
<g id="xtick3">
<g id="line2d7">
<g ><use style="fill: none; stroke: #000000; stroke-width: 0.500000; stroke-linejoin: round; stroke-linecap: butt;  opacity: 1.000000" xlink:href="#m30e32995789d870ad79a2e54c91cf9c6" x="250.560000" y="388.800000"/>
</g></g>
<g id="line2d8">
<g ><use style="fill: none; stroke: #000000; stroke-width: 0.500000; stroke-linejoin: round; stroke-linecap: butt;  opacity: 1.000000" xlink:href="#m9281cae24120827b11d5ea8a7ad3e96b" x="250.560000" y="43.200000"/>
</g></g>
<g id="text3">
<defs>
<path id="c_42baa63129a918535c52adb20d687ea7" d="M12.406250 -8.296875l16.109375 0.000000l0.000000 -55.625000l-17.531250 3.515625l0.000000 -8.984375l17.437500 -3.515625l9.859375 0.000000l0.000000 64.609375l16.109375 0.000000l0.000000 8.296875l-41.984375 0.000000z"/>
</defs>
<g style="fill: #000000; opacity: 1.000000" transform="translate(236.333438,401.706250)scale(0.120000)">
<use xlink:href="#c_42baa63129a918535c52adb20d687ea7"/>
<use xlink:href="#c_7a2040fe3b94fcd41d0a72c84e93b115" x="63.623047"/>
<use xlink:href="#c_7a2040fe3b94fcd41d0a72c84e93b115" x="127.246094"/>
<use xlink:href="#c_7a2040fe3b94fcd41d0a72c84e93b115" x="190.869141"/>
</g>
</g>
</g>
<g id="xtick4">
<g id="line2d9">
<g ><use style="fill: none; stroke: #000000; stroke-width: 0.500000; stroke-linejoin: round; stroke-linecap: butt;  opacity: 1.000000" xlink:href="#m30e32995789d870ad79a2e54c91cf9c6" x="339.840000" y="388.800000"/>
</g></g>
<g id="line2d10">
<g ><use style="fill: none; stroke: #000000; stroke-width: 0.500000; stroke-linejoin: round; stroke-linecap: butt;  opacity: 1.000000" xlink:href="#m9281cae24120827b11d5ea8a7ad3e96b" x="339.840000" y="43.200000"/>
</g></g>
<g id="text4">
<g style="fill: #000000; opacity: 1.000000" transform="translate(325.613437,401.706250)scale(0.120000)">
<use xlink:href="#c_42baa63129a918535c52adb20d687ea7"/>
<use xlink:href="#c_1260a2df50f305f3db244e29828f968e" x="63.623047"/>
<use xlink:href="#c_7a2040fe3b94fcd41d0a72c84e93b115" x="127.246094"/>
<use xlink:href="#c_7a2040fe3b94fcd41d0a72c84e93b115" x="190.869141"/>
</g>
</g>
</g>
<g id="xtick5">
<g id="line2d11">
<g ><use style="fill: none; stroke: #000000; stroke-width: 0.500000; stroke-linejoin: round; stroke-linecap: butt;  opacity: 1.000000" xlink:href="#m30e32995789d870ad79a2e54c91cf9c6" x="429.120000" y="388.800000"/>
</g></g>
<g id="line2d12">
<g ><use style="fill: none; stroke: #000000; stroke-width: 0.500000; stroke-linejoin: round; stroke-linecap: butt;  opacity: 1.000000" xlink:href="#m9281cae24120827b11d5ea8a7ad3e96b" x="429.120000" y="43.200000"/>
</g></g>
<g id="text5">
<defs>
<path id="c_ed3f3ed3ebfbd18bcb9c012009a68ad1" d="M19.187500 -8.296875l34.421875 0.000000l0.000000 8.296875l-46.281250 0.000000l0.000000 -8.296875q5.609375 -5.812500 15.296875 -15.593750q9.703125 -9.796875 12.187500 -12.640625q4.734375 -5.312500 6.609375 -9.000000q1.890625 -3.687500 1.890625 -7.250000q0.000000 -5.812500 -4.078125 -9.468750q-4.078125 -3.671875 -10.625000 -3.671875q-4.640625 0.000000 -9.796875 1.609375q-5.140625 1.609375 -11.000000 4.890625l0.000000 -9.968750q5.953125 -2.390625 11.125000 -3.609375q5.187500 -1.218750 9.484375 -1.218750q11.328125 0.000000 18.062500 5.671875q6.734375 5.656250 6.734375 15.125000q0.000000 4.500000 -1.687500 8.531250q-1.671875 4.015625 -6.125000 9.484375q-1.218750 1.421875 -7.765625 8.187500q-6.531250 6.765625 -18.453125 18.921875"/>
</defs>
<g style="fill: #000000; opacity: 1.000000" transform="translate(414.674688,401.706250)scale(0.120000)">
<use xlink:href="#c_ed3f3ed3ebfbd18bcb9c012009a68ad1"/>
<use xlink:href="#c_7a2040fe3b94fcd41d0a72c84e93b115" x="63.623047"/>
<use xlink:href="#c_7a2040fe3b94fcd41d0a72c84e93b115" x="127.246094"/>
<use xlink:href="#c_7a2040fe3b94fcd41d0a72c84e93b115" x="190.869141"/>
</g>
</g>
</g>
<g id="xtick6">
<g id="line2d13">
<g ><use style="fill: none; stroke: #000000; stroke-width: 0.500000; stroke-linejoin: round; stroke-linecap: butt;  opacity: 1.000000" xlink:href="#m30e32995789d870ad79a2e54c91cf9c6" x="518.400000" y="388.800000"/>
</g></g>
<g id="line2d14">
<g ><use style="fill: none; stroke: #000000; stroke-width: 0.500000; stroke-linejoin: round; stroke-linecap: butt;  opacity: 1.000000" xlink:href="#m9281cae24120827b11d5ea8a7ad3e96b" x="518.400000" y="43.200000"/>
</g></g>
<g id="text6">
<g style="fill: #000000; opacity: 1.000000" transform="translate(503.954687,401.706250)scale(0.120000)">
<use xlink:href="#c_ed3f3ed3ebfbd18bcb9c012009a68ad1"/>
<use xlink:href="#c_1260a2df50f305f3db244e29828f968e" x="63.623047"/>
<use xlink:href="#c_7a2040fe3b94fcd41d0a72c84e93b115" x="127.246094"/>
<use xlink:href="#c_7a2040fe3b94fcd41d0a72c84e93b115" x="190.869141"/>
</g>
</g>
</g>
<g id="text7">
<defs>
<path id="c_9e4b30cbdf32072672ded72e9074c4c9" d="M-0.296875 -72.906250l61.671875 0.000000l0.000000 8.312500l-25.875000 0.000000l0.000000 64.593750l-9.906250 0.000000l0.000000 -64.593750l-25.890625 0.000000z"/>
<path id="c_6a63bda47b2f3da1cec6aadd80692cfe" d="M9.421875 -54.687500l8.984375 0.000000l0.000000 54.687500l-8.984375 0.000000zM9.421875 -75.984375l8.984375 0.000000l0.000000 11.390625l-8.984375 0.000000z"/>
<path id="c_4653c6dfde66c7610eae0911760d3490" d="M52.000000 -44.187500q3.375000 -6.062500 8.062500 -8.937500q4.687500 -2.875000 11.031250 -2.875000q8.546875 0.000000 13.187500 5.984375q4.640625 5.968750 4.640625 17.000000l0.000000 33.015625l-9.031250 0.000000l0.000000 -32.718750q0.000000 -7.859375 -2.796875 -11.656250q-2.781250 -3.812500 -8.484375 -3.812500q-6.984375 0.000000 -11.046875 4.640625q-4.046875 4.625000 -4.046875 12.640625l0.000000 30.906250l-9.031250 0.000000l0.000000 -32.718750q0.000000 -7.906250 -2.781250 -11.687500q-2.781250 -3.781250 -8.593750 -3.781250q-6.890625 0.000000 -10.953125 4.656250q-4.046875 4.656250 -4.046875 12.625000l0.000000 30.906250l-9.031250 0.000000l0.000000 -54.687500l9.031250 0.000000l0.000000 8.500000q3.078125 -5.031250 7.375000 -7.421875q4.296875 -2.390625 10.203125 -2.390625q5.968750 0.000000 10.140625 3.031250q4.171875 3.015625 6.171875 8.781250"/>
<path id="c_0bce5afba2dc6b9024b26277c38ad8e8" d="M56.203125 -29.593750l0.000000 4.390625l-41.312500 0.000000q0.593750 9.281250 5.593750 14.140625q5.000000 4.859375 13.937500 4.859375q5.171875 0.000000 10.031250 -1.265625q4.859375 -1.265625 9.656250 -3.812500l0.000000 8.500000q-4.843750 2.046875 -9.921875 3.125000q-5.078125 1.078125 -10.296875 1.078125q-13.093750 0.000000 -20.734375 -7.609375q-7.640625 -7.625000 -7.640625 -20.625000q0.000000 -13.421875 7.250000 -21.296875q7.250000 -7.890625 19.562500 -7.890625q11.031250 0.000000 17.453125 7.109375q6.421875 7.093750 6.421875 19.296875M47.218750 -32.234375q-0.093750 -7.359375 -4.125000 -11.750000q-4.031250 -4.406250 -10.671875 -4.406250q-7.515625 0.000000 -12.031250 4.250000q-4.515625 4.250000 -5.203125 11.968750z"/>
<path id="c_d41d8cd98f00b204e9800998ecf8427e" d=""/>
<path id="c_7efa9804c2b4c09a4b614b91fdebee3d" d="M31.000000 -75.875000q-6.531250 11.218750 -9.718750 22.218750q-3.171875 10.984375 -3.171875 22.265625q0.000000 11.265625 3.203125 22.328125q3.203125 11.062500 9.687500 22.250000l-7.812500 0.000000q-7.312500 -11.484375 -10.953125 -22.562500q-3.640625 -11.078125 -3.640625 -22.015625q0.000000 -10.890625 3.609375 -21.921875q3.625000 -11.046875 10.984375 -22.562500z"/>
<path id="c_9c6d5cbc59c6231647eb409cc6b37bb3" d="M25.390625 -72.906250l8.296875 0.000000l-25.390625 82.187500l-8.296875 0.000000z"/>
<path id="c_0f8c41144cfbf448378cb6fd1cc8e549" d="M18.312500 -70.218750l0.000000 15.531250l18.500000 0.000000l0.000000 6.984375l-18.500000 0.000000l0.000000 29.687500q0.000000 6.687500 1.828125 8.593750q1.828125 1.906250 7.453125 1.906250l9.218750 0.000000l0.000000 7.515625l-9.218750 0.000000q-10.406250 0.000000 -14.359375 -3.875000q-3.953125 -3.890625 -3.953125 -14.140625l0.000000 -29.687500l-6.593750 0.000000l0.000000 -6.984375l6.593750 0.000000l0.000000 -15.531250z"/>
<path id="c_74d54c94aa871ec39e2bc6697dde6c00" d="M54.890625 -33.015625l0.000000 33.015625l-8.984375 0.000000l0.000000 -32.718750q0.000000 -7.765625 -3.031250 -11.609375q-3.031250 -3.859375 -9.078125 -3.859375q-7.281250 0.000000 -11.484375 4.640625q-4.203125 4.625000 -4.203125 12.640625l0.000000 30.906250l-9.031250 0.000000l0.000000 -75.984375l9.031250 0.000000l0.000000 29.796875q3.234375 -4.937500 7.593750 -7.375000q4.375000 -2.437500 10.093750 -2.437500q9.421875 0.000000 14.250000 5.828125q4.843750 5.828125 4.843750 17.156250"/>
<path id="c_8e0810ad13fe20a2a87a2619799b154d" d="M44.281250 -53.078125l0.000000 8.500000q-3.796875 -1.953125 -7.906250 -2.921875q-4.093750 -0.984375 -8.500000 -0.984375q-6.687500 0.000000 -10.031250 2.046875q-3.343750 2.046875 -3.343750 6.156250q0.000000 3.125000 2.390625 4.906250q2.390625 1.781250 9.625000 3.390625l3.078125 0.687500q9.562500 2.046875 13.593750 5.781250q4.031250 3.734375 4.031250 10.421875q0.000000 7.625000 -6.031250 12.078125q-6.031250 4.437500 -16.578125 4.437500q-4.390625 0.000000 -9.156250 -0.859375q-4.765625 -0.859375 -10.031250 -2.562500l0.000000 -9.281250q4.984375 2.593750 9.812500 3.890625q4.828125 1.281250 9.578125 1.281250q6.343750 0.000000 9.750000 -2.171875q3.421875 -2.171875 3.421875 -6.125000q0.000000 -3.656250 -2.468750 -5.609375q-2.453125 -1.953125 -10.812500 -3.765625l-3.125000 -0.734375q-8.343750 -1.750000 -12.062500 -5.390625q-3.703125 -3.640625 -3.703125 -9.984375q0.000000 -7.718750 5.468750 -11.906250q5.468750 -4.203125 15.531250 -4.203125q4.968750 0.000000 9.359375 0.734375q4.406250 0.718750 8.109375 2.187500"/>
<path id="c_e96974be642f6eac0427d72f9cec6c19" d="M8.015625 -75.875000l7.812500 0.000000q7.312500 11.515625 10.953125 22.562500q3.640625 11.031250 3.640625 21.921875q0.000000 10.937500 -3.640625 22.015625q-3.640625 11.078125 -10.953125 22.562500l-7.812500 0.000000q6.484375 -11.187500 9.687500 -22.250000q3.203125 -11.062500 3.203125 -22.328125q0.000000 -11.281250 -3.203125 -22.265625q-3.203125 -11.000000 -9.687500 -22.218750"/>
</defs>
<g style="fill: #000000; opacity: 1.000000" transform="translate(249.754687,416.003125)scale(0.120000)">
<use xlink:href="#c_9e4b30cbdf32072672ded72e9074c4c9"/>
<use xlink:href="#c_6a63bda47b2f3da1cec6aadd80692cfe" x="57.958984"/>
<use xlink:href="#c_4653c6dfde66c7610eae0911760d3490" x="85.742187"/>
<use xlink:href="#c_0bce5afba2dc6b9024b26277c38ad8e8" x="183.154297"/>
<use xlink:href="#c_d41d8cd98f00b204e9800998ecf8427e" x="244.677734"/>
<use xlink:href="#c_7efa9804c2b4c09a4b614b91fdebee3d" x="276.464844"/>
<use xlink:href="#c_42baa63129a918535c52adb20d687ea7" x="315.478516"/>
<use xlink:href="#c_9c6d5cbc59c6231647eb409cc6b37bb3" x="379.101562"/>
<use xlink:href="#c_42baa63129a918535c52adb20d687ea7" x="412.792969"/>
<use xlink:href="#c_7a2040fe3b94fcd41d0a72c84e93b115" x="476.416016"/>
<use xlink:href="#c_0f8c41144cfbf448378cb6fd1cc8e549" x="540.039062"/>
<use xlink:href="#c_74d54c94aa871ec39e2bc6697dde6c00" x="579.248047"/>
<use xlink:href="#c_d41d8cd98f00b204e9800998ecf8427e" x="642.626953"/>
<use xlink:href="#c_8e0810ad13fe20a2a87a2619799b154d" x="674.414062"/>
<use xlink:href="#c_e96974be642f6eac0427d72f9cec6c19" x="726.513672"/>
</g>
</g>
</g>
<g id="matplotlib.axis2">
<g id="ytick1">
<g id="line2d15">
<defs><path id="m3400efa6b1638b3fea9e19e898273957" d="M0.000000 0.000000L4.000000 0.000000"/></defs>
<g ><use style="fill: none; stroke: #000000; stroke-width: 0.500000; stroke-linejoin: round; stroke-linecap: butt;  opacity: 1.000000" xlink:href="#m3400efa6b1638b3fea9e19e898273957" x="72.000000" y="388.800000"/>
</g></g>
<g id="line2d16">
<defs><path id="m20b58b2501143cb5e0a5e8f1ef6f1643" d="M0.000000 0.000000L-4.000000 0.000000"/></defs>
<g ><use style="fill: none; stroke: #000000; stroke-width: 0.500000; stroke-linejoin: round; stroke-linecap: butt;  opacity: 1.000000" xlink:href="#m20b58b2501143cb5e0a5e8f1ef6f1643" x="518.400000" y="388.800000"/>
</g></g>
<g id="text8">
<defs>
<path id="c_6a8d56c819c37117ab4cf023bec22a5a" d="M10.593750 -35.500000l62.593750 0.000000l0.000000 8.296875l-62.593750 0.000000z"/>
</defs>
<g style="fill: #000000; opacity: 1.000000" transform="translate(37.078125,393.167188)scale(0.120000)">
<use xlink:href="#c_6a8d56c819c37117ab4cf023bec22a5a"/>
<use xlink:href="#c_42baa63129a918535c52adb20d687ea7" x="83.789062"/>
<use xlink:href="#c_7a2040fe3b94fcd41d0a72c84e93b115" x="147.412109"/>
<use xlink:href="#c_7a2040fe3b94fcd41d0a72c84e93b115" x="211.035156"/>
</g>
</g>
</g>
<g id="ytick2">
<g id="line2d17">
<g ><use style="fill: none; stroke: #000000; stroke-width: 0.500000; stroke-linejoin: round; stroke-linecap: butt;  opacity: 1.000000" xlink:href="#m3400efa6b1638b3fea9e19e898273957" x="72.000000" y="302.400000"/>
</g></g>
<g id="line2d18">
<g ><use style="fill: none; stroke: #000000; stroke-width: 0.500000; stroke-linejoin: round; stroke-linecap: butt;  opacity: 1.000000" xlink:href="#m20b58b2501143cb5e0a5e8f1ef6f1643" x="518.400000" y="302.400000"/>
</g></g>
<g id="text9">
<g style="fill: #000000; opacity: 1.000000" transform="translate(44.718750,306.767187)scale(0.120000)">
<use xlink:href="#c_6a8d56c819c37117ab4cf023bec22a5a"/>
<use xlink:href="#c_1260a2df50f305f3db244e29828f968e" x="83.789062"/>
<use xlink:href="#c_7a2040fe3b94fcd41d0a72c84e93b115" x="147.412109"/>
</g>
</g>
</g>
<g id="ytick3">
<g id="line2d19">
<g ><use style="fill: none; stroke: #000000; stroke-width: 0.500000; stroke-linejoin: round; stroke-linecap: butt;  opacity: 1.000000" xlink:href="#m3400efa6b1638b3fea9e19e898273957" x="72.000000" y="216.000000"/>
</g></g>
<g id="line2d20">
<g ><use style="fill: none; stroke: #000000; stroke-width: 0.500000; stroke-linejoin: round; stroke-linecap: butt;  opacity: 1.000000" xlink:href="#m20b58b2501143cb5e0a5e8f1ef6f1643" x="518.400000" y="216.000000"/>
</g></g>
<g id="text10">
<g style="fill: #000000; opacity: 1.000000" transform="translate(61.953125,220.367188)scale(0.120000)">
<use xlink:href="#c_7a2040fe3b94fcd41d0a72c84e93b115"/>
</g>
</g>
</g>
<g id="ytick4">
<g id="line2d21">
<g ><use style="fill: none; stroke: #000000; stroke-width: 0.500000; stroke-linejoin: round; stroke-linecap: butt;  opacity: 1.000000" xlink:href="#m3400efa6b1638b3fea9e19e898273957" x="72.000000" y="129.600000"/>
</g></g>
<g id="line2d22">
<g ><use style="fill: none; stroke: #000000; stroke-width: 0.500000; stroke-linejoin: round; stroke-linecap: butt;  opacity: 1.000000" xlink:href="#m20b58b2501143cb5e0a5e8f1ef6f1643" x="518.400000" y="129.600000"/>
</g></g>
<g id="text11">
<g style="fill: #000000; opacity: 1.000000" transform="translate(54.437500,133.967187)scale(0.120000)">
<use xlink:href="#c_1260a2df50f305f3db244e29828f968e"/>
<use xlink:href="#c_7a2040fe3b94fcd41d0a72c84e93b115" x="63.623047"/>
</g>
</g>
</g>
<g id="ytick5">
<g id="line2d23">
<g ><use style="fill: none; stroke: #000000; stroke-width: 0.500000; stroke-linejoin: round; stroke-linecap: butt;  opacity: 1.000000" xlink:href="#m3400efa6b1638b3fea9e19e898273957" x="72.000000" y="43.200000"/>
</g></g>
<g id="line2d24">
<g ><use style="fill: none; stroke: #000000; stroke-width: 0.500000; stroke-linejoin: round; stroke-linecap: butt;  opacity: 1.000000" xlink:href="#m20b58b2501143cb5e0a5e8f1ef6f1643" x="518.400000" y="43.200000"/>
</g></g>
<g id="text12">
<g style="fill: #000000; opacity: 1.000000" transform="translate(47.187500,47.567187)scale(0.120000)">
<use xlink:href="#c_42baa63129a918535c52adb20d687ea7"/>
<use xlink:href="#c_7a2040fe3b94fcd41d0a72c84e93b115" x="63.623047"/>
<use xlink:href="#c_7a2040fe3b94fcd41d0a72c84e93b115" x="127.246094"/>
</g>
</g>
</g>
<g id="text13">
<defs>
<path id="c_ff9441f72805bc441fcb0bfe0d774f13" d="M19.671875 -64.796875l0.000000 56.687500l11.921875 0.000000q15.093750 0.000000 22.093750 -6.828125q7.000000 -6.843750 7.000000 -21.593750q0.000000 -14.640625 -7.000000 -21.453125q-7.000000 -6.812500 -22.093750 -6.812500zM9.812500 -72.906250l20.265625 0.000000q21.187500 0.000000 31.093750 8.812500q9.921875 8.812500 9.921875 27.562500q0.000000 18.859375 -9.968750 27.703125q-9.953125 8.828125 -31.046875 8.828125l-20.265625 0.000000z"/>
<path id="c_01d93a582460e35a7945ca50d148ffeb" d="M34.281250 -27.484375q-10.890625 0.000000 -15.093750 2.484375q-4.203125 2.484375 -4.203125 8.500000q0.000000 4.781250 3.156250 7.593750q3.156250 2.796875 8.562500 2.796875q7.484375 0.000000 12.000000 -5.296875q4.515625 -5.296875 4.515625 -14.078125l0.000000 -2.000000zM52.203125 -31.203125l0.000000 31.203125l-8.984375 0.000000l0.000000 -8.296875q-3.078125 4.968750 -7.671875 7.343750q-4.593750 2.375000 -11.234375 2.375000q-8.390625 0.000000 -13.359375 -4.718750q-4.953125 -4.718750 -4.953125 -12.625000q0.000000 -9.218750 6.171875 -13.906250q6.187500 -4.687500 18.437500 -4.687500l12.609375 0.000000l0.000000 -0.890625q0.000000 -6.203125 -4.078125 -9.593750q-4.078125 -3.390625 -11.453125 -3.390625q-4.687500 0.000000 -9.140625 1.125000q-4.437500 1.125000 -8.531250 3.375000l0.000000 -8.312500q4.921875 -1.906250 9.562500 -2.843750q4.640625 -0.953125 9.031250 -0.953125q11.875000 0.000000 17.734375 6.156250q5.859375 6.140625 5.859375 18.640625"/>
</defs>
<g style="fill: #000000; opacity: 1.000000" transform="translate(32.078125,229.023438)rotate(-90.0)scale(0.120000)">
<use xlink:href="#c_ff9441f72805bc441fcb0bfe0d774f13"/>
<use xlink:href="#c_01d93a582460e35a7945ca50d148ffeb" x="77.001953"/>
<use xlink:href="#c_0f8c41144cfbf448378cb6fd1cc8e549" x="138.281250"/>
<use xlink:href="#c_01d93a582460e35a7945ca50d148ffeb" x="177.490234"/>
</g>
</g>
</g>
<g id="patch3">
<path style="fill: none; stroke: #000000; stroke-width: 1.000000; stroke-linejoin: round; stroke-linecap: square;  opacity: 1.000000"  d="M72.000000 43.200000L518.400000 43.200000"/>
</g>
<g id="patch4">
<path style="fill: none; stroke: #000000; stroke-width: 1.000000; stroke-linejoin: round; stroke-linecap: square;  opacity: 1.000000"  d="M518.400000 388.800000L518.400000 43.200000"/>
</g>
<g id="patch5">
<path style="fill: none; stroke: #000000; stroke-width: 1.000000; stroke-linejoin: round; stroke-linecap: square;  opacity: 1.000000"  d="M72.000000 388.800000L518.400000 388.800000"/>
</g>
<g id="patch6">
<path style="fill: none; stroke: #000000; stroke-width: 1.000000; stroke-linejoin: round; stroke-linecap: square;  opacity: 1.000000"  d="M72.000000 388.800000L72.000000 43.200000"/>
</g>
<g id="text14">
<defs>
<path id="c_518d586bee075aa0153eaebfcb5ab11f" d="M19.671875 -64.796875l0.000000 27.390625l12.406250 0.000000q6.890625 0.000000 10.640625 -3.562500q3.765625 -3.562500 3.765625 -10.156250q0.000000 -6.546875 -3.765625 -10.109375q-3.750000 -3.562500 -10.640625 -3.562500zM9.812500 -72.906250l22.265625 0.000000q12.265625 0.000000 18.531250 5.546875q6.281250 5.546875 6.281250 16.234375q0.000000 10.796875 -6.281250 16.312500q-6.265625 5.515625 -18.531250 5.515625l-12.406250 0.000000l0.000000 29.296875l-9.859375 0.000000z"/>
<path id="c_d650c37394b681142a10dfc54356d478" d="M48.781250 -52.593750l0.000000 8.406250q-3.812500 -2.109375 -7.640625 -3.156250q-3.828125 -1.046875 -7.734375 -1.046875q-8.750000 0.000000 -13.593750 5.546875q-4.828125 5.531250 -4.828125 15.546875q0.000000 10.015625 4.828125 15.562500q4.843750 5.531250 13.593750 5.531250q3.906250 0.000000 7.734375 -1.046875q3.828125 -1.046875 7.640625 -3.156250l0.000000 8.312500q-3.765625 1.750000 -7.796875 2.625000q-4.015625 0.890625 -8.562500 0.890625q-12.359375 0.000000 -19.640625 -7.765625q-7.265625 -7.765625 -7.265625 -20.953125q0.000000 -13.375000 7.343750 -21.031250q7.359375 -7.671875 20.156250 -7.671875q4.140625 0.000000 8.093750 0.859375q3.953125 0.843750 7.671875 2.546875"/>
<path id="c_dcb78ab3124be785176d70a27dde1356" d="M9.078125 -75.984375l9.031250 0.000000l0.000000 44.875000l26.812500 -23.578125l11.468750 0.000000l-29.000000 25.578125l30.234375 29.109375l-11.718750 0.000000l-27.796875 -26.703125l0.000000 26.703125l-9.031250 0.000000z"/>
<path id="c_425fd1cbcd899bef0a79975ae4756bf8" d="M19.671875 -34.812500l0.000000 26.703125l15.828125 0.000000q7.953125 0.000000 11.781250 -3.296875q3.843750 -3.296875 3.843750 -10.078125q0.000000 -6.843750 -3.843750 -10.078125q-3.828125 -3.250000 -11.781250 -3.250000zM19.671875 -64.796875l0.000000 21.968750l14.609375 0.000000q7.218750 0.000000 10.750000 -2.703125q3.546875 -2.718750 3.546875 -8.281250q0.000000 -5.515625 -3.546875 -8.250000q-3.531250 -2.734375 -10.750000 -2.734375zM9.812500 -72.906250l25.203125 0.000000q11.281250 0.000000 17.375000 4.687500q6.109375 4.687500 6.109375 13.328125q0.000000 6.703125 -3.125000 10.656250q-3.125000 3.953125 -9.187500 4.921875q7.281250 1.562500 11.312500 6.531250q4.031250 4.953125 4.031250 12.375000q0.000000 9.765625 -6.640625 15.093750q-6.640625 5.312500 -18.906250 5.312500l-26.171875 0.000000z"/>
<path id="c_f05dd90d41f04bb96ef1ca503cc2044b" d="M30.609375 -48.390625q-7.218750 0.000000 -11.421875 5.640625q-4.203125 5.640625 -4.203125 15.453125q0.000000 9.812500 4.171875 15.453125q4.187500 5.640625 11.453125 5.640625q7.187500 0.000000 11.375000 -5.656250q4.203125 -5.671875 4.203125 -15.437500q0.000000 -9.718750 -4.203125 -15.406250q-4.187500 -5.687500 -11.375000 -5.687500M30.609375 -56.000000q11.718750 0.000000 18.406250 7.625000q6.703125 7.609375 6.703125 21.078125q0.000000 13.421875 -6.703125 21.078125q-6.687500 7.640625 -18.406250 7.640625q-11.765625 0.000000 -18.437500 -7.640625q-6.656250 -7.656250 -6.656250 -21.078125q0.000000 -13.468750 6.656250 -21.078125q6.671875 -7.625000 18.437500 -7.625000"/>
<path id="c_c48ceabac27bf136feba2f4bf2716ab6" d="M2.984375 -54.687500l9.515625 0.000000l17.093750 45.890625l17.093750 -45.890625l9.515625 0.000000l-20.515625 54.687500l-12.203125 0.000000z"/>
<path id="c_ed3e21196fb739f392806f09ca0594ef" d="M10.687500 -12.406250l10.312500 0.000000l0.000000 12.406250l-10.312500 0.000000z"/>
</defs>
<g style="fill: #000000; opacity: 1.000000" transform="translate(215.004687,37.996875)scale(0.144000)">
<use xlink:href="#c_518d586bee075aa0153eaebfcb5ab11f"/>
<use xlink:href="#c_01d93a582460e35a7945ca50d148ffeb" x="55.802734"/>
<use xlink:href="#c_d650c37394b681142a10dfc54356d478" x="117.082031"/>
<use xlink:href="#c_dcb78ab3124be785176d70a27dde1356" x="172.062500"/>
<use xlink:href="#c_425fd1cbcd899bef0a79975ae4756bf8" x="229.972656"/>
<use xlink:href="#c_f05dd90d41f04bb96ef1ca503cc2044b" x="298.576172"/>
<use xlink:href="#c_0f8c41144cfbf448378cb6fd1cc8e549" x="359.757812"/>
<use xlink:href="#c_d41d8cd98f00b204e9800998ecf8427e" x="398.966797"/>
<use xlink:href="#c_ff9441f72805bc441fcb0bfe0d774f13" x="430.753906"/>
<use xlink:href="#c_01d93a582460e35a7945ca50d148ffeb" x="507.755859"/>
<use xlink:href="#c_0f8c41144cfbf448378cb6fd1cc8e549" x="569.035156"/>
<use xlink:href="#c_01d93a582460e35a7945ca50d148ffeb" x="608.244141"/>
<use xlink:href="#c_d41d8cd98f00b204e9800998ecf8427e" x="669.523438"/>
<use xlink:href="#c_c48ceabac27bf136feba2f4bf2716ab6" x="701.310547"/>
<use xlink:href="#c_8e0810ad13fe20a2a87a2619799b154d" x="760.490234"/>
<use xlink:href="#c_ed3e21196fb739f392806f09ca0594ef" x="812.589844"/>
<use xlink:href="#c_d41d8cd98f00b204e9800998ecf8427e" x="844.376953"/>
<use xlink:href="#c_9e4b30cbdf32072672ded72e9074c4c9" x="876.164062"/>
<use xlink:href="#c_6a63bda47b2f3da1cec6aadd80692cfe" x="934.123047"/>
<use xlink:href="#c_4653c6dfde66c7610eae0911760d3490" x="961.906250"/>
<use xlink:href="#c_0bce5afba2dc6b9024b26277c38ad8e8" x="1059.318359"/>
</g>
</g>
</g>
<g id="legend1">
<g id="patch7">
<path style="fill: #ffffff; stroke: #000000; stroke-width: 1.000000; stroke-linejoin: round; stroke-linecap: square;  opacity: 1.000000"  d="M400.522500 53.013750L568.800000 53.013750L568.800000 7.200000
L400.522500 7.200000L400.522500 53.013750z"/>
</g>
<g id="line2d25">
<path style="fill: none; stroke: #0000ff; stroke-width: 1.000000; stroke-linejoin: round; stroke-linecap: square;  opacity: 1.000000"  d="M410.602500 18.560625L430.762500 18.560625"/>
</g>
<g id="line2d26">
</g>
<g id="text15">
<defs>
<path id="c_07e3f33241aff50afcba519606f2a979" d="M9.812500 -72.906250l9.859375 0.000000l0.000000 64.609375l35.500000 0.000000l0.000000 8.296875l-45.359375 0.000000z"/>
<path id="c_fe791a90f5471e2ab20a5ed41a7fa451" d="M54.890625 -33.015625l0.000000 33.015625l-8.984375 0.000000l0.000000 -32.718750q0.000000 -7.765625 -3.031250 -11.609375q-3.031250 -3.859375 -9.078125 -3.859375q-7.281250 0.000000 -11.484375 4.640625q-4.203125 4.625000 -4.203125 12.640625l0.000000 30.906250l-9.031250 0.000000l0.000000 -54.687500l9.031250 0.000000l0.000000 8.500000q3.234375 -4.937500 7.593750 -7.375000q4.375000 -2.437500 10.093750 -2.437500q9.421875 0.000000 14.250000 5.828125q4.843750 5.828125 4.843750 17.156250"/>
<path id="c_6ec8d5749226675394676a5d2a3b468b" d="M41.109375 -46.296875q-1.515625 -0.875000 -3.296875 -1.281250q-1.781250 -0.421875 -3.921875 -0.421875q-7.625000 0.000000 -11.703125 4.953125q-4.078125 4.953125 -4.078125 14.234375l0.000000 28.812500l-9.031250 0.000000l0.000000 -54.687500l9.031250 0.000000l0.000000 8.500000q2.843750 -4.984375 7.375000 -7.390625q4.546875 -2.421875 11.046875 -2.421875q0.921875 0.000000 2.046875 0.125000q1.125000 0.109375 2.484375 0.359375z"/>
<path id="c_ae70b0af174184799fa4976b9c5da571" d="M28.609375 -0.000000l-27.828125 -72.906250l10.296875 0.000000l23.109375 61.375000l23.140625 -61.375000l10.250000 0.000000l-27.781250 72.906250z"/>
<path id="c_5099edb83619131346ae654950954dea" d="M9.421875 -75.984375l8.984375 0.000000l0.000000 75.984375l-8.984375 0.000000z"/>
<path id="c_3fe22c4af425ac970aec982ae9662abe" d="M32.171875 5.078125q-3.796875 9.765625 -7.421875 12.734375q-3.609375 2.984375 -9.656250 2.984375l-7.187500 0.000000l0.000000 -7.515625l5.281250 0.000000q3.703125 0.000000 5.750000 -1.765625q2.062500 -1.750000 4.546875 -8.296875l1.609375 -4.093750l-22.109375 -53.812500l9.515625 0.000000l17.093750 42.765625l17.093750 -42.765625l9.515625 0.000000z"/>
</defs>
<g style="fill: #000000; opacity: 1.000000" transform="translate(446.602500,23.600625)scale(0.144000)">
<use xlink:href="#c_07e3f33241aff50afcba519606f2a979"/>
<use xlink:href="#c_6a63bda47b2f3da1cec6aadd80692cfe" x="55.712891"/>
<use xlink:href="#c_fe791a90f5471e2ab20a5ed41a7fa451" x="83.496094"/>
<use xlink:href="#c_0bce5afba2dc6b9024b26277c38ad8e8" x="146.875000"/>
<use xlink:href="#c_01d93a582460e35a7945ca50d148ffeb" x="208.398438"/>
<use xlink:href="#c_6ec8d5749226675394676a5d2a3b468b" x="269.677734"/>
<use xlink:href="#c_d41d8cd98f00b204e9800998ecf8427e" x="310.791016"/>
<use xlink:href="#c_ae70b0af174184799fa4976b9c5da571" x="342.578125"/>
<use xlink:href="#c_0bce5afba2dc6b9024b26277c38ad8e8" x="403.236328"/>
<use xlink:href="#c_5099edb83619131346ae654950954dea" x="464.759766"/>
<use xlink:href="#c_f05dd90d41f04bb96ef1ca503cc2044b" x="492.542969"/>
<use xlink:href="#c_d650c37394b681142a10dfc54356d478" x="553.724609"/>
<use xlink:href="#c_6a63bda47b2f3da1cec6aadd80692cfe" x="608.705078"/>
<use xlink:href="#c_0f8c41144cfbf448378cb6fd1cc8e549" x="636.488281"/>
<use xlink:href="#c_3fe22c4af425ac970aec982ae9662abe" x="675.697266"/>
</g>
</g>
<g id="line2d27">
<path style="fill: none; stroke: #008000; stroke-width: 1.000000; stroke-linejoin: round; stroke-linecap: square;  opacity: 1.000000"  d="M410.602500 39.307500L430.762500 39.307500"/>
</g>
<g id="line2d28">
</g>
<g id="text16">
<defs>
<path id="c_6023715d605f81e6eb43b7f9d77e7c51" d="M34.187500 -63.187500l-13.390625 36.281250l26.812500 0.000000zM28.609375 -72.906250l11.187500 0.000000l27.781250 72.906250l-10.250000 0.000000l-6.640625 -18.703125l-32.859375 0.000000l-6.640625 18.703125l-10.406250 0.000000z"/>
<path id="c_e3864de5dabf2f8dd9eee74726882ec1" d="M45.406250 -27.984375q0.000000 -9.765625 -4.031250 -15.125000q-4.015625 -5.375000 -11.296875 -5.375000q-7.218750 0.000000 -11.250000 5.375000q-4.031250 5.359375 -4.031250 15.125000q0.000000 9.718750 4.031250 15.093750q4.031250 5.375000 11.250000 5.375000q7.281250 0.000000 11.296875 -5.375000q4.031250 -5.375000 4.031250 -15.093750M54.390625 -6.781250q0.000000 13.953125 -6.203125 20.765625q-6.187500 6.812500 -18.984375 6.812500q-4.734375 0.000000 -8.937500 -0.703125q-4.203125 -0.703125 -8.156250 -2.171875l0.000000 -8.734375q3.953125 2.140625 7.812500 3.156250q3.859375 1.031250 7.859375 1.031250q8.843750 0.000000 13.234375 -4.609375q4.390625 -4.609375 4.390625 -13.937500l0.000000 -4.453125q-2.781250 4.843750 -7.125000 7.234375q-4.343750 2.390625 -10.406250 2.390625q-10.046875 0.000000 -16.203125 -7.656250q-6.156250 -7.671875 -6.156250 -20.328125q0.000000 -12.687500 6.156250 -20.343750q6.156250 -7.671875 16.203125 -7.671875q6.062500 0.000000 10.406250 2.390625q4.343750 2.390625 7.125000 7.218750l0.000000 -8.296875l8.984375 0.000000z"/>
<path id="c_3b515ad41f960e225ec85275856806ca" d="M8.500000 -21.578125l0.000000 -33.109375l8.984375 0.000000l0.000000 32.765625q0.000000 7.765625 3.015625 11.656250q3.031250 3.875000 9.093750 3.875000q7.265625 0.000000 11.484375 -4.640625q4.234375 -4.640625 4.234375 -12.656250l0.000000 -31.000000l8.984375 0.000000l0.000000 54.687500l-8.984375 0.000000l0.000000 -8.406250q-3.265625 4.984375 -7.593750 7.406250q-4.312500 2.421875 -10.031250 2.421875q-9.421875 0.000000 -14.312500 -5.859375q-4.875000 -5.859375 -4.875000 -17.140625M31.109375 -56.000000z"/>
</defs>
<g style="fill: #000000; opacity: 1.000000" transform="translate(446.602500,44.347500)scale(0.144000)">
<use xlink:href="#c_6023715d605f81e6eb43b7f9d77e7c51"/>
<use xlink:href="#c_fe791a90f5471e2ab20a5ed41a7fa451" x="68.408203"/>
<use xlink:href="#c_e3864de5dabf2f8dd9eee74726882ec1" x="131.787109"/>
<use xlink:href="#c_3b515ad41f960e225ec85275856806ca" x="195.263672"/>
<use xlink:href="#c_5099edb83619131346ae654950954dea" x="258.642578"/>
<use xlink:href="#c_01d93a582460e35a7945ca50d148ffeb" x="286.425781"/>
<use xlink:href="#c_6ec8d5749226675394676a5d2a3b468b" x="347.705078"/>
<use xlink:href="#c_d41d8cd98f00b204e9800998ecf8427e" x="388.818359"/>
<use xlink:href="#c_ae70b0af174184799fa4976b9c5da571" x="420.605469"/>
<use xlink:href="#c_0bce5afba2dc6b9024b26277c38ad8e8" x="481.263672"/>
<use xlink:href="#c_5099edb83619131346ae654950954dea" x="542.787109"/>
<use xlink:href="#c_f05dd90d41f04bb96ef1ca503cc2044b" x="570.570313"/>
<use xlink:href="#c_d650c37394b681142a10dfc54356d478" x="631.751953"/>
<use xlink:href="#c_6a63bda47b2f3da1cec6aadd80692cfe" x="686.732422"/>
<use xlink:href="#c_0f8c41144cfbf448378cb6fd1cc8e549" x="714.515625"/>
<use xlink:href="#c_3fe22c4af425ac970aec982ae9662abe" x="753.724609"/>
</g>
</g>
</g>
</g>
</svg>
