<?xml version="1.0" standalone="no"?>
<!DOCTYPE svg PUBLIC "-//W3C//DTD SVG 1.1//EN"
  "http://www.w3.org/Graphics/SVG/1.1/DTD/svg11.dtd">
<!-- Created with matplotlib (http://matplotlib.sourceforge.net/) -->
<svg width="576pt" height="432pt" viewBox="0 0 576 432"
   xmlns="http://www.w3.org/2000/svg"
   xmlns:xlink="http://www.w3.org/1999/xlink"
   version="1.1"
   id="svg1">
<g id="figure1">
<g id="patch1">
<path style="fill: #ffffff; stroke: #ffffff; stroke-width: 1.000000; stroke-linejoin: round; stroke-linecap: square;  opacity: 1.000000"  d="M0.000000 432.000000L576.000000 432.000000L576.000000 0.000000
L0.000000 0.000000L0.000000 432.000000"/>
</g>
<g id="axes1">
<g id="patch2">
<path style="fill: #ffffff; opacity: 1.000000"  d="M72.000000 388.800000L518.400000 388.800000L518.400000 43.200000
L72.000000 43.200000L72.000000 388.800000"/>
</g>
<g id="line2d1">
<defs>
  <clipPath id="p50431ccdcb28178602d99d9270004dde">
<rect x="72.000000" y="43.200000" width="446.400000" height="345.600000"/>
  </clipPath>
</defs><path style="fill: none; stroke: #0000ff; stroke-width: 1.000000; stroke-linejoin: round; stroke-linecap: square;  opacity: 1.000000" clip-path="url(#p50431ccdcb28178602d99d9270004dde)" d="M72.000000 216.000000L82.044000 216.000000L83.048400 191.063724
L84.052800 191.448225L84.834000 196.794018L85.615200 195.407336
L86.954400 199.361544L87.735600 198.196198L88.070400 194.266550
L88.628400 199.824137L88.963200 208.424965L89.409600 203.288225
L89.856000 198.126582L90.525600 199.259504L90.860400 205.084801
L91.530000 203.836014L94.543200 208.007406L94.989600 186.265708
L95.436000 173.797096L95.994000 157.056659L96.552000 154.700558
L96.663600 153.174129L96.775200 156.452322L96.998400 153.706372
L98.002800 169.588116L98.672400 176.239890L98.784000 174.717924
L98.895600 175.763800L101.127600 190.461344L104.587200 201.174954
L105.814800 204.379371L106.819200 204.010853L107.265600 207.303856
L107.377200 245.428998L107.823600 244.133903L107.935200 239.972247
L108.604800 108.604249L108.716400 107.181481L109.720800 43.637467
L109.832400 49.107106L110.613600 80.718789L110.725200 79.228285
L111.171600 62.224537L111.283200 65.513450L111.952800 70.750052
L112.287600 80.283715L113.068800 94.959598L113.515200 90.833248
L114.742800 118.374171L115.412400 127.752770L115.635600 126.243996
L115.970400 133.851675L117.086400 145.976280L117.979200 143.708175
L118.314000 159.157805L118.760400 162.256527L119.095200 160.012330
L119.430000 158.758516L119.764800 168.689572L119.988000 170.661444
L120.434400 168.498505L120.657600 171.811570L121.104000 172.890010
L121.215600 176.488121L122.220000 182.171694L123.447600 180.039964
L124.452000 193.637314L125.010000 188.864376L125.679600 192.241528
L126.126000 191.008625L126.684000 193.478112L127.465200 192.435093
L127.576800 195.156736L128.023200 196.586872L128.692800 195.577114
L129.027600 197.612419L129.808800 196.444915L130.255200 198.628463
L131.259600 199.953204L131.706000 201.245220L132.487200 200.010154
L133.491600 196.919529L133.714800 195.429377L134.049600 198.556084
L134.384400 206.308331L135.500400 201.634581L137.732400 206.422722
L139.071600 192.863568L139.964400 137.925053L140.745600 128.762103
L140.857200 132.137338L140.968800 129.597209L141.192000 127.657270
L141.303600 132.651522L141.415200 130.769974L141.750000 126.052342
L142.084800 131.646818L142.531200 176.472969L142.642800 173.633845
L143.312400 151.996549L143.870400 139.533287L144.205200 142.203425
L144.874800 157.971400L145.098000 156.956270L145.432800 151.433043
L146.102400 161.618950L146.325600 163.584265L146.772000 161.883350
L146.883600 163.362775L146.995200 161.880471L147.330000 164.685155
L147.888000 165.985038L148.111200 172.759615L149.004000 173.818452
L149.896800 171.522370L150.901200 172.988464L152.575200 179.878489
L154.026000 183.351540L155.700000 191.941490L156.481200 190.843265
L156.704400 188.144237L157.708800 187.429329L159.717600 187.149023
L161.726400 186.439429L162.619200 185.074269L162.730800 183.592428
L163.288800 185.912425L165.297600 185.820762L174.337200 185.050590
L176.346000 185.281527L180.363600 185.098383L196.434000 185.127424
L197.215200 183.407777L198.219600 183.407221L198.889200 186.536620
L199.447200 202.115276L199.670400 201.007345L200.340000 190.524329
L201.232800 198.267347L203.018400 203.136386L205.473600 207.022454
L206.031600 184.394230L207.036000 136.934631L207.482400 142.757524
L207.817200 154.680265L207.928800 153.213338L208.821600 145.944749
L209.826000 157.914049L210.049200 158.999271L210.272400 156.767251
L210.830400 161.509647L211.500000 160.198083L211.611600 165.344993
L212.281200 168.685959L212.504400 167.287702L212.616000 169.100535
L213.062400 170.474684L213.508800 169.229532L214.290000 178.038306
L214.959600 175.353504L215.740800 178.983902L216.075600 180.790782
L218.196000 185.165960L219.200400 184.530174L220.204800 189.919496
L220.762800 186.971338L222.325200 192.749223L223.329600 192.699677
L223.776000 190.047066L224.334000 191.055848L224.668800 193.672441
L225.115200 194.938288L225.784800 192.652356L226.119600 195.517356
L226.789200 194.359072L227.347200 186.635078L227.682000 187.684774
L228.240000 197.253013L228.686400 195.903388L229.467600 196.957426
L230.806800 200.624087L232.480800 204.578946L233.262000 205.888459
L233.820000 226.790907L234.266400 222.595840L236.052000 64.798806
L236.275200 63.738372L236.833200 123.065889L236.944800 135.852080
L237.168000 125.500643L237.837600 82.405394L238.507200 103.511560
L238.730400 101.167913L238.953600 102.074448L238.953600 102.074448
L239.511600 92.602101L239.623200 89.762704L239.846400 91.146092
L240.516000 111.837224L241.185600 100.049450L241.297200 98.391230
L241.743600 102.590491L242.301600 139.403100L242.413200 136.908182
L242.748000 123.551317L243.194400 106.077923L243.306000 110.167757
L243.417600 107.979919L244.422000 131.014627L244.533600 138.802507
L244.756800 135.454721L245.314800 116.695474L245.538000 113.537744
L245.984400 126.239420L246.096000 124.954711L246.654000 112.082060
L246.877200 114.557319L247.323600 155.948800L247.546800 182.104497
L247.770000 177.159257L248.328000 159.502850L249.220800 141.191320
L249.444000 142.691152L250.560000 164.044053L251.006400 162.456190
L251.899200 173.400266L252.234000 177.757596L252.903600 173.424518
L253.573200 179.665869L254.689200 190.901061L255.916800 193.938728
L256.921200 194.775239L257.032800 197.618604L259.264800 203.475473
L261.720000 207.280037L262.724400 206.879561L309.931200 206.879561
L310.377600 198.000824L311.382000 197.055024L311.716800 194.737302
L312.498000 193.153860L312.832800 190.728700L313.167600 193.800194
L313.502400 203.395465L313.948800 202.247693L314.506800 196.167162
L315.064800 199.828536L316.292400 203.353271L316.962000 204.648708
L317.966400 204.636148L318.524400 206.342687L319.528800 207.272641
L319.640400 180.859109L320.310000 177.122806L321.091200 149.358422
L321.202800 152.253648L321.872400 153.679352L322.653600 168.718913
L322.876800 167.684565L323.434800 172.629464L325.443600 186.864000
L325.778400 188.085477L326.782800 187.217285L327.117600 194.052527
L328.233600 198.092976L329.014800 200.099820L330.354000 202.293701
L330.688800 203.315485L331.693200 203.533163L331.916400 205.626419
L332.809200 207.189614L332.920800 214.962284L333.144000 211.095444
L333.590400 183.286717L334.483200 56.437396L334.818000 43.583956
L335.041200 45.536892L335.487600 65.902969L335.599200 73.357158
L335.710800 71.703688L336.380400 62.145431L336.715200 58.672439
L337.273200 76.391761L337.608000 77.530848L338.389200 97.163928
L338.724000 95.886772L340.621200 127.655851L341.737200 142.036651
L342.183600 140.927095L342.964800 157.690171L343.411200 156.486875
L343.522800 161.685609L345.420000 178.528453L345.754800 177.233234
L347.094000 187.861089L348.098400 187.836346L348.544800 194.793941
L349.772400 198.577143L351.000000 201.650244L351.669600 203.647333
L352.562400 204.849294L353.343600 206.808761L353.790000 171.171096
L354.794400 127.997292L355.017600 121.650270L355.352400 124.099304
L356.580000 144.171179L357.138000 148.140358L358.030800 160.184090
L358.812000 166.187613L358.923600 164.213568L359.816400 168.070972
L360.151200 177.181987L360.374400 184.777051L360.709200 182.932745
L361.044000 179.773150L361.267200 178.063002L361.713600 182.544068
L362.941200 190.460981L364.838400 197.454515L366.177600 200.978211
L367.516800 204.321991L368.856000 206.587529L368.967600 152.633519
L369.414000 151.314917L369.972000 133.347412L370.083600 134.599519
L371.199600 143.762183L371.869200 156.926834L373.766400 174.118511
L375.328800 185.478319L377.560800 196.452662L379.458000 202.340383
L381.020400 205.731609L381.132000 314.877746L381.578400 312.517749
L382.024800 280.808173L383.810400 75.933777L384.256800 77.107295
L384.480000 80.835522L384.926400 99.369212L385.149600 105.947641
L385.261200 104.206135L385.484400 102.268077L386.823600 127.087733
L386.935200 123.916176L387.158400 119.339257L387.604800 130.488968
L387.939600 135.135800L388.162800 144.882579L388.497600 141.456378
L388.720800 138.842208L389.390400 159.394997L389.725200 161.812533
L390.283200 153.259353L391.176000 180.629425L391.622400 179.437877
L392.068800 175.331107L392.180400 176.589687L392.292000 175.347544
L393.073200 178.487759L393.408000 187.518790L393.631200 188.852303
L394.189200 187.632390L394.858800 191.461486L396.756000 198.824594
L397.983600 201.033255L398.988000 202.947215L399.992400 203.568562
L400.104000 205.262681L401.108400 205.897827L401.554800 207.206783
L401.778000 185.381324L402.336000 184.279643L403.005600 192.240876
L403.786800 191.138009L404.233200 194.788615L405.572400 199.567760
L408.027600 205.084068L408.697200 218.584568L409.255200 213.045391
L409.813200 194.299885L410.371200 195.504410L410.817600 201.686072
L412.826400 202.064900L413.607600 203.887460L414.277200 202.574681
L415.170000 205.311363L416.174400 206.137967L416.732400 205.079648
L417.402000 206.387867L418.406400 205.280117L418.852800 201.433463
L419.634000 205.851605L420.415200 204.826310L420.861600 206.266019
L420.973200 187.377640L421.531200 183.697891L421.754400 177.642471
L421.977600 179.884727L422.312400 182.764823L422.424000 181.617092
L422.870400 184.836488L423.093600 186.872623L423.540000 185.869407
L426.776400 200.369561L428.227200 204.340342L428.562000 227.572057
L429.231600 225.506502L429.566400 215.695898L430.124400 202.262136
L430.347600 199.420118L431.128800 202.860495L431.798400 201.777893
L431.910000 203.237882L432.356400 204.355048L432.914400 223.760391
L433.360800 222.089056L434.253600 200.493503L434.476800 195.365985
L435.258000 197.485358L435.592800 202.111853L436.039200 197.598471
L436.820400 198.882382L437.378400 202.545958L437.936400 201.189003
L438.048000 202.532806L439.275600 205.268838L439.387200 212.248414
L439.833600 210.885751L440.614800 180.464960L441.061200 184.967154
L441.172800 188.650158L441.842400 185.932769L441.954000 189.701876
L444.744000 199.482442L445.748400 199.219919L445.971600 202.728055
L447.868800 206.030363L447.980400 248.264570L448.426800 245.956114
L448.984800 222.237736L450.100800 168.626953L450.547200 164.690854
L450.770400 165.232414L451.105200 163.656400L451.551600 159.135785
L451.998000 163.288542L452.667600 176.334691L453.448800 169.327195
L454.118400 179.943732L455.234400 187.078162L457.466400 196.471901
L460.144800 203.838486L461.149200 204.530509L461.372400 206.139702
L461.484000 197.091925L462.042000 191.525413L462.488400 175.411927
L462.711600 173.690953L463.046400 174.730119L464.497200 185.073308
L466.952400 196.160621L469.630800 204.032142L470.077200 216.000000
L475.099200 216.000000L475.099200 216.000000"/>
</g>
<g id="line2d2">
<path style="fill: none; stroke: #008000; stroke-width: 1.000000; stroke-linejoin: round; stroke-linecap: square;  opacity: 1.000000" clip-path="url(#p50431ccdcb28178602d99d9270004dde)" d="M72.000000 216.000000L82.044000 216.000000L83.048400 246.925311
L83.494800 245.715289L83.829600 242.125988L84.499200 213.475919
L84.945600 165.606155L85.057200 162.632066L85.615200 222.323701
L85.838400 246.842097L85.950000 228.237433L86.061600 225.987266
L86.508000 189.870202L86.842800 201.766409L86.954400 187.746924
L87.177600 191.059926L87.289200 195.620056L87.400800 43.200000
L88.405200 116.394192L88.963200 357.352168L89.074800 355.106141
L89.521200 252.071419L90.079200 131.190802L90.525600 193.405586
L90.860400 273.308859L91.083600 268.775315L91.753200 217.596352
L91.976400 218.848770L92.088000 217.828316L92.311200 223.889315
L92.534400 222.101803L92.869200 215.951196L93.315600 232.403529
L93.427200 230.448207L93.538800 233.190370L94.096800 217.743476
L94.320000 215.558594L94.543200 229.465165L94.654800 316.734496
L95.101200 312.417057L95.547600 296.737544L96.440400 262.914820
L96.552000 258.882197L97.110000 166.508623L97.668000 202.012590
L98.114400 218.111739L98.337600 260.340489L99.118800 197.458824
L99.230400 198.561895L100.904400 223.841840L101.574000 219.325030
L101.685600 218.052721L102.020400 222.230879L102.690000 217.810061
L102.801600 220.755304L103.024800 218.928595L103.248000 221.985199
L103.359600 225.955742L103.582800 225.879171L104.140800 214.803973
L104.364000 210.586513L104.810400 218.591361L104.922000 216.856348
L105.145200 215.750691L105.814800 225.302393L106.149600 224.111317
L106.819200 212.461072L107.265600 230.781063L107.377200 327.610236
L108.046800 323.295121L108.270000 317.546603L108.381600 299.050783
L108.493200 340.321494L108.716400 339.278990L108.939600 334.897058
L109.274400 316.067422L109.386000 388.800000L109.609200 352.737397
L110.390400 144.016510L110.725200 149.009981L110.836800 129.444122
L110.948400 139.985743L111.506400 261.202830L111.841200 245.982519
L112.399200 186.228599L112.734000 176.686512L112.845600 177.708939
L112.957200 178.899614L113.626800 241.386584L113.850000 227.247822
L114.519600 192.578043L114.631200 198.136014L115.189200 193.692308
L115.300800 196.015675L115.524000 198.569678L115.524000 198.569678
L115.858800 212.775797L115.970400 201.014454L116.082000 203.817731
L116.416800 206.775089L117.198000 191.756924L117.309600 194.199612
L117.979200 224.825091L118.314000 177.039365L118.425600 179.595659
L118.648800 182.007921L118.648800 182.007921L119.430000 237.358844
L119.876400 188.487373L119.988000 185.084074L120.546000 242.011399
L120.769200 227.243540L121.327200 200.653340L121.662000 207.891939
L121.885200 210.959656L122.220000 182.648541L122.778000 202.764844
L123.447600 224.939811L123.782400 228.381875L123.894000 225.657661
L124.452000 123.900583L125.121600 221.567113L125.233200 194.351170
L125.344800 196.671784L125.679600 182.722952L125.791200 188.354010
L126.126000 215.900749L126.572400 213.246245L126.684000 195.326820
L126.907200 197.824894L127.465200 221.002792L127.800000 182.285714
L128.023200 176.232561L128.469600 205.110163L128.916000 212.427251
L129.250800 178.033310L129.362400 182.671660L129.808800 232.482621
L130.032000 207.970860L130.478400 195.262844L130.701600 218.980442
L130.924800 236.678268L131.148000 233.929583L131.482800 179.740396
L131.594400 181.920802L131.706000 175.339871L131.817600 179.810458
L132.040800 191.421006L132.152400 179.039293L132.264000 189.486285
L132.598800 227.866926L132.710400 43.200000L133.714800 61.468502
L134.496000 332.429108L134.719200 298.873581L135.388800 224.230086
L135.612000 208.438205L135.723600 210.423103L135.946800 209.294237
L136.393200 210.356872L136.504800 217.305362L136.728000 216.110044
L136.951200 217.582369L137.062800 224.564338L137.509200 226.146567
L137.732400 226.402500L137.732400 226.402500L138.067200 227.843778
L138.402000 219.991367L138.513600 226.229874L138.625200 329.165647
L139.406400 333.426866L140.076000 268.830410L140.745600 243.122750
L141.080400 388.800000L141.750000 378.338854L142.531200 113.296598
L142.977600 127.419540L143.200800 138.430645L143.535600 169.248326
L143.982000 294.642020L144.093600 291.646087L144.540000 205.242448
L144.874800 160.362094L145.098000 164.155618L145.544400 249.427647
L146.102400 171.668023L146.325600 167.100095L146.437200 169.613670
L146.660400 172.435964L147.106800 247.497846L147.218400 249.799174
L147.664800 223.837047L147.776400 219.634267L148.111200 159.820811
L148.222800 161.462528L148.892400 167.447114L149.004000 163.106139
L149.115600 165.633951L150.343200 178.909225L150.789600 245.163532
L150.901200 178.467809L151.124400 242.161792L151.682400 169.289540
L151.905600 163.082516L152.017200 159.557736L152.352000 162.341849
L152.798400 202.684787L153.021600 217.757981L153.244800 215.985804
L153.468000 209.180947L153.691200 248.907488L153.802800 237.529734
L153.914400 239.239827L154.807200 183.166346L154.918800 185.729019
L155.142000 186.933981L155.142000 186.933981L155.253600 156.959509
L155.476800 162.231329L155.700000 150.163292L155.811600 151.551062
L156.258000 155.451976L157.374000 197.743996L157.485600 196.643153
L159.048000 202.327366L159.159600 199.218364L160.164000 202.530707
L160.387200 205.069814L160.833600 202.423263L161.280000 206.490358
L162.507600 217.353306L162.619200 43.200000L196.768800 43.200000
L197.215200 85.220592L198.219600 86.197653L198.554400 88.790596
L198.666000 94.599806L199.447200 338.829323L199.782000 281.904422
L200.340000 139.939277L201.456000 216.651325L201.790800 217.887622
L202.014000 220.807521L203.018400 224.161907L203.799600 222.265322
L204.134400 217.633556L204.246000 218.850015L205.362000 213.934141
L205.473600 217.512128L205.696800 310.290233L206.031600 308.840792
L206.254800 296.133161L206.366400 340.225070L206.589600 333.426180
L206.812800 313.640040L206.924400 388.800000L207.036000 375.412930
L207.705600 149.684694L207.928800 150.182965L207.928800 150.182965
L208.040400 151.426197L208.152000 144.302422L209.044800 244.549942
L209.602800 186.153987L209.714400 190.299060L209.826000 176.478848
L210.049200 177.113833L210.495600 227.681297L210.607200 209.878256
L210.830400 193.887130L211.276800 204.193101L211.500000 217.124270
L211.611600 191.247406L211.834800 193.126671L212.058000 191.804513
L212.169600 193.901551L212.281200 185.028999L212.392800 190.519862
L212.504400 208.147809L212.727600 203.972685L212.839200 202.418495
L213.620400 228.943605L214.290000 155.289950L215.182800 236.521844
L215.294400 227.669175L216.075600 187.498427L216.187200 188.692547
L216.410400 189.558384L216.410400 189.558384L216.633600 201.961291
L216.745200 187.768689L216.968400 190.044664L217.526400 204.225113
L217.638000 201.858254L218.084400 216.490828L218.419200 189.890134
L218.530800 195.349728L218.642400 194.099945L219.200400 230.772530
L220.204800 174.123933L220.316400 177.488182L220.428000 176.276819
L220.874400 246.853618L220.986000 229.771331L221.320800 227.869096
L221.655600 201.468737L222.102000 205.752993L222.660000 169.053131
L222.771600 170.314834L222.994800 180.990371L223.106400 168.838793
L223.664400 212.815991L223.999200 244.734565L224.780400 187.469612
L225.115200 177.194620L225.896400 227.400649L226.008000 228.859961
L226.454400 43.200000L227.458800 53.985696L228.240000 269.615057
L228.351600 268.594398L229.021200 201.531266L229.132800 203.305671
L229.467600 204.309769L229.802400 211.227902L229.914000 209.606763
L230.360400 213.443400L231.141600 215.443795L231.699600 221.289016
L232.369200 218.753549L232.815600 214.401165L233.708400 211.300906
L233.820000 322.639328L234.378000 325.345889L235.047600 336.484328
L235.270800 338.220158L235.605600 326.072955L235.717200 388.800000
L236.052000 55.230037L236.163600 388.800000L236.386800 284.849297
L236.944800 122.700416L237.279600 138.971547L237.614400 228.110837
L237.949200 268.024336L238.507200 161.605195L238.730400 165.729174
L239.288400 176.765010L239.734800 303.255585L240.069600 247.097793
L240.516000 164.550972L240.962400 183.221869L241.297200 304.608237
L241.408800 301.275364L241.743600 269.627365L242.190000 138.630493
L242.301600 137.208842L242.636400 151.216281L242.971200 182.147291
L243.417600 303.867183L243.529200 310.195316L243.640800 304.484483
L244.533600 147.237091L244.756800 152.886839L245.203200 187.187824
L245.426400 299.436032L245.538000 43.200000L245.984400 182.885294
L246.207600 43.200000L246.877200 60.634526L247.546800 311.354988
L247.881600 302.655262L248.886000 261.863385L249.109200 247.093293
L249.555600 129.262052L250.002000 161.127730L250.448400 264.744775
L251.006400 247.036033L251.341200 157.246275L251.564400 160.393383
L251.676000 168.988647L252.122400 266.315342L252.680400 251.476588
L252.792000 247.260645L253.238400 150.246367L253.350000 145.898594
L253.461600 148.897704L253.684800 161.030521L254.689200 234.963832
L255.470400 222.816080L256.140000 208.246314L256.251600 210.115630
L256.698000 211.731094L256.921200 213.848118L257.256000 206.799736
L258.372000 215.231840L258.595200 221.318718L258.930000 218.259156
L259.711200 215.613208L260.157600 214.052058L261.385200 217.503443
L261.831600 388.800000L310.042800 388.800000L310.377600 141.593084
L310.600800 142.774035L311.270400 147.489441L311.828400 215.425091
L311.940000 43.200000L312.944400 75.713505L313.614000 323.499409
L313.725600 317.374966L313.948800 287.419099L314.506800 162.756176
L315.064800 203.955415L315.622800 228.592952L315.846000 227.085528
L316.292400 232.941597L316.850400 227.544210L316.962000 234.994957
L317.073600 233.016105L317.408400 222.713646L317.520000 226.782438
L317.743200 225.722212L318.412800 208.494035L318.747600 230.721725
L318.970800 232.252474L319.417200 210.445401L319.528800 216.412009
L319.640400 310.431402L320.310000 306.704351L320.756400 279.604848
L321.537600 196.790436L321.872400 204.144570L322.318800 220.542155
L322.430400 257.784341L323.211600 209.010869L323.323200 207.750075
L324.216000 215.838562L324.662400 228.836272L324.774000 226.161222
L324.885600 227.258677L325.220400 225.707199L325.443600 231.051514
L325.555200 229.237182L325.890000 224.493334L326.224800 213.537413
L326.559600 212.034857L326.671200 213.995375L327.117600 226.959823
L327.452400 225.297191L327.564000 222.955922L327.787200 227.154278
L328.122000 225.805446L328.233600 229.129861L328.456800 226.814159
L328.903200 219.993700L329.014800 227.392009L329.238000 223.822907
L329.796000 214.218297L329.907600 216.686220L330.130800 214.465220
L330.354000 216.225647L330.577200 217.356005L330.577200 217.356005
L330.688800 219.693845L330.800400 217.816119L331.023600 219.539208
L331.804800 212.768424L332.139600 227.326776L332.362800 229.820767
L332.474400 228.019235L332.809200 230.798163L332.920800 324.436368
L333.255600 323.257007L333.590400 318.699719L333.813600 304.666827
L333.925200 340.471232L334.148400 337.885930L334.371600 319.057574
L334.483200 388.800000L334.706400 375.272148L335.264400 183.044749
L335.487600 116.928813L335.710800 120.156261L336.380400 199.012302
L336.826800 240.946415L337.050000 235.281917L337.496400 207.460423
L337.831200 201.094799L338.166000 190.495876L338.277600 191.698861
L339.393600 215.143992L339.728400 186.915476L339.840000 190.266235
L340.174800 197.105106L340.509600 210.432044L340.621200 208.390211
L340.956000 214.287419L341.067600 210.136770L341.179200 199.756809
L341.514000 201.173758L341.625600 196.461331L341.737200 199.357623
L342.406800 220.109046L342.853200 192.313127L343.076400 193.219068
L343.076400 193.219068L343.857600 221.853690L344.080800 210.107479
L344.415600 211.183542L344.527200 209.928027L345.308400 178.301439
L345.420000 175.785464L345.531600 177.354996L346.089600 221.390425
L346.201200 206.028196L346.312800 207.955707L346.870800 193.352899
L347.540400 215.178785L347.875200 239.267821L348.210000 232.881504
L348.656400 184.295596L348.991200 186.760255L349.102800 189.210901
L349.214400 179.037055L349.326000 181.338375L349.660800 202.965741
L349.772400 199.883582L350.442000 220.495852L351.000000 198.314350
L351.111600 200.669338L351.558000 211.662526L351.669600 190.339290
L351.892800 190.805240L352.339200 231.266453L352.897200 196.338716
L353.232000 195.029948L353.343600 184.532164L353.455200 107.837528
L353.901600 113.632779L354.682800 159.590060L354.794400 165.588531
L355.240800 262.665167L355.352400 253.018543L356.133600 192.807843
L356.245200 194.045202L357.249600 213.374059L358.030800 198.424222
L358.477200 208.667448L358.588800 202.485530L358.700400 204.513905
L359.593200 295.641965L359.816400 287.166434L360.486000 99.967154
L361.490400 237.306760L361.713600 233.256885L362.606400 208.696523
L363.164400 198.401609L363.610800 200.552440L363.834000 207.306294
L363.945600 197.544576L364.168800 197.590503L364.392000 197.231020
L364.503600 198.604798L364.615200 197.533683L365.284800 229.834278
L365.508000 224.813002L366.177600 212.716223L367.293600 199.691046
L367.628400 205.825754L368.074800 211.182046L368.186400 213.134604
L368.298000 209.134074L368.521200 213.030060L368.744400 216.766385
L368.856000 206.774471L368.967600 123.937194L369.414000 127.138625
L369.972000 207.343415L370.418400 289.256403L370.530000 285.474867
L370.641600 283.414412L371.422800 200.419343L371.534400 203.696835
L371.980800 195.847126L372.092400 197.363383L372.538800 202.565415
L373.431600 225.690460L373.543200 224.683082L373.878000 222.277494
L374.324400 216.596079L374.547600 219.247741L374.659200 217.343980
L374.882400 212.688174L375.328800 210.245440L375.440400 206.418724
L375.663600 209.422477L375.886800 213.971072L376.221600 211.949316
L376.444800 212.179330L377.002800 219.805818L377.449200 217.820913
L378.118800 211.389267L379.681200 214.435610L379.904400 213.309271
L380.574000 217.596568L380.797200 221.168343L381.132000 99.479610
L381.578400 100.562002L382.024800 108.159755L382.806000 111.136503
L383.364000 139.594621L383.587200 164.048544L384.033600 290.089142
L384.480000 251.582836L385.038000 168.212487L385.261200 172.599619
L385.707600 259.559111L386.154000 233.424934L386.488800 166.910119
L386.823600 172.040610L387.158400 270.132313L387.270000 266.405216
L387.493200 263.760764L388.051200 168.032557L388.386000 173.398325
L388.832400 263.999703L389.055600 252.955347L389.502000 165.369973
L389.836800 167.789918L389.948400 175.595227L390.394800 327.268351
L390.506400 325.237207L390.618000 312.971868L391.176000 140.453081
L391.510800 145.817102L392.068800 180.015682L392.515200 284.479638
L392.626800 281.095262L392.850000 261.063048L393.631200 173.870871
L394.300800 213.197213L394.412400 201.250120L394.524000 205.409479
L394.970400 209.427943L395.193600 207.996234L395.528400 223.838167
L395.751600 202.110970L396.086400 203.977471L396.532800 208.821608
L396.756000 186.348006L396.979200 195.595088L397.202400 198.757425
L397.202400 198.757425L397.314000 201.718598L397.425600 214.069807
L397.648800 208.926926L397.983600 205.718174L398.430000 223.992885
L398.541600 215.367716L398.876400 217.312457L399.211200 206.428890
L399.434400 204.173203L399.434400 204.173203L399.657600 205.958587
L399.992400 213.955633L400.215600 191.109817L400.438800 192.548595
L400.662000 189.135252L400.662000 189.135252L400.885200 198.160289
L401.331600 215.490618L401.554800 192.565813L401.778000 104.607741
L402.001200 110.055548L402.447600 165.533269L402.894000 261.608167
L403.117200 256.779043L403.675200 226.122278L403.786800 206.780781
L404.010000 215.477470L404.121600 213.788309L404.456400 220.287863
L404.568000 219.011532L405.126000 228.308090L405.349200 225.197664
L405.460800 228.142770L405.572400 229.807266L406.018800 226.414231
L406.242000 225.720700L406.353600 228.624390L406.911600 220.204554
L407.134800 218.460103L407.246400 214.222190L407.358000 228.303598
L407.581200 226.017033L408.027600 229.835678L408.474000 221.704658
L408.585600 228.230319L408.697200 388.800000L409.366800 361.758798
L410.036400 123.918327L410.148000 129.892345L410.817600 253.821038
L410.929200 252.696430L411.152400 256.381202L411.264000 253.509807
L412.268400 228.089848L412.380000 235.247081L412.603200 234.361956
L413.049600 220.959968L413.384400 218.953876L413.830800 248.246187
L413.942400 244.716110L414.500400 182.570693L414.612000 183.678589
L415.058400 228.414600L415.170000 238.193485L415.504800 235.088760
L415.616400 244.382212L415.839600 237.793438L416.062800 229.625278
L416.174400 242.464294L416.286000 235.727080L416.955600 204.569271
L417.067200 206.342581L417.290400 210.233560L417.625200 233.292110
L417.736800 230.169641L417.848400 388.800000L418.741200 43.200000
L418.852800 388.800000L419.076000 285.539788L419.522400 147.595065
L419.634000 152.748003L419.745600 154.274528L420.415200 223.117817
L420.861600 204.261841L420.973200 43.200000L421.531200 62.810678
L422.089200 367.535237L422.312400 358.010031L422.982000 103.955466
L423.093600 111.934765L423.428400 156.239373L424.098000 266.443812
L424.656000 235.395516L425.437200 191.210077L425.660400 195.930415
L426.106800 213.325516L426.553200 215.085071L427.222800 222.067867
L428.004000 221.050350L428.450400 226.369998L428.562000 43.200000
L429.566400 43.200000L430.124400 47.132705L430.459200 116.623292
L431.017200 263.661395L431.128800 260.985281L431.463600 236.135019
L431.798400 205.142725L431.910000 221.535126L432.356400 227.753977
L432.468000 225.640543L432.691200 219.660429L432.802800 225.435347
L432.914400 388.800000L433.807200 365.845300L434.030400 327.404671
L434.253600 388.800000L434.253600 388.800000L434.811600 377.619294
L435.592800 66.048001L435.704400 69.450126L435.927600 128.829540
L436.485600 364.873329L436.708800 329.128324L437.378400 125.732572
L437.713200 158.317459L438.159600 254.393934L438.271200 250.982558
L439.275600 212.967673L439.387200 43.200000L440.168400 45.554678
L440.726400 196.116846L441.172800 281.116423L441.284400 275.536963
L441.842400 233.751659L442.065600 243.325004L442.288800 242.535840
L442.288800 242.535840L443.293200 215.516186L443.404800 220.634705
L443.516400 218.118449L443.851200 212.231541L444.520800 225.241804
L444.855600 224.151648L445.413600 218.843334L445.860000 214.528748
L446.194800 237.698539L446.306400 234.208938L446.864400 222.248968
L447.310800 236.920067L447.645600 234.331711L447.868800 236.238108
L447.868800 236.238108L447.980400 324.987156L448.538400 322.170767
L448.761600 320.694644L449.096400 324.895349L449.431200 332.243310
L449.989200 273.019378L450.547200 252.602128L450.770400 331.639611
L450.993600 326.582918L451.105200 321.771474L451.216800 388.800000
L451.663200 363.308957L452.444400 141.352145L453.002400 169.458687
L453.560400 265.868808L453.783600 249.198098L454.453200 168.689689
L454.788000 180.167884L455.122800 212.570570L455.234400 210.495409
L455.904000 214.633415L456.238800 206.540283L456.350400 208.017841
L456.796800 204.376458L457.243200 212.059792L457.466400 203.777548
L457.689600 204.403634L458.136000 226.241008L458.917200 204.397370
L459.140400 204.217962L459.140400 204.217962L459.363600 201.878710
L459.810000 207.314901L460.368000 200.713718L461.260800 218.901388
L461.372400 201.340788L461.484000 43.200000L462.265200 54.441335
L462.934800 218.477800L463.827600 231.045295L464.832000 229.299051
L465.166800 221.409618L465.390000 224.745733L465.501600 225.920742
L466.059600 224.414391L466.394400 222.331921L466.506000 224.293541
L467.064000 223.106559L467.510400 213.651605L467.622000 219.177130
L468.180000 220.763911L468.626400 219.655854L468.738000 218.440330
L469.630800 226.776188L470.077200 216.000000L475.099200 216.000000
L475.099200 216.000000"/>
</g>
<g id="matplotlib.axis1">
<g id="xtick1">
<g id="line2d3">
<defs><path id="m30e32995789d870ad79a2e54c91cf9c6" d="M0.000000 0.000000L0.000000 -4.000000"/></defs>
<g ><use style="fill: none; stroke: #000000; stroke-width: 0.500000; stroke-linejoin: round; stroke-linecap: butt;  opacity: 1.000000" xlink:href="#m30e32995789d870ad79a2e54c91cf9c6" x="72.000000" y="388.800000"/>
</g></g>
<g id="line2d4">
<defs><path id="m9281cae24120827b11d5ea8a7ad3e96b" d="M0.000000 0.000000L0.000000 4.000000"/></defs>
<g ><use style="fill: none; stroke: #000000; stroke-width: 0.500000; stroke-linejoin: round; stroke-linecap: butt;  opacity: 1.000000" xlink:href="#m9281cae24120827b11d5ea8a7ad3e96b" x="72.000000" y="43.200000"/>
</g></g>
<g id="text1">
<defs>
<path id="c_7a2040fe3b94fcd41d0a72c84e93b115" d="M31.781250 -66.406250q-7.609375 0.000000 -11.453125 7.500000q-3.828125 7.484375 -3.828125 22.531250q0.000000 14.984375 3.828125 22.484375q3.843750 7.500000 11.453125 7.500000q7.671875 0.000000 11.500000 -7.500000q3.843750 -7.500000 3.843750 -22.484375q0.000000 -15.046875 -3.843750 -22.531250q-3.828125 -7.500000 -11.500000 -7.500000M31.781250 -74.218750q12.265625 0.000000 18.734375 9.703125q6.468750 9.687500 6.468750 28.140625q0.000000 18.406250 -6.468750 28.109375q-6.468750 9.687500 -18.734375 9.687500q-12.250000 0.000000 -18.718750 -9.687500q-6.468750 -9.703125 -6.468750 -28.109375q0.000000 -18.453125 6.468750 -28.140625q6.468750 -9.703125 18.718750 -9.703125"/>
</defs>
<g style="fill: #000000; opacity: 1.000000" transform="translate(68.976562,401.706250)scale(0.120000)">
<use xlink:href="#c_7a2040fe3b94fcd41d0a72c84e93b115"/>
</g>
</g>
</g>
<g id="xtick2">
<g id="line2d5">
<g ><use style="fill: none; stroke: #000000; stroke-width: 0.500000; stroke-linejoin: round; stroke-linecap: butt;  opacity: 1.000000" xlink:href="#m30e32995789d870ad79a2e54c91cf9c6" x="127.800000" y="388.800000"/>
</g></g>
<g id="line2d6">
<g ><use style="fill: none; stroke: #000000; stroke-width: 0.500000; stroke-linejoin: round; stroke-linecap: butt;  opacity: 1.000000" xlink:href="#m9281cae24120827b11d5ea8a7ad3e96b" x="127.800000" y="43.200000"/>
</g></g>
<g id="text2">
<defs>
<path id="c_1260a2df50f305f3db244e29828f968e" d="M10.796875 -72.906250l38.718750 0.000000l0.000000 8.312500l-29.687500 0.000000l0.000000 17.859375q2.140625 -0.734375 4.281250 -1.093750q2.156250 -0.359375 4.312500 -0.359375q12.203125 0.000000 19.328125 6.687500q7.140625 6.687500 7.140625 18.109375q0.000000 11.765625 -7.328125 18.296875q-7.328125 6.515625 -20.656250 6.515625q-4.593750 0.000000 -9.359375 -0.781250q-4.750000 -0.781250 -9.828125 -2.343750l0.000000 -9.921875q4.390625 2.390625 9.078125 3.562500q4.687500 1.171875 9.906250 1.171875q8.453125 0.000000 13.375000 -4.437500q4.937500 -4.437500 4.937500 -12.062500q0.000000 -7.609375 -4.937500 -12.046875q-4.921875 -4.453125 -13.375000 -4.453125q-3.953125 0.000000 -7.890625 0.875000q-3.921875 0.875000 -8.015625 2.734375z"/>
</defs>
<g style="fill: #000000; opacity: 1.000000" transform="translate(117.198437,401.706250)scale(0.120000)">
<use xlink:href="#c_1260a2df50f305f3db244e29828f968e"/>
<use xlink:href="#c_7a2040fe3b94fcd41d0a72c84e93b115" x="63.623047"/>
<use xlink:href="#c_7a2040fe3b94fcd41d0a72c84e93b115" x="127.246094"/>
</g>
</g>
</g>
<g id="xtick3">
<g id="line2d7">
<g ><use style="fill: none; stroke: #000000; stroke-width: 0.500000; stroke-linejoin: round; stroke-linecap: butt;  opacity: 1.000000" xlink:href="#m30e32995789d870ad79a2e54c91cf9c6" x="183.600000" y="388.800000"/>
</g></g>
<g id="line2d8">
<g ><use style="fill: none; stroke: #000000; stroke-width: 0.500000; stroke-linejoin: round; stroke-linecap: butt;  opacity: 1.000000" xlink:href="#m9281cae24120827b11d5ea8a7ad3e96b" x="183.600000" y="43.200000"/>
</g></g>
<g id="text3">
<defs>
<path id="c_42baa63129a918535c52adb20d687ea7" d="M12.406250 -8.296875l16.109375 0.000000l0.000000 -55.625000l-17.531250 3.515625l0.000000 -8.984375l17.437500 -3.515625l9.859375 0.000000l0.000000 64.609375l16.109375 0.000000l0.000000 8.296875l-41.984375 0.000000z"/>
</defs>
<g style="fill: #000000; opacity: 1.000000" transform="translate(169.373437,401.706250)scale(0.120000)">
<use xlink:href="#c_42baa63129a918535c52adb20d687ea7"/>
<use xlink:href="#c_7a2040fe3b94fcd41d0a72c84e93b115" x="63.623047"/>
<use xlink:href="#c_7a2040fe3b94fcd41d0a72c84e93b115" x="127.246094"/>
<use xlink:href="#c_7a2040fe3b94fcd41d0a72c84e93b115" x="190.869141"/>
</g>
</g>
</g>
<g id="xtick4">
<g id="line2d9">
<g ><use style="fill: none; stroke: #000000; stroke-width: 0.500000; stroke-linejoin: round; stroke-linecap: butt;  opacity: 1.000000" xlink:href="#m30e32995789d870ad79a2e54c91cf9c6" x="239.400000" y="388.800000"/>
</g></g>
<g id="line2d10">
<g ><use style="fill: none; stroke: #000000; stroke-width: 0.500000; stroke-linejoin: round; stroke-linecap: butt;  opacity: 1.000000" xlink:href="#m9281cae24120827b11d5ea8a7ad3e96b" x="239.400000" y="43.200000"/>
</g></g>
<g id="text4">
<g style="fill: #000000; opacity: 1.000000" transform="translate(225.173437,401.706250)scale(0.120000)">
<use xlink:href="#c_42baa63129a918535c52adb20d687ea7"/>
<use xlink:href="#c_1260a2df50f305f3db244e29828f968e" x="63.623047"/>
<use xlink:href="#c_7a2040fe3b94fcd41d0a72c84e93b115" x="127.246094"/>
<use xlink:href="#c_7a2040fe3b94fcd41d0a72c84e93b115" x="190.869141"/>
</g>
</g>
</g>
<g id="xtick5">
<g id="line2d11">
<g ><use style="fill: none; stroke: #000000; stroke-width: 0.500000; stroke-linejoin: round; stroke-linecap: butt;  opacity: 1.000000" xlink:href="#m30e32995789d870ad79a2e54c91cf9c6" x="295.200000" y="388.800000"/>
</g></g>
<g id="line2d12">
<g ><use style="fill: none; stroke: #000000; stroke-width: 0.500000; stroke-linejoin: round; stroke-linecap: butt;  opacity: 1.000000" xlink:href="#m9281cae24120827b11d5ea8a7ad3e96b" x="295.200000" y="43.200000"/>
</g></g>
<g id="text5">
<defs>
<path id="c_ed3f3ed3ebfbd18bcb9c012009a68ad1" d="M19.187500 -8.296875l34.421875 0.000000l0.000000 8.296875l-46.281250 0.000000l0.000000 -8.296875q5.609375 -5.812500 15.296875 -15.593750q9.703125 -9.796875 12.187500 -12.640625q4.734375 -5.312500 6.609375 -9.000000q1.890625 -3.687500 1.890625 -7.250000q0.000000 -5.812500 -4.078125 -9.468750q-4.078125 -3.671875 -10.625000 -3.671875q-4.640625 0.000000 -9.796875 1.609375q-5.140625 1.609375 -11.000000 4.890625l0.000000 -9.968750q5.953125 -2.390625 11.125000 -3.609375q5.187500 -1.218750 9.484375 -1.218750q11.328125 0.000000 18.062500 5.671875q6.734375 5.656250 6.734375 15.125000q0.000000 4.500000 -1.687500 8.531250q-1.671875 4.015625 -6.125000 9.484375q-1.218750 1.421875 -7.765625 8.187500q-6.531250 6.765625 -18.453125 18.921875"/>
</defs>
<g style="fill: #000000; opacity: 1.000000" transform="translate(280.754687,401.706250)scale(0.120000)">
<use xlink:href="#c_ed3f3ed3ebfbd18bcb9c012009a68ad1"/>
<use xlink:href="#c_7a2040fe3b94fcd41d0a72c84e93b115" x="63.623047"/>
<use xlink:href="#c_7a2040fe3b94fcd41d0a72c84e93b115" x="127.246094"/>
<use xlink:href="#c_7a2040fe3b94fcd41d0a72c84e93b115" x="190.869141"/>
</g>
</g>
</g>
<g id="xtick6">
<g id="line2d13">
<g ><use style="fill: none; stroke: #000000; stroke-width: 0.500000; stroke-linejoin: round; stroke-linecap: butt;  opacity: 1.000000" xlink:href="#m30e32995789d870ad79a2e54c91cf9c6" x="351.000000" y="388.800000"/>
</g></g>
<g id="line2d14">
<g ><use style="fill: none; stroke: #000000; stroke-width: 0.500000; stroke-linejoin: round; stroke-linecap: butt;  opacity: 1.000000" xlink:href="#m9281cae24120827b11d5ea8a7ad3e96b" x="351.000000" y="43.200000"/>
</g></g>
<g id="text6">
<g style="fill: #000000; opacity: 1.000000" transform="translate(336.554688,401.706250)scale(0.120000)">
<use xlink:href="#c_ed3f3ed3ebfbd18bcb9c012009a68ad1"/>
<use xlink:href="#c_1260a2df50f305f3db244e29828f968e" x="63.623047"/>
<use xlink:href="#c_7a2040fe3b94fcd41d0a72c84e93b115" x="127.246094"/>
<use xlink:href="#c_7a2040fe3b94fcd41d0a72c84e93b115" x="190.869141"/>
</g>
</g>
</g>
<g id="xtick7">
<g id="line2d15">
<g ><use style="fill: none; stroke: #000000; stroke-width: 0.500000; stroke-linejoin: round; stroke-linecap: butt;  opacity: 1.000000" xlink:href="#m30e32995789d870ad79a2e54c91cf9c6" x="406.800000" y="388.800000"/>
</g></g>
<g id="line2d16">
<g ><use style="fill: none; stroke: #000000; stroke-width: 0.500000; stroke-linejoin: round; stroke-linecap: butt;  opacity: 1.000000" xlink:href="#m9281cae24120827b11d5ea8a7ad3e96b" x="406.800000" y="43.200000"/>
</g></g>
<g id="text7">
<defs>
<path id="c_3dcfa38a02242cb63ec6726c6e70be7a" d="M40.578125 -39.312500q7.078125 1.515625 11.046875 6.312500q3.984375 4.781250 3.984375 11.812500q0.000000 10.781250 -7.421875 16.703125q-7.421875 5.906250 -21.093750 5.906250q-4.578125 0.000000 -9.437500 -0.906250q-4.859375 -0.906250 -10.031250 -2.718750l0.000000 -9.515625q4.093750 2.390625 8.968750 3.609375q4.890625 1.218750 10.218750 1.218750q9.265625 0.000000 14.125000 -3.656250q4.859375 -3.656250 4.859375 -10.640625q0.000000 -6.453125 -4.515625 -10.078125q-4.515625 -3.640625 -12.562500 -3.640625l-8.500000 0.000000l0.000000 -8.109375l8.890625 0.000000q7.265625 0.000000 11.125000 -2.906250q3.859375 -2.906250 3.859375 -8.375000q0.000000 -5.609375 -3.984375 -8.609375q-3.968750 -3.015625 -11.390625 -3.015625q-4.062500 0.000000 -8.703125 0.890625q-4.640625 0.875000 -10.203125 2.718750l0.000000 -8.781250q5.625000 -1.562500 10.531250 -2.343750q4.906250 -0.781250 9.250000 -0.781250q11.234375 0.000000 17.765625 5.109375q6.546875 5.093750 6.546875 13.781250q0.000000 6.062500 -3.468750 10.234375q-3.468750 4.171875 -9.859375 5.781250"/>
</defs>
<g style="fill: #000000; opacity: 1.000000" transform="translate(392.378125,401.706250)scale(0.120000)">
<use xlink:href="#c_3dcfa38a02242cb63ec6726c6e70be7a"/>
<use xlink:href="#c_7a2040fe3b94fcd41d0a72c84e93b115" x="63.623047"/>
<use xlink:href="#c_7a2040fe3b94fcd41d0a72c84e93b115" x="127.246094"/>
<use xlink:href="#c_7a2040fe3b94fcd41d0a72c84e93b115" x="190.869141"/>
</g>
</g>
</g>
<g id="xtick8">
<g id="line2d17">
<g ><use style="fill: none; stroke: #000000; stroke-width: 0.500000; stroke-linejoin: round; stroke-linecap: butt;  opacity: 1.000000" xlink:href="#m30e32995789d870ad79a2e54c91cf9c6" x="462.600000" y="388.800000"/>
</g></g>
<g id="line2d18">
<g ><use style="fill: none; stroke: #000000; stroke-width: 0.500000; stroke-linejoin: round; stroke-linecap: butt;  opacity: 1.000000" xlink:href="#m9281cae24120827b11d5ea8a7ad3e96b" x="462.600000" y="43.200000"/>
</g></g>
<g id="text8">
<g style="fill: #000000; opacity: 1.000000" transform="translate(448.178125,401.706250)scale(0.120000)">
<use xlink:href="#c_3dcfa38a02242cb63ec6726c6e70be7a"/>
<use xlink:href="#c_1260a2df50f305f3db244e29828f968e" x="63.623047"/>
<use xlink:href="#c_7a2040fe3b94fcd41d0a72c84e93b115" x="127.246094"/>
<use xlink:href="#c_7a2040fe3b94fcd41d0a72c84e93b115" x="190.869141"/>
</g>
</g>
</g>
<g id="xtick9">
<g id="line2d19">
<g ><use style="fill: none; stroke: #000000; stroke-width: 0.500000; stroke-linejoin: round; stroke-linecap: butt;  opacity: 1.000000" xlink:href="#m30e32995789d870ad79a2e54c91cf9c6" x="518.400000" y="388.800000"/>
</g></g>
<g id="line2d20">
<g ><use style="fill: none; stroke: #000000; stroke-width: 0.500000; stroke-linejoin: round; stroke-linecap: butt;  opacity: 1.000000" xlink:href="#m9281cae24120827b11d5ea8a7ad3e96b" x="518.400000" y="43.200000"/>
</g></g>
<g id="text9">
<defs>
<path id="c_a0416418d96557a09b8c1332d34883ba" d="M37.796875 -64.312500l-24.906250 38.921875l24.906250 0.000000zM35.203125 -72.906250l12.406250 0.000000l0.000000 47.515625l10.406250 0.000000l0.000000 8.203125l-10.406250 0.000000l0.000000 17.187500l-9.812500 0.000000l0.000000 -17.187500l-32.906250 0.000000l0.000000 -9.515625z"/>
</defs>
<g style="fill: #000000; opacity: 1.000000" transform="translate(503.814062,401.706250)scale(0.120000)">
<use xlink:href="#c_a0416418d96557a09b8c1332d34883ba"/>
<use xlink:href="#c_7a2040fe3b94fcd41d0a72c84e93b115" x="63.623047"/>
<use xlink:href="#c_7a2040fe3b94fcd41d0a72c84e93b115" x="127.246094"/>
<use xlink:href="#c_7a2040fe3b94fcd41d0a72c84e93b115" x="190.869141"/>
</g>
</g>
</g>
<g id="text10">
<defs>
<path id="c_9e4b30cbdf32072672ded72e9074c4c9" d="M-0.296875 -72.906250l61.671875 0.000000l0.000000 8.312500l-25.875000 0.000000l0.000000 64.593750l-9.906250 0.000000l0.000000 -64.593750l-25.890625 0.000000z"/>
<path id="c_6a63bda47b2f3da1cec6aadd80692cfe" d="M9.421875 -54.687500l8.984375 0.000000l0.000000 54.687500l-8.984375 0.000000zM9.421875 -75.984375l8.984375 0.000000l0.000000 11.390625l-8.984375 0.000000z"/>
<path id="c_4653c6dfde66c7610eae0911760d3490" d="M52.000000 -44.187500q3.375000 -6.062500 8.062500 -8.937500q4.687500 -2.875000 11.031250 -2.875000q8.546875 0.000000 13.187500 5.984375q4.640625 5.968750 4.640625 17.000000l0.000000 33.015625l-9.031250 0.000000l0.000000 -32.718750q0.000000 -7.859375 -2.796875 -11.656250q-2.781250 -3.812500 -8.484375 -3.812500q-6.984375 0.000000 -11.046875 4.640625q-4.046875 4.625000 -4.046875 12.640625l0.000000 30.906250l-9.031250 0.000000l0.000000 -32.718750q0.000000 -7.906250 -2.781250 -11.687500q-2.781250 -3.781250 -8.593750 -3.781250q-6.890625 0.000000 -10.953125 4.656250q-4.046875 4.656250 -4.046875 12.625000l0.000000 30.906250l-9.031250 0.000000l0.000000 -54.687500l9.031250 0.000000l0.000000 8.500000q3.078125 -5.031250 7.375000 -7.421875q4.296875 -2.390625 10.203125 -2.390625q5.968750 0.000000 10.140625 3.031250q4.171875 3.015625 6.171875 8.781250"/>
<path id="c_0bce5afba2dc6b9024b26277c38ad8e8" d="M56.203125 -29.593750l0.000000 4.390625l-41.312500 0.000000q0.593750 9.281250 5.593750 14.140625q5.000000 4.859375 13.937500 4.859375q5.171875 0.000000 10.031250 -1.265625q4.859375 -1.265625 9.656250 -3.812500l0.000000 8.500000q-4.843750 2.046875 -9.921875 3.125000q-5.078125 1.078125 -10.296875 1.078125q-13.093750 0.000000 -20.734375 -7.609375q-7.640625 -7.625000 -7.640625 -20.625000q0.000000 -13.421875 7.250000 -21.296875q7.250000 -7.890625 19.562500 -7.890625q11.031250 0.000000 17.453125 7.109375q6.421875 7.093750 6.421875 19.296875M47.218750 -32.234375q-0.093750 -7.359375 -4.125000 -11.750000q-4.031250 -4.406250 -10.671875 -4.406250q-7.515625 0.000000 -12.031250 4.250000q-4.515625 4.250000 -5.203125 11.968750z"/>
<path id="c_d41d8cd98f00b204e9800998ecf8427e" d=""/>
<path id="c_7efa9804c2b4c09a4b614b91fdebee3d" d="M31.000000 -75.875000q-6.531250 11.218750 -9.718750 22.218750q-3.171875 10.984375 -3.171875 22.265625q0.000000 11.265625 3.203125 22.328125q3.203125 11.062500 9.687500 22.250000l-7.812500 0.000000q-7.312500 -11.484375 -10.953125 -22.562500q-3.640625 -11.078125 -3.640625 -22.015625q0.000000 -10.890625 3.609375 -21.921875q3.625000 -11.046875 10.984375 -22.562500z"/>
<path id="c_9c6d5cbc59c6231647eb409cc6b37bb3" d="M25.390625 -72.906250l8.296875 0.000000l-25.390625 82.187500l-8.296875 0.000000z"/>
<path id="c_0f8c41144cfbf448378cb6fd1cc8e549" d="M18.312500 -70.218750l0.000000 15.531250l18.500000 0.000000l0.000000 6.984375l-18.500000 0.000000l0.000000 29.687500q0.000000 6.687500 1.828125 8.593750q1.828125 1.906250 7.453125 1.906250l9.218750 0.000000l0.000000 7.515625l-9.218750 0.000000q-10.406250 0.000000 -14.359375 -3.875000q-3.953125 -3.890625 -3.953125 -14.140625l0.000000 -29.687500l-6.593750 0.000000l0.000000 -6.984375l6.593750 0.000000l0.000000 -15.531250z"/>
<path id="c_74d54c94aa871ec39e2bc6697dde6c00" d="M54.890625 -33.015625l0.000000 33.015625l-8.984375 0.000000l0.000000 -32.718750q0.000000 -7.765625 -3.031250 -11.609375q-3.031250 -3.859375 -9.078125 -3.859375q-7.281250 0.000000 -11.484375 4.640625q-4.203125 4.625000 -4.203125 12.640625l0.000000 30.906250l-9.031250 0.000000l0.000000 -75.984375l9.031250 0.000000l0.000000 29.796875q3.234375 -4.937500 7.593750 -7.375000q4.375000 -2.437500 10.093750 -2.437500q9.421875 0.000000 14.250000 5.828125q4.843750 5.828125 4.843750 17.156250"/>
<path id="c_8e0810ad13fe20a2a87a2619799b154d" d="M44.281250 -53.078125l0.000000 8.500000q-3.796875 -1.953125 -7.906250 -2.921875q-4.093750 -0.984375 -8.500000 -0.984375q-6.687500 0.000000 -10.031250 2.046875q-3.343750 2.046875 -3.343750 6.156250q0.000000 3.125000 2.390625 4.906250q2.390625 1.781250 9.625000 3.390625l3.078125 0.687500q9.562500 2.046875 13.593750 5.781250q4.031250 3.734375 4.031250 10.421875q0.000000 7.625000 -6.031250 12.078125q-6.031250 4.437500 -16.578125 4.437500q-4.390625 0.000000 -9.156250 -0.859375q-4.765625 -0.859375 -10.031250 -2.562500l0.000000 -9.281250q4.984375 2.593750 9.812500 3.890625q4.828125 1.281250 9.578125 1.281250q6.343750 0.000000 9.750000 -2.171875q3.421875 -2.171875 3.421875 -6.125000q0.000000 -3.656250 -2.468750 -5.609375q-2.453125 -1.953125 -10.812500 -3.765625l-3.125000 -0.734375q-8.343750 -1.750000 -12.062500 -5.390625q-3.703125 -3.640625 -3.703125 -9.984375q0.000000 -7.718750 5.468750 -11.906250q5.468750 -4.203125 15.531250 -4.203125q4.968750 0.000000 9.359375 0.734375q4.406250 0.718750 8.109375 2.187500"/>
<path id="c_e96974be642f6eac0427d72f9cec6c19" d="M8.015625 -75.875000l7.812500 0.000000q7.312500 11.515625 10.953125 22.562500q3.640625 11.031250 3.640625 21.921875q0.000000 10.937500 -3.640625 22.015625q-3.640625 11.078125 -10.953125 22.562500l-7.812500 0.000000q6.484375 -11.187500 9.687500 -22.250000q3.203125 -11.062500 3.203125 -22.328125q0.000000 -11.281250 -3.203125 -22.265625q-3.203125 -11.000000 -9.687500 -22.218750"/>
</defs>
<g style="fill: #000000; opacity: 1.000000" transform="translate(249.754687,416.003125)scale(0.120000)">
<use xlink:href="#c_9e4b30cbdf32072672ded72e9074c4c9"/>
<use xlink:href="#c_6a63bda47b2f3da1cec6aadd80692cfe" x="57.958984"/>
<use xlink:href="#c_4653c6dfde66c7610eae0911760d3490" x="85.742187"/>
<use xlink:href="#c_0bce5afba2dc6b9024b26277c38ad8e8" x="183.154297"/>
<use xlink:href="#c_d41d8cd98f00b204e9800998ecf8427e" x="244.677734"/>
<use xlink:href="#c_7efa9804c2b4c09a4b614b91fdebee3d" x="276.464844"/>
<use xlink:href="#c_42baa63129a918535c52adb20d687ea7" x="315.478516"/>
<use xlink:href="#c_9c6d5cbc59c6231647eb409cc6b37bb3" x="379.101562"/>
<use xlink:href="#c_42baa63129a918535c52adb20d687ea7" x="412.792969"/>
<use xlink:href="#c_7a2040fe3b94fcd41d0a72c84e93b115" x="476.416016"/>
<use xlink:href="#c_0f8c41144cfbf448378cb6fd1cc8e549" x="540.039062"/>
<use xlink:href="#c_74d54c94aa871ec39e2bc6697dde6c00" x="579.248047"/>
<use xlink:href="#c_d41d8cd98f00b204e9800998ecf8427e" x="642.626953"/>
<use xlink:href="#c_8e0810ad13fe20a2a87a2619799b154d" x="674.414062"/>
<use xlink:href="#c_e96974be642f6eac0427d72f9cec6c19" x="726.513672"/>
</g>
</g>
</g>
<g id="matplotlib.axis2">
<g id="ytick1">
<g id="line2d21">
<defs><path id="m3400efa6b1638b3fea9e19e898273957" d="M0.000000 0.000000L4.000000 0.000000"/></defs>
<g ><use style="fill: none; stroke: #000000; stroke-width: 0.500000; stroke-linejoin: round; stroke-linecap: butt;  opacity: 1.000000" xlink:href="#m3400efa6b1638b3fea9e19e898273957" x="72.000000" y="388.800000"/>
</g></g>
<g id="line2d22">
<defs><path id="m20b58b2501143cb5e0a5e8f1ef6f1643" d="M0.000000 0.000000L-4.000000 0.000000"/></defs>
<g ><use style="fill: none; stroke: #000000; stroke-width: 0.500000; stroke-linejoin: round; stroke-linecap: butt;  opacity: 1.000000" xlink:href="#m20b58b2501143cb5e0a5e8f1ef6f1643" x="518.400000" y="388.800000"/>
</g></g>
<g id="text11">
<defs>
<path id="c_6a8d56c819c37117ab4cf023bec22a5a" d="M10.593750 -35.500000l62.593750 0.000000l0.000000 8.296875l-62.593750 0.000000z"/>
</defs>
<g style="fill: #000000; opacity: 1.000000" transform="translate(37.078125,393.167188)scale(0.120000)">
<use xlink:href="#c_6a8d56c819c37117ab4cf023bec22a5a"/>
<use xlink:href="#c_42baa63129a918535c52adb20d687ea7" x="83.789062"/>
<use xlink:href="#c_7a2040fe3b94fcd41d0a72c84e93b115" x="147.412109"/>
<use xlink:href="#c_7a2040fe3b94fcd41d0a72c84e93b115" x="211.035156"/>
</g>
</g>
</g>
<g id="ytick2">
<g id="line2d23">
<g ><use style="fill: none; stroke: #000000; stroke-width: 0.500000; stroke-linejoin: round; stroke-linecap: butt;  opacity: 1.000000" xlink:href="#m3400efa6b1638b3fea9e19e898273957" x="72.000000" y="302.400000"/>
</g></g>
<g id="line2d24">
<g ><use style="fill: none; stroke: #000000; stroke-width: 0.500000; stroke-linejoin: round; stroke-linecap: butt;  opacity: 1.000000" xlink:href="#m20b58b2501143cb5e0a5e8f1ef6f1643" x="518.400000" y="302.400000"/>
</g></g>
<g id="text12">
<g style="fill: #000000; opacity: 1.000000" transform="translate(44.718750,306.767187)scale(0.120000)">
<use xlink:href="#c_6a8d56c819c37117ab4cf023bec22a5a"/>
<use xlink:href="#c_1260a2df50f305f3db244e29828f968e" x="83.789062"/>
<use xlink:href="#c_7a2040fe3b94fcd41d0a72c84e93b115" x="147.412109"/>
</g>
</g>
</g>
<g id="ytick3">
<g id="line2d25">
<g ><use style="fill: none; stroke: #000000; stroke-width: 0.500000; stroke-linejoin: round; stroke-linecap: butt;  opacity: 1.000000" xlink:href="#m3400efa6b1638b3fea9e19e898273957" x="72.000000" y="216.000000"/>
</g></g>
<g id="line2d26">
<g ><use style="fill: none; stroke: #000000; stroke-width: 0.500000; stroke-linejoin: round; stroke-linecap: butt;  opacity: 1.000000" xlink:href="#m20b58b2501143cb5e0a5e8f1ef6f1643" x="518.400000" y="216.000000"/>
</g></g>
<g id="text13">
<g style="fill: #000000; opacity: 1.000000" transform="translate(61.953125,220.367188)scale(0.120000)">
<use xlink:href="#c_7a2040fe3b94fcd41d0a72c84e93b115"/>
</g>
</g>
</g>
<g id="ytick4">
<g id="line2d27">
<g ><use style="fill: none; stroke: #000000; stroke-width: 0.500000; stroke-linejoin: round; stroke-linecap: butt;  opacity: 1.000000" xlink:href="#m3400efa6b1638b3fea9e19e898273957" x="72.000000" y="129.600000"/>
</g></g>
<g id="line2d28">
<g ><use style="fill: none; stroke: #000000; stroke-width: 0.500000; stroke-linejoin: round; stroke-linecap: butt;  opacity: 1.000000" xlink:href="#m20b58b2501143cb5e0a5e8f1ef6f1643" x="518.400000" y="129.600000"/>
</g></g>
<g id="text14">
<g style="fill: #000000; opacity: 1.000000" transform="translate(54.437500,133.967187)scale(0.120000)">
<use xlink:href="#c_1260a2df50f305f3db244e29828f968e"/>
<use xlink:href="#c_7a2040fe3b94fcd41d0a72c84e93b115" x="63.623047"/>
</g>
</g>
</g>
<g id="ytick5">
<g id="line2d29">
<g ><use style="fill: none; stroke: #000000; stroke-width: 0.500000; stroke-linejoin: round; stroke-linecap: butt;  opacity: 1.000000" xlink:href="#m3400efa6b1638b3fea9e19e898273957" x="72.000000" y="43.200000"/>
</g></g>
<g id="line2d30">
<g ><use style="fill: none; stroke: #000000; stroke-width: 0.500000; stroke-linejoin: round; stroke-linecap: butt;  opacity: 1.000000" xlink:href="#m20b58b2501143cb5e0a5e8f1ef6f1643" x="518.400000" y="43.200000"/>
</g></g>
<g id="text15">
<g style="fill: #000000; opacity: 1.000000" transform="translate(47.187500,47.567187)scale(0.120000)">
<use xlink:href="#c_42baa63129a918535c52adb20d687ea7"/>
<use xlink:href="#c_7a2040fe3b94fcd41d0a72c84e93b115" x="63.623047"/>
<use xlink:href="#c_7a2040fe3b94fcd41d0a72c84e93b115" x="127.246094"/>
</g>
</g>
</g>
<g id="text16">
<defs>
<path id="c_ff9441f72805bc441fcb0bfe0d774f13" d="M19.671875 -64.796875l0.000000 56.687500l11.921875 0.000000q15.093750 0.000000 22.093750 -6.828125q7.000000 -6.843750 7.000000 -21.593750q0.000000 -14.640625 -7.000000 -21.453125q-7.000000 -6.812500 -22.093750 -6.812500zM9.812500 -72.906250l20.265625 0.000000q21.187500 0.000000 31.093750 8.812500q9.921875 8.812500 9.921875 27.562500q0.000000 18.859375 -9.968750 27.703125q-9.953125 8.828125 -31.046875 8.828125l-20.265625 0.000000z"/>
<path id="c_01d93a582460e35a7945ca50d148ffeb" d="M34.281250 -27.484375q-10.890625 0.000000 -15.093750 2.484375q-4.203125 2.484375 -4.203125 8.500000q0.000000 4.781250 3.156250 7.593750q3.156250 2.796875 8.562500 2.796875q7.484375 0.000000 12.000000 -5.296875q4.515625 -5.296875 4.515625 -14.078125l0.000000 -2.000000zM52.203125 -31.203125l0.000000 31.203125l-8.984375 0.000000l0.000000 -8.296875q-3.078125 4.968750 -7.671875 7.343750q-4.593750 2.375000 -11.234375 2.375000q-8.390625 0.000000 -13.359375 -4.718750q-4.953125 -4.718750 -4.953125 -12.625000q0.000000 -9.218750 6.171875 -13.906250q6.187500 -4.687500 18.437500 -4.687500l12.609375 0.000000l0.000000 -0.890625q0.000000 -6.203125 -4.078125 -9.593750q-4.078125 -3.390625 -11.453125 -3.390625q-4.687500 0.000000 -9.140625 1.125000q-4.437500 1.125000 -8.531250 3.375000l0.000000 -8.312500q4.921875 -1.906250 9.562500 -2.843750q4.640625 -0.953125 9.031250 -0.953125q11.875000 0.000000 17.734375 6.156250q5.859375 6.140625 5.859375 18.640625"/>
</defs>
<g style="fill: #000000; opacity: 1.000000" transform="translate(32.078125,229.023438)rotate(-90.0)scale(0.120000)">
<use xlink:href="#c_ff9441f72805bc441fcb0bfe0d774f13"/>
<use xlink:href="#c_01d93a582460e35a7945ca50d148ffeb" x="77.001953"/>
<use xlink:href="#c_0f8c41144cfbf448378cb6fd1cc8e549" x="138.281250"/>
<use xlink:href="#c_01d93a582460e35a7945ca50d148ffeb" x="177.490234"/>
</g>
</g>
</g>
<g id="patch3">
<path style="fill: none; stroke: #000000; stroke-width: 1.000000; stroke-linejoin: round; stroke-linecap: square;  opacity: 1.000000"  d="M72.000000 43.200000L518.400000 43.200000"/>
</g>
<g id="patch4">
<path style="fill: none; stroke: #000000; stroke-width: 1.000000; stroke-linejoin: round; stroke-linecap: square;  opacity: 1.000000"  d="M518.400000 388.800000L518.400000 43.200000"/>
</g>
<g id="patch5">
<path style="fill: none; stroke: #000000; stroke-width: 1.000000; stroke-linejoin: round; stroke-linecap: square;  opacity: 1.000000"  d="M72.000000 388.800000L518.400000 388.800000"/>
</g>
<g id="patch6">
<path style="fill: none; stroke: #000000; stroke-width: 1.000000; stroke-linejoin: round; stroke-linecap: square;  opacity: 1.000000"  d="M72.000000 388.800000L72.000000 43.200000"/>
</g>
<g id="text17">
<defs>
<path id="c_518d586bee075aa0153eaebfcb5ab11f" d="M19.671875 -64.796875l0.000000 27.390625l12.406250 0.000000q6.890625 0.000000 10.640625 -3.562500q3.765625 -3.562500 3.765625 -10.156250q0.000000 -6.546875 -3.765625 -10.109375q-3.750000 -3.562500 -10.640625 -3.562500zM9.812500 -72.906250l22.265625 0.000000q12.265625 0.000000 18.531250 5.546875q6.281250 5.546875 6.281250 16.234375q0.000000 10.796875 -6.281250 16.312500q-6.265625 5.515625 -18.531250 5.515625l-12.406250 0.000000l0.000000 29.296875l-9.859375 0.000000z"/>
<path id="c_d650c37394b681142a10dfc54356d478" d="M48.781250 -52.593750l0.000000 8.406250q-3.812500 -2.109375 -7.640625 -3.156250q-3.828125 -1.046875 -7.734375 -1.046875q-8.750000 0.000000 -13.593750 5.546875q-4.828125 5.531250 -4.828125 15.546875q0.000000 10.015625 4.828125 15.562500q4.843750 5.531250 13.593750 5.531250q3.906250 0.000000 7.734375 -1.046875q3.828125 -1.046875 7.640625 -3.156250l0.000000 8.312500q-3.765625 1.750000 -7.796875 2.625000q-4.015625 0.890625 -8.562500 0.890625q-12.359375 0.000000 -19.640625 -7.765625q-7.265625 -7.765625 -7.265625 -20.953125q0.000000 -13.375000 7.343750 -21.031250q7.359375 -7.671875 20.156250 -7.671875q4.140625 0.000000 8.093750 0.859375q3.953125 0.843750 7.671875 2.546875"/>
<path id="c_dcb78ab3124be785176d70a27dde1356" d="M9.078125 -75.984375l9.031250 0.000000l0.000000 44.875000l26.812500 -23.578125l11.468750 0.000000l-29.000000 25.578125l30.234375 29.109375l-11.718750 0.000000l-27.796875 -26.703125l0.000000 26.703125l-9.031250 0.000000z"/>
<path id="c_425fd1cbcd899bef0a79975ae4756bf8" d="M19.671875 -34.812500l0.000000 26.703125l15.828125 0.000000q7.953125 0.000000 11.781250 -3.296875q3.843750 -3.296875 3.843750 -10.078125q0.000000 -6.843750 -3.843750 -10.078125q-3.828125 -3.250000 -11.781250 -3.250000zM19.671875 -64.796875l0.000000 21.968750l14.609375 0.000000q7.218750 0.000000 10.750000 -2.703125q3.546875 -2.718750 3.546875 -8.281250q0.000000 -5.515625 -3.546875 -8.250000q-3.531250 -2.734375 -10.750000 -2.734375zM9.812500 -72.906250l25.203125 0.000000q11.281250 0.000000 17.375000 4.687500q6.109375 4.687500 6.109375 13.328125q0.000000 6.703125 -3.125000 10.656250q-3.125000 3.953125 -9.187500 4.921875q7.281250 1.562500 11.312500 6.531250q4.031250 4.953125 4.031250 12.375000q0.000000 9.765625 -6.640625 15.093750q-6.640625 5.312500 -18.906250 5.312500l-26.171875 0.000000z"/>
<path id="c_f05dd90d41f04bb96ef1ca503cc2044b" d="M30.609375 -48.390625q-7.218750 0.000000 -11.421875 5.640625q-4.203125 5.640625 -4.203125 15.453125q0.000000 9.812500 4.171875 15.453125q4.187500 5.640625 11.453125 5.640625q7.187500 0.000000 11.375000 -5.656250q4.203125 -5.671875 4.203125 -15.437500q0.000000 -9.718750 -4.203125 -15.406250q-4.187500 -5.687500 -11.375000 -5.687500M30.609375 -56.000000q11.718750 0.000000 18.406250 7.625000q6.703125 7.609375 6.703125 21.078125q0.000000 13.421875 -6.703125 21.078125q-6.687500 7.640625 -18.406250 7.640625q-11.765625 0.000000 -18.437500 -7.640625q-6.656250 -7.656250 -6.656250 -21.078125q0.000000 -13.468750 6.656250 -21.078125q6.671875 -7.625000 18.437500 -7.625000"/>
<path id="c_c48ceabac27bf136feba2f4bf2716ab6" d="M2.984375 -54.687500l9.515625 0.000000l17.093750 45.890625l17.093750 -45.890625l9.515625 0.000000l-20.515625 54.687500l-12.203125 0.000000z"/>
<path id="c_ed3e21196fb739f392806f09ca0594ef" d="M10.687500 -12.406250l10.312500 0.000000l0.000000 12.406250l-10.312500 0.000000z"/>
</defs>
<g style="fill: #000000; opacity: 1.000000" transform="translate(215.004687,37.996875)scale(0.144000)">
<use xlink:href="#c_518d586bee075aa0153eaebfcb5ab11f"/>
<use xlink:href="#c_01d93a582460e35a7945ca50d148ffeb" x="55.802734"/>
<use xlink:href="#c_d650c37394b681142a10dfc54356d478" x="117.082031"/>
<use xlink:href="#c_dcb78ab3124be785176d70a27dde1356" x="172.062500"/>
<use xlink:href="#c_425fd1cbcd899bef0a79975ae4756bf8" x="229.972656"/>
<use xlink:href="#c_f05dd90d41f04bb96ef1ca503cc2044b" x="298.576172"/>
<use xlink:href="#c_0f8c41144cfbf448378cb6fd1cc8e549" x="359.757812"/>
<use xlink:href="#c_d41d8cd98f00b204e9800998ecf8427e" x="398.966797"/>
<use xlink:href="#c_ff9441f72805bc441fcb0bfe0d774f13" x="430.753906"/>
<use xlink:href="#c_01d93a582460e35a7945ca50d148ffeb" x="507.755859"/>
<use xlink:href="#c_0f8c41144cfbf448378cb6fd1cc8e549" x="569.035156"/>
<use xlink:href="#c_01d93a582460e35a7945ca50d148ffeb" x="608.244141"/>
<use xlink:href="#c_d41d8cd98f00b204e9800998ecf8427e" x="669.523438"/>
<use xlink:href="#c_c48ceabac27bf136feba2f4bf2716ab6" x="701.310547"/>
<use xlink:href="#c_8e0810ad13fe20a2a87a2619799b154d" x="760.490234"/>
<use xlink:href="#c_ed3e21196fb739f392806f09ca0594ef" x="812.589844"/>
<use xlink:href="#c_d41d8cd98f00b204e9800998ecf8427e" x="844.376953"/>
<use xlink:href="#c_9e4b30cbdf32072672ded72e9074c4c9" x="876.164062"/>
<use xlink:href="#c_6a63bda47b2f3da1cec6aadd80692cfe" x="934.123047"/>
<use xlink:href="#c_4653c6dfde66c7610eae0911760d3490" x="961.906250"/>
<use xlink:href="#c_0bce5afba2dc6b9024b26277c38ad8e8" x="1059.318359"/>
</g>
</g>
</g>
<g id="legend1">
<g id="patch7">
<path style="fill: #ffffff; stroke: #000000; stroke-width: 1.000000; stroke-linejoin: round; stroke-linecap: square;  opacity: 1.000000"  d="M400.522500 53.013750L568.800000 53.013750L568.800000 7.200000
L400.522500 7.200000L400.522500 53.013750z"/>
</g>
<g id="line2d31">
<path style="fill: none; stroke: #0000ff; stroke-width: 1.000000; stroke-linejoin: round; stroke-linecap: square;  opacity: 1.000000"  d="M410.602500 18.560625L430.762500 18.560625"/>
</g>
<g id="line2d32">
</g>
<g id="text18">
<defs>
<path id="c_07e3f33241aff50afcba519606f2a979" d="M9.812500 -72.906250l9.859375 0.000000l0.000000 64.609375l35.500000 0.000000l0.000000 8.296875l-45.359375 0.000000z"/>
<path id="c_fe791a90f5471e2ab20a5ed41a7fa451" d="M54.890625 -33.015625l0.000000 33.015625l-8.984375 0.000000l0.000000 -32.718750q0.000000 -7.765625 -3.031250 -11.609375q-3.031250 -3.859375 -9.078125 -3.859375q-7.281250 0.000000 -11.484375 4.640625q-4.203125 4.625000 -4.203125 12.640625l0.000000 30.906250l-9.031250 0.000000l0.000000 -54.687500l9.031250 0.000000l0.000000 8.500000q3.234375 -4.937500 7.593750 -7.375000q4.375000 -2.437500 10.093750 -2.437500q9.421875 0.000000 14.250000 5.828125q4.843750 5.828125 4.843750 17.156250"/>
<path id="c_6ec8d5749226675394676a5d2a3b468b" d="M41.109375 -46.296875q-1.515625 -0.875000 -3.296875 -1.281250q-1.781250 -0.421875 -3.921875 -0.421875q-7.625000 0.000000 -11.703125 4.953125q-4.078125 4.953125 -4.078125 14.234375l0.000000 28.812500l-9.031250 0.000000l0.000000 -54.687500l9.031250 0.000000l0.000000 8.500000q2.843750 -4.984375 7.375000 -7.390625q4.546875 -2.421875 11.046875 -2.421875q0.921875 0.000000 2.046875 0.125000q1.125000 0.109375 2.484375 0.359375z"/>
<path id="c_ae70b0af174184799fa4976b9c5da571" d="M28.609375 -0.000000l-27.828125 -72.906250l10.296875 0.000000l23.109375 61.375000l23.140625 -61.375000l10.250000 0.000000l-27.781250 72.906250z"/>
<path id="c_5099edb83619131346ae654950954dea" d="M9.421875 -75.984375l8.984375 0.000000l0.000000 75.984375l-8.984375 0.000000z"/>
<path id="c_3fe22c4af425ac970aec982ae9662abe" d="M32.171875 5.078125q-3.796875 9.765625 -7.421875 12.734375q-3.609375 2.984375 -9.656250 2.984375l-7.187500 0.000000l0.000000 -7.515625l5.281250 0.000000q3.703125 0.000000 5.750000 -1.765625q2.062500 -1.750000 4.546875 -8.296875l1.609375 -4.093750l-22.109375 -53.812500l9.515625 0.000000l17.093750 42.765625l17.093750 -42.765625l9.515625 0.000000z"/>
</defs>
<g style="fill: #000000; opacity: 1.000000" transform="translate(446.602500,23.600625)scale(0.144000)">
<use xlink:href="#c_07e3f33241aff50afcba519606f2a979"/>
<use xlink:href="#c_6a63bda47b2f3da1cec6aadd80692cfe" x="55.712891"/>
<use xlink:href="#c_fe791a90f5471e2ab20a5ed41a7fa451" x="83.496094"/>
<use xlink:href="#c_0bce5afba2dc6b9024b26277c38ad8e8" x="146.875000"/>
<use xlink:href="#c_01d93a582460e35a7945ca50d148ffeb" x="208.398438"/>
<use xlink:href="#c_6ec8d5749226675394676a5d2a3b468b" x="269.677734"/>
<use xlink:href="#c_d41d8cd98f00b204e9800998ecf8427e" x="310.791016"/>
<use xlink:href="#c_ae70b0af174184799fa4976b9c5da571" x="342.578125"/>
<use xlink:href="#c_0bce5afba2dc6b9024b26277c38ad8e8" x="403.236328"/>
<use xlink:href="#c_5099edb83619131346ae654950954dea" x="464.759766"/>
<use xlink:href="#c_f05dd90d41f04bb96ef1ca503cc2044b" x="492.542969"/>
<use xlink:href="#c_d650c37394b681142a10dfc54356d478" x="553.724609"/>
<use xlink:href="#c_6a63bda47b2f3da1cec6aadd80692cfe" x="608.705078"/>
<use xlink:href="#c_0f8c41144cfbf448378cb6fd1cc8e549" x="636.488281"/>
<use xlink:href="#c_3fe22c4af425ac970aec982ae9662abe" x="675.697266"/>
</g>
</g>
<g id="line2d33">
<path style="fill: none; stroke: #008000; stroke-width: 1.000000; stroke-linejoin: round; stroke-linecap: square;  opacity: 1.000000"  d="M410.602500 39.307500L430.762500 39.307500"/>
</g>
<g id="line2d34">
</g>
<g id="text19">
<defs>
<path id="c_6023715d605f81e6eb43b7f9d77e7c51" d="M34.187500 -63.187500l-13.390625 36.281250l26.812500 0.000000zM28.609375 -72.906250l11.187500 0.000000l27.781250 72.906250l-10.250000 0.000000l-6.640625 -18.703125l-32.859375 0.000000l-6.640625 18.703125l-10.406250 0.000000z"/>
<path id="c_e3864de5dabf2f8dd9eee74726882ec1" d="M45.406250 -27.984375q0.000000 -9.765625 -4.031250 -15.125000q-4.015625 -5.375000 -11.296875 -5.375000q-7.218750 0.000000 -11.250000 5.375000q-4.031250 5.359375 -4.031250 15.125000q0.000000 9.718750 4.031250 15.093750q4.031250 5.375000 11.250000 5.375000q7.281250 0.000000 11.296875 -5.375000q4.031250 -5.375000 4.031250 -15.093750M54.390625 -6.781250q0.000000 13.953125 -6.203125 20.765625q-6.187500 6.812500 -18.984375 6.812500q-4.734375 0.000000 -8.937500 -0.703125q-4.203125 -0.703125 -8.156250 -2.171875l0.000000 -8.734375q3.953125 2.140625 7.812500 3.156250q3.859375 1.031250 7.859375 1.031250q8.843750 0.000000 13.234375 -4.609375q4.390625 -4.609375 4.390625 -13.937500l0.000000 -4.453125q-2.781250 4.843750 -7.125000 7.234375q-4.343750 2.390625 -10.406250 2.390625q-10.046875 0.000000 -16.203125 -7.656250q-6.156250 -7.671875 -6.156250 -20.328125q0.000000 -12.687500 6.156250 -20.343750q6.156250 -7.671875 16.203125 -7.671875q6.062500 0.000000 10.406250 2.390625q4.343750 2.390625 7.125000 7.218750l0.000000 -8.296875l8.984375 0.000000z"/>
<path id="c_3b515ad41f960e225ec85275856806ca" d="M8.500000 -21.578125l0.000000 -33.109375l8.984375 0.000000l0.000000 32.765625q0.000000 7.765625 3.015625 11.656250q3.031250 3.875000 9.093750 3.875000q7.265625 0.000000 11.484375 -4.640625q4.234375 -4.640625 4.234375 -12.656250l0.000000 -31.000000l8.984375 0.000000l0.000000 54.687500l-8.984375 0.000000l0.000000 -8.406250q-3.265625 4.984375 -7.593750 7.406250q-4.312500 2.421875 -10.031250 2.421875q-9.421875 0.000000 -14.312500 -5.859375q-4.875000 -5.859375 -4.875000 -17.140625M31.109375 -56.000000z"/>
</defs>
<g style="fill: #000000; opacity: 1.000000" transform="translate(446.602500,44.347500)scale(0.144000)">
<use xlink:href="#c_6023715d605f81e6eb43b7f9d77e7c51"/>
<use xlink:href="#c_fe791a90f5471e2ab20a5ed41a7fa451" x="68.408203"/>
<use xlink:href="#c_e3864de5dabf2f8dd9eee74726882ec1" x="131.787109"/>
<use xlink:href="#c_3b515ad41f960e225ec85275856806ca" x="195.263672"/>
<use xlink:href="#c_5099edb83619131346ae654950954dea" x="258.642578"/>
<use xlink:href="#c_01d93a582460e35a7945ca50d148ffeb" x="286.425781"/>
<use xlink:href="#c_6ec8d5749226675394676a5d2a3b468b" x="347.705078"/>
<use xlink:href="#c_d41d8cd98f00b204e9800998ecf8427e" x="388.818359"/>
<use xlink:href="#c_ae70b0af174184799fa4976b9c5da571" x="420.605469"/>
<use xlink:href="#c_0bce5afba2dc6b9024b26277c38ad8e8" x="481.263672"/>
<use xlink:href="#c_5099edb83619131346ae654950954dea" x="542.787109"/>
<use xlink:href="#c_f05dd90d41f04bb96ef1ca503cc2044b" x="570.570313"/>
<use xlink:href="#c_d650c37394b681142a10dfc54356d478" x="631.751953"/>
<use xlink:href="#c_6a63bda47b2f3da1cec6aadd80692cfe" x="686.732422"/>
<use xlink:href="#c_0f8c41144cfbf448378cb6fd1cc8e549" x="714.515625"/>
<use xlink:href="#c_3fe22c4af425ac970aec982ae9662abe" x="753.724609"/>
</g>
</g>
</g>
</g>
</svg>
