<?xml version="1.0" standalone="no"?>
<!DOCTYPE svg PUBLIC "-//W3C//DTD SVG 1.1//EN"
  "http://www.w3.org/Graphics/SVG/1.1/DTD/svg11.dtd">
<!-- Created with matplotlib (http://matplotlib.sourceforge.net/) -->
<svg width="576pt" height="432pt" viewBox="0 0 576 432"
   xmlns="http://www.w3.org/2000/svg"
   xmlns:xlink="http://www.w3.org/1999/xlink"
   version="1.1"
   id="svg1">
<g id="figure1">
<g id="patch1">
<path style="fill: #ffffff; stroke: #ffffff; stroke-width: 1.000000; stroke-linejoin: round; stroke-linecap: square;  opacity: 1.000000"  d="M0.000000 432.000000L576.000000 432.000000L576.000000 0.000000
L0.000000 0.000000L0.000000 432.000000"/>
</g>
<g id="axes1">
<g id="patch2">
<path style="fill: #ffffff; opacity: 1.000000"  d="M72.000000 388.800000L518.400000 388.800000L518.400000 43.200000
L72.000000 43.200000L72.000000 388.800000"/>
</g>
<g id="line2d1">
<defs>
  <clipPath id="p50431ccdcb28178602d99d9270004dde">
<rect x="72.000000" y="43.200000" width="446.400000" height="345.600000"/>
  </clipPath>
</defs><path style="fill: none; stroke: #0000ff; stroke-width: 1.000000; stroke-linejoin: round; stroke-linecap: square;  opacity: 1.000000" clip-path="url(#p50431ccdcb28178602d99d9270004dde)" d="M72.000000 216.000000L73.275429 216.000000L74.550857 216.000000
L75.188571 164.705165L80.290286 164.705163L82.841143 162.296438
L84.116571 160.088243L85.392000 158.399942L94.320000 158.605361
L100.697143 161.804615L103.248000 162.441094L104.523429 161.695552
L105.798857 161.622289L108.349714 160.162364L109.625143 160.117873
L110.900571 159.161160L113.451429 159.225468L118.553143 158.399942
L142.786286 158.399942L144.061714 163.864927L145.337143 164.499932
L147.888000 163.659322L151.714286 160.016954L152.989714 158.924312
L158.091429 158.399942L183.600000 158.399942L184.237714 166.163792
L185.513143 166.908583L186.788571 166.566084L189.339429 164.176540
L190.614857 164.013702L191.890286 162.701943L193.165714 160.340151
L194.441143 159.455739L195.078857 158.399942L228.240000 158.399942
L228.877714 164.155023L230.153143 164.931949L231.428571 163.631014
L232.066286 162.372773L234.617143 159.051679L235.892571 158.399942
L309.867429 158.399942L310.505143 166.783939L311.780571 167.218080
L313.056000 166.206203L315.606857 162.449301L316.882286 161.622743
L318.795429 158.399942L353.232000 158.399942L354.507429 163.688852
L355.782857 164.033573L358.333714 158.654053L360.884571 158.399942
L423.380571 158.399942L425.293714 164.905178L427.844571 175.741485
L431.033143 185.939294L485.876571 185.939294L485.876571 185.939294"/>
</g>
<g id="line2d2">
<path style="fill: none; stroke: #008000; stroke-width: 1.000000; stroke-linejoin: round; stroke-linecap: square;  opacity: 1.000000" clip-path="url(#p50431ccdcb28178602d99d9270004dde)" d="M72.000000 216.000000L73.275429 216.000000L74.550857 216.000000
L75.188571 243.975650L76.464000 243.840501L80.290286 245.462277
L82.203429 242.092064L84.754286 235.206272L86.667429 225.355154
L87.942857 220.531464L89.218286 218.605698L91.769143 210.625650
L94.320000 205.126147L100.059429 196.791488L102.610286 195.431011
L103.248000 194.422601L104.523429 195.604703L105.798857 195.324794
L108.349714 197.651820L109.625143 197.383363L110.900571 199.093331
L113.451429 198.294146L114.726857 198.529538L116.002286 199.110079
L117.915429 202.743306L119.190857 203.320812L120.466286 203.389320
L123.017143 207.131121L124.292571 207.564469L128.118857 211.432324
L131.945143 213.172334L135.771429 213.512164L137.046857 213.917651
L138.322286 214.868129L140.873143 213.980172L143.424000 214.377119
L144.061714 186.180153L145.337143 184.992792L146.612571 185.565021
L147.888000 185.760090L151.076571 190.463547L152.352000 193.866929
L153.627429 194.297632L154.902857 194.026932L155.540571 195.290501
L156.178286 197.452218L157.453714 198.326854L160.004571 199.143457
L161.280000 200.398441L162.555429 201.148234L165.106286 199.743462
L166.381714 198.662050L167.657143 198.944542L168.932571 198.440187
L170.208000 200.374795L170.845714 202.970410L172.121143 203.457780
L175.947429 206.277911L176.585143 207.345830L177.860571 208.158391
L179.136000 207.718520L180.411429 208.241204L181.686857 209.269165
L182.962286 209.343523L184.237714 175.447509L185.513143 174.042095
L186.788571 174.182761L188.064000 176.601946L189.339429 178.086486
L190.614857 177.897600L191.890286 180.214506L193.165714 184.788753
L194.441143 186.276166L195.716571 191.843593L198.267429 192.872327
L199.542857 192.550414L200.818286 193.539205L202.093714 193.719752
L203.369143 194.361718L204.006857 192.974523L207.833143 192.676956
L209.108571 192.986843L211.659429 192.117509L212.934857 192.627043
L215.485714 194.663104L216.761143 198.231061L218.036571 203.369842
L218.674286 204.451489L219.949714 204.830573L220.587429 205.839923
L223.138286 208.346605L224.413714 208.866256L226.964571 211.320446
L228.240000 211.867303L228.877714 173.892231L230.153143 172.627067
L231.428571 174.897469L232.704000 179.097005L234.617143 183.551184
L240.356571 191.872147L241.632000 195.202378L244.182857 197.816655
L245.458286 197.650617L248.009143 195.310022L249.284571 195.232191
L250.560000 195.710705L251.835429 195.466800L253.110857 195.855384
L254.386286 195.332448L255.661714 196.864142L258.212571 198.484582
L259.488000 200.500281L260.763429 201.205859L262.038857 201.397688
L263.314286 202.209997L263.952000 203.407649L265.227429 204.599510
L266.502857 204.999409L267.140571 196.431452L268.416000 196.693713
L269.691429 198.628715L270.966857 199.193771L273.517714 202.043545
L274.793143 203.834308L276.068571 204.429932L277.344000 206.367518
L278.619429 206.842229L281.170286 209.888558L282.445714 210.394975
L283.721143 211.416722L284.996571 211.689535L286.272000 211.492590
L287.547429 211.779154L290.098286 210.110134L291.373714 210.012447
L292.649143 209.420293L293.924571 209.845419L295.200000 209.696966
L296.475429 209.037589L299.026286 209.501930L300.301714 209.119736
L304.128000 211.307302L305.403429 212.803070L306.678857 213.342396
L307.954286 212.963128L309.229714 213.032348L310.505143 170.597645
L311.780571 170.073670L313.693714 172.835421L315.606857 178.473579
L316.882286 179.773375L322.621714 197.719889L323.897143 200.081633
L326.448000 200.748304L327.723429 200.566273L328.998857 198.511541
L330.274286 198.206205L331.549714 198.864660L334.100571 197.483386
L336.651429 198.945283L337.926857 201.534331L338.564571 203.309577
L339.840000 204.615644L342.390857 204.945018L343.666286 204.556648
L344.941714 204.925277L351.318857 210.604961L353.869714 214.236593
L354.507429 175.046020L355.782857 174.750884L357.696000 181.913923
L359.609143 190.519168L362.797714 196.781464L364.073143 197.274174
L365.986286 200.910319L367.261714 201.554435L368.537143 203.321123
L369.174857 204.819883L370.450286 205.381611L371.725714 203.143630
L373.001143 202.598931L375.552000 200.477837L376.827429 200.809662
L377.465143 201.931144L378.740571 200.710338L380.016000 200.843389
L381.291429 202.930709L382.566857 203.223517L387.030857 207.730979
L388.306286 209.419346L392.132571 209.986494L393.408000 210.911394
L397.234286 211.388416L402.336000 213.831063L404.886857 213.174998
L406.162286 213.298642L407.437714 215.224605L408.713143 214.698512
L411.264000 215.650783L415.090286 217.894389L416.365714 217.452904
L417.641143 218.063716L420.192000 216.076134L422.742857 215.433861
L424.018286 214.742175L425.931429 210.674463L427.844571 205.585807
L429.120000 201.269306L431.033143 197.016057L485.876571 197.016057
L485.876571 197.016057"/>
</g>
<g id="matplotlib.axis1">
<g id="xtick1">
<g id="line2d3">
<defs><path id="m30e32995789d870ad79a2e54c91cf9c6" d="M0.000000 0.000000L0.000000 -4.000000"/></defs>
<g ><use style="fill: none; stroke: #000000; stroke-width: 0.500000; stroke-linejoin: round; stroke-linecap: butt;  opacity: 1.000000" xlink:href="#m30e32995789d870ad79a2e54c91cf9c6" x="72.000000" y="388.800000"/>
</g></g>
<g id="line2d4">
<defs><path id="m9281cae24120827b11d5ea8a7ad3e96b" d="M0.000000 0.000000L0.000000 4.000000"/></defs>
<g ><use style="fill: none; stroke: #000000; stroke-width: 0.500000; stroke-linejoin: round; stroke-linecap: butt;  opacity: 1.000000" xlink:href="#m9281cae24120827b11d5ea8a7ad3e96b" x="72.000000" y="43.200000"/>
</g></g>
<g id="text1">
<defs>
<path id="c_7a2040fe3b94fcd41d0a72c84e93b115" d="M31.781250 -66.406250q-7.609375 0.000000 -11.453125 7.500000q-3.828125 7.484375 -3.828125 22.531250q0.000000 14.984375 3.828125 22.484375q3.843750 7.500000 11.453125 7.500000q7.671875 0.000000 11.500000 -7.500000q3.843750 -7.500000 3.843750 -22.484375q0.000000 -15.046875 -3.843750 -22.531250q-3.828125 -7.500000 -11.500000 -7.500000M31.781250 -74.218750q12.265625 0.000000 18.734375 9.703125q6.468750 9.687500 6.468750 28.140625q0.000000 18.406250 -6.468750 28.109375q-6.468750 9.687500 -18.734375 9.687500q-12.250000 0.000000 -18.718750 -9.687500q-6.468750 -9.703125 -6.468750 -28.109375q0.000000 -18.453125 6.468750 -28.140625q6.468750 -9.703125 18.718750 -9.703125"/>
</defs>
<g style="fill: #000000; opacity: 1.000000" transform="translate(68.976562,401.706250)scale(0.120000)">
<use xlink:href="#c_7a2040fe3b94fcd41d0a72c84e93b115"/>
</g>
</g>
</g>
<g id="xtick2">
<g id="line2d5">
<g ><use style="fill: none; stroke: #000000; stroke-width: 0.500000; stroke-linejoin: round; stroke-linecap: butt;  opacity: 1.000000" xlink:href="#m30e32995789d870ad79a2e54c91cf9c6" x="135.771429" y="388.800000"/>
</g></g>
<g id="line2d6">
<g ><use style="fill: none; stroke: #000000; stroke-width: 0.500000; stroke-linejoin: round; stroke-linecap: butt;  opacity: 1.000000" xlink:href="#m9281cae24120827b11d5ea8a7ad3e96b" x="135.771429" y="43.200000"/>
</g></g>
<g id="text2">
<defs>
<path id="c_42baa63129a918535c52adb20d687ea7" d="M12.406250 -8.296875l16.109375 0.000000l0.000000 -55.625000l-17.531250 3.515625l0.000000 -8.984375l17.437500 -3.515625l9.859375 0.000000l0.000000 64.609375l16.109375 0.000000l0.000000 8.296875l-41.984375 0.000000z"/>
</defs>
<g style="fill: #000000; opacity: 1.000000" transform="translate(125.365179,401.706250)scale(0.120000)">
<use xlink:href="#c_42baa63129a918535c52adb20d687ea7"/>
<use xlink:href="#c_7a2040fe3b94fcd41d0a72c84e93b115" x="63.623047"/>
<use xlink:href="#c_7a2040fe3b94fcd41d0a72c84e93b115" x="127.246094"/>
</g>
</g>
</g>
<g id="xtick3">
<g id="line2d7">
<g ><use style="fill: none; stroke: #000000; stroke-width: 0.500000; stroke-linejoin: round; stroke-linecap: butt;  opacity: 1.000000" xlink:href="#m30e32995789d870ad79a2e54c91cf9c6" x="199.542857" y="388.800000"/>
</g></g>
<g id="line2d8">
<g ><use style="fill: none; stroke: #000000; stroke-width: 0.500000; stroke-linejoin: round; stroke-linecap: butt;  opacity: 1.000000" xlink:href="#m9281cae24120827b11d5ea8a7ad3e96b" x="199.542857" y="43.200000"/>
</g></g>
<g id="text3">
<defs>
<path id="c_ed3f3ed3ebfbd18bcb9c012009a68ad1" d="M19.187500 -8.296875l34.421875 0.000000l0.000000 8.296875l-46.281250 0.000000l0.000000 -8.296875q5.609375 -5.812500 15.296875 -15.593750q9.703125 -9.796875 12.187500 -12.640625q4.734375 -5.312500 6.609375 -9.000000q1.890625 -3.687500 1.890625 -7.250000q0.000000 -5.812500 -4.078125 -9.468750q-4.078125 -3.671875 -10.625000 -3.671875q-4.640625 0.000000 -9.796875 1.609375q-5.140625 1.609375 -11.000000 4.890625l0.000000 -9.968750q5.953125 -2.390625 11.125000 -3.609375q5.187500 -1.218750 9.484375 -1.218750q11.328125 0.000000 18.062500 5.671875q6.734375 5.656250 6.734375 15.125000q0.000000 4.500000 -1.687500 8.531250q-1.671875 4.015625 -6.125000 9.484375q-1.218750 1.421875 -7.765625 8.187500q-6.531250 6.765625 -18.453125 18.921875"/>
</defs>
<g style="fill: #000000; opacity: 1.000000" transform="translate(188.917857,401.706250)scale(0.120000)">
<use xlink:href="#c_ed3f3ed3ebfbd18bcb9c012009a68ad1"/>
<use xlink:href="#c_7a2040fe3b94fcd41d0a72c84e93b115" x="63.623047"/>
<use xlink:href="#c_7a2040fe3b94fcd41d0a72c84e93b115" x="127.246094"/>
</g>
</g>
</g>
<g id="xtick4">
<g id="line2d9">
<g ><use style="fill: none; stroke: #000000; stroke-width: 0.500000; stroke-linejoin: round; stroke-linecap: butt;  opacity: 1.000000" xlink:href="#m30e32995789d870ad79a2e54c91cf9c6" x="263.314286" y="388.800000"/>
</g></g>
<g id="line2d10">
<g ><use style="fill: none; stroke: #000000; stroke-width: 0.500000; stroke-linejoin: round; stroke-linecap: butt;  opacity: 1.000000" xlink:href="#m9281cae24120827b11d5ea8a7ad3e96b" x="263.314286" y="43.200000"/>
</g></g>
<g id="text4">
<defs>
<path id="c_3dcfa38a02242cb63ec6726c6e70be7a" d="M40.578125 -39.312500q7.078125 1.515625 11.046875 6.312500q3.984375 4.781250 3.984375 11.812500q0.000000 10.781250 -7.421875 16.703125q-7.421875 5.906250 -21.093750 5.906250q-4.578125 0.000000 -9.437500 -0.906250q-4.859375 -0.906250 -10.031250 -2.718750l0.000000 -9.515625q4.093750 2.390625 8.968750 3.609375q4.890625 1.218750 10.218750 1.218750q9.265625 0.000000 14.125000 -3.656250q4.859375 -3.656250 4.859375 -10.640625q0.000000 -6.453125 -4.515625 -10.078125q-4.515625 -3.640625 -12.562500 -3.640625l-8.500000 0.000000l0.000000 -8.109375l8.890625 0.000000q7.265625 0.000000 11.125000 -2.906250q3.859375 -2.906250 3.859375 -8.375000q0.000000 -5.609375 -3.984375 -8.609375q-3.968750 -3.015625 -11.390625 -3.015625q-4.062500 0.000000 -8.703125 0.890625q-4.640625 0.875000 -10.203125 2.718750l0.000000 -8.781250q5.625000 -1.562500 10.531250 -2.343750q4.906250 -0.781250 9.250000 -0.781250q11.234375 0.000000 17.765625 5.109375q6.546875 5.093750 6.546875 13.781250q0.000000 6.062500 -3.468750 10.234375q-3.468750 4.171875 -9.859375 5.781250"/>
</defs>
<g style="fill: #000000; opacity: 1.000000" transform="translate(252.712723,401.706250)scale(0.120000)">
<use xlink:href="#c_3dcfa38a02242cb63ec6726c6e70be7a"/>
<use xlink:href="#c_7a2040fe3b94fcd41d0a72c84e93b115" x="63.623047"/>
<use xlink:href="#c_7a2040fe3b94fcd41d0a72c84e93b115" x="127.246094"/>
</g>
</g>
</g>
<g id="xtick5">
<g id="line2d11">
<g ><use style="fill: none; stroke: #000000; stroke-width: 0.500000; stroke-linejoin: round; stroke-linecap: butt;  opacity: 1.000000" xlink:href="#m30e32995789d870ad79a2e54c91cf9c6" x="327.085714" y="388.800000"/>
</g></g>
<g id="line2d12">
<g ><use style="fill: none; stroke: #000000; stroke-width: 0.500000; stroke-linejoin: round; stroke-linecap: butt;  opacity: 1.000000" xlink:href="#m9281cae24120827b11d5ea8a7ad3e96b" x="327.085714" y="43.200000"/>
</g></g>
<g id="text5">
<defs>
<path id="c_a0416418d96557a09b8c1332d34883ba" d="M37.796875 -64.312500l-24.906250 38.921875l24.906250 0.000000zM35.203125 -72.906250l12.406250 0.000000l0.000000 47.515625l10.406250 0.000000l0.000000 8.203125l-10.406250 0.000000l0.000000 17.187500l-9.812500 0.000000l0.000000 -17.187500l-32.906250 0.000000l0.000000 -9.515625z"/>
</defs>
<g style="fill: #000000; opacity: 1.000000" transform="translate(316.320089,401.706250)scale(0.120000)">
<use xlink:href="#c_a0416418d96557a09b8c1332d34883ba"/>
<use xlink:href="#c_7a2040fe3b94fcd41d0a72c84e93b115" x="63.623047"/>
<use xlink:href="#c_7a2040fe3b94fcd41d0a72c84e93b115" x="127.246094"/>
</g>
</g>
</g>
<g id="xtick6">
<g id="line2d13">
<g ><use style="fill: none; stroke: #000000; stroke-width: 0.500000; stroke-linejoin: round; stroke-linecap: butt;  opacity: 1.000000" xlink:href="#m30e32995789d870ad79a2e54c91cf9c6" x="390.857143" y="388.800000"/>
</g></g>
<g id="line2d14">
<g ><use style="fill: none; stroke: #000000; stroke-width: 0.500000; stroke-linejoin: round; stroke-linecap: butt;  opacity: 1.000000" xlink:href="#m9281cae24120827b11d5ea8a7ad3e96b" x="390.857143" y="43.200000"/>
</g></g>
<g id="text6">
<defs>
<path id="c_1260a2df50f305f3db244e29828f968e" d="M10.796875 -72.906250l38.718750 0.000000l0.000000 8.312500l-29.687500 0.000000l0.000000 17.859375q2.140625 -0.734375 4.281250 -1.093750q2.156250 -0.359375 4.312500 -0.359375q12.203125 0.000000 19.328125 6.687500q7.140625 6.687500 7.140625 18.109375q0.000000 11.765625 -7.328125 18.296875q-7.328125 6.515625 -20.656250 6.515625q-4.593750 0.000000 -9.359375 -0.781250q-4.750000 -0.781250 -9.828125 -2.343750l0.000000 -9.921875q4.390625 2.390625 9.078125 3.562500q4.687500 1.171875 9.906250 1.171875q8.453125 0.000000 13.375000 -4.437500q4.937500 -4.437500 4.937500 -12.062500q0.000000 -7.609375 -4.937500 -12.046875q-4.921875 -4.453125 -13.375000 -4.453125q-3.953125 0.000000 -7.890625 0.875000q-3.921875 0.875000 -8.015625 2.734375z"/>
</defs>
<g style="fill: #000000; opacity: 1.000000" transform="translate(380.255580,401.706250)scale(0.120000)">
<use xlink:href="#c_1260a2df50f305f3db244e29828f968e"/>
<use xlink:href="#c_7a2040fe3b94fcd41d0a72c84e93b115" x="63.623047"/>
<use xlink:href="#c_7a2040fe3b94fcd41d0a72c84e93b115" x="127.246094"/>
</g>
</g>
</g>
<g id="xtick7">
<g id="line2d15">
<g ><use style="fill: none; stroke: #000000; stroke-width: 0.500000; stroke-linejoin: round; stroke-linecap: butt;  opacity: 1.000000" xlink:href="#m30e32995789d870ad79a2e54c91cf9c6" x="454.628571" y="388.800000"/>
</g></g>
<g id="line2d16">
<g ><use style="fill: none; stroke: #000000; stroke-width: 0.500000; stroke-linejoin: round; stroke-linecap: butt;  opacity: 1.000000" xlink:href="#m9281cae24120827b11d5ea8a7ad3e96b" x="454.628571" y="43.200000"/>
</g></g>
<g id="text7">
<defs>
<path id="c_cc8d6d580d1b10c8632f7a42cd53db8a" d="M33.015625 -40.375000q-6.640625 0.000000 -10.531250 4.546875q-3.875000 4.531250 -3.875000 12.437500q0.000000 7.859375 3.875000 12.437500q3.890625 4.562500 10.531250 4.562500q6.640625 0.000000 10.515625 -4.562500q3.875000 -4.578125 3.875000 -12.437500q0.000000 -7.906250 -3.875000 -12.437500q-3.875000 -4.546875 -10.515625 -4.546875M52.593750 -71.296875l0.000000 8.984375q-3.718750 -1.750000 -7.500000 -2.671875q-3.781250 -0.937500 -7.500000 -0.937500q-9.765625 0.000000 -14.921875 6.593750q-5.140625 6.593750 -5.875000 19.921875q2.875000 -4.250000 7.218750 -6.515625q4.359375 -2.265625 9.578125 -2.265625q10.984375 0.000000 17.359375 6.671875q6.375000 6.656250 6.375000 18.125000q0.000000 11.234375 -6.640625 18.031250q-6.640625 6.781250 -17.671875 6.781250q-12.656250 0.000000 -19.343750 -9.687500q-6.687500 -9.703125 -6.687500 -28.109375q0.000000 -17.281250 8.203125 -27.562500q8.203125 -10.281250 22.015625 -10.281250q3.718750 0.000000 7.500000 0.734375q3.781250 0.734375 7.890625 2.187500"/>
</defs>
<g style="fill: #000000; opacity: 1.000000" transform="translate(443.987946,401.706250)scale(0.120000)">
<use xlink:href="#c_cc8d6d580d1b10c8632f7a42cd53db8a"/>
<use xlink:href="#c_7a2040fe3b94fcd41d0a72c84e93b115" x="63.623047"/>
<use xlink:href="#c_7a2040fe3b94fcd41d0a72c84e93b115" x="127.246094"/>
</g>
</g>
</g>
<g id="xtick8">
<g id="line2d17">
<g ><use style="fill: none; stroke: #000000; stroke-width: 0.500000; stroke-linejoin: round; stroke-linecap: butt;  opacity: 1.000000" xlink:href="#m30e32995789d870ad79a2e54c91cf9c6" x="518.400000" y="388.800000"/>
</g></g>
<g id="line2d18">
<g ><use style="fill: none; stroke: #000000; stroke-width: 0.500000; stroke-linejoin: round; stroke-linecap: butt;  opacity: 1.000000" xlink:href="#m9281cae24120827b11d5ea8a7ad3e96b" x="518.400000" y="43.200000"/>
</g></g>
<g id="text8">
<defs>
<path id="c_956f18cfdaf972f35a6c2b4aaac2532b" d="M8.203125 -72.906250l46.875000 0.000000l0.000000 4.203125l-26.468750 68.703125l-10.296875 0.000000l24.906250 -64.593750l-35.015625 0.000000z"/>
</defs>
<g style="fill: #000000; opacity: 1.000000" transform="translate(507.829687,401.706250)scale(0.120000)">
<use xlink:href="#c_956f18cfdaf972f35a6c2b4aaac2532b"/>
<use xlink:href="#c_7a2040fe3b94fcd41d0a72c84e93b115" x="63.623047"/>
<use xlink:href="#c_7a2040fe3b94fcd41d0a72c84e93b115" x="127.246094"/>
</g>
</g>
</g>
<g id="text9">
<defs>
<path id="c_9e4b30cbdf32072672ded72e9074c4c9" d="M-0.296875 -72.906250l61.671875 0.000000l0.000000 8.312500l-25.875000 0.000000l0.000000 64.593750l-9.906250 0.000000l0.000000 -64.593750l-25.890625 0.000000z"/>
<path id="c_6a63bda47b2f3da1cec6aadd80692cfe" d="M9.421875 -54.687500l8.984375 0.000000l0.000000 54.687500l-8.984375 0.000000zM9.421875 -75.984375l8.984375 0.000000l0.000000 11.390625l-8.984375 0.000000z"/>
<path id="c_4653c6dfde66c7610eae0911760d3490" d="M52.000000 -44.187500q3.375000 -6.062500 8.062500 -8.937500q4.687500 -2.875000 11.031250 -2.875000q8.546875 0.000000 13.187500 5.984375q4.640625 5.968750 4.640625 17.000000l0.000000 33.015625l-9.031250 0.000000l0.000000 -32.718750q0.000000 -7.859375 -2.796875 -11.656250q-2.781250 -3.812500 -8.484375 -3.812500q-6.984375 0.000000 -11.046875 4.640625q-4.046875 4.625000 -4.046875 12.640625l0.000000 30.906250l-9.031250 0.000000l0.000000 -32.718750q0.000000 -7.906250 -2.781250 -11.687500q-2.781250 -3.781250 -8.593750 -3.781250q-6.890625 0.000000 -10.953125 4.656250q-4.046875 4.656250 -4.046875 12.625000l0.000000 30.906250l-9.031250 0.000000l0.000000 -54.687500l9.031250 0.000000l0.000000 8.500000q3.078125 -5.031250 7.375000 -7.421875q4.296875 -2.390625 10.203125 -2.390625q5.968750 0.000000 10.140625 3.031250q4.171875 3.015625 6.171875 8.781250"/>
<path id="c_0bce5afba2dc6b9024b26277c38ad8e8" d="M56.203125 -29.593750l0.000000 4.390625l-41.312500 0.000000q0.593750 9.281250 5.593750 14.140625q5.000000 4.859375 13.937500 4.859375q5.171875 0.000000 10.031250 -1.265625q4.859375 -1.265625 9.656250 -3.812500l0.000000 8.500000q-4.843750 2.046875 -9.921875 3.125000q-5.078125 1.078125 -10.296875 1.078125q-13.093750 0.000000 -20.734375 -7.609375q-7.640625 -7.625000 -7.640625 -20.625000q0.000000 -13.421875 7.250000 -21.296875q7.250000 -7.890625 19.562500 -7.890625q11.031250 0.000000 17.453125 7.109375q6.421875 7.093750 6.421875 19.296875M47.218750 -32.234375q-0.093750 -7.359375 -4.125000 -11.750000q-4.031250 -4.406250 -10.671875 -4.406250q-7.515625 0.000000 -12.031250 4.250000q-4.515625 4.250000 -5.203125 11.968750z"/>
<path id="c_d41d8cd98f00b204e9800998ecf8427e" d=""/>
<path id="c_7efa9804c2b4c09a4b614b91fdebee3d" d="M31.000000 -75.875000q-6.531250 11.218750 -9.718750 22.218750q-3.171875 10.984375 -3.171875 22.265625q0.000000 11.265625 3.203125 22.328125q3.203125 11.062500 9.687500 22.250000l-7.812500 0.000000q-7.312500 -11.484375 -10.953125 -22.562500q-3.640625 -11.078125 -3.640625 -22.015625q0.000000 -10.890625 3.609375 -21.921875q3.625000 -11.046875 10.984375 -22.562500z"/>
<path id="c_9c6d5cbc59c6231647eb409cc6b37bb3" d="M25.390625 -72.906250l8.296875 0.000000l-25.390625 82.187500l-8.296875 0.000000z"/>
<path id="c_0f8c41144cfbf448378cb6fd1cc8e549" d="M18.312500 -70.218750l0.000000 15.531250l18.500000 0.000000l0.000000 6.984375l-18.500000 0.000000l0.000000 29.687500q0.000000 6.687500 1.828125 8.593750q1.828125 1.906250 7.453125 1.906250l9.218750 0.000000l0.000000 7.515625l-9.218750 0.000000q-10.406250 0.000000 -14.359375 -3.875000q-3.953125 -3.890625 -3.953125 -14.140625l0.000000 -29.687500l-6.593750 0.000000l0.000000 -6.984375l6.593750 0.000000l0.000000 -15.531250z"/>
<path id="c_74d54c94aa871ec39e2bc6697dde6c00" d="M54.890625 -33.015625l0.000000 33.015625l-8.984375 0.000000l0.000000 -32.718750q0.000000 -7.765625 -3.031250 -11.609375q-3.031250 -3.859375 -9.078125 -3.859375q-7.281250 0.000000 -11.484375 4.640625q-4.203125 4.625000 -4.203125 12.640625l0.000000 30.906250l-9.031250 0.000000l0.000000 -75.984375l9.031250 0.000000l0.000000 29.796875q3.234375 -4.937500 7.593750 -7.375000q4.375000 -2.437500 10.093750 -2.437500q9.421875 0.000000 14.250000 5.828125q4.843750 5.828125 4.843750 17.156250"/>
<path id="c_8e0810ad13fe20a2a87a2619799b154d" d="M44.281250 -53.078125l0.000000 8.500000q-3.796875 -1.953125 -7.906250 -2.921875q-4.093750 -0.984375 -8.500000 -0.984375q-6.687500 0.000000 -10.031250 2.046875q-3.343750 2.046875 -3.343750 6.156250q0.000000 3.125000 2.390625 4.906250q2.390625 1.781250 9.625000 3.390625l3.078125 0.687500q9.562500 2.046875 13.593750 5.781250q4.031250 3.734375 4.031250 10.421875q0.000000 7.625000 -6.031250 12.078125q-6.031250 4.437500 -16.578125 4.437500q-4.390625 0.000000 -9.156250 -0.859375q-4.765625 -0.859375 -10.031250 -2.562500l0.000000 -9.281250q4.984375 2.593750 9.812500 3.890625q4.828125 1.281250 9.578125 1.281250q6.343750 0.000000 9.750000 -2.171875q3.421875 -2.171875 3.421875 -6.125000q0.000000 -3.656250 -2.468750 -5.609375q-2.453125 -1.953125 -10.812500 -3.765625l-3.125000 -0.734375q-8.343750 -1.750000 -12.062500 -5.390625q-3.703125 -3.640625 -3.703125 -9.984375q0.000000 -7.718750 5.468750 -11.906250q5.468750 -4.203125 15.531250 -4.203125q4.968750 0.000000 9.359375 0.734375q4.406250 0.718750 8.109375 2.187500"/>
<path id="c_e96974be642f6eac0427d72f9cec6c19" d="M8.015625 -75.875000l7.812500 0.000000q7.312500 11.515625 10.953125 22.562500q3.640625 11.031250 3.640625 21.921875q0.000000 10.937500 -3.640625 22.015625q-3.640625 11.078125 -10.953125 22.562500l-7.812500 0.000000q6.484375 -11.187500 9.687500 -22.250000q3.203125 -11.062500 3.203125 -22.328125q0.000000 -11.281250 -3.203125 -22.265625q-3.203125 -11.000000 -9.687500 -22.218750"/>
</defs>
<g style="fill: #000000; opacity: 1.000000" transform="translate(249.754687,416.003125)scale(0.120000)">
<use xlink:href="#c_9e4b30cbdf32072672ded72e9074c4c9"/>
<use xlink:href="#c_6a63bda47b2f3da1cec6aadd80692cfe" x="57.958984"/>
<use xlink:href="#c_4653c6dfde66c7610eae0911760d3490" x="85.742187"/>
<use xlink:href="#c_0bce5afba2dc6b9024b26277c38ad8e8" x="183.154297"/>
<use xlink:href="#c_d41d8cd98f00b204e9800998ecf8427e" x="244.677734"/>
<use xlink:href="#c_7efa9804c2b4c09a4b614b91fdebee3d" x="276.464844"/>
<use xlink:href="#c_42baa63129a918535c52adb20d687ea7" x="315.478516"/>
<use xlink:href="#c_9c6d5cbc59c6231647eb409cc6b37bb3" x="379.101562"/>
<use xlink:href="#c_42baa63129a918535c52adb20d687ea7" x="412.792969"/>
<use xlink:href="#c_7a2040fe3b94fcd41d0a72c84e93b115" x="476.416016"/>
<use xlink:href="#c_0f8c41144cfbf448378cb6fd1cc8e549" x="540.039062"/>
<use xlink:href="#c_74d54c94aa871ec39e2bc6697dde6c00" x="579.248047"/>
<use xlink:href="#c_d41d8cd98f00b204e9800998ecf8427e" x="642.626953"/>
<use xlink:href="#c_8e0810ad13fe20a2a87a2619799b154d" x="674.414062"/>
<use xlink:href="#c_e96974be642f6eac0427d72f9cec6c19" x="726.513672"/>
</g>
</g>
</g>
<g id="matplotlib.axis2">
<g id="ytick1">
<g id="line2d19">
<defs><path id="m3400efa6b1638b3fea9e19e898273957" d="M0.000000 0.000000L4.000000 0.000000"/></defs>
<g ><use style="fill: none; stroke: #000000; stroke-width: 0.500000; stroke-linejoin: round; stroke-linecap: butt;  opacity: 1.000000" xlink:href="#m3400efa6b1638b3fea9e19e898273957" x="72.000000" y="388.800000"/>
</g></g>
<g id="line2d20">
<defs><path id="m20b58b2501143cb5e0a5e8f1ef6f1643" d="M0.000000 0.000000L-4.000000 0.000000"/></defs>
<g ><use style="fill: none; stroke: #000000; stroke-width: 0.500000; stroke-linejoin: round; stroke-linecap: butt;  opacity: 1.000000" xlink:href="#m20b58b2501143cb5e0a5e8f1ef6f1643" x="518.400000" y="388.800000"/>
</g></g>
<g id="text10">
<defs>
<path id="c_6a8d56c819c37117ab4cf023bec22a5a" d="M10.593750 -35.500000l62.593750 0.000000l0.000000 8.296875l-62.593750 0.000000z"/>
</defs>
<g style="fill: #000000; opacity: 1.000000" transform="translate(37.078125,393.167188)scale(0.120000)">
<use xlink:href="#c_6a8d56c819c37117ab4cf023bec22a5a"/>
<use xlink:href="#c_42baa63129a918535c52adb20d687ea7" x="83.789062"/>
<use xlink:href="#c_7a2040fe3b94fcd41d0a72c84e93b115" x="147.412109"/>
<use xlink:href="#c_7a2040fe3b94fcd41d0a72c84e93b115" x="211.035156"/>
</g>
</g>
</g>
<g id="ytick2">
<g id="line2d21">
<g ><use style="fill: none; stroke: #000000; stroke-width: 0.500000; stroke-linejoin: round; stroke-linecap: butt;  opacity: 1.000000" xlink:href="#m3400efa6b1638b3fea9e19e898273957" x="72.000000" y="302.400000"/>
</g></g>
<g id="line2d22">
<g ><use style="fill: none; stroke: #000000; stroke-width: 0.500000; stroke-linejoin: round; stroke-linecap: butt;  opacity: 1.000000" xlink:href="#m20b58b2501143cb5e0a5e8f1ef6f1643" x="518.400000" y="302.400000"/>
</g></g>
<g id="text11">
<g style="fill: #000000; opacity: 1.000000" transform="translate(44.718750,306.767187)scale(0.120000)">
<use xlink:href="#c_6a8d56c819c37117ab4cf023bec22a5a"/>
<use xlink:href="#c_1260a2df50f305f3db244e29828f968e" x="83.789062"/>
<use xlink:href="#c_7a2040fe3b94fcd41d0a72c84e93b115" x="147.412109"/>
</g>
</g>
</g>
<g id="ytick3">
<g id="line2d23">
<g ><use style="fill: none; stroke: #000000; stroke-width: 0.500000; stroke-linejoin: round; stroke-linecap: butt;  opacity: 1.000000" xlink:href="#m3400efa6b1638b3fea9e19e898273957" x="72.000000" y="216.000000"/>
</g></g>
<g id="line2d24">
<g ><use style="fill: none; stroke: #000000; stroke-width: 0.500000; stroke-linejoin: round; stroke-linecap: butt;  opacity: 1.000000" xlink:href="#m20b58b2501143cb5e0a5e8f1ef6f1643" x="518.400000" y="216.000000"/>
</g></g>
<g id="text12">
<g style="fill: #000000; opacity: 1.000000" transform="translate(61.953125,220.367188)scale(0.120000)">
<use xlink:href="#c_7a2040fe3b94fcd41d0a72c84e93b115"/>
</g>
</g>
</g>
<g id="ytick4">
<g id="line2d25">
<g ><use style="fill: none; stroke: #000000; stroke-width: 0.500000; stroke-linejoin: round; stroke-linecap: butt;  opacity: 1.000000" xlink:href="#m3400efa6b1638b3fea9e19e898273957" x="72.000000" y="129.600000"/>
</g></g>
<g id="line2d26">
<g ><use style="fill: none; stroke: #000000; stroke-width: 0.500000; stroke-linejoin: round; stroke-linecap: butt;  opacity: 1.000000" xlink:href="#m20b58b2501143cb5e0a5e8f1ef6f1643" x="518.400000" y="129.600000"/>
</g></g>
<g id="text13">
<g style="fill: #000000; opacity: 1.000000" transform="translate(54.437500,133.967187)scale(0.120000)">
<use xlink:href="#c_1260a2df50f305f3db244e29828f968e"/>
<use xlink:href="#c_7a2040fe3b94fcd41d0a72c84e93b115" x="63.623047"/>
</g>
</g>
</g>
<g id="ytick5">
<g id="line2d27">
<g ><use style="fill: none; stroke: #000000; stroke-width: 0.500000; stroke-linejoin: round; stroke-linecap: butt;  opacity: 1.000000" xlink:href="#m3400efa6b1638b3fea9e19e898273957" x="72.000000" y="43.200000"/>
</g></g>
<g id="line2d28">
<g ><use style="fill: none; stroke: #000000; stroke-width: 0.500000; stroke-linejoin: round; stroke-linecap: butt;  opacity: 1.000000" xlink:href="#m20b58b2501143cb5e0a5e8f1ef6f1643" x="518.400000" y="43.200000"/>
</g></g>
<g id="text14">
<g style="fill: #000000; opacity: 1.000000" transform="translate(47.187500,47.567187)scale(0.120000)">
<use xlink:href="#c_42baa63129a918535c52adb20d687ea7"/>
<use xlink:href="#c_7a2040fe3b94fcd41d0a72c84e93b115" x="63.623047"/>
<use xlink:href="#c_7a2040fe3b94fcd41d0a72c84e93b115" x="127.246094"/>
</g>
</g>
</g>
<g id="text15">
<defs>
<path id="c_ff9441f72805bc441fcb0bfe0d774f13" d="M19.671875 -64.796875l0.000000 56.687500l11.921875 0.000000q15.093750 0.000000 22.093750 -6.828125q7.000000 -6.843750 7.000000 -21.593750q0.000000 -14.640625 -7.000000 -21.453125q-7.000000 -6.812500 -22.093750 -6.812500zM9.812500 -72.906250l20.265625 0.000000q21.187500 0.000000 31.093750 8.812500q9.921875 8.812500 9.921875 27.562500q0.000000 18.859375 -9.968750 27.703125q-9.953125 8.828125 -31.046875 8.828125l-20.265625 0.000000z"/>
<path id="c_01d93a582460e35a7945ca50d148ffeb" d="M34.281250 -27.484375q-10.890625 0.000000 -15.093750 2.484375q-4.203125 2.484375 -4.203125 8.500000q0.000000 4.781250 3.156250 7.593750q3.156250 2.796875 8.562500 2.796875q7.484375 0.000000 12.000000 -5.296875q4.515625 -5.296875 4.515625 -14.078125l0.000000 -2.000000zM52.203125 -31.203125l0.000000 31.203125l-8.984375 0.000000l0.000000 -8.296875q-3.078125 4.968750 -7.671875 7.343750q-4.593750 2.375000 -11.234375 2.375000q-8.390625 0.000000 -13.359375 -4.718750q-4.953125 -4.718750 -4.953125 -12.625000q0.000000 -9.218750 6.171875 -13.906250q6.187500 -4.687500 18.437500 -4.687500l12.609375 0.000000l0.000000 -0.890625q0.000000 -6.203125 -4.078125 -9.593750q-4.078125 -3.390625 -11.453125 -3.390625q-4.687500 0.000000 -9.140625 1.125000q-4.437500 1.125000 -8.531250 3.375000l0.000000 -8.312500q4.921875 -1.906250 9.562500 -2.843750q4.640625 -0.953125 9.031250 -0.953125q11.875000 0.000000 17.734375 6.156250q5.859375 6.140625 5.859375 18.640625"/>
</defs>
<g style="fill: #000000; opacity: 1.000000" transform="translate(32.078125,229.023438)rotate(-90.0)scale(0.120000)">
<use xlink:href="#c_ff9441f72805bc441fcb0bfe0d774f13"/>
<use xlink:href="#c_01d93a582460e35a7945ca50d148ffeb" x="77.001953"/>
<use xlink:href="#c_0f8c41144cfbf448378cb6fd1cc8e549" x="138.281250"/>
<use xlink:href="#c_01d93a582460e35a7945ca50d148ffeb" x="177.490234"/>
</g>
</g>
</g>
<g id="patch3">
<path style="fill: none; stroke: #000000; stroke-width: 1.000000; stroke-linejoin: round; stroke-linecap: square;  opacity: 1.000000"  d="M72.000000 43.200000L518.400000 43.200000"/>
</g>
<g id="patch4">
<path style="fill: none; stroke: #000000; stroke-width: 1.000000; stroke-linejoin: round; stroke-linecap: square;  opacity: 1.000000"  d="M518.400000 388.800000L518.400000 43.200000"/>
</g>
<g id="patch5">
<path style="fill: none; stroke: #000000; stroke-width: 1.000000; stroke-linejoin: round; stroke-linecap: square;  opacity: 1.000000"  d="M72.000000 388.800000L518.400000 388.800000"/>
</g>
<g id="patch6">
<path style="fill: none; stroke: #000000; stroke-width: 1.000000; stroke-linejoin: round; stroke-linecap: square;  opacity: 1.000000"  d="M72.000000 388.800000L72.000000 43.200000"/>
</g>
<g id="text16">
<defs>
<path id="c_518d586bee075aa0153eaebfcb5ab11f" d="M19.671875 -64.796875l0.000000 27.390625l12.406250 0.000000q6.890625 0.000000 10.640625 -3.562500q3.765625 -3.562500 3.765625 -10.156250q0.000000 -6.546875 -3.765625 -10.109375q-3.750000 -3.562500 -10.640625 -3.562500zM9.812500 -72.906250l22.265625 0.000000q12.265625 0.000000 18.531250 5.546875q6.281250 5.546875 6.281250 16.234375q0.000000 10.796875 -6.281250 16.312500q-6.265625 5.515625 -18.531250 5.515625l-12.406250 0.000000l0.000000 29.296875l-9.859375 0.000000z"/>
<path id="c_d650c37394b681142a10dfc54356d478" d="M48.781250 -52.593750l0.000000 8.406250q-3.812500 -2.109375 -7.640625 -3.156250q-3.828125 -1.046875 -7.734375 -1.046875q-8.750000 0.000000 -13.593750 5.546875q-4.828125 5.531250 -4.828125 15.546875q0.000000 10.015625 4.828125 15.562500q4.843750 5.531250 13.593750 5.531250q3.906250 0.000000 7.734375 -1.046875q3.828125 -1.046875 7.640625 -3.156250l0.000000 8.312500q-3.765625 1.750000 -7.796875 2.625000q-4.015625 0.890625 -8.562500 0.890625q-12.359375 0.000000 -19.640625 -7.765625q-7.265625 -7.765625 -7.265625 -20.953125q0.000000 -13.375000 7.343750 -21.031250q7.359375 -7.671875 20.156250 -7.671875q4.140625 0.000000 8.093750 0.859375q3.953125 0.843750 7.671875 2.546875"/>
<path id="c_dcb78ab3124be785176d70a27dde1356" d="M9.078125 -75.984375l9.031250 0.000000l0.000000 44.875000l26.812500 -23.578125l11.468750 0.000000l-29.000000 25.578125l30.234375 29.109375l-11.718750 0.000000l-27.796875 -26.703125l0.000000 26.703125l-9.031250 0.000000z"/>
<path id="c_425fd1cbcd899bef0a79975ae4756bf8" d="M19.671875 -34.812500l0.000000 26.703125l15.828125 0.000000q7.953125 0.000000 11.781250 -3.296875q3.843750 -3.296875 3.843750 -10.078125q0.000000 -6.843750 -3.843750 -10.078125q-3.828125 -3.250000 -11.781250 -3.250000zM19.671875 -64.796875l0.000000 21.968750l14.609375 0.000000q7.218750 0.000000 10.750000 -2.703125q3.546875 -2.718750 3.546875 -8.281250q0.000000 -5.515625 -3.546875 -8.250000q-3.531250 -2.734375 -10.750000 -2.734375zM9.812500 -72.906250l25.203125 0.000000q11.281250 0.000000 17.375000 4.687500q6.109375 4.687500 6.109375 13.328125q0.000000 6.703125 -3.125000 10.656250q-3.125000 3.953125 -9.187500 4.921875q7.281250 1.562500 11.312500 6.531250q4.031250 4.953125 4.031250 12.375000q0.000000 9.765625 -6.640625 15.093750q-6.640625 5.312500 -18.906250 5.312500l-26.171875 0.000000z"/>
<path id="c_f05dd90d41f04bb96ef1ca503cc2044b" d="M30.609375 -48.390625q-7.218750 0.000000 -11.421875 5.640625q-4.203125 5.640625 -4.203125 15.453125q0.000000 9.812500 4.171875 15.453125q4.187500 5.640625 11.453125 5.640625q7.187500 0.000000 11.375000 -5.656250q4.203125 -5.671875 4.203125 -15.437500q0.000000 -9.718750 -4.203125 -15.406250q-4.187500 -5.687500 -11.375000 -5.687500M30.609375 -56.000000q11.718750 0.000000 18.406250 7.625000q6.703125 7.609375 6.703125 21.078125q0.000000 13.421875 -6.703125 21.078125q-6.687500 7.640625 -18.406250 7.640625q-11.765625 0.000000 -18.437500 -7.640625q-6.656250 -7.656250 -6.656250 -21.078125q0.000000 -13.468750 6.656250 -21.078125q6.671875 -7.625000 18.437500 -7.625000"/>
<path id="c_c48ceabac27bf136feba2f4bf2716ab6" d="M2.984375 -54.687500l9.515625 0.000000l17.093750 45.890625l17.093750 -45.890625l9.515625 0.000000l-20.515625 54.687500l-12.203125 0.000000z"/>
<path id="c_ed3e21196fb739f392806f09ca0594ef" d="M10.687500 -12.406250l10.312500 0.000000l0.000000 12.406250l-10.312500 0.000000z"/>
</defs>
<g style="fill: #000000; opacity: 1.000000" transform="translate(215.004687,37.996875)scale(0.144000)">
<use xlink:href="#c_518d586bee075aa0153eaebfcb5ab11f"/>
<use xlink:href="#c_01d93a582460e35a7945ca50d148ffeb" x="55.802734"/>
<use xlink:href="#c_d650c37394b681142a10dfc54356d478" x="117.082031"/>
<use xlink:href="#c_dcb78ab3124be785176d70a27dde1356" x="172.062500"/>
<use xlink:href="#c_425fd1cbcd899bef0a79975ae4756bf8" x="229.972656"/>
<use xlink:href="#c_f05dd90d41f04bb96ef1ca503cc2044b" x="298.576172"/>
<use xlink:href="#c_0f8c41144cfbf448378cb6fd1cc8e549" x="359.757812"/>
<use xlink:href="#c_d41d8cd98f00b204e9800998ecf8427e" x="398.966797"/>
<use xlink:href="#c_ff9441f72805bc441fcb0bfe0d774f13" x="430.753906"/>
<use xlink:href="#c_01d93a582460e35a7945ca50d148ffeb" x="507.755859"/>
<use xlink:href="#c_0f8c41144cfbf448378cb6fd1cc8e549" x="569.035156"/>
<use xlink:href="#c_01d93a582460e35a7945ca50d148ffeb" x="608.244141"/>
<use xlink:href="#c_d41d8cd98f00b204e9800998ecf8427e" x="669.523438"/>
<use xlink:href="#c_c48ceabac27bf136feba2f4bf2716ab6" x="701.310547"/>
<use xlink:href="#c_8e0810ad13fe20a2a87a2619799b154d" x="760.490234"/>
<use xlink:href="#c_ed3e21196fb739f392806f09ca0594ef" x="812.589844"/>
<use xlink:href="#c_d41d8cd98f00b204e9800998ecf8427e" x="844.376953"/>
<use xlink:href="#c_9e4b30cbdf32072672ded72e9074c4c9" x="876.164062"/>
<use xlink:href="#c_6a63bda47b2f3da1cec6aadd80692cfe" x="934.123047"/>
<use xlink:href="#c_4653c6dfde66c7610eae0911760d3490" x="961.906250"/>
<use xlink:href="#c_0bce5afba2dc6b9024b26277c38ad8e8" x="1059.318359"/>
</g>
</g>
</g>
<g id="legend1">
<g id="patch7">
<path style="fill: #ffffff; stroke: #000000; stroke-width: 1.000000; stroke-linejoin: round; stroke-linecap: square;  opacity: 1.000000"  d="M371.866250 53.013750L568.800000 53.013750L568.800000 7.200000
L371.866250 7.200000L371.866250 53.013750z"/>
</g>
<g id="line2d29">
<path style="fill: none; stroke: #0000ff; stroke-width: 1.000000; stroke-linejoin: round; stroke-linecap: square;  opacity: 1.000000"  d="M381.946250 18.560625L402.106250 18.560625"/>
</g>
<g id="line2d30">
</g>
<g id="text17">
<defs>
<path id="c_07e3f33241aff50afcba519606f2a979" d="M9.812500 -72.906250l9.859375 0.000000l0.000000 64.609375l35.500000 0.000000l0.000000 8.296875l-45.359375 0.000000z"/>
<path id="c_fe791a90f5471e2ab20a5ed41a7fa451" d="M54.890625 -33.015625l0.000000 33.015625l-8.984375 0.000000l0.000000 -32.718750q0.000000 -7.765625 -3.031250 -11.609375q-3.031250 -3.859375 -9.078125 -3.859375q-7.281250 0.000000 -11.484375 4.640625q-4.203125 4.625000 -4.203125 12.640625l0.000000 30.906250l-9.031250 0.000000l0.000000 -54.687500l9.031250 0.000000l0.000000 8.500000q3.234375 -4.937500 7.593750 -7.375000q4.375000 -2.437500 10.093750 -2.437500q9.421875 0.000000 14.250000 5.828125q4.843750 5.828125 4.843750 17.156250"/>
<path id="c_6ec8d5749226675394676a5d2a3b468b" d="M41.109375 -46.296875q-1.515625 -0.875000 -3.296875 -1.281250q-1.781250 -0.421875 -3.921875 -0.421875q-7.625000 0.000000 -11.703125 4.953125q-4.078125 4.953125 -4.078125 14.234375l0.000000 28.812500l-9.031250 0.000000l0.000000 -54.687500l9.031250 0.000000l0.000000 8.500000q2.843750 -4.984375 7.375000 -7.390625q4.546875 -2.421875 11.046875 -2.421875q0.921875 0.000000 2.046875 0.125000q1.125000 0.109375 2.484375 0.359375z"/>
<path id="c_ae70b0af174184799fa4976b9c5da571" d="M28.609375 -0.000000l-27.828125 -72.906250l10.296875 0.000000l23.109375 61.375000l23.140625 -61.375000l10.250000 0.000000l-27.781250 72.906250z"/>
<path id="c_5099edb83619131346ae654950954dea" d="M9.421875 -75.984375l8.984375 0.000000l0.000000 75.984375l-8.984375 0.000000z"/>
<path id="c_3fe22c4af425ac970aec982ae9662abe" d="M32.171875 5.078125q-3.796875 9.765625 -7.421875 12.734375q-3.609375 2.984375 -9.656250 2.984375l-7.187500 0.000000l0.000000 -7.515625l5.281250 0.000000q3.703125 0.000000 5.750000 -1.765625q2.062500 -1.750000 4.546875 -8.296875l1.609375 -4.093750l-22.109375 -53.812500l9.515625 0.000000l17.093750 42.765625l17.093750 -42.765625l9.515625 0.000000z"/>
<path id="c_a56f7596f19f36c336140607221b43ce" d="M72.703125 -32.078125q-4.250000 0.000000 -6.671875 3.609375q-2.406250 3.609375 -2.406250 10.062500q0.000000 6.343750 2.406250 9.984375q2.421875 3.640625 6.671875 3.640625q4.156250 0.000000 6.562500 -3.640625q2.421875 -3.640625 2.421875 -9.984375q0.000000 -6.406250 -2.421875 -10.031250q-2.406250 -3.640625 -6.562500 -3.640625M72.703125 -38.281250q7.718750 0.000000 12.250000 5.375000q4.546875 5.359375 4.546875 14.500000q0.000000 9.125000 -4.562500 14.484375q-4.562500 5.343750 -12.234375 5.343750q-7.812500 0.000000 -12.359375 -5.343750q-4.531250 -5.359375 -4.531250 -14.484375q0.000000 -9.187500 4.562500 -14.531250q4.562500 -5.343750 12.328125 -5.343750M22.312500 -68.015625q-4.203125 0.000000 -6.625000 3.640625q-2.406250 3.625000 -2.406250 9.984375q0.000000 6.437500 2.390625 10.062500q2.390625 3.609375 6.640625 3.609375q4.250000 0.000000 6.656250 -3.609375q2.421875 -3.625000 2.421875 -10.062500q0.000000 -6.296875 -2.437500 -9.953125q-2.437500 -3.671875 -6.640625 -3.671875M66.406250 -74.218750l7.812500 0.000000l-45.609375 75.640625l-7.812500 0.000000zM22.312500 -74.218750q7.718750 0.000000 12.296875 5.343750q4.593750 5.343750 4.593750 14.484375q0.000000 9.218750 -4.562500 14.546875q-4.562500 5.328125 -12.328125 5.328125q-7.765625 0.000000 -12.281250 -5.343750q-4.515625 -5.359375 -4.515625 -14.531250q0.000000 -9.093750 4.531250 -14.453125q4.546875 -5.375000 12.265625 -5.375000"/>
</defs>
<g style="fill: #000000; opacity: 1.000000" transform="translate(417.946250,23.600625)scale(0.144000)">
<use xlink:href="#c_07e3f33241aff50afcba519606f2a979"/>
<use xlink:href="#c_6a63bda47b2f3da1cec6aadd80692cfe" x="55.712891"/>
<use xlink:href="#c_fe791a90f5471e2ab20a5ed41a7fa451" x="83.496094"/>
<use xlink:href="#c_0bce5afba2dc6b9024b26277c38ad8e8" x="146.875000"/>
<use xlink:href="#c_01d93a582460e35a7945ca50d148ffeb" x="208.398438"/>
<use xlink:href="#c_6ec8d5749226675394676a5d2a3b468b" x="269.677734"/>
<use xlink:href="#c_d41d8cd98f00b204e9800998ecf8427e" x="310.791016"/>
<use xlink:href="#c_ae70b0af174184799fa4976b9c5da571" x="342.578125"/>
<use xlink:href="#c_0bce5afba2dc6b9024b26277c38ad8e8" x="403.236328"/>
<use xlink:href="#c_5099edb83619131346ae654950954dea" x="464.759766"/>
<use xlink:href="#c_f05dd90d41f04bb96ef1ca503cc2044b" x="492.542969"/>
<use xlink:href="#c_d650c37394b681142a10dfc54356d478" x="553.724609"/>
<use xlink:href="#c_6a63bda47b2f3da1cec6aadd80692cfe" x="608.705078"/>
<use xlink:href="#c_0f8c41144cfbf448378cb6fd1cc8e549" x="636.488281"/>
<use xlink:href="#c_3fe22c4af425ac970aec982ae9662abe" x="675.697266"/>
<use xlink:href="#c_d41d8cd98f00b204e9800998ecf8427e" x="734.876953"/>
<use xlink:href="#c_7efa9804c2b4c09a4b614b91fdebee3d" x="766.664063"/>
<use xlink:href="#c_a56f7596f19f36c336140607221b43ce" x="805.677734"/>
<use xlink:href="#c_e96974be642f6eac0427d72f9cec6c19" x="900.697266"/>
</g>
</g>
<g id="line2d31">
<path style="fill: none; stroke: #008000; stroke-width: 1.000000; stroke-linejoin: round; stroke-linecap: square;  opacity: 1.000000"  d="M381.946250 39.307500L402.106250 39.307500"/>
</g>
<g id="line2d32">
</g>
<g id="text18">
<defs>
<path id="c_6023715d605f81e6eb43b7f9d77e7c51" d="M34.187500 -63.187500l-13.390625 36.281250l26.812500 0.000000zM28.609375 -72.906250l11.187500 0.000000l27.781250 72.906250l-10.250000 0.000000l-6.640625 -18.703125l-32.859375 0.000000l-6.640625 18.703125l-10.406250 0.000000z"/>
<path id="c_e3864de5dabf2f8dd9eee74726882ec1" d="M45.406250 -27.984375q0.000000 -9.765625 -4.031250 -15.125000q-4.015625 -5.375000 -11.296875 -5.375000q-7.218750 0.000000 -11.250000 5.375000q-4.031250 5.359375 -4.031250 15.125000q0.000000 9.718750 4.031250 15.093750q4.031250 5.375000 11.250000 5.375000q7.281250 0.000000 11.296875 -5.375000q4.031250 -5.375000 4.031250 -15.093750M54.390625 -6.781250q0.000000 13.953125 -6.203125 20.765625q-6.187500 6.812500 -18.984375 6.812500q-4.734375 0.000000 -8.937500 -0.703125q-4.203125 -0.703125 -8.156250 -2.171875l0.000000 -8.734375q3.953125 2.140625 7.812500 3.156250q3.859375 1.031250 7.859375 1.031250q8.843750 0.000000 13.234375 -4.609375q4.390625 -4.609375 4.390625 -13.937500l0.000000 -4.453125q-2.781250 4.843750 -7.125000 7.234375q-4.343750 2.390625 -10.406250 2.390625q-10.046875 0.000000 -16.203125 -7.656250q-6.156250 -7.671875 -6.156250 -20.328125q0.000000 -12.687500 6.156250 -20.343750q6.156250 -7.671875 16.203125 -7.671875q6.062500 0.000000 10.406250 2.390625q4.343750 2.390625 7.125000 7.218750l0.000000 -8.296875l8.984375 0.000000z"/>
<path id="c_3b515ad41f960e225ec85275856806ca" d="M8.500000 -21.578125l0.000000 -33.109375l8.984375 0.000000l0.000000 32.765625q0.000000 7.765625 3.015625 11.656250q3.031250 3.875000 9.093750 3.875000q7.265625 0.000000 11.484375 -4.640625q4.234375 -4.640625 4.234375 -12.656250l0.000000 -31.000000l8.984375 0.000000l0.000000 54.687500l-8.984375 0.000000l0.000000 -8.406250q-3.265625 4.984375 -7.593750 7.406250q-4.312500 2.421875 -10.031250 2.421875q-9.421875 0.000000 -14.312500 -5.859375q-4.875000 -5.859375 -4.875000 -17.140625M31.109375 -56.000000z"/>
</defs>
<g style="fill: #000000; opacity: 1.000000" transform="translate(417.946250,44.347500)scale(0.144000)">
<use xlink:href="#c_6023715d605f81e6eb43b7f9d77e7c51"/>
<use xlink:href="#c_fe791a90f5471e2ab20a5ed41a7fa451" x="68.408203"/>
<use xlink:href="#c_e3864de5dabf2f8dd9eee74726882ec1" x="131.787109"/>
<use xlink:href="#c_3b515ad41f960e225ec85275856806ca" x="195.263672"/>
<use xlink:href="#c_5099edb83619131346ae654950954dea" x="258.642578"/>
<use xlink:href="#c_01d93a582460e35a7945ca50d148ffeb" x="286.425781"/>
<use xlink:href="#c_6ec8d5749226675394676a5d2a3b468b" x="347.705078"/>
<use xlink:href="#c_d41d8cd98f00b204e9800998ecf8427e" x="388.818359"/>
<use xlink:href="#c_ae70b0af174184799fa4976b9c5da571" x="420.605469"/>
<use xlink:href="#c_0bce5afba2dc6b9024b26277c38ad8e8" x="481.263672"/>
<use xlink:href="#c_5099edb83619131346ae654950954dea" x="542.787109"/>
<use xlink:href="#c_f05dd90d41f04bb96ef1ca503cc2044b" x="570.570313"/>
<use xlink:href="#c_d650c37394b681142a10dfc54356d478" x="631.751953"/>
<use xlink:href="#c_6a63bda47b2f3da1cec6aadd80692cfe" x="686.732422"/>
<use xlink:href="#c_0f8c41144cfbf448378cb6fd1cc8e549" x="714.515625"/>
<use xlink:href="#c_3fe22c4af425ac970aec982ae9662abe" x="753.724609"/>
<use xlink:href="#c_d41d8cd98f00b204e9800998ecf8427e" x="812.904297"/>
<use xlink:href="#c_7efa9804c2b4c09a4b614b91fdebee3d" x="844.691406"/>
<use xlink:href="#c_a56f7596f19f36c336140607221b43ce" x="883.705078"/>
<use xlink:href="#c_e96974be642f6eac0427d72f9cec6c19" x="978.724609"/>
</g>
</g>
</g>
</g>
</svg>
