<?xml version="1.0" standalone="no"?>
<!DOCTYPE svg PUBLIC "-//W3C//DTD SVG 1.1//EN"
  "http://www.w3.org/Graphics/SVG/1.1/DTD/svg11.dtd">
<!-- Created with matplotlib (http://matplotlib.sourceforge.net/) -->
<svg width="576pt" height="432pt" viewBox="0 0 576 432"
   xmlns="http://www.w3.org/2000/svg"
   xmlns:xlink="http://www.w3.org/1999/xlink"
   version="1.1"
   id="svg1">
<g id="figure1">
<g id="patch1">
<path style="fill: #ffffff; stroke: #ffffff; stroke-width: 1.000000; stroke-linejoin: round; stroke-linecap: square;  opacity: 1.000000"  d="M0.000000 432.000000L576.000000 432.000000L576.000000 0.000000
L0.000000 0.000000L0.000000 432.000000"/>
</g>
<g id="axes1">
<g id="patch2">
<path style="fill: #ffffff; opacity: 1.000000"  d="M72.000000 388.800000L518.400000 388.800000L518.400000 43.200000
L72.000000 43.200000L72.000000 388.800000"/>
</g>
<g id="line2d1">
<defs>
  <clipPath id="p50431ccdcb28178602d99d9270004dde">
<rect x="72.000000" y="43.200000" width="446.400000" height="345.600000"/>
  </clipPath>
</defs><path style="fill: none; stroke: #0000ff; stroke-width: 1.000000; stroke-linejoin: round; stroke-linecap: square;  opacity: 1.000000" clip-path="url(#p50431ccdcb28178602d99d9270004dde)" d="M159.483197 216.000000L176.071997 232.184109L185.403197 240.392555
L192.660797 246.010955L199.918397 250.784316L206.139197 254.100577
L212.359997 256.628149L217.543997 258.093724L222.727997 258.953876
L227.911997 259.196234L233.095997 258.817313L238.279997 257.822561
L243.463997 256.226288L249.684797 253.549666L255.905597 250.095758
L263.163197 245.180009L270.420797 239.442619L279.751997 231.120872
L292.193597 219.003976L312.929597 198.763940L322.260797 190.674518
L329.518397 185.179027L336.775997 180.551382L342.996797 177.375079
L349.217597 174.998319L354.401597 173.664465L359.585597 172.939512
L364.769597 172.833887L369.953597 173.349107L375.137597 174.477764
L380.321597 176.203624L386.542397 179.027430L392.763197 182.616574
L400.020797 187.671283L408.315197 194.415471L417.646397 202.937318
L430.087997 215.171246L430.087997 215.171246"/>
</g>
<g id="line2d2">
<path style="fill: none; stroke: #008000; stroke-width: 1.000000; stroke-linejoin: round; stroke-linecap: square;  opacity: 1.000000" clip-path="url(#p50431ccdcb28178602d99d9270004dde)" d="M159.483197 259.200000L164.667197 258.889333L169.851197 257.961801
L175.035197 256.430743L181.255997 253.828419L187.476797 250.443039
L193.697597 246.344682L200.955197 240.776063L209.249597 233.567759
L220.654397 222.660527L246.574397 197.396278L254.868797 190.298152
L262.126397 184.854018L269.383997 180.286883L275.604797 177.168444
L281.825597 174.853825L287.009597 173.574097L292.193597 172.904570
L297.377597 172.854872L302.561597 173.425719L307.745597 174.608900
L312.929597 176.387398L319.150397 179.270816L325.371197 182.914536
L332.628797 188.025047L340.923197 194.820733L350.254397 203.382639
L365.806397 218.746143L380.321597 232.807394L389.652797 240.946163
L396.910397 246.492372L404.167997 251.179987L410.388797 254.413784
L416.609597 256.852408L421.793597 258.240232L426.977597 259.020526
L430.087997 259.192050L430.087997 259.192050"/>
</g>
<g id="line2d3">
<path style="fill: none; stroke: #ff0000; stroke-width: 1.000000; stroke-linejoin: round; stroke-linecap: square;  opacity: 1.000000" clip-path="url(#p50431ccdcb28178602d99d9270004dde)" d="M159.483197 216.000000L169.851197 206.025570L176.071997 200.994523
L181.255997 197.731445L185.403197 195.867956L189.550397 194.744337
L193.697597 194.401883L197.844797 194.853179L201.991997 196.081639
L206.139197 198.042117L210.286397 200.662564L215.470397 204.717458
L222.727997 211.421399L239.316797 227.371093L244.500797 231.410487
L249.684797 234.566488L253.831997 236.331690L257.979197 237.349683
L262.126397 237.583057L266.273597 237.023234L270.420797 235.690788
L274.567997 233.634688L279.751997 230.164358L284.935997 225.882070
L292.193597 218.996705L306.708797 205.028067L311.892797 200.919891
L317.076797 197.676169L321.223997 195.830505L325.371197 194.726088
L329.518397 194.403506L333.665597 194.874615L337.812797 196.122100
L341.959997 198.100116L347.143997 201.486851L352.327997 205.705538
L359.585597 212.542138L374.100797 226.567658L380.321597 231.483179
L385.505597 234.619419L389.652797 236.366565L393.799997 237.365222
L397.947197 237.578688L402.094397 236.999118L406.241597 235.647811
L410.388797 233.574430L415.572797 230.085679L421.793597 224.854356
L430.087997 216.828602L430.087997 216.828602"/>
</g>
<g id="line2d4">
<path style="fill: none; stroke: #00bfbf; stroke-width: 1.000000; stroke-linejoin: round; stroke-linecap: square;  opacity: 1.000000" clip-path="url(#p50431ccdcb28178602d99d9270004dde)" d="M159.483197 351.716803L430.087997 81.112003L430.087997 81.112003"/>
</g>
<g id="line2d5">
<path style="fill: none; stroke: #000000; stroke-width: 1.000000; stroke-linejoin: round; stroke-linecap: square;  opacity: 1.000000" clip-path="url(#p50431ccdcb28178602d99d9270004dde)" d="M159.483197 216.000000L430.087997 216.000000L430.087997 216.000000"/>
</g>
<g id="matplotlib.axis1">
<g id="xtick1">
<g id="line2d6">
<defs><path id="m30e32995789d870ad79a2e54c91cf9c6" d="M0.000000 0.000000L0.000000 -4.000000"/></defs>
<g ><use style="fill: none; stroke: #000000; stroke-width: 0.500000; stroke-linejoin: round; stroke-linecap: butt;  opacity: 1.000000" xlink:href="#m30e32995789d870ad79a2e54c91cf9c6" x="122.400000" y="388.800000"/>
</g></g>
<g id="line2d7">
<defs><path id="m9281cae24120827b11d5ea8a7ad3e96b" d="M0.000000 0.000000L0.000000 4.000000"/></defs>
<g ><use style="fill: none; stroke: #000000; stroke-width: 0.500000; stroke-linejoin: round; stroke-linecap: butt;  opacity: 1.000000" xlink:href="#m9281cae24120827b11d5ea8a7ad3e96b" x="122.400000" y="43.200000"/>
</g></g>
<g id="text1">
<defs>
<path id="c_6a8d56c819c37117ab4cf023bec22a5a" d="M10.593750 -35.500000l62.593750 0.000000l0.000000 8.296875l-62.593750 0.000000z"/>
<path id="c_a0416418d96557a09b8c1332d34883ba" d="M37.796875 -64.312500l-24.906250 38.921875l24.906250 0.000000zM35.203125 -72.906250l12.406250 0.000000l0.000000 47.515625l10.406250 0.000000l0.000000 8.203125l-10.406250 0.000000l0.000000 17.187500l-9.812500 0.000000l0.000000 -17.187500l-32.906250 0.000000l0.000000 -9.515625z"/>
</defs>
<g style="fill: #000000; opacity: 1.000000" transform="translate(114.517188,401.550000)scale(0.120000)">
<use xlink:href="#c_6a8d56c819c37117ab4cf023bec22a5a"/>
<use xlink:href="#c_a0416418d96557a09b8c1332d34883ba" x="83.789062"/>
</g>
</g>
</g>
<g id="xtick2">
<g id="line2d8">
<g ><use style="fill: none; stroke: #000000; stroke-width: 0.500000; stroke-linejoin: round; stroke-linecap: butt;  opacity: 1.000000" xlink:href="#m30e32995789d870ad79a2e54c91cf9c6" x="208.800000" y="388.800000"/>
</g></g>
<g id="line2d9">
<g ><use style="fill: none; stroke: #000000; stroke-width: 0.500000; stroke-linejoin: round; stroke-linecap: butt;  opacity: 1.000000" xlink:href="#m9281cae24120827b11d5ea8a7ad3e96b" x="208.800000" y="43.200000"/>
</g></g>
<g id="text2">
<defs>
<path id="c_ed3f3ed3ebfbd18bcb9c012009a68ad1" d="M19.187500 -8.296875l34.421875 0.000000l0.000000 8.296875l-46.281250 0.000000l0.000000 -8.296875q5.609375 -5.812500 15.296875 -15.593750q9.703125 -9.796875 12.187500 -12.640625q4.734375 -5.312500 6.609375 -9.000000q1.890625 -3.687500 1.890625 -7.250000q0.000000 -5.812500 -4.078125 -9.468750q-4.078125 -3.671875 -10.625000 -3.671875q-4.640625 0.000000 -9.796875 1.609375q-5.140625 1.609375 -11.000000 4.890625l0.000000 -9.968750q5.953125 -2.390625 11.125000 -3.609375q5.187500 -1.218750 9.484375 -1.218750q11.328125 0.000000 18.062500 5.671875q6.734375 5.656250 6.734375 15.125000q0.000000 4.500000 -1.687500 8.531250q-1.671875 4.015625 -6.125000 9.484375q-1.218750 1.421875 -7.765625 8.187500q-6.531250 6.765625 -18.453125 18.921875"/>
</defs>
<g style="fill: #000000; opacity: 1.000000" transform="translate(201.182813,401.706250)scale(0.120000)">
<use xlink:href="#c_6a8d56c819c37117ab4cf023bec22a5a"/>
<use xlink:href="#c_ed3f3ed3ebfbd18bcb9c012009a68ad1" x="83.789062"/>
</g>
</g>
</g>
<g id="xtick3">
<g id="line2d10">
<g ><use style="fill: none; stroke: #000000; stroke-width: 0.500000; stroke-linejoin: round; stroke-linecap: butt;  opacity: 1.000000" xlink:href="#m30e32995789d870ad79a2e54c91cf9c6" x="295.200000" y="388.800000"/>
</g></g>
<g id="line2d11">
<g ><use style="fill: none; stroke: #000000; stroke-width: 0.500000; stroke-linejoin: round; stroke-linecap: butt;  opacity: 1.000000" xlink:href="#m9281cae24120827b11d5ea8a7ad3e96b" x="295.200000" y="43.200000"/>
</g></g>
<g id="text3">
<defs>
<path id="c_7a2040fe3b94fcd41d0a72c84e93b115" d="M31.781250 -66.406250q-7.609375 0.000000 -11.453125 7.500000q-3.828125 7.484375 -3.828125 22.531250q0.000000 14.984375 3.828125 22.484375q3.843750 7.500000 11.453125 7.500000q7.671875 0.000000 11.500000 -7.500000q3.843750 -7.500000 3.843750 -22.484375q0.000000 -15.046875 -3.843750 -22.531250q-3.828125 -7.500000 -11.500000 -7.500000M31.781250 -74.218750q12.265625 0.000000 18.734375 9.703125q6.468750 9.687500 6.468750 28.140625q0.000000 18.406250 -6.468750 28.109375q-6.468750 9.687500 -18.734375 9.687500q-12.250000 0.000000 -18.718750 -9.687500q-6.468750 -9.703125 -6.468750 -28.109375q0.000000 -18.453125 6.468750 -28.140625q6.468750 -9.703125 18.718750 -9.703125"/>
</defs>
<g style="fill: #000000; opacity: 1.000000" transform="translate(292.176562,401.706250)scale(0.120000)">
<use xlink:href="#c_7a2040fe3b94fcd41d0a72c84e93b115"/>
</g>
</g>
</g>
<g id="xtick4">
<g id="line2d12">
<g ><use style="fill: none; stroke: #000000; stroke-width: 0.500000; stroke-linejoin: round; stroke-linecap: butt;  opacity: 1.000000" xlink:href="#m30e32995789d870ad79a2e54c91cf9c6" x="381.600000" y="388.800000"/>
</g></g>
<g id="line2d13">
<g ><use style="fill: none; stroke: #000000; stroke-width: 0.500000; stroke-linejoin: round; stroke-linecap: butt;  opacity: 1.000000" xlink:href="#m9281cae24120827b11d5ea8a7ad3e96b" x="381.600000" y="43.200000"/>
</g></g>
<g id="text4">
<g style="fill: #000000; opacity: 1.000000" transform="translate(378.818750,401.706250)scale(0.120000)">
<use xlink:href="#c_ed3f3ed3ebfbd18bcb9c012009a68ad1"/>
</g>
</g>
</g>
<g id="xtick5">
<g id="line2d14">
<g ><use style="fill: none; stroke: #000000; stroke-width: 0.500000; stroke-linejoin: round; stroke-linecap: butt;  opacity: 1.000000" xlink:href="#m30e32995789d870ad79a2e54c91cf9c6" x="468.000000" y="388.800000"/>
</g></g>
<g id="line2d15">
<g ><use style="fill: none; stroke: #000000; stroke-width: 0.500000; stroke-linejoin: round; stroke-linecap: butt;  opacity: 1.000000" xlink:href="#m9281cae24120827b11d5ea8a7ad3e96b" x="468.000000" y="43.200000"/>
</g></g>
<g id="text5">
<g style="fill: #000000; opacity: 1.000000" transform="translate(464.812500,401.550000)scale(0.120000)">
<use xlink:href="#c_a0416418d96557a09b8c1332d34883ba"/>
</g>
</g>
</g>
<g id="text6">
<defs>
<path id="c_801fe2e877fad46da27c898b407b3b54" d="M54.890625 -54.687500l-19.781250 26.609375l20.796875 28.078125l-10.593750 0.000000l-15.921875 -21.484375l-15.906250 21.484375l-10.609375 0.000000l21.250000 -28.609375l-19.437500 -26.078125l10.593750 0.000000l14.500000 19.484375l14.500000 -19.484375z"/>
</defs>
<g style="fill: #000000; opacity: 1.000000" transform="translate(292.020312,413.440625)scale(0.120000)">
<use xlink:href="#c_801fe2e877fad46da27c898b407b3b54"/>
</g>
</g>
</g>
<g id="matplotlib.axis2">
<g id="ytick1">
<g id="line2d16">
<defs><path id="m3400efa6b1638b3fea9e19e898273957" d="M0.000000 0.000000L4.000000 0.000000"/></defs>
<g ><use style="fill: none; stroke: #000000; stroke-width: 0.500000; stroke-linejoin: round; stroke-linecap: butt;  opacity: 1.000000" xlink:href="#m3400efa6b1638b3fea9e19e898273957" x="72.000000" y="388.800000"/>
</g></g>
<g id="line2d17">
<defs><path id="m20b58b2501143cb5e0a5e8f1ef6f1643" d="M0.000000 0.000000L-4.000000 0.000000"/></defs>
<g ><use style="fill: none; stroke: #000000; stroke-width: 0.500000; stroke-linejoin: round; stroke-linecap: butt;  opacity: 1.000000" xlink:href="#m20b58b2501143cb5e0a5e8f1ef6f1643" x="518.400000" y="388.800000"/>
</g></g>
<g id="text7">
<g style="fill: #000000; opacity: 1.000000" transform="translate(52.234375,393.175000)scale(0.120000)">
<use xlink:href="#c_6a8d56c819c37117ab4cf023bec22a5a"/>
<use xlink:href="#c_a0416418d96557a09b8c1332d34883ba" x="83.789062"/>
</g>
</g>
</g>
<g id="ytick2">
<g id="line2d18">
<g ><use style="fill: none; stroke: #000000; stroke-width: 0.500000; stroke-linejoin: round; stroke-linecap: butt;  opacity: 1.000000" xlink:href="#m3400efa6b1638b3fea9e19e898273957" x="72.000000" y="345.600000"/>
</g></g>
<g id="line2d19">
<g ><use style="fill: none; stroke: #000000; stroke-width: 0.500000; stroke-linejoin: round; stroke-linecap: butt;  opacity: 1.000000" xlink:href="#m20b58b2501143cb5e0a5e8f1ef6f1643" x="518.400000" y="345.600000"/>
</g></g>
<g id="text8">
<defs>
<path id="c_3dcfa38a02242cb63ec6726c6e70be7a" d="M40.578125 -39.312500q7.078125 1.515625 11.046875 6.312500q3.984375 4.781250 3.984375 11.812500q0.000000 10.781250 -7.421875 16.703125q-7.421875 5.906250 -21.093750 5.906250q-4.578125 0.000000 -9.437500 -0.906250q-4.859375 -0.906250 -10.031250 -2.718750l0.000000 -9.515625q4.093750 2.390625 8.968750 3.609375q4.890625 1.218750 10.218750 1.218750q9.265625 0.000000 14.125000 -3.656250q4.859375 -3.656250 4.859375 -10.640625q0.000000 -6.453125 -4.515625 -10.078125q-4.515625 -3.640625 -12.562500 -3.640625l-8.500000 0.000000l0.000000 -8.109375l8.890625 0.000000q7.265625 0.000000 11.125000 -2.906250q3.859375 -2.906250 3.859375 -8.375000q0.000000 -5.609375 -3.984375 -8.609375q-3.968750 -3.015625 -11.390625 -3.015625q-4.062500 0.000000 -8.703125 0.890625q-4.640625 0.875000 -10.203125 2.718750l0.000000 -8.781250q5.625000 -1.562500 10.531250 -2.343750q4.906250 -0.781250 9.250000 -0.781250q11.234375 0.000000 17.765625 5.109375q6.546875 5.093750 6.546875 13.781250q0.000000 6.062500 -3.468750 10.234375q-3.468750 4.171875 -9.859375 5.781250"/>
</defs>
<g style="fill: #000000; opacity: 1.000000" transform="translate(52.531250,349.967188)scale(0.120000)">
<use xlink:href="#c_6a8d56c819c37117ab4cf023bec22a5a"/>
<use xlink:href="#c_3dcfa38a02242cb63ec6726c6e70be7a" x="83.789062"/>
</g>
</g>
</g>
<g id="ytick3">
<g id="line2d20">
<g ><use style="fill: none; stroke: #000000; stroke-width: 0.500000; stroke-linejoin: round; stroke-linecap: butt;  opacity: 1.000000" xlink:href="#m3400efa6b1638b3fea9e19e898273957" x="72.000000" y="302.400000"/>
</g></g>
<g id="line2d21">
<g ><use style="fill: none; stroke: #000000; stroke-width: 0.500000; stroke-linejoin: round; stroke-linecap: butt;  opacity: 1.000000" xlink:href="#m20b58b2501143cb5e0a5e8f1ef6f1643" x="518.400000" y="302.400000"/>
</g></g>
<g id="text9">
<g style="fill: #000000; opacity: 1.000000" transform="translate(52.765625,306.853125)scale(0.120000)">
<use xlink:href="#c_6a8d56c819c37117ab4cf023bec22a5a"/>
<use xlink:href="#c_ed3f3ed3ebfbd18bcb9c012009a68ad1" x="83.789062"/>
</g>
</g>
</g>
<g id="ytick4">
<g id="line2d22">
<g ><use style="fill: none; stroke: #000000; stroke-width: 0.500000; stroke-linejoin: round; stroke-linecap: butt;  opacity: 1.000000" xlink:href="#m3400efa6b1638b3fea9e19e898273957" x="72.000000" y="259.200000"/>
</g></g>
<g id="line2d23">
<g ><use style="fill: none; stroke: #000000; stroke-width: 0.500000; stroke-linejoin: round; stroke-linecap: butt;  opacity: 1.000000" xlink:href="#m20b58b2501143cb5e0a5e8f1ef6f1643" x="518.400000" y="259.200000"/>
</g></g>
<g id="text10">
<defs>
<path id="c_42baa63129a918535c52adb20d687ea7" d="M12.406250 -8.296875l16.109375 0.000000l0.000000 -55.625000l-17.531250 3.515625l0.000000 -8.984375l17.437500 -3.515625l9.859375 0.000000l0.000000 64.609375l16.109375 0.000000l0.000000 8.296875l-41.984375 0.000000z"/>
</defs>
<g style="fill: #000000; opacity: 1.000000" transform="translate(52.671875,263.575000)scale(0.120000)">
<use xlink:href="#c_6a8d56c819c37117ab4cf023bec22a5a"/>
<use xlink:href="#c_42baa63129a918535c52adb20d687ea7" x="83.789062"/>
</g>
</g>
</g>
<g id="ytick5">
<g id="line2d24">
<g ><use style="fill: none; stroke: #000000; stroke-width: 0.500000; stroke-linejoin: round; stroke-linecap: butt;  opacity: 1.000000" xlink:href="#m3400efa6b1638b3fea9e19e898273957" x="72.000000" y="216.000000"/>
</g></g>
<g id="line2d25">
<g ><use style="fill: none; stroke: #000000; stroke-width: 0.500000; stroke-linejoin: round; stroke-linecap: butt;  opacity: 1.000000" xlink:href="#m20b58b2501143cb5e0a5e8f1ef6f1643" x="518.400000" y="216.000000"/>
</g></g>
<g id="text11">
<g style="fill: #000000; opacity: 1.000000" transform="translate(61.953125,220.367188)scale(0.120000)">
<use xlink:href="#c_7a2040fe3b94fcd41d0a72c84e93b115"/>
</g>
</g>
</g>
<g id="ytick6">
<g id="line2d26">
<g ><use style="fill: none; stroke: #000000; stroke-width: 0.500000; stroke-linejoin: round; stroke-linecap: butt;  opacity: 1.000000" xlink:href="#m3400efa6b1638b3fea9e19e898273957" x="72.000000" y="172.800000"/>
</g></g>
<g id="line2d27">
<g ><use style="fill: none; stroke: #000000; stroke-width: 0.500000; stroke-linejoin: round; stroke-linecap: butt;  opacity: 1.000000" xlink:href="#m20b58b2501143cb5e0a5e8f1ef6f1643" x="518.400000" y="172.800000"/>
</g></g>
<g id="text12">
<g style="fill: #000000; opacity: 1.000000" transform="translate(62.781250,177.175000)scale(0.120000)">
<use xlink:href="#c_42baa63129a918535c52adb20d687ea7"/>
</g>
</g>
</g>
<g id="ytick7">
<g id="line2d28">
<g ><use style="fill: none; stroke: #000000; stroke-width: 0.500000; stroke-linejoin: round; stroke-linecap: butt;  opacity: 1.000000" xlink:href="#m3400efa6b1638b3fea9e19e898273957" x="72.000000" y="129.600000"/>
</g></g>
<g id="line2d29">
<g ><use style="fill: none; stroke: #000000; stroke-width: 0.500000; stroke-linejoin: round; stroke-linecap: butt;  opacity: 1.000000" xlink:href="#m20b58b2501143cb5e0a5e8f1ef6f1643" x="518.400000" y="129.600000"/>
</g></g>
<g id="text13">
<g style="fill: #000000; opacity: 1.000000" transform="translate(62.437500,134.053125)scale(0.120000)">
<use xlink:href="#c_ed3f3ed3ebfbd18bcb9c012009a68ad1"/>
</g>
</g>
</g>
<g id="ytick8">
<g id="line2d30">
<g ><use style="fill: none; stroke: #000000; stroke-width: 0.500000; stroke-linejoin: round; stroke-linecap: butt;  opacity: 1.000000" xlink:href="#m3400efa6b1638b3fea9e19e898273957" x="72.000000" y="86.400000"/>
</g></g>
<g id="line2d31">
<g ><use style="fill: none; stroke: #000000; stroke-width: 0.500000; stroke-linejoin: round; stroke-linecap: butt;  opacity: 1.000000" xlink:href="#m20b58b2501143cb5e0a5e8f1ef6f1643" x="518.400000" y="86.400000"/>
</g></g>
<g id="text14">
<g style="fill: #000000; opacity: 1.000000" transform="translate(62.250000,90.767187)scale(0.120000)">
<use xlink:href="#c_3dcfa38a02242cb63ec6726c6e70be7a"/>
</g>
</g>
</g>
<g id="ytick9">
<g id="line2d32">
<g ><use style="fill: none; stroke: #000000; stroke-width: 0.500000; stroke-linejoin: round; stroke-linecap: butt;  opacity: 1.000000" xlink:href="#m3400efa6b1638b3fea9e19e898273957" x="72.000000" y="43.200000"/>
</g></g>
<g id="line2d33">
<g ><use style="fill: none; stroke: #000000; stroke-width: 0.500000; stroke-linejoin: round; stroke-linecap: butt;  opacity: 1.000000" xlink:href="#m20b58b2501143cb5e0a5e8f1ef6f1643" x="518.400000" y="43.200000"/>
</g></g>
<g id="text15">
<g style="fill: #000000; opacity: 1.000000" transform="translate(61.625000,47.575000)scale(0.120000)">
<use xlink:href="#c_a0416418d96557a09b8c1332d34883ba"/>
</g>
</g>
</g>
<g id="text16">
<defs>
<path id="c_3fe22c4af425ac970aec982ae9662abe" d="M32.171875 5.078125q-3.796875 9.765625 -7.421875 12.734375q-3.609375 2.984375 -9.656250 2.984375l-7.187500 0.000000l0.000000 -7.515625l5.281250 0.000000q3.703125 0.000000 5.750000 -1.765625q2.062500 -1.750000 4.546875 -8.296875l1.609375 -4.093750l-22.109375 -53.812500l9.515625 0.000000l17.093750 42.765625l17.093750 -42.765625l9.515625 0.000000z"/>
</defs>
<g style="fill: #000000; opacity: 1.000000" transform="translate(47.234375,216.695312)rotate(-90.0)scale(0.120000)">
<use xlink:href="#c_3fe22c4af425ac970aec982ae9662abe"/>
</g>
</g>
</g>
<g id="patch3">
<path style="fill: none; stroke: #000000; stroke-width: 1.000000; stroke-linejoin: round; stroke-linecap: square;  opacity: 1.000000"  d="M72.000000 43.200000L518.400000 43.200000"/>
</g>
<g id="patch4">
<path style="fill: none; stroke: #000000; stroke-width: 1.000000; stroke-linejoin: round; stroke-linecap: square;  opacity: 1.000000"  d="M518.400000 388.800000L518.400000 43.200000"/>
</g>
<g id="patch5">
<path style="fill: none; stroke: #000000; stroke-width: 1.000000; stroke-linejoin: round; stroke-linecap: square;  opacity: 1.000000"  d="M72.000000 388.800000L518.400000 388.800000"/>
</g>
<g id="patch6">
<path style="fill: none; stroke: #000000; stroke-width: 1.000000; stroke-linejoin: round; stroke-linecap: square;  opacity: 1.000000"  d="M72.000000 388.800000L72.000000 43.200000"/>
</g>
<g id="text17">
<defs>
<path id="c_f0b2f1db24a99c7a6a1fa56820ca5a8a" d="M8.687500 -72.906250l9.921875 0.000000l0.000000 44.296875q0.000000 11.718750 4.234375 16.875000q4.250000 5.140625 13.781250 5.140625q9.468750 0.000000 13.718750 -5.140625q4.250000 -5.156250 4.250000 -16.875000l0.000000 -44.296875l9.906250 0.000000l0.000000 45.515625q0.000000 14.250000 -7.062500 21.531250q-7.046875 7.281250 -20.812500 7.281250q-13.828125 0.000000 -20.890625 -7.281250q-7.046875 -7.281250 -7.046875 -21.531250z"/>
<path id="c_8e0810ad13fe20a2a87a2619799b154d" d="M44.281250 -53.078125l0.000000 8.500000q-3.796875 -1.953125 -7.906250 -2.921875q-4.093750 -0.984375 -8.500000 -0.984375q-6.687500 0.000000 -10.031250 2.046875q-3.343750 2.046875 -3.343750 6.156250q0.000000 3.125000 2.390625 4.906250q2.390625 1.781250 9.625000 3.390625l3.078125 0.687500q9.562500 2.046875 13.593750 5.781250q4.031250 3.734375 4.031250 10.421875q0.000000 7.625000 -6.031250 12.078125q-6.031250 4.437500 -16.578125 4.437500q-4.390625 0.000000 -9.156250 -0.859375q-4.765625 -0.859375 -10.031250 -2.562500l0.000000 -9.281250q4.984375 2.593750 9.812500 3.890625q4.828125 1.281250 9.578125 1.281250q6.343750 0.000000 9.750000 -2.171875q3.421875 -2.171875 3.421875 -6.125000q0.000000 -3.656250 -2.468750 -5.609375q-2.453125 -1.953125 -10.812500 -3.765625l-3.125000 -0.734375q-8.343750 -1.750000 -12.062500 -5.390625q-3.703125 -3.640625 -3.703125 -9.984375q0.000000 -7.718750 5.468750 -11.906250q5.468750 -4.203125 15.531250 -4.203125q4.968750 0.000000 9.359375 0.734375q4.406250 0.718750 8.109375 2.187500"/>
<path id="c_0bce5afba2dc6b9024b26277c38ad8e8" d="M56.203125 -29.593750l0.000000 4.390625l-41.312500 0.000000q0.593750 9.281250 5.593750 14.140625q5.000000 4.859375 13.937500 4.859375q5.171875 0.000000 10.031250 -1.265625q4.859375 -1.265625 9.656250 -3.812500l0.000000 8.500000q-4.843750 2.046875 -9.921875 3.125000q-5.078125 1.078125 -10.296875 1.078125q-13.093750 0.000000 -20.734375 -7.609375q-7.640625 -7.625000 -7.640625 -20.625000q0.000000 -13.421875 7.250000 -21.296875q7.250000 -7.890625 19.562500 -7.890625q11.031250 0.000000 17.453125 7.109375q6.421875 7.093750 6.421875 19.296875M47.218750 -32.234375q-0.093750 -7.359375 -4.125000 -11.750000q-4.031250 -4.406250 -10.671875 -4.406250q-7.515625 0.000000 -12.031250 4.250000q-4.515625 4.250000 -5.203125 11.968750z"/>
<path id="c_73b12fe3945075d29fe0cc9a468fa31e" d="M37.109375 -75.984375l0.000000 7.484375l-8.593750 0.000000q-4.828125 0.000000 -6.718750 1.953125q-1.875000 1.953125 -1.875000 7.031250l0.000000 4.828125l14.796875 0.000000l0.000000 6.984375l-14.796875 0.000000l0.000000 47.703125l-9.031250 0.000000l0.000000 -47.703125l-8.593750 0.000000l0.000000 -6.984375l8.593750 0.000000l0.000000 -3.812500q0.000000 -9.125000 4.250000 -13.296875q4.250000 -4.187500 13.468750 -4.187500z"/>
<path id="c_3b515ad41f960e225ec85275856806ca" d="M8.500000 -21.578125l0.000000 -33.109375l8.984375 0.000000l0.000000 32.765625q0.000000 7.765625 3.015625 11.656250q3.031250 3.875000 9.093750 3.875000q7.265625 0.000000 11.484375 -4.640625q4.234375 -4.640625 4.234375 -12.656250l0.000000 -31.000000l8.984375 0.000000l0.000000 54.687500l-8.984375 0.000000l0.000000 -8.406250q-3.265625 4.984375 -7.593750 7.406250q-4.312500 2.421875 -10.031250 2.421875q-9.421875 0.000000 -14.312500 -5.859375q-4.875000 -5.859375 -4.875000 -17.140625M31.109375 -56.000000z"/>
<path id="c_5099edb83619131346ae654950954dea" d="M9.421875 -75.984375l8.984375 0.000000l0.000000 75.984375l-8.984375 0.000000z"/>
<path id="c_d41d8cd98f00b204e9800998ecf8427e" d=""/>
<path id="c_9e4b30cbdf32072672ded72e9074c4c9" d="M-0.296875 -72.906250l61.671875 0.000000l0.000000 8.312500l-25.875000 0.000000l0.000000 64.593750l-9.906250 0.000000l0.000000 -64.593750l-25.890625 0.000000z"/>
<path id="c_6ec8d5749226675394676a5d2a3b468b" d="M41.109375 -46.296875q-1.515625 -0.875000 -3.296875 -1.281250q-1.781250 -0.421875 -3.921875 -0.421875q-7.625000 0.000000 -11.703125 4.953125q-4.078125 4.953125 -4.078125 14.234375l0.000000 28.812500l-9.031250 0.000000l0.000000 -54.687500l9.031250 0.000000l0.000000 8.500000q2.843750 -4.984375 7.375000 -7.390625q4.546875 -2.421875 11.046875 -2.421875q0.921875 0.000000 2.046875 0.125000q1.125000 0.109375 2.484375 0.359375z"/>
<path id="c_6a63bda47b2f3da1cec6aadd80692cfe" d="M9.421875 -54.687500l8.984375 0.000000l0.000000 54.687500l-8.984375 0.000000zM9.421875 -75.984375l8.984375 0.000000l0.000000 11.390625l-8.984375 0.000000z"/>
<path id="c_e3864de5dabf2f8dd9eee74726882ec1" d="M45.406250 -27.984375q0.000000 -9.765625 -4.031250 -15.125000q-4.015625 -5.375000 -11.296875 -5.375000q-7.218750 0.000000 -11.250000 5.375000q-4.031250 5.359375 -4.031250 15.125000q0.000000 9.718750 4.031250 15.093750q4.031250 5.375000 11.250000 5.375000q7.281250 0.000000 11.296875 -5.375000q4.031250 -5.375000 4.031250 -15.093750M54.390625 -6.781250q0.000000 13.953125 -6.203125 20.765625q-6.187500 6.812500 -18.984375 6.812500q-4.734375 0.000000 -8.937500 -0.703125q-4.203125 -0.703125 -8.156250 -2.171875l0.000000 -8.734375q3.953125 2.140625 7.812500 3.156250q3.859375 1.031250 7.859375 1.031250q8.843750 0.000000 13.234375 -4.609375q4.390625 -4.609375 4.390625 -13.937500l0.000000 -4.453125q-2.781250 4.843750 -7.125000 7.234375q-4.343750 2.390625 -10.406250 2.390625q-10.046875 0.000000 -16.203125 -7.656250q-6.156250 -7.671875 -6.156250 -20.328125q0.000000 -12.687500 6.156250 -20.343750q6.156250 -7.671875 16.203125 -7.671875q6.062500 0.000000 10.406250 2.390625q4.343750 2.390625 7.125000 7.218750l0.000000 -8.296875l8.984375 0.000000z"/>
<path id="c_f05dd90d41f04bb96ef1ca503cc2044b" d="M30.609375 -48.390625q-7.218750 0.000000 -11.421875 5.640625q-4.203125 5.640625 -4.203125 15.453125q0.000000 9.812500 4.171875 15.453125q4.187500 5.640625 11.453125 5.640625q7.187500 0.000000 11.375000 -5.656250q4.203125 -5.671875 4.203125 -15.437500q0.000000 -9.718750 -4.203125 -15.406250q-4.187500 -5.687500 -11.375000 -5.687500M30.609375 -56.000000q11.718750 0.000000 18.406250 7.625000q6.703125 7.609375 6.703125 21.078125q0.000000 13.421875 -6.703125 21.078125q-6.687500 7.640625 -18.406250 7.640625q-11.765625 0.000000 -18.437500 -7.640625q-6.656250 -7.656250 -6.656250 -21.078125q0.000000 -13.468750 6.656250 -21.078125q6.671875 -7.625000 18.437500 -7.625000"/>
<path id="c_fe791a90f5471e2ab20a5ed41a7fa451" d="M54.890625 -33.015625l0.000000 33.015625l-8.984375 0.000000l0.000000 -32.718750q0.000000 -7.765625 -3.031250 -11.609375q-3.031250 -3.859375 -9.078125 -3.859375q-7.281250 0.000000 -11.484375 4.640625q-4.203125 4.625000 -4.203125 12.640625l0.000000 30.906250l-9.031250 0.000000l0.000000 -54.687500l9.031250 0.000000l0.000000 8.500000q3.234375 -4.937500 7.593750 -7.375000q4.375000 -2.437500 10.093750 -2.437500q9.421875 0.000000 14.250000 5.828125q4.843750 5.828125 4.843750 17.156250"/>
<path id="c_4653c6dfde66c7610eae0911760d3490" d="M52.000000 -44.187500q3.375000 -6.062500 8.062500 -8.937500q4.687500 -2.875000 11.031250 -2.875000q8.546875 0.000000 13.187500 5.984375q4.640625 5.968750 4.640625 17.000000l0.000000 33.015625l-9.031250 0.000000l0.000000 -32.718750q0.000000 -7.859375 -2.796875 -11.656250q-2.781250 -3.812500 -8.484375 -3.812500q-6.984375 0.000000 -11.046875 4.640625q-4.046875 4.625000 -4.046875 12.640625l0.000000 30.906250l-9.031250 0.000000l0.000000 -32.718750q0.000000 -7.906250 -2.781250 -11.687500q-2.781250 -3.781250 -8.593750 -3.781250q-6.890625 0.000000 -10.953125 4.656250q-4.046875 4.656250 -4.046875 12.625000l0.000000 30.906250l-9.031250 0.000000l0.000000 -54.687500l9.031250 0.000000l0.000000 8.500000q3.078125 -5.031250 7.375000 -7.421875q4.296875 -2.390625 10.203125 -2.390625q5.968750 0.000000 10.140625 3.031250q4.171875 3.015625 6.171875 8.781250"/>
<path id="c_0f8c41144cfbf448378cb6fd1cc8e549" d="M18.312500 -70.218750l0.000000 15.531250l18.500000 0.000000l0.000000 6.984375l-18.500000 0.000000l0.000000 29.687500q0.000000 6.687500 1.828125 8.593750q1.828125 1.906250 7.453125 1.906250l9.218750 0.000000l0.000000 7.515625l-9.218750 0.000000q-10.406250 0.000000 -14.359375 -3.875000q-3.953125 -3.890625 -3.953125 -14.140625l0.000000 -29.687500l-6.593750 0.000000l0.000000 -6.984375l6.593750 0.000000l0.000000 -15.531250z"/>
<path id="c_d650c37394b681142a10dfc54356d478" d="M48.781250 -52.593750l0.000000 8.406250q-3.812500 -2.109375 -7.640625 -3.156250q-3.828125 -1.046875 -7.734375 -1.046875q-8.750000 0.000000 -13.593750 5.546875q-4.828125 5.531250 -4.828125 15.546875q0.000000 10.015625 4.828125 15.562500q4.843750 5.531250 13.593750 5.531250q3.906250 0.000000 7.734375 -1.046875q3.828125 -1.046875 7.640625 -3.156250l0.000000 8.312500q-3.765625 1.750000 -7.796875 2.625000q-4.015625 0.890625 -8.562500 0.890625q-12.359375 0.000000 -19.640625 -7.765625q-7.265625 -7.765625 -7.265625 -20.953125q0.000000 -13.375000 7.343750 -21.031250q7.359375 -7.671875 20.156250 -7.671875q4.140625 0.000000 8.093750 0.859375q3.953125 0.843750 7.671875 2.546875"/>
<path id="c_5d9b0d099c491f27a9f40b391fa98eef" d="M9.812500 -72.906250l41.890625 0.000000l0.000000 8.312500l-32.031250 0.000000l0.000000 21.484375l28.906250 0.000000l0.000000 8.296875l-28.906250 0.000000l0.000000 34.812500l-9.859375 0.000000z"/>
<path id="c_bc03a93813e543a118c59fdafeacee8b" d="M20.125000 1.125000q-4.750000 0.000000 -8.437500 -2.250000q-3.671875 -2.250000 -5.687500 -6.046875q-2.000000 -3.812500 -2.000000 -8.656250q0.000000 -6.781250 3.781250 -13.421875q3.796875 -6.640625 10.062500 -10.781250q6.281250 -4.156250 13.156250 -4.156250q5.078125 0.000000 8.937500 2.656250q3.859375 2.656250 5.859375 7.078125q2.000000 4.421875 2.000000 9.453125l0.109375 6.687500q3.406250 -4.734375 5.781250 -9.828125q2.375000 -5.109375 3.640625 -10.578125q0.187500 -0.593750 0.781250 -0.593750l1.171875 0.000000q0.921875 0.000000 0.921875 0.937500q0.000000 0.093750 -0.093750 0.281250q-1.171875 4.593750 -2.937500 8.828125q-1.750000 4.218750 -4.125000 8.171875q-2.359375 3.953125 -5.140625 7.171875q0.000000 12.406250 2.875000 12.406250q1.859375 0.000000 3.046875 -1.093750q1.203125 -1.109375 2.109375 -2.718750q0.906250 -1.609375 1.140625 -1.656250l1.218750 0.000000q0.781250 0.000000 0.781250 0.984375q0.000000 2.484375 -2.859375 4.812500q-2.843750 2.312500 -5.625000 2.312500q-3.625000 0.000000 -6.015625 -2.343750q-2.390625 -2.343750 -3.265625 -6.109375q-4.687500 4.000000 -10.156250 6.234375q-5.468750 2.218750 -11.031250 2.218750M20.312500 -1.515625q10.687500 0.000000 20.515625 -8.781250q-0.062500 -0.593750 -0.156250 -1.437500q-0.093750 -0.859375 -0.093750 -0.968750l0.000000 -10.781250q0.000000 -18.125000 -9.765625 -18.125000q-5.859375 0.000000 -10.265625 5.015625q-4.390625 5.000000 -6.609375 11.968750q-2.218750 6.953125 -2.218750 12.703125q0.000000 4.359375 2.218750 7.390625q2.218750 3.015625 6.375000 3.015625"/>
</defs>
<g id="mathtext1">
<g style="fill: #000000" transform="translate(166.700000,38.200000)">
<use xlink:href="#c_f0b2f1db24a99c7a6a1fa56820ca5a8a" transform="translate(0.000000,-3.359375)scale(0.144000)"/>
<use xlink:href="#c_8e0810ad13fe20a2a87a2619799b154d" transform="translate(10.532974,-3.359375)scale(0.144000)"/>
<use xlink:href="#c_0bce5afba2dc6b9024b26277c38ad8e8" transform="translate(18.030426,-3.359375)scale(0.144000)"/>
<use xlink:href="#c_73b12fe3945075d29fe0cc9a468fa31e" transform="translate(26.884033,-3.359375)scale(0.144000)"/>
<use xlink:href="#c_3b515ad41f960e225ec85275856806ca" transform="translate(31.950256,-3.359375)scale(0.144000)"/>
<use xlink:href="#c_5099edb83619131346ae654950954dea" transform="translate(41.070877,-3.359375)scale(0.144000)"/>
<use xlink:href="#c_d41d8cd98f00b204e9800998ecf8427e" transform="translate(45.069046,-3.359375)scale(0.144000)"/>
<use xlink:href="#c_9e4b30cbdf32072672ded72e9074c4c9" transform="translate(49.643402,-3.359375)scale(0.144000)"/>
<use xlink:href="#c_6ec8d5749226675394676a5d2a3b468b" transform="translate(58.433762,-3.359375)scale(0.144000)"/>
<use xlink:href="#c_6a63bda47b2f3da1cec6aadd80692cfe" transform="translate(64.350220,-3.359375)scale(0.144000)"/>
<use xlink:href="#c_e3864de5dabf2f8dd9eee74726882ec1" transform="translate(68.348389,-3.359375)scale(0.144000)"/>
<use xlink:href="#c_f05dd90d41f04bb96ef1ca503cc2044b" transform="translate(77.483063,-3.359375)scale(0.144000)"/>
<use xlink:href="#c_fe791a90f5471e2ab20a5ed41a7fa451" transform="translate(86.287476,-3.359375)scale(0.144000)"/>
<use xlink:href="#c_f05dd90d41f04bb96ef1ca503cc2044b" transform="translate(95.408096,-3.359375)scale(0.144000)"/>
<use xlink:href="#c_4653c6dfde66c7610eae0911760d3490" transform="translate(104.212509,-3.359375)scale(0.144000)"/>
<use xlink:href="#c_0bce5afba2dc6b9024b26277c38ad8e8" transform="translate(118.230713,-3.359375)scale(0.144000)"/>
<use xlink:href="#c_0f8c41144cfbf448378cb6fd1cc8e549" transform="translate(127.084320,-3.359375)scale(0.144000)"/>
<use xlink:href="#c_6ec8d5749226675394676a5d2a3b468b" transform="translate(132.726730,-3.359375)scale(0.144000)"/>
<use xlink:href="#c_6a63bda47b2f3da1cec6aadd80692cfe" transform="translate(138.643188,-3.359375)scale(0.144000)"/>
<use xlink:href="#c_d650c37394b681142a10dfc54356d478" transform="translate(142.641357,-3.359375)scale(0.144000)"/>
<use xlink:href="#c_d41d8cd98f00b204e9800998ecf8427e" transform="translate(150.553391,-3.359375)scale(0.144000)"/>
<use xlink:href="#c_5d9b0d099c491f27a9f40b391fa98eef" transform="translate(155.127747,-3.359375)scale(0.144000)"/>
<use xlink:href="#c_3b515ad41f960e225ec85275856806ca" transform="translate(163.405167,-3.359375)scale(0.144000)"/>
<use xlink:href="#c_fe791a90f5471e2ab20a5ed41a7fa451" transform="translate(172.525787,-3.359375)scale(0.144000)"/>
<use xlink:href="#c_d650c37394b681142a10dfc54356d478" transform="translate(181.646408,-3.359375)scale(0.144000)"/>
<use xlink:href="#c_0f8c41144cfbf448378cb6fd1cc8e549" transform="translate(189.558441,-3.359375)scale(0.144000)"/>
<use xlink:href="#c_6a63bda47b2f3da1cec6aadd80692cfe" transform="translate(195.200851,-3.359375)scale(0.144000)"/>
<use xlink:href="#c_f05dd90d41f04bb96ef1ca503cc2044b" transform="translate(199.199020,-3.359375)scale(0.144000)"/>
<use xlink:href="#c_fe791a90f5471e2ab20a5ed41a7fa451" transform="translate(208.003433,-3.359375)scale(0.144000)"/>
<use xlink:href="#c_8e0810ad13fe20a2a87a2619799b154d" transform="translate(217.124054,-3.359375)scale(0.144000)"/>
<use xlink:href="#c_d41d8cd98f00b204e9800998ecf8427e" transform="translate(224.621506,-3.359375)scale(0.144000)"/>
<use xlink:href="#c_f05dd90d41f04bb96ef1ca503cc2044b" transform="translate(229.195862,-3.359375)scale(0.144000)"/>
<use xlink:href="#c_73b12fe3945075d29fe0cc9a468fa31e" transform="translate(238.000275,-3.359375)scale(0.144000)"/>
<use xlink:href="#c_d41d8cd98f00b204e9800998ecf8427e" transform="translate(243.066498,-3.359375)scale(0.144000)"/>
<use xlink:href="#c_bc03a93813e543a118c59fdafeacee8b" transform="translate(247.640854,-3.359375)scale(0.144000)"/>
</g>
</g>
</g>
<g id="legend1">
<g id="patch7">
<path style="fill: #ffffff; stroke: #000000; stroke-width: 1.000000; stroke-linejoin: round; stroke-linecap: square;  opacity: 1.000000"  d="M79.200000 140.160625L220.040000 140.160625L220.040000 50.400000
L79.200000 50.400000L79.200000 140.160625z"/>
</g>
<g id="line2d34">
<path style="fill: none; stroke: #0000ff; stroke-width: 1.000000; stroke-linejoin: round; stroke-linecap: square;  opacity: 1.000000"  d="M89.280000 62.120000L109.440000 62.120000"/>
</g>
<g id="line2d35">
</g>
<g id="text18">
<defs>
<path id="c_9dee543e61e1891a201a1f71acd5eb15" d="M3.328125 0.296875l0.000000 -16.312500q0.000000 -0.781250 0.875000 -0.781250l1.218750 0.000000q0.578125 0.000000 0.781250 0.781250q2.781250 14.500000 13.468750 14.500000q4.750000 0.000000 7.937500 -2.140625q3.203125 -2.156250 3.203125 -6.640625q0.000000 -3.234375 -2.500000 -5.500000q-2.484375 -2.265625 -5.906250 -3.093750l-6.687500 -1.328125q-3.359375 -0.734375 -6.125000 -2.234375q-2.750000 -1.515625 -4.515625 -4.031250q-1.750000 -2.515625 -1.750000 -5.843750q0.000000 -4.390625 2.312500 -7.187500q2.312500 -2.812500 6.015625 -4.062500q3.718750 -1.250000 8.015625 -1.250000q5.140625 0.000000 8.937500 2.734375l2.890625 -2.484375q0.000000 -0.250000 0.484375 -0.250000l0.734375 0.000000q0.296875 0.000000 0.531250 0.281250q0.250000 0.265625 0.250000 0.546875l0.000000 13.093750q0.000000 0.921875 -0.781250 0.921875l-1.218750 0.000000q-0.890625 0.000000 -0.890625 -0.921875q0.000000 -5.234375 -2.906250 -8.406250q-2.890625 -3.171875 -8.125000 -3.171875q-4.484375 0.000000 -7.781250 1.671875q-3.296875 1.656250 -3.296875 5.703125q0.000000 2.781250 2.359375 4.562500q2.375000 1.781250 5.546875 2.562500l6.781250 1.281250q3.421875 0.781250 6.375000 2.640625q2.953125 1.843750 4.687500 4.687500q1.734375 2.828125 1.734375 6.390625q0.000000 3.609375 -1.250000 6.281250q-1.234375 2.656250 -3.468750 4.421875q-2.218750 1.750000 -5.250000 2.578125q-3.015625 0.828125 -6.343750 0.828125q-6.250000 0.000000 -10.687500 -4.203125l-3.656250 3.953125q0.000000 0.250000 -0.546875 0.250000l-0.578125 0.000000q-0.875000 0.000000 -0.875000 -0.828125"/>
<path id="c_47bb69df3dc90fb95dede367e92e714c" d="M3.078125 -0.000000l0.000000 -3.515625q3.421875 0.000000 5.609375 -0.531250q2.203125 -0.546875 2.203125 -2.640625l0.000000 -27.296875q0.000000 -3.859375 -1.500000 -4.734375q-1.484375 -0.875000 -5.875000 -0.875000l0.000000 -3.515625l14.406250 -1.078125l0.000000 37.500000q0.000000 2.093750 1.906250 2.640625q1.906250 0.531250 5.078125 0.531250l0.000000 3.515625zM7.328125 -61.375000q0.000000 -2.203125 1.656250 -3.859375q1.656250 -1.656250 3.812500 -1.656250q1.406250 0.000000 2.718750 0.734375q1.328125 0.718750 2.062500 2.046875q0.734375 1.312500 0.734375 2.734375q0.000000 2.140625 -1.671875 3.812500q-1.656250 1.656250 -3.843750 1.656250q-2.156250 0.000000 -3.812500 -1.656250q-1.656250 -1.671875 -1.656250 -3.812500"/>
<path id="c_f29dbb720c0206d930ab49b6b497324a" d="M2.984375 -0.000000l0.000000 -3.515625q3.406250 0.000000 5.609375 -0.531250q2.203125 -0.546875 2.203125 -2.640625l0.000000 -27.296875q0.000000 -2.687500 -0.812500 -3.875000q-0.796875 -1.203125 -2.312500 -1.468750q-1.515625 -0.265625 -4.687500 -0.265625l0.000000 -3.515625l14.500000 -1.078125l0.000000 9.765625q2.000000 -4.296875 5.921875 -7.031250q3.937500 -2.734375 8.578125 -2.734375q6.937500 0.000000 10.421875 3.328125q3.500000 3.312500 3.500000 10.140625l0.000000 24.031250q0.000000 2.093750 2.187500 2.640625q2.203125 0.531250 5.625000 0.531250l0.000000 3.515625l-22.906250 0.000000l0.000000 -3.515625q3.421875 0.000000 5.609375 -0.531250q2.203125 -0.546875 2.203125 -2.640625l0.000000 -23.734375q0.000000 -4.875000 -1.421875 -8.031250q-1.406250 -3.156250 -5.812500 -3.156250q-5.796875 0.000000 -9.546875 4.640625q-3.734375 4.640625 -3.734375 10.546875l0.000000 19.734375q0.000000 2.093750 2.203125 2.640625q2.203125 0.531250 5.562500 0.531250l0.000000 3.515625z"/>
<path id="c_06a7a4502300c60b4feec85758ecf628" d="M31.000000 24.812500q-5.562500 -4.406250 -9.593750 -10.093750q-4.015625 -5.687500 -6.593750 -12.140625q-2.562500 -6.437500 -3.828125 -13.468750q-1.265625 -7.031250 -1.265625 -14.109375q0.000000 -7.171875 1.265625 -14.203125q1.265625 -7.031250 3.875000 -13.531250q2.625000 -6.500000 6.671875 -12.156250q4.062500 -5.671875 9.468750 -9.921875q0.000000 -0.187500 0.500000 -0.187500l0.921875 0.000000q0.296875 0.000000 0.531250 0.265625q0.250000 0.265625 0.250000 0.609375q0.000000 0.437500 -0.187500 0.640625q-4.890625 4.781250 -8.140625 10.250000q-3.250000 5.468750 -5.234375 11.656250q-1.968750 6.171875 -2.843750 12.796875q-0.875000 6.609375 -0.875000 13.781250q0.000000 31.781250 16.984375 48.296875q0.296875 0.281250 0.296875 0.828125q0.000000 0.234375 -0.265625 0.546875q-0.265625 0.328125 -0.515625 0.328125l-0.921875 0.000000q-0.500000 0.000000 -0.500000 -0.187500"/>
<path id="c_b865a8a4692360a5eaaff4ecf56eccf7" d="M6.500000 25.000000q-0.890625 0.000000 -0.890625 -0.875000q0.000000 -0.437500 0.203125 -0.640625q17.093750 -16.703125 17.093750 -48.484375q0.000000 -31.781250 -16.906250 -48.296875q-0.390625 -0.234375 -0.390625 -0.828125q0.000000 -0.343750 0.265625 -0.609375q0.281250 -0.265625 0.625000 -0.265625l0.921875 0.000000q0.296875 0.000000 0.484375 0.187500q7.187500 5.671875 11.968750 13.781250q4.781250 8.093750 7.000000 17.281250q2.234375 9.171875 2.234375 18.750000q0.000000 7.078125 -1.203125 13.937500q-1.203125 6.859375 -3.812500 13.515625q-2.609375 6.671875 -6.609375 12.312500q-4.000000 5.640625 -9.578125 10.046875q-0.187500 0.187500 -0.484375 0.187500z"/>
</defs>
<g id="mathtext2">
<g style="fill: #000000" transform="translate(125.280000,71.160000)">
<use xlink:href="#c_9dee543e61e1891a201a1f71acd5eb15" transform="translate(0.000000,-4.203125)scale(0.144000)"/>
<use xlink:href="#c_47bb69df3dc90fb95dede367e92e714c" transform="translate(5.670517,-4.203125)scale(0.144000)"/>
<use xlink:href="#c_f29dbb720c0206d930ab49b6b497324a" transform="translate(9.654633,-4.203125)scale(0.144000)"/>
<use xlink:href="#c_06a7a4502300c60b4feec85758ecf628" transform="translate(17.643951,-4.203125)scale(0.144000)"/>
<use xlink:href="#c_bc03a93813e543a118c59fdafeacee8b" transform="translate(23.230148,-4.203125)scale(0.144000)"/>
<use xlink:href="#c_b865a8a4692360a5eaaff4ecf56eccf7" transform="translate(32.428055,-4.203125)scale(0.144000)"/>
</g>
</g>
</g>
<g id="line2d36">
<path style="fill: none; stroke: #008000; stroke-width: 1.000000; stroke-linejoin: round; stroke-linecap: square;  opacity: 1.000000"  d="M89.280000 84.320000L109.440000 84.320000"/>
</g>
<g id="line2d37">
</g>
<g id="text19">
<defs>
<path id="c_dc2f30de664f961b040176e9cbe7c56c" d="M24.906250 1.125000q-6.062500 0.000000 -11.000000 -3.140625q-4.921875 -3.156250 -7.750000 -8.406250q-2.828125 -5.250000 -2.828125 -11.156250q0.000000 -5.906250 2.796875 -11.328125q2.812500 -5.421875 7.765625 -8.671875q4.953125 -3.250000 11.015625 -3.250000q5.859375 0.000000 10.656250 2.296875q4.812500 2.296875 4.812500 7.515625q0.000000 1.953125 -1.390625 3.406250q-1.390625 1.437500 -3.390625 1.437500q-2.000000 0.000000 -3.390625 -1.437500q-1.390625 -1.453125 -1.390625 -3.406250q0.000000 -1.750000 1.125000 -3.046875q1.125000 -1.296875 2.781250 -1.640625q-3.468750 -2.187500 -9.718750 -2.187500q-4.781250 0.000000 -7.718750 3.171875q-2.921875 3.171875 -4.093750 7.859375q-1.171875 4.687500 -1.171875 9.281250q0.000000 4.828125 1.437500 9.343750q1.437500 4.515625 4.640625 7.468750q3.203125 2.953125 8.031250 2.953125q4.734375 0.000000 8.046875 -2.906250q3.328125 -2.906250 4.546875 -7.593750q0.000000 -0.578125 0.781250 -0.578125l1.218750 0.000000q0.296875 0.000000 0.531250 0.265625q0.250000 0.265625 0.250000 0.609375l0.000000 0.296875q-1.515625 5.906250 -6.015625 9.375000q-4.484375 3.468750 -10.578125 3.468750"/>
<path id="c_3f72f0e1b2c8acfc5e912f2e891b93aa" d="M25.000000 1.125000q-6.000000 0.000000 -11.140625 -3.046875q-5.125000 -3.062500 -8.109375 -8.187500q-2.968750 -5.125000 -2.968750 -11.187500q0.000000 -4.578125 1.640625 -8.828125q1.640625 -4.250000 4.687500 -7.593750q3.046875 -3.343750 7.093750 -5.218750q4.062500 -1.890625 8.796875 -1.890625q6.156250 0.000000 11.203125 3.250000q5.062500 3.250000 7.984375 8.703125q2.937500 5.437500 2.937500 11.578125q0.000000 6.015625 -2.984375 11.171875q-2.984375 5.140625 -8.093750 8.203125q-5.093750 3.046875 -11.046875 3.046875M25.000000 -1.812500q8.015625 0.000000 10.687500 -5.796875q2.687500 -5.812500 2.687500 -14.796875q0.000000 -5.031250 -0.531250 -8.328125q-0.531250 -3.296875 -2.343750 -5.984375q-1.125000 -1.656250 -2.859375 -2.906250q-1.734375 -1.250000 -3.671875 -1.906250q-1.921875 -0.656250 -3.968750 -0.656250q-3.125000 0.000000 -5.937500 1.421875q-2.796875 1.406250 -4.656250 4.046875q-1.859375 2.828125 -2.375000 6.234375q-0.500000 3.390625 -0.500000 8.078125q0.000000 5.609375 0.968750 10.078125q0.984375 4.468750 3.937500 7.500000q2.953125 3.015625 8.562500 3.015625"/>
</defs>
<g id="mathtext3">
<g style="fill: #000000" transform="translate(125.280000,93.360000)">
<use xlink:href="#c_dc2f30de664f961b040176e9cbe7c56c" transform="translate(0.000000,-4.203125)scale(0.144000)"/>
<use xlink:href="#c_3f72f0e1b2c8acfc5e912f2e891b93aa" transform="translate(6.387238,-4.203125)scale(0.144000)"/>
<use xlink:href="#c_9dee543e61e1891a201a1f71acd5eb15" transform="translate(13.582550,-4.203125)scale(0.144000)"/>
<use xlink:href="#c_06a7a4502300c60b4feec85758ecf628" transform="translate(19.253067,-4.203125)scale(0.144000)"/>
<use xlink:href="#c_bc03a93813e543a118c59fdafeacee8b" transform="translate(24.839264,-4.203125)scale(0.144000)"/>
<use xlink:href="#c_b865a8a4692360a5eaaff4ecf56eccf7" transform="translate(34.037170,-4.203125)scale(0.144000)"/>
</g>
</g>
</g>
<g id="line2d38">
<path style="fill: none; stroke: #ff0000; stroke-width: 1.000000; stroke-linejoin: round; stroke-linecap: square;  opacity: 1.000000"  d="M89.280000 106.520000L109.440000 106.520000"/>
</g>
<g id="line2d39">
</g>
<g id="text20">
<defs>
<path id="c_2f862d195b219521c764cb55efc3eca6" d="M9.421875 -12.703125q-1.125000 0.000000 -2.031250 -0.937500q-0.890625 -0.953125 -0.890625 -2.078125q0.000000 -1.718750 1.406250 -2.390625l14.406250 -6.890625l-14.406250 -6.781250q-1.406250 -0.593750 -1.406250 -2.406250q0.000000 -1.109375 0.890625 -2.062500q0.906250 -0.953125 2.031250 -0.953125q0.734375 0.000000 1.375000 0.484375l12.781250 9.328125l-1.453125 -16.312500q0.000000 -1.218750 0.828125 -2.000000q0.828125 -0.781250 2.046875 -0.781250q1.171875 0.000000 1.968750 0.734375q0.812500 0.734375 0.812500 1.859375l0.000000 0.187500l-1.468750 16.312500l12.796875 -9.328125q0.640625 -0.484375 1.375000 -0.484375q1.218750 0.000000 2.062500 0.953125q0.859375 0.953125 0.859375 2.062500q0.000000 1.812500 -1.406250 2.406250l-14.406250 6.781250l14.406250 6.890625q1.406250 0.671875 1.406250 2.390625q0.000000 1.125000 -0.859375 2.078125q-0.843750 0.937500 -2.062500 0.937500q-0.734375 0.000000 -1.375000 -0.484375l-12.796875 -9.328125l1.468750 16.218750l0.000000 0.296875q0.000000 1.109375 -0.859375 1.843750q-0.843750 0.734375 -1.921875 0.734375q-1.171875 0.000000 -2.031250 -0.796875q-0.843750 -0.812500 -0.843750 -1.984375l1.453125 -16.312500l-12.781250 9.328125q-0.640625 0.484375 -1.375000 0.484375"/>
</defs>
<g id="mathtext4">
<g style="fill: #000000" transform="translate(125.280000,115.560000)">
<use xlink:href="#c_dc2f30de664f961b040176e9cbe7c56c" transform="translate(0.000000,-4.203125)scale(0.144000)"/>
<use xlink:href="#c_3f72f0e1b2c8acfc5e912f2e891b93aa" transform="translate(6.387238,-4.203125)scale(0.144000)"/>
<use xlink:href="#c_9dee543e61e1891a201a1f71acd5eb15" transform="translate(13.582550,-4.203125)scale(0.144000)"/>
<use xlink:href="#c_06a7a4502300c60b4feec85758ecf628" transform="translate(19.253067,-4.203125)scale(0.144000)"/>
<use xlink:href="#c_bc03a93813e543a118c59fdafeacee8b" transform="translate(24.839264,-4.203125)scale(0.144000)"/>
<use xlink:href="#c_b865a8a4692360a5eaaff4ecf56eccf7" transform="translate(34.037170,-4.203125)scale(0.144000)"/>
<use xlink:href="#c_2f862d195b219521c764cb55efc3eca6" transform="translate(42.150159,-4.203125)scale(0.144000)"/>
<use xlink:href="#c_9dee543e61e1891a201a1f71acd5eb15" transform="translate(49.989450,-4.203125)scale(0.144000)"/>
<use xlink:href="#c_47bb69df3dc90fb95dede367e92e714c" transform="translate(55.659967,-4.203125)scale(0.144000)"/>
<use xlink:href="#c_f29dbb720c0206d930ab49b6b497324a" transform="translate(59.644083,-4.203125)scale(0.144000)"/>
<use xlink:href="#c_06a7a4502300c60b4feec85758ecf628" transform="translate(67.633401,-4.203125)scale(0.144000)"/>
<use xlink:href="#c_bc03a93813e543a118c59fdafeacee8b" transform="translate(73.219598,-4.203125)scale(0.144000)"/>
<use xlink:href="#c_b865a8a4692360a5eaaff4ecf56eccf7" transform="translate(82.417505,-4.203125)scale(0.144000)"/>
</g>
</g>
</g>
<g id="line2d40">
<path style="fill: none; stroke: #00bfbf; stroke-width: 1.000000; stroke-linejoin: round; stroke-linecap: square;  opacity: 1.000000"  d="M89.280000 128.360625L109.440000 128.360625"/>
</g>
<g id="line2d41">
</g>
<g id="text21">
<g id="mathtext5">
<g style="fill: #000000" transform="translate(125.280000,134.400625)">
<use xlink:href="#c_bc03a93813e543a118c59fdafeacee8b" transform="translate(0.000000,-1.640625)scale(0.144000)"/>
</g>
</g>
</g>
</g>
</g>
</g>
</svg>
