<?xml version="1.0" encoding="UTF-8" standalone="no"?>
<!-- Created with Inkscape (http://www.inkscape.org/) -->

<svg
   xmlns:dc="http://purl.org/dc/elements/1.1/"
   xmlns:cc="http://creativecommons.org/ns#"
   xmlns:rdf="http://www.w3.org/1999/02/22-rdf-syntax-ns#"
   xmlns:svg="http://www.w3.org/2000/svg"
   xmlns="http://www.w3.org/2000/svg"
   xmlns:sodipodi="http://sodipodi.sourceforge.net/DTD/sodipodi-0.dtd"
   xmlns:inkscape="http://www.inkscape.org/namespaces/inkscape"
   width="744.09448819"
   height="1052.3622047"
   id="svg3625"
   version="1.1"
   inkscape:version="0.47pre4 r22446"
   sodipodi:docname="Vunstable.svg"
   inkscape:export-filename="/home/thomas/docs/thesis/thomas/LyapunovNotes/images/Vunstable.png"
   inkscape:export-xdpi="200"
   inkscape:export-ydpi="200">
  <defs
     id="defs3627">
    <inkscape:perspective
       sodipodi:type="inkscape:persp3d"
       inkscape:vp_x="0 : 526.18109 : 1"
       inkscape:vp_y="0 : 1000 : 0"
       inkscape:vp_z="744.09448 : 526.18109 : 1"
       inkscape:persp3d-origin="372.04724 : 350.78739 : 1"
       id="perspective3633" />
    <inkscape:perspective
       id="perspective4153"
       inkscape:persp3d-origin="0.5 : 0.33333333 : 1"
       inkscape:vp_z="1 : 0.5 : 1"
       inkscape:vp_y="0 : 1000 : 0"
       inkscape:vp_x="0 : 0.5 : 1"
       sodipodi:type="inkscape:persp3d" />
    <inkscape:perspective
       id="perspective4683"
       inkscape:persp3d-origin="0.5 : 0.33333333 : 1"
       inkscape:vp_z="1 : 0.5 : 1"
       inkscape:vp_y="0 : 1000 : 0"
       inkscape:vp_x="0 : 0.5 : 1"
       sodipodi:type="inkscape:persp3d" />
    <marker
       inkscape:stockid="Arrow1Lend"
       orient="auto"
       refY="0"
       refX="0"
       id="Arrow1Lend"
       style="overflow:visible">
      <path
         id="path4211"
         d="M 0,0 5,-5 -12.5,0 5,5 0,0 z"
         style="fill-rule:evenodd;stroke:#000000;stroke-width:1pt;marker-start:none"
         transform="matrix(-0.8,0,0,-0.8,-10,0)" />
    </marker>
  </defs>
  <sodipodi:namedview
     id="base"
     pagecolor="#ffffff"
     bordercolor="#666666"
     borderopacity="1.0"
     inkscape:pageopacity="0.0"
     inkscape:pageshadow="2"
     inkscape:zoom="1.4142136"
     inkscape:cx="450.20332"
     inkscape:cy="667.40884"
     inkscape:document-units="px"
     inkscape:current-layer="layer1"
     showgrid="false"
     inkscape:window-width="1920"
     inkscape:window-height="1151"
     inkscape:window-x="0"
     inkscape:window-y="25"
     inkscape:window-maximized="1" />
  <metadata
     id="metadata3630">
    <rdf:RDF>
      <cc:Work
         rdf:about="">
        <dc:format>image/svg+xml</dc:format>
        <dc:type
           rdf:resource="http://purl.org/dc/dcmitype/StillImage" />
        <dc:title></dc:title>
      </cc:Work>
    </rdf:RDF>
  </metadata>
  <g
     inkscape:label="Layer 1"
     inkscape:groupmode="layer"
     id="layer1">
    <path
       sodipodi:type="arc"
       style="fill:#ffffff;fill-opacity:1;stroke:#000000;stroke-width:0.82169116;stroke-miterlimit:4;stroke-opacity:1;stroke-dasharray:none;stroke-dashoffset:0"
       id="path3588"
       sodipodi:cx="400.52548"
       sodipodi:cy="431.62344"
       sodipodi:rx="225.76909"
       sodipodi:ry="225.76909"
       d="m 626.29457,431.62344 a 225.76909,225.76909 0 1 1 -451.53818,0 225.76909,225.76909 0 1 1 451.53818,0 z"
       transform="matrix(1.2170022,0,0,1.2170022,-122.77533,-137.60487)" />
    <g
       transform="translate(18.182744,-14.64721)"
       id="g3594">
      <path
         id="path3590"
         d="m 346.48232,85.646197 0,633.365643"
         style="fill:none;stroke:#000000;stroke-width:1px;stroke-linecap:butt;stroke-linejoin:miter;stroke-opacity:1" />
      <path
         id="path3592"
         d="m 23.233509,402.32902 646.497631,0"
         style="fill:none;stroke:#000000;stroke-width:1px;stroke-linecap:butt;stroke-linejoin:miter;stroke-opacity:1" />
    </g>
    <path
       style="fill:none;stroke:#0000ff;stroke-width:1px;stroke-linecap:butt;stroke-linejoin:miter;stroke-opacity:1"
       d="m 538.41131,303.83915 c 0,0 -61.68637,-68.15101 -94.95434,-53.53809 -24.37815,10.70807 -40.02279,62.5512 -18.18275,77.78175 0,0 54.52313,31.6666 76.7716,53.53808 19.26063,18.93427 43.26479,38.98157 47.47716,65.65992 0,0 25.38988,65.24081 15.15229,95.96449 -10.38811,31.1754 -38.03842,72.20351 -70.71068,68.69037 0,0 -64.64965,1.46483 -93.94418,-10.10152 -42.71911,-16.86678 -108.11163,-36.94754 -110.10663,-82.83251 0,0 16.19683,-69.44154 -4.04061,-92.93404 -16.11939,-18.71209 -49.62695,-22.87032 -72.73098,-14.14213 0,0 -75.07987,6.08352 -90.91373,34.34519 -14.07321,25.11911 16.16244,84.85281 16.16244,84.85281"
       id="path4176"
       sodipodi:nodetypes="cssssssssssss" />
    <path
       style="fill:none;stroke:#00ff00;stroke-width:1px;stroke-linecap:butt;stroke-linejoin:miter;stroke-opacity:1"
       d="m 299.00515,142.21474 c 0,0 32.76189,91.33646 56.56855,133.34014 19.72616,34.80419 62.28723,57.86583 70.71067,96.97464 0,0 16.45621,43.39128 14.14214,65.65992 -3.50543,33.73335 -10.93801,78.05775 -41.41625,92.93403 0,0 -53.59922,45.1314 -84.85282,41.41625 -42.51152,-5.05339 -116.87845,-42.92573 -98.99495,-81.82235 0,0 18.44798,-64.27373 40.4061,-87.88327 18.06363,-19.42215 46.74609,-51.67521 69.70053,-38.3858 l 38.3858,22.22336"
       id="path4178"
       sodipodi:nodetypes="csssssssss" />
    <path
       style="fill:none;stroke:#ff0000;stroke-width:1px;stroke-linecap:butt;stroke-linejoin:miter;stroke-opacity:1"
       d="m 522.24887,180.60054 c 0,0 -69.09208,163.01116 -146.47212,196.97974 -17.36865,4.33996 4.42078,-39.58026 -5.76386,-42.10567 -18.62863,1.08857 -15.92301,34.09636 -6.35797,51.19705"
       id="path4180"
       sodipodi:nodetypes="cccc" />
    <path
       style="fill:none;stroke:#000000;stroke-width:1px;stroke-linecap:butt;stroke-linejoin:miter;stroke-opacity:1;marker-end:url(#Arrow1Lend)"
       d="m 507.40626,212.16519 -1.04414,2.27151"
       id="path4203" />
    <path
       id="path4705"
       d="m 403.39518,359.79557 -1.91844,1.60297"
       style="fill:none;stroke:#000000;stroke-width:1px;stroke-linecap:butt;stroke-linejoin:miter;stroke-opacity:1;marker-end:url(#Arrow1Lend)" />
    <path
       style="fill:none;stroke:#000000;stroke-width:1px;stroke-linecap:butt;stroke-linejoin:miter;stroke-opacity:1;marker-end:url(#Arrow1Lend)"
       d="m 372.34511,347.18344 0.45679,-2.45789"
       id="path4707" />
    <path
       id="path4709"
       d="m 357.3947,368.29358 0.34581,2.47594"
       style="fill:none;stroke:#000000;stroke-width:1px;stroke-linecap:butt;stroke-linejoin:miter;stroke-opacity:1;marker-end:url(#Arrow1Lend)" />
    <path
       style="fill:none;stroke:#000000;stroke-width:1px;stroke-linecap:butt;stroke-linejoin:miter;stroke-opacity:1;marker-end:url(#Arrow1Lend)"
       d="m 295.7877,366.96304 2.16768,-1.24541"
       id="path4711" />
    <path
       id="path4713"
       d="m 224.42533,529.37593 -1.65467,-1.87402"
       style="fill:none;stroke:#000000;stroke-width:1px;stroke-linecap:butt;stroke-linejoin:miter;stroke-opacity:1;marker-end:url(#Arrow1Lend)" />
    <path
       style="fill:none;stroke:#000000;stroke-width:1px;stroke-linecap:butt;stroke-linejoin:miter;stroke-opacity:1;marker-end:url(#Arrow1Lend)"
       d="m 438.34801,454.15994 -0.35158,2.47513"
       id="path4715" />
    <path
       id="path4717"
       d="m 347.15905,259.91224 1.15105,2.21923"
       style="fill:none;stroke:#000000;stroke-width:1px;stroke-linecap:butt;stroke-linejoin:miter;stroke-opacity:1;marker-end:url(#Arrow1Lend)" />
    <path
       style="fill:none;stroke:#000000;stroke-width:1px;stroke-linecap:butt;stroke-linejoin:miter;stroke-opacity:1;marker-end:url(#Arrow1Lend)"
       d="m 509.08469,275.98239 -1.84166,-1.69061"
       id="path4719" />
    <path
       id="path4721"
       d="m 495.79063,376.17962 1.92967,1.58942"
       style="fill:none;stroke:#000000;stroke-width:1px;stroke-linecap:butt;stroke-linejoin:miter;stroke-opacity:1;marker-end:url(#Arrow1Lend)" />
    <path
       style="fill:none;stroke:#000000;stroke-width:1px;stroke-linecap:butt;stroke-linejoin:miter;stroke-opacity:1;marker-end:url(#Arrow1Lend)"
       d="m 542.41578,584.40678 -1.39098,2.07727"
       id="path4723" />
    <path
       id="path4725"
       d="m 301.76755,548.30629 -3.16084,-3.94411"
       style="fill:none;stroke:#000000;stroke-width:1px;stroke-linecap:butt;stroke-linejoin:miter;stroke-opacity:1;marker-end:url(#Arrow1Lend)" />
    <path
       style="fill:none;stroke:#000000;stroke-width:1px;stroke-linecap:butt;stroke-linejoin:miter;stroke-opacity:1;marker-end:url(#Arrow1Lend)"
       d="m 191.29123,414.71129 -4.9704,0.91765"
       id="path4727" />
  </g>
</svg>
