<?xml version="1.0" encoding="UTF-8" standalone="no"?>
<!-- Created with matplotlib (http://matplotlib.sourceforge.net/) -->

<svg
   xmlns:dc="http://purl.org/dc/elements/1.1/"
   xmlns:cc="http://creativecommons.org/ns#"
   xmlns:rdf="http://www.w3.org/1999/02/22-rdf-syntax-ns#"
   xmlns:svg="http://www.w3.org/2000/svg"
   xmlns="http://www.w3.org/2000/svg"
   xmlns:xlink="http://www.w3.org/1999/xlink"
   xmlns:sodipodi="http://sodipodi.sourceforge.net/DTD/sodipodi-0.dtd"
   xmlns:inkscape="http://www.inkscape.org/namespaces/inkscape"
   width="576pt"
   height="432pt"
   viewBox="0 0 576 432"
   version="1.1"
   id="svg1"
   inkscape:version="0.47 r22583"
   sodipodi:docname="20100929_1448_pbtx.svg">
  <metadata
     id="metadata4169">
    <rdf:RDF>
      <cc:Work
         rdf:about="">
        <dc:format>image/svg+xml</dc:format>
        <dc:type
           rdf:resource="http://purl.org/dc/dcmitype/StillImage" />
      </cc:Work>
    </rdf:RDF>
  </metadata>
  <defs
     id="defs4167">
    <inkscape:perspective
       sodipodi:type="inkscape:persp3d"
       inkscape:vp_x="0 : 270 : 1"
       inkscape:vp_y="0 : 1000 : 0"
       inkscape:vp_z="720 : 270 : 1"
       inkscape:persp3d-origin="360 : 180 : 1"
       id="perspective4171" />
    <inkscape:perspective
       id="perspective4888"
       inkscape:persp3d-origin="0.5 : 0.33333333 : 1"
       inkscape:vp_z="1 : 0.5 : 1"
       inkscape:vp_y="0 : 1000 : 0"
       inkscape:vp_x="0 : 0.5 : 1"
       sodipodi:type="inkscape:persp3d" />
    <inkscape:perspective
       id="perspective4910"
       inkscape:persp3d-origin="0.5 : 0.33333333 : 1"
       inkscape:vp_z="1 : 0.5 : 1"
       inkscape:vp_y="0 : 1000 : 0"
       inkscape:vp_x="0 : 0.5 : 1"
       sodipodi:type="inkscape:persp3d" />
  </defs>
  <sodipodi:namedview
     pagecolor="#ffffff"
     bordercolor="#666666"
     borderopacity="1"
     objecttolerance="10"
     gridtolerance="10"
     guidetolerance="10"
     inkscape:pageopacity="0"
     inkscape:pageshadow="2"
     inkscape:window-width="1920"
     inkscape:window-height="1148"
     id="namedview4165"
     showgrid="false"
     inkscape:zoom="1.2361274"
     inkscape:cx="595.88068"
     inkscape:cy="254.46832"
     inkscape:window-x="0"
     inkscape:window-y="25"
     inkscape:window-maximized="1"
     inkscape:current-layer="svg1" />
  <g
     id="figure1">
    <g
       id="patch1">
      <path
         style="fill: #ffffff; stroke: #ffffff; stroke-width: 1.000000; stroke-linejoin: round; stroke-linecap: square;  opacity: 1.000000"
         d="M0.000000 432.000000L576.000000 432.000000L576.000000 0.000000 L0.000000 0.000000L0.000000 432.000000"
         id="path3517" />
    </g>
    <g
       id="axes1">
      <g
         id="patch2">
        <path
           style="fill: #ffffff; opacity: 1.000000"
           d="M72.000000 388.800000L518.400000 388.800000L518.400000 43.200000 L72.000000 43.200000L72.000000 388.800000"
           id="path3521" />
      </g>
      <g
         id="line2d1">
        <defs
           id="defs3524">
          <clipPath
             id="p50431ccdcb28178602d99d9270004dde">
            <rect
               x="72.000000"
               y="43.200000"
               width="446.400000"
               height="345.600000"
               id="rect3527" />
          </clipPath>
        </defs>
        <path
           style="fill: none; stroke: #0000ff; stroke-width: 1.000000; stroke-linejoin: round; stroke-linecap: square;  opacity: 1.000000"
           clip-path="url(#p50431ccdcb28178602d99d9270004dde)"
           d="M72.000000 220.029860L72.496000 43.200000L76.960000 43.200000 L78.448000 43.883340L80.432000 53.934792L81.920000 68.392054 L82.416000 69.845600L83.408000 71.233474L85.392000 78.703453 L86.384000 82.790301L88.368000 88.522196L89.360000 93.720138 L89.856000 100.527515L90.848000 106.187382L91.344000 108.541661 L92.336000 114.437651L94.320000 123.553499L94.816000 125.234932 L95.808000 126.240777L96.304000 157.193985L98.784000 180.237463 L100.768000 153.838615L102.256000 123.174613L103.248000 119.276386 L104.736000 122.571721L105.728000 127.304222L106.720000 128.424260 L112.672000 161.296469L114.160000 165.265412L115.152000 166.371831 L118.624000 179.313752L120.112000 183.258863L122.096000 186.620484 L122.592000 190.485307L123.584000 193.518746L126.064000 201.854856 L127.552000 208.152154L128.048000 209.489538L129.536000 208.915971 L133.504000 216.355990L136.480000 222.114092L138.464000 226.816893 L142.928000 231.359617L143.920000 218.990498L144.416000 230.765328 L145.904000 228.499955L146.400000 225.801793L146.896000 220.356141 L147.888000 195.469034L149.376000 161.910226L149.872000 156.978123 L150.864000 139.275679L151.856000 128.762339L152.848000 120.072609 L153.840000 121.826942L156.320000 134.743062L157.808000 138.449397 L158.800000 143.138837L163.760000 166.325009L165.248000 171.842023 L166.736000 178.116676L168.224000 183.078649L170.208000 189.880083 L170.704000 161.288306L172.192000 164.987479L173.184000 166.416293 L174.672000 167.185758L177.152000 175.597075L178.640000 180.145078 L182.608000 192.436562L185.584000 199.048048L190.544000 210.188658 L194.512000 217.825107L196.496000 220.960181L198.480000 223.849218 L199.968000 224.451966L204.432000 229.849492L205.424000 216.049499 L205.920000 121.059837L206.912000 122.789300L207.904000 121.710853 L209.888000 85.815724L210.880000 95.928427L211.872000 82.007376 L212.864000 74.500614L213.856000 70.383546L215.344000 71.193127 L216.336000 72.762000L218.816000 80.257571L219.312000 81.538978 L224.768000 106.326719L225.264000 107.526934L225.760000 72.240310 L227.248000 77.465283L228.240000 75.957372L229.232000 77.971829 L230.720000 82.774969L231.712000 83.809328L232.208000 84.945238 L233.696000 91.156825L234.192000 92.498427L235.184000 96.330544 L235.680000 98.160276L236.672000 99.547818L237.664000 102.981888 L238.160000 104.400254L238.656000 116.633349L239.648000 119.510841 L240.640000 118.488072L241.632000 111.999694L242.128000 115.119505 L243.616000 121.336062L244.112000 128.848469L245.600000 129.268608 L247.088000 128.533124L248.576000 129.199542L249.072000 127.335413 L250.560000 131.118182L252.544000 136.343719L254.032000 139.934272 L256.016000 146.120205L256.512000 145.031958L258.000000 149.002157 L259.488000 154.602588L260.480000 170.614192L261.472000 172.983306 L262.960000 166.694598L263.952000 170.929662L264.944000 174.066389 L265.440000 178.013767L266.432000 174.286182L267.424000 168.228537 L268.912000 168.499380L275.360000 183.749846L276.352000 184.756738 L276.848000 186.654761L277.840000 188.665226L279.328000 188.858304 L280.816000 189.520640L281.312000 212.490201L282.800000 212.941315 L284.288000 217.296041L288.752000 224.713256L292.720000 230.276211 L294.208000 216.738878L294.704000 178.138213L295.200000 179.963862 L296.192000 182.221568L297.184000 181.001226L297.680000 177.529912 L299.168000 160.812102L299.664000 163.577442L300.160000 160.045388 L301.152000 158.443128L302.144000 160.540667L303.632000 167.441971 L304.624000 169.554416L306.112000 171.312939L306.608000 172.682498 L307.104000 175.103318L309.584000 182.389804L312.064000 190.960373 L313.056000 195.387584L314.544000 200.008796L319.504000 210.109015 L322.480000 216.327229L323.968000 218.763519L329.920000 227.996966 L330.912000 229.334082L331.904000 216.001596L332.400000 132.839881 L333.888000 128.934476L334.384000 118.385248L335.376000 82.223325 L336.864000 43.281566L344.304000 43.200000L345.792000 44.215276 L348.272000 50.189242L349.760000 59.876016L351.248000 67.478448 L352.736000 69.134394L355.712000 80.339204L358.192000 90.552946 L360.672000 101.413728L362.656000 108.175910L364.144000 114.630070 L365.632000 119.929464L370.096000 139.692771L371.584000 146.336315 L378.528000 174.795294L381.504000 185.213308L382.992000 189.096085 L384.480000 193.805378L385.472000 196.482385L390.432000 208.791661 L395.392000 218.257926L401.840000 227.267748L403.824000 229.807748 L404.320000 259.200000L469.792000 259.200000L469.792000 259.200000"
           id="path3529" />
      </g>
      <g
         id="line2d2">
        <path
           style="fill: none; stroke: #008000; stroke-width: 1.000000; stroke-linejoin: round; stroke-linecap: square;  opacity: 1.000000"
           clip-path="url(#p50431ccdcb28178602d99d9270004dde)"
           d="M72.000000 227.361146L72.496000 224.412874L73.488000 223.175103 L74.976000 224.538070L76.464000 229.846710L77.456000 231.822858 L78.944000 239.808313L79.440000 241.440076L80.928000 259.282041 L81.920000 275.605345L84.896000 254.587242L85.392000 255.865591 L85.888000 258.703615L86.384000 252.732960L87.872000 249.201127 L88.368000 247.896800L89.360000 249.626809L89.856000 267.512762 L90.848000 271.304538L91.344000 273.508775L91.840000 277.394417 L92.832000 276.337812L93.824000 273.082091L96.304000 360.594130 L98.288000 374.887429L99.280000 370.912789L99.776000 365.357555 L101.264000 331.336872L101.760000 314.060745L102.256000 280.403316 L102.752000 269.974989L103.744000 240.322874L104.240000 237.546166 L105.728000 247.327193L106.224000 227.992601L107.216000 229.732006 L108.704000 245.429389L109.200000 247.580781L111.184000 270.810348 L112.176000 278.149177L112.672000 282.230514L113.168000 279.935127 L115.152000 267.695768L116.144000 270.093349L116.640000 276.168673 L117.632000 278.401668L119.120000 276.223865L119.616000 278.206831 L121.600000 270.420980L122.096000 267.161671L122.592000 330.461906 L123.088000 325.934731L123.584000 328.665570L124.576000 324.543205 L125.072000 318.420061L126.560000 256.891954L128.048000 232.006993 L129.040000 249.636663L129.536000 290.619053L132.016000 288.165874 L133.008000 280.194042L134.000000 308.204905L135.488000 283.733336 L135.984000 301.008647L138.960000 245.419010L140.448000 244.066316 L141.440000 241.208531L141.936000 244.069863L143.424000 243.127775 L144.416000 114.739872L145.904000 114.159126L146.896000 112.223759 L147.392000 109.539363L148.880000 112.161612L149.872000 121.514267 L151.856000 167.921867L152.848000 219.305977L153.344000 204.563435 L155.328000 322.708638L155.824000 334.049454L156.320000 329.271543 L156.816000 319.460129L157.312000 270.718414L158.304000 275.664503 L158.800000 273.998307L159.792000 310.345919L160.784000 278.721613 L161.776000 280.197349L162.272000 259.990981L162.768000 256.670141 L163.760000 230.931935L166.240000 251.240735L166.736000 253.318916 L167.232000 256.942653L168.224000 265.909319L169.216000 253.081664 L170.704000 199.753562L171.200000 198.548716L172.192000 136.771919 L172.688000 139.977768L173.680000 171.220107L175.168000 291.554389 L176.160000 306.834126L176.656000 305.443326L177.648000 296.376723 L180.128000 243.284876L180.624000 202.879771L181.120000 199.675083 L181.616000 191.449233L183.600000 241.818519L184.096000 246.722300 L185.088000 264.530951L185.584000 267.508159L187.072000 263.148556 L188.064000 256.592079L189.056000 312.463829L190.048000 302.552781 L191.040000 278.817949L192.032000 298.571275L192.528000 297.310524 L193.024000 292.479239L196.000000 211.838002L196.496000 192.314116 L197.488000 184.241933L198.480000 185.912693L198.976000 194.338844 L199.968000 242.550755L201.456000 276.800170L201.952000 278.489997 L202.944000 276.214787L204.432000 269.412249L205.424000 265.030218 L205.920000 152.579968L207.408000 151.479571L207.904000 152.655512 L209.392000 180.616217L209.888000 193.120289L210.880000 180.890161 L211.872000 204.768991L213.360000 235.844354L214.848000 254.559018 L217.328000 259.989193L218.816000 261.961603L219.808000 260.893321 L220.800000 257.437390L221.296000 251.585410L222.288000 248.326731 L222.784000 242.769167L224.272000 238.052935L225.760000 241.353987 L226.256000 240.004583L226.752000 236.728995L227.248000 238.255199 L228.736000 251.956356L229.232000 253.213452L229.728000 255.604753 L230.224000 251.254846L231.216000 252.994238L231.712000 258.106563 L233.696000 251.366518L235.184000 246.721287L236.176000 253.062665 L237.664000 249.837273L238.160000 248.435681L238.656000 215.865233 L239.648000 213.930854L240.144000 216.418668L241.136000 224.798274 L241.632000 252.123907L242.128000 243.232224L243.120000 253.789831 L244.112000 214.469327L245.600000 221.898826L246.592000 224.455095 L247.088000 230.333360L248.576000 238.885800L249.072000 249.542573 L249.568000 252.021977L250.064000 250.691617L251.552000 247.707999 L252.048000 249.065874L253.536000 249.497083L254.528000 246.331891 L255.024000 245.214054L255.520000 243.270564L257.008000 257.219574 L258.496000 251.038218L258.992000 253.725629L259.488000 246.206310 L260.480000 196.999201L261.472000 194.456665L262.960000 218.783979 L263.456000 211.790298L263.952000 209.537407L264.448000 210.845052 L265.440000 194.580241L266.432000 208.605553L267.424000 237.093726 L268.416000 249.347745L268.912000 250.501179L269.408000 247.863748 L270.896000 248.443487L271.888000 247.301538L272.384000 246.008610 L274.864000 235.349245L275.360000 233.134621L276.352000 235.605110 L276.848000 230.635503L277.840000 227.834409L278.832000 233.664877 L279.328000 123.050787L280.320000 126.691625L281.312000 146.206363 L281.808000 164.710578L282.800000 219.555837L283.792000 249.918346 L284.288000 256.347869L284.784000 254.017538L285.280000 256.539666 L285.776000 255.468393L286.768000 256.886171L288.256000 262.618116 L288.752000 261.366815L290.240000 261.564487L292.720000 256.621245 L294.208000 257.177536L294.704000 381.563674L295.200000 383.052298 L296.192000 384.632230L297.184000 382.190039L297.680000 377.166182 L298.672000 349.048550L299.664000 382.864430L301.152000 272.224288 L301.648000 249.454821L302.640000 188.041167L303.136000 176.983259 L304.128000 182.225061L305.120000 196.874671L305.616000 209.516112 L306.112000 237.709430L307.104000 214.692515L308.096000 238.279957 L309.584000 254.360298L311.072000 255.547310L311.568000 258.598842 L312.064000 256.288538L312.560000 299.229211L313.056000 306.051111 L313.552000 308.016462L314.048000 313.066849L314.544000 307.997284 L316.032000 271.461581L316.528000 281.971664L318.512000 244.244503 L319.008000 263.511328L319.504000 260.608873L320.992000 257.471847 L322.480000 253.516262L323.968000 251.500239L326.944000 239.211265 L328.432000 238.948769L329.920000 248.083705L330.912000 249.764561 L332.400000 122.563295L333.888000 123.307667L334.384000 125.640770 L336.368000 161.056145L336.864000 100.918596L337.856000 145.162688 L338.352000 135.904930L340.336000 298.015049L341.328000 327.508972 L341.824000 328.740587L342.816000 314.631024L343.312000 303.061113 L344.304000 248.912155L344.800000 245.427196L345.792000 206.767955 L346.784000 204.954674L347.280000 211.236692L347.776000 272.938056 L348.272000 282.785237L349.264000 314.534254L350.256000 331.152013 L351.248000 339.757016L351.744000 318.208494L352.736000 247.444669 L354.224000 215.397935L354.720000 226.067138L355.216000 224.849434 L357.696000 288.164626L358.688000 218.679428L359.680000 198.374826 L360.176000 199.961391L361.168000 221.730171L361.664000 229.262990 L362.160000 245.382754L363.648000 256.223654L364.144000 254.410924 L364.640000 248.396654L365.136000 246.472079L366.128000 251.372160 L366.624000 259.714687L367.120000 276.789323L367.616000 278.656913 L368.112000 292.361910L368.608000 291.048807L370.096000 266.583658 L370.592000 276.186437L371.584000 261.435205L372.080000 251.738939 L373.072000 261.810179L373.568000 260.249613L374.560000 232.751651 L375.552000 306.067306L376.048000 307.677401L376.544000 305.797181 L377.536000 303.478857L379.520000 234.250985L380.016000 224.500427 L380.512000 222.542035L382.000000 228.705243L382.992000 244.998158 L383.984000 269.199860L384.480000 278.545232L385.968000 267.137244 L386.464000 258.931875L387.952000 252.117317L388.944000 250.087636 L389.936000 243.214600L390.432000 233.899793L392.416000 255.928799 L392.912000 257.358185L393.408000 256.231205L393.904000 259.101705 L395.392000 250.533017L396.880000 251.145639L398.864000 247.028514 L399.360000 243.156432L399.856000 241.955845L401.840000 239.429600 L402.832000 242.099699L404.320000 259.200000L469.792000 259.200000 L469.792000 259.200000"
           id="path3532" />
      </g>
      <g
         id="matplotlib.axis1">
        <g
           id="xtick1">
          <g
             id="line2d3">
            <defs
               id="defs3537">
              <path
                 id="m30e32995789d870ad79a2e54c91cf9c6"
                 d="M0.000000 0.000000L0.000000 -4.000000" />
            </defs>
            <g
               id="g3540">
              <use
                 style="fill: none; stroke: #000000; stroke-width: 0.500000; stroke-linejoin: round; stroke-linecap: butt;  opacity: 1.000000"
                 xlink:href="#m30e32995789d870ad79a2e54c91cf9c6"
                 x="72.000000"
                 y="388.800000"
                 id="use3542" />
            </g>
          </g>
          <g
             id="line2d4">
            <defs
               id="defs3545">
              <path
                 id="m9281cae24120827b11d5ea8a7ad3e96b"
                 d="M0.000000 0.000000L0.000000 4.000000" />
            </defs>
            <g
               id="g3548">
              <use
                 style="fill: none; stroke: #000000; stroke-width: 0.500000; stroke-linejoin: round; stroke-linecap: butt;  opacity: 1.000000"
                 xlink:href="#m9281cae24120827b11d5ea8a7ad3e96b"
                 x="72.000000"
                 y="43.200000"
                 id="use3550" />
            </g>
          </g>
          <g
             id="text1">
            <defs
               id="defs3553">
              <path
                 id="c_7a2040fe3b94fcd41d0a72c84e93b115"
                 d="M31.781250 -66.406250q-7.609375 0.000000 -11.453125 7.500000q-3.828125 7.484375 -3.828125 22.531250q0.000000 14.984375 3.828125 22.484375q3.843750 7.500000 11.453125 7.500000q7.671875 0.000000 11.500000 -7.500000q3.843750 -7.500000 3.843750 -22.484375q0.000000 -15.046875 -3.843750 -22.531250q-3.828125 -7.500000 -11.500000 -7.500000M31.781250 -74.218750q12.265625 0.000000 18.734375 9.703125q6.468750 9.687500 6.468750 28.140625q0.000000 18.406250 -6.468750 28.109375q-6.468750 9.687500 -18.734375 9.687500q-12.250000 0.000000 -18.718750 -9.687500q-6.468750 -9.703125 -6.468750 -28.109375q0.000000 -18.453125 6.468750 -28.140625q6.468750 -9.703125 18.718750 -9.703125" />
            </defs>
            <g
               style="fill: #000000; opacity: 1.000000"
               transform="translate(68.976562,401.706250)scale(0.120000)"
               id="g3556">
              <use
                 xlink:href="#c_7a2040fe3b94fcd41d0a72c84e93b115"
                 id="use3558" />
            </g>
          </g>
        </g>
        <g
           id="xtick2">
          <g
             id="line2d5">
            <g
               id="g3562">
              <use
                 style="fill: none; stroke: #000000; stroke-width: 0.500000; stroke-linejoin: round; stroke-linecap: butt;  opacity: 1.000000"
                 xlink:href="#m30e32995789d870ad79a2e54c91cf9c6"
                 x="121.600000"
                 y="388.800000"
                 id="use3564" />
            </g>
          </g>
          <g
             id="line2d6">
            <g
               id="g3567">
              <use
                 style="fill: none; stroke: #000000; stroke-width: 0.500000; stroke-linejoin: round; stroke-linecap: butt;  opacity: 1.000000"
                 xlink:href="#m9281cae24120827b11d5ea8a7ad3e96b"
                 x="121.600000"
                 y="43.200000"
                 id="use3569" />
            </g>
          </g>
          <g
             id="text2">
            <defs
               id="defs3572">
              <path
                 id="c_42baa63129a918535c52adb20d687ea7"
                 d="M12.406250 -8.296875l16.109375 0.000000l0.000000 -55.625000l-17.531250 3.515625l0.000000 -8.984375l17.437500 -3.515625l9.859375 0.000000l0.000000 64.609375l16.109375 0.000000l0.000000 8.296875l-41.984375 0.000000z" />
            </defs>
            <g
               style="fill: #000000; opacity: 1.000000"
               transform="translate(111.193750,401.706250)scale(0.120000)"
               id="g3575">
              <use
                 xlink:href="#c_42baa63129a918535c52adb20d687ea7"
                 id="use3577" />
              <use
                 xlink:href="#c_7a2040fe3b94fcd41d0a72c84e93b115"
                 x="63.623047"
                 id="use3579" />
              <use
                 xlink:href="#c_7a2040fe3b94fcd41d0a72c84e93b115"
                 x="127.246094"
                 id="use3581" />
            </g>
          </g>
        </g>
        <g
           id="xtick3">
          <g
             id="line2d7">
            <g
               id="g3585">
              <use
                 style="fill: none; stroke: #000000; stroke-width: 0.500000; stroke-linejoin: round; stroke-linecap: butt;  opacity: 1.000000"
                 xlink:href="#m30e32995789d870ad79a2e54c91cf9c6"
                 x="171.200000"
                 y="388.800000"
                 id="use3587" />
            </g>
          </g>
          <g
             id="line2d8">
            <g
               id="g3590">
              <use
                 style="fill: none; stroke: #000000; stroke-width: 0.500000; stroke-linejoin: round; stroke-linecap: butt;  opacity: 1.000000"
                 xlink:href="#m9281cae24120827b11d5ea8a7ad3e96b"
                 x="171.200000"
                 y="43.200000"
                 id="use3592" />
            </g>
          </g>
          <g
             id="text3">
            <defs
               id="defs3595">
              <path
                 id="c_ed3f3ed3ebfbd18bcb9c012009a68ad1"
                 d="M19.187500 -8.296875l34.421875 0.000000l0.000000 8.296875l-46.281250 0.000000l0.000000 -8.296875q5.609375 -5.812500 15.296875 -15.593750q9.703125 -9.796875 12.187500 -12.640625q4.734375 -5.312500 6.609375 -9.000000q1.890625 -3.687500 1.890625 -7.250000q0.000000 -5.812500 -4.078125 -9.468750q-4.078125 -3.671875 -10.625000 -3.671875q-4.640625 0.000000 -9.796875 1.609375q-5.140625 1.609375 -11.000000 4.890625l0.000000 -9.968750q5.953125 -2.390625 11.125000 -3.609375q5.187500 -1.218750 9.484375 -1.218750q11.328125 0.000000 18.062500 5.671875q6.734375 5.656250 6.734375 15.125000q0.000000 4.500000 -1.687500 8.531250q-1.671875 4.015625 -6.125000 9.484375q-1.218750 1.421875 -7.765625 8.187500q-6.531250 6.765625 -18.453125 18.921875" />
            </defs>
            <g
               style="fill: #000000; opacity: 1.000000"
               transform="translate(160.575000,401.706250)scale(0.120000)"
               id="g3598">
              <use
                 xlink:href="#c_ed3f3ed3ebfbd18bcb9c012009a68ad1"
                 id="use3600" />
              <use
                 xlink:href="#c_7a2040fe3b94fcd41d0a72c84e93b115"
                 x="63.623047"
                 id="use3602" />
              <use
                 xlink:href="#c_7a2040fe3b94fcd41d0a72c84e93b115"
                 x="127.246094"
                 id="use3604" />
            </g>
          </g>
        </g>
        <g
           id="xtick4">
          <g
             id="line2d9">
            <g
               id="g3608">
              <use
                 style="fill: none; stroke: #000000; stroke-width: 0.500000; stroke-linejoin: round; stroke-linecap: butt;  opacity: 1.000000"
                 xlink:href="#m30e32995789d870ad79a2e54c91cf9c6"
                 x="220.800000"
                 y="388.800000"
                 id="use3610" />
            </g>
          </g>
          <g
             id="line2d10">
            <g
               id="g3613">
              <use
                 style="fill: none; stroke: #000000; stroke-width: 0.500000; stroke-linejoin: round; stroke-linecap: butt;  opacity: 1.000000"
                 xlink:href="#m9281cae24120827b11d5ea8a7ad3e96b"
                 x="220.800000"
                 y="43.200000"
                 id="use3615" />
            </g>
          </g>
          <g
             id="text4">
            <defs
               id="defs3618">
              <path
                 id="c_3dcfa38a02242cb63ec6726c6e70be7a"
                 d="M40.578125 -39.312500q7.078125 1.515625 11.046875 6.312500q3.984375 4.781250 3.984375 11.812500q0.000000 10.781250 -7.421875 16.703125q-7.421875 5.906250 -21.093750 5.906250q-4.578125 0.000000 -9.437500 -0.906250q-4.859375 -0.906250 -10.031250 -2.718750l0.000000 -9.515625q4.093750 2.390625 8.968750 3.609375q4.890625 1.218750 10.218750 1.218750q9.265625 0.000000 14.125000 -3.656250q4.859375 -3.656250 4.859375 -10.640625q0.000000 -6.453125 -4.515625 -10.078125q-4.515625 -3.640625 -12.562500 -3.640625l-8.500000 0.000000l0.000000 -8.109375l8.890625 0.000000q7.265625 0.000000 11.125000 -2.906250q3.859375 -2.906250 3.859375 -8.375000q0.000000 -5.609375 -3.984375 -8.609375q-3.968750 -3.015625 -11.390625 -3.015625q-4.062500 0.000000 -8.703125 0.890625q-4.640625 0.875000 -10.203125 2.718750l0.000000 -8.781250q5.625000 -1.562500 10.531250 -2.343750q4.906250 -0.781250 9.250000 -0.781250q11.234375 0.000000 17.765625 5.109375q6.546875 5.093750 6.546875 13.781250q0.000000 6.062500 -3.468750 10.234375q-3.468750 4.171875 -9.859375 5.781250" />
            </defs>
            <g
               style="fill: #000000; opacity: 1.000000"
               transform="translate(210.198438,401.706250)scale(0.120000)"
               id="g3621">
              <use
                 xlink:href="#c_3dcfa38a02242cb63ec6726c6e70be7a"
                 id="use3623" />
              <use
                 xlink:href="#c_7a2040fe3b94fcd41d0a72c84e93b115"
                 x="63.623047"
                 id="use3625" />
              <use
                 xlink:href="#c_7a2040fe3b94fcd41d0a72c84e93b115"
                 x="127.246094"
                 id="use3627" />
            </g>
          </g>
        </g>
        <g
           id="xtick5">
          <g
             id="line2d11">
            <g
               id="g3631">
              <use
                 style="fill: none; stroke: #000000; stroke-width: 0.500000; stroke-linejoin: round; stroke-linecap: butt;  opacity: 1.000000"
                 xlink:href="#m30e32995789d870ad79a2e54c91cf9c6"
                 x="270.400000"
                 y="388.800000"
                 id="use3633" />
            </g>
          </g>
          <g
             id="line2d12">
            <g
               id="g3636">
              <use
                 style="fill: none; stroke: #000000; stroke-width: 0.500000; stroke-linejoin: round; stroke-linecap: butt;  opacity: 1.000000"
                 xlink:href="#m9281cae24120827b11d5ea8a7ad3e96b"
                 x="270.400000"
                 y="43.200000"
                 id="use3638" />
            </g>
          </g>
          <g
             id="text5">
            <defs
               id="defs3641">
              <path
                 id="c_a0416418d96557a09b8c1332d34883ba"
                 d="M37.796875 -64.312500l-24.906250 38.921875l24.906250 0.000000zM35.203125 -72.906250l12.406250 0.000000l0.000000 47.515625l10.406250 0.000000l0.000000 8.203125l-10.406250 0.000000l0.000000 17.187500l-9.812500 0.000000l0.000000 -17.187500l-32.906250 0.000000l0.000000 -9.515625z" />
            </defs>
            <g
               style="fill: #000000; opacity: 1.000000"
               transform="translate(259.634375,401.706250)scale(0.120000)"
               id="g3644">
              <use
                 xlink:href="#c_a0416418d96557a09b8c1332d34883ba"
                 id="use3646" />
              <use
                 xlink:href="#c_7a2040fe3b94fcd41d0a72c84e93b115"
                 x="63.623047"
                 id="use3648" />
              <use
                 xlink:href="#c_7a2040fe3b94fcd41d0a72c84e93b115"
                 x="127.246094"
                 id="use3650" />
            </g>
          </g>
        </g>
        <g
           id="xtick6">
          <g
             id="line2d13">
            <g
               id="g3654">
              <use
                 style="fill: none; stroke: #000000; stroke-width: 0.500000; stroke-linejoin: round; stroke-linecap: butt;  opacity: 1.000000"
                 xlink:href="#m30e32995789d870ad79a2e54c91cf9c6"
                 x="320.000000"
                 y="388.800000"
                 id="use3656" />
            </g>
          </g>
          <g
             id="line2d14">
            <g
               id="g3659">
              <use
                 style="fill: none; stroke: #000000; stroke-width: 0.500000; stroke-linejoin: round; stroke-linecap: butt;  opacity: 1.000000"
                 xlink:href="#m9281cae24120827b11d5ea8a7ad3e96b"
                 x="320.000000"
                 y="43.200000"
                 id="use3661" />
            </g>
          </g>
          <g
             id="text6">
            <defs
               id="defs3664">
              <path
                 id="c_1260a2df50f305f3db244e29828f968e"
                 d="M10.796875 -72.906250l38.718750 0.000000l0.000000 8.312500l-29.687500 0.000000l0.000000 17.859375q2.140625 -0.734375 4.281250 -1.093750q2.156250 -0.359375 4.312500 -0.359375q12.203125 0.000000 19.328125 6.687500q7.140625 6.687500 7.140625 18.109375q0.000000 11.765625 -7.328125 18.296875q-7.328125 6.515625 -20.656250 6.515625q-4.593750 0.000000 -9.359375 -0.781250q-4.750000 -0.781250 -9.828125 -2.343750l0.000000 -9.921875q4.390625 2.390625 9.078125 3.562500q4.687500 1.171875 9.906250 1.171875q8.453125 0.000000 13.375000 -4.437500q4.937500 -4.437500 4.937500 -12.062500q0.000000 -7.609375 -4.937500 -12.046875q-4.921875 -4.453125 -13.375000 -4.453125q-3.953125 0.000000 -7.890625 0.875000q-3.921875 0.875000 -8.015625 2.734375z" />
            </defs>
            <g
               style="fill: #000000; opacity: 1.000000"
               transform="translate(309.398438,401.706250)scale(0.120000)"
               id="g3667">
              <use
                 xlink:href="#c_1260a2df50f305f3db244e29828f968e"
                 id="use3669" />
              <use
                 xlink:href="#c_7a2040fe3b94fcd41d0a72c84e93b115"
                 x="63.623047"
                 id="use3671" />
              <use
                 xlink:href="#c_7a2040fe3b94fcd41d0a72c84e93b115"
                 x="127.246094"
                 id="use3673" />
            </g>
          </g>
        </g>
        <g
           id="xtick7">
          <g
             id="line2d15">
            <g
               id="g3677">
              <use
                 style="fill: none; stroke: #000000; stroke-width: 0.500000; stroke-linejoin: round; stroke-linecap: butt;  opacity: 1.000000"
                 xlink:href="#m30e32995789d870ad79a2e54c91cf9c6"
                 x="369.600000"
                 y="388.800000"
                 id="use3679" />
            </g>
          </g>
          <g
             id="line2d16">
            <g
               id="g3682">
              <use
                 style="fill: none; stroke: #000000; stroke-width: 0.500000; stroke-linejoin: round; stroke-linecap: butt;  opacity: 1.000000"
                 xlink:href="#m9281cae24120827b11d5ea8a7ad3e96b"
                 x="369.600000"
                 y="43.200000"
                 id="use3684" />
            </g>
          </g>
          <g
             id="text7">
            <defs
               id="defs3687">
              <path
                 id="c_cc8d6d580d1b10c8632f7a42cd53db8a"
                 d="M33.015625 -40.375000q-6.640625 0.000000 -10.531250 4.546875q-3.875000 4.531250 -3.875000 12.437500q0.000000 7.859375 3.875000 12.437500q3.890625 4.562500 10.531250 4.562500q6.640625 0.000000 10.515625 -4.562500q3.875000 -4.578125 3.875000 -12.437500q0.000000 -7.906250 -3.875000 -12.437500q-3.875000 -4.546875 -10.515625 -4.546875M52.593750 -71.296875l0.000000 8.984375q-3.718750 -1.750000 -7.500000 -2.671875q-3.781250 -0.937500 -7.500000 -0.937500q-9.765625 0.000000 -14.921875 6.593750q-5.140625 6.593750 -5.875000 19.921875q2.875000 -4.250000 7.218750 -6.515625q4.359375 -2.265625 9.578125 -2.265625q10.984375 0.000000 17.359375 6.671875q6.375000 6.656250 6.375000 18.125000q0.000000 11.234375 -6.640625 18.031250q-6.640625 6.781250 -17.671875 6.781250q-12.656250 0.000000 -19.343750 -9.687500q-6.687500 -9.703125 -6.687500 -28.109375q0.000000 -17.281250 8.203125 -27.562500q8.203125 -10.281250 22.015625 -10.281250q3.718750 0.000000 7.500000 0.734375q3.781250 0.734375 7.890625 2.187500" />
            </defs>
            <g
               style="fill: #000000; opacity: 1.000000"
               transform="translate(358.959375,401.706250)scale(0.120000)"
               id="g3690">
              <use
                 xlink:href="#c_cc8d6d580d1b10c8632f7a42cd53db8a"
                 id="use3692" />
              <use
                 xlink:href="#c_7a2040fe3b94fcd41d0a72c84e93b115"
                 x="63.623047"
                 id="use3694" />
              <use
                 xlink:href="#c_7a2040fe3b94fcd41d0a72c84e93b115"
                 x="127.246094"
                 id="use3696" />
            </g>
          </g>
        </g>
        <g
           id="xtick8">
          <g
             id="line2d17">
            <g
               id="g3700">
              <use
                 style="fill: none; stroke: #000000; stroke-width: 0.500000; stroke-linejoin: round; stroke-linecap: butt;  opacity: 1.000000"
                 xlink:href="#m30e32995789d870ad79a2e54c91cf9c6"
                 x="419.200000"
                 y="388.800000"
                 id="use3702" />
            </g>
          </g>
          <g
             id="line2d18">
            <g
               id="g3705">
              <use
                 style="fill: none; stroke: #000000; stroke-width: 0.500000; stroke-linejoin: round; stroke-linecap: butt;  opacity: 1.000000"
                 xlink:href="#m9281cae24120827b11d5ea8a7ad3e96b"
                 x="419.200000"
                 y="43.200000"
                 id="use3707" />
            </g>
          </g>
          <g
             id="text8">
            <defs
               id="defs3710">
              <path
                 id="c_956f18cfdaf972f35a6c2b4aaac2532b"
                 d="M8.203125 -72.906250l46.875000 0.000000l0.000000 4.203125l-26.468750 68.703125l-10.296875 0.000000l24.906250 -64.593750l-35.015625 0.000000z" />
            </defs>
            <g
               style="fill: #000000; opacity: 1.000000"
               transform="translate(408.629687,401.706250)scale(0.120000)"
               id="g3713">
              <use
                 xlink:href="#c_956f18cfdaf972f35a6c2b4aaac2532b"
                 id="use3715" />
              <use
                 xlink:href="#c_7a2040fe3b94fcd41d0a72c84e93b115"
                 x="63.623047"
                 id="use3717" />
              <use
                 xlink:href="#c_7a2040fe3b94fcd41d0a72c84e93b115"
                 x="127.246094"
                 id="use3719" />
            </g>
          </g>
        </g>
        <g
           id="xtick9">
          <g
             id="line2d19">
            <g
               id="g3723">
              <use
                 style="fill: none; stroke: #000000; stroke-width: 0.500000; stroke-linejoin: round; stroke-linecap: butt;  opacity: 1.000000"
                 xlink:href="#m30e32995789d870ad79a2e54c91cf9c6"
                 x="468.800000"
                 y="388.800000"
                 id="use3725" />
            </g>
          </g>
          <g
             id="line2d20">
            <g
               id="g3728">
              <use
                 style="fill: none; stroke: #000000; stroke-width: 0.500000; stroke-linejoin: round; stroke-linecap: butt;  opacity: 1.000000"
                 xlink:href="#m9281cae24120827b11d5ea8a7ad3e96b"
                 x="468.800000"
                 y="43.200000"
                 id="use3730" />
            </g>
          </g>
          <g
             id="text9">
            <defs
               id="defs3733">
              <path
                 id="c_bef35738d52871942e50b9de9b122bab"
                 d="M31.781250 -34.625000q-7.031250 0.000000 -11.062500 3.765625q-4.015625 3.765625 -4.015625 10.343750q0.000000 6.593750 4.015625 10.359375q4.031250 3.765625 11.062500 3.765625q7.031250 0.000000 11.078125 -3.781250q4.062500 -3.796875 4.062500 -10.343750q0.000000 -6.578125 -4.031250 -10.343750q-4.015625 -3.765625 -11.109375 -3.765625M21.921875 -38.812500q-6.343750 -1.562500 -9.890625 -5.906250q-3.531250 -4.359375 -3.531250 -10.609375q0.000000 -8.734375 6.218750 -13.812500q6.234375 -5.078125 17.062500 -5.078125q10.890625 0.000000 17.093750 5.078125q6.203125 5.078125 6.203125 13.812500q0.000000 6.250000 -3.546875 10.609375q-3.531250 4.343750 -9.828125 5.906250q7.125000 1.656250 11.093750 6.500000q3.984375 4.828125 3.984375 11.796875q0.000000 10.609375 -6.468750 16.281250q-6.468750 5.656250 -18.531250 5.656250q-12.046875 0.000000 -18.531250 -5.656250q-6.468750 -5.671875 -6.468750 -16.281250q0.000000 -6.968750 4.000000 -11.796875q4.015625 -4.843750 11.140625 -6.500000M18.312500 -54.390625q0.000000 5.656250 3.531250 8.828125q3.546875 3.171875 9.937500 3.171875q6.359375 0.000000 9.937500 -3.171875q3.593750 -3.171875 3.593750 -8.828125q0.000000 -5.671875 -3.593750 -8.843750q-3.578125 -3.171875 -9.937500 -3.171875q-6.390625 0.000000 -9.937500 3.171875q-3.531250 3.171875 -3.531250 8.843750" />
            </defs>
            <g
               style="fill: #000000; opacity: 1.000000"
               transform="translate(458.143750,401.706250)scale(0.120000)"
               id="g3736">
              <use
                 xlink:href="#c_bef35738d52871942e50b9de9b122bab"
                 id="use3738" />
              <use
                 xlink:href="#c_7a2040fe3b94fcd41d0a72c84e93b115"
                 x="63.623047"
                 id="use3740" />
              <use
                 xlink:href="#c_7a2040fe3b94fcd41d0a72c84e93b115"
                 x="127.246094"
                 id="use3742" />
            </g>
          </g>
        </g>
        <g
           id="xtick10">
          <g
             id="line2d21">
            <g
               id="g3746">
              <use
                 style="fill: none; stroke: #000000; stroke-width: 0.500000; stroke-linejoin: round; stroke-linecap: butt;  opacity: 1.000000"
                 xlink:href="#m30e32995789d870ad79a2e54c91cf9c6"
                 x="518.400000"
                 y="388.800000"
                 id="use3748" />
            </g>
          </g>
          <g
             id="line2d22">
            <g
               id="g3751">
              <use
                 style="fill: none; stroke: #000000; stroke-width: 0.500000; stroke-linejoin: round; stroke-linecap: butt;  opacity: 1.000000"
                 xlink:href="#m9281cae24120827b11d5ea8a7ad3e96b"
                 x="518.400000"
                 y="43.200000"
                 id="use3753" />
            </g>
          </g>
          <g
             id="text10">
            <defs
               id="defs3756">
              <path
                 id="c_cd96f817f3cab988d24a2b49a5577fe6"
                 d="M10.984375 -1.515625l0.000000 -8.984375q3.718750 1.765625 7.515625 2.687500q3.812500 0.921875 7.484375 0.921875q9.765625 0.000000 14.906250 -6.562500q5.156250 -6.562500 5.890625 -19.953125q-2.828125 4.203125 -7.187500 6.453125q-4.343750 2.250000 -9.609375 2.250000q-10.937500 0.000000 -17.312500 -6.609375q-6.375000 -6.625000 -6.375000 -18.109375q0.000000 -11.218750 6.640625 -18.000000q6.640625 -6.796875 17.671875 -6.796875q12.656250 0.000000 19.312500 9.703125q6.671875 9.687500 6.671875 28.140625q0.000000 17.234375 -8.187500 27.515625q-8.171875 10.281250 -21.984375 10.281250q-3.718750 0.000000 -7.531250 -0.734375q-3.796875 -0.734375 -7.906250 -2.203125M30.609375 -32.421875q6.640625 0.000000 10.515625 -4.531250q3.890625 -4.546875 3.890625 -12.468750q0.000000 -7.859375 -3.890625 -12.421875q-3.875000 -4.562500 -10.515625 -4.562500q-6.640625 0.000000 -10.515625 4.562500q-3.875000 4.562500 -3.875000 12.421875q0.000000 7.921875 3.875000 12.468750q3.875000 4.531250 10.515625 4.531250" />
            </defs>
            <g
               style="fill: #000000; opacity: 1.000000"
               transform="translate(507.712500,401.706250)scale(0.120000)"
               id="g3759">
              <use
                 xlink:href="#c_cd96f817f3cab988d24a2b49a5577fe6"
                 id="use3761" />
              <use
                 xlink:href="#c_7a2040fe3b94fcd41d0a72c84e93b115"
                 x="63.623047"
                 id="use3763" />
              <use
                 xlink:href="#c_7a2040fe3b94fcd41d0a72c84e93b115"
                 x="127.246094"
                 id="use3765" />
            </g>
          </g>
        </g>
        <g
           id="text11">
          <defs
             id="defs3768">
            <path
               id="c_9e4b30cbdf32072672ded72e9074c4c9"
               d="M-0.296875 -72.906250l61.671875 0.000000l0.000000 8.312500l-25.875000 0.000000l0.000000 64.593750l-9.906250 0.000000l0.000000 -64.593750l-25.890625 0.000000z" />
            <path
               id="c_6a63bda47b2f3da1cec6aadd80692cfe"
               d="M9.421875 -54.687500l8.984375 0.000000l0.000000 54.687500l-8.984375 0.000000zM9.421875 -75.984375l8.984375 0.000000l0.000000 11.390625l-8.984375 0.000000z" />
            <path
               id="c_4653c6dfde66c7610eae0911760d3490"
               d="M52.000000 -44.187500q3.375000 -6.062500 8.062500 -8.937500q4.687500 -2.875000 11.031250 -2.875000q8.546875 0.000000 13.187500 5.984375q4.640625 5.968750 4.640625 17.000000l0.000000 33.015625l-9.031250 0.000000l0.000000 -32.718750q0.000000 -7.859375 -2.796875 -11.656250q-2.781250 -3.812500 -8.484375 -3.812500q-6.984375 0.000000 -11.046875 4.640625q-4.046875 4.625000 -4.046875 12.640625l0.000000 30.906250l-9.031250 0.000000l0.000000 -32.718750q0.000000 -7.906250 -2.781250 -11.687500q-2.781250 -3.781250 -8.593750 -3.781250q-6.890625 0.000000 -10.953125 4.656250q-4.046875 4.656250 -4.046875 12.625000l0.000000 30.906250l-9.031250 0.000000l0.000000 -54.687500l9.031250 0.000000l0.000000 8.500000q3.078125 -5.031250 7.375000 -7.421875q4.296875 -2.390625 10.203125 -2.390625q5.968750 0.000000 10.140625 3.031250q4.171875 3.015625 6.171875 8.781250" />
            <path
               id="c_0bce5afba2dc6b9024b26277c38ad8e8"
               d="M56.203125 -29.593750l0.000000 4.390625l-41.312500 0.000000q0.593750 9.281250 5.593750 14.140625q5.000000 4.859375 13.937500 4.859375q5.171875 0.000000 10.031250 -1.265625q4.859375 -1.265625 9.656250 -3.812500l0.000000 8.500000q-4.843750 2.046875 -9.921875 3.125000q-5.078125 1.078125 -10.296875 1.078125q-13.093750 0.000000 -20.734375 -7.609375q-7.640625 -7.625000 -7.640625 -20.625000q0.000000 -13.421875 7.250000 -21.296875q7.250000 -7.890625 19.562500 -7.890625q11.031250 0.000000 17.453125 7.109375q6.421875 7.093750 6.421875 19.296875M47.218750 -32.234375q-0.093750 -7.359375 -4.125000 -11.750000q-4.031250 -4.406250 -10.671875 -4.406250q-7.515625 0.000000 -12.031250 4.250000q-4.515625 4.250000 -5.203125 11.968750z" />
            <path
               id="c_d41d8cd98f00b204e9800998ecf8427e"
               d="" />
            <path
               id="c_7efa9804c2b4c09a4b614b91fdebee3d"
               d="M31.000000 -75.875000q-6.531250 11.218750 -9.718750 22.218750q-3.171875 10.984375 -3.171875 22.265625q0.000000 11.265625 3.203125 22.328125q3.203125 11.062500 9.687500 22.250000l-7.812500 0.000000q-7.312500 -11.484375 -10.953125 -22.562500q-3.640625 -11.078125 -3.640625 -22.015625q0.000000 -10.890625 3.609375 -21.921875q3.625000 -11.046875 10.984375 -22.562500z" />
            <path
               id="c_9c6d5cbc59c6231647eb409cc6b37bb3"
               d="M25.390625 -72.906250l8.296875 0.000000l-25.390625 82.187500l-8.296875 0.000000z" />
            <path
               id="c_0f8c41144cfbf448378cb6fd1cc8e549"
               d="M18.312500 -70.218750l0.000000 15.531250l18.500000 0.000000l0.000000 6.984375l-18.500000 0.000000l0.000000 29.687500q0.000000 6.687500 1.828125 8.593750q1.828125 1.906250 7.453125 1.906250l9.218750 0.000000l0.000000 7.515625l-9.218750 0.000000q-10.406250 0.000000 -14.359375 -3.875000q-3.953125 -3.890625 -3.953125 -14.140625l0.000000 -29.687500l-6.593750 0.000000l0.000000 -6.984375l6.593750 0.000000l0.000000 -15.531250z" />
            <path
               id="c_74d54c94aa871ec39e2bc6697dde6c00"
               d="M54.890625 -33.015625l0.000000 33.015625l-8.984375 0.000000l0.000000 -32.718750q0.000000 -7.765625 -3.031250 -11.609375q-3.031250 -3.859375 -9.078125 -3.859375q-7.281250 0.000000 -11.484375 4.640625q-4.203125 4.625000 -4.203125 12.640625l0.000000 30.906250l-9.031250 0.000000l0.000000 -75.984375l9.031250 0.000000l0.000000 29.796875q3.234375 -4.937500 7.593750 -7.375000q4.375000 -2.437500 10.093750 -2.437500q9.421875 0.000000 14.250000 5.828125q4.843750 5.828125 4.843750 17.156250" />
            <path
               id="c_8e0810ad13fe20a2a87a2619799b154d"
               d="M44.281250 -53.078125l0.000000 8.500000q-3.796875 -1.953125 -7.906250 -2.921875q-4.093750 -0.984375 -8.500000 -0.984375q-6.687500 0.000000 -10.031250 2.046875q-3.343750 2.046875 -3.343750 6.156250q0.000000 3.125000 2.390625 4.906250q2.390625 1.781250 9.625000 3.390625l3.078125 0.687500q9.562500 2.046875 13.593750 5.781250q4.031250 3.734375 4.031250 10.421875q0.000000 7.625000 -6.031250 12.078125q-6.031250 4.437500 -16.578125 4.437500q-4.390625 0.000000 -9.156250 -0.859375q-4.765625 -0.859375 -10.031250 -2.562500l0.000000 -9.281250q4.984375 2.593750 9.812500 3.890625q4.828125 1.281250 9.578125 1.281250q6.343750 0.000000 9.750000 -2.171875q3.421875 -2.171875 3.421875 -6.125000q0.000000 -3.656250 -2.468750 -5.609375q-2.453125 -1.953125 -10.812500 -3.765625l-3.125000 -0.734375q-8.343750 -1.750000 -12.062500 -5.390625q-3.703125 -3.640625 -3.703125 -9.984375q0.000000 -7.718750 5.468750 -11.906250q5.468750 -4.203125 15.531250 -4.203125q4.968750 0.000000 9.359375 0.734375q4.406250 0.718750 8.109375 2.187500" />
            <path
               id="c_e96974be642f6eac0427d72f9cec6c19"
               d="M8.015625 -75.875000l7.812500 0.000000q7.312500 11.515625 10.953125 22.562500q3.640625 11.031250 3.640625 21.921875q0.000000 10.937500 -3.640625 22.015625q-3.640625 11.078125 -10.953125 22.562500l-7.812500 0.000000q6.484375 -11.187500 9.687500 -22.250000q3.203125 -11.062500 3.203125 -22.328125q0.000000 -11.281250 -3.203125 -22.265625q-3.203125 -11.000000 -9.687500 -22.218750" />
          </defs>
          <g
             style="fill: #000000; opacity: 1.000000"
             transform="translate(249.754687,416.003125)scale(0.120000)"
             id="g3781">
            <use
               xlink:href="#c_9e4b30cbdf32072672ded72e9074c4c9"
               id="use3783" />
            <use
               xlink:href="#c_6a63bda47b2f3da1cec6aadd80692cfe"
               x="57.958984"
               id="use3785" />
            <use
               xlink:href="#c_4653c6dfde66c7610eae0911760d3490"
               x="85.742187"
               id="use3787" />
            <use
               xlink:href="#c_0bce5afba2dc6b9024b26277c38ad8e8"
               x="183.154297"
               id="use3789" />
            <use
               xlink:href="#c_d41d8cd98f00b204e9800998ecf8427e"
               x="244.677734"
               id="use3791" />
            <use
               xlink:href="#c_7efa9804c2b4c09a4b614b91fdebee3d"
               x="276.464844"
               id="use3793" />
            <use
               xlink:href="#c_42baa63129a918535c52adb20d687ea7"
               x="315.478516"
               id="use3795" />
            <use
               xlink:href="#c_9c6d5cbc59c6231647eb409cc6b37bb3"
               x="379.101562"
               id="use3797" />
            <use
               xlink:href="#c_42baa63129a918535c52adb20d687ea7"
               x="412.792969"
               id="use3799" />
            <use
               xlink:href="#c_7a2040fe3b94fcd41d0a72c84e93b115"
               x="476.416016"
               id="use3801" />
            <use
               xlink:href="#c_0f8c41144cfbf448378cb6fd1cc8e549"
               x="540.039062"
               id="use3803" />
            <use
               xlink:href="#c_74d54c94aa871ec39e2bc6697dde6c00"
               x="579.248047"
               id="use3805" />
            <use
               xlink:href="#c_d41d8cd98f00b204e9800998ecf8427e"
               x="642.626953"
               id="use3807" />
            <use
               xlink:href="#c_8e0810ad13fe20a2a87a2619799b154d"
               x="674.414062"
               id="use3809" />
            <use
               xlink:href="#c_e96974be642f6eac0427d72f9cec6c19"
               x="726.513672"
               id="use3811" />
          </g>
        </g>
      </g>
      <g
         id="matplotlib.axis2">
        <g
           id="ytick1">
          <g
             id="line2d23">
            <defs
               id="defs3816">
              <path
                 id="m3400efa6b1638b3fea9e19e898273957"
                 d="M0.000000 0.000000L4.000000 0.000000" />
            </defs>
            <g
               id="g3819">
              <use
                 style="fill: none; stroke: #000000; stroke-width: 0.500000; stroke-linejoin: round; stroke-linecap: butt;  opacity: 1.000000"
                 xlink:href="#m3400efa6b1638b3fea9e19e898273957"
                 x="72.000000"
                 y="388.800000"
                 id="use3821" />
            </g>
          </g>
          <g
             id="line2d24">
            <defs
               id="defs3824">
              <path
                 id="m20b58b2501143cb5e0a5e8f1ef6f1643"
                 d="M0.000000 0.000000L-4.000000 0.000000" />
            </defs>
            <g
               id="g3827">
              <use
                 style="fill: none; stroke: #000000; stroke-width: 0.500000; stroke-linejoin: round; stroke-linecap: butt;  opacity: 1.000000"
                 xlink:href="#m20b58b2501143cb5e0a5e8f1ef6f1643"
                 x="518.400000"
                 y="388.800000"
                 id="use3829" />
            </g>
          </g>
          <g
             id="text12">
            <defs
               id="defs3832">
              <path
                 id="c_6a8d56c819c37117ab4cf023bec22a5a"
                 d="M10.593750 -35.500000l62.593750 0.000000l0.000000 8.296875l-62.593750 0.000000z" />
            </defs>
            <g
               style="fill: #000000; opacity: 1.000000"
               transform="translate(44.718750,393.167188)scale(0.120000)"
               id="g3835">
              <use
                 xlink:href="#c_6a8d56c819c37117ab4cf023bec22a5a"
                 id="use3837" />
              <use
                 xlink:href="#c_cc8d6d580d1b10c8632f7a42cd53db8a"
                 x="83.789062"
                 id="use3839" />
              <use
                 xlink:href="#c_7a2040fe3b94fcd41d0a72c84e93b115"
                 x="147.412109"
                 id="use3841" />
            </g>
          </g>
        </g>
        <g
           id="ytick2">
          <g
             id="line2d25">
            <g
               id="g3845">
              <use
                 style="fill: none; stroke: #000000; stroke-width: 0.500000; stroke-linejoin: round; stroke-linecap: butt;  opacity: 1.000000"
                 xlink:href="#m3400efa6b1638b3fea9e19e898273957"
                 x="72.000000"
                 y="345.600000"
                 id="use3847" />
            </g>
          </g>
          <g
             id="line2d26">
            <g
               id="g3850">
              <use
                 style="fill: none; stroke: #000000; stroke-width: 0.500000; stroke-linejoin: round; stroke-linecap: butt;  opacity: 1.000000"
                 xlink:href="#m20b58b2501143cb5e0a5e8f1ef6f1643"
                 x="518.400000"
                 y="345.600000"
                 id="use3852" />
            </g>
          </g>
          <g
             id="text13">
            <g
               style="fill: #000000; opacity: 1.000000"
               transform="translate(44.718750,349.967188)scale(0.120000)"
               id="g3855">
              <use
                 xlink:href="#c_6a8d56c819c37117ab4cf023bec22a5a"
                 id="use3857" />
              <use
                 xlink:href="#c_a0416418d96557a09b8c1332d34883ba"
                 x="83.789062"
                 id="use3859" />
              <use
                 xlink:href="#c_7a2040fe3b94fcd41d0a72c84e93b115"
                 x="147.412109"
                 id="use3861" />
            </g>
          </g>
        </g>
        <g
           id="ytick3">
          <g
             id="line2d27">
            <g
               id="g3865">
              <use
                 style="fill: none; stroke: #000000; stroke-width: 0.500000; stroke-linejoin: round; stroke-linecap: butt;  opacity: 1.000000"
                 xlink:href="#m3400efa6b1638b3fea9e19e898273957"
                 x="72.000000"
                 y="302.400000"
                 id="use3867" />
            </g>
          </g>
          <g
             id="line2d28">
            <g
               id="g3870">
              <use
                 style="fill: none; stroke: #000000; stroke-width: 0.500000; stroke-linejoin: round; stroke-linecap: butt;  opacity: 1.000000"
                 xlink:href="#m20b58b2501143cb5e0a5e8f1ef6f1643"
                 x="518.400000"
                 y="302.400000"
                 id="use3872" />
            </g>
          </g>
          <g
             id="text14">
            <g
               style="fill: #000000; opacity: 1.000000"
               transform="translate(44.718750,306.767187)scale(0.120000)"
               id="g3875">
              <use
                 xlink:href="#c_6a8d56c819c37117ab4cf023bec22a5a"
                 id="use3877" />
              <use
                 xlink:href="#c_ed3f3ed3ebfbd18bcb9c012009a68ad1"
                 x="83.789062"
                 id="use3879" />
              <use
                 xlink:href="#c_7a2040fe3b94fcd41d0a72c84e93b115"
                 x="147.412109"
                 id="use3881" />
            </g>
          </g>
        </g>
        <g
           id="ytick4">
          <g
             id="line2d29">
            <g
               id="g3885">
              <use
                 style="fill: none; stroke: #000000; stroke-width: 0.500000; stroke-linejoin: round; stroke-linecap: butt;  opacity: 1.000000"
                 xlink:href="#m3400efa6b1638b3fea9e19e898273957"
                 x="72.000000"
                 y="259.200000"
                 id="use3887" />
            </g>
          </g>
          <g
             id="line2d30">
            <g
               id="g3890">
              <use
                 style="fill: none; stroke: #000000; stroke-width: 0.500000; stroke-linejoin: round; stroke-linecap: butt;  opacity: 1.000000"
                 xlink:href="#m20b58b2501143cb5e0a5e8f1ef6f1643"
                 x="518.400000"
                 y="259.200000"
                 id="use3892" />
            </g>
          </g>
          <g
             id="text15">
            <g
               style="fill: #000000; opacity: 1.000000"
               transform="translate(61.953125,263.567187)scale(0.120000)"
               id="g3895">
              <use
                 xlink:href="#c_7a2040fe3b94fcd41d0a72c84e93b115"
                 id="use3897" />
            </g>
          </g>
        </g>
        <g
           id="ytick5">
          <g
             id="line2d31">
            <g
               id="g3901">
              <use
                 style="fill: none; stroke: #000000; stroke-width: 0.500000; stroke-linejoin: round; stroke-linecap: butt;  opacity: 1.000000"
                 xlink:href="#m3400efa6b1638b3fea9e19e898273957"
                 x="72.000000"
                 y="216.000000"
                 id="use3903" />
            </g>
          </g>
          <g
             id="line2d32">
            <g
               id="g3906">
              <use
                 style="fill: none; stroke: #000000; stroke-width: 0.500000; stroke-linejoin: round; stroke-linecap: butt;  opacity: 1.000000"
                 xlink:href="#m20b58b2501143cb5e0a5e8f1ef6f1643"
                 x="518.400000"
                 y="216.000000"
                 id="use3908" />
            </g>
          </g>
          <g
             id="text16">
            <g
               style="fill: #000000; opacity: 1.000000"
               transform="translate(54.390625,220.367188)scale(0.120000)"
               id="g3911">
              <use
                 xlink:href="#c_ed3f3ed3ebfbd18bcb9c012009a68ad1"
                 id="use3913" />
              <use
                 xlink:href="#c_7a2040fe3b94fcd41d0a72c84e93b115"
                 x="63.623047"
                 id="use3915" />
            </g>
          </g>
        </g>
        <g
           id="ytick6">
          <g
             id="line2d33">
            <g
               id="g3919">
              <use
                 style="fill: none; stroke: #000000; stroke-width: 0.500000; stroke-linejoin: round; stroke-linecap: butt;  opacity: 1.000000"
                 xlink:href="#m3400efa6b1638b3fea9e19e898273957"
                 x="72.000000"
                 y="172.800000"
                 id="use3921" />
            </g>
          </g>
          <g
             id="line2d34">
            <g
               id="g3924">
              <use
                 style="fill: none; stroke: #000000; stroke-width: 0.500000; stroke-linejoin: round; stroke-linecap: butt;  opacity: 1.000000"
                 xlink:href="#m20b58b2501143cb5e0a5e8f1ef6f1643"
                 x="518.400000"
                 y="172.800000"
                 id="use3926" />
            </g>
          </g>
          <g
             id="text17">
            <g
               style="fill: #000000; opacity: 1.000000"
               transform="translate(54.109375,177.167187)scale(0.120000)"
               id="g3929">
              <use
                 xlink:href="#c_a0416418d96557a09b8c1332d34883ba"
                 id="use3931" />
              <use
                 xlink:href="#c_7a2040fe3b94fcd41d0a72c84e93b115"
                 x="63.623047"
                 id="use3933" />
            </g>
          </g>
        </g>
        <g
           id="ytick7">
          <g
             id="line2d35">
            <g
               id="g3937">
              <use
                 style="fill: none; stroke: #000000; stroke-width: 0.500000; stroke-linejoin: round; stroke-linecap: butt;  opacity: 1.000000"
                 xlink:href="#m3400efa6b1638b3fea9e19e898273957"
                 x="72.000000"
                 y="129.600000"
                 id="use3939" />
            </g>
          </g>
          <g
             id="line2d36">
            <g
               id="g3942">
              <use
                 style="fill: none; stroke: #000000; stroke-width: 0.500000; stroke-linejoin: round; stroke-linecap: butt;  opacity: 1.000000"
                 xlink:href="#m20b58b2501143cb5e0a5e8f1ef6f1643"
                 x="518.400000"
                 y="129.600000"
                 id="use3944" />
            </g>
          </g>
          <g
             id="text18">
            <g
               style="fill: #000000; opacity: 1.000000"
               transform="translate(54.359375,133.967187)scale(0.120000)"
               id="g3947">
              <use
                 xlink:href="#c_cc8d6d580d1b10c8632f7a42cd53db8a"
                 id="use3949" />
              <use
                 xlink:href="#c_7a2040fe3b94fcd41d0a72c84e93b115"
                 x="63.623047"
                 id="use3951" />
            </g>
          </g>
        </g>
        <g
           id="ytick8">
          <g
             id="line2d37">
            <g
               id="g3955">
              <use
                 style="fill: none; stroke: #000000; stroke-width: 0.500000; stroke-linejoin: round; stroke-linecap: butt;  opacity: 1.000000"
                 xlink:href="#m3400efa6b1638b3fea9e19e898273957"
                 x="72.000000"
                 y="86.400000"
                 id="use3957" />
            </g>
          </g>
          <g
             id="line2d38">
            <g
               id="g3960">
              <use
                 style="fill: none; stroke: #000000; stroke-width: 0.500000; stroke-linejoin: round; stroke-linecap: butt;  opacity: 1.000000"
                 xlink:href="#m20b58b2501143cb5e0a5e8f1ef6f1643"
                 x="518.400000"
                 y="86.400000"
                 id="use3962" />
            </g>
          </g>
          <g
             id="text19">
            <g
               style="fill: #000000; opacity: 1.000000"
               transform="translate(54.328125,90.767187)scale(0.120000)"
               id="g3965">
              <use
                 xlink:href="#c_bef35738d52871942e50b9de9b122bab"
                 id="use3967" />
              <use
                 xlink:href="#c_7a2040fe3b94fcd41d0a72c84e93b115"
                 x="63.623047"
                 id="use3969" />
            </g>
          </g>
        </g>
        <g
           id="ytick9">
          <g
             id="line2d39">
            <g
               id="g3973">
              <use
                 style="fill: none; stroke: #000000; stroke-width: 0.500000; stroke-linejoin: round; stroke-linecap: butt;  opacity: 1.000000"
                 xlink:href="#m3400efa6b1638b3fea9e19e898273957"
                 x="72.000000"
                 y="43.200000"
                 id="use3975" />
            </g>
          </g>
          <g
             id="line2d40">
            <g
               id="g3978">
              <use
                 style="fill: none; stroke: #000000; stroke-width: 0.500000; stroke-linejoin: round; stroke-linecap: butt;  opacity: 1.000000"
                 xlink:href="#m20b58b2501143cb5e0a5e8f1ef6f1643"
                 x="518.400000"
                 y="43.200000"
                 id="use3980" />
            </g>
          </g>
          <g
             id="text20">
            <g
               style="fill: #000000; opacity: 1.000000"
               transform="translate(47.187500,47.567187)scale(0.120000)"
               id="g3983">
              <use
                 xlink:href="#c_42baa63129a918535c52adb20d687ea7"
                 id="use3985" />
              <use
                 xlink:href="#c_7a2040fe3b94fcd41d0a72c84e93b115"
                 x="63.623047"
                 id="use3987" />
              <use
                 xlink:href="#c_7a2040fe3b94fcd41d0a72c84e93b115"
                 x="127.246094"
                 id="use3989" />
            </g>
          </g>
        </g>
        <g
           id="text21">
          <defs
             id="defs3992">
            <path
               id="c_ff9441f72805bc441fcb0bfe0d774f13"
               d="M19.671875 -64.796875l0.000000 56.687500l11.921875 0.000000q15.093750 0.000000 22.093750 -6.828125q7.000000 -6.843750 7.000000 -21.593750q0.000000 -14.640625 -7.000000 -21.453125q-7.000000 -6.812500 -22.093750 -6.812500zM9.812500 -72.906250l20.265625 0.000000q21.187500 0.000000 31.093750 8.812500q9.921875 8.812500 9.921875 27.562500q0.000000 18.859375 -9.968750 27.703125q-9.953125 8.828125 -31.046875 8.828125l-20.265625 0.000000z" />
            <path
               id="c_01d93a582460e35a7945ca50d148ffeb"
               d="M34.281250 -27.484375q-10.890625 0.000000 -15.093750 2.484375q-4.203125 2.484375 -4.203125 8.500000q0.000000 4.781250 3.156250 7.593750q3.156250 2.796875 8.562500 2.796875q7.484375 0.000000 12.000000 -5.296875q4.515625 -5.296875 4.515625 -14.078125l0.000000 -2.000000zM52.203125 -31.203125l0.000000 31.203125l-8.984375 0.000000l0.000000 -8.296875q-3.078125 4.968750 -7.671875 7.343750q-4.593750 2.375000 -11.234375 2.375000q-8.390625 0.000000 -13.359375 -4.718750q-4.953125 -4.718750 -4.953125 -12.625000q0.000000 -9.218750 6.171875 -13.906250q6.187500 -4.687500 18.437500 -4.687500l12.609375 0.000000l0.000000 -0.890625q0.000000 -6.203125 -4.078125 -9.593750q-4.078125 -3.390625 -11.453125 -3.390625q-4.687500 0.000000 -9.140625 1.125000q-4.437500 1.125000 -8.531250 3.375000l0.000000 -8.312500q4.921875 -1.906250 9.562500 -2.843750q4.640625 -0.953125 9.031250 -0.953125q11.875000 0.000000 17.734375 6.156250q5.859375 6.140625 5.859375 18.640625" />
          </defs>
          <g
             style="fill: #000000; opacity: 1.000000"
             transform="translate(39.718750,229.023438)rotate(-90.0)scale(0.120000)"
             id="g3996">
            <use
               xlink:href="#c_ff9441f72805bc441fcb0bfe0d774f13"
               id="use3998" />
            <use
               xlink:href="#c_01d93a582460e35a7945ca50d148ffeb"
               x="77.001953"
               id="use4000" />
            <use
               xlink:href="#c_0f8c41144cfbf448378cb6fd1cc8e549"
               x="138.281250"
               id="use4002" />
            <use
               xlink:href="#c_01d93a582460e35a7945ca50d148ffeb"
               x="177.490234"
               id="use4004" />
          </g>
        </g>
      </g>
      <g
         id="patch3">
        <path
           style="fill: none; stroke: #000000; stroke-width: 1.000000; stroke-linejoin: round; stroke-linecap: square;  opacity: 1.000000"
           d="M72.000000 43.200000L518.400000 43.200000"
           id="path4007" />
      </g>
      <g
         id="patch4">
        <path
           style="fill: none; stroke: #000000; stroke-width: 1.000000; stroke-linejoin: round; stroke-linecap: square;  opacity: 1.000000"
           d="M518.400000 388.800000L518.400000 43.200000"
           id="path4010" />
      </g>
      <g
         id="patch5">
        <path
           style="fill: none; stroke: #000000; stroke-width: 1.000000; stroke-linejoin: round; stroke-linecap: square;  opacity: 1.000000"
           d="M72.000000 388.800000L518.400000 388.800000"
           id="path4013" />
      </g>
      <g
         id="patch6">
        <path
           style="fill: none; stroke: #000000; stroke-width: 1.000000; stroke-linejoin: round; stroke-linecap: square;  opacity: 1.000000"
           d="M72.000000 388.800000L72.000000 43.200000"
           id="path4016" />
      </g>
      <g
         id="text22">
        <defs
           id="defs4019">
          <path
             id="c_518d586bee075aa0153eaebfcb5ab11f"
             d="M19.671875 -64.796875l0.000000 27.390625l12.406250 0.000000q6.890625 0.000000 10.640625 -3.562500q3.765625 -3.562500 3.765625 -10.156250q0.000000 -6.546875 -3.765625 -10.109375q-3.750000 -3.562500 -10.640625 -3.562500zM9.812500 -72.906250l22.265625 0.000000q12.265625 0.000000 18.531250 5.546875q6.281250 5.546875 6.281250 16.234375q0.000000 10.796875 -6.281250 16.312500q-6.265625 5.515625 -18.531250 5.515625l-12.406250 0.000000l0.000000 29.296875l-9.859375 0.000000z" />
          <path
             id="c_d650c37394b681142a10dfc54356d478"
             d="M48.781250 -52.593750l0.000000 8.406250q-3.812500 -2.109375 -7.640625 -3.156250q-3.828125 -1.046875 -7.734375 -1.046875q-8.750000 0.000000 -13.593750 5.546875q-4.828125 5.531250 -4.828125 15.546875q0.000000 10.015625 4.828125 15.562500q4.843750 5.531250 13.593750 5.531250q3.906250 0.000000 7.734375 -1.046875q3.828125 -1.046875 7.640625 -3.156250l0.000000 8.312500q-3.765625 1.750000 -7.796875 2.625000q-4.015625 0.890625 -8.562500 0.890625q-12.359375 0.000000 -19.640625 -7.765625q-7.265625 -7.765625 -7.265625 -20.953125q0.000000 -13.375000 7.343750 -21.031250q7.359375 -7.671875 20.156250 -7.671875q4.140625 0.000000 8.093750 0.859375q3.953125 0.843750 7.671875 2.546875" />
          <path
             id="c_dcb78ab3124be785176d70a27dde1356"
             d="M9.078125 -75.984375l9.031250 0.000000l0.000000 44.875000l26.812500 -23.578125l11.468750 0.000000l-29.000000 25.578125l30.234375 29.109375l-11.718750 0.000000l-27.796875 -26.703125l0.000000 26.703125l-9.031250 0.000000z" />
          <path
             id="c_425fd1cbcd899bef0a79975ae4756bf8"
             d="M19.671875 -34.812500l0.000000 26.703125l15.828125 0.000000q7.953125 0.000000 11.781250 -3.296875q3.843750 -3.296875 3.843750 -10.078125q0.000000 -6.843750 -3.843750 -10.078125q-3.828125 -3.250000 -11.781250 -3.250000zM19.671875 -64.796875l0.000000 21.968750l14.609375 0.000000q7.218750 0.000000 10.750000 -2.703125q3.546875 -2.718750 3.546875 -8.281250q0.000000 -5.515625 -3.546875 -8.250000q-3.531250 -2.734375 -10.750000 -2.734375zM9.812500 -72.906250l25.203125 0.000000q11.281250 0.000000 17.375000 4.687500q6.109375 4.687500 6.109375 13.328125q0.000000 6.703125 -3.125000 10.656250q-3.125000 3.953125 -9.187500 4.921875q7.281250 1.562500 11.312500 6.531250q4.031250 4.953125 4.031250 12.375000q0.000000 9.765625 -6.640625 15.093750q-6.640625 5.312500 -18.906250 5.312500l-26.171875 0.000000z" />
          <path
             id="c_f05dd90d41f04bb96ef1ca503cc2044b"
             d="M30.609375 -48.390625q-7.218750 0.000000 -11.421875 5.640625q-4.203125 5.640625 -4.203125 15.453125q0.000000 9.812500 4.171875 15.453125q4.187500 5.640625 11.453125 5.640625q7.187500 0.000000 11.375000 -5.656250q4.203125 -5.671875 4.203125 -15.437500q0.000000 -9.718750 -4.203125 -15.406250q-4.187500 -5.687500 -11.375000 -5.687500M30.609375 -56.000000q11.718750 0.000000 18.406250 7.625000q6.703125 7.609375 6.703125 21.078125q0.000000 13.421875 -6.703125 21.078125q-6.687500 7.640625 -18.406250 7.640625q-11.765625 0.000000 -18.437500 -7.640625q-6.656250 -7.656250 -6.656250 -21.078125q0.000000 -13.468750 6.656250 -21.078125q6.671875 -7.625000 18.437500 -7.625000" />
          <path
             id="c_c48ceabac27bf136feba2f4bf2716ab6"
             d="M2.984375 -54.687500l9.515625 0.000000l17.093750 45.890625l17.093750 -45.890625l9.515625 0.000000l-20.515625 54.687500l-12.203125 0.000000z" />
          <path
             id="c_ed3e21196fb739f392806f09ca0594ef"
             d="M10.687500 -12.406250l10.312500 0.000000l0.000000 12.406250l-10.312500 0.000000z" />
        </defs>
        <g
           style="fill: #000000; opacity: 1.000000"
           transform="translate(215.004687,37.996875)scale(0.144000)"
           id="g4028">
          <use
             xlink:href="#c_518d586bee075aa0153eaebfcb5ab11f"
             id="use4030" />
          <use
             xlink:href="#c_01d93a582460e35a7945ca50d148ffeb"
             x="55.802734"
             id="use4032" />
          <use
             xlink:href="#c_d650c37394b681142a10dfc54356d478"
             x="117.082031"
             id="use4034" />
          <use
             xlink:href="#c_dcb78ab3124be785176d70a27dde1356"
             x="172.062500"
             id="use4036" />
          <use
             xlink:href="#c_425fd1cbcd899bef0a79975ae4756bf8"
             x="229.972656"
             id="use4038" />
          <use
             xlink:href="#c_f05dd90d41f04bb96ef1ca503cc2044b"
             x="298.576172"
             id="use4040" />
          <use
             xlink:href="#c_0f8c41144cfbf448378cb6fd1cc8e549"
             x="359.757812"
             id="use4042" />
          <use
             xlink:href="#c_d41d8cd98f00b204e9800998ecf8427e"
             x="398.966797"
             id="use4044" />
          <use
             xlink:href="#c_ff9441f72805bc441fcb0bfe0d774f13"
             x="430.753906"
             id="use4046" />
          <use
             xlink:href="#c_01d93a582460e35a7945ca50d148ffeb"
             x="507.755859"
             id="use4048" />
          <use
             xlink:href="#c_0f8c41144cfbf448378cb6fd1cc8e549"
             x="569.035156"
             id="use4050" />
          <use
             xlink:href="#c_01d93a582460e35a7945ca50d148ffeb"
             x="608.244141"
             id="use4052" />
          <use
             xlink:href="#c_d41d8cd98f00b204e9800998ecf8427e"
             x="669.523438"
             id="use4054" />
          <use
             xlink:href="#c_c48ceabac27bf136feba2f4bf2716ab6"
             x="701.310547"
             id="use4056" />
          <use
             xlink:href="#c_8e0810ad13fe20a2a87a2619799b154d"
             x="760.490234"
             id="use4058" />
          <use
             xlink:href="#c_ed3e21196fb739f392806f09ca0594ef"
             x="812.589844"
             id="use4060" />
          <use
             xlink:href="#c_d41d8cd98f00b204e9800998ecf8427e"
             x="844.376953"
             id="use4062" />
          <use
             xlink:href="#c_9e4b30cbdf32072672ded72e9074c4c9"
             x="876.164062"
             id="use4064" />
          <use
             xlink:href="#c_6a63bda47b2f3da1cec6aadd80692cfe"
             x="934.123047"
             id="use4066" />
          <use
             xlink:href="#c_4653c6dfde66c7610eae0911760d3490"
             x="961.906250"
             id="use4068" />
          <use
             xlink:href="#c_0bce5afba2dc6b9024b26277c38ad8e8"
             x="1059.318359"
             id="use4070" />
        </g>
      </g>
    </g>
    <g
       id="legend1">
      <g
         id="patch7">
        <path
           style="fill: #ffffff; stroke: #000000; stroke-width: 1.000000; stroke-linejoin: round; stroke-linecap: square;  opacity: 1.000000"
           d="M400.522500 53.013750L568.800000 53.013750L568.800000 7.200000 L400.522500 7.200000L400.522500 53.013750z"
           id="path4074" />
      </g>
      <g
         id="line2d41">
        <path
           style="fill: none; stroke: #0000ff; stroke-width: 1.000000; stroke-linejoin: round; stroke-linecap: square;  opacity: 1.000000"
           d="M410.602500 18.560625L430.762500 18.560625"
           id="path4077" />
      </g>
      <g
         id="line2d42" />
      <g
         id="text23">
        <defs
           id="defs4081">
          <path
             id="c_07e3f33241aff50afcba519606f2a979"
             d="M9.812500 -72.906250l9.859375 0.000000l0.000000 64.609375l35.500000 0.000000l0.000000 8.296875l-45.359375 0.000000z" />
          <path
             id="c_fe791a90f5471e2ab20a5ed41a7fa451"
             d="M54.890625 -33.015625l0.000000 33.015625l-8.984375 0.000000l0.000000 -32.718750q0.000000 -7.765625 -3.031250 -11.609375q-3.031250 -3.859375 -9.078125 -3.859375q-7.281250 0.000000 -11.484375 4.640625q-4.203125 4.625000 -4.203125 12.640625l0.000000 30.906250l-9.031250 0.000000l0.000000 -54.687500l9.031250 0.000000l0.000000 8.500000q3.234375 -4.937500 7.593750 -7.375000q4.375000 -2.437500 10.093750 -2.437500q9.421875 0.000000 14.250000 5.828125q4.843750 5.828125 4.843750 17.156250" />
          <path
             id="c_6ec8d5749226675394676a5d2a3b468b"
             d="M41.109375 -46.296875q-1.515625 -0.875000 -3.296875 -1.281250q-1.781250 -0.421875 -3.921875 -0.421875q-7.625000 0.000000 -11.703125 4.953125q-4.078125 4.953125 -4.078125 14.234375l0.000000 28.812500l-9.031250 0.000000l0.000000 -54.687500l9.031250 0.000000l0.000000 8.500000q2.843750 -4.984375 7.375000 -7.390625q4.546875 -2.421875 11.046875 -2.421875q0.921875 0.000000 2.046875 0.125000q1.125000 0.109375 2.484375 0.359375z" />
          <path
             id="c_ae70b0af174184799fa4976b9c5da571"
             d="M28.609375 -0.000000l-27.828125 -72.906250l10.296875 0.000000l23.109375 61.375000l23.140625 -61.375000l10.250000 0.000000l-27.781250 72.906250z" />
          <path
             id="c_5099edb83619131346ae654950954dea"
             d="M9.421875 -75.984375l8.984375 0.000000l0.000000 75.984375l-8.984375 0.000000z" />
          <path
             id="c_3fe22c4af425ac970aec982ae9662abe"
             d="M32.171875 5.078125q-3.796875 9.765625 -7.421875 12.734375q-3.609375 2.984375 -9.656250 2.984375l-7.187500 0.000000l0.000000 -7.515625l5.281250 0.000000q3.703125 0.000000 5.750000 -1.765625q2.062500 -1.750000 4.546875 -8.296875l1.609375 -4.093750l-22.109375 -53.812500l9.515625 0.000000l17.093750 42.765625l17.093750 -42.765625l9.515625 0.000000z" />
        </defs>
        <g
           style="fill: #000000; opacity: 1.000000"
           transform="translate(446.602500,23.600625)scale(0.144000)"
           id="g4089">
          <use
             xlink:href="#c_07e3f33241aff50afcba519606f2a979"
             id="use4091" />
          <use
             xlink:href="#c_6a63bda47b2f3da1cec6aadd80692cfe"
             x="55.712891"
             id="use4093" />
          <use
             xlink:href="#c_fe791a90f5471e2ab20a5ed41a7fa451"
             x="83.496094"
             id="use4095" />
          <use
             xlink:href="#c_0bce5afba2dc6b9024b26277c38ad8e8"
             x="146.875000"
             id="use4097" />
          <use
             xlink:href="#c_01d93a582460e35a7945ca50d148ffeb"
             x="208.398438"
             id="use4099" />
          <use
             xlink:href="#c_6ec8d5749226675394676a5d2a3b468b"
             x="269.677734"
             id="use4101" />
          <use
             xlink:href="#c_d41d8cd98f00b204e9800998ecf8427e"
             x="310.791016"
             id="use4103" />
          <use
             xlink:href="#c_ae70b0af174184799fa4976b9c5da571"
             x="342.578125"
             id="use4105" />
          <use
             xlink:href="#c_0bce5afba2dc6b9024b26277c38ad8e8"
             x="403.236328"
             id="use4107" />
          <use
             xlink:href="#c_5099edb83619131346ae654950954dea"
             x="464.759766"
             id="use4109" />
          <use
             xlink:href="#c_f05dd90d41f04bb96ef1ca503cc2044b"
             x="492.542969"
             id="use4111" />
          <use
             xlink:href="#c_d650c37394b681142a10dfc54356d478"
             x="553.724609"
             id="use4113" />
          <use
             xlink:href="#c_6a63bda47b2f3da1cec6aadd80692cfe"
             x="608.705078"
             id="use4115" />
          <use
             xlink:href="#c_0f8c41144cfbf448378cb6fd1cc8e549"
             x="636.488281"
             id="use4117" />
          <use
             xlink:href="#c_3fe22c4af425ac970aec982ae9662abe"
             x="675.697266"
             id="use4119" />
        </g>
      </g>
      <g
         id="line2d43">
        <path
           style="fill: none; stroke: #008000; stroke-width: 1.000000; stroke-linejoin: round; stroke-linecap: square;  opacity: 1.000000"
           d="M410.602500 39.307500L430.762500 39.307500"
           id="path4122" />
      </g>
      <g
         id="line2d44" />
      <g
         id="text24">
        <defs
           id="defs4126">
          <path
             id="c_6023715d605f81e6eb43b7f9d77e7c51"
             d="M34.187500 -63.187500l-13.390625 36.281250l26.812500 0.000000zM28.609375 -72.906250l11.187500 0.000000l27.781250 72.906250l-10.250000 0.000000l-6.640625 -18.703125l-32.859375 0.000000l-6.640625 18.703125l-10.406250 0.000000z" />
          <path
             id="c_e3864de5dabf2f8dd9eee74726882ec1"
             d="M45.406250 -27.984375q0.000000 -9.765625 -4.031250 -15.125000q-4.015625 -5.375000 -11.296875 -5.375000q-7.218750 0.000000 -11.250000 5.375000q-4.031250 5.359375 -4.031250 15.125000q0.000000 9.718750 4.031250 15.093750q4.031250 5.375000 11.250000 5.375000q7.281250 0.000000 11.296875 -5.375000q4.031250 -5.375000 4.031250 -15.093750M54.390625 -6.781250q0.000000 13.953125 -6.203125 20.765625q-6.187500 6.812500 -18.984375 6.812500q-4.734375 0.000000 -8.937500 -0.703125q-4.203125 -0.703125 -8.156250 -2.171875l0.000000 -8.734375q3.953125 2.140625 7.812500 3.156250q3.859375 1.031250 7.859375 1.031250q8.843750 0.000000 13.234375 -4.609375q4.390625 -4.609375 4.390625 -13.937500l0.000000 -4.453125q-2.781250 4.843750 -7.125000 7.234375q-4.343750 2.390625 -10.406250 2.390625q-10.046875 0.000000 -16.203125 -7.656250q-6.156250 -7.671875 -6.156250 -20.328125q0.000000 -12.687500 6.156250 -20.343750q6.156250 -7.671875 16.203125 -7.671875q6.062500 0.000000 10.406250 2.390625q4.343750 2.390625 7.125000 7.218750l0.000000 -8.296875l8.984375 0.000000z" />
          <path
             id="c_3b515ad41f960e225ec85275856806ca"
             d="M8.500000 -21.578125l0.000000 -33.109375l8.984375 0.000000l0.000000 32.765625q0.000000 7.765625 3.015625 11.656250q3.031250 3.875000 9.093750 3.875000q7.265625 0.000000 11.484375 -4.640625q4.234375 -4.640625 4.234375 -12.656250l0.000000 -31.000000l8.984375 0.000000l0.000000 54.687500l-8.984375 0.000000l0.000000 -8.406250q-3.265625 4.984375 -7.593750 7.406250q-4.312500 2.421875 -10.031250 2.421875q-9.421875 0.000000 -14.312500 -5.859375q-4.875000 -5.859375 -4.875000 -17.140625M31.109375 -56.000000z" />
        </defs>
        <g
           style="fill: #000000; opacity: 1.000000"
           transform="translate(446.602500,44.347500)scale(0.144000)"
           id="g4131">
          <use
             xlink:href="#c_6023715d605f81e6eb43b7f9d77e7c51"
             id="use4133" />
          <use
             xlink:href="#c_fe791a90f5471e2ab20a5ed41a7fa451"
             x="68.408203"
             id="use4135" />
          <use
             xlink:href="#c_e3864de5dabf2f8dd9eee74726882ec1"
             x="131.787109"
             id="use4137" />
          <use
             xlink:href="#c_3b515ad41f960e225ec85275856806ca"
             x="195.263672"
             id="use4139" />
          <use
             xlink:href="#c_5099edb83619131346ae654950954dea"
             x="258.642578"
             id="use4141" />
          <use
             xlink:href="#c_01d93a582460e35a7945ca50d148ffeb"
             x="286.425781"
             id="use4143" />
          <use
             xlink:href="#c_6ec8d5749226675394676a5d2a3b468b"
             x="347.705078"
             id="use4145" />
          <use
             xlink:href="#c_d41d8cd98f00b204e9800998ecf8427e"
             x="388.818359"
             id="use4147" />
          <use
             xlink:href="#c_ae70b0af174184799fa4976b9c5da571"
             x="420.605469"
             id="use4149" />
          <use
             xlink:href="#c_0bce5afba2dc6b9024b26277c38ad8e8"
             x="481.263672"
             id="use4151" />
          <use
             xlink:href="#c_5099edb83619131346ae654950954dea"
             x="542.787109"
             id="use4153" />
          <use
             xlink:href="#c_f05dd90d41f04bb96ef1ca503cc2044b"
             x="570.570313"
             id="use4155" />
          <use
             xlink:href="#c_d650c37394b681142a10dfc54356d478"
             x="631.751953"
             id="use4157" />
          <use
             xlink:href="#c_6a63bda47b2f3da1cec6aadd80692cfe"
             x="686.732422"
             id="use4159" />
          <use
             xlink:href="#c_0f8c41144cfbf448378cb6fd1cc8e549"
             x="714.515625"
             id="use4161" />
          <use
             xlink:href="#c_3fe22c4af425ac970aec982ae9662abe"
             x="753.724609"
             id="use4163" />
        </g>
      </g>
    </g>
  </g>
  <path
     style="fill:none;stroke:#000000;stroke-width:0.80000007;stroke-linecap:butt;stroke-linejoin:miter;stroke-miterlimit:4;stroke-opacity:1;stroke-dasharray:1.60000003, 1.60000003;stroke-dashoffset:0"
     d="m 142.81646,388.39855 0,-345.494085"
     id="path4659" />
  <text
     xml:space="preserve"
     style="font-size:16px;font-style:italic;font-variant:normal;font-weight:normal;font-stretch:normal;text-align:start;line-height:125%;writing-mode:lr-tb;text-anchor:start;fill:#ff0000;fill-opacity:1;stroke:none;font-family:FreeSerif;-inkscape-font-specification:FreeSerif Italic"
     x="128.91647"
     y="61.14259"
     id="text4673"
     sodipodi:linespacing="125%"><tspan
       sodipodi:role="line"
       id="tspan4675"
       x="128.91647"
       y="61.14259">1</tspan></text>
  <path
     id="path4927"
     d="m 204.13849,388.39855 0,-345.494085"
     style="fill:none;stroke:#000000;stroke-width:0.80000007;stroke-linecap:butt;stroke-linejoin:miter;stroke-miterlimit:4;stroke-opacity:1;stroke-dasharray:1.60000003, 1.60000003;stroke-dashoffset:0" />
  <path
     style="fill:none;stroke:#000000;stroke-width:0.80000007;stroke-linecap:butt;stroke-linejoin:miter;stroke-miterlimit:4;stroke-opacity:1;stroke-dasharray:1.60000003, 1.60000003;stroke-dashoffset:0"
     d="m 292.46052,388.39855 0,-345.494085"
     id="path4929" />
  <path
     id="path4931"
     d="m 330.9012,388.39855 0,-345.494085"
     style="fill:none;stroke:#000000;stroke-width:0.80000007;stroke-linecap:butt;stroke-linejoin:miter;stroke-miterlimit:4;stroke-opacity:1;stroke-dasharray:1.60000003, 1.60000003;stroke-dashoffset:0" />
  <path
     style="fill:none;stroke:#000000;stroke-width:0.80000007;stroke-linecap:butt;stroke-linejoin:miter;stroke-miterlimit:4;stroke-opacity:1;stroke-dasharray:1.60000003, 1.60000003;stroke-dashoffset:0"
     d="m 403.66391,388.41023 0,-335.40522"
     id="path4933" />
  <text
     sodipodi:linespacing="125%"
     id="text4935"
     y="61.14259"
     x="280.39105"
     style="font-size:16px;font-style:italic;font-variant:normal;font-weight:normal;font-stretch:normal;text-align:start;line-height:125%;writing-mode:lr-tb;text-anchor:start;fill:#ff0000;fill-opacity:1;stroke:none;font-family:FreeSerif;-inkscape-font-specification:FreeSerif Italic"
     xml:space="preserve"><tspan
       y="61.14259"
       x="280.39105"
       id="tspan4937"
       sodipodi:role="line">3</tspan></text>
  <text
     xml:space="preserve"
     style="font-size:16px;font-style:italic;font-variant:normal;font-weight:normal;font-stretch:normal;text-align:start;line-height:125%;writing-mode:lr-tb;text-anchor:start;fill:#ff0000;fill-opacity:1;stroke:none;font-family:FreeSerif;-inkscape-font-specification:FreeSerif Italic"
     x="192.98427"
     y="61.14259"
     id="text4939"
     sodipodi:linespacing="125%"><tspan
       sodipodi:role="line"
       id="tspan4941"
       x="192.98427"
       y="61.14259">2</tspan></text>
  <text
     xml:space="preserve"
     style="font-size:16px;font-style:italic;font-variant:normal;font-weight:normal;font-stretch:normal;text-align:start;line-height:125%;writing-mode:lr-tb;text-anchor:start;fill:#ff0000;fill-opacity:1;stroke:none;font-family:FreeSerif;-inkscape-font-specification:FreeSerif Italic"
     x="320.66223"
     y="61.14259"
     id="text4943"
     sodipodi:linespacing="125%"><tspan
       sodipodi:role="line"
       id="tspan4945"
       x="320.66223"
       y="61.14259">4</tspan></text>
  <text
     sodipodi:linespacing="125%"
     id="text4947"
     y="61.14259"
     x="389.76392"
     style="font-size:16px;font-style:italic;font-variant:normal;font-weight:normal;font-stretch:normal;text-align:start;line-height:125%;writing-mode:lr-tb;text-anchor:start;fill:#ff0000;fill-opacity:1;stroke:none;font-family:FreeSerif;-inkscape-font-specification:FreeSerif Italic"
     xml:space="preserve"><tspan
       y="61.14259"
       x="389.76392"
       id="tspan4949"
       sodipodi:role="line">5</tspan></text>
</svg>
