<?xml version="1.0" standalone="no"?>
<!DOCTYPE svg PUBLIC "-//W3C//DTD SVG 1.1//EN"
  "http://www.w3.org/Graphics/SVG/1.1/DTD/svg11.dtd">
<!-- Created with matplotlib (http://matplotlib.sourceforge.net/) -->
<svg width="576pt" height="432pt" viewBox="0 0 576 432"
   xmlns="http://www.w3.org/2000/svg"
   xmlns:xlink="http://www.w3.org/1999/xlink"
   version="1.1"
   id="svg1">
<g id="figure1">
<g id="patch1">
<path style="fill: #ffffff; stroke: #ffffff; stroke-width: 1.000000; stroke-linejoin: round; stroke-linecap: square;  opacity: 1.000000"  d="M0.000000 432.000000L576.000000 432.000000L576.000000 0.000000
L0.000000 0.000000L0.000000 432.000000"/>
</g>
<g id="axes1">
<g id="patch2">
<path style="fill: #ffffff; opacity: 1.000000"  d="M72.000000 388.800000L518.400000 388.800000L518.400000 43.200000
L72.000000 43.200000L72.000000 388.800000"/>
</g>
<g id="line2d1">
<defs>
  <clipPath id="p50431ccdcb28178602d99d9270004dde">
<rect x="72.000000" y="43.200000" width="446.400000" height="345.600000"/>
  </clipPath>
</defs><path style="fill: none; stroke: #0000ff; stroke-width: 1.000000; stroke-linejoin: round; stroke-linecap: square;  opacity: 1.000000" clip-path="url(#p50431ccdcb28178602d99d9270004dde)" d="M72.000000 250.560000L91.641600 250.560000L92.534400 267.257041
L93.427200 174.203975L102.355200 174.302594L105.926400 179.727853
L106.819200 180.778404L109.497600 185.241889L114.854400 191.529482
L116.640000 193.864295L118.425600 183.163878L123.782400 189.784345
L129.139200 196.681264L130.924800 198.775404L132.710400 199.543729
L133.603200 200.788546L140.745600 207.679051L144.316800 210.126517
L147.888000 212.304617L151.459200 213.990917L155.030400 215.019891
L158.601600 215.651361L160.387200 216.421342L162.172800 217.684605
L163.065600 243.501836L163.958400 241.307810L164.851200 235.055890
L165.744000 222.355468L166.636800 214.899391L167.529600 201.622634
L168.422400 193.472621L169.315200 178.281762L172.886400 145.683233
L173.779200 142.573467L175.564800 141.389599L176.457600 138.562166
L178.243200 139.384145L180.921600 142.476297L181.814400 143.607139
L183.600000 147.265590L184.492800 149.423476L186.278400 151.024904
L188.956800 156.236708L189.849600 157.435368L191.635200 160.967057
L196.099200 169.818574L196.992000 170.967864L199.670400 176.041020
L200.563200 177.254993L202.348800 180.225857L203.241600 181.515277
L204.134400 189.746808L207.705600 195.775293L209.491200 196.856305
L211.276800 198.542223L213.062400 198.835830L215.740800 202.191564
L218.419200 206.604200L221.097600 211.572854L223.776000 214.549427
L224.668800 215.701391L226.454400 216.197580L228.240000 218.936417
L229.132800 215.722963L230.918400 215.831729L232.704000 216.391041
L234.489600 216.503861L236.275200 217.681361L237.168000 219.082540
L238.953600 319.464011L239.846400 325.724545L240.739200 322.965879
L241.632000 335.886300L242.524800 329.085457L244.310400 303.629166
L245.203200 286.824098L247.881600 194.688554L248.774400 177.747742
L249.667200 152.983854L252.345600 116.185286L253.238400 110.554103
L254.131200 109.031208L255.916800 109.630255L257.702400 122.584179
L258.595200 134.654690L260.380800 136.647931L261.273600 139.855347
L262.166400 146.997081L263.059200 142.198099L263.952000 132.055221
L265.737600 126.921012L266.630400 128.822324L267.523200 125.341058
L269.308800 131.241832L271.094400 140.506177L271.987200 142.353818
L272.880000 151.437145L273.772800 153.223108L274.665600 161.079275
L275.558400 162.740665L276.451200 150.319545L277.344000 146.062099
L278.236800 153.002580L280.022400 138.647085L280.915200 134.944715
L281.808000 136.303316L284.486400 141.104694L285.379200 144.015532
L289.843200 152.344760L290.736000 156.227371L291.628800 154.074886
L293.414400 154.517735L298.771200 163.564146L300.556800 167.649490
L302.342400 170.321879L303.235200 172.712645L306.806400 175.277342
L311.270400 182.029844L312.163200 189.031110L317.520000 197.729465
L321.091200 202.071321L322.876800 202.844791L323.769600 204.101969
L329.126400 209.012598L334.483200 212.667943L339.840000 215.265017
L346.982400 217.001568L347.875200 239.949564L348.768000 249.092654
L349.660800 251.097087L351.446400 263.378014L352.339200 258.257952
L354.124800 228.952986L355.910400 189.764572L356.803200 169.465003
L358.588800 149.158658L359.481600 139.470625L363.052800 121.683521
L364.838400 122.105347L366.624000 123.579938L367.516800 125.021183
L370.195200 138.904540L371.088000 140.529180L371.980800 136.735350
L373.766400 140.295186L375.552000 138.028290L376.444800 143.172544
L377.337600 138.190174L379.123200 140.033154L380.016000 132.930044
L380.908800 134.847389L381.801600 141.072441L382.694400 142.687080
L384.480000 143.347734L386.265600 146.683016L387.158400 150.678727
L388.051200 146.087371L388.944000 147.701945L390.729600 148.506423
L392.515200 152.445310L394.300800 156.034377L395.193600 157.150040
L396.086400 159.669929L402.336000 168.838929L406.800000 177.025156
L408.585600 180.071493L411.264000 182.429435L413.049600 185.389265
L420.192000 195.883030L421.977600 197.375406L427.334400 203.738503
L430.905600 207.264027L435.369600 211.137373L440.726400 213.787436
L444.297600 216.424105L445.190400 217.769825L446.083200 205.590727
L446.976000 208.640187L447.868800 214.668536L448.761600 215.701977
L449.654400 219.561997L450.547200 230.408345L451.440000 237.033741
L453.225600 247.661652L455.011200 234.044485L455.904000 219.609354
L460.368000 183.449816L461.260800 178.031217L463.046400 173.829665
L464.832000 174.143621L465.724800 178.484292L467.510400 176.133211
L470.188800 183.750098L471.974400 184.442108L474.652800 188.527269
L476.438400 193.483936L478.224000 194.875843L480.009600 204.562523
L481.795200 216.969926L482.688000 218.434760L484.473600 225.346791
L485.366400 223.902596L487.152000 228.104534L488.044800 232.257408
L488.937600 239.108486L489.830400 243.317991L490.723200 241.935591
L491.616000 247.345244L493.401600 250.560000L516.614400 250.560000
L516.614400 250.560000"/>
</g>
<g id="line2d2">
<path style="fill: none; stroke: #008000; stroke-width: 1.000000; stroke-linejoin: round; stroke-linecap: square;  opacity: 1.000000" clip-path="url(#p50431ccdcb28178602d99d9270004dde)" d="M72.000000 250.560000L91.641600 250.560000L92.534400 137.283469
L93.427200 236.928274L98.784000 236.930674L100.569600 238.076111
L102.355200 241.387193L103.248000 240.369388L104.140800 222.505916
L105.033600 220.094170L105.926400 223.465998L109.497600 231.103278
L110.390400 240.772513L111.283200 237.189875L113.068800 246.683156
L113.961600 243.555878L114.854400 252.981104L115.747200 255.167359
L117.532800 256.021535L118.425600 239.066901L119.318400 246.234331
L121.104000 245.152778L121.996800 243.938727L122.889600 250.079107
L123.782400 253.054628L125.568000 245.956192L127.353600 249.364756
L128.246400 247.002919L130.032000 251.144817L130.924800 249.418692
L131.817600 250.688349L133.603200 251.997874L134.496000 255.382878
L136.281600 245.807328L137.174400 251.172364L138.960000 241.533500
L139.852800 237.992907L141.638400 237.608014L142.531200 235.254196
L144.316800 243.259678L145.209600 244.373359L146.102400 241.169201
L146.995200 243.338832L147.888000 246.797351L148.780800 243.288369
L150.566400 256.809452L151.459200 247.521121L153.244800 245.125580
L155.030400 238.551182L155.923200 230.642359L156.816000 235.832452
L157.708800 228.756775L158.601600 227.580453L159.494400 225.693792
L160.387200 215.117853L162.172800 200.866404L163.065600 141.760772
L164.851200 141.583510L166.636800 142.258297L168.422400 146.463191
L170.208000 159.966662L173.779200 209.025112L175.564800 220.595380
L178.243200 228.690012L180.028800 267.584231L180.921600 266.573684
L181.814400 263.117111L182.707200 266.304510L184.492800 276.522412
L185.385600 263.203517L186.278400 258.246802L187.171200 250.264063
L188.064000 248.852067L188.956800 256.254693L189.849600 254.153705
L190.742400 244.400449L191.635200 239.480813L192.528000 246.519267
L195.206400 235.437006L196.992000 235.649116L198.777600 234.367053
L199.670400 236.377329L201.456000 237.474583L202.348800 235.365997
L203.241600 243.959130L204.134400 214.367739L205.920000 210.338270
L206.812800 211.418601L207.705600 204.489478L208.598400 209.353838
L209.491200 211.308479L210.384000 216.688999L211.276800 213.362914
L214.848000 254.556189L216.633600 276.576993L219.312000 293.394484
L220.204800 288.720975L221.097600 303.596225L221.990400 294.287343
L222.883200 303.050544L223.776000 307.439752L225.561600 308.249251
L227.347200 304.075743L228.240000 315.651259L229.132800 280.361952
L230.918400 269.948883L231.811200 257.128305L232.704000 270.177500
L233.596800 249.998488L234.489600 255.699861L235.382400 245.051806
L237.168000 201.561067L238.060800 198.802665L238.953600 136.641514
L239.846400 134.550470L240.739200 135.625453L241.632000 130.118281
L244.310400 140.443344L245.203200 142.075577L246.988800 141.567639
L247.881600 143.648022L248.774400 147.328565L250.560000 169.142952
L252.345600 205.144475L253.238400 225.155436L254.131200 236.076667
L255.024000 254.470890L255.916800 258.380591L256.809600 291.352998
L258.595200 323.892984L259.488000 322.129528L260.380800 324.234168
L261.273600 327.340572L262.166400 333.782603L263.059200 327.802282
L263.952000 309.947170L264.844800 307.501298L265.737600 290.280760
L266.630400 293.748189L268.416000 254.109525L269.308800 211.801498
L270.201600 197.858150L271.094400 191.845843L271.987200 190.244101
L272.880000 176.118325L273.772800 175.084188L274.665600 166.487471
L277.344000 197.706679L278.236800 184.338182L280.022400 211.487598
L280.915200 243.673592L281.808000 256.525944L282.700800 260.130697
L283.593600 272.547911L284.486400 275.930511L285.379200 284.170188
L286.272000 288.040851L287.164800 289.225630L288.950400 288.488905
L289.843200 291.393302L290.736000 299.166204L292.521600 271.224884
L294.307200 257.187956L295.200000 255.137590L297.878400 234.482511
L298.771200 230.436743L299.664000 223.327927L300.556800 219.210996
L301.449600 222.934367L303.235200 214.637274L305.020800 226.261591
L305.913600 234.198975L306.806400 248.031662L308.592000 250.088494
L309.484800 246.553279L310.377600 255.566468L313.948800 260.745610
L314.841600 258.926449L315.734400 254.439114L316.627200 256.137157
L318.412800 255.442467L320.198400 254.138785L323.769600 258.612094
L324.662400 252.007037L326.448000 249.317156L327.340800 250.988968
L329.126400 241.940967L330.912000 243.650687L333.590400 251.085710
L334.483200 261.307848L335.376000 247.024732L336.268800 244.088350
L338.054400 246.987059L339.840000 238.401898L340.732800 250.372480
L341.625600 245.014296L343.411200 242.658633L344.304000 246.173780
L345.196800 243.079792L346.089600 247.372602L346.982400 249.114522
L347.875200 141.697022L351.446400 142.322233L353.232000 141.815131
L355.017600 142.737770L355.910400 145.452755L358.588800 167.936399
L362.160000 219.988825L363.945600 254.937661L365.731200 264.829596
L366.624000 267.725935L367.516800 273.050736L369.302400 306.182383
L370.195200 311.023361L371.980800 299.891194L373.766400 302.232753
L375.552000 284.850735L376.444800 298.484431L377.337600 269.691280
L378.230400 252.742660L379.123200 243.097068L380.016000 245.942841
L380.908800 232.440022L381.801600 207.759530L382.694400 205.384812
L384.480000 213.166680L386.265600 209.648512L387.158400 200.468960
L388.051200 227.338340L388.944000 224.550559L389.836800 242.327262
L392.515200 272.517920L393.408000 276.736211L394.300800 273.588539
L396.086400 277.239202L397.872000 270.435528L399.657600 257.877527
L400.550400 266.547108L401.443200 260.017607L404.121600 238.365322
L405.014400 231.232411L405.907200 229.753986L406.800000 227.336283
L407.692800 223.774930L409.478400 228.491512L411.264000 258.588827
L412.156800 255.521373L413.049600 238.639592L415.728000 254.680814
L417.513600 257.270449L418.406400 254.480734L420.192000 252.068953
L421.977600 248.300900L422.870400 253.052567L423.763200 254.818699
L424.656000 261.491502L425.548800 251.603355L426.441600 249.719609
L427.334400 253.239874L428.227200 250.168260L429.120000 257.095770
L430.012800 253.838579L430.905600 243.474369L431.798400 239.287229
L432.691200 240.400412L433.584000 237.777164L434.476800 239.144938
L436.262400 221.906889L437.155200 233.232035L438.048000 239.986318
L438.940800 238.073997L439.833600 242.197491L442.512000 268.824841
L444.297600 276.011359L445.190400 291.905803L446.083200 147.661768
L446.976000 146.327704L447.868800 144.255514L449.654400 143.107610
L450.547200 141.741639L454.118400 141.598539L455.904000 143.231658
L456.796800 145.640156L458.582400 156.471192L462.153600 201.465708
L463.939200 227.040216L464.832000 272.722261L465.724800 297.780377
L467.510400 288.129323L468.403200 292.593807L470.188800 283.174020
L472.867200 261.289292L473.760000 255.754122L474.652800 253.101647
L475.545600 249.174505L477.331200 248.580536L489.830400 248.649614
L491.616000 249.664260L492.508800 250.793728L496.080000 250.560000
L517.507200 250.560000L517.507200 250.560000"/>
</g>
<g id="matplotlib.axis1">
<g id="xtick1">
<g id="line2d3">
<defs><path id="m30e32995789d870ad79a2e54c91cf9c6" d="M0.000000 0.000000L0.000000 -4.000000"/></defs>
<g ><use style="fill: none; stroke: #000000; stroke-width: 0.500000; stroke-linejoin: round; stroke-linecap: butt;  opacity: 1.000000" xlink:href="#m30e32995789d870ad79a2e54c91cf9c6" x="72.000000" y="388.800000"/>
</g></g>
<g id="line2d4">
<defs><path id="m9281cae24120827b11d5ea8a7ad3e96b" d="M0.000000 0.000000L0.000000 4.000000"/></defs>
<g ><use style="fill: none; stroke: #000000; stroke-width: 0.500000; stroke-linejoin: round; stroke-linecap: butt;  opacity: 1.000000" xlink:href="#m9281cae24120827b11d5ea8a7ad3e96b" x="72.000000" y="43.200000"/>
</g></g>
<g id="text1">
<defs>
<path id="c_7a2040fe3b94fcd41d0a72c84e93b115" d="M31.781250 -66.406250q-7.609375 0.000000 -11.453125 7.500000q-3.828125 7.484375 -3.828125 22.531250q0.000000 14.984375 3.828125 22.484375q3.843750 7.500000 11.453125 7.500000q7.671875 0.000000 11.500000 -7.500000q3.843750 -7.500000 3.843750 -22.484375q0.000000 -15.046875 -3.843750 -22.531250q-3.828125 -7.500000 -11.500000 -7.500000M31.781250 -74.218750q12.265625 0.000000 18.734375 9.703125q6.468750 9.687500 6.468750 28.140625q0.000000 18.406250 -6.468750 28.109375q-6.468750 9.687500 -18.734375 9.687500q-12.250000 0.000000 -18.718750 -9.687500q-6.468750 -9.703125 -6.468750 -28.109375q0.000000 -18.453125 6.468750 -28.140625q6.468750 -9.703125 18.718750 -9.703125"/>
</defs>
<g style="fill: #000000; opacity: 1.000000" transform="translate(68.976562,401.706250)scale(0.120000)">
<use xlink:href="#c_7a2040fe3b94fcd41d0a72c84e93b115"/>
</g>
</g>
</g>
<g id="xtick2">
<g id="line2d5">
<g ><use style="fill: none; stroke: #000000; stroke-width: 0.500000; stroke-linejoin: round; stroke-linecap: butt;  opacity: 1.000000" xlink:href="#m30e32995789d870ad79a2e54c91cf9c6" x="161.280000" y="388.800000"/>
</g></g>
<g id="line2d6">
<g ><use style="fill: none; stroke: #000000; stroke-width: 0.500000; stroke-linejoin: round; stroke-linecap: butt;  opacity: 1.000000" xlink:href="#m9281cae24120827b11d5ea8a7ad3e96b" x="161.280000" y="43.200000"/>
</g></g>
<g id="text2">
<defs>
<path id="c_42baa63129a918535c52adb20d687ea7" d="M12.406250 -8.296875l16.109375 0.000000l0.000000 -55.625000l-17.531250 3.515625l0.000000 -8.984375l17.437500 -3.515625l9.859375 0.000000l0.000000 64.609375l16.109375 0.000000l0.000000 8.296875l-41.984375 0.000000z"/>
</defs>
<g style="fill: #000000; opacity: 1.000000" transform="translate(150.873750,401.706250)scale(0.120000)">
<use xlink:href="#c_42baa63129a918535c52adb20d687ea7"/>
<use xlink:href="#c_7a2040fe3b94fcd41d0a72c84e93b115" x="63.623047"/>
<use xlink:href="#c_7a2040fe3b94fcd41d0a72c84e93b115" x="127.246094"/>
</g>
</g>
</g>
<g id="xtick3">
<g id="line2d7">
<g ><use style="fill: none; stroke: #000000; stroke-width: 0.500000; stroke-linejoin: round; stroke-linecap: butt;  opacity: 1.000000" xlink:href="#m30e32995789d870ad79a2e54c91cf9c6" x="250.560000" y="388.800000"/>
</g></g>
<g id="line2d8">
<g ><use style="fill: none; stroke: #000000; stroke-width: 0.500000; stroke-linejoin: round; stroke-linecap: butt;  opacity: 1.000000" xlink:href="#m9281cae24120827b11d5ea8a7ad3e96b" x="250.560000" y="43.200000"/>
</g></g>
<g id="text3">
<defs>
<path id="c_ed3f3ed3ebfbd18bcb9c012009a68ad1" d="M19.187500 -8.296875l34.421875 0.000000l0.000000 8.296875l-46.281250 0.000000l0.000000 -8.296875q5.609375 -5.812500 15.296875 -15.593750q9.703125 -9.796875 12.187500 -12.640625q4.734375 -5.312500 6.609375 -9.000000q1.890625 -3.687500 1.890625 -7.250000q0.000000 -5.812500 -4.078125 -9.468750q-4.078125 -3.671875 -10.625000 -3.671875q-4.640625 0.000000 -9.796875 1.609375q-5.140625 1.609375 -11.000000 4.890625l0.000000 -9.968750q5.953125 -2.390625 11.125000 -3.609375q5.187500 -1.218750 9.484375 -1.218750q11.328125 0.000000 18.062500 5.671875q6.734375 5.656250 6.734375 15.125000q0.000000 4.500000 -1.687500 8.531250q-1.671875 4.015625 -6.125000 9.484375q-1.218750 1.421875 -7.765625 8.187500q-6.531250 6.765625 -18.453125 18.921875"/>
</defs>
<g style="fill: #000000; opacity: 1.000000" transform="translate(239.935000,401.706250)scale(0.120000)">
<use xlink:href="#c_ed3f3ed3ebfbd18bcb9c012009a68ad1"/>
<use xlink:href="#c_7a2040fe3b94fcd41d0a72c84e93b115" x="63.623047"/>
<use xlink:href="#c_7a2040fe3b94fcd41d0a72c84e93b115" x="127.246094"/>
</g>
</g>
</g>
<g id="xtick4">
<g id="line2d9">
<g ><use style="fill: none; stroke: #000000; stroke-width: 0.500000; stroke-linejoin: round; stroke-linecap: butt;  opacity: 1.000000" xlink:href="#m30e32995789d870ad79a2e54c91cf9c6" x="339.840000" y="388.800000"/>
</g></g>
<g id="line2d10">
<g ><use style="fill: none; stroke: #000000; stroke-width: 0.500000; stroke-linejoin: round; stroke-linecap: butt;  opacity: 1.000000" xlink:href="#m9281cae24120827b11d5ea8a7ad3e96b" x="339.840000" y="43.200000"/>
</g></g>
<g id="text4">
<defs>
<path id="c_3dcfa38a02242cb63ec6726c6e70be7a" d="M40.578125 -39.312500q7.078125 1.515625 11.046875 6.312500q3.984375 4.781250 3.984375 11.812500q0.000000 10.781250 -7.421875 16.703125q-7.421875 5.906250 -21.093750 5.906250q-4.578125 0.000000 -9.437500 -0.906250q-4.859375 -0.906250 -10.031250 -2.718750l0.000000 -9.515625q4.093750 2.390625 8.968750 3.609375q4.890625 1.218750 10.218750 1.218750q9.265625 0.000000 14.125000 -3.656250q4.859375 -3.656250 4.859375 -10.640625q0.000000 -6.453125 -4.515625 -10.078125q-4.515625 -3.640625 -12.562500 -3.640625l-8.500000 0.000000l0.000000 -8.109375l8.890625 0.000000q7.265625 0.000000 11.125000 -2.906250q3.859375 -2.906250 3.859375 -8.375000q0.000000 -5.609375 -3.984375 -8.609375q-3.968750 -3.015625 -11.390625 -3.015625q-4.062500 0.000000 -8.703125 0.890625q-4.640625 0.875000 -10.203125 2.718750l0.000000 -8.781250q5.625000 -1.562500 10.531250 -2.343750q4.906250 -0.781250 9.250000 -0.781250q11.234375 0.000000 17.765625 5.109375q6.546875 5.093750 6.546875 13.781250q0.000000 6.062500 -3.468750 10.234375q-3.468750 4.171875 -9.859375 5.781250"/>
</defs>
<g style="fill: #000000; opacity: 1.000000" transform="translate(329.238437,401.706250)scale(0.120000)">
<use xlink:href="#c_3dcfa38a02242cb63ec6726c6e70be7a"/>
<use xlink:href="#c_7a2040fe3b94fcd41d0a72c84e93b115" x="63.623047"/>
<use xlink:href="#c_7a2040fe3b94fcd41d0a72c84e93b115" x="127.246094"/>
</g>
</g>
</g>
<g id="xtick5">
<g id="line2d11">
<g ><use style="fill: none; stroke: #000000; stroke-width: 0.500000; stroke-linejoin: round; stroke-linecap: butt;  opacity: 1.000000" xlink:href="#m30e32995789d870ad79a2e54c91cf9c6" x="429.120000" y="388.800000"/>
</g></g>
<g id="line2d12">
<g ><use style="fill: none; stroke: #000000; stroke-width: 0.500000; stroke-linejoin: round; stroke-linecap: butt;  opacity: 1.000000" xlink:href="#m9281cae24120827b11d5ea8a7ad3e96b" x="429.120000" y="43.200000"/>
</g></g>
<g id="text5">
<defs>
<path id="c_a0416418d96557a09b8c1332d34883ba" d="M37.796875 -64.312500l-24.906250 38.921875l24.906250 0.000000zM35.203125 -72.906250l12.406250 0.000000l0.000000 47.515625l10.406250 0.000000l0.000000 8.203125l-10.406250 0.000000l0.000000 17.187500l-9.812500 0.000000l0.000000 -17.187500l-32.906250 0.000000l0.000000 -9.515625z"/>
</defs>
<g style="fill: #000000; opacity: 1.000000" transform="translate(418.354375,401.706250)scale(0.120000)">
<use xlink:href="#c_a0416418d96557a09b8c1332d34883ba"/>
<use xlink:href="#c_7a2040fe3b94fcd41d0a72c84e93b115" x="63.623047"/>
<use xlink:href="#c_7a2040fe3b94fcd41d0a72c84e93b115" x="127.246094"/>
</g>
</g>
</g>
<g id="xtick6">
<g id="line2d13">
<g ><use style="fill: none; stroke: #000000; stroke-width: 0.500000; stroke-linejoin: round; stroke-linecap: butt;  opacity: 1.000000" xlink:href="#m30e32995789d870ad79a2e54c91cf9c6" x="518.400000" y="388.800000"/>
</g></g>
<g id="line2d14">
<g ><use style="fill: none; stroke: #000000; stroke-width: 0.500000; stroke-linejoin: round; stroke-linecap: butt;  opacity: 1.000000" xlink:href="#m9281cae24120827b11d5ea8a7ad3e96b" x="518.400000" y="43.200000"/>
</g></g>
<g id="text6">
<defs>
<path id="c_1260a2df50f305f3db244e29828f968e" d="M10.796875 -72.906250l38.718750 0.000000l0.000000 8.312500l-29.687500 0.000000l0.000000 17.859375q2.140625 -0.734375 4.281250 -1.093750q2.156250 -0.359375 4.312500 -0.359375q12.203125 0.000000 19.328125 6.687500q7.140625 6.687500 7.140625 18.109375q0.000000 11.765625 -7.328125 18.296875q-7.328125 6.515625 -20.656250 6.515625q-4.593750 0.000000 -9.359375 -0.781250q-4.750000 -0.781250 -9.828125 -2.343750l0.000000 -9.921875q4.390625 2.390625 9.078125 3.562500q4.687500 1.171875 9.906250 1.171875q8.453125 0.000000 13.375000 -4.437500q4.937500 -4.437500 4.937500 -12.062500q0.000000 -7.609375 -4.937500 -12.046875q-4.921875 -4.453125 -13.375000 -4.453125q-3.953125 0.000000 -7.890625 0.875000q-3.921875 0.875000 -8.015625 2.734375z"/>
</defs>
<g style="fill: #000000; opacity: 1.000000" transform="translate(507.798437,401.706250)scale(0.120000)">
<use xlink:href="#c_1260a2df50f305f3db244e29828f968e"/>
<use xlink:href="#c_7a2040fe3b94fcd41d0a72c84e93b115" x="63.623047"/>
<use xlink:href="#c_7a2040fe3b94fcd41d0a72c84e93b115" x="127.246094"/>
</g>
</g>
</g>
<g id="text7">
<defs>
<path id="c_9e4b30cbdf32072672ded72e9074c4c9" d="M-0.296875 -72.906250l61.671875 0.000000l0.000000 8.312500l-25.875000 0.000000l0.000000 64.593750l-9.906250 0.000000l0.000000 -64.593750l-25.890625 0.000000z"/>
<path id="c_6a63bda47b2f3da1cec6aadd80692cfe" d="M9.421875 -54.687500l8.984375 0.000000l0.000000 54.687500l-8.984375 0.000000zM9.421875 -75.984375l8.984375 0.000000l0.000000 11.390625l-8.984375 0.000000z"/>
<path id="c_4653c6dfde66c7610eae0911760d3490" d="M52.000000 -44.187500q3.375000 -6.062500 8.062500 -8.937500q4.687500 -2.875000 11.031250 -2.875000q8.546875 0.000000 13.187500 5.984375q4.640625 5.968750 4.640625 17.000000l0.000000 33.015625l-9.031250 0.000000l0.000000 -32.718750q0.000000 -7.859375 -2.796875 -11.656250q-2.781250 -3.812500 -8.484375 -3.812500q-6.984375 0.000000 -11.046875 4.640625q-4.046875 4.625000 -4.046875 12.640625l0.000000 30.906250l-9.031250 0.000000l0.000000 -32.718750q0.000000 -7.906250 -2.781250 -11.687500q-2.781250 -3.781250 -8.593750 -3.781250q-6.890625 0.000000 -10.953125 4.656250q-4.046875 4.656250 -4.046875 12.625000l0.000000 30.906250l-9.031250 0.000000l0.000000 -54.687500l9.031250 0.000000l0.000000 8.500000q3.078125 -5.031250 7.375000 -7.421875q4.296875 -2.390625 10.203125 -2.390625q5.968750 0.000000 10.140625 3.031250q4.171875 3.015625 6.171875 8.781250"/>
<path id="c_0bce5afba2dc6b9024b26277c38ad8e8" d="M56.203125 -29.593750l0.000000 4.390625l-41.312500 0.000000q0.593750 9.281250 5.593750 14.140625q5.000000 4.859375 13.937500 4.859375q5.171875 0.000000 10.031250 -1.265625q4.859375 -1.265625 9.656250 -3.812500l0.000000 8.500000q-4.843750 2.046875 -9.921875 3.125000q-5.078125 1.078125 -10.296875 1.078125q-13.093750 0.000000 -20.734375 -7.609375q-7.640625 -7.625000 -7.640625 -20.625000q0.000000 -13.421875 7.250000 -21.296875q7.250000 -7.890625 19.562500 -7.890625q11.031250 0.000000 17.453125 7.109375q6.421875 7.093750 6.421875 19.296875M47.218750 -32.234375q-0.093750 -7.359375 -4.125000 -11.750000q-4.031250 -4.406250 -10.671875 -4.406250q-7.515625 0.000000 -12.031250 4.250000q-4.515625 4.250000 -5.203125 11.968750z"/>
<path id="c_d41d8cd98f00b204e9800998ecf8427e" d=""/>
<path id="c_7efa9804c2b4c09a4b614b91fdebee3d" d="M31.000000 -75.875000q-6.531250 11.218750 -9.718750 22.218750q-3.171875 10.984375 -3.171875 22.265625q0.000000 11.265625 3.203125 22.328125q3.203125 11.062500 9.687500 22.250000l-7.812500 0.000000q-7.312500 -11.484375 -10.953125 -22.562500q-3.640625 -11.078125 -3.640625 -22.015625q0.000000 -10.890625 3.609375 -21.921875q3.625000 -11.046875 10.984375 -22.562500z"/>
<path id="c_9c6d5cbc59c6231647eb409cc6b37bb3" d="M25.390625 -72.906250l8.296875 0.000000l-25.390625 82.187500l-8.296875 0.000000z"/>
<path id="c_0f8c41144cfbf448378cb6fd1cc8e549" d="M18.312500 -70.218750l0.000000 15.531250l18.500000 0.000000l0.000000 6.984375l-18.500000 0.000000l0.000000 29.687500q0.000000 6.687500 1.828125 8.593750q1.828125 1.906250 7.453125 1.906250l9.218750 0.000000l0.000000 7.515625l-9.218750 0.000000q-10.406250 0.000000 -14.359375 -3.875000q-3.953125 -3.890625 -3.953125 -14.140625l0.000000 -29.687500l-6.593750 0.000000l0.000000 -6.984375l6.593750 0.000000l0.000000 -15.531250z"/>
<path id="c_74d54c94aa871ec39e2bc6697dde6c00" d="M54.890625 -33.015625l0.000000 33.015625l-8.984375 0.000000l0.000000 -32.718750q0.000000 -7.765625 -3.031250 -11.609375q-3.031250 -3.859375 -9.078125 -3.859375q-7.281250 0.000000 -11.484375 4.640625q-4.203125 4.625000 -4.203125 12.640625l0.000000 30.906250l-9.031250 0.000000l0.000000 -75.984375l9.031250 0.000000l0.000000 29.796875q3.234375 -4.937500 7.593750 -7.375000q4.375000 -2.437500 10.093750 -2.437500q9.421875 0.000000 14.250000 5.828125q4.843750 5.828125 4.843750 17.156250"/>
<path id="c_8e0810ad13fe20a2a87a2619799b154d" d="M44.281250 -53.078125l0.000000 8.500000q-3.796875 -1.953125 -7.906250 -2.921875q-4.093750 -0.984375 -8.500000 -0.984375q-6.687500 0.000000 -10.031250 2.046875q-3.343750 2.046875 -3.343750 6.156250q0.000000 3.125000 2.390625 4.906250q2.390625 1.781250 9.625000 3.390625l3.078125 0.687500q9.562500 2.046875 13.593750 5.781250q4.031250 3.734375 4.031250 10.421875q0.000000 7.625000 -6.031250 12.078125q-6.031250 4.437500 -16.578125 4.437500q-4.390625 0.000000 -9.156250 -0.859375q-4.765625 -0.859375 -10.031250 -2.562500l0.000000 -9.281250q4.984375 2.593750 9.812500 3.890625q4.828125 1.281250 9.578125 1.281250q6.343750 0.000000 9.750000 -2.171875q3.421875 -2.171875 3.421875 -6.125000q0.000000 -3.656250 -2.468750 -5.609375q-2.453125 -1.953125 -10.812500 -3.765625l-3.125000 -0.734375q-8.343750 -1.750000 -12.062500 -5.390625q-3.703125 -3.640625 -3.703125 -9.984375q0.000000 -7.718750 5.468750 -11.906250q5.468750 -4.203125 15.531250 -4.203125q4.968750 0.000000 9.359375 0.734375q4.406250 0.718750 8.109375 2.187500"/>
<path id="c_e96974be642f6eac0427d72f9cec6c19" d="M8.015625 -75.875000l7.812500 0.000000q7.312500 11.515625 10.953125 22.562500q3.640625 11.031250 3.640625 21.921875q0.000000 10.937500 -3.640625 22.015625q-3.640625 11.078125 -10.953125 22.562500l-7.812500 0.000000q6.484375 -11.187500 9.687500 -22.250000q3.203125 -11.062500 3.203125 -22.328125q0.000000 -11.281250 -3.203125 -22.265625q-3.203125 -11.000000 -9.687500 -22.218750"/>
</defs>
<g style="fill: #000000; opacity: 1.000000" transform="translate(249.754687,416.003125)scale(0.120000)">
<use xlink:href="#c_9e4b30cbdf32072672ded72e9074c4c9"/>
<use xlink:href="#c_6a63bda47b2f3da1cec6aadd80692cfe" x="57.958984"/>
<use xlink:href="#c_4653c6dfde66c7610eae0911760d3490" x="85.742187"/>
<use xlink:href="#c_0bce5afba2dc6b9024b26277c38ad8e8" x="183.154297"/>
<use xlink:href="#c_d41d8cd98f00b204e9800998ecf8427e" x="244.677734"/>
<use xlink:href="#c_7efa9804c2b4c09a4b614b91fdebee3d" x="276.464844"/>
<use xlink:href="#c_42baa63129a918535c52adb20d687ea7" x="315.478516"/>
<use xlink:href="#c_9c6d5cbc59c6231647eb409cc6b37bb3" x="379.101562"/>
<use xlink:href="#c_42baa63129a918535c52adb20d687ea7" x="412.792969"/>
<use xlink:href="#c_7a2040fe3b94fcd41d0a72c84e93b115" x="476.416016"/>
<use xlink:href="#c_0f8c41144cfbf448378cb6fd1cc8e549" x="540.039062"/>
<use xlink:href="#c_74d54c94aa871ec39e2bc6697dde6c00" x="579.248047"/>
<use xlink:href="#c_d41d8cd98f00b204e9800998ecf8427e" x="642.626953"/>
<use xlink:href="#c_8e0810ad13fe20a2a87a2619799b154d" x="674.414062"/>
<use xlink:href="#c_e96974be642f6eac0427d72f9cec6c19" x="726.513672"/>
</g>
</g>
</g>
<g id="matplotlib.axis2">
<g id="ytick1">
<g id="line2d15">
<defs><path id="m3400efa6b1638b3fea9e19e898273957" d="M0.000000 0.000000L4.000000 0.000000"/></defs>
<g ><use style="fill: none; stroke: #000000; stroke-width: 0.500000; stroke-linejoin: round; stroke-linecap: butt;  opacity: 1.000000" xlink:href="#m3400efa6b1638b3fea9e19e898273957" x="72.000000" y="388.800000"/>
</g></g>
<g id="line2d16">
<defs><path id="m20b58b2501143cb5e0a5e8f1ef6f1643" d="M0.000000 0.000000L-4.000000 0.000000"/></defs>
<g ><use style="fill: none; stroke: #000000; stroke-width: 0.500000; stroke-linejoin: round; stroke-linecap: butt;  opacity: 1.000000" xlink:href="#m20b58b2501143cb5e0a5e8f1ef6f1643" x="518.400000" y="388.800000"/>
</g></g>
<g id="text8">
<defs>
<path id="c_6a8d56c819c37117ab4cf023bec22a5a" d="M10.593750 -35.500000l62.593750 0.000000l0.000000 8.296875l-62.593750 0.000000z"/>
</defs>
<g style="fill: #000000; opacity: 1.000000" transform="translate(37.078125,393.167188)scale(0.120000)">
<use xlink:href="#c_6a8d56c819c37117ab4cf023bec22a5a"/>
<use xlink:href="#c_42baa63129a918535c52adb20d687ea7" x="83.789062"/>
<use xlink:href="#c_7a2040fe3b94fcd41d0a72c84e93b115" x="147.412109"/>
<use xlink:href="#c_7a2040fe3b94fcd41d0a72c84e93b115" x="211.035156"/>
</g>
</g>
</g>
<g id="ytick2">
<g id="line2d17">
<g ><use style="fill: none; stroke: #000000; stroke-width: 0.500000; stroke-linejoin: round; stroke-linecap: butt;  opacity: 1.000000" xlink:href="#m3400efa6b1638b3fea9e19e898273957" x="72.000000" y="319.680000"/>
</g></g>
<g id="line2d18">
<g ><use style="fill: none; stroke: #000000; stroke-width: 0.500000; stroke-linejoin: round; stroke-linecap: butt;  opacity: 1.000000" xlink:href="#m20b58b2501143cb5e0a5e8f1ef6f1643" x="518.400000" y="319.680000"/>
</g></g>
<g id="text9">
<g style="fill: #000000; opacity: 1.000000" transform="translate(44.718750,324.047188)scale(0.120000)">
<use xlink:href="#c_6a8d56c819c37117ab4cf023bec22a5a"/>
<use xlink:href="#c_1260a2df50f305f3db244e29828f968e" x="83.789062"/>
<use xlink:href="#c_7a2040fe3b94fcd41d0a72c84e93b115" x="147.412109"/>
</g>
</g>
</g>
<g id="ytick3">
<g id="line2d19">
<g ><use style="fill: none; stroke: #000000; stroke-width: 0.500000; stroke-linejoin: round; stroke-linecap: butt;  opacity: 1.000000" xlink:href="#m3400efa6b1638b3fea9e19e898273957" x="72.000000" y="250.560000"/>
</g></g>
<g id="line2d20">
<g ><use style="fill: none; stroke: #000000; stroke-width: 0.500000; stroke-linejoin: round; stroke-linecap: butt;  opacity: 1.000000" xlink:href="#m20b58b2501143cb5e0a5e8f1ef6f1643" x="518.400000" y="250.560000"/>
</g></g>
<g id="text10">
<g style="fill: #000000; opacity: 1.000000" transform="translate(61.953125,254.927188)scale(0.120000)">
<use xlink:href="#c_7a2040fe3b94fcd41d0a72c84e93b115"/>
</g>
</g>
</g>
<g id="ytick4">
<g id="line2d21">
<g ><use style="fill: none; stroke: #000000; stroke-width: 0.500000; stroke-linejoin: round; stroke-linecap: butt;  opacity: 1.000000" xlink:href="#m3400efa6b1638b3fea9e19e898273957" x="72.000000" y="181.440000"/>
</g></g>
<g id="line2d22">
<g ><use style="fill: none; stroke: #000000; stroke-width: 0.500000; stroke-linejoin: round; stroke-linecap: butt;  opacity: 1.000000" xlink:href="#m20b58b2501143cb5e0a5e8f1ef6f1643" x="518.400000" y="181.440000"/>
</g></g>
<g id="text11">
<g style="fill: #000000; opacity: 1.000000" transform="translate(54.437500,185.807187)scale(0.120000)">
<use xlink:href="#c_1260a2df50f305f3db244e29828f968e"/>
<use xlink:href="#c_7a2040fe3b94fcd41d0a72c84e93b115" x="63.623047"/>
</g>
</g>
</g>
<g id="ytick5">
<g id="line2d23">
<g ><use style="fill: none; stroke: #000000; stroke-width: 0.500000; stroke-linejoin: round; stroke-linecap: butt;  opacity: 1.000000" xlink:href="#m3400efa6b1638b3fea9e19e898273957" x="72.000000" y="112.320000"/>
</g></g>
<g id="line2d24">
<g ><use style="fill: none; stroke: #000000; stroke-width: 0.500000; stroke-linejoin: round; stroke-linecap: butt;  opacity: 1.000000" xlink:href="#m20b58b2501143cb5e0a5e8f1ef6f1643" x="518.400000" y="112.320000"/>
</g></g>
<g id="text12">
<g style="fill: #000000; opacity: 1.000000" transform="translate(47.187500,116.687187)scale(0.120000)">
<use xlink:href="#c_42baa63129a918535c52adb20d687ea7"/>
<use xlink:href="#c_7a2040fe3b94fcd41d0a72c84e93b115" x="63.623047"/>
<use xlink:href="#c_7a2040fe3b94fcd41d0a72c84e93b115" x="127.246094"/>
</g>
</g>
</g>
<g id="ytick6">
<g id="line2d25">
<g ><use style="fill: none; stroke: #000000; stroke-width: 0.500000; stroke-linejoin: round; stroke-linecap: butt;  opacity: 1.000000" xlink:href="#m3400efa6b1638b3fea9e19e898273957" x="72.000000" y="43.200000"/>
</g></g>
<g id="line2d26">
<g ><use style="fill: none; stroke: #000000; stroke-width: 0.500000; stroke-linejoin: round; stroke-linecap: butt;  opacity: 1.000000" xlink:href="#m20b58b2501143cb5e0a5e8f1ef6f1643" x="518.400000" y="43.200000"/>
</g></g>
<g id="text13">
<g style="fill: #000000; opacity: 1.000000" transform="translate(47.187500,47.567187)scale(0.120000)">
<use xlink:href="#c_42baa63129a918535c52adb20d687ea7"/>
<use xlink:href="#c_1260a2df50f305f3db244e29828f968e" x="63.623047"/>
<use xlink:href="#c_7a2040fe3b94fcd41d0a72c84e93b115" x="127.246094"/>
</g>
</g>
</g>
<g id="text14">
<defs>
<path id="c_a56f7596f19f36c336140607221b43ce" d="M72.703125 -32.078125q-4.250000 0.000000 -6.671875 3.609375q-2.406250 3.609375 -2.406250 10.062500q0.000000 6.343750 2.406250 9.984375q2.421875 3.640625 6.671875 3.640625q4.156250 0.000000 6.562500 -3.640625q2.421875 -3.640625 2.421875 -9.984375q0.000000 -6.406250 -2.421875 -10.031250q-2.406250 -3.640625 -6.562500 -3.640625M72.703125 -38.281250q7.718750 0.000000 12.250000 5.375000q4.546875 5.359375 4.546875 14.500000q0.000000 9.125000 -4.562500 14.484375q-4.562500 5.343750 -12.234375 5.343750q-7.812500 0.000000 -12.359375 -5.343750q-4.531250 -5.359375 -4.531250 -14.484375q0.000000 -9.187500 4.562500 -14.531250q4.562500 -5.343750 12.328125 -5.343750M22.312500 -68.015625q-4.203125 0.000000 -6.625000 3.640625q-2.406250 3.625000 -2.406250 9.984375q0.000000 6.437500 2.390625 10.062500q2.390625 3.609375 6.640625 3.609375q4.250000 0.000000 6.656250 -3.609375q2.421875 -3.625000 2.421875 -10.062500q0.000000 -6.296875 -2.437500 -9.953125q-2.437500 -3.671875 -6.640625 -3.671875M66.406250 -74.218750l7.812500 0.000000l-45.609375 75.640625l-7.812500 0.000000zM22.312500 -74.218750q7.718750 0.000000 12.296875 5.343750q4.593750 5.343750 4.593750 14.484375q0.000000 9.218750 -4.562500 14.546875q-4.562500 5.328125 -12.328125 5.328125q-7.765625 0.000000 -12.281250 -5.343750q-4.515625 -5.359375 -4.515625 -14.531250q0.000000 -9.093750 4.531250 -14.453125q4.546875 -5.375000 12.265625 -5.375000"/>
<path id="c_73b12fe3945075d29fe0cc9a468fa31e" d="M37.109375 -75.984375l0.000000 7.484375l-8.593750 0.000000q-4.828125 0.000000 -6.718750 1.953125q-1.875000 1.953125 -1.875000 7.031250l0.000000 4.828125l14.796875 0.000000l0.000000 6.984375l-14.796875 0.000000l0.000000 47.703125l-9.031250 0.000000l0.000000 -47.703125l-8.593750 0.000000l0.000000 -6.984375l8.593750 0.000000l0.000000 -3.812500q0.000000 -9.125000 4.250000 -13.296875q4.250000 -4.187500 13.468750 -4.187500z"/>
<path id="c_f05dd90d41f04bb96ef1ca503cc2044b" d="M30.609375 -48.390625q-7.218750 0.000000 -11.421875 5.640625q-4.203125 5.640625 -4.203125 15.453125q0.000000 9.812500 4.171875 15.453125q4.187500 5.640625 11.453125 5.640625q7.187500 0.000000 11.375000 -5.656250q4.203125 -5.671875 4.203125 -15.437500q0.000000 -9.718750 -4.203125 -15.406250q-4.187500 -5.687500 -11.375000 -5.687500M30.609375 -56.000000q11.718750 0.000000 18.406250 7.625000q6.703125 7.609375 6.703125 21.078125q0.000000 13.421875 -6.703125 21.078125q-6.687500 7.640625 -18.406250 7.640625q-11.765625 0.000000 -18.437500 -7.640625q-6.656250 -7.656250 -6.656250 -21.078125q0.000000 -13.468750 6.656250 -21.078125q6.671875 -7.625000 18.437500 -7.625000"/>
<path id="c_6ec8d5749226675394676a5d2a3b468b" d="M41.109375 -46.296875q-1.515625 -0.875000 -3.296875 -1.281250q-1.781250 -0.421875 -3.921875 -0.421875q-7.625000 0.000000 -11.703125 4.953125q-4.078125 4.953125 -4.078125 14.234375l0.000000 28.812500l-9.031250 0.000000l0.000000 -54.687500l9.031250 0.000000l0.000000 8.500000q2.843750 -4.984375 7.375000 -7.390625q4.546875 -2.421875 11.046875 -2.421875q0.921875 0.000000 2.046875 0.125000q1.125000 0.109375 2.484375 0.359375z"/>
</defs>
<g style="fill: #000000; opacity: 1.000000" transform="translate(32.078125,239.703125)rotate(-90.0)scale(0.120000)">
<use xlink:href="#c_a56f7596f19f36c336140607221b43ce"/>
<use xlink:href="#c_d41d8cd98f00b204e9800998ecf8427e" x="95.019531"/>
<use xlink:href="#c_0bce5afba2dc6b9024b26277c38ad8e8" x="126.806641"/>
<use xlink:href="#c_73b12fe3945075d29fe0cc9a468fa31e" x="188.330078"/>
<use xlink:href="#c_73b12fe3945075d29fe0cc9a468fa31e" x="223.535156"/>
<use xlink:href="#c_f05dd90d41f04bb96ef1ca503cc2044b" x="258.740234"/>
<use xlink:href="#c_6ec8d5749226675394676a5d2a3b468b" x="319.921875"/>
<use xlink:href="#c_0f8c41144cfbf448378cb6fd1cc8e549" x="361.035156"/>
</g>
</g>
</g>
<g id="patch3">
<path style="fill: none; stroke: #000000; stroke-width: 1.000000; stroke-linejoin: round; stroke-linecap: square;  opacity: 1.000000"  d="M72.000000 43.200000L518.400000 43.200000"/>
</g>
<g id="patch4">
<path style="fill: none; stroke: #000000; stroke-width: 1.000000; stroke-linejoin: round; stroke-linecap: square;  opacity: 1.000000"  d="M518.400000 388.800000L518.400000 43.200000"/>
</g>
<g id="patch5">
<path style="fill: none; stroke: #000000; stroke-width: 1.000000; stroke-linejoin: round; stroke-linecap: square;  opacity: 1.000000"  d="M72.000000 388.800000L518.400000 388.800000"/>
</g>
<g id="patch6">
<path style="fill: none; stroke: #000000; stroke-width: 1.000000; stroke-linejoin: round; stroke-linecap: square;  opacity: 1.000000"  d="M72.000000 388.800000L72.000000 43.200000"/>
</g>
<g id="text15">
<defs>
<path id="c_518d586bee075aa0153eaebfcb5ab11f" d="M19.671875 -64.796875l0.000000 27.390625l12.406250 0.000000q6.890625 0.000000 10.640625 -3.562500q3.765625 -3.562500 3.765625 -10.156250q0.000000 -6.546875 -3.765625 -10.109375q-3.750000 -3.562500 -10.640625 -3.562500zM9.812500 -72.906250l22.265625 0.000000q12.265625 0.000000 18.531250 5.546875q6.281250 5.546875 6.281250 16.234375q0.000000 10.796875 -6.281250 16.312500q-6.265625 5.515625 -18.531250 5.515625l-12.406250 0.000000l0.000000 29.296875l-9.859375 0.000000z"/>
<path id="c_01d93a582460e35a7945ca50d148ffeb" d="M34.281250 -27.484375q-10.890625 0.000000 -15.093750 2.484375q-4.203125 2.484375 -4.203125 8.500000q0.000000 4.781250 3.156250 7.593750q3.156250 2.796875 8.562500 2.796875q7.484375 0.000000 12.000000 -5.296875q4.515625 -5.296875 4.515625 -14.078125l0.000000 -2.000000zM52.203125 -31.203125l0.000000 31.203125l-8.984375 0.000000l0.000000 -8.296875q-3.078125 4.968750 -7.671875 7.343750q-4.593750 2.375000 -11.234375 2.375000q-8.390625 0.000000 -13.359375 -4.718750q-4.953125 -4.718750 -4.953125 -12.625000q0.000000 -9.218750 6.171875 -13.906250q6.187500 -4.687500 18.437500 -4.687500l12.609375 0.000000l0.000000 -0.890625q0.000000 -6.203125 -4.078125 -9.593750q-4.078125 -3.390625 -11.453125 -3.390625q-4.687500 0.000000 -9.140625 1.125000q-4.437500 1.125000 -8.531250 3.375000l0.000000 -8.312500q4.921875 -1.906250 9.562500 -2.843750q4.640625 -0.953125 9.031250 -0.953125q11.875000 0.000000 17.734375 6.156250q5.859375 6.140625 5.859375 18.640625"/>
<path id="c_d650c37394b681142a10dfc54356d478" d="M48.781250 -52.593750l0.000000 8.406250q-3.812500 -2.109375 -7.640625 -3.156250q-3.828125 -1.046875 -7.734375 -1.046875q-8.750000 0.000000 -13.593750 5.546875q-4.828125 5.531250 -4.828125 15.546875q0.000000 10.015625 4.828125 15.562500q4.843750 5.531250 13.593750 5.531250q3.906250 0.000000 7.734375 -1.046875q3.828125 -1.046875 7.640625 -3.156250l0.000000 8.312500q-3.765625 1.750000 -7.796875 2.625000q-4.015625 0.890625 -8.562500 0.890625q-12.359375 0.000000 -19.640625 -7.765625q-7.265625 -7.765625 -7.265625 -20.953125q0.000000 -13.375000 7.343750 -21.031250q7.359375 -7.671875 20.156250 -7.671875q4.140625 0.000000 8.093750 0.859375q3.953125 0.843750 7.671875 2.546875"/>
<path id="c_dcb78ab3124be785176d70a27dde1356" d="M9.078125 -75.984375l9.031250 0.000000l0.000000 44.875000l26.812500 -23.578125l11.468750 0.000000l-29.000000 25.578125l30.234375 29.109375l-11.718750 0.000000l-27.796875 -26.703125l0.000000 26.703125l-9.031250 0.000000z"/>
<path id="c_425fd1cbcd899bef0a79975ae4756bf8" d="M19.671875 -34.812500l0.000000 26.703125l15.828125 0.000000q7.953125 0.000000 11.781250 -3.296875q3.843750 -3.296875 3.843750 -10.078125q0.000000 -6.843750 -3.843750 -10.078125q-3.828125 -3.250000 -11.781250 -3.250000zM19.671875 -64.796875l0.000000 21.968750l14.609375 0.000000q7.218750 0.000000 10.750000 -2.703125q3.546875 -2.718750 3.546875 -8.281250q0.000000 -5.515625 -3.546875 -8.250000q-3.531250 -2.734375 -10.750000 -2.734375zM9.812500 -72.906250l25.203125 0.000000q11.281250 0.000000 17.375000 4.687500q6.109375 4.687500 6.109375 13.328125q0.000000 6.703125 -3.125000 10.656250q-3.125000 3.953125 -9.187500 4.921875q7.281250 1.562500 11.312500 6.531250q4.031250 4.953125 4.031250 12.375000q0.000000 9.765625 -6.640625 15.093750q-6.640625 5.312500 -18.906250 5.312500l-26.171875 0.000000z"/>
<path id="c_ae70b0af174184799fa4976b9c5da571" d="M28.609375 -0.000000l-27.828125 -72.906250l10.296875 0.000000l23.109375 61.375000l23.140625 -61.375000l10.250000 0.000000l-27.781250 72.906250z"/>
<path id="c_5099edb83619131346ae654950954dea" d="M9.421875 -75.984375l8.984375 0.000000l0.000000 75.984375l-8.984375 0.000000z"/>
</defs>
<g style="fill: #000000; opacity: 1.000000" transform="translate(230.457812,37.996875)scale(0.144000)">
<use xlink:href="#c_518d586bee075aa0153eaebfcb5ab11f"/>
<use xlink:href="#c_01d93a582460e35a7945ca50d148ffeb" x="55.802734"/>
<use xlink:href="#c_d650c37394b681142a10dfc54356d478" x="117.082031"/>
<use xlink:href="#c_dcb78ab3124be785176d70a27dde1356" x="172.062500"/>
<use xlink:href="#c_425fd1cbcd899bef0a79975ae4756bf8" x="229.972656"/>
<use xlink:href="#c_f05dd90d41f04bb96ef1ca503cc2044b" x="298.576172"/>
<use xlink:href="#c_0f8c41144cfbf448378cb6fd1cc8e549" x="359.757812"/>
<use xlink:href="#c_d41d8cd98f00b204e9800998ecf8427e" x="398.966797"/>
<use xlink:href="#c_ae70b0af174184799fa4976b9c5da571" x="430.753906"/>
<use xlink:href="#c_0bce5afba2dc6b9024b26277c38ad8e8" x="491.412109"/>
<use xlink:href="#c_5099edb83619131346ae654950954dea" x="552.935547"/>
<use xlink:href="#c_f05dd90d41f04bb96ef1ca503cc2044b" x="580.718750"/>
<use xlink:href="#c_d650c37394b681142a10dfc54356d478" x="641.900391"/>
<use xlink:href="#c_6a63bda47b2f3da1cec6aadd80692cfe" x="696.880859"/>
<use xlink:href="#c_0f8c41144cfbf448378cb6fd1cc8e549" x="724.664062"/>
<use xlink:href="#c_6a63bda47b2f3da1cec6aadd80692cfe" x="763.873047"/>
<use xlink:href="#c_0bce5afba2dc6b9024b26277c38ad8e8" x="791.656250"/>
<use xlink:href="#c_8e0810ad13fe20a2a87a2619799b154d" x="853.179688"/>
</g>
</g>
</g>
<g id="legend1">
<g id="patch7">
<path style="fill: #ffffff; stroke: #000000; stroke-width: 1.000000; stroke-linejoin: round; stroke-linecap: square;  opacity: 1.000000"  d="M400.522500 53.013750L568.800000 53.013750L568.800000 7.200000
L400.522500 7.200000L400.522500 53.013750z"/>
</g>
<g id="line2d27">
<path style="fill: none; stroke: #0000ff; stroke-width: 1.000000; stroke-linejoin: round; stroke-linecap: square;  opacity: 1.000000"  d="M410.602500 18.560625L430.762500 18.560625"/>
</g>
<g id="line2d28">
</g>
<g id="text16">
<defs>
<path id="c_07e3f33241aff50afcba519606f2a979" d="M9.812500 -72.906250l9.859375 0.000000l0.000000 64.609375l35.500000 0.000000l0.000000 8.296875l-45.359375 0.000000z"/>
<path id="c_fe791a90f5471e2ab20a5ed41a7fa451" d="M54.890625 -33.015625l0.000000 33.015625l-8.984375 0.000000l0.000000 -32.718750q0.000000 -7.765625 -3.031250 -11.609375q-3.031250 -3.859375 -9.078125 -3.859375q-7.281250 0.000000 -11.484375 4.640625q-4.203125 4.625000 -4.203125 12.640625l0.000000 30.906250l-9.031250 0.000000l0.000000 -54.687500l9.031250 0.000000l0.000000 8.500000q3.234375 -4.937500 7.593750 -7.375000q4.375000 -2.437500 10.093750 -2.437500q9.421875 0.000000 14.250000 5.828125q4.843750 5.828125 4.843750 17.156250"/>
<path id="c_3fe22c4af425ac970aec982ae9662abe" d="M32.171875 5.078125q-3.796875 9.765625 -7.421875 12.734375q-3.609375 2.984375 -9.656250 2.984375l-7.187500 0.000000l0.000000 -7.515625l5.281250 0.000000q3.703125 0.000000 5.750000 -1.765625q2.062500 -1.750000 4.546875 -8.296875l1.609375 -4.093750l-22.109375 -53.812500l9.515625 0.000000l17.093750 42.765625l17.093750 -42.765625l9.515625 0.000000z"/>
</defs>
<g style="fill: #000000; opacity: 1.000000" transform="translate(446.602500,23.600625)scale(0.144000)">
<use xlink:href="#c_07e3f33241aff50afcba519606f2a979"/>
<use xlink:href="#c_6a63bda47b2f3da1cec6aadd80692cfe" x="55.712891"/>
<use xlink:href="#c_fe791a90f5471e2ab20a5ed41a7fa451" x="83.496094"/>
<use xlink:href="#c_0bce5afba2dc6b9024b26277c38ad8e8" x="146.875000"/>
<use xlink:href="#c_01d93a582460e35a7945ca50d148ffeb" x="208.398438"/>
<use xlink:href="#c_6ec8d5749226675394676a5d2a3b468b" x="269.677734"/>
<use xlink:href="#c_d41d8cd98f00b204e9800998ecf8427e" x="310.791016"/>
<use xlink:href="#c_ae70b0af174184799fa4976b9c5da571" x="342.578125"/>
<use xlink:href="#c_0bce5afba2dc6b9024b26277c38ad8e8" x="403.236328"/>
<use xlink:href="#c_5099edb83619131346ae654950954dea" x="464.759766"/>
<use xlink:href="#c_f05dd90d41f04bb96ef1ca503cc2044b" x="492.542969"/>
<use xlink:href="#c_d650c37394b681142a10dfc54356d478" x="553.724609"/>
<use xlink:href="#c_6a63bda47b2f3da1cec6aadd80692cfe" x="608.705078"/>
<use xlink:href="#c_0f8c41144cfbf448378cb6fd1cc8e549" x="636.488281"/>
<use xlink:href="#c_3fe22c4af425ac970aec982ae9662abe" x="675.697266"/>
</g>
</g>
<g id="line2d29">
<path style="fill: none; stroke: #008000; stroke-width: 1.000000; stroke-linejoin: round; stroke-linecap: square;  opacity: 1.000000"  d="M410.602500 39.307500L430.762500 39.307500"/>
</g>
<g id="line2d30">
</g>
<g id="text17">
<defs>
<path id="c_6023715d605f81e6eb43b7f9d77e7c51" d="M34.187500 -63.187500l-13.390625 36.281250l26.812500 0.000000zM28.609375 -72.906250l11.187500 0.000000l27.781250 72.906250l-10.250000 0.000000l-6.640625 -18.703125l-32.859375 0.000000l-6.640625 18.703125l-10.406250 0.000000z"/>
<path id="c_e3864de5dabf2f8dd9eee74726882ec1" d="M45.406250 -27.984375q0.000000 -9.765625 -4.031250 -15.125000q-4.015625 -5.375000 -11.296875 -5.375000q-7.218750 0.000000 -11.250000 5.375000q-4.031250 5.359375 -4.031250 15.125000q0.000000 9.718750 4.031250 15.093750q4.031250 5.375000 11.250000 5.375000q7.281250 0.000000 11.296875 -5.375000q4.031250 -5.375000 4.031250 -15.093750M54.390625 -6.781250q0.000000 13.953125 -6.203125 20.765625q-6.187500 6.812500 -18.984375 6.812500q-4.734375 0.000000 -8.937500 -0.703125q-4.203125 -0.703125 -8.156250 -2.171875l0.000000 -8.734375q3.953125 2.140625 7.812500 3.156250q3.859375 1.031250 7.859375 1.031250q8.843750 0.000000 13.234375 -4.609375q4.390625 -4.609375 4.390625 -13.937500l0.000000 -4.453125q-2.781250 4.843750 -7.125000 7.234375q-4.343750 2.390625 -10.406250 2.390625q-10.046875 0.000000 -16.203125 -7.656250q-6.156250 -7.671875 -6.156250 -20.328125q0.000000 -12.687500 6.156250 -20.343750q6.156250 -7.671875 16.203125 -7.671875q6.062500 0.000000 10.406250 2.390625q4.343750 2.390625 7.125000 7.218750l0.000000 -8.296875l8.984375 0.000000z"/>
<path id="c_3b515ad41f960e225ec85275856806ca" d="M8.500000 -21.578125l0.000000 -33.109375l8.984375 0.000000l0.000000 32.765625q0.000000 7.765625 3.015625 11.656250q3.031250 3.875000 9.093750 3.875000q7.265625 0.000000 11.484375 -4.640625q4.234375 -4.640625 4.234375 -12.656250l0.000000 -31.000000l8.984375 0.000000l0.000000 54.687500l-8.984375 0.000000l0.000000 -8.406250q-3.265625 4.984375 -7.593750 7.406250q-4.312500 2.421875 -10.031250 2.421875q-9.421875 0.000000 -14.312500 -5.859375q-4.875000 -5.859375 -4.875000 -17.140625M31.109375 -56.000000z"/>
</defs>
<g style="fill: #000000; opacity: 1.000000" transform="translate(446.602500,44.347500)scale(0.144000)">
<use xlink:href="#c_6023715d605f81e6eb43b7f9d77e7c51"/>
<use xlink:href="#c_fe791a90f5471e2ab20a5ed41a7fa451" x="68.408203"/>
<use xlink:href="#c_e3864de5dabf2f8dd9eee74726882ec1" x="131.787109"/>
<use xlink:href="#c_3b515ad41f960e225ec85275856806ca" x="195.263672"/>
<use xlink:href="#c_5099edb83619131346ae654950954dea" x="258.642578"/>
<use xlink:href="#c_01d93a582460e35a7945ca50d148ffeb" x="286.425781"/>
<use xlink:href="#c_6ec8d5749226675394676a5d2a3b468b" x="347.705078"/>
<use xlink:href="#c_d41d8cd98f00b204e9800998ecf8427e" x="388.818359"/>
<use xlink:href="#c_ae70b0af174184799fa4976b9c5da571" x="420.605469"/>
<use xlink:href="#c_0bce5afba2dc6b9024b26277c38ad8e8" x="481.263672"/>
<use xlink:href="#c_5099edb83619131346ae654950954dea" x="542.787109"/>
<use xlink:href="#c_f05dd90d41f04bb96ef1ca503cc2044b" x="570.570313"/>
<use xlink:href="#c_d650c37394b681142a10dfc54356d478" x="631.751953"/>
<use xlink:href="#c_6a63bda47b2f3da1cec6aadd80692cfe" x="686.732422"/>
<use xlink:href="#c_0f8c41144cfbf448378cb6fd1cc8e549" x="714.515625"/>
<use xlink:href="#c_3fe22c4af425ac970aec982ae9662abe" x="753.724609"/>
</g>
</g>
</g>
</g>
</svg>
