<?xml version="1.0" encoding="UTF-8" standalone="no"?>
<!-- Created with matplotlib (http://matplotlib.sourceforge.net/) -->

<svg
   xmlns:dc="http://purl.org/dc/elements/1.1/"
   xmlns:cc="http://creativecommons.org/ns#"
   xmlns:rdf="http://www.w3.org/1999/02/22-rdf-syntax-ns#"
   xmlns:svg="http://www.w3.org/2000/svg"
   xmlns="http://www.w3.org/2000/svg"
   xmlns:xlink="http://www.w3.org/1999/xlink"
   xmlns:sodipodi="http://sodipodi.sourceforge.net/DTD/sodipodi-0.dtd"
   xmlns:inkscape="http://www.inkscape.org/namespaces/inkscape"
   width="585pt"
   height="441pt"
   viewBox="0 0 585 441"
   version="1.1"
   id="svg1"
   inkscape:version="0.47pre4 r22446"
   sodipodi:docname="KFDataHeadingReverseFixed.svg"
   inkscape:export-filename="/home/thomas/docs/thesis/thomas/images/KFDataHeadingReverseFixed.png"
   inkscape:export-xdpi="300"
   inkscape:export-ydpi="300">
  <metadata
     id="metadata612">
    <rdf:RDF>
      <cc:Work
         rdf:about="">
        <dc:format>image/svg+xml</dc:format>
        <dc:type
           rdf:resource="http://purl.org/dc/dcmitype/StillImage" />
        <dc:title></dc:title>
      </cc:Work>
    </rdf:RDF>
  </metadata>
  <defs
     id="defs610">
    <inkscape:perspective
       sodipodi:type="inkscape:persp3d"
       inkscape:vp_x="0 : 275.625 : 1"
       inkscape:vp_y="0 : 1000 : 0"
       inkscape:vp_z="731.25 : 275.625 : 1"
       inkscape:persp3d-origin="365.625 : 183.75 : 1"
       id="perspective614" />
    <inkscape:perspective
       id="perspective3164"
       inkscape:persp3d-origin="0.5 : 0.33333333 : 1"
       inkscape:vp_z="1 : 0.5 : 1"
       inkscape:vp_y="0 : 1000 : 0"
       inkscape:vp_x="0 : 0.5 : 1"
       sodipodi:type="inkscape:persp3d" />
    <marker
       inkscape:stockid="Arrow1Lstart"
       orient="auto"
       refY="0"
       refX="0"
       id="Arrow1Lstart"
       style="overflow:visible">
      <path
         id="path4248"
         d="M 0,0 5,-5 -12.5,0 5,5 0,0 z"
         style="fill-rule:evenodd;stroke:#000000;stroke-width:1pt;marker-start:none"
         transform="matrix(0.8,0,0,0.8,10,0)" />
    </marker>
  </defs>
  <sodipodi:namedview
     pagecolor="#ffffff"
     bordercolor="#666666"
     borderopacity="1"
     objecttolerance="10"
     gridtolerance="10"
     guidetolerance="10"
     inkscape:pageopacity="0"
     inkscape:pageshadow="2"
     inkscape:window-width="1920"
     inkscape:window-height="1151"
     id="namedview608"
     showgrid="false"
     inkscape:zoom="1.7124717"
     inkscape:cx="386.74238"
     inkscape:cy="259.63211"
     inkscape:window-x="0"
     inkscape:window-y="25"
     inkscape:window-maximized="1"
     inkscape:current-layer="svg1" />
  <g
     id="figure1">
    <g
       id="patch1">
      <path
         style="fill: #ffffff; stroke: #ffffff; stroke-width: 1.000000; stroke-linejoin: round; stroke-linecap: square;  opacity: 1.000000"
         d="M0.000000 441.000000L585.000000 441.000000L585.000000 0.000000 L0.000000 0.000000L0.000000 441.000000"
         id="path5" />
    </g>
    <g
       id="axes1">
      <g
         id="patch2">
        <path
           style="fill: #ffffff; opacity: 1.000000"
           d="M73.125000 396.900000L526.500000 396.900000L526.500000 44.100000 L73.125000 44.100000L73.125000 396.900000"
           id="path9" />
      </g>
      <g
         id="line2d1">
        <defs
           id="defs12">
          <clipPath
             id="pc3c5e41676658680e7b95047b5791c8e">
            <rect
               x="73.125000"
               y="44.100000"
               width="453.375000"
               height="352.800000"
               id="rect15" />
          </clipPath>
        </defs>
        <path
           style="fill: none; stroke: #0000ff; stroke-width: 1.000000; stroke-linejoin: round; stroke-linecap: square;  opacity: 1.000000"
           clip-path="url(#pc3c5e41676658680e7b95047b5791c8e)"
           d="M73.125000 220.500000L83.487857 220.500000L85.107054 224.433058 L86.078571 251.740043L87.050089 247.963143L87.697768 239.628816 L88.021607 242.647152L88.345446 240.970117L88.993125 231.940863 L89.316964 229.041861L89.964643 234.744300L90.936161 230.741034 L91.907679 227.902670L92.879196 217.754995L93.850714 213.716538 L95.469911 181.627967L95.793750 185.199052L96.441429 177.239796 L96.765268 179.170406L97.412946 181.002320L98.060625 177.287027 L99.032143 182.000788L99.679821 178.833923L100.003661 180.774499 L100.327500 178.576026L100.651339 181.726707L100.975179 177.494165 L101.299018 179.660137L101.946696 192.574822L102.918214 225.149375 L103.242054 226.169408L103.565893 224.730645L103.889732 220.099440 L105.185089 220.500000L141.455089 220.500000L142.750446 220.428999 L143.074286 218.274405L144.045804 179.329034L144.369643 180.652254 L145.017321 186.978135L145.341161 183.255345L145.665000 188.618611 L145.988839 186.254630L146.312679 189.678863L146.636518 186.245722 L146.960357 187.717295L147.608036 184.561852L147.931875 188.925414 L148.579554 184.001649L149.227232 186.908501L149.874911 184.349069 L150.846429 188.126763L151.494107 187.001860L151.817946 185.315962 L152.465625 190.238404L153.437143 187.809684L153.760982 192.450283 L154.084821 187.390029L154.408661 191.004244L155.056339 189.043294 L155.704018 190.718873L156.351696 187.238766L156.675536 193.078532 L156.999375 188.980407L157.323214 192.255185L157.970893 190.313903 L158.294732 192.741034L158.942411 188.052587L159.590089 189.703867 L160.237768 192.992890L160.561607 188.748706L161.209286 197.252685 L161.533125 186.214720L161.856964 191.489388L162.180804 189.422730 L162.504643 182.280603L162.828482 185.670393L163.152321 181.597053 L163.476161 184.346291L163.800000 182.211939L164.123839 183.458866 L164.771518 187.506497L165.419196 179.099273L165.743036 182.912423 L166.390714 179.666663L166.714554 183.662653L167.362232 178.767067 L168.009911 181.745140L168.657589 179.379837L169.952946 182.270768 L170.276786 179.849281L170.600625 182.267990L170.924464 176.737100 L171.248304 180.255619L171.572143 178.896854L171.895982 182.126341 L172.543661 179.216535L173.191339 186.983647L173.515179 183.329301 L173.839018 186.075364L174.486696 181.465105L175.134375 186.849539 L175.458214 185.059696L176.105893 183.941188L176.429732 189.355345 L177.077411 183.134335L178.372768 187.725497L179.020446 185.162846 L179.344286 194.123128L179.668125 182.516053L180.315804 183.593901 L180.639643 180.979300L181.287321 186.307197L181.935000 184.115868 L182.258839 185.603670L182.906518 184.066829L183.230357 185.980019 L183.878036 181.024326L184.525714 184.341043L185.173393 181.353091 L185.821071 183.678264L186.144911 179.928397L187.116429 181.735747 L188.087946 175.975449L188.411786 177.774332L189.383304 175.579255 L189.707143 179.865246L190.030982 173.513038L190.354821 175.074045 L190.678661 169.926076L191.002500 171.435928L191.326339 167.633052 L191.974018 172.348092L193.269375 162.198477L193.593214 164.205071 L193.917054 159.993786L194.240893 161.069517L195.212411 157.308581 L195.536250 161.347700L195.860089 159.111609L196.831607 150.084075 L197.155446 154.092324L198.126964 155.430803L198.774643 149.650395 L199.422321 157.523833L200.070000 148.212338L200.717679 144.452240 L201.041518 152.316284L201.365357 149.940353L202.336875 147.680492 L202.660714 144.254319L202.984554 152.081408L203.956071 148.844512 L204.603750 219.967404L205.899107 220.500000L235.692321 220.500000 L236.987679 224.518392L237.311518 228.532506L237.635357 237.623898 L238.283036 266.871503L238.606875 271.040849L238.930714 268.879332 L239.578393 260.328033L241.197589 266.542561L242.169107 276.973622 L243.140625 273.887416L243.788304 277.100410L244.759821 270.736780 L245.083661 272.541925L245.407500 267.374110L245.731339 273.279233 L246.055179 269.042061L246.379018 270.510458L247.350536 267.412654 L248.322054 265.974862L248.645893 270.123878L249.617411 265.821967 L249.941250 268.164338L250.588929 266.797856L250.912768 265.144150 L251.236607 266.570873L251.884286 255.204760L252.208125 257.147673 L253.179643 238.715814L254.475000 243.360999L255.446518 219.802426 L256.094196 193.108784L256.741875 169.475506L257.389554 173.748664 L258.037232 175.555264L258.684911 179.159028L259.332589 173.474671 L259.980268 178.350322L260.304107 177.095766L260.627946 173.229475 L261.275625 176.697234L261.923304 173.634621L262.247143 179.462392 L262.570982 177.217173L263.218661 175.221251L264.190179 178.358922 L264.514018 173.544966L265.485536 179.139095L266.133214 174.641953 L267.104732 161.576887L267.752411 154.639649L268.076250 170.232968 L268.400089 161.036221L269.371607 186.400557L270.019286 221.537893 L270.666964 225.799717L271.314643 220.558829L279.086786 220.500000 L295.926429 220.500000L296.897946 216.890591L297.869464 186.230728 L298.193304 175.958824L298.840982 187.385663L299.488661 191.665259 L300.136339 184.128657L300.460179 186.986117L300.784018 184.899128 L301.107857 188.598633L301.755536 184.472593L302.079375 186.515702 L302.403214 183.198324L303.050893 186.048595L304.670089 183.074006 L305.641607 184.126761L306.289286 181.083773L307.260804 182.563372 L307.908482 177.853801L308.232321 179.050983L308.556161 177.000907 L309.203839 175.604127L309.851518 178.399362L310.499196 176.790285 L310.823036 173.385897L311.470714 171.579341L312.442232 178.082415 L312.766071 170.050570L313.089911 171.182970L313.413750 174.244568 L313.737589 169.343691L314.061429 170.568745L314.709107 164.568014 L315.032946 166.749950L315.356786 164.721350L316.004464 167.440688 L316.328304 161.767311L316.652143 163.206691L316.975982 157.653840 L317.947500 161.081909L318.271339 155.852884L319.566696 151.669029 L319.890536 156.576388L320.538214 149.998256L321.509732 161.679420 L321.833571 158.878056L322.157411 151.950695L323.128929 149.153124 L323.452768 150.501613L323.776607 149.170102L324.100446 145.310779 L324.424286 148.669435L325.395804 142.678141L326.043482 219.593172 L327.338839 220.500000L354.541339 220.488181L355.189018 222.168171 L356.160536 248.560433L356.484375 249.707298L356.808214 254.389218 L357.132054 252.043407L357.455893 246.161349L358.103571 224.666568 L358.427411 219.326587L359.075089 221.673633L359.722768 225.671563 L361.018125 249.323584L361.341964 253.732261L361.989643 249.831571 L362.961161 252.074674L363.608839 250.863997L363.932679 254.566544 L364.256518 247.447525L365.228036 244.231136L365.551875 240.611364 L365.875714 243.622732L366.847232 235.656023L367.171071 236.676586 L368.466429 282.832616L369.114107 292.007224L369.761786 296.519845 L370.733304 297.873185L371.057143 296.000523L372.028661 302.485516 L373.324018 292.507671L373.971696 289.551118L374.619375 292.679308 L374.943214 287.437009L376.238571 288.056305L376.886250 290.455609 L377.210089 284.723403L377.857768 288.732049L378.505446 284.554147 L378.829286 288.428288L379.153125 283.248435L380.448482 289.465124 L380.772321 284.207345L382.067679 283.452574L383.039196 284.584136 L384.010714 289.885000L384.334554 280.951927L384.658393 282.218876 L384.982232 292.365845L385.629911 285.338466L386.925268 284.523410 L387.572946 290.303729L388.868304 283.766918L389.515982 274.216843 L390.811339 218.305363L391.459018 221.717160L392.754375 221.455074 L393.402054 222.492923L393.725893 223.848248L394.697411 222.505359 L395.668929 223.518910L396.964286 223.242711L398.259643 224.068704 L398.907321 222.892690L399.231161 221.337415L400.202679 223.510090 L400.526518 220.251585L403.117232 220.500000L434.205804 220.500000 L434.853482 216.696948L435.825000 182.976236L437.120357 183.029024 L437.768036 189.905272L438.415714 184.500685L439.063393 188.730845 L439.387232 182.107598L440.358750 183.761922L441.330268 181.341361 L441.654107 182.695407L441.977946 179.189942L442.301786 181.614781 L443.273304 178.662683L445.864018 173.138143L446.511696 175.944182 L447.159375 172.778640L448.130893 174.239717L448.454732 172.295745 L448.778571 165.140035L449.102411 169.156178L449.750089 163.860694 L450.073929 166.535668L451.045446 159.474640L451.369286 161.173020 L452.016964 153.788739L452.340804 155.912154L452.988482 157.350829 L453.312321 152.428166L453.960000 155.191075L454.283839 153.086182 L454.607679 158.798720L455.255357 156.592000L455.903036 150.366535 L456.550714 152.711244L457.198393 147.959557L457.522232 151.467977 L457.846071 147.770677L458.169911 148.862549L458.493750 153.254865 L458.817589 151.636880L459.141429 147.668056L460.112946 220.464544 L473.066518 220.500000L492.496875 220.444169L492.820714 221.780399 L492.820714 221.780399"
           id="path17" />
      </g>
      <g
         id="line2d2">
        <path
           style="fill: none; stroke: #008000; stroke-width: 1.000000; stroke-linejoin: round; stroke-linecap: square;  opacity: 1.000000"
           clip-path="url(#pc3c5e41676658680e7b95047b5791c8e)"
           d="M73.125000 220.054810L73.448839 218.545664L74.744196 219.385372 L76.039554 219.134708L77.658750 221.322685L78.954107 221.767390 L79.277946 218.339938L79.925625 221.845403L80.249464 219.723575 L81.544821 219.999200L82.840179 222.161423L83.164018 218.967216 L84.459375 219.668053L84.783214 223.813542L85.430893 241.031593 L86.078571 265.809310L86.402411 262.671639L86.726250 251.942771 L87.373929 256.051480L87.697768 247.980298L88.669286 244.924123 L89.316964 231.419028L89.640804 248.118992L89.964643 241.012894 L90.612321 237.211915L91.260000 243.351914L91.583839 237.823715 L92.231518 232.946916L92.555357 233.991998L92.879196 207.799244 L93.526875 216.662638L94.174554 207.143124L95.146071 189.028696 L96.441429 176.295659L97.089107 181.866415L98.384464 182.633579 L99.032143 181.205445L99.679821 187.798042L100.003661 175.342129 L100.327500 180.593469L100.651339 178.507936L101.299018 180.617195 L101.622857 178.925298L102.594375 217.195763L102.918214 207.015322 L103.242054 229.895637L103.889732 223.925820L104.213571 218.040763 L104.537411 220.243691L105.508929 219.051668L105.832768 221.914640 L106.480446 219.232610L107.128125 222.262589L107.775804 219.816450 L109.071161 219.338935L109.395000 221.614098L109.718839 218.362782 L110.042679 221.828777L110.690357 220.294582L111.661875 219.269169 L111.985714 221.338032L112.309554 219.232610L112.957232 222.177961 L113.281071 219.359353L114.576429 222.948608L114.900268 219.938122 L115.871786 221.882182L116.519464 218.596820L117.167143 220.846891 L117.814821 218.980182L119.110179 219.286544L119.434018 221.542700 L119.757857 219.085581L120.729375 220.224154L121.377054 221.529559 L121.700893 219.285486L122.996250 219.914484L124.291607 219.202313 L125.586964 219.928376L125.910804 218.922940L126.234643 220.059617 L128.825357 218.375041L129.149196 219.972652L130.444554 219.021239 L131.416071 220.135425L131.739911 219.065471L132.063750 220.169162 L132.711429 218.841928L134.006786 219.990292L134.654464 218.393034 L134.978304 219.738525L135.949821 218.177606L136.273661 219.510396 L137.569018 219.194949L138.540536 220.360379L139.835893 219.615310 L142.426607 219.614340L143.398125 215.391985L144.045804 173.150315 L144.693482 178.942674L145.341161 190.512661L145.665000 188.921622 L146.312679 192.607588L146.960357 187.467953L147.284196 189.433270 L147.931875 184.095229L148.255714 188.458395L148.579554 182.027601 L148.903393 185.152483L149.551071 183.523870L150.522589 191.322823 L150.846429 189.817072L151.170268 187.532251L151.817946 191.170766 L152.141786 184.074414L152.789464 195.940004L153.760982 190.088860 L154.408661 198.177506L155.056339 195.016153L155.380179 189.199452 L155.704018 190.860081L156.351696 187.204632L156.999375 188.283406 L157.323214 189.910344L158.294732 204.533419L158.618571 183.493882 L159.266250 186.515878L160.237768 199.862832L160.561607 196.728380 L161.209286 193.820647L161.856964 200.389165L162.180804 189.485837 L162.828482 191.640960L163.152321 187.637562L163.800000 193.473580 L164.123839 191.730703L164.447679 196.563490L165.095357 189.006691 L166.390714 183.513683L166.714554 184.530982L167.038393 188.487589 L167.362232 186.836044L168.009911 185.665013L168.333750 177.499413 L168.657589 182.650999L169.305268 180.106693L169.629107 188.798980 L169.952946 182.211277L170.276786 186.054328L170.600625 179.271086 L170.924464 184.200540L171.248304 180.612873L171.895982 183.666489 L172.219821 182.286468L172.867500 191.304389L173.839018 183.551785 L174.486696 189.434020L175.458214 180.430784L176.105893 194.679318 L176.753571 192.971369L177.077411 187.141437L177.401250 193.135597 L177.725089 182.630404L178.372768 188.098275L178.696607 183.223284 L179.020446 194.669307L179.344286 186.578941L179.668125 192.953993 L179.991964 180.835005L181.287321 193.064861L181.935000 185.453950 L182.582679 188.343691L183.554196 181.326852L183.878036 185.607154 L184.201875 183.894222L184.525714 187.364274L185.173393 182.878863 L185.497232 185.476486L186.144911 177.504088L186.468750 178.588771 L187.116429 185.890408L187.764107 177.432425L188.087946 180.922190 L188.411786 175.921383L189.059464 181.635684L189.707143 179.471609 L190.678661 171.744848L191.002500 174.612936L191.326339 171.552925 L192.297857 167.679445L192.621696 172.158418L193.593214 161.290237 L193.917054 163.025352L194.564732 161.111897L194.888571 154.701433 L195.212411 159.153901L195.860089 160.403739L196.183929 164.229855 L196.507768 162.046729L196.831607 155.709956L197.155446 161.069164 L197.479286 156.444441L198.450804 153.876190L199.098482 156.681346 L199.422321 148.405099L199.746161 151.822849L200.393839 153.050814 L200.717679 150.849695L201.365357 155.597721L202.013036 151.600409 L202.336875 145.932677L203.956071 157.165697L204.279911 151.139564 L204.603750 156.320564L205.251429 201.209116L205.575268 203.177652 L205.899107 227.018421L206.222946 217.461245L207.194464 219.450552 L207.518304 218.249533L207.842143 220.134631L209.137500 219.383520 L211.728214 219.080245L213.023571 219.886701L214.318929 219.837045 L215.614286 218.907196L216.909643 218.418259L217.233482 220.131192 L217.881161 219.102162L219.176518 219.951396L220.471875 219.048669 L223.062589 219.476351L224.357946 217.985242L224.681786 219.392649 L225.977143 220.008109L227.272500 219.240945L228.244018 218.146692 L228.567857 219.703289L228.891696 218.386728L229.215536 219.611341 L229.539375 218.449174L229.863214 221.183285L230.187054 219.839470 L230.834732 218.808192L231.482411 220.151434L232.130089 216.946466 L232.453929 219.680975L233.101607 218.301659L233.425446 219.336157 L234.396964 218.015803L235.368482 219.212368L236.663839 218.215267 L236.987679 216.466702L237.635357 244.790280L238.283036 273.248451 L238.606875 279.373588L239.578393 258.733950L239.902232 260.437621 L240.549911 259.299930L241.197589 266.103678L242.169107 280.762650 L242.492946 273.611659L243.464464 269.320773L243.788304 273.916654 L244.112143 272.584834L244.435982 264.959856L244.759821 271.834561 L245.083661 264.465274L245.407500 268.233487L245.731339 267.119962 L246.379018 262.657880L246.702857 268.467746L247.350536 266.922923 L247.674375 262.616117L248.969732 271.967302L249.293571 268.453987 L249.941250 265.933231L250.265089 263.059807L251.884286 253.704433 L253.179643 238.139206L253.503482 242.273449L253.827321 240.077181 L254.151161 247.452465L254.475000 242.306039L254.798839 248.001951 L256.418036 163.260361L256.741875 174.439799L257.065714 167.257938 L258.361071 179.598529L259.008750 178.337004L259.332589 181.667480 L260.304107 172.239165L260.951786 183.138612L261.275625 185.222029 L261.599464 177.435203L261.923304 179.287800L262.247143 183.374062 L262.894821 171.844382L263.866339 182.319940L264.837857 175.742381 L265.161696 179.579566L265.485536 172.985734L265.809375 174.375148 L266.457054 172.672051L266.780893 164.865645L268.076250 158.560315 L269.695446 207.990550L270.019286 203.137609L270.343125 240.044062 L270.990804 223.456905L272.610000 219.902533L273.905357 219.397853 L275.200714 219.877352L275.524554 218.829536L276.172232 219.981913 L277.467589 219.618529L278.115268 221.234177L278.762946 218.872886 L279.086786 220.202369L279.410625 218.560570L280.058304 220.280691 L280.382143 219.152789L281.353661 220.266226L281.677500 219.252499 L282.325179 220.381680L283.620536 219.226171L283.944375 220.384899 L285.239732 221.316908L285.563571 219.802647L285.887411 221.014294 L286.535089 222.045573L287.506607 219.347667L288.801964 219.794312 L289.449643 222.350260L289.773482 220.206426L290.745000 219.039849 L293.335714 219.944119L294.631071 219.388900L297.221786 219.860859 L298.193304 175.019626L299.488661 193.421409L300.460179 182.189404 L301.107857 190.256617L301.431696 185.976227L301.755536 189.598160 L302.079375 182.386487L303.050893 188.496850L303.374732 183.741283 L303.698571 187.206661L304.346250 180.322430L304.993929 183.930031 L305.317768 179.969189L305.641607 185.611828L306.289286 178.040167 L306.613125 179.437079L307.584643 187.797116L307.908482 185.156628 L308.232321 186.488184L309.203839 179.986080L309.527679 181.455800 L310.175357 175.011732L310.499196 177.373155L310.823036 176.231714 L311.146875 180.568685L311.470714 176.624645L312.442232 175.165156 L312.766071 172.469455L313.737589 174.770064L314.061429 173.764628 L314.385268 165.532084L314.709107 166.655796L316.004464 165.686566 L316.328304 164.486826L316.975982 160.579831L317.299821 162.244561 L317.623661 160.825071L317.947500 156.327841L318.271339 160.350246 L318.919018 155.196367L319.242857 159.167440L320.214375 147.114866 L320.538214 158.043419L320.862054 156.733737L321.185893 162.266744 L321.833571 143.303788L322.481250 153.651456L323.128929 145.394789 L323.776607 143.015374L324.100446 150.213640L324.748125 139.657335 L325.395804 147.633305L326.043482 161.172314L326.691161 205.673536 L327.986518 219.296379L328.634196 217.804432L328.958036 221.405549 L329.281875 219.347182L329.929554 218.125744L330.253393 219.805469 L330.901071 217.869567L331.548750 219.907031L332.196429 218.830021 L332.844107 220.014106L333.815625 218.219280L334.787143 219.659542 L335.110982 218.277977L335.434821 219.808424L336.730179 219.247825 L338.025536 219.968595L339.320893 221.387248L339.644732 219.215676 L340.940089 219.049463L341.263929 220.057765L341.587768 218.812293 L342.235446 220.345165L342.559286 219.269742L343.854643 218.862126 L345.150000 219.234418L346.121518 221.673898L346.445357 218.408469 L347.416875 219.906811L348.712232 220.134896L349.036071 218.691503 L349.683750 220.223802L350.979107 219.897021L351.302946 218.714170 L351.626786 219.781258L352.922143 218.544077L353.245982 219.953777 L354.541339 219.110233L355.512857 234.347400L355.836696 247.994806 L356.484375 251.287092L356.808214 257.495931L357.779732 237.274361 L358.751250 213.087848L359.398929 239.912247L359.722768 246.455452 L360.046607 234.122887L360.370446 248.364497L360.694286 243.503133 L361.341964 259.513418L361.665804 257.676520L361.989643 263.883154 L362.637321 256.174739L362.961161 254.716749L363.285000 248.703273 L364.256518 244.837996L364.580357 251.900964L364.904196 247.020373 L365.551875 266.373085L365.875714 244.113918L366.523393 248.006713 L367.171071 240.164587L367.494911 247.124361L368.466429 294.969774 L369.437946 304.650694L369.761786 295.533592L370.085625 296.919082 L370.409464 301.919360L370.733304 298.520617L371.057143 302.949977 L372.676339 293.764697L373.000179 298.570406L373.647857 288.639792 L373.971696 290.582353L374.943214 292.617391L375.267054 289.239861 L375.590893 292.902983L375.914732 285.963319L376.562411 288.831054 L376.886250 286.923464L377.210089 289.730782L377.857768 285.322105 L378.181607 287.917699L378.505446 293.948329L378.829286 285.011906 L379.476964 289.123393L379.800804 284.936980L380.772321 282.684219 L381.743839 281.589216L382.067679 283.855780L382.391518 278.205600 L382.715357 279.726829L383.363036 285.612548L383.686875 284.582945 L384.010714 279.000987L384.334554 280.995983L384.658393 276.297745 L384.982232 281.958951L385.306071 279.158204L385.953750 280.548368 L386.277589 286.524006L386.601429 281.916923L387.249107 288.784087 L388.544464 295.057885L390.163661 263.605369L391.135179 203.180827 L391.782857 223.507179L392.106696 224.657439L392.430536 221.876229 L393.725893 226.242922L394.373571 225.208557L394.697411 223.937992 L395.992768 223.970979L397.288125 223.053610L398.583482 226.566705 L399.231161 221.432935L400.202679 223.084921L400.850357 218.615960 L401.498036 220.118403L401.821875 218.722373L403.117232 219.719650 L405.707946 219.278033L407.003304 219.333379L408.298661 218.979344 L408.622500 220.413917L408.946339 219.168753L410.241696 220.606942 L411.213214 219.100354L412.508571 219.392825L412.832411 221.250273 L413.156250 220.177276L418.337679 219.052594L419.309196 220.138865 L420.280714 218.767752L420.928393 220.393895L421.576071 218.507341 L421.899911 220.837497L422.223750 219.099560L423.195268 220.172866 L424.490625 219.938431L425.785982 219.116759L427.081339 220.161797 L428.376696 219.157816L429.672054 219.513218L429.995893 218.442162 L430.319732 219.732528L431.615089 220.130971L432.910446 218.895818 L434.205804 219.471191L435.177321 216.330036L436.148839 177.445699 L436.796518 182.181510L437.444196 190.639669L437.768036 186.122021 L438.739554 183.383103L439.063393 180.116660L439.387232 183.048119 L440.034911 184.785174L441.330268 178.723938L441.654107 181.698924 L443.273304 176.606079L443.920982 182.296699L444.244821 173.746459 L444.892500 178.785766L445.540179 172.446479L445.864018 177.931196 L446.511696 173.259022L446.835536 177.820064L447.159375 171.540312 L447.483214 173.532706L447.807054 177.649882L449.102411 165.408207 L449.426250 163.729938L449.750089 167.361793L450.721607 166.320945 L451.045446 161.248166L451.693125 157.995306L452.016964 154.171836 L452.988482 157.431796L453.960000 153.248823L454.607679 155.660167 L455.255357 153.781066L455.579196 144.838821L455.903036 156.251371 L456.226875 145.782958L456.550714 152.679271L457.198393 148.176353 L458.493750 152.363471L459.141429 141.208729L459.465268 155.001048 L459.789107 153.993275L460.760625 212.156500L461.084464 211.050869 L461.732143 218.820848L463.027500 219.537076L463.999018 218.145766 L464.322857 219.784433L464.970536 218.531641L465.294375 220.122636 L466.589732 218.795403L467.885089 219.781831L468.532768 221.528412 L468.856607 219.811070L470.151964 220.201663L470.475804 217.932013 L470.799643 219.744082L473.390357 219.877132L473.714196 218.374424 L474.038036 219.511322L479.219464 219.835060L481.810179 219.482878 L482.134018 222.630515L482.457857 219.955409L483.753214 219.935785 L484.724732 218.930790L486.020089 220.077257L486.343929 218.683874 L487.315446 219.855390L487.639286 221.796496L487.963125 219.538444 L489.258482 220.076860L490.553839 219.975475L491.201518 218.803605 L492.173036 219.933932L492.496875 218.835313L493.144554 221.218654 L493.144554 221.218654"
           id="path20" />
      </g>
      <g
         id="line2d3">
        <path
           style="fill: none; stroke: #ff0000; stroke-width: 1.000000; stroke-linejoin: round; stroke-linecap: square;  opacity: 1.000000"
           clip-path="url(#pc3c5e41676658680e7b95047b5791c8e)"
           d="M73.125000 165.345894L84.783214 165.345850L85.754732 167.283472 L86.402411 170.185428L87.373929 172.491593L88.345446 178.388998 L88.993125 184.531643L89.316964 186.153465L90.612321 197.228739 L90.936161 198.973864L91.907679 207.400536L92.879196 216.231561 L95.146071 243.297936L95.793750 245.870862L96.117589 249.511185 L96.441429 247.296748L98.060625 257.010169L98.384464 258.128854 L98.708304 263.673944L99.355982 266.668643L99.679821 263.712928 L100.003661 268.280939L100.327500 265.942889L100.975179 272.846391 L101.946696 274.892764L102.594375 281.398396L109.071161 281.476761 L142.750446 281.476805L144.045804 282.132220L144.693482 285.867093 L145.988839 270.783305L146.312679 269.760053L146.636518 273.562708 L147.608036 277.046960L147.931875 279.545358L148.579554 275.159348 L148.903393 269.965118L149.551071 265.591015L150.198750 272.782093 L150.522589 273.943202L151.494107 275.305231L152.789464 290.987500 L153.113304 292.197207L153.437143 286.630067L154.408661 284.801152 L155.056339 294.747642L155.380179 298.097037L155.704018 306.599032 L157.323214 315.806318L157.970893 326.426965L158.294732 323.207621 L158.618571 332.334337L159.266250 334.937471L159.913929 349.205365 L160.561607 350.305704L160.885446 353.436143L161.209286 86.253117 L161.533125 90.601510L162.504643 106.249865L164.123839 134.162211 L164.447679 132.498847L164.771518 127.672896L165.419196 130.632050 L165.743036 136.305823L166.390714 139.540691L167.038393 150.649701 L167.686071 159.474993L168.009911 162.049728L168.657589 171.483423 L169.305268 166.997968L169.629107 169.118208L169.952946 177.860592 L170.276786 176.148365L170.924464 188.132099L171.572143 191.347563 L172.219821 188.271279L172.543661 191.507690L172.867500 187.842142 L173.515179 199.197715L173.839018 197.761908L175.458214 204.150939 L176.105893 201.816418L177.401250 210.120668L178.048929 205.263406 L179.020446 202.053367L179.991964 208.070415L180.315804 205.219879 L180.639643 210.745697L181.287321 205.126519L181.611161 211.125531 L181.935000 209.415068L182.258839 213.386229L182.906518 203.390170 L183.230357 207.655919L183.554196 206.242073L183.878036 207.866585 L184.525714 209.216839L185.497232 206.808846L185.821071 210.091121 L186.468750 209.020549L187.116429 207.111284L187.764107 211.943806 L188.087946 207.382499L188.411786 208.518250L188.735625 207.152959 L189.707143 210.917776L190.030982 206.463499L190.678661 211.397231 L191.326339 206.813300L191.974018 209.338378L192.297857 207.235602 L192.621696 209.546266L193.269375 210.892859L194.240893 208.007969 L195.212411 214.168563L196.507768 215.043772L196.831607 217.429096 L197.479286 213.819335L198.450804 216.008106L198.774643 218.626147 L199.422321 216.760805L200.070000 218.528068L201.365357 219.158169 L202.660714 223.489715L203.632232 222.174301L204.603750 223.563451 L205.575268 221.297372L209.461339 221.496131L236.663839 221.496175 L237.959196 220.458458L238.283036 219.431104L239.578393 218.556954 L240.873750 218.368074L242.169107 214.203446L243.788304 201.800674 L244.759821 195.112556L245.407500 190.508031L245.731339 188.712367 L246.702857 178.225608L247.026696 177.134750L248.322054 166.482924 L249.293571 160.949962L250.912768 147.821833L251.560446 144.377755 L252.531964 137.438929L253.827321 124.466649L254.475000 121.483946 L256.418036 117.992813L257.065714 114.220676L257.713393 118.023816 L258.684911 107.215303L259.008750 104.289179L259.332589 106.916040 L260.304107 103.866481L260.951786 96.294423L261.275625 98.589343 L261.599464 95.447791L261.923304 99.655107L262.570982 94.169200 L263.866339 91.982766L264.190179 88.499218L264.514018 90.960395 L265.809375 86.285619L266.133214 85.069606L266.457054 86.239799 L267.752411 84.785205L268.076250 86.956027L269.371607 91.179220 L270.019286 86.977460L271.314643 87.582997L297.221786 87.642973 L298.193304 90.816409L298.840982 95.965613L299.488661 89.973129 L299.812500 86.780156L301.107857 97.781651L301.431696 102.965253 L302.079375 96.263641L302.403214 97.887094L302.727054 95.878824 L303.050893 101.428060L303.374732 99.110252L303.698571 101.423209 L304.993929 101.193271L305.317768 103.709529L305.641607 101.521684 L306.289286 107.652819L306.936964 101.297215L308.232321 104.860274 L308.556161 103.582830L308.880000 105.262334L310.175357 97.468144 L310.499196 99.827715L311.794554 101.134662L312.442232 95.464108 L312.766071 93.349822L313.089911 96.384916L313.737589 91.858007 L314.385268 94.045543L315.032946 90.018287L315.680625 88.293271 L316.004464 89.312290L316.328304 87.150464L317.623661 83.073066 L318.271339 84.904319L318.595179 83.589698L318.919018 357.297891 L319.566696 355.689829L320.538214 350.317567L320.862054 352.692131 L321.185893 350.995472L321.509732 352.991129L322.481250 351.657590 L323.128929 353.598519L324.100446 345.158440L324.424286 349.972881 L325.395804 343.838836L325.719643 338.984925L326.043482 345.223488 L327.015000 344.148550L328.310357 343.290055L355.512857 343.224126 L356.484375 341.840092L358.427411 345.572230L359.398929 350.185135 L360.046607 358.118284L360.370446 85.505710L360.694286 87.975046 L362.961161 105.919645L363.608839 108.050689L364.904196 116.657642 L365.228036 119.646960L365.875714 128.812837L367.171071 140.394379 L367.818750 141.657447L370.409464 143.212413L371.704821 143.219204 L373.000179 142.772206L373.647857 140.562664L374.943214 140.280424 L375.914732 136.811209L378.181607 130.290716L379.476964 125.409066 L380.772321 120.269344L382.715357 109.741792L383.039196 107.164543 L384.010714 105.151114L384.982232 100.061753L385.306071 98.826865 L386.601429 97.375534L387.249107 95.343759L387.896786 96.692954 L389.192143 96.140514L390.163661 97.399480L397.935804 96.985161 L434.205804 96.868120L435.501161 98.590004L436.148839 101.185642 L436.796518 92.961301L437.120357 91.530035L438.091875 90.427756 L438.739554 93.237587L439.063393 91.656911L439.387232 94.625679 L440.034911 93.587256L440.358750 94.894865L441.654107 95.046790 L441.977946 98.077253L442.949464 96.843115L444.244821 96.189906 L444.892500 97.741300L445.540179 96.171472L446.511696 97.310310 L447.159375 92.379181L448.454732 93.290375L450.397768 89.316171 L450.721607 92.108054L451.693125 89.758097L452.988482 89.359742 L453.312321 88.103950L454.283839 87.041713L454.607679 85.656356 L455.255357 88.480873L455.903036 83.332859L457.198393 83.310192 L457.522232 84.501289L457.846071 82.802469L458.169911 357.971034 L458.493750 82.865179L459.465268 357.503441L459.789107 356.343391 L460.436786 349.679616L468.208929 349.803758L492.820714 349.803802 L492.820714 349.803802"
           id="path23" />
      </g>
      <g
         id="matplotlib.axis1">
        <g
           id="xtick1">
          <g
             id="line2d4">
            <defs
               id="defs28">
              <path
                 id="m30e32995789d870ad79a2e54c91cf9c6"
                 d="M0.000000 0.000000L0.000000 -4.000000" />
            </defs>
            <g
               id="g31">
              <use
                 style="fill: none; stroke: #000000; stroke-width: 0.500000; stroke-linejoin: round; stroke-linecap: butt;  opacity: 1.000000"
                 xlink:href="#m30e32995789d870ad79a2e54c91cf9c6"
                 x="73.125000"
                 y="396.900000"
                 id="use33" />
            </g>
          </g>
          <g
             id="line2d5">
            <defs
               id="defs36">
              <path
                 id="m9281cae24120827b11d5ea8a7ad3e96b"
                 d="M0.000000 0.000000L0.000000 4.000000" />
            </defs>
            <g
               id="g39">
              <use
                 style="fill: none; stroke: #000000; stroke-width: 0.500000; stroke-linejoin: round; stroke-linecap: butt;  opacity: 1.000000"
                 xlink:href="#m9281cae24120827b11d5ea8a7ad3e96b"
                 x="73.125000"
                 y="44.100000"
                 id="use41" />
            </g>
          </g>
          <g
             id="text1">
            <defs
               id="defs44">
              <path
                 id="c_7a2040fe3b94fcd41d0a72c84e93b115"
                 d="M31.781250 -66.406250q-7.609375 0.000000 -11.453125 7.500000q-3.828125 7.484375 -3.828125 22.531250q0.000000 14.984375 3.828125 22.484375q3.843750 7.500000 11.453125 7.500000q7.671875 0.000000 11.500000 -7.500000q3.843750 -7.500000 3.843750 -22.484375q0.000000 -15.046875 -3.843750 -22.531250q-3.828125 -7.500000 -11.500000 -7.500000M31.781250 -74.218750q12.265625 0.000000 18.734375 9.703125q6.468750 9.687500 6.468750 28.140625q0.000000 18.406250 -6.468750 28.109375q-6.468750 9.687500 -18.734375 9.687500q-12.250000 0.000000 -18.718750 -9.687500q-6.468750 -9.703125 -6.468750 -28.109375q0.000000 -18.453125 6.468750 -28.140625q6.468750 -9.703125 18.718750 -9.703125" />
            </defs>
            <g
               style="fill: #000000; opacity: 1.000000"
               transform="translate(70.101562,409.806250)scale(0.120000)"
               id="g47">
              <use
                 xlink:href="#c_7a2040fe3b94fcd41d0a72c84e93b115"
                 id="use49" />
            </g>
          </g>
        </g>
        <g
           id="xtick2">
          <g
             id="line2d6">
            <g
               id="g53">
              <use
                 style="fill: none; stroke: #000000; stroke-width: 0.500000; stroke-linejoin: round; stroke-linecap: butt;  opacity: 1.000000"
                 xlink:href="#m30e32995789d870ad79a2e54c91cf9c6"
                 x="137.892857"
                 y="396.900000"
                 id="use55" />
            </g>
          </g>
          <g
             id="line2d7">
            <g
               id="g58">
              <use
                 style="fill: none; stroke: #000000; stroke-width: 0.500000; stroke-linejoin: round; stroke-linecap: butt;  opacity: 1.000000"
                 xlink:href="#m9281cae24120827b11d5ea8a7ad3e96b"
                 x="137.892857"
                 y="44.100000"
                 id="use60" />
            </g>
          </g>
          <g
             id="text2">
            <defs
               id="defs63">
              <path
                 id="c_ed3f3ed3ebfbd18bcb9c012009a68ad1"
                 d="M19.187500 -8.296875l34.421875 0.000000l0.000000 8.296875l-46.281250 0.000000l0.000000 -8.296875q5.609375 -5.812500 15.296875 -15.593750q9.703125 -9.796875 12.187500 -12.640625q4.734375 -5.312500 6.609375 -9.000000q1.890625 -3.687500 1.890625 -7.250000q0.000000 -5.812500 -4.078125 -9.468750q-4.078125 -3.671875 -10.625000 -3.671875q-4.640625 0.000000 -9.796875 1.609375q-5.140625 1.609375 -11.000000 4.890625l0.000000 -9.968750q5.953125 -2.390625 11.125000 -3.609375q5.187500 -1.218750 9.484375 -1.218750q11.328125 0.000000 18.062500 5.671875q6.734375 5.656250 6.734375 15.125000q0.000000 4.500000 -1.687500 8.531250q-1.671875 4.015625 -6.125000 9.484375q-1.218750 1.421875 -7.765625 8.187500q-6.531250 6.765625 -18.453125 18.921875" />
            </defs>
            <g
               style="fill: #000000; opacity: 1.000000"
               transform="translate(127.267857,409.806250)scale(0.120000)"
               id="g66">
              <use
                 xlink:href="#c_ed3f3ed3ebfbd18bcb9c012009a68ad1"
                 id="use68" />
              <use
                 xlink:href="#c_7a2040fe3b94fcd41d0a72c84e93b115"
                 x="63.623047"
                 id="use70" />
              <use
                 xlink:href="#c_7a2040fe3b94fcd41d0a72c84e93b115"
                 x="127.246094"
                 id="use72" />
            </g>
          </g>
        </g>
        <g
           id="xtick3">
          <g
             id="line2d8">
            <g
               id="g76">
              <use
                 style="fill: none; stroke: #000000; stroke-width: 0.500000; stroke-linejoin: round; stroke-linecap: butt;  opacity: 1.000000"
                 xlink:href="#m30e32995789d870ad79a2e54c91cf9c6"
                 x="202.660714"
                 y="396.900000"
                 id="use78" />
            </g>
          </g>
          <g
             id="line2d9">
            <g
               id="g81">
              <use
                 style="fill: none; stroke: #000000; stroke-width: 0.500000; stroke-linejoin: round; stroke-linecap: butt;  opacity: 1.000000"
                 xlink:href="#m9281cae24120827b11d5ea8a7ad3e96b"
                 x="202.660714"
                 y="44.100000"
                 id="use83" />
            </g>
          </g>
          <g
             id="text3">
            <defs
               id="defs86">
              <path
                 id="c_a0416418d96557a09b8c1332d34883ba"
                 d="M37.796875 -64.312500l-24.906250 38.921875l24.906250 0.000000zM35.203125 -72.906250l12.406250 0.000000l0.000000 47.515625l10.406250 0.000000l0.000000 8.203125l-10.406250 0.000000l0.000000 17.187500l-9.812500 0.000000l0.000000 -17.187500l-32.906250 0.000000l0.000000 -9.515625z" />
            </defs>
            <g
               style="fill: #000000; opacity: 1.000000"
               transform="translate(191.895089,409.806250)scale(0.120000)"
               id="g89">
              <use
                 xlink:href="#c_a0416418d96557a09b8c1332d34883ba"
                 id="use91" />
              <use
                 xlink:href="#c_7a2040fe3b94fcd41d0a72c84e93b115"
                 x="63.623047"
                 id="use93" />
              <use
                 xlink:href="#c_7a2040fe3b94fcd41d0a72c84e93b115"
                 x="127.246094"
                 id="use95" />
            </g>
          </g>
        </g>
        <g
           id="xtick4">
          <g
             id="line2d10">
            <g
               id="g99">
              <use
                 style="fill: none; stroke: #000000; stroke-width: 0.500000; stroke-linejoin: round; stroke-linecap: butt;  opacity: 1.000000"
                 xlink:href="#m30e32995789d870ad79a2e54c91cf9c6"
                 x="267.428571"
                 y="396.900000"
                 id="use101" />
            </g>
          </g>
          <g
             id="line2d11">
            <g
               id="g104">
              <use
                 style="fill: none; stroke: #000000; stroke-width: 0.500000; stroke-linejoin: round; stroke-linecap: butt;  opacity: 1.000000"
                 xlink:href="#m9281cae24120827b11d5ea8a7ad3e96b"
                 x="267.428571"
                 y="44.100000"
                 id="use106" />
            </g>
          </g>
          <g
             id="text4">
            <defs
               id="defs109">
              <path
                 id="c_cc8d6d580d1b10c8632f7a42cd53db8a"
                 d="M33.015625 -40.375000q-6.640625 0.000000 -10.531250 4.546875q-3.875000 4.531250 -3.875000 12.437500q0.000000 7.859375 3.875000 12.437500q3.890625 4.562500 10.531250 4.562500q6.640625 0.000000 10.515625 -4.562500q3.875000 -4.578125 3.875000 -12.437500q0.000000 -7.906250 -3.875000 -12.437500q-3.875000 -4.546875 -10.515625 -4.546875M52.593750 -71.296875l0.000000 8.984375q-3.718750 -1.750000 -7.500000 -2.671875q-3.781250 -0.937500 -7.500000 -0.937500q-9.765625 0.000000 -14.921875 6.593750q-5.140625 6.593750 -5.875000 19.921875q2.875000 -4.250000 7.218750 -6.515625q4.359375 -2.265625 9.578125 -2.265625q10.984375 0.000000 17.359375 6.671875q6.375000 6.656250 6.375000 18.125000q0.000000 11.234375 -6.640625 18.031250q-6.640625 6.781250 -17.671875 6.781250q-12.656250 0.000000 -19.343750 -9.687500q-6.687500 -9.703125 -6.687500 -28.109375q0.000000 -17.281250 8.203125 -27.562500q8.203125 -10.281250 22.015625 -10.281250q3.718750 0.000000 7.500000 0.734375q3.781250 0.734375 7.890625 2.187500" />
            </defs>
            <g
               style="fill: #000000; opacity: 1.000000"
               transform="translate(256.787946,409.806250)scale(0.120000)"
               id="g112">
              <use
                 xlink:href="#c_cc8d6d580d1b10c8632f7a42cd53db8a"
                 id="use114" />
              <use
                 xlink:href="#c_7a2040fe3b94fcd41d0a72c84e93b115"
                 x="63.623047"
                 id="use116" />
              <use
                 xlink:href="#c_7a2040fe3b94fcd41d0a72c84e93b115"
                 x="127.246094"
                 id="use118" />
            </g>
          </g>
        </g>
        <g
           id="xtick5">
          <g
             id="line2d12">
            <g
               id="g122">
              <use
                 style="fill: none; stroke: #000000; stroke-width: 0.500000; stroke-linejoin: round; stroke-linecap: butt;  opacity: 1.000000"
                 xlink:href="#m30e32995789d870ad79a2e54c91cf9c6"
                 x="332.196429"
                 y="396.900000"
                 id="use124" />
            </g>
          </g>
          <g
             id="line2d13">
            <g
               id="g127">
              <use
                 style="fill: none; stroke: #000000; stroke-width: 0.500000; stroke-linejoin: round; stroke-linecap: butt;  opacity: 1.000000"
                 xlink:href="#m9281cae24120827b11d5ea8a7ad3e96b"
                 x="332.196429"
                 y="44.100000"
                 id="use129" />
            </g>
          </g>
          <g
             id="text5">
            <defs
               id="defs132">
              <path
                 id="c_bef35738d52871942e50b9de9b122bab"
                 d="M31.781250 -34.625000q-7.031250 0.000000 -11.062500 3.765625q-4.015625 3.765625 -4.015625 10.343750q0.000000 6.593750 4.015625 10.359375q4.031250 3.765625 11.062500 3.765625q7.031250 0.000000 11.078125 -3.781250q4.062500 -3.796875 4.062500 -10.343750q0.000000 -6.578125 -4.031250 -10.343750q-4.015625 -3.765625 -11.109375 -3.765625M21.921875 -38.812500q-6.343750 -1.562500 -9.890625 -5.906250q-3.531250 -4.359375 -3.531250 -10.609375q0.000000 -8.734375 6.218750 -13.812500q6.234375 -5.078125 17.062500 -5.078125q10.890625 0.000000 17.093750 5.078125q6.203125 5.078125 6.203125 13.812500q0.000000 6.250000 -3.546875 10.609375q-3.531250 4.343750 -9.828125 5.906250q7.125000 1.656250 11.093750 6.500000q3.984375 4.828125 3.984375 11.796875q0.000000 10.609375 -6.468750 16.281250q-6.468750 5.656250 -18.531250 5.656250q-12.046875 0.000000 -18.531250 -5.656250q-6.468750 -5.671875 -6.468750 -16.281250q0.000000 -6.968750 4.000000 -11.796875q4.015625 -4.843750 11.140625 -6.500000M18.312500 -54.390625q0.000000 5.656250 3.531250 8.828125q3.546875 3.171875 9.937500 3.171875q6.359375 0.000000 9.937500 -3.171875q3.593750 -3.171875 3.593750 -8.828125q0.000000 -5.671875 -3.593750 -8.843750q-3.578125 -3.171875 -9.937500 -3.171875q-6.390625 0.000000 -9.937500 3.171875q-3.531250 3.171875 -3.531250 8.843750" />
            </defs>
            <g
               style="fill: #000000; opacity: 1.000000"
               transform="translate(321.540179,409.806250)scale(0.120000)"
               id="g135">
              <use
                 xlink:href="#c_bef35738d52871942e50b9de9b122bab"
                 id="use137" />
              <use
                 xlink:href="#c_7a2040fe3b94fcd41d0a72c84e93b115"
                 x="63.623047"
                 id="use139" />
              <use
                 xlink:href="#c_7a2040fe3b94fcd41d0a72c84e93b115"
                 x="127.246094"
                 id="use141" />
            </g>
          </g>
        </g>
        <g
           id="xtick6">
          <g
             id="line2d14">
            <g
               id="g145">
              <use
                 style="fill: none; stroke: #000000; stroke-width: 0.500000; stroke-linejoin: round; stroke-linecap: butt;  opacity: 1.000000"
                 xlink:href="#m30e32995789d870ad79a2e54c91cf9c6"
                 x="396.964286"
                 y="396.900000"
                 id="use147" />
            </g>
          </g>
          <g
             id="line2d15">
            <g
               id="g150">
              <use
                 style="fill: none; stroke: #000000; stroke-width: 0.500000; stroke-linejoin: round; stroke-linecap: butt;  opacity: 1.000000"
                 xlink:href="#m9281cae24120827b11d5ea8a7ad3e96b"
                 x="396.964286"
                 y="44.100000"
                 id="use152" />
            </g>
          </g>
          <g
             id="text6">
            <defs
               id="defs155">
              <path
                 id="c_42baa63129a918535c52adb20d687ea7"
                 d="M12.406250 -8.296875l16.109375 0.000000l0.000000 -55.625000l-17.531250 3.515625l0.000000 -8.984375l17.437500 -3.515625l9.859375 0.000000l0.000000 64.609375l16.109375 0.000000l0.000000 8.296875l-41.984375 0.000000z" />
            </defs>
            <g
               style="fill: #000000; opacity: 1.000000"
               transform="translate(382.737723,409.806250)scale(0.120000)"
               id="g158">
              <use
                 xlink:href="#c_42baa63129a918535c52adb20d687ea7"
                 id="use160" />
              <use
                 xlink:href="#c_7a2040fe3b94fcd41d0a72c84e93b115"
                 x="63.623047"
                 id="use162" />
              <use
                 xlink:href="#c_7a2040fe3b94fcd41d0a72c84e93b115"
                 x="127.246094"
                 id="use164" />
              <use
                 xlink:href="#c_7a2040fe3b94fcd41d0a72c84e93b115"
                 x="190.869141"
                 id="use166" />
            </g>
          </g>
        </g>
        <g
           id="xtick7">
          <g
             id="line2d16">
            <g
               id="g170">
              <use
                 style="fill: none; stroke: #000000; stroke-width: 0.500000; stroke-linejoin: round; stroke-linecap: butt;  opacity: 1.000000"
                 xlink:href="#m30e32995789d870ad79a2e54c91cf9c6"
                 x="461.732143"
                 y="396.900000"
                 id="use172" />
            </g>
          </g>
          <g
             id="line2d17">
            <g
               id="g175">
              <use
                 style="fill: none; stroke: #000000; stroke-width: 0.500000; stroke-linejoin: round; stroke-linecap: butt;  opacity: 1.000000"
                 xlink:href="#m9281cae24120827b11d5ea8a7ad3e96b"
                 x="461.732143"
                 y="44.100000"
                 id="use177" />
            </g>
          </g>
          <g
             id="text7">
            <g
               style="fill: #000000; opacity: 1.000000"
               transform="translate(447.505580,409.806250)scale(0.120000)"
               id="g180">
              <use
                 xlink:href="#c_42baa63129a918535c52adb20d687ea7"
                 id="use182" />
              <use
                 xlink:href="#c_ed3f3ed3ebfbd18bcb9c012009a68ad1"
                 x="63.623047"
                 id="use184" />
              <use
                 xlink:href="#c_7a2040fe3b94fcd41d0a72c84e93b115"
                 x="127.246094"
                 id="use186" />
              <use
                 xlink:href="#c_7a2040fe3b94fcd41d0a72c84e93b115"
                 x="190.869141"
                 id="use188" />
            </g>
          </g>
        </g>
        <g
           id="xtick8">
          <g
             id="line2d18">
            <g
               id="g192">
              <use
                 style="fill: none; stroke: #000000; stroke-width: 0.500000; stroke-linejoin: round; stroke-linecap: butt;  opacity: 1.000000"
                 xlink:href="#m30e32995789d870ad79a2e54c91cf9c6"
                 x="526.500000"
                 y="396.900000"
                 id="use194" />
            </g>
          </g>
          <g
             id="line2d19">
            <g
               id="g197">
              <use
                 style="fill: none; stroke: #000000; stroke-width: 0.500000; stroke-linejoin: round; stroke-linecap: butt;  opacity: 1.000000"
                 xlink:href="#m9281cae24120827b11d5ea8a7ad3e96b"
                 x="526.500000"
                 y="44.100000"
                 id="use199" />
            </g>
          </g>
          <g
             id="text8">
            <g
               style="fill: #000000; opacity: 1.000000"
               transform="translate(512.273438,409.806250)scale(0.120000)"
               id="g202">
              <use
                 xlink:href="#c_42baa63129a918535c52adb20d687ea7"
                 id="use204" />
              <use
                 xlink:href="#c_a0416418d96557a09b8c1332d34883ba"
                 x="63.623047"
                 id="use206" />
              <use
                 xlink:href="#c_7a2040fe3b94fcd41d0a72c84e93b115"
                 x="127.246094"
                 id="use208" />
              <use
                 xlink:href="#c_7a2040fe3b94fcd41d0a72c84e93b115"
                 x="190.869141"
                 id="use210" />
            </g>
          </g>
        </g>
        <g
           id="text9">
          <defs
             id="defs213">
            <path
               id="c_9e4b30cbdf32072672ded72e9074c4c9"
               d="M-0.296875 -72.906250l61.671875 0.000000l0.000000 8.312500l-25.875000 0.000000l0.000000 64.593750l-9.906250 0.000000l0.000000 -64.593750l-25.890625 0.000000z" />
            <path
               id="c_6a63bda47b2f3da1cec6aadd80692cfe"
               d="M9.421875 -54.687500l8.984375 0.000000l0.000000 54.687500l-8.984375 0.000000zM9.421875 -75.984375l8.984375 0.000000l0.000000 11.390625l-8.984375 0.000000z" />
            <path
               id="c_4653c6dfde66c7610eae0911760d3490"
               d="M52.000000 -44.187500q3.375000 -6.062500 8.062500 -8.937500q4.687500 -2.875000 11.031250 -2.875000q8.546875 0.000000 13.187500 5.984375q4.640625 5.968750 4.640625 17.000000l0.000000 33.015625l-9.031250 0.000000l0.000000 -32.718750q0.000000 -7.859375 -2.796875 -11.656250q-2.781250 -3.812500 -8.484375 -3.812500q-6.984375 0.000000 -11.046875 4.640625q-4.046875 4.625000 -4.046875 12.640625l0.000000 30.906250l-9.031250 0.000000l0.000000 -32.718750q0.000000 -7.906250 -2.781250 -11.687500q-2.781250 -3.781250 -8.593750 -3.781250q-6.890625 0.000000 -10.953125 4.656250q-4.046875 4.656250 -4.046875 12.625000l0.000000 30.906250l-9.031250 0.000000l0.000000 -54.687500l9.031250 0.000000l0.000000 8.500000q3.078125 -5.031250 7.375000 -7.421875q4.296875 -2.390625 10.203125 -2.390625q5.968750 0.000000 10.140625 3.031250q4.171875 3.015625 6.171875 8.781250" />
            <path
               id="c_0bce5afba2dc6b9024b26277c38ad8e8"
               d="M56.203125 -29.593750l0.000000 4.390625l-41.312500 0.000000q0.593750 9.281250 5.593750 14.140625q5.000000 4.859375 13.937500 4.859375q5.171875 0.000000 10.031250 -1.265625q4.859375 -1.265625 9.656250 -3.812500l0.000000 8.500000q-4.843750 2.046875 -9.921875 3.125000q-5.078125 1.078125 -10.296875 1.078125q-13.093750 0.000000 -20.734375 -7.609375q-7.640625 -7.625000 -7.640625 -20.625000q0.000000 -13.421875 7.250000 -21.296875q7.250000 -7.890625 19.562500 -7.890625q11.031250 0.000000 17.453125 7.109375q6.421875 7.093750 6.421875 19.296875M47.218750 -32.234375q-0.093750 -7.359375 -4.125000 -11.750000q-4.031250 -4.406250 -10.671875 -4.406250q-7.515625 0.000000 -12.031250 4.250000q-4.515625 4.250000 -5.203125 11.968750z" />
            <path
               id="c_d41d8cd98f00b204e9800998ecf8427e"
               d="" />
            <path
               id="c_7efa9804c2b4c09a4b614b91fdebee3d"
               d="M31.000000 -75.875000q-6.531250 11.218750 -9.718750 22.218750q-3.171875 10.984375 -3.171875 22.265625q0.000000 11.265625 3.203125 22.328125q3.203125 11.062500 9.687500 22.250000l-7.812500 0.000000q-7.312500 -11.484375 -10.953125 -22.562500q-3.640625 -11.078125 -3.640625 -22.015625q0.000000 -10.890625 3.609375 -21.921875q3.625000 -11.046875 10.984375 -22.562500z" />
            <path
               id="c_9c6d5cbc59c6231647eb409cc6b37bb3"
               d="M25.390625 -72.906250l8.296875 0.000000l-25.390625 82.187500l-8.296875 0.000000z" />
            <path
               id="c_0f8c41144cfbf448378cb6fd1cc8e549"
               d="M18.312500 -70.218750l0.000000 15.531250l18.500000 0.000000l0.000000 6.984375l-18.500000 0.000000l0.000000 29.687500q0.000000 6.687500 1.828125 8.593750q1.828125 1.906250 7.453125 1.906250l9.218750 0.000000l0.000000 7.515625l-9.218750 0.000000q-10.406250 0.000000 -14.359375 -3.875000q-3.953125 -3.890625 -3.953125 -14.140625l0.000000 -29.687500l-6.593750 0.000000l0.000000 -6.984375l6.593750 0.000000l0.000000 -15.531250z" />
            <path
               id="c_74d54c94aa871ec39e2bc6697dde6c00"
               d="M54.890625 -33.015625l0.000000 33.015625l-8.984375 0.000000l0.000000 -32.718750q0.000000 -7.765625 -3.031250 -11.609375q-3.031250 -3.859375 -9.078125 -3.859375q-7.281250 0.000000 -11.484375 4.640625q-4.203125 4.625000 -4.203125 12.640625l0.000000 30.906250l-9.031250 0.000000l0.000000 -75.984375l9.031250 0.000000l0.000000 29.796875q3.234375 -4.937500 7.593750 -7.375000q4.375000 -2.437500 10.093750 -2.437500q9.421875 0.000000 14.250000 5.828125q4.843750 5.828125 4.843750 17.156250" />
            <path
               id="c_8e0810ad13fe20a2a87a2619799b154d"
               d="M44.281250 -53.078125l0.000000 8.500000q-3.796875 -1.953125 -7.906250 -2.921875q-4.093750 -0.984375 -8.500000 -0.984375q-6.687500 0.000000 -10.031250 2.046875q-3.343750 2.046875 -3.343750 6.156250q0.000000 3.125000 2.390625 4.906250q2.390625 1.781250 9.625000 3.390625l3.078125 0.687500q9.562500 2.046875 13.593750 5.781250q4.031250 3.734375 4.031250 10.421875q0.000000 7.625000 -6.031250 12.078125q-6.031250 4.437500 -16.578125 4.437500q-4.390625 0.000000 -9.156250 -0.859375q-4.765625 -0.859375 -10.031250 -2.562500l0.000000 -9.281250q4.984375 2.593750 9.812500 3.890625q4.828125 1.281250 9.578125 1.281250q6.343750 0.000000 9.750000 -2.171875q3.421875 -2.171875 3.421875 -6.125000q0.000000 -3.656250 -2.468750 -5.609375q-2.453125 -1.953125 -10.812500 -3.765625l-3.125000 -0.734375q-8.343750 -1.750000 -12.062500 -5.390625q-3.703125 -3.640625 -3.703125 -9.984375q0.000000 -7.718750 5.468750 -11.906250q5.468750 -4.203125 15.531250 -4.203125q4.968750 0.000000 9.359375 0.734375q4.406250 0.718750 8.109375 2.187500" />
            <path
               id="c_e96974be642f6eac0427d72f9cec6c19"
               d="M8.015625 -75.875000l7.812500 0.000000q7.312500 11.515625 10.953125 22.562500q3.640625 11.031250 3.640625 21.921875q0.000000 10.937500 -3.640625 22.015625q-3.640625 11.078125 -10.953125 22.562500l-7.812500 0.000000q6.484375 -11.187500 9.687500 -22.250000q3.203125 -11.062500 3.203125 -22.328125q0.000000 -11.281250 -3.203125 -22.265625q-3.203125 -11.000000 -9.687500 -22.218750" />
          </defs>
          <g
             style="fill: #000000; opacity: 1.000000"
             transform="translate(254.367188,424.103125)scale(0.120000)"
             id="g226">
            <use
               xlink:href="#c_9e4b30cbdf32072672ded72e9074c4c9"
               id="use228" />
            <use
               xlink:href="#c_6a63bda47b2f3da1cec6aadd80692cfe"
               x="57.958984"
               id="use230" />
            <use
               xlink:href="#c_4653c6dfde66c7610eae0911760d3490"
               x="85.742187"
               id="use232" />
            <use
               xlink:href="#c_0bce5afba2dc6b9024b26277c38ad8e8"
               x="183.154297"
               id="use234" />
            <use
               xlink:href="#c_d41d8cd98f00b204e9800998ecf8427e"
               x="244.677734"
               id="use236" />
            <use
               xlink:href="#c_7efa9804c2b4c09a4b614b91fdebee3d"
               x="276.464844"
               id="use238" />
            <use
               xlink:href="#c_42baa63129a918535c52adb20d687ea7"
               x="315.478516"
               id="use240" />
            <use
               xlink:href="#c_9c6d5cbc59c6231647eb409cc6b37bb3"
               x="379.101562"
               id="use242" />
            <use
               xlink:href="#c_42baa63129a918535c52adb20d687ea7"
               x="412.792969"
               id="use244" />
            <use
               xlink:href="#c_7a2040fe3b94fcd41d0a72c84e93b115"
               x="476.416016"
               id="use246" />
            <use
               xlink:href="#c_0f8c41144cfbf448378cb6fd1cc8e549"
               x="540.039062"
               id="use248" />
            <use
               xlink:href="#c_74d54c94aa871ec39e2bc6697dde6c00"
               x="579.248047"
               id="use250" />
            <use
               xlink:href="#c_d41d8cd98f00b204e9800998ecf8427e"
               x="642.626953"
               id="use252" />
            <use
               xlink:href="#c_8e0810ad13fe20a2a87a2619799b154d"
               x="674.414062"
               id="use254" />
            <use
               xlink:href="#c_e96974be642f6eac0427d72f9cec6c19"
               x="726.513672"
               id="use256" />
          </g>
        </g>
      </g>
      <g
         id="matplotlib.axis2">
        <g
           id="ytick1">
          <g
             id="line2d20">
            <defs
               id="defs261">
              <path
                 id="m3400efa6b1638b3fea9e19e898273957"
                 d="M0.000000 0.000000L4.000000 0.000000" />
            </defs>
            <g
               id="g264">
              <use
                 style="fill: none; stroke: #000000; stroke-width: 0.500000; stroke-linejoin: round; stroke-linecap: butt;  opacity: 1.000000"
                 xlink:href="#m3400efa6b1638b3fea9e19e898273957"
                 x="73.125000"
                 y="396.900000"
                 id="use266" />
            </g>
          </g>
          <g
             id="line2d21">
            <defs
               id="defs269">
              <path
                 id="m20b58b2501143cb5e0a5e8f1ef6f1643"
                 d="M0.000000 0.000000L-4.000000 0.000000" />
            </defs>
            <g
               id="g272">
              <use
                 style="fill: none; stroke: #000000; stroke-width: 0.500000; stroke-linejoin: round; stroke-linecap: butt;  opacity: 1.000000"
                 xlink:href="#m20b58b2501143cb5e0a5e8f1ef6f1643"
                 x="526.500000"
                 y="396.900000"
                 id="use274" />
            </g>
          </g>
          <g
             id="text10">
            <defs
               id="defs277">
              <path
                 id="c_6a8d56c819c37117ab4cf023bec22a5a"
                 d="M10.593750 -35.500000l62.593750 0.000000l0.000000 8.296875l-62.593750 0.000000z" />
            </defs>
            <g
               style="fill: #000000; opacity: 1.000000"
               transform="translate(53.359375,401.275000)scale(0.120000)"
               id="g280">
              <use
                 xlink:href="#c_6a8d56c819c37117ab4cf023bec22a5a"
                 id="use282" />
              <use
                 xlink:href="#c_a0416418d96557a09b8c1332d34883ba"
                 x="83.789062"
                 id="use284" />
            </g>
          </g>
        </g>
        <g
           id="ytick2">
          <g
             id="line2d22">
            <g
               id="g288">
              <use
                 style="fill: none; stroke: #000000; stroke-width: 0.500000; stroke-linejoin: round; stroke-linecap: butt;  opacity: 1.000000"
                 xlink:href="#m3400efa6b1638b3fea9e19e898273957"
                 x="73.125000"
                 y="352.800000"
                 id="use290" />
            </g>
          </g>
          <g
             id="line2d23">
            <g
               id="g293">
              <use
                 style="fill: none; stroke: #000000; stroke-width: 0.500000; stroke-linejoin: round; stroke-linecap: butt;  opacity: 1.000000"
                 xlink:href="#m20b58b2501143cb5e0a5e8f1ef6f1643"
                 x="526.500000"
                 y="352.800000"
                 id="use295" />
            </g>
          </g>
          <g
             id="text11">
            <defs
               id="defs298">
              <path
                 id="c_3dcfa38a02242cb63ec6726c6e70be7a"
                 d="M40.578125 -39.312500q7.078125 1.515625 11.046875 6.312500q3.984375 4.781250 3.984375 11.812500q0.000000 10.781250 -7.421875 16.703125q-7.421875 5.906250 -21.093750 5.906250q-4.578125 0.000000 -9.437500 -0.906250q-4.859375 -0.906250 -10.031250 -2.718750l0.000000 -9.515625q4.093750 2.390625 8.968750 3.609375q4.890625 1.218750 10.218750 1.218750q9.265625 0.000000 14.125000 -3.656250q4.859375 -3.656250 4.859375 -10.640625q0.000000 -6.453125 -4.515625 -10.078125q-4.515625 -3.640625 -12.562500 -3.640625l-8.500000 0.000000l0.000000 -8.109375l8.890625 0.000000q7.265625 0.000000 11.125000 -2.906250q3.859375 -2.906250 3.859375 -8.375000q0.000000 -5.609375 -3.984375 -8.609375q-3.968750 -3.015625 -11.390625 -3.015625q-4.062500 0.000000 -8.703125 0.890625q-4.640625 0.875000 -10.203125 2.718750l0.000000 -8.781250q5.625000 -1.562500 10.531250 -2.343750q4.906250 -0.781250 9.250000 -0.781250q11.234375 0.000000 17.765625 5.109375q6.546875 5.093750 6.546875 13.781250q0.000000 6.062500 -3.468750 10.234375q-3.468750 4.171875 -9.859375 5.781250" />
            </defs>
            <g
               style="fill: #000000; opacity: 1.000000"
               transform="translate(53.656250,357.167188)scale(0.120000)"
               id="g301">
              <use
                 xlink:href="#c_6a8d56c819c37117ab4cf023bec22a5a"
                 id="use303" />
              <use
                 xlink:href="#c_3dcfa38a02242cb63ec6726c6e70be7a"
                 x="83.789062"
                 id="use305" />
            </g>
          </g>
        </g>
        <g
           id="ytick3">
          <g
             id="line2d24">
            <g
               id="g309">
              <use
                 style="fill: none; stroke: #000000; stroke-width: 0.500000; stroke-linejoin: round; stroke-linecap: butt;  opacity: 1.000000"
                 xlink:href="#m3400efa6b1638b3fea9e19e898273957"
                 x="73.125000"
                 y="308.700000"
                 id="use311" />
            </g>
          </g>
          <g
             id="line2d25">
            <g
               id="g314">
              <use
                 style="fill: none; stroke: #000000; stroke-width: 0.500000; stroke-linejoin: round; stroke-linecap: butt;  opacity: 1.000000"
                 xlink:href="#m20b58b2501143cb5e0a5e8f1ef6f1643"
                 x="526.500000"
                 y="308.700000"
                 id="use316" />
            </g>
          </g>
          <g
             id="text12">
            <g
               style="fill: #000000; opacity: 1.000000"
               transform="translate(53.890625,313.153125)scale(0.120000)"
               id="g319">
              <use
                 xlink:href="#c_6a8d56c819c37117ab4cf023bec22a5a"
                 id="use321" />
              <use
                 xlink:href="#c_ed3f3ed3ebfbd18bcb9c012009a68ad1"
                 x="83.789062"
                 id="use323" />
            </g>
          </g>
        </g>
        <g
           id="ytick4">
          <g
             id="line2d26">
            <g
               id="g327">
              <use
                 style="fill: none; stroke: #000000; stroke-width: 0.500000; stroke-linejoin: round; stroke-linecap: butt;  opacity: 1.000000"
                 xlink:href="#m3400efa6b1638b3fea9e19e898273957"
                 x="73.125000"
                 y="264.600000"
                 id="use329" />
            </g>
          </g>
          <g
             id="line2d27">
            <g
               id="g332">
              <use
                 style="fill: none; stroke: #000000; stroke-width: 0.500000; stroke-linejoin: round; stroke-linecap: butt;  opacity: 1.000000"
                 xlink:href="#m20b58b2501143cb5e0a5e8f1ef6f1643"
                 x="526.500000"
                 y="264.600000"
                 id="use334" />
            </g>
          </g>
          <g
             id="text13">
            <g
               style="fill: #000000; opacity: 1.000000"
               transform="translate(53.796875,268.975000)scale(0.120000)"
               id="g337">
              <use
                 xlink:href="#c_6a8d56c819c37117ab4cf023bec22a5a"
                 id="use339" />
              <use
                 xlink:href="#c_42baa63129a918535c52adb20d687ea7"
                 x="83.789062"
                 id="use341" />
            </g>
          </g>
        </g>
        <g
           id="ytick5">
          <g
             id="line2d28">
            <g
               id="g345">
              <use
                 style="fill: none; stroke: #000000; stroke-width: 0.500000; stroke-linejoin: round; stroke-linecap: butt;  opacity: 1.000000"
                 xlink:href="#m3400efa6b1638b3fea9e19e898273957"
                 x="73.125000"
                 y="220.500000"
                 id="use347" />
            </g>
          </g>
          <g
             id="line2d29">
            <g
               id="g350">
              <use
                 style="fill: none; stroke: #000000; stroke-width: 0.500000; stroke-linejoin: round; stroke-linecap: butt;  opacity: 1.000000"
                 xlink:href="#m20b58b2501143cb5e0a5e8f1ef6f1643"
                 x="526.500000"
                 y="220.500000"
                 id="use352" />
            </g>
          </g>
          <g
             id="text14">
            <g
               style="fill: #000000; opacity: 1.000000"
               transform="translate(63.078125,224.867187)scale(0.120000)"
               id="g355">
              <use
                 xlink:href="#c_7a2040fe3b94fcd41d0a72c84e93b115"
                 id="use357" />
            </g>
          </g>
        </g>
        <g
           id="ytick6">
          <g
             id="line2d30">
            <g
               id="g361">
              <use
                 style="fill: none; stroke: #000000; stroke-width: 0.500000; stroke-linejoin: round; stroke-linecap: butt;  opacity: 1.000000"
                 xlink:href="#m3400efa6b1638b3fea9e19e898273957"
                 x="73.125000"
                 y="176.400000"
                 id="use363" />
            </g>
          </g>
          <g
             id="line2d31">
            <g
               id="g366">
              <use
                 style="fill: none; stroke: #000000; stroke-width: 0.500000; stroke-linejoin: round; stroke-linecap: butt;  opacity: 1.000000"
                 xlink:href="#m20b58b2501143cb5e0a5e8f1ef6f1643"
                 x="526.500000"
                 y="176.400000"
                 id="use368" />
            </g>
          </g>
          <g
             id="text15">
            <g
               style="fill: #000000; opacity: 1.000000"
               transform="translate(63.906250,180.775000)scale(0.120000)"
               id="g371">
              <use
                 xlink:href="#c_42baa63129a918535c52adb20d687ea7"
                 id="use373" />
            </g>
          </g>
        </g>
        <g
           id="ytick7">
          <g
             id="line2d32">
            <g
               id="g377">
              <use
                 style="fill: none; stroke: #000000; stroke-width: 0.500000; stroke-linejoin: round; stroke-linecap: butt;  opacity: 1.000000"
                 xlink:href="#m3400efa6b1638b3fea9e19e898273957"
                 x="73.125000"
                 y="132.300000"
                 id="use379" />
            </g>
          </g>
          <g
             id="line2d33">
            <g
               id="g382">
              <use
                 style="fill: none; stroke: #000000; stroke-width: 0.500000; stroke-linejoin: round; stroke-linecap: butt;  opacity: 1.000000"
                 xlink:href="#m20b58b2501143cb5e0a5e8f1ef6f1643"
                 x="526.500000"
                 y="132.300000"
                 id="use384" />
            </g>
          </g>
          <g
             id="text16">
            <g
               style="fill: #000000; opacity: 1.000000"
               transform="translate(63.562500,136.753125)scale(0.120000)"
               id="g387">
              <use
                 xlink:href="#c_ed3f3ed3ebfbd18bcb9c012009a68ad1"
                 id="use389" />
            </g>
          </g>
        </g>
        <g
           id="ytick8">
          <g
             id="line2d34">
            <g
               id="g393">
              <use
                 style="fill: none; stroke: #000000; stroke-width: 0.500000; stroke-linejoin: round; stroke-linecap: butt;  opacity: 1.000000"
                 xlink:href="#m3400efa6b1638b3fea9e19e898273957"
                 x="73.125000"
                 y="88.200000"
                 id="use395" />
            </g>
          </g>
          <g
             id="line2d35">
            <g
               id="g398">
              <use
                 style="fill: none; stroke: #000000; stroke-width: 0.500000; stroke-linejoin: round; stroke-linecap: butt;  opacity: 1.000000"
                 xlink:href="#m20b58b2501143cb5e0a5e8f1ef6f1643"
                 x="526.500000"
                 y="88.200000"
                 id="use400" />
            </g>
          </g>
          <g
             id="text17">
            <g
               style="fill: #000000; opacity: 1.000000"
               transform="translate(63.375000,92.567187)scale(0.120000)"
               id="g403">
              <use
                 xlink:href="#c_3dcfa38a02242cb63ec6726c6e70be7a"
                 id="use405" />
            </g>
          </g>
        </g>
        <g
           id="ytick9">
          <g
             id="line2d36">
            <g
               id="g409">
              <use
                 style="fill: none; stroke: #000000; stroke-width: 0.500000; stroke-linejoin: round; stroke-linecap: butt;  opacity: 1.000000"
                 xlink:href="#m3400efa6b1638b3fea9e19e898273957"
                 x="73.125000"
                 y="44.100000"
                 id="use411" />
            </g>
          </g>
          <g
             id="line2d37">
            <g
               id="g414">
              <use
                 style="fill: none; stroke: #000000; stroke-width: 0.500000; stroke-linejoin: round; stroke-linecap: butt;  opacity: 1.000000"
                 xlink:href="#m20b58b2501143cb5e0a5e8f1ef6f1643"
                 x="526.500000"
                 y="44.100000"
                 id="use416" />
            </g>
          </g>
          <g
             id="text18">
            <g
               style="fill: #000000; opacity: 1.000000"
               transform="translate(62.750000,48.475000)scale(0.120000)"
               id="g419">
              <use
                 xlink:href="#c_a0416418d96557a09b8c1332d34883ba"
                 id="use421" />
            </g>
          </g>
        </g>
        <g
           id="text19">
          <defs
             id="defs424">
            <path
               id="c_ff9441f72805bc441fcb0bfe0d774f13"
               d="M19.671875 -64.796875l0.000000 56.687500l11.921875 0.000000q15.093750 0.000000 22.093750 -6.828125q7.000000 -6.843750 7.000000 -21.593750q0.000000 -14.640625 -7.000000 -21.453125q-7.000000 -6.812500 -22.093750 -6.812500zM9.812500 -72.906250l20.265625 0.000000q21.187500 0.000000 31.093750 8.812500q9.921875 8.812500 9.921875 27.562500q0.000000 18.859375 -9.968750 27.703125q-9.953125 8.828125 -31.046875 8.828125l-20.265625 0.000000z" />
            <path
               id="c_01d93a582460e35a7945ca50d148ffeb"
               d="M34.281250 -27.484375q-10.890625 0.000000 -15.093750 2.484375q-4.203125 2.484375 -4.203125 8.500000q0.000000 4.781250 3.156250 7.593750q3.156250 2.796875 8.562500 2.796875q7.484375 0.000000 12.000000 -5.296875q4.515625 -5.296875 4.515625 -14.078125l0.000000 -2.000000zM52.203125 -31.203125l0.000000 31.203125l-8.984375 0.000000l0.000000 -8.296875q-3.078125 4.968750 -7.671875 7.343750q-4.593750 2.375000 -11.234375 2.375000q-8.390625 0.000000 -13.359375 -4.718750q-4.953125 -4.718750 -4.953125 -12.625000q0.000000 -9.218750 6.171875 -13.906250q6.187500 -4.687500 18.437500 -4.687500l12.609375 0.000000l0.000000 -0.890625q0.000000 -6.203125 -4.078125 -9.593750q-4.078125 -3.390625 -11.453125 -3.390625q-4.687500 0.000000 -9.140625 1.125000q-4.437500 1.125000 -8.531250 3.375000l0.000000 -8.312500q4.921875 -1.906250 9.562500 -2.843750q4.640625 -0.953125 9.031250 -0.953125q11.875000 0.000000 17.734375 6.156250q5.859375 6.140625 5.859375 18.640625" />
          </defs>
          <g
             style="fill: #000000; opacity: 1.000000"
             transform="translate(48.359375,233.523437)rotate(-90.0)scale(0.120000)"
             id="g428">
            <use
               xlink:href="#c_ff9441f72805bc441fcb0bfe0d774f13"
               id="use430" />
            <use
               xlink:href="#c_01d93a582460e35a7945ca50d148ffeb"
               x="77.001953"
               id="use432" />
            <use
               xlink:href="#c_0f8c41144cfbf448378cb6fd1cc8e549"
               x="138.281250"
               id="use434" />
            <use
               xlink:href="#c_01d93a582460e35a7945ca50d148ffeb"
               x="177.490234"
               id="use436" />
          </g>
        </g>
      </g>
      <g
         id="patch3">
        <path
           style="fill: none; stroke: #000000; stroke-width: 1.000000; stroke-linejoin: round; stroke-linecap: square;  opacity: 1.000000"
           d="M73.125000 44.100000L526.500000 44.100000"
           id="path439" />
      </g>
      <g
         id="patch4">
        <path
           style="fill: none; stroke: #000000; stroke-width: 1.000000; stroke-linejoin: round; stroke-linecap: square;  opacity: 1.000000"
           d="M526.500000 396.900000L526.500000 44.100000"
           id="path442" />
      </g>
      <g
         id="patch5">
        <path
           style="fill: none; stroke: #000000; stroke-width: 1.000000; stroke-linejoin: round; stroke-linecap: square;  opacity: 1.000000"
           d="M73.125000 396.900000L526.500000 396.900000"
           id="path445" />
      </g>
      <g
         id="patch6">
        <path
           style="fill: none; stroke: #000000; stroke-width: 1.000000; stroke-linejoin: round; stroke-linecap: square;  opacity: 1.000000"
           d="M73.125000 396.900000L73.125000 44.100000"
           id="path448" />
      </g>
      <g
         id="text20">
        <defs
           id="defs451">
          <path
             id="c_518d586bee075aa0153eaebfcb5ab11f"
             d="M19.671875 -64.796875l0.000000 27.390625l12.406250 0.000000q6.890625 0.000000 10.640625 -3.562500q3.765625 -3.562500 3.765625 -10.156250q0.000000 -6.546875 -3.765625 -10.109375q-3.750000 -3.562500 -10.640625 -3.562500zM9.812500 -72.906250l22.265625 0.000000q12.265625 0.000000 18.531250 5.546875q6.281250 5.546875 6.281250 16.234375q0.000000 10.796875 -6.281250 16.312500q-6.265625 5.515625 -18.531250 5.515625l-12.406250 0.000000l0.000000 29.296875l-9.859375 0.000000z" />
          <path
             id="c_d650c37394b681142a10dfc54356d478"
             d="M48.781250 -52.593750l0.000000 8.406250q-3.812500 -2.109375 -7.640625 -3.156250q-3.828125 -1.046875 -7.734375 -1.046875q-8.750000 0.000000 -13.593750 5.546875q-4.828125 5.531250 -4.828125 15.546875q0.000000 10.015625 4.828125 15.562500q4.843750 5.531250 13.593750 5.531250q3.906250 0.000000 7.734375 -1.046875q3.828125 -1.046875 7.640625 -3.156250l0.000000 8.312500q-3.765625 1.750000 -7.796875 2.625000q-4.015625 0.890625 -8.562500 0.890625q-12.359375 0.000000 -19.640625 -7.765625q-7.265625 -7.765625 -7.265625 -20.953125q0.000000 -13.375000 7.343750 -21.031250q7.359375 -7.671875 20.156250 -7.671875q4.140625 0.000000 8.093750 0.859375q3.953125 0.843750 7.671875 2.546875" />
          <path
             id="c_dcb78ab3124be785176d70a27dde1356"
             d="M9.078125 -75.984375l9.031250 0.000000l0.000000 44.875000l26.812500 -23.578125l11.468750 0.000000l-29.000000 25.578125l30.234375 29.109375l-11.718750 0.000000l-27.796875 -26.703125l0.000000 26.703125l-9.031250 0.000000z" />
          <path
             id="c_425fd1cbcd899bef0a79975ae4756bf8"
             d="M19.671875 -34.812500l0.000000 26.703125l15.828125 0.000000q7.953125 0.000000 11.781250 -3.296875q3.843750 -3.296875 3.843750 -10.078125q0.000000 -6.843750 -3.843750 -10.078125q-3.828125 -3.250000 -11.781250 -3.250000zM19.671875 -64.796875l0.000000 21.968750l14.609375 0.000000q7.218750 0.000000 10.750000 -2.703125q3.546875 -2.718750 3.546875 -8.281250q0.000000 -5.515625 -3.546875 -8.250000q-3.531250 -2.734375 -10.750000 -2.734375zM9.812500 -72.906250l25.203125 0.000000q11.281250 0.000000 17.375000 4.687500q6.109375 4.687500 6.109375 13.328125q0.000000 6.703125 -3.125000 10.656250q-3.125000 3.953125 -9.187500 4.921875q7.281250 1.562500 11.312500 6.531250q4.031250 4.953125 4.031250 12.375000q0.000000 9.765625 -6.640625 15.093750q-6.640625 5.312500 -18.906250 5.312500l-26.171875 0.000000z" />
          <path
             id="c_f05dd90d41f04bb96ef1ca503cc2044b"
             d="M30.609375 -48.390625q-7.218750 0.000000 -11.421875 5.640625q-4.203125 5.640625 -4.203125 15.453125q0.000000 9.812500 4.171875 15.453125q4.187500 5.640625 11.453125 5.640625q7.187500 0.000000 11.375000 -5.656250q4.203125 -5.671875 4.203125 -15.437500q0.000000 -9.718750 -4.203125 -15.406250q-4.187500 -5.687500 -11.375000 -5.687500M30.609375 -56.000000q11.718750 0.000000 18.406250 7.625000q6.703125 7.609375 6.703125 21.078125q0.000000 13.421875 -6.703125 21.078125q-6.687500 7.640625 -18.406250 7.640625q-11.765625 0.000000 -18.437500 -7.640625q-6.656250 -7.656250 -6.656250 -21.078125q0.000000 -13.468750 6.656250 -21.078125q6.671875 -7.625000 18.437500 -7.625000" />
          <path
             id="c_c48ceabac27bf136feba2f4bf2716ab6"
             d="M2.984375 -54.687500l9.515625 0.000000l17.093750 45.890625l17.093750 -45.890625l9.515625 0.000000l-20.515625 54.687500l-12.203125 0.000000z" />
          <path
             id="c_ed3e21196fb739f392806f09ca0594ef"
             d="M10.687500 -12.406250l10.312500 0.000000l0.000000 12.406250l-10.312500 0.000000z" />
        </defs>
        <g
           style="fill: #000000; opacity: 1.000000"
           transform="translate(219.617188,38.896875)scale(0.144000)"
           id="g460">
          <use
             xlink:href="#c_518d586bee075aa0153eaebfcb5ab11f"
             id="use462" />
          <use
             xlink:href="#c_01d93a582460e35a7945ca50d148ffeb"
             x="55.802734"
             id="use464" />
          <use
             xlink:href="#c_d650c37394b681142a10dfc54356d478"
             x="117.082031"
             id="use466" />
          <use
             xlink:href="#c_dcb78ab3124be785176d70a27dde1356"
             x="172.062500"
             id="use468" />
          <use
             xlink:href="#c_425fd1cbcd899bef0a79975ae4756bf8"
             x="229.972656"
             id="use470" />
          <use
             xlink:href="#c_f05dd90d41f04bb96ef1ca503cc2044b"
             x="298.576172"
             id="use472" />
          <use
             xlink:href="#c_0f8c41144cfbf448378cb6fd1cc8e549"
             x="359.757812"
             id="use474" />
          <use
             xlink:href="#c_d41d8cd98f00b204e9800998ecf8427e"
             x="398.966797"
             id="use476" />
          <use
             xlink:href="#c_ff9441f72805bc441fcb0bfe0d774f13"
             x="430.753906"
             id="use478" />
          <use
             xlink:href="#c_01d93a582460e35a7945ca50d148ffeb"
             x="507.755859"
             id="use480" />
          <use
             xlink:href="#c_0f8c41144cfbf448378cb6fd1cc8e549"
             x="569.035156"
             id="use482" />
          <use
             xlink:href="#c_01d93a582460e35a7945ca50d148ffeb"
             x="608.244141"
             id="use484" />
          <use
             xlink:href="#c_d41d8cd98f00b204e9800998ecf8427e"
             x="669.523438"
             id="use486" />
          <use
             xlink:href="#c_c48ceabac27bf136feba2f4bf2716ab6"
             x="701.310547"
             id="use488" />
          <use
             xlink:href="#c_8e0810ad13fe20a2a87a2619799b154d"
             x="760.490234"
             id="use490" />
          <use
             xlink:href="#c_ed3e21196fb739f392806f09ca0594ef"
             x="812.589844"
             id="use492" />
          <use
             xlink:href="#c_d41d8cd98f00b204e9800998ecf8427e"
             x="844.376953"
             id="use494" />
          <use
             xlink:href="#c_9e4b30cbdf32072672ded72e9074c4c9"
             x="876.164062"
             id="use496" />
          <use
             xlink:href="#c_6a63bda47b2f3da1cec6aadd80692cfe"
             x="934.123047"
             id="use498" />
          <use
             xlink:href="#c_4653c6dfde66c7610eae0911760d3490"
             x="961.906250"
             id="use500" />
          <use
             xlink:href="#c_0bce5afba2dc6b9024b26277c38ad8e8"
             x="1059.318359"
             id="use502" />
        </g>
      </g>
    </g>
    <g
       id="legend1">
      <g
         id="patch7">
        <path
           style="fill: #ffffff; stroke: #000000; stroke-width: 1.000000; stroke-linejoin: round; stroke-linecap: square;  opacity: 1.000000"
           d="M406.647500 71.057500L577.800000 71.057500L577.800000 7.200000 L406.647500 7.200000L406.647500 71.057500z"
           id="path506" />
      </g>
      <g
         id="line2d38">
        <path
           style="fill: none; stroke: #0000ff; stroke-width: 1.000000; stroke-linejoin: round; stroke-linecap: square;  opacity: 1.000000"
           d="M416.727500 18.560625L436.887500 18.560625"
           id="path509" />
      </g>
      <g
         id="line2d39" />
      <g
         id="text21">
        <defs
           id="defs513">
          <path
             id="c_dbe439baa035de1a298d0549b22269d8"
             d="M9.812500 -72.906250l46.093750 0.000000l0.000000 8.312500l-36.234375 0.000000l0.000000 21.578125l34.718750 0.000000l0.000000 8.296875l-34.718750 0.000000l0.000000 26.421875l37.109375 0.000000l0.000000 8.296875l-46.968750 0.000000z" />
          <path
             id="c_fe791a90f5471e2ab20a5ed41a7fa451"
             d="M54.890625 -33.015625l0.000000 33.015625l-8.984375 0.000000l0.000000 -32.718750q0.000000 -7.765625 -3.031250 -11.609375q-3.031250 -3.859375 -9.078125 -3.859375q-7.281250 0.000000 -11.484375 4.640625q-4.203125 4.625000 -4.203125 12.640625l0.000000 30.906250l-9.031250 0.000000l0.000000 -54.687500l9.031250 0.000000l0.000000 8.500000q3.234375 -4.937500 7.593750 -7.375000q4.375000 -2.437500 10.093750 -2.437500q9.421875 0.000000 14.250000 5.828125q4.843750 5.828125 4.843750 17.156250" />
          <path
             id="c_d821beae607506e87470f334d9ff47af"
             d="M45.406250 -46.390625l0.000000 -29.593750l8.984375 0.000000l0.000000 75.984375l-8.984375 0.000000l0.000000 -8.203125q-2.828125 4.875000 -7.156250 7.250000q-4.312500 2.375000 -10.375000 2.375000q-9.906250 0.000000 -16.140625 -7.906250q-6.218750 -7.921875 -6.218750 -20.812500q0.000000 -12.890625 6.218750 -20.796875q6.234375 -7.906250 16.140625 -7.906250q6.062500 0.000000 10.375000 2.375000q4.328125 2.359375 7.156250 7.234375M14.796875 -27.296875q0.000000 9.906250 4.078125 15.546875q4.078125 5.640625 11.203125 5.640625q7.125000 0.000000 11.218750 -5.640625q4.109375 -5.640625 4.109375 -15.546875q0.000000 -9.906250 -4.109375 -15.546875q-4.093750 -5.640625 -11.218750 -5.640625q-7.125000 0.000000 -11.203125 5.640625q-4.078125 5.640625 -4.078125 15.546875" />
          <path
             id="c_6ec8d5749226675394676a5d2a3b468b"
             d="M41.109375 -46.296875q-1.515625 -0.875000 -3.296875 -1.281250q-1.781250 -0.421875 -3.921875 -0.421875q-7.625000 0.000000 -11.703125 4.953125q-4.078125 4.953125 -4.078125 14.234375l0.000000 28.812500l-9.031250 0.000000l0.000000 -54.687500l9.031250 0.000000l0.000000 8.500000q2.843750 -4.984375 7.375000 -7.390625q4.546875 -2.421875 11.046875 -2.421875q0.921875 0.000000 2.046875 0.125000q1.125000 0.109375 2.484375 0.359375z" />
          <path
             id="c_ae70b0af174184799fa4976b9c5da571"
             d="M28.609375 -0.000000l-27.828125 -72.906250l10.296875 0.000000l23.109375 61.375000l23.140625 -61.375000l10.250000 0.000000l-27.781250 72.906250z" />
          <path
             id="c_5099edb83619131346ae654950954dea"
             d="M9.421875 -75.984375l8.984375 0.000000l0.000000 75.984375l-8.984375 0.000000z" />
          <path
             id="c_3fe22c4af425ac970aec982ae9662abe"
             d="M32.171875 5.078125q-3.796875 9.765625 -7.421875 12.734375q-3.609375 2.984375 -9.656250 2.984375l-7.187500 0.000000l0.000000 -7.515625l5.281250 0.000000q3.703125 0.000000 5.750000 -1.765625q2.062500 -1.750000 4.546875 -8.296875l1.609375 -4.093750l-22.109375 -53.812500l9.515625 0.000000l17.093750 42.765625l17.093750 -42.765625l9.515625 0.000000z" />
        </defs>
        <g
           style="fill: #000000; opacity: 1.000000"
           transform="translate(452.727500,23.600625)scale(0.144000)"
           id="g522">
          <use
             xlink:href="#c_dbe439baa035de1a298d0549b22269d8"
             id="use524" />
          <use
             xlink:href="#c_fe791a90f5471e2ab20a5ed41a7fa451"
             x="63.183594"
             id="use526" />
          <use
             xlink:href="#c_d650c37394b681142a10dfc54356d478"
             x="126.562500"
             id="use528" />
          <use
             xlink:href="#c_f05dd90d41f04bb96ef1ca503cc2044b"
             x="181.542969"
             id="use530" />
          <use
             xlink:href="#c_d821beae607506e87470f334d9ff47af"
             x="242.724609"
             id="use532" />
          <use
             xlink:href="#c_0bce5afba2dc6b9024b26277c38ad8e8"
             x="306.201172"
             id="use534" />
          <use
             xlink:href="#c_6ec8d5749226675394676a5d2a3b468b"
             x="367.724609"
             id="use536" />
          <use
             xlink:href="#c_d41d8cd98f00b204e9800998ecf8427e"
             x="408.837891"
             id="use538" />
          <use
             xlink:href="#c_ae70b0af174184799fa4976b9c5da571"
             x="440.625000"
             id="use540" />
          <use
             xlink:href="#c_0bce5afba2dc6b9024b26277c38ad8e8"
             x="501.283203"
             id="use542" />
          <use
             xlink:href="#c_5099edb83619131346ae654950954dea"
             x="562.806641"
             id="use544" />
          <use
             xlink:href="#c_f05dd90d41f04bb96ef1ca503cc2044b"
             x="590.589844"
             id="use546" />
          <use
             xlink:href="#c_d650c37394b681142a10dfc54356d478"
             x="651.771484"
             id="use548" />
          <use
             xlink:href="#c_6a63bda47b2f3da1cec6aadd80692cfe"
             x="706.751953"
             id="use550" />
          <use
             xlink:href="#c_0f8c41144cfbf448378cb6fd1cc8e549"
             x="734.535156"
             id="use552" />
          <use
             xlink:href="#c_3fe22c4af425ac970aec982ae9662abe"
             x="773.744141"
             id="use554" />
        </g>
      </g>
      <g
         id="line2d40">
        <path
           style="fill: none; stroke: #008000; stroke-width: 1.000000; stroke-linejoin: round; stroke-linecap: square;  opacity: 1.000000"
           d="M416.727500 39.307500L436.887500 39.307500"
           id="path557" />
      </g>
      <g
         id="line2d41" />
      <g
         id="text22">
        <defs
           id="defs561">
          <path
             id="c_3b86f9879deccc43ffac57ae939fe3b7"
             d="M59.515625 -10.406250l0.000000 -19.578125l-16.109375 0.000000l0.000000 -8.109375l25.875000 0.000000l0.000000 31.312500q-5.703125 4.046875 -12.593750 6.125000q-6.875000 2.078125 -14.687500 2.078125q-17.093750 0.000000 -26.750000 -9.984375q-9.640625 -10.000000 -9.640625 -27.812500q0.000000 -17.875000 9.640625 -27.859375q9.656250 -9.984375 26.750000 -9.984375q7.125000 0.000000 13.546875 1.765625q6.421875 1.750000 11.843750 5.171875l0.000000 10.500000q-5.468750 -4.640625 -11.625000 -6.984375q-6.156250 -2.343750 -12.937500 -2.343750q-13.390625 0.000000 -20.109375 7.468750q-6.703125 7.468750 -6.703125 22.265625q0.000000 14.750000 6.703125 22.218750q6.718750 7.468750 20.109375 7.468750q5.218750 0.000000 9.312500 -0.906250q4.109375 -0.906250 7.375000 -2.812500" />
          <path
             id="c_b672e4bee30772019085dff1098f516d"
             d="M53.515625 -70.515625l0.000000 9.625000q-5.609375 -2.687500 -10.593750 -4.000000q-4.984375 -1.328125 -9.625000 -1.328125q-8.046875 0.000000 -12.421875 3.125000q-4.375000 3.125000 -4.375000 8.890625q0.000000 4.843750 2.906250 7.312500q2.906250 2.453125 11.015625 3.968750l5.953125 1.218750q11.031250 2.109375 16.281250 7.406250q5.250000 5.296875 5.250000 14.171875q0.000000 10.609375 -7.109375 16.078125q-7.093750 5.468750 -20.812500 5.468750q-5.171875 0.000000 -11.015625 -1.171875q-5.828125 -1.171875 -12.078125 -3.468750l0.000000 -10.156250q6.000000 3.359375 11.765625 5.078125q5.765625 1.703125 11.328125 1.703125q8.437500 0.000000 13.031250 -3.312500q4.593750 -3.328125 4.593750 -9.484375q0.000000 -5.359375 -3.296875 -8.390625q-3.296875 -3.031250 -10.812500 -4.546875l-6.015625 -1.171875q-11.031250 -2.187500 -15.968750 -6.875000q-4.921875 -4.687500 -4.921875 -13.046875q0.000000 -9.671875 6.812500 -15.234375q6.812500 -5.562500 18.765625 -5.562500q5.140625 0.000000 10.453125 0.937500q5.328125 0.921875 10.890625 2.765625" />
        </defs>
        <g
           style="fill: #000000; opacity: 1.000000"
           transform="translate(452.727500,44.347500)scale(0.144000)"
           id="g565">
          <use
             xlink:href="#c_3b86f9879deccc43ffac57ae939fe3b7"
             id="use567" />
          <use
             xlink:href="#c_518d586bee075aa0153eaebfcb5ab11f"
             x="77.490234"
             id="use569" />
          <use
             xlink:href="#c_b672e4bee30772019085dff1098f516d"
             x="137.792969"
             id="use571" />
          <use
             xlink:href="#c_d41d8cd98f00b204e9800998ecf8427e"
             x="201.269531"
             id="use573" />
          <use
             xlink:href="#c_ae70b0af174184799fa4976b9c5da571"
             x="233.056641"
             id="use575" />
          <use
             xlink:href="#c_0bce5afba2dc6b9024b26277c38ad8e8"
             x="293.714844"
             id="use577" />
          <use
             xlink:href="#c_5099edb83619131346ae654950954dea"
             x="355.238281"
             id="use579" />
          <use
             xlink:href="#c_f05dd90d41f04bb96ef1ca503cc2044b"
             x="383.021484"
             id="use581" />
          <use
             xlink:href="#c_d650c37394b681142a10dfc54356d478"
             x="444.203125"
             id="use583" />
          <use
             xlink:href="#c_6a63bda47b2f3da1cec6aadd80692cfe"
             x="499.183594"
             id="use585" />
          <use
             xlink:href="#c_0f8c41144cfbf448378cb6fd1cc8e549"
             x="526.966797"
             id="use587" />
          <use
             xlink:href="#c_3fe22c4af425ac970aec982ae9662abe"
             x="566.175781"
             id="use589" />
        </g>
      </g>
      <g
         id="line2d42">
        <path
           style="fill: none; stroke: #ff0000; stroke-width: 1.000000; stroke-linejoin: round; stroke-linecap: square;  opacity: 1.000000"
           d="M416.727500 60.054375L436.887500 60.054375"
           id="path592" />
      </g>
      <g
         id="line2d43" />
      <g
         id="text23">
        <defs
           id="defs596">
          <path
             id="c_867d5c614e055a6de802b159158cbff4"
             d="M-0.203125 -72.906250l10.609375 0.000000l20.203125 29.984375l20.078125 -29.984375l10.593750 0.000000l-25.781250 38.187500l0.000000 34.718750l-9.906250 0.000000l0.000000 -34.718750z" />
          <path
             id="c_57adaa7083d7229075db8bc2c5b2febe"
             d="M4.203125 -54.687500l8.984375 0.000000l11.234375 42.671875l11.171875 -42.671875l10.593750 0.000000l11.234375 42.671875l11.187500 -42.671875l8.984375 0.000000l-14.312500 54.687500l-10.593750 0.000000l-11.765625 -44.828125l-11.812500 44.828125l-10.609375 0.000000z" />
        </defs>
        <g
           style="fill: #000000; opacity: 1.000000"
           transform="translate(452.727500,65.094375)scale(0.144000)"
           id="g600">
          <use
             xlink:href="#c_867d5c614e055a6de802b159158cbff4"
             id="use602" />
          <use
             xlink:href="#c_01d93a582460e35a7945ca50d148ffeb"
             x="47.333984"
             id="use604" />
          <use
             xlink:href="#c_57adaa7083d7229075db8bc2c5b2febe"
             x="108.613281"
             id="use606" />
        </g>
      </g>
    </g>
  </g>
  <path
     style="fill:none;stroke:#000000;stroke-width:0.80000007px;stroke-linecap:butt;stroke-linejoin:miter;stroke-opacity:1;marker-start:url(#Arrow1Lstart)"
     d="m 239.20384,283.94061 -23.19895,52.50783"
     id="path4243"
     inkscape:export-filename="/home/thomas/school/thesis/thomas/images/text5075.png"
     inkscape:export-xdpi="100"
     inkscape:export-ydpi="100" />
  <text
     xml:space="preserve"
     style="font-size:14.40000057px;font-style:italic;font-variant:normal;font-weight:normal;font-stretch:normal;text-align:start;line-height:125%;writing-mode:lr-tb;text-anchor:start;fill:#000000;fill-opacity:1;stroke:none;font-family:FreeSerif;-inkscape-font-specification:FreeSerif Italic"
     x="169.76807"
     y="340.51355"
     id="text5075"
     transform="scale(0.99986062,1.0001394)"
     inkscape:export-xdpi="100"
     inkscape:export-ydpi="100"
     sodipodi:linespacing="125%"><tspan
       sodipodi:role="line"
       id="tspan5077"
       x="169.76807"
       y="340.51355"
       style="font-size:14.40000057px;font-style:italic;font-variant:normal;font-weight:normal;font-stretch:normal;text-align:start;line-height:125%;writing-mode:lr-tb;text-anchor:start;font-family:FreeSerif;-inkscape-font-specification:FreeSerif Italic">Reverse</tspan></text>
</svg>
