<?xml version="1.0" encoding="UTF-8" standalone="no"?>
<!-- Created with Inkscape (http://www.inkscape.org/) -->
<svg
   xmlns:dc="http://purl.org/dc/elements/1.1/"
   xmlns:cc="http://creativecommons.org/ns#"
   xmlns:rdf="http://www.w3.org/1999/02/22-rdf-syntax-ns#"
   xmlns:svg="http://www.w3.org/2000/svg"
   xmlns="http://www.w3.org/2000/svg"
   xmlns:xlink="http://www.w3.org/1999/xlink"
   xmlns:sodipodi="http://sodipodi.sourceforge.net/DTD/sodipodi-0.dtd"
   xmlns:inkscape="http://www.inkscape.org/namespaces/inkscape"
   width="744.09448819"
   height="1052.3622047"
   id="svg3607"
   sodipodi:version="0.32"
   inkscape:version="0.46"
   sodipodi:docname="packbot.svg"
   inkscape:output_extension="org.inkscape.output.svg.inkscape"
   inkscape:export-filename="/home/thomas/school/thesis/thomas/images/packbot.png"
   inkscape:export-xdpi="100.02304"
   inkscape:export-ydpi="100.02304">
  <defs
     id="defs3609">
    <clipPath
       clipPathUnits="userSpaceOnUse"
       id="clipPath2540">
      <path
         style="fill:none;fill-rule:evenodd;stroke:#000000;stroke-width:1px;stroke-linecap:butt;stroke-linejoin:miter;stroke-opacity:1"
         d="M -1773.6731,-206.4676 L -1847.1831,-222.26881 L -1874.6634,-131.58362 L -1880.1595,-120.59147 L -1887.7166,-113.72138 L -1892.5257,-117.15642 L -1900.0828,-110.28632 L -1900.0828,-104.79026 L -1904.8919,-95.859136 L -1900.7697,-93.111096 L -1896.6477,-86.928017 L -1887.7166,-91.05007 L -1888.4037,-83.492977 L -1827.9468,-61.508684 L -1778.4822,-48.455511 L -1810.0846,13.375315 L -1815.5807,12.001302 L -1844.435,70.397073 L -1814.8937,88.946327 L -1915.197,286.80495 L -1948.8604,292.30103 L -1974.2797,303.98017 L -1990.768,326.65148 L -1993.5161,352.07081 L -1989.394,377.49016 L -1981.8369,396.0394 L -2079.3921,569.85266 L -2096.5674,560.92158 L -2101.3764,567.10469 L -2119.2387,560.92158 L -2124.6924,563.00814 L -2131.9792,558.8789 L -2138.5374,559.85042 L -2140.9663,565.67996 L -2157.9689,572.48103 L -2172.7854,581.71104 L -2178.3721,586.3259 L -2182.7441,585.59726 L -2184.6873,587.78332 L -2184.2015,592.39832 L -2200.4755,607.70061 L -2212.6202,622.03138 L -2215.292,627.61805 L -2220.1499,628.83245 L -2220.1499,635.14775 L -2251.969,674.01082 L -2254.8838,672.79642 L -2256.8269,675.22536 L -2255.8554,680.08324 L -2285.2455,716.27449 L -2290.1034,715.78873 L -2291.318,718.94631 L -2290.8322,725.01874 L -2303.4627,740.56391 L -2307.8348,740.80679 L -2308.3206,745.90755 L -2319.7366,759.75256 L -2323.38,757.5665 L -2325.3231,759.2668 L -2325.566,766.55362 L -2354.2276,801.53047 L -2359.0854,801.28745 L -2362.486,804.20229 L -2362.2432,811.732 L -2379.9744,834.07823 L -2382.6462,833.83535 L -2381.9176,837.47883 L -2391.6333,848.89476 L -2398.1915,848.409 L -2399.1631,851.8096 L -2396.977,856.42461 L -2404.7496,869.54084 L -2407.6644,879.74236 L -2407.9073,890.67267 L -2404.5067,896.74495 L -2403.7781,901.11708 L -2402.8064,902.81738 L -2407.6644,907.1895 L -2373.4162,936.3368 L -2365.1579,931.96468 L -2355.9279,937.79422 L -2343.7832,939.00862 L -2326.5377,932.45044 L -2324.5945,934.87938 L -2321.4368,934.39362 L -2321.4368,927.34968 L -2283.0595,903.54602 L -2278.9304,906.21784 L -2276.0155,904.03178 L -2276.7443,897.71662 L -2239.5814,872.9413 L -2236.6667,875.85614 L -2233.9949,874.6416 L -2234.2378,867.59765 L -2225.4935,863.22553 L -2222.0931,860.55371 L -2193.1886,878.52796 L -2183.9586,882.90009 L -2172.2997,884.35737 L -2162.5839,889.21525 L -2148.2531,890.67267 L -2133.9224,884.35737 L -2124.2066,875.12736 L -2114.0051,859.58219 L -2109.633,852.29536 L -2103.8034,851.8096 L -2093.8448,842.33672 L -2091.1729,836.99293 L -2090.2014,833.10671 L -2082.6716,832.86383 L -2079.9998,825.57701 L -2068.8267,825.57701 L -2053.0385,824.11958 L -2045.9946,825.81989 L -2040.1652,825.81989 L -2037.9791,822.66216 L -2039.1935,817.07564 L -2033.607,816.347 L -2028.7491,815.13246 L -2027.5346,812.46064 L -1873.2967,901.84586 L -1872.325,928.56422 L -1869.8961,937.55134 L -1875.2399,944.35227 L -1873.7824,949.69605 L -1848.2785,966.69864 L -1851.1933,973.49971 L -1850.7074,978.84335 L -1849.0073,982.4867 L -1841.2345,986.85882 L -1874.2682,1032.0372 L -1877.4259,1032.2801 L -1878.8832,1034.709 L -1878.8832,1039.5669 L -1912.4026,1086.9313 L -1916.0461,1087.1742 L -1916.0461,1093.2466 L -1950.7799,1140.8539 L -1955.3949,1140.8539 L -1955.1521,1147.8979 L -1971.6689,1172.4302 L -1975.7981,1185.5464 L -1976.5268,1200.606 L -1976.7697,1204.4922 L -1980.656,1206.9211 L -1979.6844,1209.593 L -1930.6198,1246.0272 L -1923.0901,1245.7843 L -1916.7748,1251.6137 L -1908.7593,1253.314 L -1901.4725,1252.5853 L -1890.5422,1247.2416 L -1884.2269,1247.9704 L -1883.4982,1241.4122 L -1874.5111,1234.6112 L -1872.325,1234.6112 L -1872.8109,1231.4536 L -1677.038,1066.0424 L -1659.0638,1051.2258 L -1656.8777,1051.9545 L -1655.9062,1047.8254 L -1628.702,1023.7788 L -1613.8854,1005.3188 L -1601.4978,986.85882 L -1589.3531,967.1844 L -1578.9086,943.86651 L -1572.5934,926.13528 L -1570.8931,914.47633 L -1568.2213,909.86132 L -1568.2213,884.35737 L -1563.8492,884.35737 L -1546.6037,868.08341 L -1541.7458,868.56932 L -1540.0455,862.49689 L -1510.8982,838.20747 L -1505.5545,838.69323 L -1504.3401,832.86383 L -1476.6501,808.81729 L -1470.0919,809.30305 L -1467.4201,800.55881 L -1442.8878,779.91287 L -1436.8154,781.37015 L -1435.6009,773.84045 L -1408.8825,751.73709 L -1401.3528,751.49421 L -1401.1099,744.93603 L -1376.5776,723.31843 L -1369.2908,723.56131 L -1369.0479,715.78873 L -1345.4871,695.14265 L -1336.0142,695.87129 L -1336.2571,686.39841 L -1313.1822,668.66718 L -1305.4095,667.93854 L -1305.1666,660.89459 L -1284.0348,643.892 L -1276.2622,643.4061 L -1275.2906,634.66199 L -1255.3733,610.12955 L -1242.0141,585.84014 L -1242.4999,583.4112 L -1239.828,580.73937 L -1237.3991,578.79619 L -1237.3991,575.39573 L -1236.4275,573.20967 L -1226.9546,547.21995 L -1223.5541,528.27418 L -1222.8254,500.34128 L -1218.4533,495.48345 L -1221.3681,491.11136 L -1224.2828,489.89688 L -1226.9546,479.69532 L -1233.027,472.40849 L -1229.3836,459.53509 L -1231.8125,457.10614 L -1255.6162,446.66168 L -1279.9056,436.46011 L -1248.3293,407.06989 L -1238.6136,385.2094 L -1236.1846,365.53494 L -1237.1562,351.20417 L -1238.1278,349.26102 L -1238.8565,342.21709 L -1241.5283,330.31526 L -1242.4999,324.97158 L -1243.7144,318.41343 L -1244.9288,317.44186 L -1244.9288,310.64081 L -1242.7428,308.94055 L -1243.4715,304.81135 L -1243.7144,297.52451 L -1225.7402,291.93794 L -1202.9081,281.73637 L -1180.076,267.16271 L -1167.2026,256.47536 L -1160.6445,247.73116 L -1158.4584,234.61486 L -1158.9442,220.52698 L -1168.66,202.5528 L -1192.2207,180.20651 L -1222.8254,164.90416 L -1252.2157,158.10313 L -1277.7196,156.40287 L -1306.624,155.43128 L -1332.6137,156.88866 L -1348.6447,160.04628 L -1364.4329,163.2039 L -1383.1357,170.73364 L -1405.2391,180.4494 L -1421.2702,194.05149 L -1434.1436,209.59673 L -1440.7017,221.01277 L -1441.1875,238.25827 L -1439.0014,249.43142 L -1425.3994,265.94824 L -1407.4252,278.09296 L -1392.8515,285.1369 L -1413.9833,298.73899 L -1413.0118,365.29205 L -1469.8491,346.83208 L -1447.2599,325.94315 L -1446.0454,321.08527 L -1446.5312,317.44186 L -1450.9033,314.28423 L -1456.4899,315.4987 L -1479.079,341.48841 L -1479.079,343.67445 L -1481.7509,342.21709 L -1520.614,372.0931 L -1537.1308,365.29205 L -1514.2987,273.72086 L -1486.123,178.50625 L -1467.1772,101.26584 L -1466.2056,87.420853 L -1468.6346,81.348485 L -1473.0067,80.619803 L -1476.6501,84.749018 L -1477.8646,97.865303 L -1487.8232,152.51655 L -1499.4822,191.13676 L -1509.6837,220.52698 L -1519.3995,254.04641 L -1530.5726,291.69505 L -1539.8026,323.02842 L -1550.49,354.84759 L -1553.1618,354.60469 L -1555.5908,349.9897 L -1565.5494,339.54524 L -1566.0352,330.55816 L -1569.1928,326.91474 L -1595.6683,318.17054 L -1608.2989,313.79844 L -1627.7304,307.48318 L -1631.8596,309.18344 L -1633.317,313.06976 L -1647.8906,305.78292 L -1655.6633,305.54003 L -1662.9501,305.54003 L -1663.9217,312.34106 L -1687.4824,324 L -1693.069,321.32816 L -1697.1982,324.72868 L -1697.684,330.31526 L -1721.0019,345.8605 L -1728.0458,344.16024 L -1729.7461,345.8605 L -1730.2319,351.68996 L -1754.0355,367.2352 L -1762.2939,364.80626 L -1765.2087,367.2352 L -1764.2371,374.52204 L -1789.0122,390.06728 L -1794.8418,386.18098 L -1797.7565,389.09571 L -1799.2139,395.89674 L -1822.5318,410.47041 L -1771.0381,307.96897 L -1719.5444,289.509 L -1674.6091,279.55032 L -1654.4488,272.0206 L -1626.273,256.71826 L -1601.9836,238.50117 L -1575.2652,210.32542 L -1551.4616,172.191 L -1537.1308,141.10051 L -1531.5442,120.45449 L -1521.5856,86.692171 L -1514.7845,56.81616 L -1511.1411,27.911726 L -1509.1979,15.524109 L -1505.3116,-21.881635 L -1502.3969,-23.096106 L -1502.3969,-32.568993 L -1502.8827,-33.297675 L -1500.9395,-39.855818 L -1498.5106,-54.91527 L -1484.1798,-107.86626 L -1484.1798,-119.2823 L -1490.2522,-124.62597 L -1495.1101,-124.62597 L -1495.8387,-131.91281 L -1498.0248,-134.09885 L -1498.0248,-145.272 L -1500.2108,-158.87409 L -1507.2548,-172.71907 L -1512.5985,-177.33406 L -1518.4279,-180.00589 L -1526.6863,-179.27721 L -1532.7587,-176.11959 L -1536.8879,-173.44775 L -1541.5029,-172.71907 L -1545.875,-165.18934 L -1545.875,-161.30303 L -1551.7045,-161.30303 L -1555.8337,-147.70094 L -1569.9215,-149.64409 L -1569.9215,-155.95934 L -1591.2962,-161.30303 L -1601.9836,-163.48908 L -1607.5702,-165.67512 L -1610.4849,-164.94644 L -1612.1852,-170.7759 L -1617.0431,-182.67773 L -1624.8157,-192.8793 L -1633.5599,-200.65191 L -1644.2472,-207.21007 L -1649.5909,-209.63901 L -1662.4644,-209.39612 L -1668.7795,-205.26692 L -1674.852,-204.78113 L -1677.2809,-202.35219 L -1677.2809,-198.46586 L -1680.9243,-197.25139 L -1681.41,-193.12219 L -1686.7538,-192.8793 L -1688.9399,-188.26431 L -1709.8287,-195.79403 L -1713.4722,-196.52271 L -1714.4437,-199.19455 L -1743.834,-209.39612 L -1745.777,-209.8819 L -1746.0199,-205.26692 L -1747.7202,-209.8819 L -1749.1776,-214.01111 L -1752.821,-216.44006 L -1759.8649,-215.95427 L -1762.2939,-212.79663 L -1769.5807,-215.46848 L -1773.6731,-206.4676 z"
         id="path2542" />
    </clipPath>
    <inkscape:perspective
       sodipodi:type="inkscape:persp3d"
       inkscape:vp_x="0 : 526.18109 : 1"
       inkscape:vp_y="0 : 1000 : 0"
       inkscape:vp_z="744.09448 : 526.18109 : 1"
       inkscape:persp3d-origin="372.04724 : 350.78739 : 1"
       id="perspective3615" />
  </defs>
  <sodipodi:namedview
     id="base"
     pagecolor="#ffffff"
     bordercolor="#666666"
     borderopacity="1.0"
     gridtolerance="10000"
     guidetolerance="10"
     objecttolerance="10"
     inkscape:pageopacity="0.0"
     inkscape:pageshadow="2"
     inkscape:zoom="1.4"
     inkscape:cx="440.80179"
     inkscape:cy="558.71104"
     inkscape:document-units="px"
     inkscape:current-layer="layer1"
     showgrid="false"
     inkscape:window-width="1920"
     inkscape:window-height="1148"
     inkscape:window-x="0"
     inkscape:window-y="25" />
  <metadata
     id="metadata3612">
    <rdf:RDF>
      <cc:Work
         rdf:about="">
        <dc:format>image/svg+xml</dc:format>
        <dc:type
           rdf:resource="http://purl.org/dc/dcmitype/StillImage" />
      </cc:Work>
    </rdf:RDF>
  </metadata>
  <g
     inkscape:label="Layer 1"
     inkscape:groupmode="layer"
     id="layer1">
    <image
       xlink:href="packbot.jpg"
       sodipodi:absref="/home/thomas/school/thesis/thomas/images/packbot.jpg"
       width="2592"
       height="1944"
       id="image3388"
       x="-3272.9492"
       y="-538.16949"
       clip-path="url(#clipPath2540)"
       transform="matrix(0.4105477,-8.1664348e-3,8.1662908e-3,0.4105549,1125.3424,262.00658)"
       style="opacity:1;fill:#ffffff;fill-opacity:1;stroke:#000000;stroke-width:1.72056925;stroke-linejoin:miter;stroke-miterlimit:4;stroke-dasharray:none;stroke-dashoffset:0;stroke-opacity:1" />
    <path
       style="opacity:1;fill:#ffffff;fill-opacity:1;stroke:#000000;stroke-width:0;stroke-linejoin:miter;stroke-miterlimit:4;stroke-dasharray:none;stroke-dashoffset:0;stroke-opacity:1"
       d="M 317.01073,436.83076 L 316.50469,434.4424 L 315.23517,430.9053 L 314.49165,427.21666 L 313.8643,425.8183 L 313.72284,416.93287 L 314.45544,416.53032 L 314.46985,413.70837 L 315.97138,411.17427 L 318.26973,407.91891 L 320.13427,405.90665 L 322.64045,404.23435 L 326.90104,402.10389 L 330.125,401.05218 L 334.02025,400.05765 L 337.93368,399.97981 L 324.58287,425.64036 L 322.80638,428.53264 L 321.10196,429.73048 L 319.30652,431.67082 L 318.28181,433.34893 L 317.95018,434.41365 L 317.55514,435.83234 L 317.61501,437.06563 L 317.01073,436.83076 z"
       id="path3369"
       sodipodi:nodetypes="ccccccccccccccccccccccccc" />
    <path
       style="opacity:1;fill:#ffffff;fill-opacity:1;stroke:#000000;stroke-width:0;stroke-linejoin:miter;stroke-miterlimit:4;stroke-dasharray:none;stroke-dashoffset:0;stroke-opacity:1"
       d="M 336.60251,476.68505 L 331.70138,467.89429 L 355.45686,417.40773 L 367.57699,413.21632 L 366.37088,416.41469 L 354.70415,439.85495 L 349.01678,451.81908 L 344.75119,460.79217 L 338.77055,472.1978 L 336.60251,476.68505 z"
       id="path3374" />
    <path
       style="opacity:1;fill:#ffffff;fill-opacity:1;stroke:#000000;stroke-width:0;stroke-linejoin:miter;stroke-miterlimit:4;stroke-dasharray:none;stroke-dashoffset:0;stroke-opacity:1"
       d="M 369.25136,393.55851 L 376.80757,379.74096 L 380.79418,372.02995 L 384.74586,365.06784 L 392.67625,349.99583 L 401.05235,334.76531 L 409.24184,320.18696 L 412.46661,321.81874 L 412.23216,322.57161 L 410.20552,326.0038 L 406.25064,335.31036 L 401.32761,343.58868 L 396.89493,353.95223 L 387.19712,372.95008 L 381.68835,384.38252 L 378.37495,390.83313 L 377.62584,393.29217 L 369.25136,393.55851 z"
       id="path3381" />
    <path
       style="opacity:1;fill:#ffffff;fill-opacity:1;stroke:#000000;stroke-width:0;stroke-linejoin:miter;stroke-miterlimit:4;stroke-dasharray:none;stroke-dashoffset:0;stroke-opacity:1"
       d="M 359.25749,411.65353 L 361.91554,406.98018 L 362.72172,404.9537 L 365.20704,400.46015 L 366.29248,398.28704 L 366.69944,397.46772 L 375.51417,397.32765 L 375.67766,398.45306 L 370.05254,408.22916 L 367.49074,408.87972 L 365.25045,409.73551 L 363.85075,410.29241 L 362.52434,410.98894 L 361.50823,411.32659 L 360.32003,411.87929 L 359.25749,411.65353 z"
       id="path3379" />
    <path
       style="opacity:1;fill:#ffffff;fill-opacity:1;stroke:#000000;stroke-width:0;stroke-linejoin:miter;stroke-miterlimit:4;stroke-dasharray:none;stroke-dashoffset:0;stroke-opacity:1"
       d="M 329.5205,472.46166 L 324.80779,481.2845 L 325.25125,483.52029 L 325.63501,485.25846 L 328.75256,491.53129 L 329.34387,491.17029 L 329.71305,489.66661 L 333.98991,481.5009 L 334.16159,480.10083 L 329.5205,472.46166 z"
       id="path3367" />
    <path
       style="opacity:1;fill:#ffffff;fill-opacity:1;stroke:#000000;stroke-width:0;stroke-linejoin:miter;stroke-miterlimit:4;stroke-dasharray:none;stroke-dashoffset:0;stroke-opacity:1"
       d="M 322.35712,487.51444 L 322.44011,489.91116 L 321.42377,492.01237 L 320.66496,492.87395 L 319.67843,492.92882 L 317.82145,497.09248 L 315.75355,501.29551 L 314.80828,505.19415 L 313.62619,507.82765 L 312.43868,508.41566 L 311.45413,510.33987 L 310.58094,512.54404 L 310.35032,513.35983 L 311.00667,514.44017 L 310.47266,515.96742 L 310.28221,517.02934 L 314.20895,517.62142 L 315.97673,517.83309 L 317.55427,515.57963 L 317.60623,511.09927 L 318.91218,511.14385 L 319.60218,506.82705 L 321.14857,506.5494 L 321.80341,502.2333 L 323.45558,501.95354 L 324.17882,497.53036 L 325.37679,497.47123 L 325.50169,496.65753 L 326.62851,496.56461 L 323.06693,489.51067 L 322.35712,487.51444 z"
       id="path3383" />
    <path
       style="opacity:1;fill:#ffffff;fill-opacity:1;stroke:#000000;stroke-width:0;stroke-linejoin:miter;stroke-miterlimit:4;stroke-dasharray:none;stroke-dashoffset:0;stroke-opacity:1"
       d="M 494.31793,216.43921 L 495.52537,213.19789 L 495.95139,210.79516 L 494.84159,210.16878 L 495.02432,208.07017 L 496.46994,206.76947 L 496.61215,205.14552 L 497.39561,204.40667 L 499.71302,204.31069 L 501.77714,205.26725 L 502.61012,207.02143 L 504.09275,208.83752 L 504.48146,210.825 L 505.09154,212.65845 C 505.09154,212.65845 505.33471,218.61432 505.33768,218.76391 C 505.34064,218.91349 504.45158,219.35516 504.45158,219.35516 L 503.77385,220.39119 L 503.30523,220.64991 L 503.18696,220.97649 L 494.31793,216.43921 z"
       id="path3393" />
    <path
       style="opacity:1;fill:#ffffff;fill-opacity:1;stroke:#000000;stroke-width:0;stroke-linejoin:miter;stroke-miterlimit:4;stroke-dasharray:none;stroke-dashoffset:0;stroke-opacity:1"
       d="M 439.5212,201.19333 L 439.27262,198.7292 L 439.15406,197.78383 L 439.45088,196.40622 L 440.37085,196.26321 L 440.64518,195.01074 L 440.4005,193.99306 L 441.94363,193.83766 L 443.25999,193.56208 L 444.36089,193.7397 L 446.60356,193.64521 L 448.19302,194.56132 L 450.77308,196.38052 L 452.59077,197.49161 L 453.63728,198.69287 L 454.91301,200.13897 L 455.98985,201.61396 L 457.29493,203.28393 L 457.94349,204.54299 L 458.18474,205.38616 L 457.31864,205.7276 L 455.52367,205.76331 L 452.03416,204.61065 L 448.59841,203.65645 L 444.66806,202.9116 L 442.05697,202.04075 L 439.5212,201.19333 z"
       id="path3391" />
    <path
       style="opacity:1;fill:#ffffff;fill-opacity:1;stroke:#000000;stroke-width:0;stroke-linejoin:miter;stroke-miterlimit:4;stroke-dasharray:none;stroke-dashoffset:0;stroke-opacity:1"
       d="M 465.50528,250.99775 L 464.90124,248.99933 L 462.57447,247.28207 L 459.47779,245.8623 L 455.72657,245.23149 L 451.90978,244.8489 L 449.57656,244.57787 L 448.14525,243.54822 L 446.62152,243.19055 L 445.17126,241.20896 L 444.21885,239.4291 L 444.47586,236.39069 L 447.45118,226.38513 L 448.93178,221.02978 L 450.52868,216.2012 L 451.84812,215.15209 L 454.20674,214.92881 L 456.53298,214.84727 L 457.63301,215.1781 L 459.09327,215.88974 L 459.35539,216.66049 L 458.70172,217.48472 L 457.21862,219.17195 L 457.06832,220.47996 L 457.93407,221.45032 L 459.04573,224.14406 L 460.07085,226.0283 L 460.62351,227.21651 L 462.14439,227.43315 L 461.63026,228.18407 L 460.99408,229.88972 L 460.99606,231.75904 L 461.55221,233.12353 L 463.01874,234.15249 L 464.99452,234.18373 L 466.86034,234.00553 L 466.51645,237.99797 L 465.56939,238.2637 L 465.69975,239.4956 L 467.23196,240.27635 L 469.4755,241.36039 L 468.21732,243.71328 L 467.53506,246.65433 L 466.82629,248.25562 L 466.43828,250.02688 L 465.50528,250.99775 z"
       id="path3389" />
    <path
       style="opacity:1;fill:#ffffff;fill-opacity:1;stroke:#000000;stroke-width:0;stroke-linejoin:miter;stroke-miterlimit:4;stroke-dasharray:none;stroke-dashoffset:0;stroke-opacity:1"
       d="M 236.69859,629.64544 C 235.79158,628.60653 235.33051,628.79112 234.84318,629.06453 C 233.07866,629.81975 231.30897,628.39021 229.70202,627.60197 C 229.86795,626.77962 231.27811,627.38111 232.03721,627.97017 C 232.0679,628.1676 233.66817,627.00786 233.55664,626.01307 C 233.35589,624.22231 233.71007,624.18278 234.79976,623.57891 C 236.41514,622.61858 242.91916,617.61798 243.91969,617.39073 C 244.37413,618.31125 244.98125,619.82675 244.84647,621.04513 C 244.69361,621.37206 244.11462,622.68658 243.94822,623.56246 C 243.47251,626.33599 243.2462,628.30448 241.70195,631.24435 L 239.6641,632.63157 C 238.61201,631.69949 237.64508,630.68267 236.69859,629.64544 z"
       id="path2555"
       sodipodi:nodetypes="ccccsccccccc" />
    <path
       style="opacity:1;fill:#ffffff;fill-opacity:1;stroke:#000000;stroke-width:1;stroke-linejoin:miter;stroke-miterlimit:4;stroke-dasharray:none;stroke-dashoffset:0;stroke-opacity:1"
       d="M 406.09593,392.13412 L 418.36507,367.05941 L 427.78193,347.54368 L 435.31432,332.58011 L 447.50448,307.08371 L 448.34774,306.92586 L 448.67513,305.64959 L 453.49355,296.10117 L 456.75052,289.61709 L 456.91582,287.28593 L 459.84964,282.28966 L 460.25032,281.15302 L 461.64927,280.56086 L 463.3416,280.5272 L 466.06032,282.44828 L 468.61841,283.38498 L 473.27648,283.50395 L 480.54209,283.50051 L 483.48667,282.59543 L 484.13262,283.14693 L 485.54283,283.11887 L 486.61061,294.24321 L 487.26051,309.18512 L 486.85907,317.37593 L 485.88522,325.15488 L 485.16529,331.51795 L 483.36235,336.63281 L 481.85141,342.23566 L 478.57904,347.94408 L 474.96811,354.36466 L 471.66482,358.52178 L 466.97937,364.11723 L 462.3943,367.66497 L 457.8233,371.91786 L 452.38916,375.3414 L 445.48139,379.14698 L 439.20398,382.72839 L 434.22562,384.23824 L 426.89049,387.84069 L 423.18565,389.53685 L 419.53857,390.59697 L 414.96507,391.18174 L 409.96851,391.77492 L 406.09593,392.13412 z"
       id="path3385" />
    <path
       style="opacity:1;fill:#ffffff;fill-opacity:1;stroke:#000000;stroke-width:0;stroke-linejoin:miter;stroke-miterlimit:4;stroke-dasharray:none;stroke-dashoffset:0;stroke-opacity:1"
       d="M 480.3074,353.27087 L 483.97064,345.93221 L 486.26288,340.596 L 488.09551,333.43483 L 489.51364,326.70516 L 490.05566,322.03864 L 491.29896,313.61945 L 491.06299,305.30023 L 490.86661,295.4283 L 490.28181,290.85473 L 489.51253,284.09803 L 488.90256,278.25521 L 488.10911,273.82687 L 493.49473,275.06003 L 494.35345,275.67782 L 497.47285,276.46227 L 502.06176,276.65316 L 501.4236,283.57894 L 500.43144,290.44121 L 499.16106,301.04773 L 497.57212,309.8265 L 494.94237,319.47247 L 493.11532,326.91569 L 491.32651,332.73569 L 488.9003,338.42728 L 486.13548,344.83102 L 483.81522,348.75697 L 481.55553,352.18791 L 480.3074,353.27087 z"
       id="path3387" />
    <text
       xml:space="preserve"
       style="font-size:10.77784634px;font-style:italic;font-variant:normal;font-weight:normal;font-stretch:normal;text-align:start;line-height:125%;writing-mode:lr-tb;text-anchor:start;fill:#000000;fill-opacity:1;stroke:none;stroke-width:1px;stroke-linecap:butt;stroke-linejoin:miter;stroke-opacity:1;font-family:Bitstream Vera Serif;-inkscape-font-specification:Bitstream Vera Serif Italic"
       x="-481.51956"
       y="-13.305631"
       id="text4924"
       sodipodi:linespacing="125%"
       transform="scale(1.0000121,0.9999879)"><tspan
         sodipodi:role="line"
         id="tspan4926"
         x="-481.51956"
         y="-13.305631" /></text>
  </g>
</svg>
