<?xml version="1.0" encoding="UTF-8" standalone="no"?>
<!-- Created with Inkscape (http://www.inkscape.org/) -->

<svg
   xmlns:dc="http://purl.org/dc/elements/1.1/"
   xmlns:cc="http://creativecommons.org/ns#"
   xmlns:rdf="http://www.w3.org/1999/02/22-rdf-syntax-ns#"
   xmlns:svg="http://www.w3.org/2000/svg"
   xmlns="http://www.w3.org/2000/svg"
   xmlns:xlink="http://www.w3.org/1999/xlink"
   xmlns:sodipodi="http://sodipodi.sourceforge.net/DTD/sodipodi-0.dtd"
   xmlns:inkscape="http://www.inkscape.org/namespaces/inkscape"
   id="svg2876"
   version="1.1"
   inkscape:version="0.47pre4 r22446"
   width="2592"
   height="1944"
   sodipodi:docname="pb_right_profile.svg">
  <metadata
     id="metadata2882">
    <rdf:RDF>
      <cc:Work
         rdf:about="">
        <dc:format>image/svg+xml</dc:format>
        <dc:type
           rdf:resource="http://purl.org/dc/dcmitype/StillImage" />
        <dc:title></dc:title>
      </cc:Work>
    </rdf:RDF>
  </metadata>
  <defs
     id="defs2880">
    <inkscape:perspective
       sodipodi:type="inkscape:persp3d"
       inkscape:vp_x="0 : 0.5 : 1"
       inkscape:vp_y="0 : 1000 : 0"
       inkscape:vp_z="1 : 0.5 : 1"
       inkscape:persp3d-origin="0.5 : 0.33333333 : 1"
       id="perspective2884" />
    <clipPath
       clipPathUnits="userSpaceOnUse"
       id="clipPath2911">
      <path
         style="fill:none;stroke:#000000;stroke-width:1px;stroke-linecap:butt;stroke-linejoin:miter;stroke-opacity:1"
         d="m 920.29348,310.18783 29.12322,-34.94785 125.2298,-29.12321 20.3863,-29.12321 46.5971,-5.82465 61.1587,180.56392 -11.6492,26.21089 -11.6493,17.47392 23.2985,32.03554 -23.2985,46.59713 64.071,69.89571 20.3863,-5.82464 52.4218,84.45731 -5.8247,17.47393 142.7038,209.68712 139.7914,116.49286 11.6493,69.8957 66.9833,110.6682 192.2132,64.0711 49.5095,52.4217 5.8246,90.282 -61.1587,23.2986 64.0711,142.7037 -14.5616,43.6848 168.9146,52.4218 34.9478,136.8791 -43.6848,49.5095 -442.6728,64.071 -166.0023,-20.3862 -55.3341,-46.5972 -693.13244,20.3863 -212.59944,-32.0355 -87.36964,-104.8436 -5.82464,-87.3696 66.98339,-90.282 -198.03784,-407.725 128.14213,-11.6492 180.56391,203.8624 37.86018,-75.7203 -32.03554,-200.9502 20.38625,-17.4739 -8.73696,-29.1232 -58.24643,-52.42179 43.68482,-64.07107 198.03784,-55.3341 131.05445,61.15875 -17.47393,61.15874 -52.42178,55.33407 -29.12321,69.8957 0,61.1588 244.63498,8.7369 66.9834,-8.7369 99.0189,-26.2109 37.8602,-5.8246 L 1097.9451,828.581 990.18919,717.9128 949.4167,575.20906 l -43.68482,-72.80803 14.5616,-99.01892 0,-93.19428 z"
         id="path2913" />
    </clipPath>
    <clipPath
       clipPathUnits="userSpaceOnUse"
       id="clipPath2921">
      <path
         style="fill:none;stroke:#000000;stroke-width:1px;stroke-linecap:butt;stroke-linejoin:miter;stroke-opacity:1"
         d="m 793.25419,1181.3327 -0.7601,-19.5728 -9.68286,-94.4569 -0.0883,-11.7376 9.25937,-17.3932 22.01149,-36.3081 -1.45616,-5.82464 -46.59714,2.91233 56.79027,-13.10545 39.31633,-21.84241 0,-5.82464 23.29857,-24.75473 2.91232,-30.57937 -16.01776,-14.56161 -61.41617,-20.98183 -74.26419,-2.65491 -66.72596,9.07514 -71.52095,21.15849 -29.63805,29.89546 -7.36914,19.59885 5.63283,18.48843 16.66504,6.6069 0.51343,5.30595 18.90759,11.56908 19.70486,7.89241 0.33817,24.06325 6.67763,11.561 3.3464,15.1723 -3.30223,19.991 -5.09656,-3.6404 -10.92121,0.364 -5.82464,3.0944 -2.54828,4.7325 -1.45616,9.8291 0.72808,6.0066 2.00222,4.1865 3.45838,2.9123 5.5931,4.0928 9.53728,96.7742 9.00953,64.8687 c -23.31355,20.5717 -23.73578,35.977 -37.32521,62.8093 l -4.89089,24.7118 -4.11865,18.5339 -52.51271,-39.1271 -37.0678,-29.8601 -44.27542,-35.0085 -30.88983,-24.7119 -21.62288,-26.7712 -24.71187,-27.8008 -14.41525,-19.5636 -3.08898,-1.0296 -7.20763,3.0889 -1.80191,6.178 1.54449,5.4058 4.37606,6.9501 28.83051,40.1568 45.30509,50.4534 56.63135,44.2754 52.77013,44.5329 39.38453,25.2267 4.89089,3.089 -4.11864,34.2362 -3.86123,40.4142 -3.34639,25.4841 -0.28898,4.4507 -7.17607,4.8162 -27.0286,11.5837 -9.78179,11.5837 -12.09851,-5.9205 -7.20762,-6.9502 -42.2161,-69.2448 -21.10806,-40.929 -26.77119,-50.4534 -20.59322,-35.0084 -14.67267,-30.8899 -11.06885,-28.8305 -13.38559,-36.0381 -11.32628,-24.7119 -10.29661,-24.7118 -5.1483,-17.5043 -5.14831,-8.2373 -6.17796,-1.0296 -3.08899,0 -2.57415,3.3463 -0.77224,5.9207 2.83157,11.841 6.17796,12.8708 6.43538,19.0487 19.82098,50.9682 21.36547,53.0276 15.70232,36.5529 16.98941,30.6324 19.04873,32.177 16.47457,40.1567 c 16.70811,20.4174 25.18346,45.2259 39.64195,67.1855 l 20.07839,34.751 -6.17796,16.4746 -8.23729,18.5339 -8.4947,4.1186 -34.75107,72.8485 4.89089,6.9502 7.20764,1.0296 -1.02966,33.4641 3.6038,16.732 -5.40571,7.4651 0.51483,9.2668 4.37606,3.089 8.75211,-1.287 23.16737,38.3548 13.3856,11.5837 -1.8019,9.0095 4.89089,3.3464 6.17796,-5.1482 31.66208,21.3654 31.40466,9.0096 0.77225,8.4946 6.17796,0.2574 3.08898,-5.9204 34.25202,5.4887 33.96302,0.6892 2.57416,7.2076 8.75212,1.8019 0,-9.0096 65.8983,0.7723 1.02966,6.6928 9.26695,0.7723 1.02966,-7.9799 66.15573,0 0.77224,6.4353 7.20762,0.7723 1.80191,-8.2373 67.95763,0 2.31674,7.7225 6.6928,3.8612 1.8019,-11.3263 66.67056,-0.2573 2.32189,6.1903 7.71588,1.2557 0.0444,-8.8285 65.8552,0.8676 2.5742,5.4057 6.4354,3.089 1.5445,-8.4947 68.2151,-0.5148 1.8019,7.9798 7.7225,-0.5148 0.5148,-8.7521 69.7594,0.7723 0.2575,6.4353 8.4947,1.2871 -0.2574,-9.0095 67.7002,0.2574 0.7722,5.4057 7.7226,1.5445 1.5444,-8.2373 67.7002,-0.5148 2.0593,7.7224 6.4354,0.5148 1.2871,-8.2372 67.9576,-1.2871 9.7818,10.554 3.089,15.9598 6.1779,1.8018 4.6336,-3.3464 36.939,21.8259 24.4546,8.4795 1.1583,5.7328 7.9798,1.2871 -0.7722,-5.9205 30.6191,4.5286 40.6849,-0.9249 c 3.8464,-1.1624 1.7959,2.7998 4.6244,2.6552 l 4.3504,0.5596 1.0381,-5.016 71.5878,-5.9212 3.8611,3.6038 4.6335,-1.2871 0.225,-4.9209 70.5642,-6.1479 3.392,3.0816 5.3093,-0.3725 0.8119,-5.1064 37.5938,-1.7213 34.0021,-6.1423 2.0128,5.0125 6.483,-1.2028 1.0662,-4.4819 70.9836,-6.8902 2.0614,4.4377 6.8549,-1.3997 -0.6898,-5.123 36.1246,-2.053 35.6944,-7.2578 0.7849,4.2498 7.4437,-0.8932 0.6146,-3.9284 26.6928,-5.2176 44.7903,-23.4248 8.4947,-8.2373 -0.7454,-7.5132 4.8641,-17.9709 -2.1505,-12.4168 -11.2351,-24.1361 -1.0297,-11.5837 -22.6526,-50.196 -5.9205,3.3464 -7.465,1.8019 -47.3645,-16.4746 -9.0095,-12.3559 -7.2076,-1.5445 -3.3464,4.6335 -56.6314,-11.3263 -5.1483,-13.3856 -9.2669,-1.0297 -0.2574,6.178 -13.1282,-3.089 10.2966,-27.8008 -0.7722,-23.9397 -6.178,-32.9491 -11.0689,-34.2362 -22.1377,-38.6123 -9.2669,-25.4842 -1.802,-9.2668 1.802,-14.6727 -11.3263,-1.0297 -17.5042,-4.1186 -1.0297,-14.4153 36.0381,-5.1483 11.3263,0 5.1483,3.089 -2.0593,-6.178 19.5635,-15.4449 13.3856,-27.8008 1.0297,-8.2373 5.1483,-1.0297 -13.3856,-33.9788 -8.2373,0 -8.2373,-15.4449 -29.8601,-12.356 -5.1483,-9.2669 -7.2077,0 -6.1779,6.178 -37.0678,-12.356 -3.089,-13.3856 -8.2373,0 -8.2373,5.1483 -41.1864,-9.2669 -5.1483,-8.2373 -6.178,0 -3.089,2.0593 -32.9491,-11.3262 -11.3263,-4.1187 -46.3348,-62.8093 -41.7013,-63.3242 0.7723,-23.9395 -3.3464,-24.712 -18.2764,-32.4343 -30.375,-29.86014 -36.553,-36.03813 -32.9492,-25.2267 -18.7913,-24.19704 -56.1166,-85.97669 -29.3453,-42.47352 -14.4152,-26.77118 -14.6727,-18.01907 -1.0296,-5.92055 -18.7914,-26.25636 -10.8114,-15.70233 -3.089,-5.1483 4.1187,-16.47458 -22.6526,-26.77119 -17.5042,-24.71186 -10.2966,-10.29661 -14.9301,-0.25741 -14.9301,-21.36547 -32.9491,-45.30509 -13.3856,-16.47457 1.8018,-14.41526 3.1025,-7.20335 -1.0616,-6.48935 6.4539,-13.07848 6.1779,-9.26695 -12.3559,-22.65255 -6.4354,-4.89089 -2.5741,-11.06885 4.8909,-2.57416 5.4057,0 4.1186,-2.83156 1.2871,-5.92055 -3.089,-1.02967 -0.5148,-2.31673 -0.2574,-3.08899 -1.8019,-1.28707 -0.2574,-3.3464 1.8019,-1.54449 0.7722,2.05932 2.0593,0.25742 4.1187,-1.02967 0,-2.31673 0.7722,-15.70233 -7.2076,-9.26695 0,-10.29661 3.089,-10.29661 -5.1483,-3.08898 -5.1483,-8.23729 -16.4746,-62.80933 3.089,-7.72245 -8.2373,-5.40572 -2.0593,-7.46505 -2.0594,-20.59322 -7.9799,-0.77224 -7.465,1.02966 -1.287,-13.64301 -5.9206,-3.08898 -19.821,4.37606 -17.2468,13.12818 -3.3464,3.08897 -98.33259,22.13772 -54.82946,41.70127 -2.31673,10.29661 15.70233,58.69068 -4.89089,19.82098 1.02966,27.80085 5.1483,30.63241 8.49471,16.98941 -5.92055,10.03919 1.02966,23.93962 -4.11865,2.05932 0.51484,10.55402 18.7913,-2.57415 8.23729,45.04768 9.00953,16.21715 4.8909,18.01907 14.41525,48.13665 37.5826,76.96716 25.7415,35.78073 26.2564,32.69173 28.8305,21.36547 10.2966,6.17796 39.1271,70.01695 52.5127,98.84746 50.4534,81.34321 43.2458,79.2839 36.3435,70.2495 38.3069,62.5768 -8.1725,1.9314 -21.1833,-7.4421 -1.3959,-32.2172 1.2701,-6.1016 -30.2388,-42.1472 -18.7913,-27.8008 c 0,0 -38.0974,-28.3157 -43.2457,-28.3157 -5.1484,0 -39.1271,-4.6335 -39.1271,-4.6335 l -28.0583,12.8707 -21.6229,24.7119 -11.3262,2.0593 -74.393,5.4058 1.287,-10.5541 -184.30927,3.089 -36.29555,-3.089 -51.22564,5.1483 -30.47462,9.5785 z"
         id="path2923"
         sodipodi:nodetypes="cccccccccccccccccccccccccccccccccccccccccccccccccccccccccccccccccccccccccccccccccccccccccccccccccccccccccccccccccccccccccccccccccccccccccccccccccccccccccccccccccccccccccccccccccccccccccccccccccccccccccccccccccccccccccccccccccccccccccccccccccccccccccccccccccccccccccccccccccccccccccccccccccccccccccccccccccccccccccccccccccccccccccccccccccccccccccccccccscccccccccc" />
    </clipPath>
  </defs>
  <sodipodi:namedview
     pagecolor="#ffffff"
     bordercolor="#666666"
     borderopacity="1"
     objecttolerance="10"
     gridtolerance="10"
     guidetolerance="10"
     inkscape:pageopacity="0"
     inkscape:pageshadow="2"
     inkscape:window-width="1680"
     inkscape:window-height="976"
     id="namedview2878"
     showgrid="false"
     inkscape:zoom="0.34336872"
     inkscape:cx="2007.8462"
     inkscape:cy="812.16464"
     inkscape:window-x="0"
     inkscape:window-y="25"
     inkscape:window-maximized="1"
     inkscape:current-layer="svg2876" />
  <image
     xlink:href="file:///home/ibotics/tmp/pb_right_profile.jpg"
     width="2592"
     height="1944"
     id="image2886"
     x="0"
     y="0"
     clip-path="url(#clipPath2921)"
     style="fill:#ffffff" />
  <path
     style="fill:#ffffff"
     d="m 601.32204,1377.1716 -4.11865,-2.8316 2.83157,-20.3358 9.00953,-33.7214 11.58369,-28.3156 10.81144,-14.4153 3.86123,-4.1186 1.80191,19.0487 -4.63348,6.4354 0.51483,4.1186 4.11865,3.8612 1.8019,7.2077 -3.86123,5.1483 -12.61334,11.5837 -10.81144,16.2171 -7.20763,15.1875 -2.57415,11.0689 -0.51483,3.8612 z"
     id="path2925" />
  <path
     style="fill:#ffffff"
     d="m 593.0214,1419.0541 6.3707,1.2742 4.91454,14.7436 5.27858,10.9212 3.6404,4.5505 -10.0111,-0.9101 -5.27858,-0.182 -5.82464,9.465 -3.64041,12.7414 -4.00444,8.0089 -0.9101,0.364 -0.18202,-4.9145 2.00222,-15.8358 3.27636,-20.2042 2.00222,-14.9256 0,-4.3685 2.36627,-0.7281 z"
     id="path2945" />
  <path
     style="fill:#ffffff"
     d="m 648.17348,999.86188 6.18868,0.91012 5.09656,0.182 3.6404,0.9101 -0.36404,1.4562 -3.45838,3.6404 -4.73252,6.0066 -4.91454,6.9168 -2.7303,3.4584 -3.09434,2.7303 -1.09212,-0.9101 0.36404,-6.9168 4.5505,-0.546 0.9101,-1.2742 -0.18202,-10.5572 -0.18202,-6.00662 z"
     id="path2947" />
  <path
     style="fill:#ffffff"
     d="m 1189.2585,1175.8729 5.9205,-8.4947 5.4057,-6.6928 4.8909,-4.6335 7.4651,-5.1483 7.7224,-5.4057 7.4651,-2.0593 12.6133,-0.7723 11.3263,-0.2574 6.178,0.2574 6.6928,4.1187 12.0985,6.6928 11.5837,6.1779 7.465,4.6335 6.178,5.4057 7.2076,6.178 3.089,4.8909 1.5445,3.3464 -4.6335,-2.3168 -7.465,-1.287 -10.5541,-0.7723 -12.0985,-1.2871 -8.2373,0 -5.4057,0 -0.7722,-5.6631 -17.5043,0.5148 -17.7616,1.0297 -22.3952,1.5445 -12.6133,0 -5.4057,0 z"
     id="path2949" />
  <path
     style="fill:#ffffff"
     d="m 1452.3369,935.70445 11.8411,10.81144 13.9004,13.38559 11.3263,11.32627 7.7224,12.35593 9.0096,11.84111 2.0593,7.72241 -1.0297,3.6039 9.5244,5.9205 10.0392,8.4947 10.8114,7.7225 13.3856,9.7817 8.4947,8.2373 8.7521,11.8411 4.1187,7.4651 2.8315,1.5445 0.5149,-6.6928 -3.8613,-8.4947 -6.9502,-12.0985 -7.7224,-10.8115 -13.9004,-14.1578 -10.0392,-14.1579 -12.6134,-12.09848 -14.9301,-13.90042 -12.6133,-11.32628 -9.5244,-7.72245 -9.2669,-7.20763 -7.4651,-5.40572 -7.9799,-5.66314 -6.4353,-2.31673 z"
     id="path2951" />
  <path
     style="fill:#ffffff"
     d="m 1401.9186,960.72757 8.3729,1.45616 10.1931,16.01777 14.1976,18.202 13.4695,20.7503 14.5616,17.838 11.6493,16.7458 10.9212,16.0178 8.0089,12.7414 4.0044,9.101 -8.3729,-8.3729 -10.5572,-13.8336 -12.7414,-19.6581 -10.1931,-12.7414 -21.1143,-29.8513 -12.3774,-18.56608 -10.5572,-12.74141 -5.4606,-8.00888 -4.0044,-5.09656 z"
     id="path2953" />
  <path
     style="fill:#ffffff;stroke:#000000;stroke-width:1px;stroke-linecap:butt;stroke-linejoin:miter;stroke-opacity:1"
     d="m 995.28575,579.57754 8.00885,37.13209 11.6493,27.66705 13.8335,32.03554 18.2021,32.03553 18.202,29.85129 16.7458,21.84241 17.4739,18.93009 16.0178,16.74584 -10.1931,-23.29856 -20.3863,-36.40402 -22.5705,-37.13209 -9.465,-15.28969 -4.3685,-9.46504 -5.8246,-2.91232 -13.1055,-27.66706 -13.8335,-24.02665 -6.3707,-2.7303 -1.4562,-7.46282 -12.55935,-29.85129 z"
     id="path2955"
     sodipodi:nodetypes="cccccccccccccccccccc" />
  <path
     style="fill:#ffffff"
     d="m 1085.2717,737.76914 c -1.0291,-1.86642 -22.1101,-36.54259 -28.0685,-46.16981 l -4.7794,-7.72246 -2.1287,-4.63347 -2.1286,-4.63348 -2.9383,-1.49395 -2.9383,-1.49395 -6.7131,-14.14403 -6.7132,-14.14402 -6.7459,-11.69 -6.7459,-11.69 -3.2176,-1.3783 -3.2177,-1.3783 -0.7836,-3.92111 -0.7836,-3.92111 -4.8474,-11.49703 c -2.66602,-6.32337 -4.84735,-11.52504 -4.84735,-11.55928 0,-0.0342 0.20595,-0.0443 0.45767,-0.0223 l 0.45767,0.04 4.82381,11.45498 4.8237,11.45498 0.719,3.66816 c 0.3954,2.0175 0.7292,3.68059 0.7418,3.69577 0.012,0.0152 1.4273,0.62333 3.1438,1.35143 l 3.121,1.32383 6.8981,11.96981 6.8982,11.96981 6.583,13.88457 6.5831,13.88457 2.9426,1.49599 2.9426,1.49599 2.2197,4.82654 2.2197,4.82654 4.4713,7.20762 c 7.972,12.85094 28.0874,46.00016 29.0342,47.84706 l 0.2474,0.48266 -0.4853,-0.004 c -0.4827,-0.004 -0.4893,-0.0113 -1.2459,-1.38361 l 0,7e-5 z"
     id="path2957" />
  <path
     style="fill:#ffffff"
     d="m 1064.8214,738.48108 c -0.2508,-0.37164 -4.4101,-7.16258 -9.2428,-15.09097 -7.9176,-12.98945 -9.6982,-16.01928 -18.0021,-30.63241 l -9.2153,-16.21716 -7.0289,-16.28152 c -3.8659,-8.95483 -9.6098,-22.42087 -12.7644,-29.92452 l -5.7355,-13.64301 -3.22578,-14.99444 c -1.7742,-8.24694 -3.25718,-15.0958 -3.29551,-15.21968 -0.0572,-0.18488 0.011,-0.22523 0.38078,-0.22523 0.31814,0 0.46982,0.0662 0.51632,0.22523 0.0362,0.12388 1.51563,6.95502 3.28759,15.1803 l 3.2218,14.95506 5.869,13.9398 c 3.228,7.6669 8.9581,21.09273 12.7337,29.8352 l 6.8646,15.89539 9.2605,16.28152 c 8.3872,14.74604 10.1012,17.65918 18.174,30.88983 4.9025,8.03457 9.0807,14.81937 9.2849,15.07731 0.2043,0.25796 0.3714,0.50411 0.3714,0.54701 0,0.0429 -0.2246,0.078 -0.4991,0.078 -0.4585,0 -0.5364,-0.0551 -0.9552,-0.67572 z"
     id="path2959" />
  <path
     style="fill:#ffffff"
     d="m 996.2808,586.12687 c -0.10329,-0.17537 -1.3998,-6.35607 -1.34483,-6.41104 0.0296,-0.0296 0.22336,-0.0867 0.43057,-0.12689 l 0.37674,-0.0731 1.35143,3.23168 c 0.74328,1.77742 1.37202,3.29048 1.39719,3.36234 0.0272,0.0776 -0.149,0.11412 -0.43425,0.0899 -0.44494,-0.0378 -0.49832,-0.0878 -0.73048,-0.68429 -0.28054,-0.7208 -0.57809,-1.10985 -0.44296,-0.57919 0.0451,0.17698 0.11826,0.53897 0.16266,0.80443 0.0787,0.47042 0.0707,0.48265 -0.31424,0.48265 -0.21724,0 -0.42056,-0.0434 -0.45183,-0.0965 l 0,0 z"
     id="path2963" />
  <path
     style="fill:#ffffff"
     d="m 1106.6073,787.21271 c -4.6433,-4.86055 -12.1809,-12.89164 -16.7502,-17.84689 -8.1105,-8.79545 -8.3853,-9.11045 -11.5626,-13.25688 -1.7901,-2.33605 -5.4442,-7.10302 -8.1203,-10.59327 l -4.8657,-6.34592 0.5669,0.0392 0.5669,0.0393 7.8902,10.29661 7.8902,10.29661 8.4906,9.20259 c 8.7818,9.51826 23.0256,24.5292 23.0924,24.33614 0.021,-0.0604 -1.9854,-4.73542 -4.4586,-10.38891 l -4.4967,-10.27906 -9.2933,-16.59292 c -5.1113,-9.1261 -9.3244,-16.67394 -9.3624,-16.77296 -0.053,-0.13844 0.042,-0.17057 0.4119,-0.13907 l 0.4811,0.041 9.2589,16.53415 9.259,16.53414 5.0896,11.63836 c 3.9739,9.08676 5.052,11.66363 4.9177,11.75366 -0.095,0.0634 -0.2601,0.1662 -0.3677,0.22841 -0.1522,0.088 -2.0675,-1.84638 -8.6379,-8.72425 l 0,0 z"
     id="path2965" />
  <path
     style="fill:#ffffff"
     d="m 1278.3242,934.9322 22.1377,37.0678 49.9385,72.0763 23.6822,42.2161 34.4937,60.75 30.8898,55.6017 18.0191,33.9788 7.2076,15.9597 5.6631,-16.9894 10.8115,-15.9597 7.2076,-7.7225 -18.5339,-25.2267 -34.4936,-46.3347 -28.8305,-39.1271 -23.6823,-35.0085 -18.019,-26.7712 -24.7119,-33.464 -26.2563,-32.94914 -20.0784,-27.28602 -15.4449,-10.81144 z"
     id="path2967" />
  <path
     style="fill:#ffffff"
     d="m 1824.5692,1491.1341 -5.8246,4.0044 -5.4606,0 -0.3641,6.5527 12.3774,6.9168 8.3729,12.3774 8.3729,15.2896 6.5528,13.4695 2.5482,13.4695 1.8202,10.9212 -2.9123,8.3729 -1.8202,11.6493 -4.0044,8.3729 4.0044,9.8291 2.9123,9.4651 15.2897,2.9123 2.5483,-15.2897 1.8202,-16.0178 0.364,-8.7369 -6.1886,-13.1055 -4.0045,-10.9212 -3.6404,-15.2897 -2.9123,-10.1931 -5.4606,-9.465 -7.2808,-12.7414 -9.4651,-11.6493 -6.5527,-6.9168 -1.0921,-3.2763 z"
     id="path2969" />
  <path
     style="fill:#ffffff"
     d="m 1629.4386,1418.8729 8.7521,16.9894 12.3559,20.0784 8.7521,16.4746 -25.7415,-1.5445 -22.6525,-0.5149 -4.1187,-16.4745 0,-7.7225 11.3263,-11.3263 5.6631,-9.2669 5.6632,-6.6928 z"
     id="path2971" />
  <path
     style="fill:#ffffff"
     d="m 1666.5064,1484.5138 -23.9397,-0.5149 -25.7415,-0.2574 -6.9502,0 -2.3167,5.4057 3.6038,3.089 14.6727,5.6632 21.6228,14.4152 5.9206,5.6632 9.5243,-7.4651 3.8613,7.9799 6.1779,21.3654 5.1483,8.4948 3.6039,7.2076 12.8707,4.1186 8.7521,2.0593 3.6039,-1.5444 0,-3.8613 -4.3761,-6.9502 -8.7521,-12.6133 -6.6928,-13.9005 -8.4947,-14.6726 -8.2373,-12.356 -2.8316,-6.9502 -1.0296,-4.376 z"
     id="path2973" />
  <path
     style="fill:#ffffff"
     d="m 1677.1329,1467.1074 -7.2808,3.6404 -3.6404,-0.7281 -5.0965,-10.1931 -17.4739,-30.5794 -6.1887,-10.5571 1.8202,0 10.1931,11.6493 14.5616,12.3773 3.2764,7.2808 4.7325,4.3685 5.4606,2.5483 4.0044,4.0044 1.4562,4.7326 -5.8247,1.4561 z"
     id="path2975" />
  <path
     style="fill:#ffffff"
     d="m 1688.7822,1482.0331 -9.8291,-1.8202 0.7281,6.9167 7.6449,12.3774 9.8291,17.838 10.1931,19.6581 7.2808,13.4695 2.9123,12.0133 -2.9123,8.373 -8.3729,3.2763 -9.101,-2.5483 -9.4651,-2.5482 0.3641,9.829 27.667,6.9168 28.0311,5.0966 8.737,4.7325 4.0044,-7.6449 5.8246,-0.728 1.8202,6.1886 0.3641,4.3685 60.7947,15.6537 -2.9123,-20.0222 -2.1843,-20.0222 -3.2763,-14.1975 -6.5528,-15.6538 -9.829,-13.4694 -10.5572,-10.5572 -9.4651,-7.2808 -3.6404,-5.4606 -16.0177,3.2763 -10.9212,0.3641 -11.2853,-0.3641 -8.3729,-5.4606 -12.3774,-6.5527 -8.7369,-7.2808 -6.9168,-8.0089 -6.1887,-2.1842 -7.2808,1.4562 z"
     id="path2977" />
</svg>
