<?xml version="1.0" encoding="UTF-8" standalone="no"?>
<!-- Created with matplotlib (http://matplotlib.sourceforge.net/) -->

<svg
   xmlns:dc="http://purl.org/dc/elements/1.1/"
   xmlns:cc="http://creativecommons.org/ns#"
   xmlns:rdf="http://www.w3.org/1999/02/22-rdf-syntax-ns#"
   xmlns:svg="http://www.w3.org/2000/svg"
   xmlns="http://www.w3.org/2000/svg"
   xmlns:xlink="http://www.w3.org/1999/xlink"
   xmlns:sodipodi="http://sodipodi.sourceforge.net/DTD/sodipodi-0.dtd"
   xmlns:inkscape="http://www.inkscape.org/namespaces/inkscape"
   width="576pt"
   height="432pt"
   viewBox="0 0 576 432"
   version="1.1"
   id="svg1"
   inkscape:version="0.47pre4 r22446"
   sodipodi:docname="pbDataReverseHeadingFixed.svg"
   inkscape:export-filename="/home/thomas/docs/thesis/thomas/images/pbDataReverseHeadingFixed.png"
   inkscape:export-xdpi="600"
   inkscape:export-ydpi="600">
  <metadata
     id="metadata557">
    <rdf:RDF>
      <cc:Work
         rdf:about="">
        <dc:format>image/svg+xml</dc:format>
        <dc:type
           rdf:resource="http://purl.org/dc/dcmitype/StillImage" />
        <dc:title></dc:title>
      </cc:Work>
    </rdf:RDF>
  </metadata>
  <defs
     id="defs555">
    <inkscape:perspective
       sodipodi:type="inkscape:persp3d"
       inkscape:vp_x="0 : 270 : 1"
       inkscape:vp_y="0 : 1000 : 0"
       inkscape:vp_z="720 : 270 : 1"
       inkscape:persp3d-origin="360 : 180 : 1"
       id="perspective559" />
    <inkscape:perspective
       id="perspective3241"
       inkscape:persp3d-origin="0.5 : 0.33333333 : 1"
       inkscape:vp_z="1 : 0.5 : 1"
       inkscape:vp_y="0 : 1000 : 0"
       inkscape:vp_x="0 : 0.5 : 1"
       sodipodi:type="inkscape:persp3d" />
    <marker
       inkscape:stockid="Arrow1Lstart"
       orient="auto"
       refY="0"
       refX="0"
       id="Arrow1Lstart"
       style="overflow:visible">
      <path
         id="path4248"
         d="M 0,0 5,-5 -12.5,0 5,5 0,0 z"
         style="fill-rule:evenodd;stroke:#000000;stroke-width:1pt;marker-start:none"
         transform="matrix(0.8,0,0,0.8,10,0)" />
    </marker>
  </defs>
  <sodipodi:namedview
     pagecolor="#ffffff"
     bordercolor="#666666"
     borderopacity="1"
     objecttolerance="10"
     gridtolerance="10"
     guidetolerance="10"
     inkscape:pageopacity="0"
     inkscape:pageshadow="2"
     inkscape:window-width="1920"
     inkscape:window-height="1151"
     id="namedview553"
     showgrid="false"
     inkscape:zoom="1.2361274"
     inkscape:cx="395.01589"
     inkscape:cy="312.93263"
     inkscape:window-x="0"
     inkscape:window-y="25"
     inkscape:window-maximized="1"
     inkscape:current-layer="svg1" />
  <g
     id="figure1">
    <g
       id="patch1">
      <path
         style="fill: #ffffff; stroke: #ffffff; stroke-width: 1.000000; stroke-linejoin: round; stroke-linecap: square;  opacity: 1.000000"
         d="M0.000000 432.000000L576.000000 432.000000L576.000000 0.000000 L0.000000 0.000000L0.000000 432.000000"
         id="path5" />
    </g>
    <g
       id="axes1">
      <g
         id="patch2">
        <path
           style="fill: #ffffff; opacity: 1.000000"
           d="M72.000000 388.800000L518.400000 388.800000L518.400000 43.200000 L72.000000 43.200000L72.000000 388.800000"
           id="path9" />
      </g>
      <g
         id="line2d1">
        <defs
           id="defs12">
          <clipPath
             id="p50431ccdcb28178602d99d9270004dde">
            <rect
               x="72.000000"
               y="43.200000"
               width="446.400000"
               height="345.600000"
               id="rect15" />
          </clipPath>
        </defs>
        <path
           style="fill: none; stroke: #0000ff; stroke-width: 1.000000; stroke-linejoin: round; stroke-linecap: square;  opacity: 1.000000"
           clip-path="url(#p50431ccdcb28178602d99d9270004dde)"
           d="M72.000000 250.560000L112.813714 250.560000L114.089143 250.155786 L117.915429 250.523090L119.190857 243.053361L121.741714 212.401889 L122.379429 211.319194L123.654857 220.091628L124.930286 219.080817 L126.205714 220.444623L126.843429 217.498314L128.118857 219.132726 L128.756571 220.738245L130.032000 218.168364L131.307429 218.317317 L131.945143 219.898022L133.220571 219.642762L133.858286 220.852362 L134.496000 218.685243L135.133714 220.357947L136.409143 219.764137 L137.046857 217.775002L138.322286 217.931213L138.960000 220.342464 L139.597714 219.152010L140.235429 216.416724L140.873143 215.412204 L142.148571 216.812851L142.786286 218.482376L143.424000 215.711908 L144.061714 217.492508L144.699429 216.486259L145.337143 217.568955 L145.974857 214.973637L146.612571 216.328873L147.888000 214.262254 L149.163429 218.855900L149.801143 213.142164L150.438857 211.305439 L151.714286 210.111944L152.352000 208.463501L152.989714 210.489339 L153.627429 208.125850L154.265143 210.156803L154.902857 213.791754 L155.540571 208.958331L156.178286 210.637048L156.816000 209.490002 L157.453714 213.881610L158.091429 211.113492L159.366857 208.265541 L160.642286 211.228992L161.280000 209.098506L162.555429 210.270920 L163.830857 213.400189L164.468571 209.075489L165.106286 213.261949 L165.744000 210.724209L167.019429 211.666314L168.294857 208.525778 L168.932571 215.171735L169.570286 212.115387L170.208000 210.779574 L170.845714 212.238213L171.483429 208.968561L172.758857 208.013806 L173.396571 210.183068L174.034286 207.290258L174.672000 211.160771 L175.309714 208.286899L175.947429 212.946762L177.860571 207.016197 L178.498286 209.820810L179.136000 207.713549L181.686857 208.830666 L182.962286 208.324017L184.237714 212.267658L184.875429 206.468974 L185.513143 209.656028L186.788571 208.026939L187.426286 206.097108 L188.064000 215.034186L189.339429 211.034696L189.977143 207.604063 L190.614857 209.595825L191.252571 205.473370L191.890286 208.644319 L193.165714 206.467108L194.441143 209.218153L195.716571 207.682030 L196.354286 205.627645L196.992000 207.541233L198.267429 220.259105 L198.905143 247.550515L200.180571 253.680146L200.818286 250.560000 L216.123429 250.560000L217.398857 249.646925L218.674286 250.560000 L240.356571 250.560000L240.994286 243.250975L241.632000 239.881997 L242.907429 225.197107L244.182857 230.800389L244.820571 227.368581 L245.458286 217.087396L246.733714 213.601052L248.009143 215.594266 L248.646857 217.704361L249.922286 219.378171L250.560000 216.313597 L251.835429 208.397906L253.748571 200.685980L254.386286 198.047393 L255.661714 204.688305L256.299429 199.399311L256.937143 205.536545 L257.574857 203.957844L258.850286 198.127434L260.763429 201.725891 L261.401143 200.037220L262.038857 203.210796L262.676571 202.095130 L263.952000 197.256799L265.227429 195.468180L265.865143 196.560553 L266.502857 193.891069L267.140571 200.346255L267.778286 197.092431 L268.416000 198.435226L269.691429 195.360146L270.329143 197.508119 L271.604571 196.665201L272.242286 198.676247L272.880000 197.047780 L273.517714 193.183488L274.155429 191.724019L274.793143 186.392724 L275.430857 184.096558L276.068571 187.519864L276.706286 194.064353 L277.981714 191.358858L279.257143 190.446405L279.894857 185.798915 L281.170286 190.670423L281.808000 189.540380L283.083429 189.360253 L284.358857 192.163000L284.996571 188.375293L286.272000 193.825336 L286.909714 191.058670L288.185143 191.539331L288.822857 189.291341 L290.098286 188.510216L290.736000 191.444221L291.373714 188.174984 L292.011429 182.716577L292.649143 187.192512L293.286857 183.799619 L293.924571 189.984407L294.562286 192.400566L295.200000 188.193370 L295.837714 190.799608L297.113143 186.060326L298.388571 190.731940 L299.026286 188.628895L300.301714 190.033482L300.939429 187.418258 L302.214857 187.673172L302.852571 190.791176L304.128000 186.156334 L305.403429 194.872850L306.678857 186.056456L307.316571 189.911624 L307.954286 186.245499L308.592000 187.703171L309.229714 191.784084 L310.505143 190.060093L311.780571 187.575782L313.056000 189.031726 L314.331429 191.076918L315.606857 186.779451L316.244571 189.336891 L316.882286 185.762488L317.520000 188.846830L319.433143 191.396598 L320.070857 187.155395L321.346286 169.519980L321.984000 160.239583 L322.621714 158.499556L323.259429 148.428495L323.897143 151.879173 L324.534857 143.993687L325.172571 150.464218L325.810286 142.332595 L326.448000 145.701988L327.723429 144.781655L328.998857 139.273551 L329.636571 141.064658L330.274286 136.391247L331.549714 150.029522 L332.187429 140.951163L332.825143 144.822505L333.462857 143.384809 L334.100571 139.849805L334.738286 142.987369L336.013714 144.113334 L337.289143 146.288333L337.926857 143.647534L339.202286 143.912402 L339.840000 142.767291L340.477714 137.942577L341.115429 139.661315 L341.753143 142.971748L343.028571 140.996229L343.666286 138.779620 L345.579429 148.431744L346.217143 138.731443L346.854857 158.347146 L348.130286 173.340449L349.405714 180.290949L350.043429 174.426808 L351.318857 170.487107L352.594286 173.487744L353.869714 190.264689 L354.507429 191.377244L355.145143 199.891930L355.782857 203.450780 L356.420571 210.659651L357.058286 209.009134L357.696000 211.026125 L358.971429 203.889277L359.609143 205.756416L360.884571 211.861164 L362.160000 254.482906L362.797714 255.778214L363.435429 254.318607 L364.073143 251.333176L365.348571 250.560000L366.624000 254.646651 L367.899429 288.421102L368.537143 289.735142L369.174857 288.497203 L369.812571 286.053535L370.450286 282.223112L371.088000 286.990111 L371.725714 298.276163L372.363429 300.078536L373.638857 312.282017 L374.914286 316.041661L376.189714 318.247488L377.465143 315.023800 L378.740571 316.160963L380.016000 320.287634L381.291429 316.566766 L382.566857 318.143255L383.204571 315.670211L383.842286 319.705021 L384.480000 318.662415L385.755429 318.410473L387.030857 317.194168 L387.668571 315.314381L390.219429 318.605668L391.494857 318.488509 L392.770286 316.781038L393.408000 317.908524L394.683429 318.770243 L395.958857 317.644554L396.596571 318.841644L399.147429 317.749478 L400.422857 321.017057L401.698286 326.530068L402.973714 324.195333 L403.611429 325.359936L404.249143 333.802253L405.524571 335.480210 L406.162286 338.075942L406.800000 335.852767L407.437714 337.104530 L408.713143 334.177160L409.988571 334.100436L410.626286 328.359260 L411.264000 331.742131L412.539429 341.729833L413.177143 332.537149 L414.452571 334.168036L415.728000 337.839552L417.003429 334.872991 L418.278857 334.635978L419.554286 332.333729L420.192000 334.176538 L421.467429 331.768466L422.105143 335.814889L423.380571 328.374812 L424.656000 338.962614L425.293714 333.262218L425.931429 334.413481 L426.569143 333.200563L427.844571 341.837660L429.120000 331.192212 L429.757714 334.814100L430.395429 333.340393L431.670857 337.273943 L432.946286 331.454177L433.584000 338.185498L434.859429 333.523008 L435.497143 337.920492L436.134857 350.284124L436.772571 353.976307 L437.410286 348.121912L438.048000 350.426304L438.685714 360.843103 L439.323429 355.526254L439.961143 354.447844L441.236571 363.624630 L441.874286 361.183173L442.512000 365.482161L443.149714 360.305418 L445.062857 354.550833L445.700571 360.899297L446.976000 351.503747 L447.613714 363.875397L448.251429 348.303767L448.889143 358.339715 L449.526857 359.970186L450.802286 359.134180L451.440000 365.726638 L452.077714 359.147174L453.990857 362.261998L454.628571 364.369398 L455.904000 362.395607L456.541714 354.886134L457.179429 362.797540 L457.817143 360.822436L458.454857 363.714970L459.092571 359.459804 L459.730286 362.507167L460.368000 361.141563L461.005714 368.735985 L461.643429 359.327578L462.918857 359.498719L463.556571 370.136563 L464.832000 352.186376L465.469714 353.302180L466.745143 371.173363 L467.382857 356.519785L468.658286 355.970557L469.933714 359.406996 L470.571429 356.665006L471.209143 367.598892L471.846857 359.525261 L472.484571 363.691261L473.760000 356.310628L474.397714 359.259356 L475.035429 356.537964L475.673143 358.549978L476.310857 365.643418 L476.948571 350.325320L477.586286 361.569070L478.224000 359.679122 L478.861714 363.293199L479.499429 355.332234L480.774857 362.826225 L482.050286 355.370388L482.688000 359.219543L483.963429 357.970959 L484.601143 356.309315L485.238857 358.777797L486.514286 356.731016 L487.789714 358.396739L489.065143 364.330276L489.702857 350.806533 L490.340571 356.820319L490.978286 358.263959L492.253714 356.486193 L493.529143 355.479667L494.166857 356.613512L494.804571 364.153605 L496.080000 357.881311L496.717714 360.867709L497.355429 359.522980 L497.993143 354.808719L498.630857 358.117425L499.268571 354.906801 L500.544000 359.640829L501.819429 344.786458L502.457143 315.092506 L503.094857 269.826094L503.732571 253.524488L504.370286 246.367388 L505.008000 247.628344L505.645714 251.432156L506.921143 251.430221 L508.196571 253.538934L509.472000 254.247345L510.109714 255.654766 L511.385143 255.155789L512.022857 254.146844L513.298286 254.301742 L514.573714 253.686159L515.211429 254.719434L516.486857 256.072873 L518.400000 250.244329L518.400000 250.244329"
           id="path17" />
      </g>
      <g
         id="line2d2">
        <path
           style="fill: none; stroke: #008000; stroke-width: 1.000000; stroke-linejoin: round; stroke-linecap: square;  opacity: 1.000000"
           clip-path="url(#p50431ccdcb28178602d99d9270004dde)"
           d="M72.000000 250.195116L73.275429 248.753549L73.913143 247.086513 L74.550857 249.154030L75.826286 248.235771L77.101714 250.131594 L78.377143 249.174973L79.652571 249.927621L80.928000 248.260861 L81.565714 249.379223L82.841143 247.994542L83.478857 250.401715 L84.116571 248.555244L85.392000 248.272059L86.029714 249.439772 L87.305143 249.244646L87.942857 248.057027L88.580571 249.469217 L89.856000 249.137994L92.406857 249.403830L94.957714 248.302126 L96.233143 249.903498L96.870857 248.676826L98.146286 249.670633 L100.697143 250.034412L101.972571 249.095485L103.248000 249.416548 L104.523429 248.450941L105.161143 249.951191L106.436571 249.681070 L107.712000 247.481603L108.349714 249.216653L109.625143 248.638257 L110.262857 249.676163L111.538286 249.209119L112.813714 250.025841 L114.089143 248.443200L114.726857 250.386924L116.002286 249.860644 L117.277714 250.163873L117.915429 248.883494L118.553143 250.032200 L119.828571 241.468301L121.104000 205.454638L121.741714 209.540805 L122.379429 207.178491L123.017143 225.096676L124.292571 221.173770 L125.568000 217.793111L126.205714 219.207375L126.843429 218.069591 L127.481143 214.641101L128.118857 223.679992L128.756571 216.564365 L129.394286 219.237788L130.032000 215.436879L131.307429 215.839227 L131.945143 222.143247L133.220571 221.121585L134.496000 214.054341 L135.133714 222.219625L136.409143 216.924687L137.046857 221.180682 L137.684571 215.578161L138.322286 216.895242L138.960000 221.120963 L140.235429 214.136456L141.510857 217.328901L142.148571 220.251156 L143.424000 217.506678L144.699429 218.431572L147.250286 212.122644 L148.525714 216.832620L151.076571 205.500534L151.714286 206.942308 L152.989714 208.769149L153.627429 214.581658L154.902857 210.838395 L155.540571 209.824128L156.816000 213.044774L158.729143 205.423949 L160.004571 211.824599L161.280000 206.772549L161.917714 212.378665 L163.193143 209.489933L164.468571 209.617390L165.106286 205.477586 L165.744000 212.035139L166.381714 210.880489L167.019429 205.678932 L167.657143 209.814451L168.294857 204.784796L168.932571 215.907448 L169.570286 209.900644L170.208000 215.837914L170.845714 205.084431 L172.758857 212.790620L174.034286 204.694387L174.672000 210.550441 L175.947429 213.124746L176.585143 208.514097L177.860571 205.594260 L178.498286 209.199767L179.773714 208.210591L181.049143 205.169172 L182.324571 204.510874L182.962286 206.566641L184.237714 214.243592 L185.513143 202.184778L186.788571 219.245253L187.426286 211.031309 L188.064000 214.581796L188.701714 205.318748L189.339429 201.718702 L189.977143 203.235748L191.252571 204.865459L191.890286 210.410335 L193.165714 212.312102L193.803429 206.501668L194.441143 207.800986 L195.078857 204.152694L195.716571 206.404209L196.354286 200.146429 L196.992000 211.722785L197.629714 209.139633L198.905143 242.409231 L199.542857 236.704343L200.180571 246.259561L200.818286 248.127875 L202.093714 250.230574L202.731429 247.810821L204.006857 249.929211 L204.644571 248.715533L205.282286 249.856220L205.920000 248.737859 L207.195429 248.560082L207.833143 250.039526L210.384000 249.213266 L211.659429 247.610995L212.297143 249.895480L213.572571 250.085975 L214.210286 248.722652L214.848000 250.397292L216.123429 249.138202 L216.761143 247.975258L217.398857 249.429473L218.036571 247.297398 L218.674286 249.608494L219.949714 249.490022L221.225143 248.908032 L222.500571 249.438113L223.138286 247.784970L223.776000 249.415649 L225.051429 249.158454L226.326857 249.974484L226.964571 248.492068 L228.240000 248.551096L228.877714 247.415109L230.153143 249.965015 L232.704000 249.496589L233.979429 249.959002L235.254857 249.670011 L235.892571 248.632658L237.168000 249.440809L238.443429 248.980815 L239.718857 249.071916L240.356571 247.424233L240.994286 240.187784 L241.632000 229.081720L242.269714 227.857951L242.907429 221.510730 L244.182857 228.607350L244.820571 226.477832L245.458286 210.093903 L246.096000 206.488259L246.733714 214.445699L248.009143 211.656914 L249.284571 221.525660L250.560000 216.573834L251.835429 200.775491 L253.110857 196.006833L253.748571 199.128223L254.386286 200.347430 L255.024000 191.759409L255.661714 206.908163L256.937143 199.539072 L257.574857 198.376474L258.212571 200.385516L259.488000 199.122140 L260.763429 203.041382L262.038857 199.417075L263.314286 191.797217 L263.952000 187.798072L265.227429 194.694935L265.865143 206.112177 L266.502857 194.428754L267.140571 198.569318L267.778286 199.736755 L268.416000 194.199483L269.053714 195.499077L270.966857 198.069443 L271.604571 201.340685L272.242286 196.807450L272.880000 194.888609 L273.517714 182.199145L274.155429 178.298081L274.793143 180.066102 L275.430857 184.644334L276.068571 182.788600L276.706286 199.595267 L277.344000 195.282109L278.619429 179.957998L279.257143 187.899540 L280.532571 188.901228L281.808000 186.135944L282.445714 188.435566 L283.083429 187.234122L283.721143 184.042161L285.634286 192.759229 L286.272000 180.704701L286.909714 196.464476L288.185143 190.904740 L288.822857 193.129021L289.460571 187.098578L290.098286 184.443679 L290.736000 188.286958L291.373714 180.139922L292.011429 186.256627 L292.649143 184.504712L293.286857 193.187497L293.924571 186.238587 L294.562286 189.219041L295.200000 190.571236L295.837714 188.095565 L297.113143 192.836989L297.750857 188.166067L298.388571 186.176863 L299.026286 194.327562L300.301714 184.063795L300.939429 192.219126 L301.577143 188.351862L302.852571 185.618304L303.490286 191.323400 L304.765714 185.231025L305.403429 180.298276L306.678857 190.548910 L307.316571 182.458068L307.954286 188.623227L309.229714 190.740303 L309.867429 194.176120L311.142857 190.349222L311.780571 186.799634 L313.693714 192.137564L314.331429 190.584714L315.606857 191.869102 L316.244571 179.892058L318.157714 190.275748L318.795429 193.550170 L320.070857 182.879977L321.346286 175.224384L321.984000 156.847519 L322.621714 153.261366L323.259429 162.562844L323.897143 135.221184 L324.534857 152.736192L325.172571 133.355013L326.448000 146.259302 L327.723429 144.919480L328.361143 142.112586L328.998857 136.470943 L330.912000 150.727841L331.549714 143.262467L332.187429 144.587290 L332.825143 139.378130L333.462857 137.212877L334.738286 140.096148 L335.376000 142.687941L336.651429 143.157612L337.289143 138.901617 L338.564571 144.034606L339.840000 135.775043L341.115429 143.682094 L341.753143 142.632092L342.390857 137.124472L343.028571 142.747108 L343.666286 139.284541L345.579429 144.859139L346.217143 146.600271 L346.854857 143.064438L349.405714 184.352026L351.318857 167.305789 L352.594286 173.738995L353.232000 178.789455L354.507429 197.062364 L355.145143 198.125914L355.782857 202.034304L357.058286 217.636278 L357.696000 216.518607L358.333714 198.076216L358.971429 205.285571 L359.609143 203.629248L360.246857 206.948183L360.884571 212.275953 L361.522286 241.247946L362.797714 234.128172L364.073143 248.098084 L365.348571 249.862234L366.624000 249.743416L367.261714 235.226281 L367.899429 207.619822L368.537143 210.660964L369.812571 219.333312 L371.088000 222.173038L371.725714 206.352092L372.363429 203.093084 L373.638857 183.740314L374.276571 182.288172L375.552000 182.680358 L376.189714 190.341827L376.827429 185.978488L378.102857 185.121539 L378.740571 186.392863L379.378286 180.331661L380.016000 177.754798 L380.653714 186.163039L381.291429 181.861286L381.929143 183.706237 L382.566857 180.444603L383.204571 183.851182L383.842286 182.547924 L385.117714 184.788518L385.755429 182.328123L386.393143 184.275855 L387.668571 182.378097L388.944000 182.605225L389.581714 179.391560 L390.219429 183.906271L391.494857 180.752809L392.770286 186.978724 L393.408000 182.269578L394.683429 185.950702L395.321143 184.853284 L395.958857 181.805023L396.596571 183.986035L397.234286 182.414730 L397.872000 184.685253L399.785143 180.650166L401.060571 174.898068 L401.698286 177.693627L402.336000 175.991892L402.973714 179.069668 L404.886857 161.140493L406.162286 157.520886L406.800000 161.835356 L407.437714 159.923704L408.075429 163.732700L408.713143 171.980721 L409.988571 165.261842L410.626286 171.423821L411.264000 163.876608 L411.901714 170.988918L412.539429 167.797924L413.177143 169.084869 L413.814857 172.671575L414.452571 165.142403L415.090286 163.386893 L415.728000 164.951562L416.365714 174.618271L417.003429 168.351368 L417.641143 166.807572L418.916571 171.969039L419.554286 170.217193 L420.192000 164.280476L420.829714 169.277714L421.467429 165.531479 L422.742857 175.395594L423.380571 166.915814L424.018286 163.143452 L424.656000 169.832125L425.931429 159.281096L426.569143 164.428462 L427.206857 157.486810L427.844571 154.505595L428.482286 169.298381 L429.757714 170.822062L430.395429 167.137897L431.033143 165.914611 L431.670857 167.537618L432.308571 163.308995L434.221714 167.273027 L434.859429 168.562045L436.134857 167.653947L436.772571 149.900060 L437.410286 141.607388L438.685714 148.293988L439.961143 133.495534 L441.236571 134.347715L441.874286 137.219028L442.512000 138.283822 L443.149714 146.132813L443.787429 140.557732L445.062857 142.506570 L446.338286 151.105444L446.976000 130.681313L447.613714 144.963372 L448.251429 143.088630L448.889143 144.455685L450.164571 140.473267 L451.440000 134.862382L452.077714 141.710239L452.715429 137.528064 L453.990857 137.437033L454.628571 143.354742L455.266286 145.270679 L455.904000 142.611564L456.541714 136.402237L457.179429 145.617731 L458.454857 135.722719L459.092571 143.040799L460.368000 139.836603 L461.005714 140.933676L462.281143 145.949852L462.918857 138.912123 L463.556571 146.317501L464.832000 150.681254L465.469714 147.020728 L466.107429 145.411131L466.745143 161.402872L468.658286 141.661786 L469.296000 142.775309L469.933714 139.287790L470.571429 140.430275 L471.209143 130.085983L471.846857 147.749322L473.122286 137.886935 L473.760000 140.987105L474.397714 136.271393L475.035429 143.198185 L475.673143 128.833390L476.310857 150.680978L476.948571 148.482755 L478.224000 151.022085L478.861714 148.957678L479.499429 144.019538 L480.137143 136.290263L481.412571 141.525619L482.050286 143.092777 L483.325714 148.387023L484.601143 129.868393L485.876571 143.890007 L486.514286 141.839009L487.152000 143.750868L487.789714 149.275907 L489.065143 147.692091L489.702857 144.470822L490.340571 138.321562 L491.616000 145.232801L492.253714 146.603313L492.891429 144.168353 L493.529143 146.928384L494.166857 135.495107L494.804571 137.357614 L495.442286 143.079852L496.717714 135.172662L497.355429 144.005990 L498.630857 147.232166L499.268571 145.499259L500.544000 152.955855 L501.181714 154.500134L501.819429 135.946253L502.457143 147.165949 L504.370286 227.852767L505.008000 230.208031L505.645714 247.598208 L506.283429 245.242115L506.921143 250.123023L507.558857 248.549783 L508.834286 248.387558L509.472000 247.296084L510.747429 242.828721 L511.385143 246.425242L512.660571 248.381614L513.936000 246.078052 L515.211429 248.783340L515.849143 245.229051L517.124571 243.098220 L517.762286 244.440253L518.400000 248.939827L518.400000 248.939827"
           id="path20" />
      </g>
      <g
         id="line2d3">
        <path
           style="fill: none; stroke: #ff0000; stroke-width: 1.000000; stroke-linejoin: round; stroke-linecap: square;  opacity: 1.000000"
           clip-path="url(#p50431ccdcb28178602d99d9270004dde)"
           d="M72.000000 250.560000L103.885714 250.560000L105.161143 144.061978 L105.798857 119.721024L106.436571 113.222223L107.712000 112.695460 L115.364571 112.546644L116.640000 112.874757L117.915429 112.758497 L119.828571 109.316045L121.741714 99.789581L122.379429 102.285366 L123.017143 113.749263L123.654857 116.271107L124.292571 111.849638 L125.568000 108.624154L126.843429 106.889034L129.394286 108.394537 L130.669714 108.545564L131.945143 110.008627L132.582857 112.396447 L133.220571 111.155259L133.858286 108.033800L134.496000 106.584561 L135.771429 107.391191L136.409143 105.381596L137.684571 104.681756 L138.960000 104.684521L139.597714 108.363156L140.235429 105.727611 L140.873143 100.626486L142.148571 108.675510L144.061714 103.736264 L145.337143 102.760082L146.612571 105.406618L147.888000 102.925624 L149.163429 106.526569L149.801143 104.564390L150.438857 101.468022 L151.076571 102.564403L151.714286 105.386849L152.989714 106.583455 L154.265143 111.855306L155.540571 103.479828L158.091429 104.012882 L158.729143 102.160950L160.004571 105.304596L160.642286 108.292516 L161.917714 107.864110L163.193143 110.108091L164.468571 105.754291 L165.744000 106.988291L167.019429 105.880919L168.294857 107.461071 L169.570286 102.643753L170.208000 104.053041L171.483429 103.875057 L172.121143 102.749437L172.758857 105.034337L174.034286 104.129556 L174.672000 105.509468L175.309714 102.610714L176.585143 102.887954 L177.860571 102.778952L178.498286 98.120609L179.136000 102.953341 L179.773714 101.328261L181.049143 101.021437L181.686857 99.072392 L182.324571 103.720573L182.962286 101.949996L184.237714 100.921697 L184.875429 112.657720L185.513143 101.306696L187.426286 111.477220 L188.064000 104.386821L188.701714 101.219535L189.339429 103.333640 L189.977143 114.579187L190.614857 104.041221L193.165714 109.450068 L193.803429 106.507354L194.441143 115.091228L195.078857 99.297170 L196.354286 118.003945L196.992000 96.310495L197.629714 108.526211 L198.267429 92.423462L198.905143 120.716283L199.542857 132.071731 L200.818286 107.374602L201.456000 104.850547L202.093714 106.497262 L207.195429 107.192056L208.470857 106.732961L209.746286 106.783350 L211.021714 106.458762L216.123429 106.545093L217.398857 105.330586 L218.036571 106.379896L219.312000 105.854723L223.138286 105.959923 L224.413714 106.257070L226.964571 105.816637L229.515429 106.143368 L232.066286 106.239237L235.892571 106.182075L238.443429 106.133967 L240.994286 105.126129L241.632000 100.984458L242.907429 100.543887 L244.182857 110.594834L245.458286 101.857651L246.733714 104.856008 L249.922286 110.031782L250.560000 107.365755L251.197714 102.296218 L252.473143 107.279770L253.110857 105.338327L253.748571 112.559570 L254.386286 93.546455L255.024000 111.523392L255.661714 105.812628 L256.299429 111.932237L256.937143 105.253379L257.574857 119.061204 L258.212571 111.864776L258.850286 113.220772L259.488000 108.391703 L260.125714 117.383662L261.401143 88.998566L262.038857 119.035146 L262.676571 105.158822L263.314286 114.518292L263.952000 110.157443 L264.589714 111.873830L265.227429 110.758925L265.865143 106.258107 L266.502857 112.911183L267.140571 110.199813L267.778286 119.817861 L268.416000 106.316306L269.053714 114.169720L269.691429 111.393377 L270.329143 114.302915L270.966857 123.673789L272.242286 104.441633 L273.517714 105.087491L274.793143 109.668419L275.430857 108.385137 L276.068571 117.612380L276.706286 104.446333L277.344000 126.262956 L277.981714 105.562276L278.619429 107.403840L279.257143 105.395351 L280.532571 113.020600L281.808000 101.543501L283.721143 117.132826 L284.358857 126.939295L285.634286 101.576817L286.272000 105.239485 L286.909714 113.334060L287.547429 103.643712L288.185143 106.224722 L288.822857 112.771146L289.460571 111.403192L290.098286 99.785295 L290.736000 108.444165L291.373714 107.333130L292.649143 117.080156 L293.286857 109.677404L293.924571 117.130959L294.562286 104.948559 L295.837714 102.368724L296.475429 105.370191L297.113143 118.864489 L297.750857 117.859692L299.026286 112.634427L299.664000 107.836255 L300.301714 113.593605L300.939429 109.007908L301.577143 118.816451 L302.214857 113.628995L303.490286 127.880778L304.128000 113.998717 L304.765714 109.623767L305.403429 97.967785L306.041143 110.933522 L306.678857 106.061391L307.316571 121.206966L307.954286 118.889372 L309.229714 115.650340L309.867429 112.108631L310.505143 120.593595 L311.780571 107.450150L312.418286 105.162209L313.056000 110.432609 L314.331429 108.994775L314.969143 112.373361L316.244571 108.804211 L317.520000 114.103572L318.157714 111.351007L318.795429 114.038047 L319.433143 111.412040L320.070857 116.740570L321.346286 115.813670 L321.984000 119.267528L323.259429 114.065280L323.897143 105.383462 L324.534857 109.676575L325.810286 98.836692L326.448000 96.909420 L327.723429 120.473948L328.361143 112.149135L328.998857 109.052974 L329.636571 110.462469L330.274286 107.886505L330.912000 117.632425 L332.187429 107.573944L332.825143 109.212710L333.462857 104.588928 L334.100571 112.605189L335.376000 109.111173L336.651429 107.292419 L337.289143 113.802624L337.926857 108.477343L338.564571 113.253811 L339.202286 108.972449L340.477714 115.190623L341.115429 113.512942 L341.753143 117.274038L342.390857 108.014515L343.666286 113.235564 L344.304000 112.170839L345.579429 117.236851L346.854857 108.401311 L347.492571 123.557737L348.130286 101.335380L348.768000 102.743631 L349.405714 113.692032L350.681143 105.202575L351.318857 119.260339 L351.956571 106.873344L352.594286 115.741509L353.232000 114.663652 L353.869714 109.551122L355.145143 116.235717L355.782857 110.085212 L357.058286 115.226703L357.696000 107.446003L358.333714 105.518938 L359.609143 110.699620L360.246857 101.822469L360.884571 109.856840 L361.522286 106.562788L362.797714 131.722606L363.435429 109.687219 L364.710857 97.248660L365.348571 98.538785L366.624000 99.024008 L367.899429 108.660718L368.537143 111.266957L370.450286 102.497979 L373.001143 112.214316L374.276571 108.429028L376.827429 103.315876 L379.378286 107.651497L380.016000 105.478641L381.291429 105.407447 L383.842286 104.448960L385.117714 102.876480L386.393143 104.219896 L387.668571 104.061681L388.306286 105.174167L389.581714 103.142108 L390.857143 103.021839L391.494857 101.813414L392.770286 103.844367 L394.045714 104.663785L395.321143 104.975378L396.596571 103.916183 L397.872000 107.392850L399.147429 107.596063L400.422857 107.172288 L401.698286 108.884736L402.336000 107.516229L403.611429 106.114545 L404.886857 106.140741L405.524571 105.124608L406.162286 109.261233 L407.437714 102.876687L408.713143 102.593503L409.350857 107.777572 L410.626286 104.953467L411.264000 106.027039L411.901714 108.135475 L412.539429 103.581573L413.177143 104.653763L414.452571 100.994342 L415.090286 108.567890L416.365714 108.605768L417.003429 111.133348 L418.278857 110.702868L418.916571 109.699523L420.829714 113.458061 L422.105143 109.018760L422.742857 111.498993L424.018286 106.526638 L424.656000 112.018982L425.293714 113.494211L425.931429 106.237440 L426.569143 104.360003L427.206857 106.474660L427.844571 109.902113 L429.757714 101.416527L430.395429 111.098926L431.033143 107.216940 L432.308571 110.768049L433.584000 109.696274L434.859429 113.111562 L435.497143 111.050058L436.772571 111.300204L437.410286 109.997361 L438.685714 109.629228L439.961143 104.402650L440.598857 107.821117 L441.874286 107.670436L443.149714 106.413212L444.425143 110.218199 L448.251429 108.394606L449.526857 106.849290L450.164571 108.099671 L451.440000 107.085542L452.715429 105.434058L453.990857 111.365660 L454.628571 106.539494L455.266286 109.567158L455.904000 108.463450 L457.179429 108.189942L457.817143 106.744712L459.092571 109.594115 L460.368000 108.015414L461.643429 108.813750L462.918857 107.952031 L464.194286 105.223933L464.832000 115.947210L465.469714 110.033925 L466.745143 107.503442L468.020571 107.503442L468.658286 109.614228 L469.933714 111.174129L471.209143 111.209725L472.484571 108.597888 L473.122286 110.636790L473.760000 109.344799L474.397714 112.847316 L476.310857 107.300229L478.224000 110.518802L478.861714 109.479997 L479.499429 113.719680L480.137143 109.762491L481.412571 108.482734 L482.050286 106.507561L482.688000 111.246912L483.963429 109.089953 L485.238857 109.257016L486.514286 108.065249L487.789714 108.053361 L489.065143 110.603612L490.340571 107.733750L492.891429 110.866130 L493.529143 107.981268L494.166857 110.818437L495.442286 108.561116 L496.717714 108.676063L497.993143 109.342725L498.630857 105.067722 L499.268571 109.502185L499.906286 110.506775L500.544000 108.427231 L501.819429 109.008392L503.094857 92.360909L503.732571 75.572628 L505.008000 71.928968L505.645714 68.021130L506.283429 94.865472 L506.921143 99.856765L507.558857 97.256125L508.834286 98.403103 L510.109714 98.741929L511.385143 99.803059L512.660571 99.342582 L513.936000 102.175119L515.211429 101.264532L515.849143 103.017623 L517.124571 103.523581L517.762286 102.476344L518.400000 99.131420 L518.400000 99.131420"
           id="path23" />
      </g>
      <g
         id="matplotlib.axis1">
        <g
           id="xtick1">
          <g
             id="line2d4">
            <defs
               id="defs28">
              <path
                 id="m30e32995789d870ad79a2e54c91cf9c6"
                 d="M0.000000 0.000000L0.000000 -4.000000" />
            </defs>
            <g
               id="g31">
              <use
                 style="fill: none; stroke: #000000; stroke-width: 0.500000; stroke-linejoin: round; stroke-linecap: butt;  opacity: 1.000000"
                 xlink:href="#m30e32995789d870ad79a2e54c91cf9c6"
                 x="72.000000"
                 y="388.800000"
                 id="use33" />
            </g>
          </g>
          <g
             id="line2d5">
            <defs
               id="defs36">
              <path
                 id="m9281cae24120827b11d5ea8a7ad3e96b"
                 d="M0.000000 0.000000L0.000000 4.000000" />
            </defs>
            <g
               id="g39">
              <use
                 style="fill: none; stroke: #000000; stroke-width: 0.500000; stroke-linejoin: round; stroke-linecap: butt;  opacity: 1.000000"
                 xlink:href="#m9281cae24120827b11d5ea8a7ad3e96b"
                 x="72.000000"
                 y="43.200000"
                 id="use41" />
            </g>
          </g>
          <g
             id="text1">
            <defs
               id="defs44">
              <path
                 id="c_7a2040fe3b94fcd41d0a72c84e93b115"
                 d="M31.781250 -66.406250q-7.609375 0.000000 -11.453125 7.500000q-3.828125 7.484375 -3.828125 22.531250q0.000000 14.984375 3.828125 22.484375q3.843750 7.500000 11.453125 7.500000q7.671875 0.000000 11.500000 -7.500000q3.843750 -7.500000 3.843750 -22.484375q0.000000 -15.046875 -3.843750 -22.531250q-3.828125 -7.500000 -11.500000 -7.500000M31.781250 -74.218750q12.265625 0.000000 18.734375 9.703125q6.468750 9.687500 6.468750 28.140625q0.000000 18.406250 -6.468750 28.109375q-6.468750 9.687500 -18.734375 9.687500q-12.250000 0.000000 -18.718750 -9.687500q-6.468750 -9.703125 -6.468750 -28.109375q0.000000 -18.453125 6.468750 -28.140625q6.468750 -9.703125 18.718750 -9.703125" />
            </defs>
            <g
               style="fill: #000000; opacity: 1.000000"
               transform="translate(68.976562,401.706250)scale(0.120000)"
               id="g47">
              <use
                 xlink:href="#c_7a2040fe3b94fcd41d0a72c84e93b115"
                 id="use49" />
            </g>
          </g>
        </g>
        <g
           id="xtick2">
          <g
             id="line2d6">
            <g
               id="g53">
              <use
                 style="fill: none; stroke: #000000; stroke-width: 0.500000; stroke-linejoin: round; stroke-linecap: butt;  opacity: 1.000000"
                 xlink:href="#m30e32995789d870ad79a2e54c91cf9c6"
                 x="135.771429"
                 y="388.800000"
                 id="use55" />
            </g>
          </g>
          <g
             id="line2d7">
            <g
               id="g58">
              <use
                 style="fill: none; stroke: #000000; stroke-width: 0.500000; stroke-linejoin: round; stroke-linecap: butt;  opacity: 1.000000"
                 xlink:href="#m9281cae24120827b11d5ea8a7ad3e96b"
                 x="135.771429"
                 y="43.200000"
                 id="use60" />
            </g>
          </g>
          <g
             id="text2">
            <defs
               id="defs63">
              <path
                 id="c_42baa63129a918535c52adb20d687ea7"
                 d="M12.406250 -8.296875l16.109375 0.000000l0.000000 -55.625000l-17.531250 3.515625l0.000000 -8.984375l17.437500 -3.515625l9.859375 0.000000l0.000000 64.609375l16.109375 0.000000l0.000000 8.296875l-41.984375 0.000000z" />
            </defs>
            <g
               style="fill: #000000; opacity: 1.000000"
               transform="translate(125.365179,401.706250)scale(0.120000)"
               id="g66">
              <use
                 xlink:href="#c_42baa63129a918535c52adb20d687ea7"
                 id="use68" />
              <use
                 xlink:href="#c_7a2040fe3b94fcd41d0a72c84e93b115"
                 x="63.623047"
                 id="use70" />
              <use
                 xlink:href="#c_7a2040fe3b94fcd41d0a72c84e93b115"
                 x="127.246094"
                 id="use72" />
            </g>
          </g>
        </g>
        <g
           id="xtick3">
          <g
             id="line2d8">
            <g
               id="g76">
              <use
                 style="fill: none; stroke: #000000; stroke-width: 0.500000; stroke-linejoin: round; stroke-linecap: butt;  opacity: 1.000000"
                 xlink:href="#m30e32995789d870ad79a2e54c91cf9c6"
                 x="199.542857"
                 y="388.800000"
                 id="use78" />
            </g>
          </g>
          <g
             id="line2d9">
            <g
               id="g81">
              <use
                 style="fill: none; stroke: #000000; stroke-width: 0.500000; stroke-linejoin: round; stroke-linecap: butt;  opacity: 1.000000"
                 xlink:href="#m9281cae24120827b11d5ea8a7ad3e96b"
                 x="199.542857"
                 y="43.200000"
                 id="use83" />
            </g>
          </g>
          <g
             id="text3">
            <defs
               id="defs86">
              <path
                 id="c_ed3f3ed3ebfbd18bcb9c012009a68ad1"
                 d="M19.187500 -8.296875l34.421875 0.000000l0.000000 8.296875l-46.281250 0.000000l0.000000 -8.296875q5.609375 -5.812500 15.296875 -15.593750q9.703125 -9.796875 12.187500 -12.640625q4.734375 -5.312500 6.609375 -9.000000q1.890625 -3.687500 1.890625 -7.250000q0.000000 -5.812500 -4.078125 -9.468750q-4.078125 -3.671875 -10.625000 -3.671875q-4.640625 0.000000 -9.796875 1.609375q-5.140625 1.609375 -11.000000 4.890625l0.000000 -9.968750q5.953125 -2.390625 11.125000 -3.609375q5.187500 -1.218750 9.484375 -1.218750q11.328125 0.000000 18.062500 5.671875q6.734375 5.656250 6.734375 15.125000q0.000000 4.500000 -1.687500 8.531250q-1.671875 4.015625 -6.125000 9.484375q-1.218750 1.421875 -7.765625 8.187500q-6.531250 6.765625 -18.453125 18.921875" />
            </defs>
            <g
               style="fill: #000000; opacity: 1.000000"
               transform="translate(188.917857,401.706250)scale(0.120000)"
               id="g89">
              <use
                 xlink:href="#c_ed3f3ed3ebfbd18bcb9c012009a68ad1"
                 id="use91" />
              <use
                 xlink:href="#c_7a2040fe3b94fcd41d0a72c84e93b115"
                 x="63.623047"
                 id="use93" />
              <use
                 xlink:href="#c_7a2040fe3b94fcd41d0a72c84e93b115"
                 x="127.246094"
                 id="use95" />
            </g>
          </g>
        </g>
        <g
           id="xtick4">
          <g
             id="line2d10">
            <g
               id="g99">
              <use
                 style="fill: none; stroke: #000000; stroke-width: 0.500000; stroke-linejoin: round; stroke-linecap: butt;  opacity: 1.000000"
                 xlink:href="#m30e32995789d870ad79a2e54c91cf9c6"
                 x="263.314286"
                 y="388.800000"
                 id="use101" />
            </g>
          </g>
          <g
             id="line2d11">
            <g
               id="g104">
              <use
                 style="fill: none; stroke: #000000; stroke-width: 0.500000; stroke-linejoin: round; stroke-linecap: butt;  opacity: 1.000000"
                 xlink:href="#m9281cae24120827b11d5ea8a7ad3e96b"
                 x="263.314286"
                 y="43.200000"
                 id="use106" />
            </g>
          </g>
          <g
             id="text4">
            <defs
               id="defs109">
              <path
                 id="c_3dcfa38a02242cb63ec6726c6e70be7a"
                 d="M40.578125 -39.312500q7.078125 1.515625 11.046875 6.312500q3.984375 4.781250 3.984375 11.812500q0.000000 10.781250 -7.421875 16.703125q-7.421875 5.906250 -21.093750 5.906250q-4.578125 0.000000 -9.437500 -0.906250q-4.859375 -0.906250 -10.031250 -2.718750l0.000000 -9.515625q4.093750 2.390625 8.968750 3.609375q4.890625 1.218750 10.218750 1.218750q9.265625 0.000000 14.125000 -3.656250q4.859375 -3.656250 4.859375 -10.640625q0.000000 -6.453125 -4.515625 -10.078125q-4.515625 -3.640625 -12.562500 -3.640625l-8.500000 0.000000l0.000000 -8.109375l8.890625 0.000000q7.265625 0.000000 11.125000 -2.906250q3.859375 -2.906250 3.859375 -8.375000q0.000000 -5.609375 -3.984375 -8.609375q-3.968750 -3.015625 -11.390625 -3.015625q-4.062500 0.000000 -8.703125 0.890625q-4.640625 0.875000 -10.203125 2.718750l0.000000 -8.781250q5.625000 -1.562500 10.531250 -2.343750q4.906250 -0.781250 9.250000 -0.781250q11.234375 0.000000 17.765625 5.109375q6.546875 5.093750 6.546875 13.781250q0.000000 6.062500 -3.468750 10.234375q-3.468750 4.171875 -9.859375 5.781250" />
            </defs>
            <g
               style="fill: #000000; opacity: 1.000000"
               transform="translate(252.712723,401.706250)scale(0.120000)"
               id="g112">
              <use
                 xlink:href="#c_3dcfa38a02242cb63ec6726c6e70be7a"
                 id="use114" />
              <use
                 xlink:href="#c_7a2040fe3b94fcd41d0a72c84e93b115"
                 x="63.623047"
                 id="use116" />
              <use
                 xlink:href="#c_7a2040fe3b94fcd41d0a72c84e93b115"
                 x="127.246094"
                 id="use118" />
            </g>
          </g>
        </g>
        <g
           id="xtick5">
          <g
             id="line2d12">
            <g
               id="g122">
              <use
                 style="fill: none; stroke: #000000; stroke-width: 0.500000; stroke-linejoin: round; stroke-linecap: butt;  opacity: 1.000000"
                 xlink:href="#m30e32995789d870ad79a2e54c91cf9c6"
                 x="327.085714"
                 y="388.800000"
                 id="use124" />
            </g>
          </g>
          <g
             id="line2d13">
            <g
               id="g127">
              <use
                 style="fill: none; stroke: #000000; stroke-width: 0.500000; stroke-linejoin: round; stroke-linecap: butt;  opacity: 1.000000"
                 xlink:href="#m9281cae24120827b11d5ea8a7ad3e96b"
                 x="327.085714"
                 y="43.200000"
                 id="use129" />
            </g>
          </g>
          <g
             id="text5">
            <defs
               id="defs132">
              <path
                 id="c_a0416418d96557a09b8c1332d34883ba"
                 d="M37.796875 -64.312500l-24.906250 38.921875l24.906250 0.000000zM35.203125 -72.906250l12.406250 0.000000l0.000000 47.515625l10.406250 0.000000l0.000000 8.203125l-10.406250 0.000000l0.000000 17.187500l-9.812500 0.000000l0.000000 -17.187500l-32.906250 0.000000l0.000000 -9.515625z" />
            </defs>
            <g
               style="fill: #000000; opacity: 1.000000"
               transform="translate(316.320089,401.706250)scale(0.120000)"
               id="g135">
              <use
                 xlink:href="#c_a0416418d96557a09b8c1332d34883ba"
                 id="use137" />
              <use
                 xlink:href="#c_7a2040fe3b94fcd41d0a72c84e93b115"
                 x="63.623047"
                 id="use139" />
              <use
                 xlink:href="#c_7a2040fe3b94fcd41d0a72c84e93b115"
                 x="127.246094"
                 id="use141" />
            </g>
          </g>
        </g>
        <g
           id="xtick6">
          <g
             id="line2d14">
            <g
               id="g145">
              <use
                 style="fill: none; stroke: #000000; stroke-width: 0.500000; stroke-linejoin: round; stroke-linecap: butt;  opacity: 1.000000"
                 xlink:href="#m30e32995789d870ad79a2e54c91cf9c6"
                 x="390.857143"
                 y="388.800000"
                 id="use147" />
            </g>
          </g>
          <g
             id="line2d15">
            <g
               id="g150">
              <use
                 style="fill: none; stroke: #000000; stroke-width: 0.500000; stroke-linejoin: round; stroke-linecap: butt;  opacity: 1.000000"
                 xlink:href="#m9281cae24120827b11d5ea8a7ad3e96b"
                 x="390.857143"
                 y="43.200000"
                 id="use152" />
            </g>
          </g>
          <g
             id="text6">
            <defs
               id="defs155">
              <path
                 id="c_1260a2df50f305f3db244e29828f968e"
                 d="M10.796875 -72.906250l38.718750 0.000000l0.000000 8.312500l-29.687500 0.000000l0.000000 17.859375q2.140625 -0.734375 4.281250 -1.093750q2.156250 -0.359375 4.312500 -0.359375q12.203125 0.000000 19.328125 6.687500q7.140625 6.687500 7.140625 18.109375q0.000000 11.765625 -7.328125 18.296875q-7.328125 6.515625 -20.656250 6.515625q-4.593750 0.000000 -9.359375 -0.781250q-4.750000 -0.781250 -9.828125 -2.343750l0.000000 -9.921875q4.390625 2.390625 9.078125 3.562500q4.687500 1.171875 9.906250 1.171875q8.453125 0.000000 13.375000 -4.437500q4.937500 -4.437500 4.937500 -12.062500q0.000000 -7.609375 -4.937500 -12.046875q-4.921875 -4.453125 -13.375000 -4.453125q-3.953125 0.000000 -7.890625 0.875000q-3.921875 0.875000 -8.015625 2.734375z" />
            </defs>
            <g
               style="fill: #000000; opacity: 1.000000"
               transform="translate(380.255580,401.706250)scale(0.120000)"
               id="g158">
              <use
                 xlink:href="#c_1260a2df50f305f3db244e29828f968e"
                 id="use160" />
              <use
                 xlink:href="#c_7a2040fe3b94fcd41d0a72c84e93b115"
                 x="63.623047"
                 id="use162" />
              <use
                 xlink:href="#c_7a2040fe3b94fcd41d0a72c84e93b115"
                 x="127.246094"
                 id="use164" />
            </g>
          </g>
        </g>
        <g
           id="xtick7">
          <g
             id="line2d16">
            <g
               id="g168">
              <use
                 style="fill: none; stroke: #000000; stroke-width: 0.500000; stroke-linejoin: round; stroke-linecap: butt;  opacity: 1.000000"
                 xlink:href="#m30e32995789d870ad79a2e54c91cf9c6"
                 x="454.628571"
                 y="388.800000"
                 id="use170" />
            </g>
          </g>
          <g
             id="line2d17">
            <g
               id="g173">
              <use
                 style="fill: none; stroke: #000000; stroke-width: 0.500000; stroke-linejoin: round; stroke-linecap: butt;  opacity: 1.000000"
                 xlink:href="#m9281cae24120827b11d5ea8a7ad3e96b"
                 x="454.628571"
                 y="43.200000"
                 id="use175" />
            </g>
          </g>
          <g
             id="text7">
            <defs
               id="defs178">
              <path
                 id="c_cc8d6d580d1b10c8632f7a42cd53db8a"
                 d="M33.015625 -40.375000q-6.640625 0.000000 -10.531250 4.546875q-3.875000 4.531250 -3.875000 12.437500q0.000000 7.859375 3.875000 12.437500q3.890625 4.562500 10.531250 4.562500q6.640625 0.000000 10.515625 -4.562500q3.875000 -4.578125 3.875000 -12.437500q0.000000 -7.906250 -3.875000 -12.437500q-3.875000 -4.546875 -10.515625 -4.546875M52.593750 -71.296875l0.000000 8.984375q-3.718750 -1.750000 -7.500000 -2.671875q-3.781250 -0.937500 -7.500000 -0.937500q-9.765625 0.000000 -14.921875 6.593750q-5.140625 6.593750 -5.875000 19.921875q2.875000 -4.250000 7.218750 -6.515625q4.359375 -2.265625 9.578125 -2.265625q10.984375 0.000000 17.359375 6.671875q6.375000 6.656250 6.375000 18.125000q0.000000 11.234375 -6.640625 18.031250q-6.640625 6.781250 -17.671875 6.781250q-12.656250 0.000000 -19.343750 -9.687500q-6.687500 -9.703125 -6.687500 -28.109375q0.000000 -17.281250 8.203125 -27.562500q8.203125 -10.281250 22.015625 -10.281250q3.718750 0.000000 7.500000 0.734375q3.781250 0.734375 7.890625 2.187500" />
            </defs>
            <g
               style="fill: #000000; opacity: 1.000000"
               transform="translate(443.987946,401.706250)scale(0.120000)"
               id="g181">
              <use
                 xlink:href="#c_cc8d6d580d1b10c8632f7a42cd53db8a"
                 id="use183" />
              <use
                 xlink:href="#c_7a2040fe3b94fcd41d0a72c84e93b115"
                 x="63.623047"
                 id="use185" />
              <use
                 xlink:href="#c_7a2040fe3b94fcd41d0a72c84e93b115"
                 x="127.246094"
                 id="use187" />
            </g>
          </g>
        </g>
        <g
           id="xtick8">
          <g
             id="line2d18">
            <g
               id="g191">
              <use
                 style="fill: none; stroke: #000000; stroke-width: 0.500000; stroke-linejoin: round; stroke-linecap: butt;  opacity: 1.000000"
                 xlink:href="#m30e32995789d870ad79a2e54c91cf9c6"
                 x="518.400000"
                 y="388.800000"
                 id="use193" />
            </g>
          </g>
          <g
             id="line2d19">
            <g
               id="g196">
              <use
                 style="fill: none; stroke: #000000; stroke-width: 0.500000; stroke-linejoin: round; stroke-linecap: butt;  opacity: 1.000000"
                 xlink:href="#m9281cae24120827b11d5ea8a7ad3e96b"
                 x="518.400000"
                 y="43.200000"
                 id="use198" />
            </g>
          </g>
          <g
             id="text8">
            <defs
               id="defs201">
              <path
                 id="c_956f18cfdaf972f35a6c2b4aaac2532b"
                 d="M8.203125 -72.906250l46.875000 0.000000l0.000000 4.203125l-26.468750 68.703125l-10.296875 0.000000l24.906250 -64.593750l-35.015625 0.000000z" />
            </defs>
            <g
               style="fill: #000000; opacity: 1.000000"
               transform="translate(507.829687,401.706250)scale(0.120000)"
               id="g204">
              <use
                 xlink:href="#c_956f18cfdaf972f35a6c2b4aaac2532b"
                 id="use206" />
              <use
                 xlink:href="#c_7a2040fe3b94fcd41d0a72c84e93b115"
                 x="63.623047"
                 id="use208" />
              <use
                 xlink:href="#c_7a2040fe3b94fcd41d0a72c84e93b115"
                 x="127.246094"
                 id="use210" />
            </g>
          </g>
        </g>
        <g
           id="text9">
          <defs
             id="defs213">
            <path
               id="c_9e4b30cbdf32072672ded72e9074c4c9"
               d="M-0.296875 -72.906250l61.671875 0.000000l0.000000 8.312500l-25.875000 0.000000l0.000000 64.593750l-9.906250 0.000000l0.000000 -64.593750l-25.890625 0.000000z" />
            <path
               id="c_6a63bda47b2f3da1cec6aadd80692cfe"
               d="M9.421875 -54.687500l8.984375 0.000000l0.000000 54.687500l-8.984375 0.000000zM9.421875 -75.984375l8.984375 0.000000l0.000000 11.390625l-8.984375 0.000000z" />
            <path
               id="c_4653c6dfde66c7610eae0911760d3490"
               d="M52.000000 -44.187500q3.375000 -6.062500 8.062500 -8.937500q4.687500 -2.875000 11.031250 -2.875000q8.546875 0.000000 13.187500 5.984375q4.640625 5.968750 4.640625 17.000000l0.000000 33.015625l-9.031250 0.000000l0.000000 -32.718750q0.000000 -7.859375 -2.796875 -11.656250q-2.781250 -3.812500 -8.484375 -3.812500q-6.984375 0.000000 -11.046875 4.640625q-4.046875 4.625000 -4.046875 12.640625l0.000000 30.906250l-9.031250 0.000000l0.000000 -32.718750q0.000000 -7.906250 -2.781250 -11.687500q-2.781250 -3.781250 -8.593750 -3.781250q-6.890625 0.000000 -10.953125 4.656250q-4.046875 4.656250 -4.046875 12.625000l0.000000 30.906250l-9.031250 0.000000l0.000000 -54.687500l9.031250 0.000000l0.000000 8.500000q3.078125 -5.031250 7.375000 -7.421875q4.296875 -2.390625 10.203125 -2.390625q5.968750 0.000000 10.140625 3.031250q4.171875 3.015625 6.171875 8.781250" />
            <path
               id="c_0bce5afba2dc6b9024b26277c38ad8e8"
               d="M56.203125 -29.593750l0.000000 4.390625l-41.312500 0.000000q0.593750 9.281250 5.593750 14.140625q5.000000 4.859375 13.937500 4.859375q5.171875 0.000000 10.031250 -1.265625q4.859375 -1.265625 9.656250 -3.812500l0.000000 8.500000q-4.843750 2.046875 -9.921875 3.125000q-5.078125 1.078125 -10.296875 1.078125q-13.093750 0.000000 -20.734375 -7.609375q-7.640625 -7.625000 -7.640625 -20.625000q0.000000 -13.421875 7.250000 -21.296875q7.250000 -7.890625 19.562500 -7.890625q11.031250 0.000000 17.453125 7.109375q6.421875 7.093750 6.421875 19.296875M47.218750 -32.234375q-0.093750 -7.359375 -4.125000 -11.750000q-4.031250 -4.406250 -10.671875 -4.406250q-7.515625 0.000000 -12.031250 4.250000q-4.515625 4.250000 -5.203125 11.968750z" />
            <path
               id="c_d41d8cd98f00b204e9800998ecf8427e"
               d="" />
            <path
               id="c_7efa9804c2b4c09a4b614b91fdebee3d"
               d="M31.000000 -75.875000q-6.531250 11.218750 -9.718750 22.218750q-3.171875 10.984375 -3.171875 22.265625q0.000000 11.265625 3.203125 22.328125q3.203125 11.062500 9.687500 22.250000l-7.812500 0.000000q-7.312500 -11.484375 -10.953125 -22.562500q-3.640625 -11.078125 -3.640625 -22.015625q0.000000 -10.890625 3.609375 -21.921875q3.625000 -11.046875 10.984375 -22.562500z" />
            <path
               id="c_9c6d5cbc59c6231647eb409cc6b37bb3"
               d="M25.390625 -72.906250l8.296875 0.000000l-25.390625 82.187500l-8.296875 0.000000z" />
            <path
               id="c_0f8c41144cfbf448378cb6fd1cc8e549"
               d="M18.312500 -70.218750l0.000000 15.531250l18.500000 0.000000l0.000000 6.984375l-18.500000 0.000000l0.000000 29.687500q0.000000 6.687500 1.828125 8.593750q1.828125 1.906250 7.453125 1.906250l9.218750 0.000000l0.000000 7.515625l-9.218750 0.000000q-10.406250 0.000000 -14.359375 -3.875000q-3.953125 -3.890625 -3.953125 -14.140625l0.000000 -29.687500l-6.593750 0.000000l0.000000 -6.984375l6.593750 0.000000l0.000000 -15.531250z" />
            <path
               id="c_74d54c94aa871ec39e2bc6697dde6c00"
               d="M54.890625 -33.015625l0.000000 33.015625l-8.984375 0.000000l0.000000 -32.718750q0.000000 -7.765625 -3.031250 -11.609375q-3.031250 -3.859375 -9.078125 -3.859375q-7.281250 0.000000 -11.484375 4.640625q-4.203125 4.625000 -4.203125 12.640625l0.000000 30.906250l-9.031250 0.000000l0.000000 -75.984375l9.031250 0.000000l0.000000 29.796875q3.234375 -4.937500 7.593750 -7.375000q4.375000 -2.437500 10.093750 -2.437500q9.421875 0.000000 14.250000 5.828125q4.843750 5.828125 4.843750 17.156250" />
            <path
               id="c_8e0810ad13fe20a2a87a2619799b154d"
               d="M44.281250 -53.078125l0.000000 8.500000q-3.796875 -1.953125 -7.906250 -2.921875q-4.093750 -0.984375 -8.500000 -0.984375q-6.687500 0.000000 -10.031250 2.046875q-3.343750 2.046875 -3.343750 6.156250q0.000000 3.125000 2.390625 4.906250q2.390625 1.781250 9.625000 3.390625l3.078125 0.687500q9.562500 2.046875 13.593750 5.781250q4.031250 3.734375 4.031250 10.421875q0.000000 7.625000 -6.031250 12.078125q-6.031250 4.437500 -16.578125 4.437500q-4.390625 0.000000 -9.156250 -0.859375q-4.765625 -0.859375 -10.031250 -2.562500l0.000000 -9.281250q4.984375 2.593750 9.812500 3.890625q4.828125 1.281250 9.578125 1.281250q6.343750 0.000000 9.750000 -2.171875q3.421875 -2.171875 3.421875 -6.125000q0.000000 -3.656250 -2.468750 -5.609375q-2.453125 -1.953125 -10.812500 -3.765625l-3.125000 -0.734375q-8.343750 -1.750000 -12.062500 -5.390625q-3.703125 -3.640625 -3.703125 -9.984375q0.000000 -7.718750 5.468750 -11.906250q5.468750 -4.203125 15.531250 -4.203125q4.968750 0.000000 9.359375 0.734375q4.406250 0.718750 8.109375 2.187500" />
            <path
               id="c_e96974be642f6eac0427d72f9cec6c19"
               d="M8.015625 -75.875000l7.812500 0.000000q7.312500 11.515625 10.953125 22.562500q3.640625 11.031250 3.640625 21.921875q0.000000 10.937500 -3.640625 22.015625q-3.640625 11.078125 -10.953125 22.562500l-7.812500 0.000000q6.484375 -11.187500 9.687500 -22.250000q3.203125 -11.062500 3.203125 -22.328125q0.000000 -11.281250 -3.203125 -22.265625q-3.203125 -11.000000 -9.687500 -22.218750" />
          </defs>
          <g
             style="fill: #000000; opacity: 1.000000"
             transform="translate(249.754687,416.003125)scale(0.120000)"
             id="g226">
            <use
               xlink:href="#c_9e4b30cbdf32072672ded72e9074c4c9"
               id="use228" />
            <use
               xlink:href="#c_6a63bda47b2f3da1cec6aadd80692cfe"
               x="57.958984"
               id="use230" />
            <use
               xlink:href="#c_4653c6dfde66c7610eae0911760d3490"
               x="85.742187"
               id="use232" />
            <use
               xlink:href="#c_0bce5afba2dc6b9024b26277c38ad8e8"
               x="183.154297"
               id="use234" />
            <use
               xlink:href="#c_d41d8cd98f00b204e9800998ecf8427e"
               x="244.677734"
               id="use236" />
            <use
               xlink:href="#c_7efa9804c2b4c09a4b614b91fdebee3d"
               x="276.464844"
               id="use238" />
            <use
               xlink:href="#c_42baa63129a918535c52adb20d687ea7"
               x="315.478516"
               id="use240" />
            <use
               xlink:href="#c_9c6d5cbc59c6231647eb409cc6b37bb3"
               x="379.101562"
               id="use242" />
            <use
               xlink:href="#c_42baa63129a918535c52adb20d687ea7"
               x="412.792969"
               id="use244" />
            <use
               xlink:href="#c_7a2040fe3b94fcd41d0a72c84e93b115"
               x="476.416016"
               id="use246" />
            <use
               xlink:href="#c_0f8c41144cfbf448378cb6fd1cc8e549"
               x="540.039062"
               id="use248" />
            <use
               xlink:href="#c_74d54c94aa871ec39e2bc6697dde6c00"
               x="579.248047"
               id="use250" />
            <use
               xlink:href="#c_d41d8cd98f00b204e9800998ecf8427e"
               x="642.626953"
               id="use252" />
            <use
               xlink:href="#c_8e0810ad13fe20a2a87a2619799b154d"
               x="674.414062"
               id="use254" />
            <use
               xlink:href="#c_e96974be642f6eac0427d72f9cec6c19"
               x="726.513672"
               id="use256" />
          </g>
        </g>
      </g>
      <g
         id="matplotlib.axis2">
        <g
           id="ytick1">
          <g
             id="line2d20">
            <defs
               id="defs261">
              <path
                 id="m3400efa6b1638b3fea9e19e898273957"
                 d="M0.000000 0.000000L4.000000 0.000000" />
            </defs>
            <g
               id="g264">
              <use
                 style="fill: none; stroke: #000000; stroke-width: 0.500000; stroke-linejoin: round; stroke-linecap: butt;  opacity: 1.000000"
                 xlink:href="#m3400efa6b1638b3fea9e19e898273957"
                 x="72.000000"
                 y="388.800000"
                 id="use266" />
            </g>
          </g>
          <g
             id="line2d21">
            <defs
               id="defs269">
              <path
                 id="m20b58b2501143cb5e0a5e8f1ef6f1643"
                 d="M0.000000 0.000000L-4.000000 0.000000" />
            </defs>
            <g
               id="g272">
              <use
                 style="fill: none; stroke: #000000; stroke-width: 0.500000; stroke-linejoin: round; stroke-linecap: butt;  opacity: 1.000000"
                 xlink:href="#m20b58b2501143cb5e0a5e8f1ef6f1643"
                 x="518.400000"
                 y="388.800000"
                 id="use274" />
            </g>
          </g>
          <g
             id="text10">
            <defs
               id="defs277">
              <path
                 id="c_6a8d56c819c37117ab4cf023bec22a5a"
                 d="M10.593750 -35.500000l62.593750 0.000000l0.000000 8.296875l-62.593750 0.000000z" />
            </defs>
            <g
               style="fill: #000000; opacity: 1.000000"
               transform="translate(52.765625,393.253125)scale(0.120000)"
               id="g280">
              <use
                 xlink:href="#c_6a8d56c819c37117ab4cf023bec22a5a"
                 id="use282" />
              <use
                 xlink:href="#c_ed3f3ed3ebfbd18bcb9c012009a68ad1"
                 x="83.789062"
                 id="use284" />
            </g>
          </g>
        </g>
        <g
           id="ytick2">
          <g
             id="line2d22">
            <g
               id="g288">
              <use
                 style="fill: none; stroke: #000000; stroke-width: 0.500000; stroke-linejoin: round; stroke-linecap: butt;  opacity: 1.000000"
                 xlink:href="#m3400efa6b1638b3fea9e19e898273957"
                 x="72.000000"
                 y="319.680000"
                 id="use290" />
            </g>
          </g>
          <g
             id="line2d23">
            <g
               id="g293">
              <use
                 style="fill: none; stroke: #000000; stroke-width: 0.500000; stroke-linejoin: round; stroke-linecap: butt;  opacity: 1.000000"
                 xlink:href="#m20b58b2501143cb5e0a5e8f1ef6f1643"
                 x="518.400000"
                 y="319.680000"
                 id="use295" />
            </g>
          </g>
          <g
             id="text11">
            <g
               style="fill: #000000; opacity: 1.000000"
               transform="translate(52.671875,324.055000)scale(0.120000)"
               id="g298">
              <use
                 xlink:href="#c_6a8d56c819c37117ab4cf023bec22a5a"
                 id="use300" />
              <use
                 xlink:href="#c_42baa63129a918535c52adb20d687ea7"
                 x="83.789062"
                 id="use302" />
            </g>
          </g>
        </g>
        <g
           id="ytick3">
          <g
             id="line2d24">
            <g
               id="g306">
              <use
                 style="fill: none; stroke: #000000; stroke-width: 0.500000; stroke-linejoin: round; stroke-linecap: butt;  opacity: 1.000000"
                 xlink:href="#m3400efa6b1638b3fea9e19e898273957"
                 x="72.000000"
                 y="250.560000"
                 id="use308" />
            </g>
          </g>
          <g
             id="line2d25">
            <g
               id="g311">
              <use
                 style="fill: none; stroke: #000000; stroke-width: 0.500000; stroke-linejoin: round; stroke-linecap: butt;  opacity: 1.000000"
                 xlink:href="#m20b58b2501143cb5e0a5e8f1ef6f1643"
                 x="518.400000"
                 y="250.560000"
                 id="use313" />
            </g>
          </g>
          <g
             id="text12">
            <g
               style="fill: #000000; opacity: 1.000000"
               transform="translate(61.953125,254.927188)scale(0.120000)"
               id="g316">
              <use
                 xlink:href="#c_7a2040fe3b94fcd41d0a72c84e93b115"
                 id="use318" />
            </g>
          </g>
        </g>
        <g
           id="ytick4">
          <g
             id="line2d26">
            <g
               id="g322">
              <use
                 style="fill: none; stroke: #000000; stroke-width: 0.500000; stroke-linejoin: round; stroke-linecap: butt;  opacity: 1.000000"
                 xlink:href="#m3400efa6b1638b3fea9e19e898273957"
                 x="72.000000"
                 y="181.440000"
                 id="use324" />
            </g>
          </g>
          <g
             id="line2d27">
            <g
               id="g327">
              <use
                 style="fill: none; stroke: #000000; stroke-width: 0.500000; stroke-linejoin: round; stroke-linecap: butt;  opacity: 1.000000"
                 xlink:href="#m20b58b2501143cb5e0a5e8f1ef6f1643"
                 x="518.400000"
                 y="181.440000"
                 id="use329" />
            </g>
          </g>
          <g
             id="text13">
            <g
               style="fill: #000000; opacity: 1.000000"
               transform="translate(62.781250,185.815000)scale(0.120000)"
               id="g332">
              <use
                 xlink:href="#c_42baa63129a918535c52adb20d687ea7"
                 id="use334" />
            </g>
          </g>
        </g>
        <g
           id="ytick5">
          <g
             id="line2d28">
            <g
               id="g338">
              <use
                 style="fill: none; stroke: #000000; stroke-width: 0.500000; stroke-linejoin: round; stroke-linecap: butt;  opacity: 1.000000"
                 xlink:href="#m3400efa6b1638b3fea9e19e898273957"
                 x="72.000000"
                 y="112.320000"
                 id="use340" />
            </g>
          </g>
          <g
             id="line2d29">
            <g
               id="g343">
              <use
                 style="fill: none; stroke: #000000; stroke-width: 0.500000; stroke-linejoin: round; stroke-linecap: butt;  opacity: 1.000000"
                 xlink:href="#m20b58b2501143cb5e0a5e8f1ef6f1643"
                 x="518.400000"
                 y="112.320000"
                 id="use345" />
            </g>
          </g>
          <g
             id="text14">
            <g
               style="fill: #000000; opacity: 1.000000"
               transform="translate(62.437500,116.773125)scale(0.120000)"
               id="g348">
              <use
                 xlink:href="#c_ed3f3ed3ebfbd18bcb9c012009a68ad1"
                 id="use350" />
            </g>
          </g>
        </g>
        <g
           id="ytick6">
          <g
             id="line2d30">
            <g
               id="g354">
              <use
                 style="fill: none; stroke: #000000; stroke-width: 0.500000; stroke-linejoin: round; stroke-linecap: butt;  opacity: 1.000000"
                 xlink:href="#m3400efa6b1638b3fea9e19e898273957"
                 x="72.000000"
                 y="43.200000"
                 id="use356" />
            </g>
          </g>
          <g
             id="line2d31">
            <g
               id="g359">
              <use
                 style="fill: none; stroke: #000000; stroke-width: 0.500000; stroke-linejoin: round; stroke-linecap: butt;  opacity: 1.000000"
                 xlink:href="#m20b58b2501143cb5e0a5e8f1ef6f1643"
                 x="518.400000"
                 y="43.200000"
                 id="use361" />
            </g>
          </g>
          <g
             id="text15">
            <g
               style="fill: #000000; opacity: 1.000000"
               transform="translate(62.250000,47.567187)scale(0.120000)"
               id="g364">
              <use
                 xlink:href="#c_3dcfa38a02242cb63ec6726c6e70be7a"
                 id="use366" />
            </g>
          </g>
        </g>
        <g
           id="text16">
          <defs
             id="defs369">
            <path
               id="c_ff9441f72805bc441fcb0bfe0d774f13"
               d="M19.671875 -64.796875l0.000000 56.687500l11.921875 0.000000q15.093750 0.000000 22.093750 -6.828125q7.000000 -6.843750 7.000000 -21.593750q0.000000 -14.640625 -7.000000 -21.453125q-7.000000 -6.812500 -22.093750 -6.812500zM9.812500 -72.906250l20.265625 0.000000q21.187500 0.000000 31.093750 8.812500q9.921875 8.812500 9.921875 27.562500q0.000000 18.859375 -9.968750 27.703125q-9.953125 8.828125 -31.046875 8.828125l-20.265625 0.000000z" />
            <path
               id="c_01d93a582460e35a7945ca50d148ffeb"
               d="M34.281250 -27.484375q-10.890625 0.000000 -15.093750 2.484375q-4.203125 2.484375 -4.203125 8.500000q0.000000 4.781250 3.156250 7.593750q3.156250 2.796875 8.562500 2.796875q7.484375 0.000000 12.000000 -5.296875q4.515625 -5.296875 4.515625 -14.078125l0.000000 -2.000000zM52.203125 -31.203125l0.000000 31.203125l-8.984375 0.000000l0.000000 -8.296875q-3.078125 4.968750 -7.671875 7.343750q-4.593750 2.375000 -11.234375 2.375000q-8.390625 0.000000 -13.359375 -4.718750q-4.953125 -4.718750 -4.953125 -12.625000q0.000000 -9.218750 6.171875 -13.906250q6.187500 -4.687500 18.437500 -4.687500l12.609375 0.000000l0.000000 -0.890625q0.000000 -6.203125 -4.078125 -9.593750q-4.078125 -3.390625 -11.453125 -3.390625q-4.687500 0.000000 -9.140625 1.125000q-4.437500 1.125000 -8.531250 3.375000l0.000000 -8.312500q4.921875 -1.906250 9.562500 -2.843750q4.640625 -0.953125 9.031250 -0.953125q11.875000 0.000000 17.734375 6.156250q5.859375 6.140625 5.859375 18.640625" />
          </defs>
          <g
             style="fill: #000000; opacity: 1.000000"
             transform="translate(47.671875,229.023438)rotate(-90.0)scale(0.120000)"
             id="g373">
            <use
               xlink:href="#c_ff9441f72805bc441fcb0bfe0d774f13"
               id="use375" />
            <use
               xlink:href="#c_01d93a582460e35a7945ca50d148ffeb"
               x="77.001953"
               id="use377" />
            <use
               xlink:href="#c_0f8c41144cfbf448378cb6fd1cc8e549"
               x="138.281250"
               id="use379" />
            <use
               xlink:href="#c_01d93a582460e35a7945ca50d148ffeb"
               x="177.490234"
               id="use381" />
          </g>
        </g>
      </g>
      <g
         id="patch3">
        <path
           style="fill: none; stroke: #000000; stroke-width: 1.000000; stroke-linejoin: round; stroke-linecap: square;  opacity: 1.000000"
           d="M72.000000 43.200000L518.400000 43.200000"
           id="path384" />
      </g>
      <g
         id="patch4">
        <path
           style="fill: none; stroke: #000000; stroke-width: 1.000000; stroke-linejoin: round; stroke-linecap: square;  opacity: 1.000000"
           d="M518.400000 388.800000L518.400000 43.200000"
           id="path387" />
      </g>
      <g
         id="patch5">
        <path
           style="fill: none; stroke: #000000; stroke-width: 1.000000; stroke-linejoin: round; stroke-linecap: square;  opacity: 1.000000"
           d="M72.000000 388.800000L518.400000 388.800000"
           id="path390" />
      </g>
      <g
         id="patch6">
        <path
           style="fill: none; stroke: #000000; stroke-width: 1.000000; stroke-linejoin: round; stroke-linecap: square;  opacity: 1.000000"
           d="M72.000000 388.800000L72.000000 43.200000"
           id="path393" />
      </g>
      <g
         id="text17">
        <defs
           id="defs396">
          <path
             id="c_518d586bee075aa0153eaebfcb5ab11f"
             d="M19.671875 -64.796875l0.000000 27.390625l12.406250 0.000000q6.890625 0.000000 10.640625 -3.562500q3.765625 -3.562500 3.765625 -10.156250q0.000000 -6.546875 -3.765625 -10.109375q-3.750000 -3.562500 -10.640625 -3.562500zM9.812500 -72.906250l22.265625 0.000000q12.265625 0.000000 18.531250 5.546875q6.281250 5.546875 6.281250 16.234375q0.000000 10.796875 -6.281250 16.312500q-6.265625 5.515625 -18.531250 5.515625l-12.406250 0.000000l0.000000 29.296875l-9.859375 0.000000z" />
          <path
             id="c_d650c37394b681142a10dfc54356d478"
             d="M48.781250 -52.593750l0.000000 8.406250q-3.812500 -2.109375 -7.640625 -3.156250q-3.828125 -1.046875 -7.734375 -1.046875q-8.750000 0.000000 -13.593750 5.546875q-4.828125 5.531250 -4.828125 15.546875q0.000000 10.015625 4.828125 15.562500q4.843750 5.531250 13.593750 5.531250q3.906250 0.000000 7.734375 -1.046875q3.828125 -1.046875 7.640625 -3.156250l0.000000 8.312500q-3.765625 1.750000 -7.796875 2.625000q-4.015625 0.890625 -8.562500 0.890625q-12.359375 0.000000 -19.640625 -7.765625q-7.265625 -7.765625 -7.265625 -20.953125q0.000000 -13.375000 7.343750 -21.031250q7.359375 -7.671875 20.156250 -7.671875q4.140625 0.000000 8.093750 0.859375q3.953125 0.843750 7.671875 2.546875" />
          <path
             id="c_dcb78ab3124be785176d70a27dde1356"
             d="M9.078125 -75.984375l9.031250 0.000000l0.000000 44.875000l26.812500 -23.578125l11.468750 0.000000l-29.000000 25.578125l30.234375 29.109375l-11.718750 0.000000l-27.796875 -26.703125l0.000000 26.703125l-9.031250 0.000000z" />
          <path
             id="c_425fd1cbcd899bef0a79975ae4756bf8"
             d="M19.671875 -34.812500l0.000000 26.703125l15.828125 0.000000q7.953125 0.000000 11.781250 -3.296875q3.843750 -3.296875 3.843750 -10.078125q0.000000 -6.843750 -3.843750 -10.078125q-3.828125 -3.250000 -11.781250 -3.250000zM19.671875 -64.796875l0.000000 21.968750l14.609375 0.000000q7.218750 0.000000 10.750000 -2.703125q3.546875 -2.718750 3.546875 -8.281250q0.000000 -5.515625 -3.546875 -8.250000q-3.531250 -2.734375 -10.750000 -2.734375zM9.812500 -72.906250l25.203125 0.000000q11.281250 0.000000 17.375000 4.687500q6.109375 4.687500 6.109375 13.328125q0.000000 6.703125 -3.125000 10.656250q-3.125000 3.953125 -9.187500 4.921875q7.281250 1.562500 11.312500 6.531250q4.031250 4.953125 4.031250 12.375000q0.000000 9.765625 -6.640625 15.093750q-6.640625 5.312500 -18.906250 5.312500l-26.171875 0.000000z" />
          <path
             id="c_f05dd90d41f04bb96ef1ca503cc2044b"
             d="M30.609375 -48.390625q-7.218750 0.000000 -11.421875 5.640625q-4.203125 5.640625 -4.203125 15.453125q0.000000 9.812500 4.171875 15.453125q4.187500 5.640625 11.453125 5.640625q7.187500 0.000000 11.375000 -5.656250q4.203125 -5.671875 4.203125 -15.437500q0.000000 -9.718750 -4.203125 -15.406250q-4.187500 -5.687500 -11.375000 -5.687500M30.609375 -56.000000q11.718750 0.000000 18.406250 7.625000q6.703125 7.609375 6.703125 21.078125q0.000000 13.421875 -6.703125 21.078125q-6.687500 7.640625 -18.406250 7.640625q-11.765625 0.000000 -18.437500 -7.640625q-6.656250 -7.656250 -6.656250 -21.078125q0.000000 -13.468750 6.656250 -21.078125q6.671875 -7.625000 18.437500 -7.625000" />
          <path
             id="c_c48ceabac27bf136feba2f4bf2716ab6"
             d="M2.984375 -54.687500l9.515625 0.000000l17.093750 45.890625l17.093750 -45.890625l9.515625 0.000000l-20.515625 54.687500l-12.203125 0.000000z" />
          <path
             id="c_ed3e21196fb739f392806f09ca0594ef"
             d="M10.687500 -12.406250l10.312500 0.000000l0.000000 12.406250l-10.312500 0.000000z" />
        </defs>
        <g
           style="fill: #000000; opacity: 1.000000"
           transform="translate(215.004687,37.996875)scale(0.144000)"
           id="g405">
          <use
             xlink:href="#c_518d586bee075aa0153eaebfcb5ab11f"
             id="use407" />
          <use
             xlink:href="#c_01d93a582460e35a7945ca50d148ffeb"
             x="55.802734"
             id="use409" />
          <use
             xlink:href="#c_d650c37394b681142a10dfc54356d478"
             x="117.082031"
             id="use411" />
          <use
             xlink:href="#c_dcb78ab3124be785176d70a27dde1356"
             x="172.062500"
             id="use413" />
          <use
             xlink:href="#c_425fd1cbcd899bef0a79975ae4756bf8"
             x="229.972656"
             id="use415" />
          <use
             xlink:href="#c_f05dd90d41f04bb96ef1ca503cc2044b"
             x="298.576172"
             id="use417" />
          <use
             xlink:href="#c_0f8c41144cfbf448378cb6fd1cc8e549"
             x="359.757812"
             id="use419" />
          <use
             xlink:href="#c_d41d8cd98f00b204e9800998ecf8427e"
             x="398.966797"
             id="use421" />
          <use
             xlink:href="#c_ff9441f72805bc441fcb0bfe0d774f13"
             x="430.753906"
             id="use423" />
          <use
             xlink:href="#c_01d93a582460e35a7945ca50d148ffeb"
             x="507.755859"
             id="use425" />
          <use
             xlink:href="#c_0f8c41144cfbf448378cb6fd1cc8e549"
             x="569.035156"
             id="use427" />
          <use
             xlink:href="#c_01d93a582460e35a7945ca50d148ffeb"
             x="608.244141"
             id="use429" />
          <use
             xlink:href="#c_d41d8cd98f00b204e9800998ecf8427e"
             x="669.523438"
             id="use431" />
          <use
             xlink:href="#c_c48ceabac27bf136feba2f4bf2716ab6"
             x="701.310547"
             id="use433" />
          <use
             xlink:href="#c_8e0810ad13fe20a2a87a2619799b154d"
             x="760.490234"
             id="use435" />
          <use
             xlink:href="#c_ed3e21196fb739f392806f09ca0594ef"
             x="812.589844"
             id="use437" />
          <use
             xlink:href="#c_d41d8cd98f00b204e9800998ecf8427e"
             x="844.376953"
             id="use439" />
          <use
             xlink:href="#c_9e4b30cbdf32072672ded72e9074c4c9"
             x="876.164062"
             id="use441" />
          <use
             xlink:href="#c_6a63bda47b2f3da1cec6aadd80692cfe"
             x="934.123047"
             id="use443" />
          <use
             xlink:href="#c_4653c6dfde66c7610eae0911760d3490"
             x="961.906250"
             id="use445" />
          <use
             xlink:href="#c_0bce5afba2dc6b9024b26277c38ad8e8"
             x="1059.318359"
             id="use447" />
        </g>
      </g>
    </g>
    <g
       id="legend1">
      <g
         id="patch7">
        <path
           style="fill: #ffffff; stroke: #000000; stroke-width: 1.000000; stroke-linejoin: round; stroke-linecap: square;  opacity: 1.000000"
           d="M397.647500 71.057500L568.800000 71.057500L568.800000 7.200000 L397.647500 7.200000L397.647500 71.057500z"
           id="path451" />
      </g>
      <g
         id="line2d32">
        <path
           style="fill: none; stroke: #0000ff; stroke-width: 1.000000; stroke-linejoin: round; stroke-linecap: square;  opacity: 1.000000"
           d="M407.727500 18.560625L427.887500 18.560625"
           id="path454" />
      </g>
      <g
         id="line2d33" />
      <g
         id="text18">
        <defs
           id="defs458">
          <path
             id="c_dbe439baa035de1a298d0549b22269d8"
             d="M9.812500 -72.906250l46.093750 0.000000l0.000000 8.312500l-36.234375 0.000000l0.000000 21.578125l34.718750 0.000000l0.000000 8.296875l-34.718750 0.000000l0.000000 26.421875l37.109375 0.000000l0.000000 8.296875l-46.968750 0.000000z" />
          <path
             id="c_fe791a90f5471e2ab20a5ed41a7fa451"
             d="M54.890625 -33.015625l0.000000 33.015625l-8.984375 0.000000l0.000000 -32.718750q0.000000 -7.765625 -3.031250 -11.609375q-3.031250 -3.859375 -9.078125 -3.859375q-7.281250 0.000000 -11.484375 4.640625q-4.203125 4.625000 -4.203125 12.640625l0.000000 30.906250l-9.031250 0.000000l0.000000 -54.687500l9.031250 0.000000l0.000000 8.500000q3.234375 -4.937500 7.593750 -7.375000q4.375000 -2.437500 10.093750 -2.437500q9.421875 0.000000 14.250000 5.828125q4.843750 5.828125 4.843750 17.156250" />
          <path
             id="c_d821beae607506e87470f334d9ff47af"
             d="M45.406250 -46.390625l0.000000 -29.593750l8.984375 0.000000l0.000000 75.984375l-8.984375 0.000000l0.000000 -8.203125q-2.828125 4.875000 -7.156250 7.250000q-4.312500 2.375000 -10.375000 2.375000q-9.906250 0.000000 -16.140625 -7.906250q-6.218750 -7.921875 -6.218750 -20.812500q0.000000 -12.890625 6.218750 -20.796875q6.234375 -7.906250 16.140625 -7.906250q6.062500 0.000000 10.375000 2.375000q4.328125 2.359375 7.156250 7.234375M14.796875 -27.296875q0.000000 9.906250 4.078125 15.546875q4.078125 5.640625 11.203125 5.640625q7.125000 0.000000 11.218750 -5.640625q4.109375 -5.640625 4.109375 -15.546875q0.000000 -9.906250 -4.109375 -15.546875q-4.093750 -5.640625 -11.218750 -5.640625q-7.125000 0.000000 -11.203125 5.640625q-4.078125 5.640625 -4.078125 15.546875" />
          <path
             id="c_6ec8d5749226675394676a5d2a3b468b"
             d="M41.109375 -46.296875q-1.515625 -0.875000 -3.296875 -1.281250q-1.781250 -0.421875 -3.921875 -0.421875q-7.625000 0.000000 -11.703125 4.953125q-4.078125 4.953125 -4.078125 14.234375l0.000000 28.812500l-9.031250 0.000000l0.000000 -54.687500l9.031250 0.000000l0.000000 8.500000q2.843750 -4.984375 7.375000 -7.390625q4.546875 -2.421875 11.046875 -2.421875q0.921875 0.000000 2.046875 0.125000q1.125000 0.109375 2.484375 0.359375z" />
          <path
             id="c_ae70b0af174184799fa4976b9c5da571"
             d="M28.609375 -0.000000l-27.828125 -72.906250l10.296875 0.000000l23.109375 61.375000l23.140625 -61.375000l10.250000 0.000000l-27.781250 72.906250z" />
          <path
             id="c_5099edb83619131346ae654950954dea"
             d="M9.421875 -75.984375l8.984375 0.000000l0.000000 75.984375l-8.984375 0.000000z" />
          <path
             id="c_3fe22c4af425ac970aec982ae9662abe"
             d="M32.171875 5.078125q-3.796875 9.765625 -7.421875 12.734375q-3.609375 2.984375 -9.656250 2.984375l-7.187500 0.000000l0.000000 -7.515625l5.281250 0.000000q3.703125 0.000000 5.750000 -1.765625q2.062500 -1.750000 4.546875 -8.296875l1.609375 -4.093750l-22.109375 -53.812500l9.515625 0.000000l17.093750 42.765625l17.093750 -42.765625l9.515625 0.000000z" />
        </defs>
        <g
           style="fill: #000000; opacity: 1.000000"
           transform="translate(443.727500,23.600625)scale(0.144000)"
           id="g467">
          <use
             xlink:href="#c_dbe439baa035de1a298d0549b22269d8"
             id="use469" />
          <use
             xlink:href="#c_fe791a90f5471e2ab20a5ed41a7fa451"
             x="63.183594"
             id="use471" />
          <use
             xlink:href="#c_d650c37394b681142a10dfc54356d478"
             x="126.562500"
             id="use473" />
          <use
             xlink:href="#c_f05dd90d41f04bb96ef1ca503cc2044b"
             x="181.542969"
             id="use475" />
          <use
             xlink:href="#c_d821beae607506e87470f334d9ff47af"
             x="242.724609"
             id="use477" />
          <use
             xlink:href="#c_0bce5afba2dc6b9024b26277c38ad8e8"
             x="306.201172"
             id="use479" />
          <use
             xlink:href="#c_6ec8d5749226675394676a5d2a3b468b"
             x="367.724609"
             id="use481" />
          <use
             xlink:href="#c_d41d8cd98f00b204e9800998ecf8427e"
             x="408.837891"
             id="use483" />
          <use
             xlink:href="#c_ae70b0af174184799fa4976b9c5da571"
             x="440.625000"
             id="use485" />
          <use
             xlink:href="#c_0bce5afba2dc6b9024b26277c38ad8e8"
             x="501.283203"
             id="use487" />
          <use
             xlink:href="#c_5099edb83619131346ae654950954dea"
             x="562.806641"
             id="use489" />
          <use
             xlink:href="#c_f05dd90d41f04bb96ef1ca503cc2044b"
             x="590.589844"
             id="use491" />
          <use
             xlink:href="#c_d650c37394b681142a10dfc54356d478"
             x="651.771484"
             id="use493" />
          <use
             xlink:href="#c_6a63bda47b2f3da1cec6aadd80692cfe"
             x="706.751953"
             id="use495" />
          <use
             xlink:href="#c_0f8c41144cfbf448378cb6fd1cc8e549"
             x="734.535156"
             id="use497" />
          <use
             xlink:href="#c_3fe22c4af425ac970aec982ae9662abe"
             x="773.744141"
             id="use499" />
        </g>
      </g>
      <g
         id="line2d34">
        <path
           style="fill: none; stroke: #008000; stroke-width: 1.000000; stroke-linejoin: round; stroke-linecap: square;  opacity: 1.000000"
           d="M407.727500 39.307500L427.887500 39.307500"
           id="path502" />
      </g>
      <g
         id="line2d35" />
      <g
         id="text19">
        <defs
           id="defs506">
          <path
             id="c_3b86f9879deccc43ffac57ae939fe3b7"
             d="M59.515625 -10.406250l0.000000 -19.578125l-16.109375 0.000000l0.000000 -8.109375l25.875000 0.000000l0.000000 31.312500q-5.703125 4.046875 -12.593750 6.125000q-6.875000 2.078125 -14.687500 2.078125q-17.093750 0.000000 -26.750000 -9.984375q-9.640625 -10.000000 -9.640625 -27.812500q0.000000 -17.875000 9.640625 -27.859375q9.656250 -9.984375 26.750000 -9.984375q7.125000 0.000000 13.546875 1.765625q6.421875 1.750000 11.843750 5.171875l0.000000 10.500000q-5.468750 -4.640625 -11.625000 -6.984375q-6.156250 -2.343750 -12.937500 -2.343750q-13.390625 0.000000 -20.109375 7.468750q-6.703125 7.468750 -6.703125 22.265625q0.000000 14.750000 6.703125 22.218750q6.718750 7.468750 20.109375 7.468750q5.218750 0.000000 9.312500 -0.906250q4.109375 -0.906250 7.375000 -2.812500" />
          <path
             id="c_b672e4bee30772019085dff1098f516d"
             d="M53.515625 -70.515625l0.000000 9.625000q-5.609375 -2.687500 -10.593750 -4.000000q-4.984375 -1.328125 -9.625000 -1.328125q-8.046875 0.000000 -12.421875 3.125000q-4.375000 3.125000 -4.375000 8.890625q0.000000 4.843750 2.906250 7.312500q2.906250 2.453125 11.015625 3.968750l5.953125 1.218750q11.031250 2.109375 16.281250 7.406250q5.250000 5.296875 5.250000 14.171875q0.000000 10.609375 -7.109375 16.078125q-7.093750 5.468750 -20.812500 5.468750q-5.171875 0.000000 -11.015625 -1.171875q-5.828125 -1.171875 -12.078125 -3.468750l0.000000 -10.156250q6.000000 3.359375 11.765625 5.078125q5.765625 1.703125 11.328125 1.703125q8.437500 0.000000 13.031250 -3.312500q4.593750 -3.328125 4.593750 -9.484375q0.000000 -5.359375 -3.296875 -8.390625q-3.296875 -3.031250 -10.812500 -4.546875l-6.015625 -1.171875q-11.031250 -2.187500 -15.968750 -6.875000q-4.921875 -4.687500 -4.921875 -13.046875q0.000000 -9.671875 6.812500 -15.234375q6.812500 -5.562500 18.765625 -5.562500q5.140625 0.000000 10.453125 0.937500q5.328125 0.921875 10.890625 2.765625" />
        </defs>
        <g
           style="fill: #000000; opacity: 1.000000"
           transform="translate(443.727500,44.347500)scale(0.144000)"
           id="g510">
          <use
             xlink:href="#c_3b86f9879deccc43ffac57ae939fe3b7"
             id="use512" />
          <use
             xlink:href="#c_518d586bee075aa0153eaebfcb5ab11f"
             x="77.490234"
             id="use514" />
          <use
             xlink:href="#c_b672e4bee30772019085dff1098f516d"
             x="137.792969"
             id="use516" />
          <use
             xlink:href="#c_d41d8cd98f00b204e9800998ecf8427e"
             x="201.269531"
             id="use518" />
          <use
             xlink:href="#c_ae70b0af174184799fa4976b9c5da571"
             x="233.056641"
             id="use520" />
          <use
             xlink:href="#c_0bce5afba2dc6b9024b26277c38ad8e8"
             x="293.714844"
             id="use522" />
          <use
             xlink:href="#c_5099edb83619131346ae654950954dea"
             x="355.238281"
             id="use524" />
          <use
             xlink:href="#c_f05dd90d41f04bb96ef1ca503cc2044b"
             x="383.021484"
             id="use526" />
          <use
             xlink:href="#c_d650c37394b681142a10dfc54356d478"
             x="444.203125"
             id="use528" />
          <use
             xlink:href="#c_6a63bda47b2f3da1cec6aadd80692cfe"
             x="499.183594"
             id="use530" />
          <use
             xlink:href="#c_0f8c41144cfbf448378cb6fd1cc8e549"
             x="526.966797"
             id="use532" />
          <use
             xlink:href="#c_3fe22c4af425ac970aec982ae9662abe"
             x="566.175781"
             id="use534" />
        </g>
      </g>
      <g
         id="line2d36">
        <path
           style="fill: none; stroke: #ff0000; stroke-width: 1.000000; stroke-linejoin: round; stroke-linecap: square;  opacity: 1.000000"
           d="M407.727500 60.054375L427.887500 60.054375"
           id="path537" />
      </g>
      <g
         id="line2d37" />
      <g
         id="text20">
        <defs
           id="defs541">
          <path
             id="c_867d5c614e055a6de802b159158cbff4"
             d="M-0.203125 -72.906250l10.609375 0.000000l20.203125 29.984375l20.078125 -29.984375l10.593750 0.000000l-25.781250 38.187500l0.000000 34.718750l-9.906250 0.000000l0.000000 -34.718750z" />
          <path
             id="c_57adaa7083d7229075db8bc2c5b2febe"
             d="M4.203125 -54.687500l8.984375 0.000000l11.234375 42.671875l11.171875 -42.671875l10.593750 0.000000l11.234375 42.671875l11.187500 -42.671875l8.984375 0.000000l-14.312500 54.687500l-10.593750 0.000000l-11.765625 -44.828125l-11.812500 44.828125l-10.609375 0.000000z" />
        </defs>
        <g
           style="fill: #000000; opacity: 1.000000"
           transform="translate(443.727500,65.094375)scale(0.144000)"
           id="g545">
          <use
             xlink:href="#c_867d5c614e055a6de802b159158cbff4"
             id="use547" />
          <use
             xlink:href="#c_01d93a582460e35a7945ca50d148ffeb"
             x="47.333984"
             id="use549" />
          <use
             xlink:href="#c_57adaa7083d7229075db8bc2c5b2febe"
             x="108.613281"
             id="use551" />
        </g>
      </g>
    </g>
  </g>
  <path
     style="fill:none;stroke:#000000;stroke-width:0.80000007px;stroke-linecap:butt;stroke-linejoin:miter;stroke-opacity:1;marker-start:url(#Arrow1Lstart)"
     d="m 429.2398,347.03801 -93.2731,12.785"
     id="path4243"
     inkscape:export-filename="/home/thomas/school/thesis/thomas/images/text5075.png"
     inkscape:export-xdpi="100"
     inkscape:export-ydpi="100" />
  <text
     xml:space="preserve"
     style="font-size:14.39999962px;font-style:italic;font-variant:normal;font-weight:normal;font-stretch:normal;text-align:start;line-height:125%;writing-mode:lr-tb;text-anchor:start;fill:#000000;fill-opacity:1;stroke:none;font-family:FreeSerif;-inkscape-font-specification:FreeSerif Italic"
     x="289.74658"
     y="363.88489"
     id="text5075"
     transform="scale(0.99986062,1.0001394)"
     inkscape:export-xdpi="100"
     inkscape:export-ydpi="100"
     sodipodi:linespacing="125%"><tspan
       sodipodi:role="line"
       id="tspan5077"
       x="289.74658"
       y="363.88489"
       style="font-size:14.39999962px;font-style:italic;font-variant:normal;font-weight:normal;font-stretch:normal;text-align:start;line-height:125%;writing-mode:lr-tb;text-anchor:start;font-family:FreeSerif;-inkscape-font-specification:FreeSerif Italic">Reverse</tspan></text>
</svg>
