<?xml version="1.0" standalone="no"?>
<!DOCTYPE svg PUBLIC "-//W3C//DTD SVG 1.1//EN"
  "http://www.w3.org/Graphics/SVG/1.1/DTD/svg11.dtd">
<!-- Created with matplotlib (http://matplotlib.sourceforge.net/) -->
<svg width="1728pt" height="1005pt" viewBox="0 0 1728 1005"
   xmlns="http://www.w3.org/2000/svg"
   xmlns:xlink="http://www.w3.org/1999/xlink"
   version="1.1"
   id="svg1">
<g id="figure1">
<g id="patch1">
<path style="fill: #ffffff; stroke: #ffffff; stroke-width: 1.000000; stroke-linejoin: round; stroke-linecap: square;  opacity: 1.000000"  d="M0.000000 1005.300000L1728.000000 1005.300000L1728.000000 0.000000
L0.000000 0.000000L0.000000 1005.300000"/>
</g>
<g id="axes1">
<g id="patch2">
<path style="fill: #ffffff; opacity: 1.000000"  d="M216.000000 904.770000L1555.200000 904.770000L1555.200000 100.530000
L216.000000 100.530000L216.000000 904.770000"/>
</g>
<g id="line2d1">
<defs>
  <clipPath id="p1093b519e0ea38bc825f2418caa11e40">
<rect x="216.000000" y="100.530000" width="1339.200000" height="804.240000"/>
  </clipPath>
</defs><path style="fill: none; stroke: #0000ff; stroke-width: 1.000000; stroke-linejoin: round; stroke-linecap: square;  opacity: 1.000000" clip-path="url(#p1093b519e0ea38bc825f2418caa11e40)" d="M216.000000 502.650000L217.488000 502.650000L221.952000 501.013472
L236.832000 495.405406L241.296000 493.548114L244.272000 492.423988
L251.712000 489.821065L262.128000 486.108291L263.616000 485.790214
L268.080000 483.990225L274.032000 482.235674L278.496000 480.753661
L282.960000 479.380824L287.424000 477.721375L291.888000 476.323204
L296.352000 474.705173L300.816000 473.492882L308.256000 470.985865
L312.720000 469.715266L324.624000 466.031646L332.064000 463.936601
L336.528000 462.581356L355.872000 457.492025L360.336000 456.059271
L364.800000 455.024315L367.776000 454.108185L372.240000 452.873978
L376.704000 451.776190L385.632000 449.471741L390.096000 448.500621
L394.560000 447.165080L397.536000 446.434730L406.464000 444.197837
L416.880000 441.827742L428.784000 439.194258L436.224000 437.291426
L440.688000 436.426365L443.664000 435.761058L451.104000 434.203647
L485.328000 427.121710L489.792000 426.346524L495.744000 425.198974
L501.696000 424.336527L503.184000 424.336527L507.648000 423.493583
L512.112000 423.163040L519.552000 421.733202L532.944000 419.701390
L537.408000 418.841758L549.312000 417.445698L553.776000 417.345168
L558.240000 419.540442L561.216000 425.013797L562.704000 429.224396
L564.192000 431.755339L565.680000 435.869328L567.168000 438.530860
L568.656000 444.254335L570.144000 447.004534L571.632000 451.459722
L573.120000 454.554337L574.608000 460.022968L576.096000 461.907604
L577.584000 467.213376L580.560000 472.199564L582.048000 474.489134
L585.024000 484.521425L586.512000 487.692946L588.000000 489.608645
L593.952000 504.851205L595.440000 505.109064L599.904000 504.385248
L619.248000 499.400770L622.224000 498.538222L625.200000 497.899656
L626.688000 499.108429L628.176000 499.474458L632.640000 498.290818
L637.104000 497.363429L640.080000 500.844180L646.032000 522.636269
L647.520000 529.621093L649.008000 534.644879L650.496000 542.878587
L654.960000 557.887113L656.448000 566.482730L657.936000 571.850730
L659.424000 583.024137L660.912000 590.584496L662.400000 600.987642
L669.840000 625.266441L674.304000 640.574848L675.792000 644.688234
L677.280000 651.667026L680.256000 670.645784L681.744000 682.569144
L683.232000 689.901802L684.720000 702.092070L686.208000 709.949596
L687.696000 721.437259L690.672000 729.198577L692.160000 732.316113
L693.648000 740.453011L695.136000 744.680197L699.600000 759.400805
L704.064000 768.014819L705.552000 772.533441L707.040000 773.410766
L710.016000 778.830540L715.968000 797.063565L717.456000 803.132461
L718.944000 805.880449L721.920000 814.925937L723.408000 187.280353
L724.896000 193.721712L726.384000 197.544365L727.872000 202.640332
L729.360000 206.241216L730.848000 214.179768L733.824000 225.279285
L735.312000 227.935288L736.800000 233.561349L738.288000 236.056906
L739.776000 240.649820L741.264000 243.649132L742.752000 248.535996
L744.240000 251.179634L745.728000 256.634894L747.216000 260.030496
L750.192000 269.297050L751.680000 278.021847L753.168000 281.058457
L756.144000 289.770185L757.632000 300.329555L759.120000 307.238479
L763.584000 344.661877L765.072000 358.798808L766.560000 368.228120
L768.048000 374.288973L769.536000 377.839391L771.024000 380.308911
L772.512000 380.945567L775.488000 377.066416L778.464000 370.952081
L781.440000 361.823354L782.928000 354.426658L784.416000 350.471707
L785.904000 344.961658L787.392000 342.506615L794.832000 314.994570
L796.320000 315.401817L797.808000 318.152317L799.296000 318.166090
L800.784000 319.500425L802.272000 321.427484L808.224000 351.403017
L809.712000 364.246026L812.688000 379.975553L814.176000 382.142276
L815.664000 387.183856L817.152000 390.595241L818.640000 396.940393
L820.128000 400.768676L821.616000 408.220060L826.080000 419.052670
L827.568000 427.969782L829.056000 432.119660L830.544000 440.494915
L832.032000 445.032537L837.984000 473.944664L845.424000 506.358853
L848.400000 520.301057L851.376000 536.786972L854.352000 546.480577
L857.328000 563.169764L858.816000 569.380306L866.256000 592.371215
L869.232000 597.901371L870.720000 604.698707L872.208000 608.225902
L873.696000 614.100875L875.184000 617.689595L878.160000 627.312327
L879.648000 636.879667L882.624000 648.497617L884.112000 649.377054
L885.600000 650.697113L887.088000 650.896363L888.576000 652.856296
L894.528000 672.125987L897.504000 685.012023L898.992000 697.184799
L900.480000 702.997745L901.968000 711.824681L903.456000 717.719660
L904.944000 728.034038L906.432000 734.085140L907.920000 744.667530
L910.896000 757.047901L912.384000 760.068224L913.872000 770.594217
L915.360000 778.698946L916.848000 790.650556L918.336000 796.240928
L919.824000 806.491872L921.312000 812.580673L922.800000 192.378531
L924.288000 198.829038L925.776000 210.058038L927.264000 213.113849
L928.752000 217.905209L930.240000 220.611275L933.216000 228.207825
L934.704000 236.672652L936.192000 241.659644L939.168000 257.435716
L943.632000 277.308185L946.608000 293.256968L948.096000 309.429229
L949.584000 319.542145L951.072000 334.561126L952.560000 340.769657
L954.048000 352.240935L957.024000 365.742616L958.512000 367.356022
L961.488000 367.155968L965.952000 364.566013L967.440000 363.960722
L971.904000 361.433398L973.392000 360.859774L974.880000 359.889559
L976.368000 359.364591L977.856000 358.476509L979.344000 357.988938
L983.808000 355.738172L985.296000 355.272517L988.272000 353.846198
L991.248000 352.567155L992.736000 351.996647L994.224000 352.341364
L995.712000 354.005236L997.200000 356.698837L998.688000 364.799745
L1001.664000 376.069158L1003.152000 385.162700L1004.640000 388.835765
L1006.128000 395.576301L1007.616000 400.237877L1009.104000 413.837073
L1010.592000 423.589187L1012.080000 437.644688L1013.568000 444.730746
L1015.056000 459.366306L1016.544000 466.265780L1019.520000 483.855715
L1021.008000 489.631968L1022.496000 493.817434L1025.472000 506.997621
L1028.448000 522.086872L1031.424000 530.289517L1034.400000 540.713272
L1038.864000 562.708130L1040.352000 565.882968L1043.328000 570.841007
L1046.304000 577.002189L1050.768000 601.352465L1052.256000 603.796450
L1055.232000 604.375603L1058.208000 611.882379L1059.696000 618.148816
L1061.184000 620.691622L1064.160000 624.313216L1065.648000 626.337588
L1068.624000 638.049434L1070.112000 647.272961L1071.600000 653.968259
L1073.088000 662.286312L1074.576000 665.415610L1076.064000 671.308276
L1077.552000 673.007836L1079.040000 675.238999L1080.528000 678.702861
L1083.504000 693.661825L1084.992000 700.730592L1086.480000 704.046172
L1087.968000 710.197301L1089.456000 713.748122L1093.920000 738.212700
L1095.408000 740.859052L1099.872000 751.481554L1101.360000 753.669791
L1104.336000 764.393829L1105.824000 774.676138L1107.312000 779.756321
L1110.288000 794.130502L1111.776000 804.920186L1113.264000 810.326388
L1114.752000 813.147662L1117.728000 813.081312L1128.144000 808.310158
L1129.632000 807.863805L1134.096000 805.703616L1135.584000 805.204887
L1137.072000 804.321329L1141.536000 802.637753L1146.000000 800.436950
L1147.488000 800.000650L1148.976000 799.139108L1151.952000 797.895753
L1156.416000 796.033435L1157.904000 795.087146L1159.392000 794.577157
L1162.368000 793.159684L1166.832000 790.953352L1168.320000 790.471009
L1171.296000 789.100584L1172.784000 788.574511L1175.760000 787.115418
L1180.224000 784.841631L1184.688000 783.358612L1186.176000 785.661955
L1187.664000 789.030012L1189.152000 796.469534L1190.640000 798.643294
L1192.128000 804.065480L1193.616000 806.285182L1195.104000 810.804006
L1196.592000 814.169951L1198.080000 187.683880L1199.568000 191.326082
L1201.056000 198.031031L1205.520000 212.121617L1207.008000 218.634755
L1208.496000 223.466327L1212.960000 231.393621L1215.936000 243.210118
L1221.888000 268.262898L1223.376000 274.660828L1227.840000 300.934846
L1230.816000 312.385112L1232.304000 322.577950L1233.792000 328.009284
L1235.280000 336.556244L1239.744000 352.827125L1241.232000 360.526416
L1242.720000 364.583606L1244.208000 371.841269L1245.696000 375.953951
L1247.184000 384.706696L1248.672000 388.499592L1251.648000 398.938628
L1253.136000 407.512731L1254.624000 413.773035L1256.112000 427.711822
L1257.600000 437.123742L1259.088000 453.969654L1260.576000 462.616742
L1262.064000 474.777756L1263.552000 480.345811L1265.040000 488.710410
L1268.016000 498.764516L1269.504000 501.211818L1270.992000 508.969517
L1272.480000 513.791941L1273.968000 522.115322L1275.456000 525.966325
L1276.944000 534.192092L1278.432000 540.400121L1279.920000 548.678867
L1282.896000 557.715710L1284.384000 560.194980L1285.872000 565.516033
L1288.848000 590.282604L1291.824000 607.091924L1296.288000 628.987559
L1299.264000 635.119688L1303.728000 643.139067L1309.680000 660.729605
L1311.168000 669.601679L1312.656000 675.287053L1314.144000 686.030694
L1315.632000 691.370747L1317.120000 700.861181L1318.608000 708.049579
L1320.096000 719.896838L1321.584000 725.987046L1323.072000 735.853864
L1326.048000 747.573350L1327.536000 750.238903L1329.024000 759.792269
L1330.512000 766.638865L1332.000000 780.327532L1334.976000 791.027945
L1336.464000 795.536012L1337.952000 803.720159L1339.440000 808.095627
L1340.928000 817.394049L1342.416000 191.496481L1343.904000 201.173398
L1346.880000 213.783579L1348.368000 225.291550L1349.856000 230.917812
L1351.344000 237.892181L1352.832000 240.825948L1354.320000 241.740972
L1360.272000 240.654746L1375.152000 239.251246L1381.104000 239.251246
L1382.592000 604.766866L1384.080000 606.871964L1385.568000 605.117414
L1387.056000 605.994739L1388.544000 605.293643L1390.032000 605.643789
L1391.520000 596.880790L1393.008000 597.438531L1394.496000 598.779601
L1395.984000 601.908597L1397.472000 609.023105L1400.448000 629.177661
L1401.936000 634.969798L1403.424000 644.606603L1406.400000 656.821803
L1407.888000 658.992245L1407.888000 658.992245"/>
</g>
<g id="line2d2">
<path style="fill: none; stroke: #008000; stroke-width: 1.000000; stroke-linejoin: round; stroke-linecap: square;  opacity: 1.000000" clip-path="url(#p1093b519e0ea38bc825f2418caa11e40)" d="M216.000000 506.861001L217.488000 520.546753L218.976000 517.563927
L220.464000 520.020277L221.952000 519.143052L223.440000 519.844852
L224.928000 519.669427L226.416000 519.143052L227.904000 519.143052
L229.392000 519.844852L230.880000 519.143052L232.368000 520.371227
L233.856000 519.143052L235.344000 520.722178L236.832000 518.967527
L238.320000 520.371227L239.808000 520.371227L241.296000 519.143052
L242.784000 519.844852L244.272000 519.494003L245.760000 520.020277
L247.248000 519.844852L248.736000 519.143052L250.224000 520.371227
L251.712000 520.371227L253.200000 518.967527L254.688000 520.020277
L256.176000 518.967527L257.664000 520.897602L259.152000 518.616677
L260.640000 519.844852L262.128000 518.967527L263.616000 518.967527
L265.104000 520.371227L266.592000 519.143052L268.080000 520.546753
L269.568000 519.494003L271.056000 519.143052L272.544000 519.143052
L274.032000 519.844852L275.520000 518.792203L277.008000 520.195802
L278.496000 518.967527L279.984000 520.897602L281.472000 518.967527
L282.960000 518.967527L284.448000 520.722178L285.936000 518.792203
L287.424000 520.722178L288.912000 519.318477L290.400000 520.722178
L291.888000 519.494003L293.376000 519.318477L294.864000 519.669427
L296.352000 519.669427L297.840000 519.318477L299.328000 520.020277
L300.816000 519.318477L302.304000 520.371227L303.792000 518.967527
L305.280000 520.546753L306.768000 518.967527L308.256000 518.967527
L309.744000 520.371227L311.232000 519.143052L312.720000 519.844852
L314.208000 518.090302L315.696000 518.090302L317.184000 517.563927
L320.160000 517.563927L321.648000 519.669427L323.136000 519.844852
L324.624000 520.371227L326.112000 518.967527L327.600000 518.967527
L329.088000 520.371227L330.576000 518.616677L332.064000 520.195802
L333.552000 518.967527L335.040000 520.722178L336.528000 518.967527
L338.016000 519.494003L342.480000 519.318477L343.968000 520.020277
L345.456000 519.318477L346.944000 520.195802L348.432000 518.967527
L349.920000 520.020277L351.408000 520.020277L352.896000 518.441252
L354.384000 520.371227L355.872000 518.967527L357.360000 520.897602
L358.848000 518.792203L360.336000 520.722178L361.824000 519.318477
L364.800000 519.494003L369.264000 519.844852L370.752000 519.844852
L372.240000 520.546753L373.728000 518.792203L375.216000 518.792203
L376.704000 520.722178L378.192000 518.967527L379.680000 520.546753
L381.168000 518.967527L385.632000 518.967527L387.120000 519.844852
L388.608000 519.318477L390.096000 520.020277L391.584000 519.494003
L393.072000 520.020277L396.048000 520.020277L397.536000 518.616677
L399.024000 520.371227L400.512000 518.616677L402.000000 520.371227
L403.488000 518.792203L404.976000 520.722178L406.464000 520.722178
L407.952000 519.143052L409.440000 520.020277L410.928000 519.143052
L412.416000 520.546753L413.904000 519.318477L415.392000 519.669427
L416.880000 519.669427L418.368000 518.967527L419.856000 518.967527
L421.344000 520.195802L422.832000 518.967527L424.320000 520.020277
L425.808000 518.616677L427.296000 520.897602L428.784000 520.897602
L430.272000 520.020277L431.760000 520.020277L433.248000 519.143052
L434.736000 519.669427L436.224000 519.143052L437.712000 519.143052
L439.200000 519.669427L440.688000 519.669427L442.176000 520.020277
L443.664000 520.020277L445.152000 519.318477L446.640000 520.371227
L448.128000 518.967527L449.616000 520.722178L451.104000 520.722178
L452.592000 518.792203L454.080000 520.195802L455.568000 519.143052
L457.056000 520.020277L458.544000 519.143052L460.032000 520.195802
L461.520000 519.844852L463.008000 519.844852L464.496000 519.143052
L465.984000 520.020277L467.472000 519.318477L468.960000 520.020277
L470.448000 518.967527L471.936000 520.722178L473.424000 518.792203
L474.912000 518.792203L476.400000 520.371227L477.888000 518.967527
L479.376000 520.195802L480.864000 519.143052L482.352000 520.722178
L483.840000 520.722178L485.328000 519.318477L486.816000 519.318477
L488.304000 519.669427L489.792000 519.143052L491.280000 520.195802
L492.768000 519.143052L494.256000 520.546753L498.720000 520.546753
L500.208000 519.143052L501.696000 520.546753L503.184000 518.967527
L504.672000 521.073128L506.160000 521.073128L507.648000 519.318477
L509.136000 519.669427L512.112000 519.318477L513.600000 519.669427
L515.088000 519.494003L516.576000 520.371227L518.064000 520.371227
L519.552000 519.143052L521.040000 520.546753L522.528000 518.792203
L524.016000 520.546753L525.504000 518.441252L526.992000 520.546753
L528.480000 519.318477L529.968000 519.318477L531.456000 519.669427
L532.944000 519.494003L535.920000 519.669427L538.896000 519.669427
L540.384000 518.967527L541.872000 518.967527L543.360000 520.195802
L544.848000 518.792203L546.336000 520.195802L547.824000 514.932052
L549.312000 514.230252L550.800000 514.230252L552.288000 498.614424
L553.776000 498.614424L555.264000 462.821019L556.752000 438.958716
L558.240000 424.044889L559.728000 401.761711L561.216000 393.164285
L562.704000 393.164285L564.192000 394.743410L565.680000 401.235336
L567.168000 388.251384L568.656000 392.462384L570.144000 384.215909
L571.632000 393.866085L573.120000 397.550710L574.608000 397.550710
L576.096000 388.075959L579.072000 405.095386L580.560000 391.234209
L582.048000 383.689534L583.536000 374.390207L585.024000 392.813335
L586.512000 392.813335L588.000000 377.548457L589.488000 398.077086
L590.976000 378.776733L592.464000 409.657237L593.952000 362.810056
L595.440000 362.108155L596.928000 362.108155L598.416000 377.373033
L601.392000 370.881107L602.880000 368.951031L605.856000 369.126456
L607.344000 367.547331L608.832000 367.547331L610.320000 370.881107
L611.808000 366.494681L613.296000 368.249231L614.784000 371.582907
L616.272000 370.354732L617.760000 370.354732L619.248000 367.898281
L620.736000 375.793907L623.712000 360.353605L625.200000 375.267532
L626.688000 440.186991L628.176000 436.326941L629.664000 436.326941
L634.128000 475.980396L635.616000 471.944821L637.104000 378.776733
L638.592000 382.461258L640.080000 381.408608L641.568000 381.408608
L643.056000 367.196481L644.544000 387.374159L646.032000 364.564606
L647.520000 369.652831L649.008000 369.652831L650.496000 335.438552
L651.984000 335.438552L653.472000 325.612950L654.960000 325.612950
L656.448000 320.349200L657.936000 322.630125L659.424000 300.873322
L660.912000 300.873322L662.400000 291.925046L663.888000 291.925046
L665.376000 263.325367L666.864000 263.325367L668.352000 280.871169
L669.840000 267.185417L671.328000 268.939967L672.816000 268.939967
L674.304000 267.009992L675.792000 300.522472L677.280000 283.152094
L678.768000 279.818419L680.256000 275.431993L681.744000 281.572969
L684.720000 285.433019L686.208000 285.433019L687.696000 281.397544
L689.184000 286.661295L690.672000 285.783970L692.160000 297.364221
L693.648000 293.855021L695.136000 299.294196L699.600000 299.118772
L701.088000 302.978822L702.576000 303.856147L704.064000 303.856147
L705.552000 307.716198L707.040000 307.716198L708.528000 306.838973
L710.016000 306.838973L711.504000 309.119898L712.992000 313.506324
L715.968000 318.243699L718.944000 318.243699L720.432000 323.507450
L721.920000 323.507450L723.408000 330.525751L726.384000 331.403076
L727.872000 333.859426L729.360000 333.859426L730.848000 332.104876
L732.336000 340.175927L733.824000 338.421377L736.800000 348.246978
L738.288000 346.667853L739.776000 350.001629L741.264000 350.001629
L742.752000 356.318029L744.240000 350.528004L745.728000 358.248105
L747.216000 356.668980L748.704000 358.599055L750.192000 365.617356
L751.680000 368.249231L753.168000 368.249231L754.656000 357.195355
L757.632000 380.004908L759.120000 370.705581L760.608000 382.285833
L762.096000 382.285833L763.584000 416.851063L765.072000 416.851063
L766.560000 415.271938L768.048000 428.957690L769.536000 436.151416
L771.024000 402.112561L772.512000 405.270811L774.000000 405.270811
L775.488000 401.235336L776.976000 401.235336L778.464000 415.447363
L779.952000 453.346268L781.440000 452.118093L782.928000 434.572290
L784.416000 434.572290L785.904000 458.785544L788.880000 444.047042
L791.856000 524.757753L793.344000 518.967527L794.832000 510.896576
L796.320000 510.896576L797.808000 509.843826L799.296000 470.541221
L800.784000 417.026488L802.272000 412.991013L803.760000 477.910472
L805.248000 462.470170L808.224000 462.645594L809.712000 491.596123
L811.200000 535.109730L812.688000 535.285154L814.176000 428.080365
L815.664000 534.056979L817.152000 534.056979L818.640000 433.168691
L820.128000 433.168691L821.616000 390.532410L823.104000 411.938262
L824.592000 359.125430L826.080000 338.772227L827.568000 667.755948
L829.056000 667.755948L830.544000 187.001181L832.032000 187.001181
L833.520000 268.413592L835.008000 207.529709L836.496000 812.157843
L837.984000 232.444762L839.472000 230.339262L840.960000 230.339262
L842.448000 803.560417L843.936000 239.989438L845.424000 239.112213
L846.912000 236.304813L848.400000 245.077764L849.888000 250.692365
L851.376000 262.974416L852.864000 262.974416L854.352000 249.464190
L855.840000 264.378117L857.328000 245.428614L858.816000 256.833441
L860.304000 256.833441L861.792000 277.186544L863.280000 277.186544
L864.768000 260.693491L866.256000 263.149942L867.744000 264.728966
L869.232000 268.238167L870.720000 262.974416L872.208000 262.974416
L873.696000 278.414719L875.184000 278.414719L876.672000 281.748394
L878.160000 293.328646L879.648000 292.626846L881.136000 304.382522
L882.624000 301.926072L884.112000 301.926072L885.600000 306.137072
L887.088000 306.137072L888.576000 293.153221L890.064000 311.225398
L891.552000 311.751773L893.040000 313.506324L894.528000 318.419124
L896.016000 318.419124L898.992000 327.893876L900.480000 336.491302
L901.968000 337.895002L903.456000 343.158753L904.944000 352.107029
L906.432000 355.616229L907.920000 355.616229L909.408000 350.177054
L910.896000 363.511856L912.384000 367.722856L913.872000 367.371906
L915.360000 367.371906L916.848000 389.479659L918.336000 389.479659
L919.824000 399.831636L921.312000 394.743410L924.288000 414.570138
L925.776000 438.256916L927.264000 438.256916L928.752000 415.973738
L930.240000 415.973738L931.728000 433.344115L933.216000 433.344115
L936.192000 452.469043L937.680000 448.082618L939.168000 448.082618
L940.656000 446.678917L942.144000 446.678917L943.632000 439.309666
L945.120000 439.309666L946.608000 445.801592L948.096000 479.489597
L949.584000 535.811530L951.072000 535.811530L952.560000 512.826551
L955.536000 583.711561L957.024000 611.258490L958.512000 616.171291
L960.000000 626.698792L961.488000 633.541668L962.976000 631.260643
L964.464000 631.260643L967.440000 630.383317L968.928000 631.085218
L973.392000 631.260643L974.880000 631.962543L976.368000 631.962543
L977.856000 631.085218L979.344000 632.313393L980.832000 631.436168
L982.320000 631.436168L983.808000 631.085218L985.296000 631.085218
L986.784000 632.137968L988.272000 632.137968L989.760000 631.611593
L991.248000 632.137968L992.736000 618.627741L994.224000 609.854790
L995.712000 654.772097L997.200000 654.772097L998.688000 648.631020
L1000.176000 648.631020L1001.664000 720.568780L1003.152000 750.923010
L1004.640000 763.906861L1006.128000 252.973290L1007.616000 252.973290
L1009.104000 253.324240L1010.592000 215.951710L1012.080000 245.779564
L1013.568000 199.809608L1015.056000 217.179885L1016.544000 244.551389
L1018.032000 240.866764L1019.520000 240.866764L1021.008000 241.217613
L1022.496000 257.008866L1023.984000 268.062742L1025.472000 261.921666
L1026.960000 264.378117L1028.448000 264.378117L1029.936000 273.677343
L1031.424000 273.677343L1032.912000 276.835593L1034.400000 268.413592
L1035.888000 280.520219L1037.376000 285.783970L1038.864000 297.539646
L1040.352000 297.539646L1041.840000 292.977796L1043.328000 292.977796
L1044.816000 298.943347L1046.304000 301.750647L1047.792000 312.102623
L1049.280000 309.295323L1050.768000 308.944373L1052.256000 308.944373
L1053.744000 303.856147L1055.232000 303.856147L1056.720000 315.787249
L1058.208000 303.329772L1059.696000 324.033825L1061.184000 319.296449
L1062.672000 319.296449L1064.160000 329.122051L1067.136000 320.700150
L1068.624000 322.630125L1070.112000 327.893876L1071.600000 343.685128
L1073.088000 363.511856L1074.576000 363.511856L1076.064000 351.931604
L1077.552000 352.633404L1079.040000 351.931604L1080.528000 360.002655
L1082.016000 361.055405L1083.504000 361.055405L1084.992000 368.424656
L1086.480000 368.424656L1089.456000 361.932730L1092.432000 386.496834
L1093.920000 394.392460L1095.408000 394.392460L1096.896000 401.235336
L1098.384000 401.235336L1099.872000 400.708961L1101.360000 390.356884
L1102.848000 388.075959L1104.336000 388.953284L1105.824000 388.953284
L1107.312000 407.376312L1108.800000 403.867211L1110.288000 409.130962
L1111.776000 438.432441L1113.264000 494.754374L1114.752000 497.386249
L1116.240000 504.930925L1117.728000 502.299050L1119.216000 502.299050
L1120.704000 505.281875L1122.192000 506.159201L1123.680000 508.615551
L1125.168000 507.562801L1126.656000 507.562801L1128.144000 509.492876
L1129.632000 509.492876L1131.120000 510.896576L1132.608000 510.896576
L1134.096000 513.001976L1137.072000 513.703877L1138.560000 513.703877
L1140.048000 515.633852L1141.536000 515.633852L1143.024000 518.616677
L1144.512000 516.686602L1146.000000 518.441252L1147.488000 516.862127
L1148.976000 518.792203L1150.464000 518.792203L1151.952000 519.669427
L1153.440000 519.669427L1154.928000 520.546753L1157.904000 520.722178
L1159.392000 520.195802L1160.880000 521.248553L1162.368000 521.248553
L1163.856000 520.371227L1165.344000 522.125878L1166.832000 520.722178
L1168.320000 522.652153L1169.808000 521.073128L1171.296000 522.827678
L1172.784000 522.827678L1174.272000 521.599402L1175.760000 522.652153
L1177.248000 522.301303L1178.736000 523.003103L1180.224000 522.301303
L1181.712000 522.301303L1183.200000 491.245274L1184.688000 491.245274
L1186.176000 435.274191L1187.664000 435.274191L1189.152000 425.799439
L1190.640000 410.183612L1192.128000 398.603461L1193.616000 398.603461
L1195.104000 393.866085L1196.592000 393.866085L1198.080000 445.275217
L1199.568000 445.275217L1201.056000 453.697218L1202.544000 442.818867
L1204.032000 410.885512L1205.520000 410.885512L1207.008000 522.125878
L1208.496000 522.125878L1209.984000 505.281875L1211.472000 466.154795
L1212.960000 575.991360L1214.448000 561.779333L1215.936000 542.478981
L1217.424000 577.044110L1218.912000 577.044110L1220.400000 573.008635
L1221.888000 541.250705L1223.376000 551.251832L1224.864000 634.594419
L1226.352000 688.635426L1227.840000 203.669658L1229.328000 266.834567
L1230.816000 266.834567L1232.304000 727.411657L1233.792000 218.759010
L1235.280000 259.289791L1236.768000 259.289791L1238.256000 227.882811
L1239.744000 227.882811L1241.232000 225.075511L1242.720000 225.075511
L1245.696000 268.939967L1247.184000 252.622440L1248.672000 264.728966
L1250.160000 288.415845L1251.648000 288.415845L1253.136000 279.993844
L1254.624000 279.993844L1256.112000 261.395291L1257.600000 267.536367
L1259.088000 265.079917L1260.576000 263.676317L1262.064000 263.676317
L1263.552000 280.344794L1265.040000 275.081043L1266.528000 288.766795
L1268.016000 292.451421L1269.504000 293.328646L1270.992000 299.820571
L1272.480000 301.224272L1273.968000 301.224272L1275.456000 308.418098
L1276.944000 304.733473L1279.920000 319.121025L1281.408000 319.998249
L1282.896000 314.559074L1284.384000 326.490175L1285.872000 326.490175
L1287.360000 329.297576L1288.848000 342.632378L1290.336000 349.124304
L1291.824000 349.650679L1293.312000 352.984354L1294.800000 352.984354
L1296.288000 349.826104L1297.776000 349.826104L1299.264000 349.475254
L1302.240000 374.390207L1303.728000 366.670106L1305.216000 356.318029
L1306.704000 356.318029L1308.192000 387.725009L1309.680000 387.725009
L1311.168000 390.883259L1312.656000 383.864958L1314.144000 389.304134
L1315.632000 393.339710L1317.120000 393.339710L1318.608000 410.359137
L1320.096000 403.340836L1321.584000 412.464638L1323.072000 433.695066
L1324.560000 420.184738L1326.048000 418.254763L1327.536000 395.094260
L1329.024000 395.094260L1330.512000 404.919962L1332.000000 435.800566
L1333.488000 484.753247L1334.976000 416.149263L1336.464000 428.782164
L1337.952000 532.126904L1339.440000 479.314072L1340.928000 500.544500
L1342.416000 500.544500L1343.904000 487.736073L1345.392000 523.529478
L1346.880000 544.233531L1348.368000 576.342310L1349.856000 576.342310
L1351.344000 595.467238L1352.832000 595.467238L1355.808000 602.661064
L1357.296000 600.555564L1358.784000 600.380139L1360.272000 601.959164
L1361.760000 601.959164L1363.248000 602.836489L1364.736000 602.836489
L1366.224000 602.310114L1367.712000 603.187339L1369.200000 602.836489
L1370.688000 603.889239L1375.152000 603.713814L1376.640000 605.117414
L1378.128000 604.591039L1379.616000 605.643789L1381.104000 604.766564
L1382.592000 606.871964L1384.080000 605.117414L1385.568000 605.117414
L1387.056000 605.994739L1388.544000 605.292940L1390.032000 605.643789
L1391.520000 596.870938L1394.496000 520.546753L1395.984000 443.871617
L1397.472000 443.871617L1398.960000 517.037552L1400.448000 551.953732
L1401.936000 661.790397L1403.424000 318.770074L1404.912000 318.770074
L1406.400000 700.917478L1407.888000 700.917478L1407.888000 700.917478"/>
</g>
<g id="matplotlib.axis1">
<g id="xtick1">
<g id="line2d3">
<defs><path id="m30e32995789d870ad79a2e54c91cf9c6" d="M0.000000 0.000000L0.000000 -4.000000"/></defs>
<g ><use style="fill: none; stroke: #000000; stroke-width: 0.500000; stroke-linejoin: round; stroke-linecap: butt;  opacity: 1.000000" xlink:href="#m30e32995789d870ad79a2e54c91cf9c6" x="216.000000" y="904.770000"/>
</g></g>
<g id="line2d4">
<defs><path id="m9281cae24120827b11d5ea8a7ad3e96b" d="M0.000000 0.000000L0.000000 4.000000"/></defs>
<g ><use style="fill: none; stroke: #000000; stroke-width: 0.500000; stroke-linejoin: round; stroke-linecap: butt;  opacity: 1.000000" xlink:href="#m9281cae24120827b11d5ea8a7ad3e96b" x="216.000000" y="100.530000"/>
</g></g>
<g id="text1">
<defs>
<path id="c_7a2040fe3b94fcd41d0a72c84e93b115" d="M31.781250 -66.406250q-7.609375 0.000000 -11.453125 7.500000q-3.828125 7.484375 -3.828125 22.531250q0.000000 14.984375 3.828125 22.484375q3.843750 7.500000 11.453125 7.500000q7.671875 0.000000 11.500000 -7.500000q3.843750 -7.500000 3.843750 -22.484375q0.000000 -15.046875 -3.843750 -22.531250q-3.828125 -7.500000 -11.500000 -7.500000M31.781250 -74.218750q12.265625 0.000000 18.734375 9.703125q6.468750 9.687500 6.468750 28.140625q0.000000 18.406250 -6.468750 28.109375q-6.468750 9.687500 -18.734375 9.687500q-12.250000 0.000000 -18.718750 -9.687500q-6.468750 -9.703125 -6.468750 -28.109375q0.000000 -18.453125 6.468750 -28.140625q6.468750 -9.703125 18.718750 -9.703125"/>
</defs>
<g style="fill: #000000; opacity: 1.000000" transform="translate(212.976562,917.676250)scale(0.120000)">
<use xlink:href="#c_7a2040fe3b94fcd41d0a72c84e93b115"/>
</g>
</g>
</g>
<g id="xtick2">
<g id="line2d5">
<g ><use style="fill: none; stroke: #000000; stroke-width: 0.500000; stroke-linejoin: round; stroke-linecap: butt;  opacity: 1.000000" xlink:href="#m30e32995789d870ad79a2e54c91cf9c6" x="364.800000" y="904.770000"/>
</g></g>
<g id="line2d6">
<g ><use style="fill: none; stroke: #000000; stroke-width: 0.500000; stroke-linejoin: round; stroke-linecap: butt;  opacity: 1.000000" xlink:href="#m9281cae24120827b11d5ea8a7ad3e96b" x="364.800000" y="100.530000"/>
</g></g>
<g id="text2">
<defs>
<path id="c_42baa63129a918535c52adb20d687ea7" d="M12.406250 -8.296875l16.109375 0.000000l0.000000 -55.625000l-17.531250 3.515625l0.000000 -8.984375l17.437500 -3.515625l9.859375 0.000000l0.000000 64.609375l16.109375 0.000000l0.000000 8.296875l-41.984375 0.000000z"/>
</defs>
<g style="fill: #000000; opacity: 1.000000" transform="translate(354.393750,917.676250)scale(0.120000)">
<use xlink:href="#c_42baa63129a918535c52adb20d687ea7"/>
<use xlink:href="#c_7a2040fe3b94fcd41d0a72c84e93b115" x="63.623047"/>
<use xlink:href="#c_7a2040fe3b94fcd41d0a72c84e93b115" x="127.246094"/>
</g>
</g>
</g>
<g id="xtick3">
<g id="line2d7">
<g ><use style="fill: none; stroke: #000000; stroke-width: 0.500000; stroke-linejoin: round; stroke-linecap: butt;  opacity: 1.000000" xlink:href="#m30e32995789d870ad79a2e54c91cf9c6" x="513.600000" y="904.770000"/>
</g></g>
<g id="line2d8">
<g ><use style="fill: none; stroke: #000000; stroke-width: 0.500000; stroke-linejoin: round; stroke-linecap: butt;  opacity: 1.000000" xlink:href="#m9281cae24120827b11d5ea8a7ad3e96b" x="513.600000" y="100.530000"/>
</g></g>
<g id="text3">
<defs>
<path id="c_ed3f3ed3ebfbd18bcb9c012009a68ad1" d="M19.187500 -8.296875l34.421875 0.000000l0.000000 8.296875l-46.281250 0.000000l0.000000 -8.296875q5.609375 -5.812500 15.296875 -15.593750q9.703125 -9.796875 12.187500 -12.640625q4.734375 -5.312500 6.609375 -9.000000q1.890625 -3.687500 1.890625 -7.250000q0.000000 -5.812500 -4.078125 -9.468750q-4.078125 -3.671875 -10.625000 -3.671875q-4.640625 0.000000 -9.796875 1.609375q-5.140625 1.609375 -11.000000 4.890625l0.000000 -9.968750q5.953125 -2.390625 11.125000 -3.609375q5.187500 -1.218750 9.484375 -1.218750q11.328125 0.000000 18.062500 5.671875q6.734375 5.656250 6.734375 15.125000q0.000000 4.500000 -1.687500 8.531250q-1.671875 4.015625 -6.125000 9.484375q-1.218750 1.421875 -7.765625 8.187500q-6.531250 6.765625 -18.453125 18.921875"/>
</defs>
<g style="fill: #000000; opacity: 1.000000" transform="translate(502.975000,917.676250)scale(0.120000)">
<use xlink:href="#c_ed3f3ed3ebfbd18bcb9c012009a68ad1"/>
<use xlink:href="#c_7a2040fe3b94fcd41d0a72c84e93b115" x="63.623047"/>
<use xlink:href="#c_7a2040fe3b94fcd41d0a72c84e93b115" x="127.246094"/>
</g>
</g>
</g>
<g id="xtick4">
<g id="line2d9">
<g ><use style="fill: none; stroke: #000000; stroke-width: 0.500000; stroke-linejoin: round; stroke-linecap: butt;  opacity: 1.000000" xlink:href="#m30e32995789d870ad79a2e54c91cf9c6" x="662.400000" y="904.770000"/>
</g></g>
<g id="line2d10">
<g ><use style="fill: none; stroke: #000000; stroke-width: 0.500000; stroke-linejoin: round; stroke-linecap: butt;  opacity: 1.000000" xlink:href="#m9281cae24120827b11d5ea8a7ad3e96b" x="662.400000" y="100.530000"/>
</g></g>
<g id="text4">
<defs>
<path id="c_3dcfa38a02242cb63ec6726c6e70be7a" d="M40.578125 -39.312500q7.078125 1.515625 11.046875 6.312500q3.984375 4.781250 3.984375 11.812500q0.000000 10.781250 -7.421875 16.703125q-7.421875 5.906250 -21.093750 5.906250q-4.578125 0.000000 -9.437500 -0.906250q-4.859375 -0.906250 -10.031250 -2.718750l0.000000 -9.515625q4.093750 2.390625 8.968750 3.609375q4.890625 1.218750 10.218750 1.218750q9.265625 0.000000 14.125000 -3.656250q4.859375 -3.656250 4.859375 -10.640625q0.000000 -6.453125 -4.515625 -10.078125q-4.515625 -3.640625 -12.562500 -3.640625l-8.500000 0.000000l0.000000 -8.109375l8.890625 0.000000q7.265625 0.000000 11.125000 -2.906250q3.859375 -2.906250 3.859375 -8.375000q0.000000 -5.609375 -3.984375 -8.609375q-3.968750 -3.015625 -11.390625 -3.015625q-4.062500 0.000000 -8.703125 0.890625q-4.640625 0.875000 -10.203125 2.718750l0.000000 -8.781250q5.625000 -1.562500 10.531250 -2.343750q4.906250 -0.781250 9.250000 -0.781250q11.234375 0.000000 17.765625 5.109375q6.546875 5.093750 6.546875 13.781250q0.000000 6.062500 -3.468750 10.234375q-3.468750 4.171875 -9.859375 5.781250"/>
</defs>
<g style="fill: #000000; opacity: 1.000000" transform="translate(651.798437,917.676250)scale(0.120000)">
<use xlink:href="#c_3dcfa38a02242cb63ec6726c6e70be7a"/>
<use xlink:href="#c_7a2040fe3b94fcd41d0a72c84e93b115" x="63.623047"/>
<use xlink:href="#c_7a2040fe3b94fcd41d0a72c84e93b115" x="127.246094"/>
</g>
</g>
</g>
<g id="xtick5">
<g id="line2d11">
<g ><use style="fill: none; stroke: #000000; stroke-width: 0.500000; stroke-linejoin: round; stroke-linecap: butt;  opacity: 1.000000" xlink:href="#m30e32995789d870ad79a2e54c91cf9c6" x="811.200000" y="904.770000"/>
</g></g>
<g id="line2d12">
<g ><use style="fill: none; stroke: #000000; stroke-width: 0.500000; stroke-linejoin: round; stroke-linecap: butt;  opacity: 1.000000" xlink:href="#m9281cae24120827b11d5ea8a7ad3e96b" x="811.200000" y="100.530000"/>
</g></g>
<g id="text5">
<defs>
<path id="c_a0416418d96557a09b8c1332d34883ba" d="M37.796875 -64.312500l-24.906250 38.921875l24.906250 0.000000zM35.203125 -72.906250l12.406250 0.000000l0.000000 47.515625l10.406250 0.000000l0.000000 8.203125l-10.406250 0.000000l0.000000 17.187500l-9.812500 0.000000l0.000000 -17.187500l-32.906250 0.000000l0.000000 -9.515625z"/>
</defs>
<g style="fill: #000000; opacity: 1.000000" transform="translate(800.434375,917.676250)scale(0.120000)">
<use xlink:href="#c_a0416418d96557a09b8c1332d34883ba"/>
<use xlink:href="#c_7a2040fe3b94fcd41d0a72c84e93b115" x="63.623047"/>
<use xlink:href="#c_7a2040fe3b94fcd41d0a72c84e93b115" x="127.246094"/>
</g>
</g>
</g>
<g id="xtick6">
<g id="line2d13">
<g ><use style="fill: none; stroke: #000000; stroke-width: 0.500000; stroke-linejoin: round; stroke-linecap: butt;  opacity: 1.000000" xlink:href="#m30e32995789d870ad79a2e54c91cf9c6" x="960.000000" y="904.770000"/>
</g></g>
<g id="line2d14">
<g ><use style="fill: none; stroke: #000000; stroke-width: 0.500000; stroke-linejoin: round; stroke-linecap: butt;  opacity: 1.000000" xlink:href="#m9281cae24120827b11d5ea8a7ad3e96b" x="960.000000" y="100.530000"/>
</g></g>
<g id="text6">
<defs>
<path id="c_1260a2df50f305f3db244e29828f968e" d="M10.796875 -72.906250l38.718750 0.000000l0.000000 8.312500l-29.687500 0.000000l0.000000 17.859375q2.140625 -0.734375 4.281250 -1.093750q2.156250 -0.359375 4.312500 -0.359375q12.203125 0.000000 19.328125 6.687500q7.140625 6.687500 7.140625 18.109375q0.000000 11.765625 -7.328125 18.296875q-7.328125 6.515625 -20.656250 6.515625q-4.593750 0.000000 -9.359375 -0.781250q-4.750000 -0.781250 -9.828125 -2.343750l0.000000 -9.921875q4.390625 2.390625 9.078125 3.562500q4.687500 1.171875 9.906250 1.171875q8.453125 0.000000 13.375000 -4.437500q4.937500 -4.437500 4.937500 -12.062500q0.000000 -7.609375 -4.937500 -12.046875q-4.921875 -4.453125 -13.375000 -4.453125q-3.953125 0.000000 -7.890625 0.875000q-3.921875 0.875000 -8.015625 2.734375z"/>
</defs>
<g style="fill: #000000; opacity: 1.000000" transform="translate(949.398438,917.676250)scale(0.120000)">
<use xlink:href="#c_1260a2df50f305f3db244e29828f968e"/>
<use xlink:href="#c_7a2040fe3b94fcd41d0a72c84e93b115" x="63.623047"/>
<use xlink:href="#c_7a2040fe3b94fcd41d0a72c84e93b115" x="127.246094"/>
</g>
</g>
</g>
<g id="xtick7">
<g id="line2d15">
<g ><use style="fill: none; stroke: #000000; stroke-width: 0.500000; stroke-linejoin: round; stroke-linecap: butt;  opacity: 1.000000" xlink:href="#m30e32995789d870ad79a2e54c91cf9c6" x="1108.800000" y="904.770000"/>
</g></g>
<g id="line2d16">
<g ><use style="fill: none; stroke: #000000; stroke-width: 0.500000; stroke-linejoin: round; stroke-linecap: butt;  opacity: 1.000000" xlink:href="#m9281cae24120827b11d5ea8a7ad3e96b" x="1108.800000" y="100.530000"/>
</g></g>
<g id="text7">
<defs>
<path id="c_cc8d6d580d1b10c8632f7a42cd53db8a" d="M33.015625 -40.375000q-6.640625 0.000000 -10.531250 4.546875q-3.875000 4.531250 -3.875000 12.437500q0.000000 7.859375 3.875000 12.437500q3.890625 4.562500 10.531250 4.562500q6.640625 0.000000 10.515625 -4.562500q3.875000 -4.578125 3.875000 -12.437500q0.000000 -7.906250 -3.875000 -12.437500q-3.875000 -4.546875 -10.515625 -4.546875M52.593750 -71.296875l0.000000 8.984375q-3.718750 -1.750000 -7.500000 -2.671875q-3.781250 -0.937500 -7.500000 -0.937500q-9.765625 0.000000 -14.921875 6.593750q-5.140625 6.593750 -5.875000 19.921875q2.875000 -4.250000 7.218750 -6.515625q4.359375 -2.265625 9.578125 -2.265625q10.984375 0.000000 17.359375 6.671875q6.375000 6.656250 6.375000 18.125000q0.000000 11.234375 -6.640625 18.031250q-6.640625 6.781250 -17.671875 6.781250q-12.656250 0.000000 -19.343750 -9.687500q-6.687500 -9.703125 -6.687500 -28.109375q0.000000 -17.281250 8.203125 -27.562500q8.203125 -10.281250 22.015625 -10.281250q3.718750 0.000000 7.500000 0.734375q3.781250 0.734375 7.890625 2.187500"/>
</defs>
<g style="fill: #000000; opacity: 1.000000" transform="translate(1098.159375,917.676250)scale(0.120000)">
<use xlink:href="#c_cc8d6d580d1b10c8632f7a42cd53db8a"/>
<use xlink:href="#c_7a2040fe3b94fcd41d0a72c84e93b115" x="63.623047"/>
<use xlink:href="#c_7a2040fe3b94fcd41d0a72c84e93b115" x="127.246094"/>
</g>
</g>
</g>
<g id="xtick8">
<g id="line2d17">
<g ><use style="fill: none; stroke: #000000; stroke-width: 0.500000; stroke-linejoin: round; stroke-linecap: butt;  opacity: 1.000000" xlink:href="#m30e32995789d870ad79a2e54c91cf9c6" x="1257.600000" y="904.770000"/>
</g></g>
<g id="line2d18">
<g ><use style="fill: none; stroke: #000000; stroke-width: 0.500000; stroke-linejoin: round; stroke-linecap: butt;  opacity: 1.000000" xlink:href="#m9281cae24120827b11d5ea8a7ad3e96b" x="1257.600000" y="100.530000"/>
</g></g>
<g id="text8">
<defs>
<path id="c_956f18cfdaf972f35a6c2b4aaac2532b" d="M8.203125 -72.906250l46.875000 0.000000l0.000000 4.203125l-26.468750 68.703125l-10.296875 0.000000l24.906250 -64.593750l-35.015625 0.000000z"/>
</defs>
<g style="fill: #000000; opacity: 1.000000" transform="translate(1247.029687,917.676250)scale(0.120000)">
<use xlink:href="#c_956f18cfdaf972f35a6c2b4aaac2532b"/>
<use xlink:href="#c_7a2040fe3b94fcd41d0a72c84e93b115" x="63.623047"/>
<use xlink:href="#c_7a2040fe3b94fcd41d0a72c84e93b115" x="127.246094"/>
</g>
</g>
</g>
<g id="xtick9">
<g id="line2d19">
<g ><use style="fill: none; stroke: #000000; stroke-width: 0.500000; stroke-linejoin: round; stroke-linecap: butt;  opacity: 1.000000" xlink:href="#m30e32995789d870ad79a2e54c91cf9c6" x="1406.400000" y="904.770000"/>
</g></g>
<g id="line2d20">
<g ><use style="fill: none; stroke: #000000; stroke-width: 0.500000; stroke-linejoin: round; stroke-linecap: butt;  opacity: 1.000000" xlink:href="#m9281cae24120827b11d5ea8a7ad3e96b" x="1406.400000" y="100.530000"/>
</g></g>
<g id="text9">
<defs>
<path id="c_bef35738d52871942e50b9de9b122bab" d="M31.781250 -34.625000q-7.031250 0.000000 -11.062500 3.765625q-4.015625 3.765625 -4.015625 10.343750q0.000000 6.593750 4.015625 10.359375q4.031250 3.765625 11.062500 3.765625q7.031250 0.000000 11.078125 -3.781250q4.062500 -3.796875 4.062500 -10.343750q0.000000 -6.578125 -4.031250 -10.343750q-4.015625 -3.765625 -11.109375 -3.765625M21.921875 -38.812500q-6.343750 -1.562500 -9.890625 -5.906250q-3.531250 -4.359375 -3.531250 -10.609375q0.000000 -8.734375 6.218750 -13.812500q6.234375 -5.078125 17.062500 -5.078125q10.890625 0.000000 17.093750 5.078125q6.203125 5.078125 6.203125 13.812500q0.000000 6.250000 -3.546875 10.609375q-3.531250 4.343750 -9.828125 5.906250q7.125000 1.656250 11.093750 6.500000q3.984375 4.828125 3.984375 11.796875q0.000000 10.609375 -6.468750 16.281250q-6.468750 5.656250 -18.531250 5.656250q-12.046875 0.000000 -18.531250 -5.656250q-6.468750 -5.671875 -6.468750 -16.281250q0.000000 -6.968750 4.000000 -11.796875q4.015625 -4.843750 11.140625 -6.500000M18.312500 -54.390625q0.000000 5.656250 3.531250 8.828125q3.546875 3.171875 9.937500 3.171875q6.359375 0.000000 9.937500 -3.171875q3.593750 -3.171875 3.593750 -8.828125q0.000000 -5.671875 -3.593750 -8.843750q-3.578125 -3.171875 -9.937500 -3.171875q-6.390625 0.000000 -9.937500 3.171875q-3.531250 3.171875 -3.531250 8.843750"/>
</defs>
<g style="fill: #000000; opacity: 1.000000" transform="translate(1395.743750,917.676250)scale(0.120000)">
<use xlink:href="#c_bef35738d52871942e50b9de9b122bab"/>
<use xlink:href="#c_7a2040fe3b94fcd41d0a72c84e93b115" x="63.623047"/>
<use xlink:href="#c_7a2040fe3b94fcd41d0a72c84e93b115" x="127.246094"/>
</g>
</g>
</g>
<g id="xtick10">
<g id="line2d21">
<g ><use style="fill: none; stroke: #000000; stroke-width: 0.500000; stroke-linejoin: round; stroke-linecap: butt;  opacity: 1.000000" xlink:href="#m30e32995789d870ad79a2e54c91cf9c6" x="1555.200000" y="904.770000"/>
</g></g>
<g id="line2d22">
<g ><use style="fill: none; stroke: #000000; stroke-width: 0.500000; stroke-linejoin: round; stroke-linecap: butt;  opacity: 1.000000" xlink:href="#m9281cae24120827b11d5ea8a7ad3e96b" x="1555.200000" y="100.530000"/>
</g></g>
<g id="text10">
<defs>
<path id="c_cd96f817f3cab988d24a2b49a5577fe6" d="M10.984375 -1.515625l0.000000 -8.984375q3.718750 1.765625 7.515625 2.687500q3.812500 0.921875 7.484375 0.921875q9.765625 0.000000 14.906250 -6.562500q5.156250 -6.562500 5.890625 -19.953125q-2.828125 4.203125 -7.187500 6.453125q-4.343750 2.250000 -9.609375 2.250000q-10.937500 0.000000 -17.312500 -6.609375q-6.375000 -6.625000 -6.375000 -18.109375q0.000000 -11.218750 6.640625 -18.000000q6.640625 -6.796875 17.671875 -6.796875q12.656250 0.000000 19.312500 9.703125q6.671875 9.687500 6.671875 28.140625q0.000000 17.234375 -8.187500 27.515625q-8.171875 10.281250 -21.984375 10.281250q-3.718750 0.000000 -7.531250 -0.734375q-3.796875 -0.734375 -7.906250 -2.203125M30.609375 -32.421875q6.640625 0.000000 10.515625 -4.531250q3.890625 -4.546875 3.890625 -12.468750q0.000000 -7.859375 -3.890625 -12.421875q-3.875000 -4.562500 -10.515625 -4.562500q-6.640625 0.000000 -10.515625 4.562500q-3.875000 4.562500 -3.875000 12.421875q0.000000 7.921875 3.875000 12.468750q3.875000 4.531250 10.515625 4.531250"/>
</defs>
<g style="fill: #000000; opacity: 1.000000" transform="translate(1544.512500,917.676250)scale(0.120000)">
<use xlink:href="#c_cd96f817f3cab988d24a2b49a5577fe6"/>
<use xlink:href="#c_7a2040fe3b94fcd41d0a72c84e93b115" x="63.623047"/>
<use xlink:href="#c_7a2040fe3b94fcd41d0a72c84e93b115" x="127.246094"/>
</g>
</g>
</g>
<g id="text11">
<defs>
<path id="c_9e4b30cbdf32072672ded72e9074c4c9" d="M-0.296875 -72.906250l61.671875 0.000000l0.000000 8.312500l-25.875000 0.000000l0.000000 64.593750l-9.906250 0.000000l0.000000 -64.593750l-25.890625 0.000000z"/>
<path id="c_6a63bda47b2f3da1cec6aadd80692cfe" d="M9.421875 -54.687500l8.984375 0.000000l0.000000 54.687500l-8.984375 0.000000zM9.421875 -75.984375l8.984375 0.000000l0.000000 11.390625l-8.984375 0.000000z"/>
<path id="c_4653c6dfde66c7610eae0911760d3490" d="M52.000000 -44.187500q3.375000 -6.062500 8.062500 -8.937500q4.687500 -2.875000 11.031250 -2.875000q8.546875 0.000000 13.187500 5.984375q4.640625 5.968750 4.640625 17.000000l0.000000 33.015625l-9.031250 0.000000l0.000000 -32.718750q0.000000 -7.859375 -2.796875 -11.656250q-2.781250 -3.812500 -8.484375 -3.812500q-6.984375 0.000000 -11.046875 4.640625q-4.046875 4.625000 -4.046875 12.640625l0.000000 30.906250l-9.031250 0.000000l0.000000 -32.718750q0.000000 -7.906250 -2.781250 -11.687500q-2.781250 -3.781250 -8.593750 -3.781250q-6.890625 0.000000 -10.953125 4.656250q-4.046875 4.656250 -4.046875 12.625000l0.000000 30.906250l-9.031250 0.000000l0.000000 -54.687500l9.031250 0.000000l0.000000 8.500000q3.078125 -5.031250 7.375000 -7.421875q4.296875 -2.390625 10.203125 -2.390625q5.968750 0.000000 10.140625 3.031250q4.171875 3.015625 6.171875 8.781250"/>
<path id="c_0bce5afba2dc6b9024b26277c38ad8e8" d="M56.203125 -29.593750l0.000000 4.390625l-41.312500 0.000000q0.593750 9.281250 5.593750 14.140625q5.000000 4.859375 13.937500 4.859375q5.171875 0.000000 10.031250 -1.265625q4.859375 -1.265625 9.656250 -3.812500l0.000000 8.500000q-4.843750 2.046875 -9.921875 3.125000q-5.078125 1.078125 -10.296875 1.078125q-13.093750 0.000000 -20.734375 -7.609375q-7.640625 -7.625000 -7.640625 -20.625000q0.000000 -13.421875 7.250000 -21.296875q7.250000 -7.890625 19.562500 -7.890625q11.031250 0.000000 17.453125 7.109375q6.421875 7.093750 6.421875 19.296875M47.218750 -32.234375q-0.093750 -7.359375 -4.125000 -11.750000q-4.031250 -4.406250 -10.671875 -4.406250q-7.515625 0.000000 -12.031250 4.250000q-4.515625 4.250000 -5.203125 11.968750z"/>
<path id="c_d41d8cd98f00b204e9800998ecf8427e" d=""/>
<path id="c_7efa9804c2b4c09a4b614b91fdebee3d" d="M31.000000 -75.875000q-6.531250 11.218750 -9.718750 22.218750q-3.171875 10.984375 -3.171875 22.265625q0.000000 11.265625 3.203125 22.328125q3.203125 11.062500 9.687500 22.250000l-7.812500 0.000000q-7.312500 -11.484375 -10.953125 -22.562500q-3.640625 -11.078125 -3.640625 -22.015625q0.000000 -10.890625 3.609375 -21.921875q3.625000 -11.046875 10.984375 -22.562500z"/>
<path id="c_9c6d5cbc59c6231647eb409cc6b37bb3" d="M25.390625 -72.906250l8.296875 0.000000l-25.390625 82.187500l-8.296875 0.000000z"/>
<path id="c_0f8c41144cfbf448378cb6fd1cc8e549" d="M18.312500 -70.218750l0.000000 15.531250l18.500000 0.000000l0.000000 6.984375l-18.500000 0.000000l0.000000 29.687500q0.000000 6.687500 1.828125 8.593750q1.828125 1.906250 7.453125 1.906250l9.218750 0.000000l0.000000 7.515625l-9.218750 0.000000q-10.406250 0.000000 -14.359375 -3.875000q-3.953125 -3.890625 -3.953125 -14.140625l0.000000 -29.687500l-6.593750 0.000000l0.000000 -6.984375l6.593750 0.000000l0.000000 -15.531250z"/>
<path id="c_74d54c94aa871ec39e2bc6697dde6c00" d="M54.890625 -33.015625l0.000000 33.015625l-8.984375 0.000000l0.000000 -32.718750q0.000000 -7.765625 -3.031250 -11.609375q-3.031250 -3.859375 -9.078125 -3.859375q-7.281250 0.000000 -11.484375 4.640625q-4.203125 4.625000 -4.203125 12.640625l0.000000 30.906250l-9.031250 0.000000l0.000000 -75.984375l9.031250 0.000000l0.000000 29.796875q3.234375 -4.937500 7.593750 -7.375000q4.375000 -2.437500 10.093750 -2.437500q9.421875 0.000000 14.250000 5.828125q4.843750 5.828125 4.843750 17.156250"/>
<path id="c_8e0810ad13fe20a2a87a2619799b154d" d="M44.281250 -53.078125l0.000000 8.500000q-3.796875 -1.953125 -7.906250 -2.921875q-4.093750 -0.984375 -8.500000 -0.984375q-6.687500 0.000000 -10.031250 2.046875q-3.343750 2.046875 -3.343750 6.156250q0.000000 3.125000 2.390625 4.906250q2.390625 1.781250 9.625000 3.390625l3.078125 0.687500q9.562500 2.046875 13.593750 5.781250q4.031250 3.734375 4.031250 10.421875q0.000000 7.625000 -6.031250 12.078125q-6.031250 4.437500 -16.578125 4.437500q-4.390625 0.000000 -9.156250 -0.859375q-4.765625 -0.859375 -10.031250 -2.562500l0.000000 -9.281250q4.984375 2.593750 9.812500 3.890625q4.828125 1.281250 9.578125 1.281250q6.343750 0.000000 9.750000 -2.171875q3.421875 -2.171875 3.421875 -6.125000q0.000000 -3.656250 -2.468750 -5.609375q-2.453125 -1.953125 -10.812500 -3.765625l-3.125000 -0.734375q-8.343750 -1.750000 -12.062500 -5.390625q-3.703125 -3.640625 -3.703125 -9.984375q0.000000 -7.718750 5.468750 -11.906250q5.468750 -4.203125 15.531250 -4.203125q4.968750 0.000000 9.359375 0.734375q4.406250 0.718750 8.109375 2.187500"/>
<path id="c_e96974be642f6eac0427d72f9cec6c19" d="M8.015625 -75.875000l7.812500 0.000000q7.312500 11.515625 10.953125 22.562500q3.640625 11.031250 3.640625 21.921875q0.000000 10.937500 -3.640625 22.015625q-3.640625 11.078125 -10.953125 22.562500l-7.812500 0.000000q6.484375 -11.187500 9.687500 -22.250000q3.203125 -11.062500 3.203125 -22.328125q0.000000 -11.281250 -3.203125 -22.265625q-3.203125 -11.000000 -9.687500 -22.218750"/>
</defs>
<g style="fill: #000000; opacity: 1.000000" transform="translate(840.154688,931.973125)scale(0.120000)">
<use xlink:href="#c_9e4b30cbdf32072672ded72e9074c4c9"/>
<use xlink:href="#c_6a63bda47b2f3da1cec6aadd80692cfe" x="57.958984"/>
<use xlink:href="#c_4653c6dfde66c7610eae0911760d3490" x="85.742187"/>
<use xlink:href="#c_0bce5afba2dc6b9024b26277c38ad8e8" x="183.154297"/>
<use xlink:href="#c_d41d8cd98f00b204e9800998ecf8427e" x="244.677734"/>
<use xlink:href="#c_7efa9804c2b4c09a4b614b91fdebee3d" x="276.464844"/>
<use xlink:href="#c_42baa63129a918535c52adb20d687ea7" x="315.478516"/>
<use xlink:href="#c_9c6d5cbc59c6231647eb409cc6b37bb3" x="379.101562"/>
<use xlink:href="#c_42baa63129a918535c52adb20d687ea7" x="412.792969"/>
<use xlink:href="#c_7a2040fe3b94fcd41d0a72c84e93b115" x="476.416016"/>
<use xlink:href="#c_0f8c41144cfbf448378cb6fd1cc8e549" x="540.039062"/>
<use xlink:href="#c_74d54c94aa871ec39e2bc6697dde6c00" x="579.248047"/>
<use xlink:href="#c_d41d8cd98f00b204e9800998ecf8427e" x="642.626953"/>
<use xlink:href="#c_8e0810ad13fe20a2a87a2619799b154d" x="674.414062"/>
<use xlink:href="#c_e96974be642f6eac0427d72f9cec6c19" x="726.513672"/>
</g>
</g>
</g>
<g id="matplotlib.axis2">
<g id="ytick1">
<g id="line2d23">
<defs><path id="m3400efa6b1638b3fea9e19e898273957" d="M0.000000 0.000000L4.000000 0.000000"/></defs>
<g ><use style="fill: none; stroke: #000000; stroke-width: 0.500000; stroke-linejoin: round; stroke-linecap: butt;  opacity: 1.000000" xlink:href="#m3400efa6b1638b3fea9e19e898273957" x="216.000000" y="904.770000"/>
</g></g>
<g id="line2d24">
<defs><path id="m20b58b2501143cb5e0a5e8f1ef6f1643" d="M0.000000 0.000000L-4.000000 0.000000"/></defs>
<g ><use style="fill: none; stroke: #000000; stroke-width: 0.500000; stroke-linejoin: round; stroke-linecap: butt;  opacity: 1.000000" xlink:href="#m20b58b2501143cb5e0a5e8f1ef6f1643" x="1555.200000" y="904.770000"/>
</g></g>
<g id="text12">
<defs>
<path id="c_6a8d56c819c37117ab4cf023bec22a5a" d="M10.593750 -35.500000l62.593750 0.000000l0.000000 8.296875l-62.593750 0.000000z"/>
</defs>
<g style="fill: #000000; opacity: 1.000000" transform="translate(196.234375,909.145000)scale(0.120000)">
<use xlink:href="#c_6a8d56c819c37117ab4cf023bec22a5a"/>
<use xlink:href="#c_a0416418d96557a09b8c1332d34883ba" x="83.789062"/>
</g>
</g>
</g>
<g id="ytick2">
<g id="line2d25">
<g ><use style="fill: none; stroke: #000000; stroke-width: 0.500000; stroke-linejoin: round; stroke-linecap: butt;  opacity: 1.000000" xlink:href="#m3400efa6b1638b3fea9e19e898273957" x="216.000000" y="804.240000"/>
</g></g>
<g id="line2d26">
<g ><use style="fill: none; stroke: #000000; stroke-width: 0.500000; stroke-linejoin: round; stroke-linecap: butt;  opacity: 1.000000" xlink:href="#m20b58b2501143cb5e0a5e8f1ef6f1643" x="1555.200000" y="804.240000"/>
</g></g>
<g id="text13">
<g style="fill: #000000; opacity: 1.000000" transform="translate(196.531250,808.607188)scale(0.120000)">
<use xlink:href="#c_6a8d56c819c37117ab4cf023bec22a5a"/>
<use xlink:href="#c_3dcfa38a02242cb63ec6726c6e70be7a" x="83.789062"/>
</g>
</g>
</g>
<g id="ytick3">
<g id="line2d27">
<g ><use style="fill: none; stroke: #000000; stroke-width: 0.500000; stroke-linejoin: round; stroke-linecap: butt;  opacity: 1.000000" xlink:href="#m3400efa6b1638b3fea9e19e898273957" x="216.000000" y="703.710000"/>
</g></g>
<g id="line2d28">
<g ><use style="fill: none; stroke: #000000; stroke-width: 0.500000; stroke-linejoin: round; stroke-linecap: butt;  opacity: 1.000000" xlink:href="#m20b58b2501143cb5e0a5e8f1ef6f1643" x="1555.200000" y="703.710000"/>
</g></g>
<g id="text14">
<g style="fill: #000000; opacity: 1.000000" transform="translate(196.765625,708.163125)scale(0.120000)">
<use xlink:href="#c_6a8d56c819c37117ab4cf023bec22a5a"/>
<use xlink:href="#c_ed3f3ed3ebfbd18bcb9c012009a68ad1" x="83.789062"/>
</g>
</g>
</g>
<g id="ytick4">
<g id="line2d29">
<g ><use style="fill: none; stroke: #000000; stroke-width: 0.500000; stroke-linejoin: round; stroke-linecap: butt;  opacity: 1.000000" xlink:href="#m3400efa6b1638b3fea9e19e898273957" x="216.000000" y="603.180000"/>
</g></g>
<g id="line2d30">
<g ><use style="fill: none; stroke: #000000; stroke-width: 0.500000; stroke-linejoin: round; stroke-linecap: butt;  opacity: 1.000000" xlink:href="#m20b58b2501143cb5e0a5e8f1ef6f1643" x="1555.200000" y="603.180000"/>
</g></g>
<g id="text15">
<g style="fill: #000000; opacity: 1.000000" transform="translate(196.671875,607.555000)scale(0.120000)">
<use xlink:href="#c_6a8d56c819c37117ab4cf023bec22a5a"/>
<use xlink:href="#c_42baa63129a918535c52adb20d687ea7" x="83.789062"/>
</g>
</g>
</g>
<g id="ytick5">
<g id="line2d31">
<g ><use style="fill: none; stroke: #000000; stroke-width: 0.500000; stroke-linejoin: round; stroke-linecap: butt;  opacity: 1.000000" xlink:href="#m3400efa6b1638b3fea9e19e898273957" x="216.000000" y="502.650000"/>
</g></g>
<g id="line2d32">
<g ><use style="fill: none; stroke: #000000; stroke-width: 0.500000; stroke-linejoin: round; stroke-linecap: butt;  opacity: 1.000000" xlink:href="#m20b58b2501143cb5e0a5e8f1ef6f1643" x="1555.200000" y="502.650000"/>
</g></g>
<g id="text16">
<g style="fill: #000000; opacity: 1.000000" transform="translate(205.953125,507.017188)scale(0.120000)">
<use xlink:href="#c_7a2040fe3b94fcd41d0a72c84e93b115"/>
</g>
</g>
</g>
<g id="ytick6">
<g id="line2d33">
<g ><use style="fill: none; stroke: #000000; stroke-width: 0.500000; stroke-linejoin: round; stroke-linecap: butt;  opacity: 1.000000" xlink:href="#m3400efa6b1638b3fea9e19e898273957" x="216.000000" y="402.120000"/>
</g></g>
<g id="line2d34">
<g ><use style="fill: none; stroke: #000000; stroke-width: 0.500000; stroke-linejoin: round; stroke-linecap: butt;  opacity: 1.000000" xlink:href="#m20b58b2501143cb5e0a5e8f1ef6f1643" x="1555.200000" y="402.120000"/>
</g></g>
<g id="text17">
<g style="fill: #000000; opacity: 1.000000" transform="translate(206.781250,406.495000)scale(0.120000)">
<use xlink:href="#c_42baa63129a918535c52adb20d687ea7"/>
</g>
</g>
</g>
<g id="ytick7">
<g id="line2d35">
<g ><use style="fill: none; stroke: #000000; stroke-width: 0.500000; stroke-linejoin: round; stroke-linecap: butt;  opacity: 1.000000" xlink:href="#m3400efa6b1638b3fea9e19e898273957" x="216.000000" y="301.590000"/>
</g></g>
<g id="line2d36">
<g ><use style="fill: none; stroke: #000000; stroke-width: 0.500000; stroke-linejoin: round; stroke-linecap: butt;  opacity: 1.000000" xlink:href="#m20b58b2501143cb5e0a5e8f1ef6f1643" x="1555.200000" y="301.590000"/>
</g></g>
<g id="text18">
<g style="fill: #000000; opacity: 1.000000" transform="translate(206.437500,306.043125)scale(0.120000)">
<use xlink:href="#c_ed3f3ed3ebfbd18bcb9c012009a68ad1"/>
</g>
</g>
</g>
<g id="ytick8">
<g id="line2d37">
<g ><use style="fill: none; stroke: #000000; stroke-width: 0.500000; stroke-linejoin: round; stroke-linecap: butt;  opacity: 1.000000" xlink:href="#m3400efa6b1638b3fea9e19e898273957" x="216.000000" y="201.060000"/>
</g></g>
<g id="line2d38">
<g ><use style="fill: none; stroke: #000000; stroke-width: 0.500000; stroke-linejoin: round; stroke-linecap: butt;  opacity: 1.000000" xlink:href="#m20b58b2501143cb5e0a5e8f1ef6f1643" x="1555.200000" y="201.060000"/>
</g></g>
<g id="text19">
<g style="fill: #000000; opacity: 1.000000" transform="translate(206.250000,205.427187)scale(0.120000)">
<use xlink:href="#c_3dcfa38a02242cb63ec6726c6e70be7a"/>
</g>
</g>
</g>
<g id="ytick9">
<g id="line2d39">
<g ><use style="fill: none; stroke: #000000; stroke-width: 0.500000; stroke-linejoin: round; stroke-linecap: butt;  opacity: 1.000000" xlink:href="#m3400efa6b1638b3fea9e19e898273957" x="216.000000" y="100.530000"/>
</g></g>
<g id="line2d40">
<g ><use style="fill: none; stroke: #000000; stroke-width: 0.500000; stroke-linejoin: round; stroke-linecap: butt;  opacity: 1.000000" xlink:href="#m20b58b2501143cb5e0a5e8f1ef6f1643" x="1555.200000" y="100.530000"/>
</g></g>
<g id="text20">
<g style="fill: #000000; opacity: 1.000000" transform="translate(205.625000,104.905000)scale(0.120000)">
<use xlink:href="#c_a0416418d96557a09b8c1332d34883ba"/>
</g>
</g>
</g>
<g id="text21">
<defs>
<path id="c_867d5c614e055a6de802b159158cbff4" d="M-0.203125 -72.906250l10.609375 0.000000l20.203125 29.984375l20.078125 -29.984375l10.593750 0.000000l-25.781250 38.187500l0.000000 34.718750l-9.906250 0.000000l0.000000 -34.718750z"/>
<path id="c_01d93a582460e35a7945ca50d148ffeb" d="M34.281250 -27.484375q-10.890625 0.000000 -15.093750 2.484375q-4.203125 2.484375 -4.203125 8.500000q0.000000 4.781250 3.156250 7.593750q3.156250 2.796875 8.562500 2.796875q7.484375 0.000000 12.000000 -5.296875q4.515625 -5.296875 4.515625 -14.078125l0.000000 -2.000000zM52.203125 -31.203125l0.000000 31.203125l-8.984375 0.000000l0.000000 -8.296875q-3.078125 4.968750 -7.671875 7.343750q-4.593750 2.375000 -11.234375 2.375000q-8.390625 0.000000 -13.359375 -4.718750q-4.953125 -4.718750 -4.953125 -12.625000q0.000000 -9.218750 6.171875 -13.906250q6.187500 -4.687500 18.437500 -4.687500l12.609375 0.000000l0.000000 -0.890625q0.000000 -6.203125 -4.078125 -9.593750q-4.078125 -3.390625 -11.453125 -3.390625q-4.687500 0.000000 -9.140625 1.125000q-4.437500 1.125000 -8.531250 3.375000l0.000000 -8.312500q4.921875 -1.906250 9.562500 -2.843750q4.640625 -0.953125 9.031250 -0.953125q11.875000 0.000000 17.734375 6.156250q5.859375 6.140625 5.859375 18.640625"/>
<path id="c_57adaa7083d7229075db8bc2c5b2febe" d="M4.203125 -54.687500l8.984375 0.000000l11.234375 42.671875l11.171875 -42.671875l10.593750 0.000000l11.234375 42.671875l11.187500 -42.671875l8.984375 0.000000l-14.312500 54.687500l-10.593750 0.000000l-11.765625 -44.828125l-11.812500 44.828125l-10.609375 0.000000z"/>
</defs>
<g style="fill: #000000; opacity: 1.000000" transform="translate(191.234375,513.681250)rotate(-90.0)scale(0.120000)">
<use xlink:href="#c_867d5c614e055a6de802b159158cbff4"/>
<use xlink:href="#c_01d93a582460e35a7945ca50d148ffeb" x="47.333984"/>
<use xlink:href="#c_57adaa7083d7229075db8bc2c5b2febe" x="108.613281"/>
</g>
</g>
</g>
<g id="patch3">
<path style="fill: none; stroke: #000000; stroke-width: 1.000000; stroke-linejoin: round; stroke-linecap: square;  opacity: 1.000000"  d="M216.000000 100.530000L1555.200000 100.530000"/>
</g>
<g id="patch4">
<path style="fill: none; stroke: #000000; stroke-width: 1.000000; stroke-linejoin: round; stroke-linecap: square;  opacity: 1.000000"  d="M1555.200000 904.770000L1555.200000 100.530000"/>
</g>
<g id="patch5">
<path style="fill: none; stroke: #000000; stroke-width: 1.000000; stroke-linejoin: round; stroke-linecap: square;  opacity: 1.000000"  d="M216.000000 904.770000L1555.200000 904.770000"/>
</g>
<g id="patch6">
<path style="fill: none; stroke: #000000; stroke-width: 1.000000; stroke-linejoin: round; stroke-linecap: square;  opacity: 1.000000"  d="M216.000000 904.770000L216.000000 100.530000"/>
</g>
<g id="text22">
<defs>
<path id="c_518d586bee075aa0153eaebfcb5ab11f" d="M19.671875 -64.796875l0.000000 27.390625l12.406250 0.000000q6.890625 0.000000 10.640625 -3.562500q3.765625 -3.562500 3.765625 -10.156250q0.000000 -6.546875 -3.765625 -10.109375q-3.750000 -3.562500 -10.640625 -3.562500zM9.812500 -72.906250l22.265625 0.000000q12.265625 0.000000 18.531250 5.546875q6.281250 5.546875 6.281250 16.234375q0.000000 10.796875 -6.281250 16.312500q-6.265625 5.515625 -18.531250 5.515625l-12.406250 0.000000l0.000000 29.296875l-9.859375 0.000000z"/>
<path id="c_d650c37394b681142a10dfc54356d478" d="M48.781250 -52.593750l0.000000 8.406250q-3.812500 -2.109375 -7.640625 -3.156250q-3.828125 -1.046875 -7.734375 -1.046875q-8.750000 0.000000 -13.593750 5.546875q-4.828125 5.531250 -4.828125 15.546875q0.000000 10.015625 4.828125 15.562500q4.843750 5.531250 13.593750 5.531250q3.906250 0.000000 7.734375 -1.046875q3.828125 -1.046875 7.640625 -3.156250l0.000000 8.312500q-3.765625 1.750000 -7.796875 2.625000q-4.015625 0.890625 -8.562500 0.890625q-12.359375 0.000000 -19.640625 -7.765625q-7.265625 -7.765625 -7.265625 -20.953125q0.000000 -13.375000 7.343750 -21.031250q7.359375 -7.671875 20.156250 -7.671875q4.140625 0.000000 8.093750 0.859375q3.953125 0.843750 7.671875 2.546875"/>
<path id="c_dcb78ab3124be785176d70a27dde1356" d="M9.078125 -75.984375l9.031250 0.000000l0.000000 44.875000l26.812500 -23.578125l11.468750 0.000000l-29.000000 25.578125l30.234375 29.109375l-11.718750 0.000000l-27.796875 -26.703125l0.000000 26.703125l-9.031250 0.000000z"/>
<path id="c_425fd1cbcd899bef0a79975ae4756bf8" d="M19.671875 -34.812500l0.000000 26.703125l15.828125 0.000000q7.953125 0.000000 11.781250 -3.296875q3.843750 -3.296875 3.843750 -10.078125q0.000000 -6.843750 -3.843750 -10.078125q-3.828125 -3.250000 -11.781250 -3.250000zM19.671875 -64.796875l0.000000 21.968750l14.609375 0.000000q7.218750 0.000000 10.750000 -2.703125q3.546875 -2.718750 3.546875 -8.281250q0.000000 -5.515625 -3.546875 -8.250000q-3.531250 -2.734375 -10.750000 -2.734375zM9.812500 -72.906250l25.203125 0.000000q11.281250 0.000000 17.375000 4.687500q6.109375 4.687500 6.109375 13.328125q0.000000 6.703125 -3.125000 10.656250q-3.125000 3.953125 -9.187500 4.921875q7.281250 1.562500 11.312500 6.531250q4.031250 4.953125 4.031250 12.375000q0.000000 9.765625 -6.640625 15.093750q-6.640625 5.312500 -18.906250 5.312500l-26.171875 0.000000z"/>
<path id="c_f05dd90d41f04bb96ef1ca503cc2044b" d="M30.609375 -48.390625q-7.218750 0.000000 -11.421875 5.640625q-4.203125 5.640625 -4.203125 15.453125q0.000000 9.812500 4.171875 15.453125q4.187500 5.640625 11.453125 5.640625q7.187500 0.000000 11.375000 -5.656250q4.203125 -5.671875 4.203125 -15.437500q0.000000 -9.718750 -4.203125 -15.406250q-4.187500 -5.687500 -11.375000 -5.687500M30.609375 -56.000000q11.718750 0.000000 18.406250 7.625000q6.703125 7.609375 6.703125 21.078125q0.000000 13.421875 -6.703125 21.078125q-6.687500 7.640625 -18.406250 7.640625q-11.765625 0.000000 -18.437500 -7.640625q-6.656250 -7.656250 -6.656250 -21.078125q0.000000 -13.468750 6.656250 -21.078125q6.671875 -7.625000 18.437500 -7.625000"/>
<path id="c_5e9f44da4350eed47d2641510279ca20" d="M9.812500 -72.906250l9.859375 0.000000l0.000000 29.890625l35.843750 0.000000l0.000000 -29.890625l9.859375 0.000000l0.000000 72.906250l-9.859375 0.000000l0.000000 -34.718750l-35.843750 0.000000l0.000000 34.718750l-9.859375 0.000000z"/>
<path id="c_d821beae607506e87470f334d9ff47af" d="M45.406250 -46.390625l0.000000 -29.593750l8.984375 0.000000l0.000000 75.984375l-8.984375 0.000000l0.000000 -8.203125q-2.828125 4.875000 -7.156250 7.250000q-4.312500 2.375000 -10.375000 2.375000q-9.906250 0.000000 -16.140625 -7.906250q-6.218750 -7.921875 -6.218750 -20.812500q0.000000 -12.890625 6.218750 -20.796875q6.234375 -7.906250 16.140625 -7.906250q6.062500 0.000000 10.375000 2.375000q4.328125 2.359375 7.156250 7.234375M14.796875 -27.296875q0.000000 9.906250 4.078125 15.546875q4.078125 5.640625 11.203125 5.640625q7.125000 0.000000 11.218750 -5.640625q4.109375 -5.640625 4.109375 -15.546875q0.000000 -9.906250 -4.109375 -15.546875q-4.093750 -5.640625 -11.218750 -5.640625q-7.125000 0.000000 -11.203125 5.640625q-4.078125 5.640625 -4.078125 15.546875"/>
<path id="c_fe791a90f5471e2ab20a5ed41a7fa451" d="M54.890625 -33.015625l0.000000 33.015625l-8.984375 0.000000l0.000000 -32.718750q0.000000 -7.765625 -3.031250 -11.609375q-3.031250 -3.859375 -9.078125 -3.859375q-7.281250 0.000000 -11.484375 4.640625q-4.203125 4.625000 -4.203125 12.640625l0.000000 30.906250l-9.031250 0.000000l0.000000 -54.687500l9.031250 0.000000l0.000000 8.500000q3.234375 -4.937500 7.593750 -7.375000q4.375000 -2.437500 10.093750 -2.437500q9.421875 0.000000 14.250000 5.828125q4.843750 5.828125 4.843750 17.156250"/>
<path id="c_e3864de5dabf2f8dd9eee74726882ec1" d="M45.406250 -27.984375q0.000000 -9.765625 -4.031250 -15.125000q-4.015625 -5.375000 -11.296875 -5.375000q-7.218750 0.000000 -11.250000 5.375000q-4.031250 5.359375 -4.031250 15.125000q0.000000 9.718750 4.031250 15.093750q4.031250 5.375000 11.250000 5.375000q7.281250 0.000000 11.296875 -5.375000q4.031250 -5.375000 4.031250 -15.093750M54.390625 -6.781250q0.000000 13.953125 -6.203125 20.765625q-6.187500 6.812500 -18.984375 6.812500q-4.734375 0.000000 -8.937500 -0.703125q-4.203125 -0.703125 -8.156250 -2.171875l0.000000 -8.734375q3.953125 2.140625 7.812500 3.156250q3.859375 1.031250 7.859375 1.031250q8.843750 0.000000 13.234375 -4.609375q4.390625 -4.609375 4.390625 -13.937500l0.000000 -4.453125q-2.781250 4.843750 -7.125000 7.234375q-4.343750 2.390625 -10.406250 2.390625q-10.046875 0.000000 -16.203125 -7.656250q-6.156250 -7.671875 -6.156250 -20.328125q0.000000 -12.687500 6.156250 -20.343750q6.156250 -7.671875 16.203125 -7.671875q6.062500 0.000000 10.406250 2.390625q4.343750 2.390625 7.125000 7.218750l0.000000 -8.296875l8.984375 0.000000z"/>
<path id="c_4c6532c564269b2c70b230c2e45c01e4" d="M44.390625 -34.187500q3.171875 1.078125 6.171875 4.593750q3.000000 3.515625 6.031250 9.671875l10.015625 19.921875l-10.609375 0.000000l-9.312500 -18.703125q-3.625000 -7.328125 -7.015625 -9.718750q-3.390625 -2.390625 -9.250000 -2.390625l-10.750000 0.000000l0.000000 30.812500l-9.859375 0.000000l0.000000 -72.906250l22.265625 0.000000q12.500000 0.000000 18.656250 5.234375q6.156250 5.218750 6.156250 15.765625q0.000000 6.890625 -3.203125 11.437500q-3.203125 4.531250 -9.296875 6.281250M19.671875 -64.796875l0.000000 25.875000l12.406250 0.000000q7.125000 0.000000 10.765625 -3.296875q3.640625 -3.296875 3.640625 -9.687500q0.000000 -6.390625 -3.640625 -9.640625q-3.640625 -3.250000 -10.765625 -3.250000z"/>
<path id="c_ae70b0af174184799fa4976b9c5da571" d="M28.609375 -0.000000l-27.828125 -72.906250l10.296875 0.000000l23.109375 61.375000l23.140625 -61.375000l10.250000 0.000000l-27.781250 72.906250z"/>
<path id="c_6ec8d5749226675394676a5d2a3b468b" d="M41.109375 -46.296875q-1.515625 -0.875000 -3.296875 -1.281250q-1.781250 -0.421875 -3.921875 -0.421875q-7.625000 0.000000 -11.703125 4.953125q-4.078125 4.953125 -4.078125 14.234375l0.000000 28.812500l-9.031250 0.000000l0.000000 -54.687500l9.031250 0.000000l0.000000 8.500000q2.843750 -4.984375 7.375000 -7.390625q4.546875 -2.421875 11.046875 -2.421875q0.921875 0.000000 2.046875 0.125000q1.125000 0.109375 2.484375 0.359375z"/>
<path id="c_8c0379a31aa3b07b28207e25658c6113" d="M10.593750 -45.406250l62.593750 0.000000l0.000000 8.203125l-62.593750 0.000000zM10.593750 -25.484375l62.593750 0.000000l0.000000 8.296875l-62.593750 0.000000z"/>
</defs>
<g style="fill: #000000; opacity: 1.000000" transform="translate(699.342188,92.623750)scale(0.144000)">
<use xlink:href="#c_518d586bee075aa0153eaebfcb5ab11f"/>
<use xlink:href="#c_01d93a582460e35a7945ca50d148ffeb" x="55.802734"/>
<use xlink:href="#c_d650c37394b681142a10dfc54356d478" x="117.082031"/>
<use xlink:href="#c_dcb78ab3124be785176d70a27dde1356" x="172.062500"/>
<use xlink:href="#c_425fd1cbcd899bef0a79975ae4756bf8" x="229.972656"/>
<use xlink:href="#c_f05dd90d41f04bb96ef1ca503cc2044b" x="298.576172"/>
<use xlink:href="#c_0f8c41144cfbf448378cb6fd1cc8e549" x="359.757812"/>
<use xlink:href="#c_d41d8cd98f00b204e9800998ecf8427e" x="398.966797"/>
<use xlink:href="#c_5e9f44da4350eed47d2641510279ca20" x="430.753906"/>
<use xlink:href="#c_0bce5afba2dc6b9024b26277c38ad8e8" x="505.949219"/>
<use xlink:href="#c_01d93a582460e35a7945ca50d148ffeb" x="567.472656"/>
<use xlink:href="#c_d821beae607506e87470f334d9ff47af" x="628.751953"/>
<use xlink:href="#c_6a63bda47b2f3da1cec6aadd80692cfe" x="692.228516"/>
<use xlink:href="#c_fe791a90f5471e2ab20a5ed41a7fa451" x="720.011719"/>
<use xlink:href="#c_e3864de5dabf2f8dd9eee74726882ec1" x="783.390625"/>
<use xlink:href="#c_d41d8cd98f00b204e9800998ecf8427e" x="846.867188"/>
<use xlink:href="#c_57adaa7083d7229075db8bc2c5b2febe" x="878.654297"/>
<use xlink:href="#c_6a63bda47b2f3da1cec6aadd80692cfe" x="960.441406"/>
<use xlink:href="#c_0f8c41144cfbf448378cb6fd1cc8e549" x="988.224609"/>
<use xlink:href="#c_74d54c94aa871ec39e2bc6697dde6c00" x="1027.433594"/>
<use xlink:href="#c_d41d8cd98f00b204e9800998ecf8427e" x="1090.812500"/>
<use xlink:href="#c_867d5c614e055a6de802b159158cbff4" x="1122.599609"/>
<use xlink:href="#c_01d93a582460e35a7945ca50d148ffeb" x="1169.933594"/>
<use xlink:href="#c_57adaa7083d7229075db8bc2c5b2febe" x="1231.212891"/>
<use xlink:href="#c_d41d8cd98f00b204e9800998ecf8427e" x="1313.000000"/>
<use xlink:href="#c_4c6532c564269b2c70b230c2e45c01e4" x="1344.787109"/>
<use xlink:href="#c_01d93a582460e35a7945ca50d148ffeb" x="1412.019531"/>
<use xlink:href="#c_0f8c41144cfbf448378cb6fd1cc8e549" x="1473.298828"/>
<use xlink:href="#c_0bce5afba2dc6b9024b26277c38ad8e8" x="1512.507813"/>
<use xlink:href="#c_d41d8cd98f00b204e9800998ecf8427e" x="1574.031250"/>
<use xlink:href="#c_ae70b0af174184799fa4976b9c5da571" x="1605.818359"/>
<use xlink:href="#c_01d93a582460e35a7945ca50d148ffeb" x="1666.476563"/>
<use xlink:href="#c_6ec8d5749226675394676a5d2a3b468b" x="1727.755859"/>
<use xlink:href="#c_6a63bda47b2f3da1cec6aadd80692cfe" x="1768.869141"/>
<use xlink:href="#c_01d93a582460e35a7945ca50d148ffeb" x="1796.652344"/>
<use xlink:href="#c_fe791a90f5471e2ab20a5ed41a7fa451" x="1857.931641"/>
<use xlink:href="#c_d650c37394b681142a10dfc54356d478" x="1921.310547"/>
<use xlink:href="#c_0bce5afba2dc6b9024b26277c38ad8e8" x="1976.291016"/>
<use xlink:href="#c_d41d8cd98f00b204e9800998ecf8427e" x="2037.814453"/>
<use xlink:href="#c_8c0379a31aa3b07b28207e25658c6113" x="2069.601563"/>
<use xlink:href="#c_d41d8cd98f00b204e9800998ecf8427e" x="2153.390625"/>
<use xlink:href="#c_42baa63129a918535c52adb20d687ea7" x="2185.177734"/>
<use xlink:href="#c_1260a2df50f305f3db244e29828f968e" x="2248.800781"/>
<use xlink:href="#c_d41d8cd98f00b204e9800998ecf8427e" x="2312.423828"/>
<use xlink:href="#c_6ec8d5749226675394676a5d2a3b468b" x="2344.210938"/>
<use xlink:href="#c_01d93a582460e35a7945ca50d148ffeb" x="2385.324219"/>
<use xlink:href="#c_d821beae607506e87470f334d9ff47af" x="2446.603516"/>
<use xlink:href="#c_9c6d5cbc59c6231647eb409cc6b37bb3" x="2510.080078"/>
<use xlink:href="#c_8e0810ad13fe20a2a87a2619799b154d" x="2543.771484"/>
</g>
</g>
</g>
<g id="legend1">
<g id="patch7">
<path style="fill: #ffffff; stroke: #000000; stroke-width: 1.000000; stroke-linejoin: round; stroke-linecap: square;  opacity: 1.000000"  d="M1571.897500 53.013750L1720.800000 53.013750L1720.800000 7.200000
L1571.897500 7.200000L1571.897500 53.013750z"/>
</g>
<g id="line2d41">
<path style="fill: none; stroke: #0000ff; stroke-width: 1.000000; stroke-linejoin: round; stroke-linecap: square;  opacity: 1.000000"  d="M1581.977500 18.560625L1602.137500 18.560625"/>
</g>
<g id="line2d42">
</g>
<g id="text23">
<defs>
<path id="c_7aecf22c350a602b3f972fa102c17cac" d="M9.812500 -72.906250l9.859375 0.000000l0.000000 30.812500l32.718750 -30.812500l12.703125 0.000000l-36.187500 33.984375l38.765625 38.921875l-12.984375 0.000000l-35.015625 -35.109375l0.000000 35.109375l-9.859375 0.000000z"/>
<path id="c_5d9b0d099c491f27a9f40b391fa98eef" d="M9.812500 -72.906250l41.890625 0.000000l0.000000 8.312500l-32.031250 0.000000l0.000000 21.484375l28.906250 0.000000l0.000000 8.296875l-28.906250 0.000000l0.000000 34.812500l-9.859375 0.000000z"/>
</defs>
<g style="fill: #000000; opacity: 1.000000" transform="translate(1617.977500,23.600625)scale(0.144000)">
<use xlink:href="#c_7aecf22c350a602b3f972fa102c17cac"/>
<use xlink:href="#c_5d9b0d099c491f27a9f40b391fa98eef" x="65.576172"/>
<use xlink:href="#c_d41d8cd98f00b204e9800998ecf8427e" x="123.095703"/>
<use xlink:href="#c_867d5c614e055a6de802b159158cbff4" x="154.882812"/>
<use xlink:href="#c_01d93a582460e35a7945ca50d148ffeb" x="202.216797"/>
<use xlink:href="#c_57adaa7083d7229075db8bc2c5b2febe" x="263.496094"/>
</g>
</g>
<g id="line2d43">
<path style="fill: none; stroke: #008000; stroke-width: 1.000000; stroke-linejoin: round; stroke-linecap: square;  opacity: 1.000000"  d="M1581.977500 39.307500L1602.137500 39.307500"/>
</g>
<g id="line2d44">
</g>
<g id="text24">
<defs>
<path id="c_a469f8ee191679fe73f3b765bd271597" d="M64.406250 -67.281250l0.000000 10.390625q-4.984375 -4.640625 -10.625000 -6.921875q-5.640625 -2.296875 -11.984375 -2.296875q-12.500000 0.000000 -19.140625 7.640625q-6.640625 7.640625 -6.640625 22.093750q0.000000 14.406250 6.640625 22.046875q6.640625 7.640625 19.140625 7.640625q6.343750 0.000000 11.984375 -2.296875q5.640625 -2.296875 10.625000 -6.937500l0.000000 10.312500q-5.171875 3.515625 -10.968750 5.281250q-5.781250 1.750000 -12.218750 1.750000q-16.562500 0.000000 -26.093750 -10.125000q-9.515625 -10.140625 -9.515625 -27.671875q0.000000 -17.578125 9.515625 -27.703125q9.531250 -10.140625 26.093750 -10.140625q6.531250 0.000000 12.312500 1.734375q5.796875 1.734375 10.875000 5.203125"/>
<path id="c_f15a64fcd463ef4629c48bab42cde24c" d="M18.109375 -8.203125l0.000000 29.000000l-9.031250 0.000000l0.000000 -75.484375l9.031250 0.000000l0.000000 8.296875q2.843750 -4.875000 7.156250 -7.234375q4.328125 -2.375000 10.328125 -2.375000q9.968750 0.000000 16.187500 7.906250q6.234375 7.906250 6.234375 20.796875q0.000000 12.890625 -6.234375 20.812500q-6.218750 7.906250 -16.187500 7.906250q-6.000000 0.000000 -10.328125 -2.375000q-4.312500 -2.375000 -7.156250 -7.250000M48.687500 -27.296875q0.000000 -9.906250 -4.078125 -15.546875q-4.078125 -5.640625 -11.203125 -5.640625q-7.140625 0.000000 -11.218750 5.640625q-4.078125 5.640625 -4.078125 15.546875q0.000000 9.906250 4.078125 15.546875q4.078125 5.640625 11.218750 5.640625q7.125000 0.000000 11.203125 -5.640625q4.078125 -5.640625 4.078125 -15.546875"/>
</defs>
<g style="fill: #000000; opacity: 1.000000" transform="translate(1617.977500,44.347500)scale(0.144000)">
<use xlink:href="#c_a469f8ee191679fe73f3b765bd271597"/>
<use xlink:href="#c_f05dd90d41f04bb96ef1ca503cc2044b" x="69.824219"/>
<use xlink:href="#c_4653c6dfde66c7610eae0911760d3490" x="131.005859"/>
<use xlink:href="#c_f15a64fcd463ef4629c48bab42cde24c" x="228.417969"/>
<use xlink:href="#c_01d93a582460e35a7945ca50d148ffeb" x="291.894531"/>
<use xlink:href="#c_8e0810ad13fe20a2a87a2619799b154d" x="353.173828"/>
<use xlink:href="#c_8e0810ad13fe20a2a87a2619799b154d" x="405.273438"/>
<use xlink:href="#c_d41d8cd98f00b204e9800998ecf8427e" x="457.373047"/>
<use xlink:href="#c_867d5c614e055a6de802b159158cbff4" x="489.160156"/>
<use xlink:href="#c_01d93a582460e35a7945ca50d148ffeb" x="536.494141"/>
<use xlink:href="#c_57adaa7083d7229075db8bc2c5b2febe" x="597.773438"/>
</g>
</g>
</g>
</g>
</svg>
