<?xml version="1.0" standalone="no"?>
<!DOCTYPE svg PUBLIC "-//W3C//DTD SVG 1.1//EN"
  "http://www.w3.org/Graphics/SVG/1.1/DTD/svg11.dtd">
<!-- Created with matplotlib (http://matplotlib.sourceforge.net/) -->
<svg width="576pt" height="432pt" viewBox="0 0 576 432"
   xmlns="http://www.w3.org/2000/svg"
   xmlns:xlink="http://www.w3.org/1999/xlink"
   version="1.1"
   id="svg1">
<g id="figure1">
<g id="patch1">
<path style="fill: #ffffff; stroke: #ffffff; stroke-width: 1.000000; stroke-linejoin: round; stroke-linecap: square;  opacity: 1.000000"  d="M0.000000 432.000000L576.000000 432.000000L576.000000 0.000000
L0.000000 0.000000L0.000000 432.000000"/>
</g>
<g id="axes1">
<g id="patch2">
<path style="fill: #ffffff; opacity: 1.000000"  d="M72.000000 388.800000L518.400000 388.800000L518.400000 43.200000
L72.000000 43.200000L72.000000 388.800000"/>
</g>
<g id="line2d1">
<defs>
  <clipPath id="p50431ccdcb28178602d99d9270004dde">
<rect x="72.000000" y="43.200000" width="446.400000" height="345.600000"/>
  </clipPath>
</defs><path style="fill: none; stroke: #0000ff; stroke-width: 1.000000; stroke-linejoin: round; stroke-linecap: square;  opacity: 1.000000" clip-path="url(#p50431ccdcb28178602d99d9270004dde)" d="M72.000000 216.000000L96.800000 216.000000L98.040000 215.056901
L98.784000 218.329258L99.032000 214.204608L99.528000 213.072206
L100.024000 221.352610L100.272000 210.796344L100.520000 212.346274
L101.264000 218.787739L101.760000 214.133846L102.008000 219.248510
L102.256000 212.371589L102.504000 216.944352L102.752000 215.897011
L103.000000 218.233829L103.248000 215.274370L103.992000 220.321426
L104.240000 212.911243L104.488000 214.892136L104.984000 213.495912
L105.480000 222.363144L105.728000 216.426816L105.976000 221.487394
L106.224000 213.406315L106.472000 216.046138L106.720000 214.835458
L107.712000 216.000000L108.952000 216.046181L109.448000 215.032104
L110.192000 209.748614L110.688000 205.382563L111.184000 207.498456
L112.176000 195.883358L112.920000 198.462701L113.168000 201.080534
L113.416000 199.074715L113.912000 201.308371L114.656000 200.083219
L114.904000 198.292234L115.400000 199.648670L116.144000 196.391822
L116.640000 200.341037L117.384000 198.635717L118.624000 197.201477
L119.368000 198.741254L119.616000 195.692933L120.360000 198.672264
L120.608000 196.948238L121.352000 199.573848L121.600000 194.420218
L122.344000 199.968437L122.592000 197.645573L123.832000 200.468952
L124.328000 195.707232L124.824000 194.604682L125.568000 199.901174
L125.816000 197.017574L126.312000 195.584674L127.552000 199.191053
L129.040000 195.622560L129.288000 190.880755L130.032000 195.598843
L131.272000 193.505198L131.768000 196.341754L132.016000 194.781542
L132.760000 195.970536L133.752000 192.951418L134.000000 194.960045
L134.496000 193.927003L134.744000 196.902533L134.992000 191.884291
L135.240000 193.581662L136.232000 189.917741L136.728000 192.477557
L136.976000 190.474330L137.224000 195.118848L137.472000 191.537611
L137.968000 194.322110L138.216000 198.419242L138.712000 191.265710
L139.208000 194.401987L139.456000 191.288909L139.704000 193.311360
L140.200000 192.124872L140.696000 193.241722L140.944000 190.214093
L141.192000 192.968654L142.184000 191.785709L142.680000 194.396630
L142.928000 191.876126L143.176000 193.410158L143.424000 191.883082
L144.168000 193.381906L144.416000 191.260570L144.664000 195.048346
L145.160000 192.311237L145.408000 194.274979L145.656000 190.565482
L145.904000 192.111437L146.152000 190.926590L147.392000 194.713286
L147.640000 190.134821L147.888000 193.287514L148.632000 191.598998
L149.376000 193.016434L149.872000 191.128248L150.616000 194.254632
L151.112000 188.104723L151.360000 189.481550L151.608000 185.584867
L152.600000 187.295587L152.848000 183.709598L153.344000 187.718861
L155.328000 177.497741L155.576000 178.818797L155.824000 174.885566
L156.072000 182.767190L156.320000 177.238584L156.816000 173.929075
L158.056000 179.144741L158.304000 175.846334L158.552000 177.344467
L158.800000 174.459398L159.048000 176.995930L159.792000 169.954502
L160.040000 173.209925L160.288000 172.059120L160.536000 173.707243
L161.528000 168.685502L161.776000 172.328256L162.520000 173.605810
L163.016000 176.595466L163.264000 174.635525L163.512000 179.447443
L163.760000 175.022942L164.008000 176.330995L164.256000 172.481789
L164.504000 177.163243L164.752000 171.596923L165.248000 173.575699
L165.744000 177.934450L165.992000 176.050627L166.984000 179.079206
L167.480000 175.291128L167.976000 180.983117L168.720000 175.102560
L169.464000 176.942318L169.960000 171.532123L170.208000 174.709440
L170.456000 172.711526L170.952000 175.731120L171.448000 172.048968
L171.696000 175.578624L171.944000 174.396845L172.192000 176.633611
L172.440000 172.557130L172.936000 180.613152L173.680000 171.701251
L173.928000 175.931611L174.176000 172.319184L174.672000 174.469680
L175.168000 170.296301L175.912000 174.401856L176.160000 171.993672
L176.656000 174.086064L177.152000 170.417304L177.648000 173.787595
L177.896000 170.236858L178.392000 172.665216L178.640000 168.103987
L179.136000 165.958632L179.880000 174.484238L180.376000 170.696117
L180.624000 176.005354L181.368000 174.578630L181.616000 177.839194
L181.864000 174.334118L184.344000 191.537741L184.840000 188.874547
L185.832000 192.545208L186.080000 188.664682L186.576000 189.842486
L186.824000 192.003307L187.072000 188.175874L187.320000 190.643285
L187.568000 189.249307L188.312000 190.991088L188.560000 188.841974
L189.056000 189.886810L189.552000 175.160837L189.800000 176.819198
L190.296000 177.861182L190.544000 173.680502L191.288000 171.285494
L191.536000 174.759854L191.784000 168.428333L192.032000 172.789805
L192.280000 169.695562L192.776000 170.827531L193.024000 172.887394
L193.520000 170.550230L194.016000 173.570170L194.264000 172.487362
L194.760000 168.755832L195.256000 172.889294L195.504000 169.071192
L195.752000 174.617597L196.000000 169.986125L196.496000 171.915782
L196.744000 176.297040L197.488000 168.242573L197.984000 174.518755
L198.232000 173.256235L198.480000 171.048283L198.728000 175.063550
L198.976000 168.444706L199.224000 177.856776L199.472000 174.508387
L200.960000 190.072008L201.208000 187.028352L202.200000 198.393754
L203.688000 192.525595L205.672000 176.818939L205.920000 178.121678
L206.168000 176.371214L206.416000 180.344362L206.912000 182.544062
L207.160000 177.384989L207.408000 179.185219L207.656000 175.400899
L207.904000 181.951531L208.400000 174.517200L208.896000 176.901235
L209.144000 171.931982L209.888000 173.114971L210.384000 170.935186
L210.632000 174.623688L211.624000 169.034861L212.120000 171.339192
L212.616000 176.188306L212.864000 172.422778L213.112000 177.103282
L213.360000 173.813040L213.608000 175.608907L214.848000 167.390237
L215.344000 172.178611L216.088000 165.830674L216.584000 168.553786
L217.080000 165.754858L217.328000 170.269214L217.576000 167.094490
L218.320000 173.921688L218.568000 167.935853L218.816000 173.231870
L219.312000 169.161091L219.560000 172.419408L220.056000 165.821213
L220.304000 168.229181L220.552000 166.250664L220.800000 172.799352
L221.544000 164.691576L221.792000 165.857026L222.040000 163.478909
L222.288000 168.029813L222.536000 166.154414L223.528000 173.554877
L223.776000 170.269042L224.024000 174.281717L224.520000 167.710565
L224.768000 173.054318L225.016000 169.520386L225.264000 173.136658
L225.512000 170.391470L225.760000 173.093371L226.008000 171.816206
L226.752000 175.685198L227.248000 185.582966L227.744000 180.563256
L227.992000 183.282826L229.480000 171.042192L230.720000 177.211282
L230.968000 174.058502L231.216000 175.657680L231.464000 173.360390
L231.960000 176.623848L232.208000 172.330459L232.456000 174.830357
L233.200000 172.341043L233.696000 173.403979L233.944000 176.245934
L234.192000 173.150827L234.440000 174.442205L234.688000 172.116144
L234.936000 176.252285L235.928000 217.306411L236.920000 216.000000
L237.168000 219.089059L237.912000 241.794245L238.408000 233.744011
L239.400000 237.029674L239.648000 235.950883L239.896000 237.596630
L240.144000 234.507312L240.640000 237.001939L240.888000 235.073016
L241.136000 236.266718L241.880000 241.985491L242.376000 250.648819
L242.872000 247.533451L243.120000 248.546621L243.368000 245.825496
L243.616000 250.834363L243.864000 248.911834L244.608000 256.857955
L245.104000 255.368074L245.352000 261.864101L245.848000 263.861237
L246.344000 261.927475L246.592000 258.944299L246.840000 262.034352
L247.584000 265.177109L247.832000 258.929525L248.576000 257.368925
L248.824000 261.716357L249.568000 259.691184L250.064000 265.078397
L250.560000 258.130886L250.808000 261.226728L251.304000 262.400688
L251.800000 256.977101L252.296000 258.005693L252.792000 260.132645
L253.288000 245.261606L254.528000 224.917776L255.272000 216.000000
L257.752000 216.000000L258.496000 210.542760L259.984000 179.471419
L260.480000 174.566491L261.224000 181.884182L261.968000 180.772301
L262.216000 178.355347L262.464000 180.735365L262.712000 179.374781
L263.456000 181.205424L263.704000 179.520970L263.952000 181.126670
L264.200000 177.722294L264.944000 174.503376L265.192000 175.894632
L265.440000 174.027053L265.688000 178.141334L266.432000 170.816774
L267.176000 173.528914L267.672000 166.054061L268.168000 174.255106
L268.912000 167.914512L269.160000 170.525650L269.408000 169.280323
L270.152000 177.721819L270.648000 193.101883L271.144000 196.152710
L271.392000 190.785283L271.640000 192.931978L271.888000 188.310485
L272.632000 191.705270L272.880000 184.193266L273.128000 186.259824
L273.872000 177.974928L274.120000 179.296373L274.368000 177.043925
L274.864000 175.953082L275.112000 177.252840L275.360000 173.660155
L275.608000 176.278248L276.104000 174.280594L276.848000 178.451942
L277.592000 176.064926L277.840000 178.388395L278.088000 175.528598
L278.584000 185.024088L279.080000 214.486142L279.576000 217.807445
L279.824000 216.785635L281.064000 216.012312L313.304000 216.000000
L313.800000 214.703741L314.048000 215.988379L348.768000 216.000000
L381.008000 216.000000L491.368000 216.000000L491.368000 216.000000"/>
</g>
<g id="line2d2">
<path style="fill: none; stroke: #008000; stroke-width: 1.000000; stroke-linejoin: round; stroke-linecap: square;  opacity: 1.000000" clip-path="url(#p50431ccdcb28178602d99d9270004dde)" d="M72.000000 214.617168L73.240000 214.110907L73.984000 215.204947
L76.464000 215.087616L77.704000 214.567445L78.200000 215.854934
L78.696000 214.806946L79.688000 213.785870L79.936000 215.040658
L81.176000 214.221370L82.168000 215.281411L83.160000 213.592291
L83.408000 215.737214L83.904000 214.536384L84.152000 215.630856
L84.400000 214.526362L84.896000 215.556206L85.144000 214.496078
L86.384000 215.694187L86.880000 214.361597L87.872000 215.372390
L88.120000 214.191475L88.864000 215.284219L89.112000 213.804403
L89.856000 215.205034L92.336000 215.727710L93.080000 214.666157
L94.320000 213.905102L95.560000 215.247802L96.552000 214.216661
L96.800000 215.474342L98.040000 212.806267L98.288000 215.319470
L98.536000 213.902338L99.032000 206.422992L99.280000 211.639262
L99.776000 205.635240L100.024000 206.985931L100.520000 196.692797
L100.768000 198.659952L101.760000 210.584102L102.008000 203.728997
L102.256000 210.645792L102.752000 214.310534L103.248000 202.156214
L103.744000 208.082045L104.488000 206.616312L104.736000 208.942459
L104.984000 205.686000L105.232000 213.089659L105.480000 211.912718
L105.728000 203.427115L106.472000 214.228627L106.720000 212.890075
L106.968000 214.178299L107.216000 211.529016L107.960000 215.578022
L108.208000 214.221240L109.448000 212.488747L109.696000 215.072150
L109.944000 213.591168L110.688000 195.235834L111.432000 205.075066
L112.176000 192.220603L112.424000 196.653744L112.672000 192.990859
L112.920000 201.702744L113.416000 197.118014L113.912000 198.397166
L114.160000 200.692037L114.656000 191.785104L114.904000 193.085640
L115.152000 199.249632L115.400000 195.762787L116.144000 191.820744
L116.392000 199.064563L116.640000 194.182272L116.888000 199.503605
L117.136000 197.275090L117.384000 198.941054L117.880000 191.928528
L118.376000 195.700882L119.368000 191.619259L119.864000 194.732381
L120.360000 198.834998L120.608000 197.517614L120.856000 193.449470
L121.104000 197.556235L121.600000 188.887378L121.848000 197.798069
L122.592000 200.440181L122.840000 192.980318L123.088000 194.639371
L123.336000 196.423402L124.080000 188.900597L124.824000 193.005029
L125.072000 194.476378L126.312000 194.080406L126.560000 195.934162
L126.808000 194.075914L127.304000 197.400715L128.048000 192.839400
L128.544000 195.632194L129.288000 191.008368L129.536000 188.913859
L129.784000 195.844954L130.280000 193.797187L130.776000 190.322222
L131.024000 193.752346L131.272000 190.424693L131.768000 193.744656
L132.264000 191.570184L132.512000 195.896880L133.256000 190.139530
L134.000000 196.293154L134.496000 194.423717L134.992000 186.306048
L135.488000 192.963859L135.736000 190.335485L136.480000 192.562531
L137.224000 185.344762L137.720000 194.870707L137.968000 192.507192
L138.216000 195.639408L139.456000 184.818888L139.704000 186.185304
L139.952000 191.842344L140.696000 188.779378L141.192000 190.531181
L141.936000 188.815536L142.184000 192.224750L142.432000 189.066398
L142.928000 194.089910L143.424000 189.828403L143.672000 192.010349
L143.920000 189.811814L144.168000 194.014915L144.416000 189.813845
L144.912000 191.137882L145.160000 188.133581L145.656000 190.262693
L145.904000 187.806816L146.152000 189.855187L146.400000 187.160933
L146.648000 191.259058L146.896000 187.800120L147.144000 193.404197
L147.392000 190.859026L147.640000 192.716842L147.888000 184.865285
L148.136000 193.632941L148.384000 191.203805L148.880000 184.142635
L149.872000 192.654029L150.120000 191.125613L150.368000 194.007398
L151.360000 181.451362L151.608000 184.093430L151.856000 181.869538
L152.352000 185.533675L152.600000 182.890483L153.096000 184.008240
L153.592000 177.911986L153.840000 184.459594L154.088000 176.871989
L154.336000 179.788118L154.584000 177.715901L154.832000 172.303373
L155.328000 169.254922L155.824000 172.131221L156.568000 165.136277
L157.312000 175.861368L157.808000 171.236635L158.056000 174.219811
L158.304000 169.955669L158.800000 171.797717L160.288000 158.882947
L160.536000 165.340354L160.784000 164.232619L161.032000 165.877762
L161.528000 157.472294L162.272000 172.097266L162.520000 165.285144
L162.768000 171.065736L163.512000 164.857248L164.008000 171.501019
L164.504000 164.091571L164.752000 167.622523L165.000000 159.264058
L165.496000 171.076018L165.744000 169.642642L166.240000 176.418648
L166.488000 173.437330L166.736000 181.657469L166.984000 175.425566
L167.728000 180.999101L168.720000 167.626973L168.968000 170.344080
L169.216000 178.096406L169.960000 169.838294L170.456000 175.546829
L171.200000 178.723238L171.696000 177.503141L172.192000 174.973694
L172.440000 170.418038L172.688000 176.865293L172.936000 170.339717
L173.432000 171.572515L173.680000 173.092723L174.176000 163.790986
L174.424000 164.999506L174.672000 168.871565L175.168000 170.451907
L175.664000 174.392914L176.656000 167.041138L176.904000 169.412602
L177.152000 165.958546L177.400000 167.182661L177.648000 163.200312
L178.144000 167.245690L178.640000 161.694706L179.136000 162.901282
L179.632000 165.141634L179.880000 175.270133L180.128000 170.801136
L180.376000 173.246342L180.624000 170.855136L181.120000 174.453566
L181.368000 171.931421L182.112000 175.284389L182.608000 170.368099
L183.352000 190.130285L184.096000 183.579394L184.344000 187.399656
L184.592000 185.472245L185.584000 189.016589L185.832000 186.584947
L186.576000 190.380456L187.072000 186.485242L187.568000 188.885606
L187.816000 183.229474L188.064000 189.891432L188.808000 182.279506
L189.056000 186.108235L189.800000 169.987421L190.296000 171.390470
L190.792000 163.384128L191.288000 167.369630L191.536000 161.989330
L191.784000 165.326227L192.032000 163.319544L192.528000 169.542936
L192.776000 166.093718L193.024000 172.647504L193.272000 166.824835
L193.768000 164.753050L194.016000 170.122032L194.264000 168.851736
L194.512000 164.309429L195.008000 165.327134L195.504000 168.006485
L195.752000 166.511203L196.000000 170.003362L196.248000 164.749680
L196.744000 172.408608L197.240000 170.910043L197.488000 166.813733
L197.736000 169.350955L198.232000 163.008288L198.480000 168.498922
L198.976000 170.253490L200.712000 187.421515L201.704000 193.672901
L201.952000 197.933242L202.448000 194.780678L202.944000 195.970882
L203.192000 193.476816L203.688000 196.334885L204.432000 183.866155
L204.680000 182.321496L204.928000 185.450558L205.176000 180.621446
L205.920000 179.280950L206.664000 181.187366L206.912000 188.433648
L207.160000 180.057902L207.408000 184.876042L207.904000 178.321219
L208.152000 188.363146L208.400000 179.576827L208.896000 184.639392
L209.144000 171.366624L209.392000 173.292221L210.136000 165.807302
L211.128000 173.608661L211.376000 166.033238L211.624000 167.400821
L211.872000 164.837117L212.864000 173.213899L213.112000 168.887246
L213.360000 170.913154L213.608000 169.489973L214.848000 159.291576
L215.096000 160.970414L216.088000 162.005443L216.336000 158.429822
L216.584000 162.726926L216.832000 160.663738L217.080000 161.840506
L218.072000 164.690539L218.320000 163.405598L218.568000 167.080795
L219.064000 158.936299L219.560000 170.410435L219.808000 162.936792
L220.056000 167.528131L220.304000 166.217141L220.552000 163.834272
L221.048000 166.598899L221.544000 152.732563L222.040000 149.613782
L222.536000 150.701818L223.280000 165.340786L223.776000 163.663632
L224.272000 160.089307L224.520000 163.031400L224.768000 160.733851
L225.016000 167.139677L225.264000 159.647717L225.760000 160.804872
L226.256000 169.942666L226.752000 172.207469L227.000000 175.970448
L227.248000 173.707243L227.496000 176.942750L227.744000 173.933654
L228.240000 177.314962L228.984000 163.986293L229.976000 168.569294
L230.472000 167.534093L230.720000 171.257846L230.968000 169.626485
L231.216000 164.773872L231.464000 169.622986L231.712000 168.162869
L231.960000 172.484208L232.208000 170.790638L232.456000 164.051741
L233.200000 170.628206L233.448000 167.620795L233.944000 169.666790
L234.192000 165.501706L234.936000 171.290765L235.680000 211.562021
L235.928000 206.659210L236.176000 214.499880L237.168000 208.639066
L237.664000 186.649488L238.160000 200.302373L238.904000 196.542504
L239.152000 192.799570L239.400000 196.133573L239.648000 194.343883
L239.896000 197.121859L240.144000 195.521818L240.888000 199.830845
L242.128000 180.889243L242.624000 177.700176L243.120000 185.956430
L243.368000 188.013744L243.616000 186.311102L244.112000 174.490459
L244.608000 177.223075L245.352000 168.571195L245.600000 170.033558
L245.848000 164.847744L246.344000 171.672005L246.840000 165.997987
L247.584000 174.410798L247.832000 167.383886L248.080000 173.964110
L248.328000 172.823890L248.576000 168.475939L248.824000 169.813238
L249.072000 173.045376L249.568000 169.263173L249.816000 172.453536
L250.064000 169.959168L250.312000 172.124309L251.056000 167.587445
L251.800000 177.559301L252.792000 172.870243L253.288000 193.228070
L254.032000 208.633709L254.280000 203.135429L254.776000 213.754248
L255.024000 215.630899L255.272000 213.482088L255.768000 214.819258
L257.008000 215.667749L258.248000 214.850880L258.744000 198.309470
L259.488000 179.767642L259.984000 169.542850L260.232000 175.860461
L260.728000 177.780614L260.976000 180.690394L261.472000 173.114626
L261.720000 178.019467L261.968000 173.778091L262.216000 179.529005
L262.464000 177.462446L262.712000 179.234597L263.704000 177.756552
L264.200000 173.813040L264.448000 177.641122L264.944000 171.625003
L265.192000 176.723813L265.688000 168.230434L265.936000 169.845163
L266.184000 166.343501L266.432000 168.147490L266.928000 160.156224
L267.176000 161.667533L267.424000 162.757166L268.168000 164.486592
L268.416000 160.013880L268.664000 162.227491L268.912000 160.257701
L269.408000 170.686699L269.656000 167.585026L269.904000 162.228226
L271.144000 198.958853L271.640000 185.207558L272.136000 186.417979
L272.384000 183.784810L272.632000 186.598080L273.872000 165.036830
L274.120000 176.846458L274.368000 170.388058L274.616000 172.938974
L275.856000 167.454691L276.352000 173.860776L276.600000 170.684712
L276.848000 179.606938L277.344000 172.108930L277.840000 175.069771
L278.336000 169.504920L278.832000 175.284475L279.328000 207.976853
L279.576000 204.682896L280.320000 215.655480L281.560000 214.949419
L282.800000 215.360122L283.792000 214.351834L284.288000 215.710819
L284.784000 214.493832L286.024000 214.548394L286.768000 215.893253
L288.008000 213.950938L288.256000 215.532619L289.496000 215.902109
L289.992000 214.661966L291.232000 215.521949L292.224000 214.019496
L292.720000 215.429414L293.960000 214.966570L294.208000 213.187766
L294.456000 215.467344L296.936000 215.185939L297.680000 214.076909
L297.928000 215.566531L298.176000 214.122398L298.424000 215.736869
L299.168000 214.136050L299.416000 215.607182L300.656000 215.089906
L301.400000 213.959491L301.648000 215.623426L301.896000 214.294550
L302.392000 215.446478L303.632000 215.477798L304.128000 213.222240
L304.376000 215.161358L305.616000 214.962595L306.856000 215.803786
L308.096000 215.576770L309.336000 214.747157L310.576000 214.875029
L311.816000 214.614922L313.056000 214.936502L314.296000 214.644211
L315.040000 215.687707L316.032000 214.285608L317.024000 215.420602
L318.264000 214.622482L319.504000 215.396194L319.752000 214.360387
L320.000000 215.685590L320.744000 214.576301L323.224000 214.316150
L323.720000 215.549208L324.960000 213.978067L325.208000 215.611200
L325.456000 213.469128L325.704000 215.209354L326.200000 214.084555
L327.192000 215.619624L327.688000 213.716578L327.936000 215.168875
L330.416000 215.159544L331.656000 214.602523L332.896000 215.205422
L335.376000 215.346946L336.616000 214.929288L337.856000 215.043077
L339.096000 214.331659L340.336000 214.129094L340.584000 215.641267
L341.576000 214.530725L342.072000 215.611157L343.312000 215.165678
L343.560000 213.922685L343.808000 215.413214L345.048000 215.288755
L346.040000 214.024464L346.288000 215.684813L346.536000 214.597944
L349.016000 214.099805L349.264000 215.338090L350.256000 214.160026
L350.504000 215.588520L350.752000 213.660202L351.000000 215.360597
L352.240000 213.917458L352.488000 215.049902L352.736000 213.403637
L352.984000 215.224085L354.224000 214.913174L354.472000 213.907997
L354.968000 215.477928L356.208000 215.335411L357.448000 214.562563
L358.192000 215.572450L359.432000 215.849405L360.672000 214.924406
L361.912000 215.459870L362.408000 214.040923L363.648000 215.235230
L366.128000 215.423928L367.368000 214.739078L368.608000 214.762147
L369.848000 215.513395L370.840000 214.114838L371.088000 215.248536
L373.568000 215.206805L378.528000 215.337053L379.768000 214.705339
L380.512000 215.760629L381.752000 215.154230L385.472000 215.214408
L385.720000 213.892963L385.968000 214.999920L387.208000 215.389714
L389.688000 215.474947L390.928000 214.666114L392.168000 215.460000
L393.408000 214.903411L394.648000 215.609990L395.888000 215.695138
L396.632000 213.724872L396.880000 215.048347L398.120000 215.540093
L398.616000 214.417368L399.608000 215.425224L402.088000 215.236440
L403.080000 214.133501L403.328000 215.780674L403.824000 214.254634
L404.072000 215.295235L405.312000 214.671773L409.032000 215.018150
L411.512000 214.805002L412.008000 215.876534L412.752000 214.721885
L413.992000 215.371915L415.232000 215.282664L415.480000 214.207200
L415.728000 215.341114L418.208000 215.021002L419.448000 215.628480
L420.688000 214.227677L420.936000 215.306683L422.176000 215.424533
L423.416000 214.924450L424.160000 213.847733L424.408000 215.824219
L425.152000 214.776835L426.392000 215.757950L427.136000 214.455125
L428.376000 214.567963L429.368000 215.765813L429.864000 213.995390
L430.112000 215.417578L431.352000 215.798515L431.848000 214.093498
L432.344000 215.180798L433.584000 215.534909L434.824000 214.728192
L436.064000 215.389498L436.312000 214.225474L436.560000 215.406389
L437.800000 214.747675L440.280000 215.397792L442.760000 214.536643
L443.504000 215.732160L444.496000 214.700890L445.736000 215.279294
L446.976000 215.450669L448.216000 214.238045L449.208000 215.497670
L450.448000 215.489117L450.944000 214.043688L453.424000 215.269272
L454.664000 215.175571L454.912000 214.037899L455.160000 215.919259
L455.408000 214.903584L456.648000 215.400686L457.888000 214.698168
L459.128000 215.523029L460.368000 215.101699L461.608000 215.203781
L462.104000 214.046323L462.352000 215.277091L463.096000 213.969989
L463.344000 215.712850L464.584000 215.346946L468.304000 215.068954
L469.544000 214.448558L470.288000 215.722094L471.528000 214.564550
L472.272000 215.726069L474.752000 215.620790L475.992000 214.781760
L477.232000 215.681314L478.472000 215.542685L479.712000 214.723138
L480.952000 215.350574L482.192000 214.951147L483.432000 215.317094
L484.672000 215.262835L485.912000 215.941291L486.904000 214.647797
L487.896000 215.818301L489.136000 213.783192L489.384000 214.878701
L490.624000 214.728926L491.864000 215.188445L491.864000 215.188445"/>
</g>
<g id="line2d3">
<path style="fill: none; stroke: #ff0000; stroke-width: 1.000000; stroke-linejoin: round; stroke-linecap: square;  opacity: 1.000000" clip-path="url(#p50431ccdcb28178602d99d9270004dde)" d="M72.000000 215.444707L73.240000 216.528206L74.480000 215.715571
L75.720000 216.067738L90.600000 216.257342L91.840000 215.539531
L93.080000 216.243778L94.320000 215.878090L95.560000 216.257342
L96.800000 215.580139L97.792000 218.329474L98.288000 227.146291
L98.784000 247.339656L99.032000 233.376336L99.528000 249.994210
L99.776000 243.141178L100.024000 251.727782L100.272000 250.495330
L100.520000 257.009717L100.768000 255.357446L101.264000 251.077666
L101.512000 239.267736L101.760000 240.649186L102.008000 251.809042
L102.256000 230.667610L102.504000 236.071454L103.000000 241.312824
L103.248000 250.048382L103.744000 232.143840L103.992000 235.096344
L104.240000 233.877413L104.736000 242.017070L104.984000 240.188717
L105.232000 225.141854L105.480000 229.489330L105.976000 236.206930
L106.472000 216.731333L106.720000 219.575491L106.968000 217.665835
L107.216000 221.322586L107.712000 214.726896L108.952000 214.997760
L109.200000 216.365688L109.944000 226.997338L110.192000 240.432494
L110.688000 237.967589L111.432000 223.015550L111.680000 221.674709
L111.928000 215.918741L112.176000 219.589013L112.424000 218.343038
L112.672000 221.065286L113.912000 213.359011L114.656000 226.591042
L115.152000 212.898542L115.648000 215.377013L116.144000 214.252906
L116.640000 217.990915L117.136000 213.697613L117.384000 219.792182
L118.128000 214.266427L118.624000 218.329474L119.120000 213.833045
L119.616000 219.074371L120.608000 214.713374L121.104000 219.778618
L121.352000 214.442510L122.096000 223.936488L122.344000 211.476485
L122.592000 224.870990L122.840000 220.956941L123.336000 215.431186
L123.584000 219.345235L124.080000 214.957152L124.328000 216.622987
L124.824000 217.814832L125.072000 215.498880L125.320000 218.735770
L125.568000 214.117474L126.064000 219.101458L126.560000 214.537291
L127.056000 219.941179L127.304000 212.112994L127.552000 217.760659
L127.800000 215.187408L128.048000 220.564166L128.544000 215.837482
L128.792000 216.853243L129.040000 212.478682L129.288000 215.715571
L129.536000 214.225819L130.032000 215.295754L130.280000 213.697613
L130.776000 216.704246L131.024000 212.993323L132.264000 212.708938
L132.760000 208.930277L133.008000 213.602789L133.256000 212.289077
L133.504000 214.428946L134.496000 207.846821L134.744000 215.864568
L134.992000 207.169618L135.240000 210.392986L135.488000 205.923643
L135.984000 210.392986L136.232000 218.803507L136.728000 205.625693
L136.976000 211.490006L137.720000 203.648342L138.216000 213.467357
L138.464000 212.207818L138.712000 209.756434L138.960000 214.916501
L139.208000 212.519333L139.704000 216.203170L139.952000 209.688739
L140.200000 214.374773L140.448000 213.033974L140.944000 215.363448
L141.440000 212.167166L141.936000 214.428946L142.432000 211.869216
L142.928000 216.501120L143.920000 213.223579L144.168000 209.417875
L144.416000 214.848806L144.912000 209.634566L145.160000 217.801267
L145.408000 210.772195L145.656000 212.952715L145.904000 211.259794
L146.152000 213.074582L146.400000 211.557744L146.648000 215.512445
L147.144000 211.246229L147.392000 214.009085L147.640000 212.492246
L147.888000 208.903190L148.384000 218.424298L149.376000 211.259794
L149.624000 215.363448L150.120000 212.072386L150.368000 213.941390
L151.112000 216.609466L152.104000 202.727362L152.848000 212.519333
L153.840000 206.478936L154.088000 218.343038L154.336000 213.562181
L154.584000 215.268667L155.080000 206.519544L155.328000 207.630130
L155.576000 205.855906L156.072000 211.178491L156.568000 196.700486
L156.816000 197.811072L157.312000 209.417875L158.056000 203.567040
L158.304000 205.016227L158.552000 203.282654L158.800000 208.659413
L159.048000 192.393662L159.296000 202.158547L159.544000 196.023326
L159.792000 209.769998L160.288000 183.495586L160.536000 185.242680
L161.032000 176.629032L161.776000 200.072851L162.024000 193.125038
L162.272000 196.998480L162.768000 187.897234L163.016000 196.470274
L163.512000 179.364802L164.008000 178.349040L164.256000 182.791339
L164.504000 180.990029L164.752000 182.073528L165.248000 199.625904
L165.496000 193.964717L165.744000 176.182085L166.240000 204.731798
L166.736000 200.790662L166.984000 203.160744L167.232000 189.143208
L167.976000 206.194507L168.224000 199.070611L168.472000 205.706952
L169.464000 200.452061L169.960000 203.350349L170.208000 201.887683
L170.456000 203.675429L170.704000 208.808410L170.952000 205.408958
L171.448000 203.729602L171.696000 190.077710L171.944000 192.542659
L172.192000 195.007565L172.440000 183.319502L172.936000 194.682528
L173.184000 193.463597L173.432000 201.968942L173.680000 198.583056
L174.424000 210.338813L174.672000 197.783986L175.168000 205.977816
L175.416000 198.975830L175.664000 205.530869L175.912000 196.930742
L176.408000 210.853454L176.656000 202.727362L176.904000 210.514896
L177.152000 188.195184L177.648000 210.108557L178.144000 208.009339
L178.392000 202.388760L178.640000 203.458694L178.888000 214.645637
L179.880000 204.758885L180.128000 206.803973L180.624000 214.009085
L180.872000 207.115445L181.120000 217.002240L181.368000 212.790197
L181.616000 217.015762L181.864000 210.934714L182.856000 222.094570
L183.104000 217.435622L183.352000 218.586816L183.848000 227.931840
L184.344000 220.320389L184.840000 218.898331L185.088000 224.627213
L185.336000 221.471582L185.832000 229.394549L186.328000 228.256877
L186.576000 219.873442L187.072000 223.557278L187.320000 220.442256
L187.568000 224.099006L188.312000 226.916078L188.808000 219.060850
L189.552000 222.270653L190.296000 213.006888L190.544000 218.072174
L191.040000 209.607480L191.288000 208.063512L191.536000 221.742446
L192.280000 199.639426L192.528000 206.194507L192.776000 202.307501
L193.272000 210.975365L193.520000 206.031989L193.768000 210.907627
L194.016000 206.682062L194.512000 210.812846L194.760000 209.661653
L195.008000 202.984704L195.256000 212.654765L196.000000 203.499346
L196.248000 216.284429L196.496000 213.020410L196.744000 199.612339
L196.992000 211.760870L197.240000 209.837693L197.736000 211.300402
L197.984000 207.603043L198.480000 216.839678L198.728000 207.156096
L198.976000 209.323051L199.472000 211.544179L199.720000 216.785506
L200.216000 213.020410L200.464000 205.002662L200.712000 206.451850
L201.456000 217.327277L201.952000 218.681597L202.200000 216.108346
L202.696000 214.510205L202.944000 210.501331L203.192000 218.817029
L203.440000 216.419861L203.688000 218.803507L203.936000 213.467357
L204.184000 215.349926L204.680000 207.562392L204.928000 209.864779
L205.176000 198.759096L205.424000 207.291528L205.672000 198.163195
L206.168000 207.982253L207.408000 187.558632L207.656000 208.794845
L207.904000 198.312192L209.144000 213.142320L209.392000 211.462920
L210.136000 204.013987L210.384000 210.609677L210.880000 198.840398
L211.624000 214.577942L211.872000 223.340587L212.120000 210.799282
L212.368000 214.605029L212.616000 212.261990L213.112000 216.568814
L213.360000 209.905430L213.856000 222.148742L214.352000 214.347686
L214.600000 217.246018L214.848000 215.972914L216.088000 199.544645
L216.336000 204.488021L216.584000 201.833510L217.080000 203.025312
L217.328000 199.490472L217.576000 188.872344L217.824000 190.592395
L218.072000 192.122798L218.568000 187.247117L218.816000 172.064866
L219.312000 207.020664L219.808000 196.226496L220.552000 206.736235
L220.800000 194.181408L221.296000 205.219354L221.544000 200.655187
L221.792000 221.295499L222.040000 218.830594L222.288000 220.442256
L222.536000 219.223368L223.280000 212.261990L223.776000 226.333699
L224.024000 222.473779L224.520000 230.085230L224.768000 218.600338
L225.512000 226.509739L225.760000 222.094570L226.008000 229.489330
L226.504000 230.938474L227.248000 220.198478L227.744000 248.396069
L227.992000 240.053285L228.488000 254.747981L229.232000 225.399197
L229.480000 236.965349L229.976000 225.805493L230.472000 232.536614
L230.720000 226.022184L231.216000 235.583899L231.960000 217.327277
L232.456000 233.809718L232.704000 226.618128L233.200000 222.988464
L233.448000 225.412718L233.696000 221.850792L233.944000 228.947602
L234.440000 227.037946L234.936000 234.324360L235.432000 231.209338
L235.680000 223.624973L235.928000 225.751320L237.168000 224.654299
L237.416000 230.315486L237.664000 226.265962L237.912000 232.062581
L238.408000 225.182506L238.656000 226.888992L238.904000 223.936488
L239.152000 229.110120L239.400000 227.606803L240.640000 227.214029
L240.888000 225.615888L241.136000 228.852778L241.384000 225.968011
L242.128000 230.288400L242.376000 220.604774L242.872000 226.482653
L243.120000 217.828354L243.368000 223.773970L244.360000 227.539066
L244.608000 233.322163L244.856000 229.462243L245.104000 230.694696
L245.352000 228.162053L245.600000 229.787280L245.848000 227.119205
L246.096000 230.247749L246.344000 228.473568L246.592000 229.868539
L247.336000 237.371645L247.584000 225.412718L248.080000 222.189394
L248.824000 226.482653L249.320000 233.863891L249.568000 230.545742
L249.816000 234.283752L250.312000 224.451130L250.560000 229.665413
L251.304000 220.726685L251.800000 224.627213L252.048000 223.516627
L252.544000 240.188717L253.288000 224.302176L254.528000 223.868794
L255.768000 223.977139L258.248000 223.516627L258.992000 219.412973
L259.488000 221.932051L259.984000 215.702050L260.232000 220.956941
L260.976000 206.993578L261.224000 214.523770L261.472000 212.316163
L261.968000 206.709149L262.464000 220.794422L262.960000 216.270864
L263.208000 218.437819L263.704000 207.169618L264.448000 222.392520
L265.192000 207.724910L265.688000 217.313712L265.936000 208.375027
L266.184000 214.361251L266.928000 204.149419L267.176000 218.112782
L267.424000 216.731333L268.168000 198.881006L268.664000 201.264653
L269.160000 197.648554L269.904000 205.585042L270.400000 226.875427
L270.648000 221.539277L271.144000 228.243312L271.392000 248.436677
L271.640000 241.109654L271.888000 245.253960L272.136000 239.078131
L272.632000 235.895414L272.880000 242.802619L273.128000 241.583688
L273.376000 235.976674L273.624000 241.421170L274.368000 222.920726
L274.864000 228.243312L275.112000 219.304627L275.360000 222.230002
L275.608000 223.313501L276.104000 217.909613L276.352000 224.234438
L276.600000 223.178069L277.096000 227.593238L277.344000 222.758208
L277.840000 227.227550L278.336000 219.467146L278.584000 224.843904
L278.832000 215.187408L279.080000 225.670061L279.328000 224.085485
L279.576000 219.115022L279.824000 220.225565L280.320000 221.579928
L281.560000 220.713120L284.040000 220.902768L285.280000 220.090133
L289.000000 220.509994L290.240000 220.171392L291.480000 220.266216
L292.720000 219.629664L293.960000 219.561926L296.440000 220.035960
L298.920000 218.966026L299.168000 220.347475L299.912000 219.074371
L302.392000 219.521318L304.872000 218.546165L306.112000 219.115022
L308.592000 219.236890L309.832000 218.343038L311.072000 218.559730
L314.792000 218.315952L316.032000 218.938939L316.280000 217.530403
L317.024000 218.600338L318.264000 217.963829L321.984000 217.977350
L323.224000 218.505557L325.704000 217.652314L326.944000 218.031523
L328.184000 217.273104L329.424000 217.598141L330.664000 217.259539
L331.904000 217.327277L333.144000 217.056413L334.384000 217.354363
L335.624000 217.124107L338.104000 217.435622L340.584000 216.731333
L341.824000 217.340798L345.544000 216.568814L346.784000 217.394971
L348.024000 216.771984L354.224000 216.717811L355.464000 216.826157
L356.704000 216.568814L357.944000 216.744898L359.184000 216.094824
L360.424000 216.365688L361.664000 215.891654L362.904000 216.622987
L364.144000 216.040651L365.384000 216.487555L366.624000 216.027086
L371.584000 215.932262L374.064000 215.674963L375.304000 216.297950
L380.264000 215.729136L381.504000 216.054173L387.704000 215.404099
L388.944000 215.891654L391.424000 215.851003L393.904000 215.932262
L402.584000 215.444707L403.824000 215.783309L405.064000 215.485358
L406.304000 215.715571L407.544000 215.282189L408.784000 216.284429
L411.264000 215.593704L412.504000 216.365688L413.744000 215.823917
L422.424000 215.593704L423.664000 216.135432L424.904000 215.566618
L426.144000 215.823917L429.864000 215.539531L431.104000 215.769744
L432.344000 215.377013L433.584000 215.742658L436.064000 215.742658
L438.544000 216.108346L439.784000 215.593704L442.264000 215.810395
L443.504000 216.230256L444.744000 215.255102L445.984000 216.216691
L448.464000 215.607226L449.704000 215.945827L453.424000 215.173843
L454.168000 216.392774L455.408000 215.634312L456.648000 216.243778
L460.368000 215.390534L461.608000 215.972914L462.848000 216.013565
L464.088000 215.688485L465.328000 216.352123L466.568000 215.688485
L467.808000 216.365688L468.056000 215.309275L470.536000 216.514642
L471.776000 215.823917L473.016000 215.796830L474.256000 216.230256
L479.216000 215.986435L480.456000 215.688485L487.896000 216.501120
L489.136000 215.986435L491.616000 216.284429L491.616000 216.284429"/>
</g>
<g id="line2d4">
<path style="fill: none; stroke: #00bfbf; stroke-width: 1.000000; stroke-linejoin: round; stroke-linecap: square;  opacity: 1.000000" clip-path="url(#p50431ccdcb28178602d99d9270004dde)" d="M72.000000 216.000000L72.248000 185.086728L97.048000 185.112907
L98.288000 184.641941L99.528000 173.871619L101.512000 145.367957
L103.744000 121.441464L105.232000 109.132056L106.224000 103.162853
L107.216000 101.981549L108.456000 101.757298L109.696000 101.991571
L110.192000 100.675138L111.184000 91.731182L111.680000 90.098914
L112.920000 88.600090L114.160000 88.298942L115.152000 87.180278
L116.392000 87.287328L117.632000 87.053573L118.872000 86.348333
L119.368000 185.073336L121.848000 184.306147L124.328000 182.268101
L125.568000 181.527221L126.808000 181.744344L129.288000 181.106410
L130.528000 181.802664L131.768000 182.951179L134.744000 187.430803
L137.720000 195.075432L138.712000 197.919374L139.456000 199.051560
L140.696000 200.270880L140.944000 185.429088L142.680000 187.700544
L143.176000 281.728930L143.424000 273.761813L144.416000 275.184432
L145.656000 276.233674L148.136000 279.574848L149.376000 278.960285
L150.616000 279.478469L151.856000 280.430554L156.568000 291.457656
L157.064000 294.668323L157.312000 279.231538L157.560000 281.046888
L159.792000 292.947710L160.536000 297.548597L162.024000 316.074701
L164.008000 336.471667L164.256000 324.532310L164.504000 328.414003
L165.744000 342.312782L165.992000 348.587064L166.240000 80.998056
L166.984000 104.306443L167.232000 89.439077L167.480000 92.077344
L168.224000 95.980766L169.464000 102.545914L171.944000 116.511826
L172.440000 120.652675L172.688000 109.106957L172.936000 111.286958
L173.432000 141.103339L173.680000 126.352613L173.928000 127.929931
L174.176000 144.035496L174.672000 145.142582L174.920000 132.028056
L175.168000 133.280942L176.656000 140.201323L179.632000 153.384926
L180.376000 156.550709L181.864000 159.598728L183.104000 159.056870
L184.840000 155.954549L185.584000 154.754971L186.328000 151.426930
L186.824000 158.871110L187.072000 153.076176L189.800000 146.033410
L191.040000 145.967616L192.528000 149.352077L194.016000 154.056902
L195.504000 158.938891L196.000000 160.097170L196.744000 162.663682
L197.488000 165.147077L200.960000 172.941048L203.440000 173.835936
L204.432000 190.193443L204.928000 191.267654L207.408000 204.729941
L208.152000 210.570797L209.144000 214.015306L209.888000 215.222875
L211.376000 222.936840L213.112000 225.054418L213.856000 226.169064
L215.096000 225.890467L215.840000 227.731392L217.824000 239.996909
L219.312000 257.822784L221.792000 274.025246L222.288000 290.353421
L223.528000 290.013869L224.272000 288.673848L224.768000 286.968269
L226.008000 284.468414L226.504000 282.840163L226.752000 304.051925
L227.000000 302.844485L228.488000 289.083254L229.728000 276.963062
L230.472000 273.015230L231.464000 268.321594L231.712000 284.514379
L232.456000 281.804573L233.200000 278.030405L234.192000 274.027061
L234.440000 280.177186L234.688000 272.508062L235.184000 270.034776
L235.432000 284.969232L235.680000 283.294541L237.664000 275.622264
L238.160000 139.870757L238.904000 135.472392L240.144000 130.065048
L241.880000 121.362365L242.128000 136.827014L242.376000 135.811512
L245.600000 122.707138L246.096000 138.804408L249.816000 120.448685
L250.064000 134.973000L250.312000 133.208280L252.048000 125.812483
L255.520000 112.395902L258.992000 102.040646L259.240000 259.427146
L259.736000 258.377731L260.728000 257.287363L262.216000 260.173944
L263.208000 276.985440L266.184000 280.839355L267.176000 282.041395
L267.920000 283.650638L269.904000 296.465918L270.400000 298.084709
L270.896000 317.653272L271.640000 313.386494L273.128000 297.846936
L274.616000 288.752645L276.352000 283.175309L277.344000 280.653984
L278.336000 277.991654L278.832000 292.739486L281.312000 287.581622
L288.008000 275.266901L290.984000 270.117029L301.648000 254.058768
L310.328000 243.658627L318.512000 235.700237L328.432000 227.988173
L332.152000 225.578995L342.072000 220.523731L348.272000 218.317162
L353.232000 217.043064L359.432000 215.796269L370.592000 214.834032
L375.552000 214.971322L392.912000 216.181699L404.072000 217.330430
L428.872000 220.061923L462.352000 222.463368L467.312000 222.440904
L475.992000 222.619493L492.112000 222.572362L492.112000 222.572362"/>
</g>
<g id="matplotlib.axis1">
<g id="xtick1">
<g id="line2d5">
<defs><path id="m30e32995789d870ad79a2e54c91cf9c6" d="M0.000000 0.000000L0.000000 -4.000000"/></defs>
<g ><use style="fill: none; stroke: #000000; stroke-width: 0.500000; stroke-linejoin: round; stroke-linecap: butt;  opacity: 1.000000" xlink:href="#m30e32995789d870ad79a2e54c91cf9c6" x="72.000000" y="388.800000"/>
</g></g>
<g id="line2d6">
<defs><path id="m9281cae24120827b11d5ea8a7ad3e96b" d="M0.000000 0.000000L0.000000 4.000000"/></defs>
<g ><use style="fill: none; stroke: #000000; stroke-width: 0.500000; stroke-linejoin: round; stroke-linecap: butt;  opacity: 1.000000" xlink:href="#m9281cae24120827b11d5ea8a7ad3e96b" x="72.000000" y="43.200000"/>
</g></g>
<g id="text1">
<defs>
<path id="c_7a2040fe3b94fcd41d0a72c84e93b115" d="M31.781250 -66.406250q-7.609375 0.000000 -11.453125 7.500000q-3.828125 7.484375 -3.828125 22.531250q0.000000 14.984375 3.828125 22.484375q3.843750 7.500000 11.453125 7.500000q7.671875 0.000000 11.500000 -7.500000q3.843750 -7.500000 3.843750 -22.484375q0.000000 -15.046875 -3.843750 -22.531250q-3.828125 -7.500000 -11.500000 -7.500000M31.781250 -74.218750q12.265625 0.000000 18.734375 9.703125q6.468750 9.687500 6.468750 28.140625q0.000000 18.406250 -6.468750 28.109375q-6.468750 9.687500 -18.734375 9.687500q-12.250000 0.000000 -18.718750 -9.687500q-6.468750 -9.703125 -6.468750 -28.109375q0.000000 -18.453125 6.468750 -28.140625q6.468750 -9.703125 18.718750 -9.703125"/>
</defs>
<g style="fill: #000000; opacity: 1.000000" transform="translate(68.976562,401.706250)scale(0.120000)">
<use xlink:href="#c_7a2040fe3b94fcd41d0a72c84e93b115"/>
</g>
</g>
</g>
<g id="xtick2">
<g id="line2d7">
<g ><use style="fill: none; stroke: #000000; stroke-width: 0.500000; stroke-linejoin: round; stroke-linecap: butt;  opacity: 1.000000" xlink:href="#m30e32995789d870ad79a2e54c91cf9c6" x="121.600000" y="388.800000"/>
</g></g>
<g id="line2d8">
<g ><use style="fill: none; stroke: #000000; stroke-width: 0.500000; stroke-linejoin: round; stroke-linecap: butt;  opacity: 1.000000" xlink:href="#m9281cae24120827b11d5ea8a7ad3e96b" x="121.600000" y="43.200000"/>
</g></g>
<g id="text2">
<defs>
<path id="c_ed3f3ed3ebfbd18bcb9c012009a68ad1" d="M19.187500 -8.296875l34.421875 0.000000l0.000000 8.296875l-46.281250 0.000000l0.000000 -8.296875q5.609375 -5.812500 15.296875 -15.593750q9.703125 -9.796875 12.187500 -12.640625q4.734375 -5.312500 6.609375 -9.000000q1.890625 -3.687500 1.890625 -7.250000q0.000000 -5.812500 -4.078125 -9.468750q-4.078125 -3.671875 -10.625000 -3.671875q-4.640625 0.000000 -9.796875 1.609375q-5.140625 1.609375 -11.000000 4.890625l0.000000 -9.968750q5.953125 -2.390625 11.125000 -3.609375q5.187500 -1.218750 9.484375 -1.218750q11.328125 0.000000 18.062500 5.671875q6.734375 5.656250 6.734375 15.125000q0.000000 4.500000 -1.687500 8.531250q-1.671875 4.015625 -6.125000 9.484375q-1.218750 1.421875 -7.765625 8.187500q-6.531250 6.765625 -18.453125 18.921875"/>
</defs>
<g style="fill: #000000; opacity: 1.000000" transform="translate(110.975000,401.706250)scale(0.120000)">
<use xlink:href="#c_ed3f3ed3ebfbd18bcb9c012009a68ad1"/>
<use xlink:href="#c_7a2040fe3b94fcd41d0a72c84e93b115" x="63.623047"/>
<use xlink:href="#c_7a2040fe3b94fcd41d0a72c84e93b115" x="127.246094"/>
</g>
</g>
</g>
<g id="xtick3">
<g id="line2d9">
<g ><use style="fill: none; stroke: #000000; stroke-width: 0.500000; stroke-linejoin: round; stroke-linecap: butt;  opacity: 1.000000" xlink:href="#m30e32995789d870ad79a2e54c91cf9c6" x="171.200000" y="388.800000"/>
</g></g>
<g id="line2d10">
<g ><use style="fill: none; stroke: #000000; stroke-width: 0.500000; stroke-linejoin: round; stroke-linecap: butt;  opacity: 1.000000" xlink:href="#m9281cae24120827b11d5ea8a7ad3e96b" x="171.200000" y="43.200000"/>
</g></g>
<g id="text3">
<defs>
<path id="c_a0416418d96557a09b8c1332d34883ba" d="M37.796875 -64.312500l-24.906250 38.921875l24.906250 0.000000zM35.203125 -72.906250l12.406250 0.000000l0.000000 47.515625l10.406250 0.000000l0.000000 8.203125l-10.406250 0.000000l0.000000 17.187500l-9.812500 0.000000l0.000000 -17.187500l-32.906250 0.000000l0.000000 -9.515625z"/>
</defs>
<g style="fill: #000000; opacity: 1.000000" transform="translate(160.434375,401.706250)scale(0.120000)">
<use xlink:href="#c_a0416418d96557a09b8c1332d34883ba"/>
<use xlink:href="#c_7a2040fe3b94fcd41d0a72c84e93b115" x="63.623047"/>
<use xlink:href="#c_7a2040fe3b94fcd41d0a72c84e93b115" x="127.246094"/>
</g>
</g>
</g>
<g id="xtick4">
<g id="line2d11">
<g ><use style="fill: none; stroke: #000000; stroke-width: 0.500000; stroke-linejoin: round; stroke-linecap: butt;  opacity: 1.000000" xlink:href="#m30e32995789d870ad79a2e54c91cf9c6" x="220.800000" y="388.800000"/>
</g></g>
<g id="line2d12">
<g ><use style="fill: none; stroke: #000000; stroke-width: 0.500000; stroke-linejoin: round; stroke-linecap: butt;  opacity: 1.000000" xlink:href="#m9281cae24120827b11d5ea8a7ad3e96b" x="220.800000" y="43.200000"/>
</g></g>
<g id="text4">
<defs>
<path id="c_cc8d6d580d1b10c8632f7a42cd53db8a" d="M33.015625 -40.375000q-6.640625 0.000000 -10.531250 4.546875q-3.875000 4.531250 -3.875000 12.437500q0.000000 7.859375 3.875000 12.437500q3.890625 4.562500 10.531250 4.562500q6.640625 0.000000 10.515625 -4.562500q3.875000 -4.578125 3.875000 -12.437500q0.000000 -7.906250 -3.875000 -12.437500q-3.875000 -4.546875 -10.515625 -4.546875M52.593750 -71.296875l0.000000 8.984375q-3.718750 -1.750000 -7.500000 -2.671875q-3.781250 -0.937500 -7.500000 -0.937500q-9.765625 0.000000 -14.921875 6.593750q-5.140625 6.593750 -5.875000 19.921875q2.875000 -4.250000 7.218750 -6.515625q4.359375 -2.265625 9.578125 -2.265625q10.984375 0.000000 17.359375 6.671875q6.375000 6.656250 6.375000 18.125000q0.000000 11.234375 -6.640625 18.031250q-6.640625 6.781250 -17.671875 6.781250q-12.656250 0.000000 -19.343750 -9.687500q-6.687500 -9.703125 -6.687500 -28.109375q0.000000 -17.281250 8.203125 -27.562500q8.203125 -10.281250 22.015625 -10.281250q3.718750 0.000000 7.500000 0.734375q3.781250 0.734375 7.890625 2.187500"/>
</defs>
<g style="fill: #000000; opacity: 1.000000" transform="translate(210.159375,401.706250)scale(0.120000)">
<use xlink:href="#c_cc8d6d580d1b10c8632f7a42cd53db8a"/>
<use xlink:href="#c_7a2040fe3b94fcd41d0a72c84e93b115" x="63.623047"/>
<use xlink:href="#c_7a2040fe3b94fcd41d0a72c84e93b115" x="127.246094"/>
</g>
</g>
</g>
<g id="xtick5">
<g id="line2d13">
<g ><use style="fill: none; stroke: #000000; stroke-width: 0.500000; stroke-linejoin: round; stroke-linecap: butt;  opacity: 1.000000" xlink:href="#m30e32995789d870ad79a2e54c91cf9c6" x="270.400000" y="388.800000"/>
</g></g>
<g id="line2d14">
<g ><use style="fill: none; stroke: #000000; stroke-width: 0.500000; stroke-linejoin: round; stroke-linecap: butt;  opacity: 1.000000" xlink:href="#m9281cae24120827b11d5ea8a7ad3e96b" x="270.400000" y="43.200000"/>
</g></g>
<g id="text5">
<defs>
<path id="c_bef35738d52871942e50b9de9b122bab" d="M31.781250 -34.625000q-7.031250 0.000000 -11.062500 3.765625q-4.015625 3.765625 -4.015625 10.343750q0.000000 6.593750 4.015625 10.359375q4.031250 3.765625 11.062500 3.765625q7.031250 0.000000 11.078125 -3.781250q4.062500 -3.796875 4.062500 -10.343750q0.000000 -6.578125 -4.031250 -10.343750q-4.015625 -3.765625 -11.109375 -3.765625M21.921875 -38.812500q-6.343750 -1.562500 -9.890625 -5.906250q-3.531250 -4.359375 -3.531250 -10.609375q0.000000 -8.734375 6.218750 -13.812500q6.234375 -5.078125 17.062500 -5.078125q10.890625 0.000000 17.093750 5.078125q6.203125 5.078125 6.203125 13.812500q0.000000 6.250000 -3.546875 10.609375q-3.531250 4.343750 -9.828125 5.906250q7.125000 1.656250 11.093750 6.500000q3.984375 4.828125 3.984375 11.796875q0.000000 10.609375 -6.468750 16.281250q-6.468750 5.656250 -18.531250 5.656250q-12.046875 0.000000 -18.531250 -5.656250q-6.468750 -5.671875 -6.468750 -16.281250q0.000000 -6.968750 4.000000 -11.796875q4.015625 -4.843750 11.140625 -6.500000M18.312500 -54.390625q0.000000 5.656250 3.531250 8.828125q3.546875 3.171875 9.937500 3.171875q6.359375 0.000000 9.937500 -3.171875q3.593750 -3.171875 3.593750 -8.828125q0.000000 -5.671875 -3.593750 -8.843750q-3.578125 -3.171875 -9.937500 -3.171875q-6.390625 0.000000 -9.937500 3.171875q-3.531250 3.171875 -3.531250 8.843750"/>
</defs>
<g style="fill: #000000; opacity: 1.000000" transform="translate(259.743750,401.706250)scale(0.120000)">
<use xlink:href="#c_bef35738d52871942e50b9de9b122bab"/>
<use xlink:href="#c_7a2040fe3b94fcd41d0a72c84e93b115" x="63.623047"/>
<use xlink:href="#c_7a2040fe3b94fcd41d0a72c84e93b115" x="127.246094"/>
</g>
</g>
</g>
<g id="xtick6">
<g id="line2d15">
<g ><use style="fill: none; stroke: #000000; stroke-width: 0.500000; stroke-linejoin: round; stroke-linecap: butt;  opacity: 1.000000" xlink:href="#m30e32995789d870ad79a2e54c91cf9c6" x="320.000000" y="388.800000"/>
</g></g>
<g id="line2d16">
<g ><use style="fill: none; stroke: #000000; stroke-width: 0.500000; stroke-linejoin: round; stroke-linecap: butt;  opacity: 1.000000" xlink:href="#m9281cae24120827b11d5ea8a7ad3e96b" x="320.000000" y="43.200000"/>
</g></g>
<g id="text6">
<defs>
<path id="c_42baa63129a918535c52adb20d687ea7" d="M12.406250 -8.296875l16.109375 0.000000l0.000000 -55.625000l-17.531250 3.515625l0.000000 -8.984375l17.437500 -3.515625l9.859375 0.000000l0.000000 64.609375l16.109375 0.000000l0.000000 8.296875l-41.984375 0.000000z"/>
</defs>
<g style="fill: #000000; opacity: 1.000000" transform="translate(305.773438,401.706250)scale(0.120000)">
<use xlink:href="#c_42baa63129a918535c52adb20d687ea7"/>
<use xlink:href="#c_7a2040fe3b94fcd41d0a72c84e93b115" x="63.623047"/>
<use xlink:href="#c_7a2040fe3b94fcd41d0a72c84e93b115" x="127.246094"/>
<use xlink:href="#c_7a2040fe3b94fcd41d0a72c84e93b115" x="190.869141"/>
</g>
</g>
</g>
<g id="xtick7">
<g id="line2d17">
<g ><use style="fill: none; stroke: #000000; stroke-width: 0.500000; stroke-linejoin: round; stroke-linecap: butt;  opacity: 1.000000" xlink:href="#m30e32995789d870ad79a2e54c91cf9c6" x="369.600000" y="388.800000"/>
</g></g>
<g id="line2d18">
<g ><use style="fill: none; stroke: #000000; stroke-width: 0.500000; stroke-linejoin: round; stroke-linecap: butt;  opacity: 1.000000" xlink:href="#m9281cae24120827b11d5ea8a7ad3e96b" x="369.600000" y="43.200000"/>
</g></g>
<g id="text7">
<g style="fill: #000000; opacity: 1.000000" transform="translate(355.373438,401.706250)scale(0.120000)">
<use xlink:href="#c_42baa63129a918535c52adb20d687ea7"/>
<use xlink:href="#c_ed3f3ed3ebfbd18bcb9c012009a68ad1" x="63.623047"/>
<use xlink:href="#c_7a2040fe3b94fcd41d0a72c84e93b115" x="127.246094"/>
<use xlink:href="#c_7a2040fe3b94fcd41d0a72c84e93b115" x="190.869141"/>
</g>
</g>
</g>
<g id="xtick8">
<g id="line2d19">
<g ><use style="fill: none; stroke: #000000; stroke-width: 0.500000; stroke-linejoin: round; stroke-linecap: butt;  opacity: 1.000000" xlink:href="#m30e32995789d870ad79a2e54c91cf9c6" x="419.200000" y="388.800000"/>
</g></g>
<g id="line2d20">
<g ><use style="fill: none; stroke: #000000; stroke-width: 0.500000; stroke-linejoin: round; stroke-linecap: butt;  opacity: 1.000000" xlink:href="#m9281cae24120827b11d5ea8a7ad3e96b" x="419.200000" y="43.200000"/>
</g></g>
<g id="text8">
<g style="fill: #000000; opacity: 1.000000" transform="translate(404.973437,401.706250)scale(0.120000)">
<use xlink:href="#c_42baa63129a918535c52adb20d687ea7"/>
<use xlink:href="#c_a0416418d96557a09b8c1332d34883ba" x="63.623047"/>
<use xlink:href="#c_7a2040fe3b94fcd41d0a72c84e93b115" x="127.246094"/>
<use xlink:href="#c_7a2040fe3b94fcd41d0a72c84e93b115" x="190.869141"/>
</g>
</g>
</g>
<g id="xtick9">
<g id="line2d21">
<g ><use style="fill: none; stroke: #000000; stroke-width: 0.500000; stroke-linejoin: round; stroke-linecap: butt;  opacity: 1.000000" xlink:href="#m30e32995789d870ad79a2e54c91cf9c6" x="468.800000" y="388.800000"/>
</g></g>
<g id="line2d22">
<g ><use style="fill: none; stroke: #000000; stroke-width: 0.500000; stroke-linejoin: round; stroke-linecap: butt;  opacity: 1.000000" xlink:href="#m9281cae24120827b11d5ea8a7ad3e96b" x="468.800000" y="43.200000"/>
</g></g>
<g id="text9">
<g style="fill: #000000; opacity: 1.000000" transform="translate(454.573438,401.706250)scale(0.120000)">
<use xlink:href="#c_42baa63129a918535c52adb20d687ea7"/>
<use xlink:href="#c_cc8d6d580d1b10c8632f7a42cd53db8a" x="63.623047"/>
<use xlink:href="#c_7a2040fe3b94fcd41d0a72c84e93b115" x="127.246094"/>
<use xlink:href="#c_7a2040fe3b94fcd41d0a72c84e93b115" x="190.869141"/>
</g>
</g>
</g>
<g id="xtick10">
<g id="line2d23">
<g ><use style="fill: none; stroke: #000000; stroke-width: 0.500000; stroke-linejoin: round; stroke-linecap: butt;  opacity: 1.000000" xlink:href="#m30e32995789d870ad79a2e54c91cf9c6" x="518.400000" y="388.800000"/>
</g></g>
<g id="line2d24">
<g ><use style="fill: none; stroke: #000000; stroke-width: 0.500000; stroke-linejoin: round; stroke-linecap: butt;  opacity: 1.000000" xlink:href="#m9281cae24120827b11d5ea8a7ad3e96b" x="518.400000" y="43.200000"/>
</g></g>
<g id="text10">
<g style="fill: #000000; opacity: 1.000000" transform="translate(504.173437,401.706250)scale(0.120000)">
<use xlink:href="#c_42baa63129a918535c52adb20d687ea7"/>
<use xlink:href="#c_bef35738d52871942e50b9de9b122bab" x="63.623047"/>
<use xlink:href="#c_7a2040fe3b94fcd41d0a72c84e93b115" x="127.246094"/>
<use xlink:href="#c_7a2040fe3b94fcd41d0a72c84e93b115" x="190.869141"/>
</g>
</g>
</g>
<g id="text11">
<defs>
<path id="c_9e4b30cbdf32072672ded72e9074c4c9" d="M-0.296875 -72.906250l61.671875 0.000000l0.000000 8.312500l-25.875000 0.000000l0.000000 64.593750l-9.906250 0.000000l0.000000 -64.593750l-25.890625 0.000000z"/>
<path id="c_6a63bda47b2f3da1cec6aadd80692cfe" d="M9.421875 -54.687500l8.984375 0.000000l0.000000 54.687500l-8.984375 0.000000zM9.421875 -75.984375l8.984375 0.000000l0.000000 11.390625l-8.984375 0.000000z"/>
<path id="c_4653c6dfde66c7610eae0911760d3490" d="M52.000000 -44.187500q3.375000 -6.062500 8.062500 -8.937500q4.687500 -2.875000 11.031250 -2.875000q8.546875 0.000000 13.187500 5.984375q4.640625 5.968750 4.640625 17.000000l0.000000 33.015625l-9.031250 0.000000l0.000000 -32.718750q0.000000 -7.859375 -2.796875 -11.656250q-2.781250 -3.812500 -8.484375 -3.812500q-6.984375 0.000000 -11.046875 4.640625q-4.046875 4.625000 -4.046875 12.640625l0.000000 30.906250l-9.031250 0.000000l0.000000 -32.718750q0.000000 -7.906250 -2.781250 -11.687500q-2.781250 -3.781250 -8.593750 -3.781250q-6.890625 0.000000 -10.953125 4.656250q-4.046875 4.656250 -4.046875 12.625000l0.000000 30.906250l-9.031250 0.000000l0.000000 -54.687500l9.031250 0.000000l0.000000 8.500000q3.078125 -5.031250 7.375000 -7.421875q4.296875 -2.390625 10.203125 -2.390625q5.968750 0.000000 10.140625 3.031250q4.171875 3.015625 6.171875 8.781250"/>
<path id="c_0bce5afba2dc6b9024b26277c38ad8e8" d="M56.203125 -29.593750l0.000000 4.390625l-41.312500 0.000000q0.593750 9.281250 5.593750 14.140625q5.000000 4.859375 13.937500 4.859375q5.171875 0.000000 10.031250 -1.265625q4.859375 -1.265625 9.656250 -3.812500l0.000000 8.500000q-4.843750 2.046875 -9.921875 3.125000q-5.078125 1.078125 -10.296875 1.078125q-13.093750 0.000000 -20.734375 -7.609375q-7.640625 -7.625000 -7.640625 -20.625000q0.000000 -13.421875 7.250000 -21.296875q7.250000 -7.890625 19.562500 -7.890625q11.031250 0.000000 17.453125 7.109375q6.421875 7.093750 6.421875 19.296875M47.218750 -32.234375q-0.093750 -7.359375 -4.125000 -11.750000q-4.031250 -4.406250 -10.671875 -4.406250q-7.515625 0.000000 -12.031250 4.250000q-4.515625 4.250000 -5.203125 11.968750z"/>
<path id="c_d41d8cd98f00b204e9800998ecf8427e" d=""/>
<path id="c_7efa9804c2b4c09a4b614b91fdebee3d" d="M31.000000 -75.875000q-6.531250 11.218750 -9.718750 22.218750q-3.171875 10.984375 -3.171875 22.265625q0.000000 11.265625 3.203125 22.328125q3.203125 11.062500 9.687500 22.250000l-7.812500 0.000000q-7.312500 -11.484375 -10.953125 -22.562500q-3.640625 -11.078125 -3.640625 -22.015625q0.000000 -10.890625 3.609375 -21.921875q3.625000 -11.046875 10.984375 -22.562500z"/>
<path id="c_9c6d5cbc59c6231647eb409cc6b37bb3" d="M25.390625 -72.906250l8.296875 0.000000l-25.390625 82.187500l-8.296875 0.000000z"/>
<path id="c_0f8c41144cfbf448378cb6fd1cc8e549" d="M18.312500 -70.218750l0.000000 15.531250l18.500000 0.000000l0.000000 6.984375l-18.500000 0.000000l0.000000 29.687500q0.000000 6.687500 1.828125 8.593750q1.828125 1.906250 7.453125 1.906250l9.218750 0.000000l0.000000 7.515625l-9.218750 0.000000q-10.406250 0.000000 -14.359375 -3.875000q-3.953125 -3.890625 -3.953125 -14.140625l0.000000 -29.687500l-6.593750 0.000000l0.000000 -6.984375l6.593750 0.000000l0.000000 -15.531250z"/>
<path id="c_74d54c94aa871ec39e2bc6697dde6c00" d="M54.890625 -33.015625l0.000000 33.015625l-8.984375 0.000000l0.000000 -32.718750q0.000000 -7.765625 -3.031250 -11.609375q-3.031250 -3.859375 -9.078125 -3.859375q-7.281250 0.000000 -11.484375 4.640625q-4.203125 4.625000 -4.203125 12.640625l0.000000 30.906250l-9.031250 0.000000l0.000000 -75.984375l9.031250 0.000000l0.000000 29.796875q3.234375 -4.937500 7.593750 -7.375000q4.375000 -2.437500 10.093750 -2.437500q9.421875 0.000000 14.250000 5.828125q4.843750 5.828125 4.843750 17.156250"/>
<path id="c_8e0810ad13fe20a2a87a2619799b154d" d="M44.281250 -53.078125l0.000000 8.500000q-3.796875 -1.953125 -7.906250 -2.921875q-4.093750 -0.984375 -8.500000 -0.984375q-6.687500 0.000000 -10.031250 2.046875q-3.343750 2.046875 -3.343750 6.156250q0.000000 3.125000 2.390625 4.906250q2.390625 1.781250 9.625000 3.390625l3.078125 0.687500q9.562500 2.046875 13.593750 5.781250q4.031250 3.734375 4.031250 10.421875q0.000000 7.625000 -6.031250 12.078125q-6.031250 4.437500 -16.578125 4.437500q-4.390625 0.000000 -9.156250 -0.859375q-4.765625 -0.859375 -10.031250 -2.562500l0.000000 -9.281250q4.984375 2.593750 9.812500 3.890625q4.828125 1.281250 9.578125 1.281250q6.343750 0.000000 9.750000 -2.171875q3.421875 -2.171875 3.421875 -6.125000q0.000000 -3.656250 -2.468750 -5.609375q-2.453125 -1.953125 -10.812500 -3.765625l-3.125000 -0.734375q-8.343750 -1.750000 -12.062500 -5.390625q-3.703125 -3.640625 -3.703125 -9.984375q0.000000 -7.718750 5.468750 -11.906250q5.468750 -4.203125 15.531250 -4.203125q4.968750 0.000000 9.359375 0.734375q4.406250 0.718750 8.109375 2.187500"/>
<path id="c_e96974be642f6eac0427d72f9cec6c19" d="M8.015625 -75.875000l7.812500 0.000000q7.312500 11.515625 10.953125 22.562500q3.640625 11.031250 3.640625 21.921875q0.000000 10.937500 -3.640625 22.015625q-3.640625 11.078125 -10.953125 22.562500l-7.812500 0.000000q6.484375 -11.187500 9.687500 -22.250000q3.203125 -11.062500 3.203125 -22.328125q0.000000 -11.281250 -3.203125 -22.265625q-3.203125 -11.000000 -9.687500 -22.218750"/>
</defs>
<g style="fill: #000000; opacity: 1.000000" transform="translate(249.754687,416.003125)scale(0.120000)">
<use xlink:href="#c_9e4b30cbdf32072672ded72e9074c4c9"/>
<use xlink:href="#c_6a63bda47b2f3da1cec6aadd80692cfe" x="57.958984"/>
<use xlink:href="#c_4653c6dfde66c7610eae0911760d3490" x="85.742187"/>
<use xlink:href="#c_0bce5afba2dc6b9024b26277c38ad8e8" x="183.154297"/>
<use xlink:href="#c_d41d8cd98f00b204e9800998ecf8427e" x="244.677734"/>
<use xlink:href="#c_7efa9804c2b4c09a4b614b91fdebee3d" x="276.464844"/>
<use xlink:href="#c_42baa63129a918535c52adb20d687ea7" x="315.478516"/>
<use xlink:href="#c_9c6d5cbc59c6231647eb409cc6b37bb3" x="379.101562"/>
<use xlink:href="#c_42baa63129a918535c52adb20d687ea7" x="412.792969"/>
<use xlink:href="#c_7a2040fe3b94fcd41d0a72c84e93b115" x="476.416016"/>
<use xlink:href="#c_0f8c41144cfbf448378cb6fd1cc8e549" x="540.039062"/>
<use xlink:href="#c_74d54c94aa871ec39e2bc6697dde6c00" x="579.248047"/>
<use xlink:href="#c_d41d8cd98f00b204e9800998ecf8427e" x="642.626953"/>
<use xlink:href="#c_8e0810ad13fe20a2a87a2619799b154d" x="674.414062"/>
<use xlink:href="#c_e96974be642f6eac0427d72f9cec6c19" x="726.513672"/>
</g>
</g>
</g>
<g id="matplotlib.axis2">
<g id="ytick1">
<g id="line2d25">
<defs><path id="m3400efa6b1638b3fea9e19e898273957" d="M0.000000 0.000000L4.000000 0.000000"/></defs>
<g ><use style="fill: none; stroke: #000000; stroke-width: 0.500000; stroke-linejoin: round; stroke-linecap: butt;  opacity: 1.000000" xlink:href="#m3400efa6b1638b3fea9e19e898273957" x="72.000000" y="388.800000"/>
</g></g>
<g id="line2d26">
<defs><path id="m20b58b2501143cb5e0a5e8f1ef6f1643" d="M0.000000 0.000000L-4.000000 0.000000"/></defs>
<g ><use style="fill: none; stroke: #000000; stroke-width: 0.500000; stroke-linejoin: round; stroke-linecap: butt;  opacity: 1.000000" xlink:href="#m20b58b2501143cb5e0a5e8f1ef6f1643" x="518.400000" y="388.800000"/>
</g></g>
<g id="text12">
<defs>
<path id="c_6a8d56c819c37117ab4cf023bec22a5a" d="M10.593750 -35.500000l62.593750 0.000000l0.000000 8.296875l-62.593750 0.000000z"/>
</defs>
<g style="fill: #000000; opacity: 1.000000" transform="translate(52.234375,393.175000)scale(0.120000)">
<use xlink:href="#c_6a8d56c819c37117ab4cf023bec22a5a"/>
<use xlink:href="#c_a0416418d96557a09b8c1332d34883ba" x="83.789062"/>
</g>
</g>
</g>
<g id="ytick2">
<g id="line2d27">
<g ><use style="fill: none; stroke: #000000; stroke-width: 0.500000; stroke-linejoin: round; stroke-linecap: butt;  opacity: 1.000000" xlink:href="#m3400efa6b1638b3fea9e19e898273957" x="72.000000" y="345.600000"/>
</g></g>
<g id="line2d28">
<g ><use style="fill: none; stroke: #000000; stroke-width: 0.500000; stroke-linejoin: round; stroke-linecap: butt;  opacity: 1.000000" xlink:href="#m20b58b2501143cb5e0a5e8f1ef6f1643" x="518.400000" y="345.600000"/>
</g></g>
<g id="text13">
<defs>
<path id="c_3dcfa38a02242cb63ec6726c6e70be7a" d="M40.578125 -39.312500q7.078125 1.515625 11.046875 6.312500q3.984375 4.781250 3.984375 11.812500q0.000000 10.781250 -7.421875 16.703125q-7.421875 5.906250 -21.093750 5.906250q-4.578125 0.000000 -9.437500 -0.906250q-4.859375 -0.906250 -10.031250 -2.718750l0.000000 -9.515625q4.093750 2.390625 8.968750 3.609375q4.890625 1.218750 10.218750 1.218750q9.265625 0.000000 14.125000 -3.656250q4.859375 -3.656250 4.859375 -10.640625q0.000000 -6.453125 -4.515625 -10.078125q-4.515625 -3.640625 -12.562500 -3.640625l-8.500000 0.000000l0.000000 -8.109375l8.890625 0.000000q7.265625 0.000000 11.125000 -2.906250q3.859375 -2.906250 3.859375 -8.375000q0.000000 -5.609375 -3.984375 -8.609375q-3.968750 -3.015625 -11.390625 -3.015625q-4.062500 0.000000 -8.703125 0.890625q-4.640625 0.875000 -10.203125 2.718750l0.000000 -8.781250q5.625000 -1.562500 10.531250 -2.343750q4.906250 -0.781250 9.250000 -0.781250q11.234375 0.000000 17.765625 5.109375q6.546875 5.093750 6.546875 13.781250q0.000000 6.062500 -3.468750 10.234375q-3.468750 4.171875 -9.859375 5.781250"/>
</defs>
<g style="fill: #000000; opacity: 1.000000" transform="translate(52.531250,349.967188)scale(0.120000)">
<use xlink:href="#c_6a8d56c819c37117ab4cf023bec22a5a"/>
<use xlink:href="#c_3dcfa38a02242cb63ec6726c6e70be7a" x="83.789062"/>
</g>
</g>
</g>
<g id="ytick3">
<g id="line2d29">
<g ><use style="fill: none; stroke: #000000; stroke-width: 0.500000; stroke-linejoin: round; stroke-linecap: butt;  opacity: 1.000000" xlink:href="#m3400efa6b1638b3fea9e19e898273957" x="72.000000" y="302.400000"/>
</g></g>
<g id="line2d30">
<g ><use style="fill: none; stroke: #000000; stroke-width: 0.500000; stroke-linejoin: round; stroke-linecap: butt;  opacity: 1.000000" xlink:href="#m20b58b2501143cb5e0a5e8f1ef6f1643" x="518.400000" y="302.400000"/>
</g></g>
<g id="text14">
<g style="fill: #000000; opacity: 1.000000" transform="translate(52.765625,306.853125)scale(0.120000)">
<use xlink:href="#c_6a8d56c819c37117ab4cf023bec22a5a"/>
<use xlink:href="#c_ed3f3ed3ebfbd18bcb9c012009a68ad1" x="83.789062"/>
</g>
</g>
</g>
<g id="ytick4">
<g id="line2d31">
<g ><use style="fill: none; stroke: #000000; stroke-width: 0.500000; stroke-linejoin: round; stroke-linecap: butt;  opacity: 1.000000" xlink:href="#m3400efa6b1638b3fea9e19e898273957" x="72.000000" y="259.200000"/>
</g></g>
<g id="line2d32">
<g ><use style="fill: none; stroke: #000000; stroke-width: 0.500000; stroke-linejoin: round; stroke-linecap: butt;  opacity: 1.000000" xlink:href="#m20b58b2501143cb5e0a5e8f1ef6f1643" x="518.400000" y="259.200000"/>
</g></g>
<g id="text15">
<g style="fill: #000000; opacity: 1.000000" transform="translate(52.671875,263.575000)scale(0.120000)">
<use xlink:href="#c_6a8d56c819c37117ab4cf023bec22a5a"/>
<use xlink:href="#c_42baa63129a918535c52adb20d687ea7" x="83.789062"/>
</g>
</g>
</g>
<g id="ytick5">
<g id="line2d33">
<g ><use style="fill: none; stroke: #000000; stroke-width: 0.500000; stroke-linejoin: round; stroke-linecap: butt;  opacity: 1.000000" xlink:href="#m3400efa6b1638b3fea9e19e898273957" x="72.000000" y="216.000000"/>
</g></g>
<g id="line2d34">
<g ><use style="fill: none; stroke: #000000; stroke-width: 0.500000; stroke-linejoin: round; stroke-linecap: butt;  opacity: 1.000000" xlink:href="#m20b58b2501143cb5e0a5e8f1ef6f1643" x="518.400000" y="216.000000"/>
</g></g>
<g id="text16">
<g style="fill: #000000; opacity: 1.000000" transform="translate(61.953125,220.367188)scale(0.120000)">
<use xlink:href="#c_7a2040fe3b94fcd41d0a72c84e93b115"/>
</g>
</g>
</g>
<g id="ytick6">
<g id="line2d35">
<g ><use style="fill: none; stroke: #000000; stroke-width: 0.500000; stroke-linejoin: round; stroke-linecap: butt;  opacity: 1.000000" xlink:href="#m3400efa6b1638b3fea9e19e898273957" x="72.000000" y="172.800000"/>
</g></g>
<g id="line2d36">
<g ><use style="fill: none; stroke: #000000; stroke-width: 0.500000; stroke-linejoin: round; stroke-linecap: butt;  opacity: 1.000000" xlink:href="#m20b58b2501143cb5e0a5e8f1ef6f1643" x="518.400000" y="172.800000"/>
</g></g>
<g id="text17">
<g style="fill: #000000; opacity: 1.000000" transform="translate(62.781250,177.175000)scale(0.120000)">
<use xlink:href="#c_42baa63129a918535c52adb20d687ea7"/>
</g>
</g>
</g>
<g id="ytick7">
<g id="line2d37">
<g ><use style="fill: none; stroke: #000000; stroke-width: 0.500000; stroke-linejoin: round; stroke-linecap: butt;  opacity: 1.000000" xlink:href="#m3400efa6b1638b3fea9e19e898273957" x="72.000000" y="129.600000"/>
</g></g>
<g id="line2d38">
<g ><use style="fill: none; stroke: #000000; stroke-width: 0.500000; stroke-linejoin: round; stroke-linecap: butt;  opacity: 1.000000" xlink:href="#m20b58b2501143cb5e0a5e8f1ef6f1643" x="518.400000" y="129.600000"/>
</g></g>
<g id="text18">
<g style="fill: #000000; opacity: 1.000000" transform="translate(62.437500,134.053125)scale(0.120000)">
<use xlink:href="#c_ed3f3ed3ebfbd18bcb9c012009a68ad1"/>
</g>
</g>
</g>
<g id="ytick8">
<g id="line2d39">
<g ><use style="fill: none; stroke: #000000; stroke-width: 0.500000; stroke-linejoin: round; stroke-linecap: butt;  opacity: 1.000000" xlink:href="#m3400efa6b1638b3fea9e19e898273957" x="72.000000" y="86.400000"/>
</g></g>
<g id="line2d40">
<g ><use style="fill: none; stroke: #000000; stroke-width: 0.500000; stroke-linejoin: round; stroke-linecap: butt;  opacity: 1.000000" xlink:href="#m20b58b2501143cb5e0a5e8f1ef6f1643" x="518.400000" y="86.400000"/>
</g></g>
<g id="text19">
<g style="fill: #000000; opacity: 1.000000" transform="translate(62.250000,90.767187)scale(0.120000)">
<use xlink:href="#c_3dcfa38a02242cb63ec6726c6e70be7a"/>
</g>
</g>
</g>
<g id="ytick9">
<g id="line2d41">
<g ><use style="fill: none; stroke: #000000; stroke-width: 0.500000; stroke-linejoin: round; stroke-linecap: butt;  opacity: 1.000000" xlink:href="#m3400efa6b1638b3fea9e19e898273957" x="72.000000" y="43.200000"/>
</g></g>
<g id="line2d42">
<g ><use style="fill: none; stroke: #000000; stroke-width: 0.500000; stroke-linejoin: round; stroke-linecap: butt;  opacity: 1.000000" xlink:href="#m20b58b2501143cb5e0a5e8f1ef6f1643" x="518.400000" y="43.200000"/>
</g></g>
<g id="text20">
<g style="fill: #000000; opacity: 1.000000" transform="translate(61.625000,47.575000)scale(0.120000)">
<use xlink:href="#c_a0416418d96557a09b8c1332d34883ba"/>
</g>
</g>
</g>
<g id="text21">
<defs>
<path id="c_ff9441f72805bc441fcb0bfe0d774f13" d="M19.671875 -64.796875l0.000000 56.687500l11.921875 0.000000q15.093750 0.000000 22.093750 -6.828125q7.000000 -6.843750 7.000000 -21.593750q0.000000 -14.640625 -7.000000 -21.453125q-7.000000 -6.812500 -22.093750 -6.812500zM9.812500 -72.906250l20.265625 0.000000q21.187500 0.000000 31.093750 8.812500q9.921875 8.812500 9.921875 27.562500q0.000000 18.859375 -9.968750 27.703125q-9.953125 8.828125 -31.046875 8.828125l-20.265625 0.000000z"/>
<path id="c_01d93a582460e35a7945ca50d148ffeb" d="M34.281250 -27.484375q-10.890625 0.000000 -15.093750 2.484375q-4.203125 2.484375 -4.203125 8.500000q0.000000 4.781250 3.156250 7.593750q3.156250 2.796875 8.562500 2.796875q7.484375 0.000000 12.000000 -5.296875q4.515625 -5.296875 4.515625 -14.078125l0.000000 -2.000000zM52.203125 -31.203125l0.000000 31.203125l-8.984375 0.000000l0.000000 -8.296875q-3.078125 4.968750 -7.671875 7.343750q-4.593750 2.375000 -11.234375 2.375000q-8.390625 0.000000 -13.359375 -4.718750q-4.953125 -4.718750 -4.953125 -12.625000q0.000000 -9.218750 6.171875 -13.906250q6.187500 -4.687500 18.437500 -4.687500l12.609375 0.000000l0.000000 -0.890625q0.000000 -6.203125 -4.078125 -9.593750q-4.078125 -3.390625 -11.453125 -3.390625q-4.687500 0.000000 -9.140625 1.125000q-4.437500 1.125000 -8.531250 3.375000l0.000000 -8.312500q4.921875 -1.906250 9.562500 -2.843750q4.640625 -0.953125 9.031250 -0.953125q11.875000 0.000000 17.734375 6.156250q5.859375 6.140625 5.859375 18.640625"/>
</defs>
<g style="fill: #000000; opacity: 1.000000" transform="translate(47.234375,229.023438)rotate(-90.0)scale(0.120000)">
<use xlink:href="#c_ff9441f72805bc441fcb0bfe0d774f13"/>
<use xlink:href="#c_01d93a582460e35a7945ca50d148ffeb" x="77.001953"/>
<use xlink:href="#c_0f8c41144cfbf448378cb6fd1cc8e549" x="138.281250"/>
<use xlink:href="#c_01d93a582460e35a7945ca50d148ffeb" x="177.490234"/>
</g>
</g>
</g>
<g id="patch3">
<path style="fill: none; stroke: #000000; stroke-width: 1.000000; stroke-linejoin: round; stroke-linecap: square;  opacity: 1.000000"  d="M72.000000 43.200000L518.400000 43.200000"/>
</g>
<g id="patch4">
<path style="fill: none; stroke: #000000; stroke-width: 1.000000; stroke-linejoin: round; stroke-linecap: square;  opacity: 1.000000"  d="M518.400000 388.800000L518.400000 43.200000"/>
</g>
<g id="patch5">
<path style="fill: none; stroke: #000000; stroke-width: 1.000000; stroke-linejoin: round; stroke-linecap: square;  opacity: 1.000000"  d="M72.000000 388.800000L518.400000 388.800000"/>
</g>
<g id="patch6">
<path style="fill: none; stroke: #000000; stroke-width: 1.000000; stroke-linejoin: round; stroke-linecap: square;  opacity: 1.000000"  d="M72.000000 388.800000L72.000000 43.200000"/>
</g>
<g id="text22">
<defs>
<path id="c_518d586bee075aa0153eaebfcb5ab11f" d="M19.671875 -64.796875l0.000000 27.390625l12.406250 0.000000q6.890625 0.000000 10.640625 -3.562500q3.765625 -3.562500 3.765625 -10.156250q0.000000 -6.546875 -3.765625 -10.109375q-3.750000 -3.562500 -10.640625 -3.562500zM9.812500 -72.906250l22.265625 0.000000q12.265625 0.000000 18.531250 5.546875q6.281250 5.546875 6.281250 16.234375q0.000000 10.796875 -6.281250 16.312500q-6.265625 5.515625 -18.531250 5.515625l-12.406250 0.000000l0.000000 29.296875l-9.859375 0.000000z"/>
<path id="c_d650c37394b681142a10dfc54356d478" d="M48.781250 -52.593750l0.000000 8.406250q-3.812500 -2.109375 -7.640625 -3.156250q-3.828125 -1.046875 -7.734375 -1.046875q-8.750000 0.000000 -13.593750 5.546875q-4.828125 5.531250 -4.828125 15.546875q0.000000 10.015625 4.828125 15.562500q4.843750 5.531250 13.593750 5.531250q3.906250 0.000000 7.734375 -1.046875q3.828125 -1.046875 7.640625 -3.156250l0.000000 8.312500q-3.765625 1.750000 -7.796875 2.625000q-4.015625 0.890625 -8.562500 0.890625q-12.359375 0.000000 -19.640625 -7.765625q-7.265625 -7.765625 -7.265625 -20.953125q0.000000 -13.375000 7.343750 -21.031250q7.359375 -7.671875 20.156250 -7.671875q4.140625 0.000000 8.093750 0.859375q3.953125 0.843750 7.671875 2.546875"/>
<path id="c_dcb78ab3124be785176d70a27dde1356" d="M9.078125 -75.984375l9.031250 0.000000l0.000000 44.875000l26.812500 -23.578125l11.468750 0.000000l-29.000000 25.578125l30.234375 29.109375l-11.718750 0.000000l-27.796875 -26.703125l0.000000 26.703125l-9.031250 0.000000z"/>
<path id="c_425fd1cbcd899bef0a79975ae4756bf8" d="M19.671875 -34.812500l0.000000 26.703125l15.828125 0.000000q7.953125 0.000000 11.781250 -3.296875q3.843750 -3.296875 3.843750 -10.078125q0.000000 -6.843750 -3.843750 -10.078125q-3.828125 -3.250000 -11.781250 -3.250000zM19.671875 -64.796875l0.000000 21.968750l14.609375 0.000000q7.218750 0.000000 10.750000 -2.703125q3.546875 -2.718750 3.546875 -8.281250q0.000000 -5.515625 -3.546875 -8.250000q-3.531250 -2.734375 -10.750000 -2.734375zM9.812500 -72.906250l25.203125 0.000000q11.281250 0.000000 17.375000 4.687500q6.109375 4.687500 6.109375 13.328125q0.000000 6.703125 -3.125000 10.656250q-3.125000 3.953125 -9.187500 4.921875q7.281250 1.562500 11.312500 6.531250q4.031250 4.953125 4.031250 12.375000q0.000000 9.765625 -6.640625 15.093750q-6.640625 5.312500 -18.906250 5.312500l-26.171875 0.000000z"/>
<path id="c_f05dd90d41f04bb96ef1ca503cc2044b" d="M30.609375 -48.390625q-7.218750 0.000000 -11.421875 5.640625q-4.203125 5.640625 -4.203125 15.453125q0.000000 9.812500 4.171875 15.453125q4.187500 5.640625 11.453125 5.640625q7.187500 0.000000 11.375000 -5.656250q4.203125 -5.671875 4.203125 -15.437500q0.000000 -9.718750 -4.203125 -15.406250q-4.187500 -5.687500 -11.375000 -5.687500M30.609375 -56.000000q11.718750 0.000000 18.406250 7.625000q6.703125 7.609375 6.703125 21.078125q0.000000 13.421875 -6.703125 21.078125q-6.687500 7.640625 -18.406250 7.640625q-11.765625 0.000000 -18.437500 -7.640625q-6.656250 -7.656250 -6.656250 -21.078125q0.000000 -13.468750 6.656250 -21.078125q6.671875 -7.625000 18.437500 -7.625000"/>
<path id="c_c48ceabac27bf136feba2f4bf2716ab6" d="M2.984375 -54.687500l9.515625 0.000000l17.093750 45.890625l17.093750 -45.890625l9.515625 0.000000l-20.515625 54.687500l-12.203125 0.000000z"/>
<path id="c_ed3e21196fb739f392806f09ca0594ef" d="M10.687500 -12.406250l10.312500 0.000000l0.000000 12.406250l-10.312500 0.000000z"/>
</defs>
<g style="fill: #000000; opacity: 1.000000" transform="translate(215.004687,37.996875)scale(0.144000)">
<use xlink:href="#c_518d586bee075aa0153eaebfcb5ab11f"/>
<use xlink:href="#c_01d93a582460e35a7945ca50d148ffeb" x="55.802734"/>
<use xlink:href="#c_d650c37394b681142a10dfc54356d478" x="117.082031"/>
<use xlink:href="#c_dcb78ab3124be785176d70a27dde1356" x="172.062500"/>
<use xlink:href="#c_425fd1cbcd899bef0a79975ae4756bf8" x="229.972656"/>
<use xlink:href="#c_f05dd90d41f04bb96ef1ca503cc2044b" x="298.576172"/>
<use xlink:href="#c_0f8c41144cfbf448378cb6fd1cc8e549" x="359.757812"/>
<use xlink:href="#c_d41d8cd98f00b204e9800998ecf8427e" x="398.966797"/>
<use xlink:href="#c_ff9441f72805bc441fcb0bfe0d774f13" x="430.753906"/>
<use xlink:href="#c_01d93a582460e35a7945ca50d148ffeb" x="507.755859"/>
<use xlink:href="#c_0f8c41144cfbf448378cb6fd1cc8e549" x="569.035156"/>
<use xlink:href="#c_01d93a582460e35a7945ca50d148ffeb" x="608.244141"/>
<use xlink:href="#c_d41d8cd98f00b204e9800998ecf8427e" x="669.523438"/>
<use xlink:href="#c_c48ceabac27bf136feba2f4bf2716ab6" x="701.310547"/>
<use xlink:href="#c_8e0810ad13fe20a2a87a2619799b154d" x="760.490234"/>
<use xlink:href="#c_ed3e21196fb739f392806f09ca0594ef" x="812.589844"/>
<use xlink:href="#c_d41d8cd98f00b204e9800998ecf8427e" x="844.376953"/>
<use xlink:href="#c_9e4b30cbdf32072672ded72e9074c4c9" x="876.164062"/>
<use xlink:href="#c_6a63bda47b2f3da1cec6aadd80692cfe" x="934.123047"/>
<use xlink:href="#c_4653c6dfde66c7610eae0911760d3490" x="961.906250"/>
<use xlink:href="#c_0bce5afba2dc6b9024b26277c38ad8e8" x="1059.318359"/>
</g>
</g>
</g>
<g id="legend1">
<g id="patch7">
<path style="fill: #ffffff; stroke: #000000; stroke-width: 1.000000; stroke-linejoin: round; stroke-linecap: square;  opacity: 1.000000"  d="M424.350625 91.804375L568.800000 91.804375L568.800000 7.200000
L424.350625 7.200000L424.350625 91.804375z"/>
</g>
<g id="line2d43">
<path style="fill: none; stroke: #0000ff; stroke-width: 1.000000; stroke-linejoin: round; stroke-linecap: square;  opacity: 1.000000"  d="M434.430625 18.560625L454.590625 18.560625"/>
</g>
<g id="line2d44">
</g>
<g id="text23">
<defs>
<path id="c_dbe439baa035de1a298d0549b22269d8" d="M9.812500 -72.906250l46.093750 0.000000l0.000000 8.312500l-36.234375 0.000000l0.000000 21.578125l34.718750 0.000000l0.000000 8.296875l-34.718750 0.000000l0.000000 26.421875l37.109375 0.000000l0.000000 8.296875l-46.968750 0.000000z"/>
<path id="c_fe791a90f5471e2ab20a5ed41a7fa451" d="M54.890625 -33.015625l0.000000 33.015625l-8.984375 0.000000l0.000000 -32.718750q0.000000 -7.765625 -3.031250 -11.609375q-3.031250 -3.859375 -9.078125 -3.859375q-7.281250 0.000000 -11.484375 4.640625q-4.203125 4.625000 -4.203125 12.640625l0.000000 30.906250l-9.031250 0.000000l0.000000 -54.687500l9.031250 0.000000l0.000000 8.500000q3.234375 -4.937500 7.593750 -7.375000q4.375000 -2.437500 10.093750 -2.437500q9.421875 0.000000 14.250000 5.828125q4.843750 5.828125 4.843750 17.156250"/>
<path id="c_3b515ad41f960e225ec85275856806ca" d="M8.500000 -21.578125l0.000000 -33.109375l8.984375 0.000000l0.000000 32.765625q0.000000 7.765625 3.015625 11.656250q3.031250 3.875000 9.093750 3.875000q7.265625 0.000000 11.484375 -4.640625q4.234375 -4.640625 4.234375 -12.656250l0.000000 -31.000000l8.984375 0.000000l0.000000 54.687500l-8.984375 0.000000l0.000000 -8.406250q-3.265625 4.984375 -7.593750 7.406250q-4.312500 2.421875 -10.031250 2.421875q-9.421875 0.000000 -14.312500 -5.859375q-4.875000 -5.859375 -4.875000 -17.140625M31.109375 -56.000000z"/>
</defs>
<g style="fill: #000000; opacity: 1.000000" transform="translate(470.430625,23.600625)scale(0.144000)">
<use xlink:href="#c_dbe439baa035de1a298d0549b22269d8"/>
<use xlink:href="#c_fe791a90f5471e2ab20a5ed41a7fa451" x="63.183594"/>
<use xlink:href="#c_d650c37394b681142a10dfc54356d478" x="126.562500"/>
<use xlink:href="#c_d41d8cd98f00b204e9800998ecf8427e" x="181.542969"/>
<use xlink:href="#c_3b515ad41f960e225ec85275856806ca" x="213.330078"/>
</g>
</g>
<g id="line2d45">
<path style="fill: none; stroke: #008000; stroke-width: 1.000000; stroke-linejoin: round; stroke-linecap: square;  opacity: 1.000000"  d="M434.430625 39.307500L454.590625 39.307500"/>
</g>
<g id="line2d46">
</g>
<g id="text24">
<defs>
<path id="c_ae70b0af174184799fa4976b9c5da571" d="M28.609375 -0.000000l-27.828125 -72.906250l10.296875 0.000000l23.109375 61.375000l23.140625 -61.375000l10.250000 0.000000l-27.781250 72.906250z"/>
<path id="c_5099edb83619131346ae654950954dea" d="M9.421875 -75.984375l8.984375 0.000000l0.000000 75.984375l-8.984375 0.000000z"/>
<path id="c_3fe22c4af425ac970aec982ae9662abe" d="M32.171875 5.078125q-3.796875 9.765625 -7.421875 12.734375q-3.609375 2.984375 -9.656250 2.984375l-7.187500 0.000000l0.000000 -7.515625l5.281250 0.000000q3.703125 0.000000 5.750000 -1.765625q2.062500 -1.750000 4.546875 -8.296875l1.609375 -4.093750l-22.109375 -53.812500l9.515625 0.000000l17.093750 42.765625l17.093750 -42.765625l9.515625 0.000000z"/>
</defs>
<g style="fill: #000000; opacity: 1.000000" transform="translate(470.430625,44.347500)scale(0.144000)">
<use xlink:href="#c_ae70b0af174184799fa4976b9c5da571"/>
<use xlink:href="#c_0bce5afba2dc6b9024b26277c38ad8e8" x="60.658203"/>
<use xlink:href="#c_5099edb83619131346ae654950954dea" x="122.181641"/>
<use xlink:href="#c_f05dd90d41f04bb96ef1ca503cc2044b" x="149.964844"/>
<use xlink:href="#c_d650c37394b681142a10dfc54356d478" x="211.146484"/>
<use xlink:href="#c_6a63bda47b2f3da1cec6aadd80692cfe" x="266.126953"/>
<use xlink:href="#c_0f8c41144cfbf448378cb6fd1cc8e549" x="293.910156"/>
<use xlink:href="#c_3fe22c4af425ac970aec982ae9662abe" x="333.119141"/>
</g>
</g>
<g id="line2d47">
<path style="fill: none; stroke: #ff0000; stroke-width: 1.000000; stroke-linejoin: round; stroke-linecap: square;  opacity: 1.000000"  d="M434.430625 60.054375L454.590625 60.054375"/>
</g>
<g id="line2d48">
</g>
<g id="text25">
<defs>
<path id="c_6023715d605f81e6eb43b7f9d77e7c51" d="M34.187500 -63.187500l-13.390625 36.281250l26.812500 0.000000zM28.609375 -72.906250l11.187500 0.000000l27.781250 72.906250l-10.250000 0.000000l-6.640625 -18.703125l-32.859375 0.000000l-6.640625 18.703125l-10.406250 0.000000z"/>
<path id="c_e3864de5dabf2f8dd9eee74726882ec1" d="M45.406250 -27.984375q0.000000 -9.765625 -4.031250 -15.125000q-4.015625 -5.375000 -11.296875 -5.375000q-7.218750 0.000000 -11.250000 5.375000q-4.031250 5.359375 -4.031250 15.125000q0.000000 9.718750 4.031250 15.093750q4.031250 5.375000 11.250000 5.375000q7.281250 0.000000 11.296875 -5.375000q4.031250 -5.375000 4.031250 -15.093750M54.390625 -6.781250q0.000000 13.953125 -6.203125 20.765625q-6.187500 6.812500 -18.984375 6.812500q-4.734375 0.000000 -8.937500 -0.703125q-4.203125 -0.703125 -8.156250 -2.171875l0.000000 -8.734375q3.953125 2.140625 7.812500 3.156250q3.859375 1.031250 7.859375 1.031250q8.843750 0.000000 13.234375 -4.609375q4.390625 -4.609375 4.390625 -13.937500l0.000000 -4.453125q-2.781250 4.843750 -7.125000 7.234375q-4.343750 2.390625 -10.406250 2.390625q-10.046875 0.000000 -16.203125 -7.656250q-6.156250 -7.671875 -6.156250 -20.328125q0.000000 -12.687500 6.156250 -20.343750q6.156250 -7.671875 16.203125 -7.671875q6.062500 0.000000 10.406250 2.390625q4.343750 2.390625 7.125000 7.218750l0.000000 -8.296875l8.984375 0.000000z"/>
<path id="c_6ec8d5749226675394676a5d2a3b468b" d="M41.109375 -46.296875q-1.515625 -0.875000 -3.296875 -1.281250q-1.781250 -0.421875 -3.921875 -0.421875q-7.625000 0.000000 -11.703125 4.953125q-4.078125 4.953125 -4.078125 14.234375l0.000000 28.812500l-9.031250 0.000000l0.000000 -54.687500l9.031250 0.000000l0.000000 8.500000q2.843750 -4.984375 7.375000 -7.390625q4.546875 -2.421875 11.046875 -2.421875q0.921875 0.000000 2.046875 0.125000q1.125000 0.109375 2.484375 0.359375z"/>
<path id="c_4c6532c564269b2c70b230c2e45c01e4" d="M44.390625 -34.187500q3.171875 1.078125 6.171875 4.593750q3.000000 3.515625 6.031250 9.671875l10.015625 19.921875l-10.609375 0.000000l-9.312500 -18.703125q-3.625000 -7.328125 -7.015625 -9.718750q-3.390625 -2.390625 -9.250000 -2.390625l-10.750000 0.000000l0.000000 30.812500l-9.859375 0.000000l0.000000 -72.906250l22.265625 0.000000q12.500000 0.000000 18.656250 5.234375q6.156250 5.218750 6.156250 15.765625q0.000000 6.890625 -3.203125 11.437500q-3.203125 4.531250 -9.296875 6.281250M19.671875 -64.796875l0.000000 25.875000l12.406250 0.000000q7.125000 0.000000 10.765625 -3.296875q3.640625 -3.296875 3.640625 -9.687500q0.000000 -6.390625 -3.640625 -9.640625q-3.640625 -3.250000 -10.765625 -3.250000z"/>
</defs>
<g style="fill: #000000; opacity: 1.000000" transform="translate(470.430625,65.094375)scale(0.144000)">
<use xlink:href="#c_6023715d605f81e6eb43b7f9d77e7c51"/>
<use xlink:href="#c_fe791a90f5471e2ab20a5ed41a7fa451" x="68.408203"/>
<use xlink:href="#c_e3864de5dabf2f8dd9eee74726882ec1" x="131.787109"/>
<use xlink:href="#c_3b515ad41f960e225ec85275856806ca" x="195.263672"/>
<use xlink:href="#c_5099edb83619131346ae654950954dea" x="258.642578"/>
<use xlink:href="#c_01d93a582460e35a7945ca50d148ffeb" x="286.425781"/>
<use xlink:href="#c_6ec8d5749226675394676a5d2a3b468b" x="347.705078"/>
<use xlink:href="#c_d41d8cd98f00b204e9800998ecf8427e" x="388.818359"/>
<use xlink:href="#c_4c6532c564269b2c70b230c2e45c01e4" x="420.605469"/>
<use xlink:href="#c_01d93a582460e35a7945ca50d148ffeb" x="487.837891"/>
<use xlink:href="#c_0f8c41144cfbf448378cb6fd1cc8e549" x="549.117188"/>
<use xlink:href="#c_0bce5afba2dc6b9024b26277c38ad8e8" x="588.326172"/>
</g>
</g>
<g id="line2d49">
<path style="fill: none; stroke: #00bfbf; stroke-width: 1.000000; stroke-linejoin: round; stroke-linecap: square;  opacity: 1.000000"  d="M434.430625 80.801250L454.590625 80.801250"/>
</g>
<g id="line2d50">
</g>
<g id="text26">
<defs>
<path id="c_867d5c614e055a6de802b159158cbff4" d="M-0.203125 -72.906250l10.609375 0.000000l20.203125 29.984375l20.078125 -29.984375l10.593750 0.000000l-25.781250 38.187500l0.000000 34.718750l-9.906250 0.000000l0.000000 -34.718750z"/>
<path id="c_57adaa7083d7229075db8bc2c5b2febe" d="M4.203125 -54.687500l8.984375 0.000000l11.234375 42.671875l11.171875 -42.671875l10.593750 0.000000l11.234375 42.671875l11.187500 -42.671875l8.984375 0.000000l-14.312500 54.687500l-10.593750 0.000000l-11.765625 -44.828125l-11.812500 44.828125l-10.609375 0.000000z"/>
</defs>
<g style="fill: #000000; opacity: 1.000000" transform="translate(470.430625,85.841250)scale(0.144000)">
<use xlink:href="#c_867d5c614e055a6de802b159158cbff4"/>
<use xlink:href="#c_01d93a582460e35a7945ca50d148ffeb" x="47.333984"/>
<use xlink:href="#c_57adaa7083d7229075db8bc2c5b2febe" x="108.613281"/>
</g>
</g>
</g>
</g>
</svg>
