<?xml version="1.0" standalone="no"?>
<!DOCTYPE svg PUBLIC "-//W3C//DTD SVG 1.1//EN"
  "http://www.w3.org/Graphics/SVG/1.1/DTD/svg11.dtd">
<!-- Created with matplotlib (http://matplotlib.sourceforge.net/) -->
<svg width="1728pt" height="1005pt" viewBox="0 0 1728 1005"
   xmlns="http://www.w3.org/2000/svg"
   xmlns:xlink="http://www.w3.org/1999/xlink"
   version="1.1"
   id="svg1">
<g id="figure1">
<g id="patch1">
<path style="fill: #ffffff; stroke: #ffffff; stroke-width: 1.000000; stroke-linejoin: round; stroke-linecap: square;  opacity: 1.000000"  d="M0.000000 1005.300000L1728.000000 1005.300000L1728.000000 0.000000
L0.000000 0.000000L0.000000 1005.300000"/>
</g>
<g id="axes1">
<g id="patch2">
<path style="fill: #ffffff; opacity: 1.000000"  d="M216.000000 904.770000L1555.200000 904.770000L1555.200000 100.530000
L216.000000 100.530000L216.000000 904.770000"/>
</g>
<g id="line2d1">
<defs>
  <clipPath id="p1093b519e0ea38bc825f2418caa11e40">
<rect x="216.000000" y="100.530000" width="1339.200000" height="804.240000"/>
  </clipPath>
</defs><path style="fill: none; stroke: #0000ff; stroke-width: 1.000000; stroke-linejoin: round; stroke-linecap: square;  opacity: 1.000000" clip-path="url(#p1093b519e0ea38bc825f2418caa11e40)" d="M216.000000 502.650000L227.478857 502.650000L342.267429 502.650000
L344.180571 499.476670L346.093714 500.495240L348.006857 499.098677
L349.920000 499.365685L351.833143 500.659908L353.746286 501.519440
L357.572571 450.059540L359.485714 432.576368L361.398857 441.316848
L363.312000 439.647246L365.225143 414.163494L367.138286 400.603002
L369.051429 382.947924L370.964571 383.264995L372.877714 382.576767
L374.790857 390.980271L376.704000 397.557546L378.617143 378.092124
L380.530286 374.245645L382.443429 352.611991L384.356571 352.754744
L386.269714 359.063202L388.182857 366.795769L390.096000 368.775405
L393.922286 358.312846L395.835429 368.025653L397.748571 353.525004
L399.661714 359.719060L401.574857 362.162944L403.488000 355.182342
L405.401143 354.360610L407.314286 365.875919L409.227429 360.236387
L411.140571 376.651931L413.053714 361.814507L414.966857 353.982014
L416.880000 366.928669L418.793143 357.322022L420.706286 364.920683
L422.619429 361.787163L424.532571 360.912753L426.445714 351.992927
L428.358857 373.128354L430.272000 352.766606L432.185143 359.821198
L434.098286 365.089976L436.011429 361.448176L437.924571 359.447026
L439.837714 369.401908L441.750857 356.788610L443.664000 357.112116
L445.577143 359.523629L447.490286 360.670074L449.403429 365.218855
L451.316571 362.112478L453.229714 362.675647L455.142857 356.940008
L457.056000 362.166965L458.969143 363.127630L460.882286 366.293722
L462.795429 354.633448L466.621714 367.749798L468.534857 364.681422
L470.448000 363.041375L472.361143 370.940822L474.274286 356.001661
L478.100571 362.584567L480.013714 359.539312L481.926857 358.676564
L483.840000 358.245089L485.753143 362.654737L487.666286 370.372425
L489.579429 370.372425L491.492571 357.307345L493.405714 350.138551
L495.318857 351.952313L497.232000 340.614741L499.145143 337.369833
L501.058286 342.624738L502.971429 359.963750L504.884571 347.698688
L506.797714 348.629394L508.710857 347.835610L510.624000 347.417807
L512.537143 335.510229L514.450286 335.682337L516.363429 348.873883
L518.276571 348.873883L520.189714 337.945066L522.102857 343.348151
L524.016000 342.620314L525.929143 342.620314L527.842286 349.788103
L529.755429 343.992147L531.668571 343.703625L533.581714 332.512626
L535.494857 311.278478L537.408000 322.214333L539.321143 322.214333
L541.234286 319.309820L543.147429 323.385105L545.060571 338.776248
L546.973714 342.607647L548.886857 342.607647L552.713143 316.241443
L554.626286 325.922281L556.539429 325.922281L558.452571 336.613848
L560.365714 329.730559L562.278857 315.576136L564.192000 322.551309
L566.105143 316.876592L568.018286 322.164269L571.844571 310.002551
L573.757714 300.125278L575.670857 314.056323L577.584000 319.438096
L579.497143 319.505049L581.410286 325.336392L583.323429 302.475870
L585.236571 305.738471L587.149714 294.365512L589.062857 295.079677
L590.976000 291.291908L592.889143 288.944331L594.802286 274.817655
L596.715429 294.072367L598.628571 283.592717L600.541714 296.218079
L602.454857 294.785526L604.368000 283.978149L606.281143 299.417949
L608.194286 282.513226L610.107429 282.834721L612.020571 286.426055
L613.933714 286.071787L615.846857 277.018658L617.760000 291.619234
L619.673143 284.263453L621.586286 278.334596L623.499429 297.293348
L625.412571 285.608344L627.325714 280.164242L629.238857 269.854287
L631.152000 296.101866L633.065143 266.523326L634.978286 279.529496
L636.891429 270.693110L638.804571 257.072099L640.717714 269.844436
L642.630857 278.556566L644.544000 281.020155L646.457143 269.269605
L648.370286 273.239535L652.196571 285.390998L654.109714 280.171480
L656.022857 273.425314L657.936000 264.913841L659.849143 272.395887
L661.762286 274.592266L663.675429 262.579535L665.588571 267.407387
L667.501714 268.347343L669.414857 275.754795L671.328000 275.931125
L673.241143 257.648538L675.154286 265.680483L677.067429 267.738734
L678.980571 275.999284L680.893714 278.531032L682.806857 276.556824
L684.720000 249.448909L686.633143 264.426874L688.546286 250.759016
L690.459429 256.184821L692.372571 269.456189L694.285714 270.917895
L696.198857 260.553051L698.112000 264.819343L700.025143 265.754674
L701.938286 260.372499L703.851429 266.160413L705.764571 267.650268
L707.677714 257.759121L709.590857 278.780748L711.504000 257.715089
L713.417143 258.260565L715.330286 250.607015L721.069714 271.850612
L722.982857 256.080270L724.896000 245.353920L726.809143 248.285174
L728.722286 250.141762L730.635429 249.134652L732.548571 266.413347
L734.461714 258.694653L736.374857 253.054920L738.288000 249.608551
L740.201143 267.380043L742.114286 356.126520L744.027429 461.321715
L745.940571 505.346818L747.853714 528.948246L749.766857 533.773083
L751.680000 518.649148L753.593143 509.671015L757.419429 505.998654
L759.332571 505.733657L761.245714 526.839126L765.072000 712.396194
L766.985143 747.926914L768.898286 829.539782L770.811429 812.472201
L772.724571 829.841372L774.637714 809.228299L776.550857 820.072470
L778.464000 836.571654L780.377143 844.142770L782.290286 839.665968
L784.203429 843.718332L786.116571 861.378638L788.029714 857.555683
L789.942857 849.359674L791.856000 832.891653L793.769143 851.471206
L795.682286 866.072384L797.595429 862.244805L799.508571 863.994027
L801.421714 864.578910L803.334857 834.202967L805.248000 855.310647
L807.161143 826.567713L809.074286 854.010996L810.987429 824.230592
L812.900571 810.570374L814.813714 777.852886L818.640000 728.160706
L820.553143 717.115474L822.466286 727.539631L824.379429 719.793594
L826.292571 721.794744L828.205714 721.797559L830.118857 724.368513
L832.032000 722.707757L833.945143 722.110810L835.858286 713.941139
L837.771429 723.492092L839.684571 718.918178L841.597714 716.675555
L843.510857 696.694413L845.424000 718.823278L847.337143 709.860224
L849.250286 721.389809L851.163429 715.358813L853.076571 713.765413
L854.989714 735.688995L856.902857 725.703551L858.816000 712.112096
L860.729143 709.688117L862.642286 709.560645L864.555429 728.474359
L868.381714 708.083859L870.294857 710.371721L872.208000 712.100837
L874.121143 719.979373L876.034286 718.969650L877.947429 730.356482
L879.860571 717.263857L881.773714 721.917994L883.686857 721.351608
L885.600000 713.806027L887.513143 709.161340L889.426286 715.179267
L891.339429 716.322293L893.252571 714.454445L895.165714 708.821347
L898.992000 724.691616L900.905143 714.329989L902.818286 716.536824
L904.731429 712.544979L906.644571 725.522999L908.557714 705.446354
L910.470857 709.243171L914.297143 713.558723L916.210286 715.890416
L918.123429 721.654404L920.036571 709.786636L921.949714 724.552885
L923.862857 714.439366L925.776000 738.663276L927.689143 704.501573
L929.602286 701.144273L931.515429 724.074965L933.428571 715.060842
L935.341714 728.194082L937.254857 709.262875L939.168000 502.764805
L942.994286 502.650000L965.952000 502.650000L967.865143 561.379023
L971.691429 740.823866L973.604571 743.185115L975.517714 738.128456
L977.430857 721.824099L979.344000 700.299419L981.257143 725.953469
L983.170286 725.437750L985.083429 703.574486L986.996571 717.989884
L988.909714 711.816538L990.822857 709.128969L992.736000 645.125338
L994.649143 503.349086L996.562286 502.650000L1011.867429 502.542634
L1013.780571 501.785844L1017.606857 502.650000L1019.520000 483.563977
L1027.172571 221.918769L1030.998857 245.449223L1032.912000 228.239090
L1034.825143 250.875430L1036.738286 247.166677L1038.651429 265.098213
L1040.564571 236.314665L1042.477714 238.518282L1044.390857 256.239711
L1046.304000 256.900997L1048.217143 264.952043L1050.130286 244.979747
L1052.043429 254.077310L1053.956571 246.631053L1055.869714 250.986013
L1057.782857 264.177358L1059.696000 253.782757L1061.609143 249.005170
L1063.522286 257.516040L1065.435429 255.891274L1067.348571 267.465293
L1069.261714 261.958661L1071.174857 245.976201L1073.088000 249.580804
L1075.001143 244.833376L1076.914286 247.435494L1078.827429 251.455287
L1080.740571 260.537368L1084.566857 236.778912L1086.480000 248.724490
L1088.393143 245.525826L1090.306286 264.729469L1092.219429 267.454636
L1094.132571 253.668153L1096.045714 257.601490L1097.958857 248.393545
L1099.872000 236.496825L1101.785143 255.939930L1105.611429 248.957720
L1107.524571 240.163958L1109.437714 252.226553L1111.350857 241.789931
L1113.264000 254.585791L1115.177143 251.314746L1117.090286 246.549624
L1119.003429 256.762467L1120.916571 251.622167L1122.829714 252.388607
L1124.742857 245.217400L1126.656000 262.201743L1128.569143 239.088488
L1130.482286 252.020668L1132.395429 252.787309L1134.308571 251.139623
L1138.134857 243.293859L1140.048000 232.491509L1141.961143 259.840494
L1143.874286 241.040781L1147.700571 255.947570L1149.613714 250.471299
L1151.526857 261.780723L1153.440000 248.336042L1155.353143 244.607183
L1157.266286 250.884880L1159.179429 244.295942L1161.092571 268.836321
L1164.918857 242.714807L1168.745143 252.768611L1170.658286 257.048374
L1172.571429 245.332206L1174.484571 256.032820L1176.397714 248.997529
L1178.310857 251.921143L1180.224000 289.826583L1182.137143 378.049097
L1184.050286 514.507514L1185.963429 570.370828L1187.876571 571.763772
L1189.789714 598.812374L1191.702857 583.399516L1193.616000 578.573674
L1195.529143 567.525628L1197.442286 573.851579L1199.355429 571.221111
L1201.268571 592.522815L1203.181714 642.692512L1205.094857 679.565710
L1207.008000 669.815707L1210.834286 646.532356L1212.747429 641.958442
L1214.660571 645.824223L1216.573714 689.300432L1218.486857 707.674099
L1220.400000 701.942683L1222.313143 701.392582L1224.226286 700.208138
L1226.139429 690.239382L1228.052571 694.719803L1229.965714 700.293387
L1231.878857 697.117444L1233.792000 661.637190L1235.705143 685.812644
L1237.618286 693.984125L1239.531429 705.712558L1241.444571 703.798064
L1243.357714 724.142521L1245.270857 718.448301L1249.097143 718.365263
L1251.010286 716.922055L1252.923429 709.069857L1254.836571 706.116688
L1258.662857 710.369107L1260.576000 722.272462L1262.489143 718.485899
L1264.402286 717.450843L1266.315429 731.294226L1268.228571 732.073132
L1270.141714 722.218779L1272.054857 714.986249L1273.968000 715.239384
L1275.881143 716.710942L1277.794286 706.632005L1279.707429 700.715211
L1281.620571 735.135879L1283.533714 749.468843L1285.446857 734.776786
L1287.360000 708.419227L1289.273143 714.638616L1291.186286 724.223951
L1293.099429 724.223951L1295.012571 734.866057L1296.925714 771.962632
L1298.838857 771.962632L1300.752000 745.381495L1302.665143 764.414035
L1304.578286 758.356902L1306.491429 767.009720L1308.404571 756.511372
L1310.317714 753.037055L1312.230857 764.179398L1314.144000 765.024855
L1316.057143 767.439586L1317.970286 767.439586L1319.883429 780.224388
L1321.796571 763.677955L1323.709714 767.208769L1325.622857 762.101041
L1327.536000 770.336861L1329.449143 760.143119L1331.362286 775.752412
L1333.275429 787.463353L1335.188571 808.788781L1337.101714 794.001824
L1339.014857 794.001824L1340.928000 783.411591L1342.841143 783.468089
L1344.754286 791.512902L1346.667429 791.962874L1348.580571 821.839988
L1350.493714 783.861564L1352.406857 791.712756L1354.320000 770.055980
L1356.233143 777.826547L1360.059429 785.931879L1363.885714 801.770983
L1365.798857 795.100416L1367.712000 791.113396L1369.625143 777.971109
L1371.538286 774.439088L1373.451429 777.979754L1375.364571 784.402013
L1377.277714 807.114153L1379.190857 819.384241L1381.104000 782.583425
L1383.017143 784.763519L1384.930286 779.872131L1386.843429 792.307692
L1388.756571 781.565257L1390.669714 796.941321L1394.496000 787.463353
L1396.409143 805.033986L1398.322286 799.022292L1400.235429 780.725631
L1402.148571 799.428031L1404.061714 784.113090L1405.974857 788.165052
L1407.888000 787.067063L1409.801143 792.502519L1411.714286 795.100416
L1413.627429 803.205747L1415.540571 795.677458L1417.453714 808.927915
L1419.366857 795.990106L1421.280000 799.539820L1423.193143 796.018858
L1425.106286 805.027954L1427.019429 783.041038L1428.932571 800.644243
L1430.845714 800.932965L1432.758857 809.043122L1436.585143 803.116678
L1438.498286 796.417761L1440.411429 803.254806L1442.324571 803.796261
L1444.237714 795.783215L1446.150857 812.505778L1448.064000 796.330903
L1449.977143 798.613738L1451.890286 784.452881L1453.803429 788.023104
L1455.716571 789.211569L1457.629714 776.878348L1459.542857 812.136430
L1461.456000 805.730860L1463.369143 786.552350L1465.282286 795.970603
L1467.195429 790.094022L1469.108571 803.144625L1472.934857 796.928252
L1474.848000 803.589772L1476.761143 793.376929L1478.674286 799.204653
L1482.500571 781.326800L1484.413714 800.673799L1486.326857 790.829700
L1488.240000 800.363764L1490.153143 796.452142L1492.066286 799.506042
L1493.979429 787.619174L1495.892571 792.472561L1497.805714 807.761365
L1499.718857 802.802823L1501.632000 802.702695L1505.458286 771.542014
L1507.371429 776.105071L1509.284571 768.723957L1511.197714 749.884635
L1513.110857 745.535104L1515.024000 774.379976L1516.937143 770.588990
L1518.850286 763.457191L1520.763429 754.005561L1522.676571 733.513727
L1524.589714 651.225298L1526.502857 530.804633L1528.416000 496.875959
L1530.329143 481.443800L1532.242286 485.351602L1534.155429 494.599357
L1536.068571 499.572174L1537.981714 502.650000L1549.460571 502.650000
L1549.460571 502.650000"/>
</g>
<g id="line2d2">
<path style="fill: none; stroke: #008000; stroke-width: 1.000000; stroke-linejoin: round; stroke-linecap: square;  opacity: 1.000000" clip-path="url(#p1093b519e0ea38bc825f2418caa11e40)" d="M216.000000 499.948357L217.913143 500.394308L219.826286 498.515000
L221.739429 498.630811L225.565714 492.649678L227.478857 497.816115
L229.392000 497.803047L231.305143 496.500178L233.218286 492.228658
L235.131429 499.002973L237.044571 499.393029L238.957714 501.131595
L240.870857 497.631743L242.784000 497.896942L244.697143 494.818512
L246.610286 502.027920L248.523429 497.882867L250.436571 499.032528
L252.349714 498.858411L254.262857 499.440680L256.176000 496.349785
L258.089143 500.564003L260.002286 498.791256L261.915429 493.153534
L263.828571 495.031434L265.741714 495.086324L267.654857 492.536481
L269.568000 496.743661L271.481143 498.909480L273.394286 496.243022
L275.307429 487.703200L279.133714 499.021470L281.046857 494.016283
L282.960000 497.612844L284.873143 496.616793L286.786286 492.153060
L288.699429 483.344219L290.612571 497.246513L292.525714 498.082922
L294.438857 499.802387L296.352000 496.991971L298.265143 497.898148
L300.178286 484.304682L302.091429 496.069708L304.004571 497.371773
L305.917714 493.419335L307.830857 491.342386L309.744000 490.117930
L311.657143 496.407690L313.570286 501.139838L315.483429 492.792430
L317.396571 496.483490L319.309714 502.226970L321.222857 495.151869
L325.049143 497.956656L326.962286 498.676451L328.875429 489.345659
L330.788571 488.632298L332.701714 498.615329L334.614857 499.269578
L336.528000 498.089155L338.441143 501.340898L342.267429 491.546462
L344.180571 492.733721L346.093714 495.491259L348.006857 494.700892
L349.920000 488.834363L351.833143 494.466456L353.746286 501.459524
L355.659429 472.884072L357.572571 427.953998L359.485714 436.893327
L361.398857 443.049382L365.225143 409.624967L367.138286 365.693156
L369.051429 373.763704L370.964571 366.170472L372.877714 412.820614
L374.790857 393.484674L376.704000 408.193017L378.617143 351.368636
L380.530286 325.884080L382.443429 327.456972L384.356571 348.631204
L386.269714 362.671626L388.182857 380.177317L390.096000 369.461221
L392.009143 354.975652L393.922286 374.358439L395.835429 354.161962
L397.748571 348.711025L399.661714 378.589144L401.574857 350.233451
L403.488000 350.969733L405.401143 381.126320L407.314286 372.906987
L409.227429 357.952346L411.140571 361.537044L413.053714 375.069187
L414.966857 355.115992L416.880000 349.660832L418.793143 337.271113
L420.706286 358.912608L422.619429 371.161585L424.532571 353.229245
L426.445714 339.309057L428.358857 360.210651L430.272000 344.737878
L432.185143 350.130911L434.098286 380.007823L436.011429 364.880270
L439.837714 363.487527L441.750857 366.269796L443.664000 355.073568
L445.577143 353.335807L447.490286 350.954854L449.403429 343.918157
L451.316571 363.520300L453.229714 355.408534L455.142857 378.875453
L457.056000 371.979095L458.969143 357.134031L460.882286 378.023160
L462.795429 366.399881L464.708571 339.085880L466.621714 363.851446
L468.534857 352.644362L470.448000 351.746830L472.361143 354.038311
L474.274286 352.576001L476.187429 348.479203L478.100571 360.642729
L480.013714 367.348080L481.926857 381.088320L483.840000 363.262541
L485.753143 362.775574L487.666286 376.734969L489.579429 358.305005
L491.492571 358.869179L493.405714 340.318981L495.318857 349.982930
L497.232000 338.965848L499.145143 319.301778L501.058286 342.404979
L502.971429 341.789333L504.884571 345.969572L506.797714 354.887387
L508.710857 319.789549L510.624000 338.014030L512.537143 342.156268
L514.450286 331.197693L516.363429 350.266023L518.276571 355.779490
L520.189714 327.272801L522.102857 326.000292L524.016000 333.485153
L525.929143 331.409008L527.842286 374.542409L529.755429 339.070600
L531.668571 324.999416L533.581714 325.140359L537.408000 296.902889
L539.321143 311.928304L541.234286 335.287656L543.147429 334.315531
L545.060571 334.306081L546.973714 313.214284L548.886857 328.284133
L550.800000 315.899842L552.713143 316.202237L554.626286 342.410207
L556.539429 334.716042L558.452571 333.509883L560.365714 324.988156
L562.278857 343.437623L566.105143 308.213117L568.018286 297.068563
L569.931429 348.446229L571.844571 296.096840L573.757714 297.510895
L575.670857 324.714514L577.584000 329.441635L579.497143 299.565125
L581.410286 298.894992L583.323429 307.472412L585.236571 299.740248
L587.149714 315.394579L589.062857 291.252902L590.976000 280.718364
L592.889143 282.619386L594.802286 274.125405L596.715429 277.138289
L598.628571 292.226234L600.541714 260.491728L602.454857 269.380188
L604.368000 280.907360L606.281143 274.868523L608.194286 275.496835
L610.107429 298.424310L612.020571 269.011243L613.933714 272.543465
L615.846857 274.197586L617.760000 285.479866L619.673143 282.231943
L621.586286 296.471817L623.499429 293.230126L625.412571 286.112803
L627.325714 274.895063L629.238857 283.316059L631.152000 257.654972
L633.065143 268.270940L634.978286 249.112134L636.891429 245.576494
L638.804571 288.235997L640.717714 282.145085L642.630857 260.378330
L644.544000 268.601081L646.457143 274.077754L648.370286 277.632093
L650.283429 282.845176L652.196571 295.510348L654.109714 264.570431
L656.022857 259.247367L657.936000 284.406005L659.849143 253.026772
L661.762286 256.330389L663.675429 278.663128L665.588571 281.453640
L667.501714 281.211363L669.414857 277.504017L671.328000 237.883134
L673.241143 233.870579L675.154286 279.573126L677.067429 273.562839
L678.980571 273.620543L680.893714 275.259987L682.806857 267.077448
L684.720000 280.431853L686.633143 235.537166L688.546286 269.714149
L690.459429 245.215993L692.372571 274.301333L694.285714 268.644912
L696.198857 249.150536L698.112000 285.677508L700.025143 267.660120
L701.938286 263.164016L703.851429 255.035763L705.764571 238.159993
L707.677714 271.218480L709.590857 248.172982L711.504000 264.016510
L713.417143 251.480821L715.330286 272.565381L717.243429 271.471614
L719.156571 277.381773L721.069714 253.107799L722.982857 247.670936
L724.896000 231.549945L726.809143 242.140981L728.722286 247.895520
L730.635429 275.227013L732.548571 250.758212L734.461714 258.292332
L736.374857 248.498700L738.288000 249.389999L740.201143 258.082828
L744.027429 387.991514L745.940571 459.826432L747.853714 390.266709
L749.766857 436.344232L751.680000 436.344232L753.593143 489.842679
L755.506286 493.789688L757.419429 498.865247L759.332571 494.623082
L761.245714 487.783624L763.158857 378.320528L765.072000 244.239243
L766.985143 191.288685L768.898286 186.059114L770.811429 144.999244
L774.637714 208.314848L776.550857 210.520677L778.464000 175.873616
L782.290286 125.067161L784.203429 155.611794L786.116571 219.280660
L788.029714 172.595936L789.942857 157.243798L791.856000 130.964251
L793.769143 130.309399L795.682286 160.150724L797.595429 166.806212
L799.508571 158.489164L801.421714 162.239536L803.334857 158.506254
L805.248000 181.024773L807.161143 146.685937L809.074286 180.368915
L810.987429 133.686604L812.900571 214.858145L814.813714 235.825687
L816.726857 288.644953L818.640000 297.586493L820.553143 308.611618
L822.466286 307.635472L824.379429 298.769329L826.292571 274.472837
L828.205714 280.170877L830.118857 278.185812L832.032000 264.432302
L833.945143 277.532568L835.858286 271.351380L837.771429 281.542508
L839.684571 299.845402L841.597714 299.686967L843.510857 307.225913
L845.424000 294.102526L847.337143 274.041161L849.250286 287.735559
L851.163429 273.662163L853.076571 292.568639L854.989714 297.159442
L856.902857 293.123564L858.816000 313.024483L860.729143 278.534249
L862.642286 288.333109L864.555429 294.061710L866.468571 301.330834
L868.381714 291.694832L872.208000 288.523111L874.121143 293.646723
L876.034286 272.424437L877.947429 299.269969L879.860571 282.900468
L881.773714 293.163575L883.686857 306.364773L887.513143 293.056008
L889.426286 290.845153L891.339429 295.929156L893.252571 292.769900
L895.165714 286.547093L897.078857 294.265585L898.992000 298.263864
L900.905143 283.706919L902.818286 283.261974L904.731429 276.905663
L906.644571 296.741438L908.557714 303.399339L910.470857 305.472066
L912.384000 286.810280L914.297143 286.810280L916.210286 287.225469
L918.123429 298.250796L920.036571 289.121063L921.949714 308.113191
L923.862857 318.409875L925.776000 310.144098L929.602286 260.612565
L931.515429 266.923034L933.428571 286.448976L935.341714 286.448976
L937.254857 302.059073L939.168000 400.683225L941.081143 433.063335
L942.994286 438.749312L944.907429 492.843299L948.733714 492.262034
L950.646857 486.983204L952.560000 487.855201L954.473143 498.605879
L956.386286 498.898421L958.299429 494.370349L960.212571 496.973674
L962.125714 498.923554L964.038857 489.884298L965.952000 496.876964
L967.865143 477.304980L969.778286 333.158632L973.604571 246.957575
L975.517714 240.930801L977.430857 284.754844L979.344000 279.651137
L981.257143 299.850429L983.170286 291.457179L985.083429 305.638142
L986.996571 286.167090L990.822857 316.885640L992.736000 324.272785
L994.649143 397.241480L996.562286 426.217443L998.475429 440.577550
L1000.388571 491.317052L1002.301714 485.644144L1004.214857 497.082850
L1006.128000 490.311752L1008.041143 494.985794L1009.954286 491.213707
L1011.867429 493.129005L1013.780571 493.092010L1015.693714 497.493414
L1017.606857 498.730737L1019.520000 494.632330L1021.433143 436.063552
L1023.346286 301.130980L1025.259429 228.799444L1027.172571 215.858820
L1029.085714 200.056107L1030.998857 200.056107L1032.912000 236.059922
L1034.825143 236.059922L1036.738286 265.718081L1038.651429 230.388019
L1040.564571 228.573050L1042.477714 248.989487L1044.390857 238.615394
L1046.304000 262.932395L1048.217143 238.595489L1050.130286 225.526388
L1052.043429 225.950223L1053.956571 238.391816L1055.869714 254.542965
L1057.782857 236.533217L1059.696000 224.989759L1061.609143 237.628391
L1063.522286 235.900682L1065.435429 215.877117L1067.348571 231.633787
L1069.261714 233.419803L1071.174857 242.836448L1073.088000 273.346700
L1075.001143 247.525971L1076.914286 237.479204L1078.827429 242.490223
L1080.740571 242.217585L1082.653714 224.045179L1084.566857 268.922776
L1086.480000 264.104173L1088.393143 276.800106L1090.306286 258.797596
L1092.219429 268.447270L1094.132571 264.766665L1096.045714 253.293377
L1097.958857 236.478931L1099.872000 230.658244L1101.785143 231.252778
L1103.698286 226.778791L1105.611429 246.802960L1107.524571 258.503847
L1109.437714 250.331764L1111.350857 270.600823L1113.264000 254.298476
L1115.177143 254.891201L1117.090286 269.193202L1119.003429 225.855322
L1120.916571 225.724834L1122.829714 214.135736L1124.742857 238.112744
L1126.656000 307.546402L1128.569143 259.010317L1130.482286 239.460047
L1132.395429 263.574983L1134.308571 237.310515L1136.221714 229.373872
L1138.134857 238.646156L1140.048000 243.266314L1141.961143 241.574193
L1143.874286 239.185198L1145.787429 277.068119L1147.700571 268.823051
L1149.613714 252.215495L1151.526857 259.713022L1153.440000 281.148230
L1155.353143 240.740196L1157.266286 241.243449L1159.179429 273.595210
L1161.092571 239.663721L1163.005714 232.051992L1164.918857 252.866728
L1166.832000 259.990284L1168.745143 233.967490L1170.658286 233.967490
L1172.571429 300.402942L1174.484571 300.402942L1176.397714 247.142148
L1178.310857 263.799969L1180.224000 291.693425L1184.050286 441.985775
L1185.963429 414.826188L1187.876571 409.657940L1189.789714 388.483307
L1191.702857 408.461835L1193.616000 437.686710L1195.529143 436.703526
L1197.442286 434.351124L1199.355429 453.533053L1201.268571 402.476680
L1203.181714 321.651968L1205.094857 315.444441L1207.008000 317.763669
L1208.921143 317.763669L1210.834286 360.745270L1214.660571 350.636174
L1216.573714 331.749603L1218.486857 331.749603L1220.400000 285.198382
L1222.313143 294.774066L1224.226286 311.159049L1226.139429 300.241893
L1228.052571 304.000709L1229.965714 312.800502L1231.878857 337.866452
L1233.792000 340.055191L1237.618286 311.666323L1239.531429 309.233497
L1241.444571 274.402064L1243.357714 273.569273L1245.270857 258.155008
L1249.097143 301.914712L1251.010286 305.832567L1254.836571 295.213181
L1256.749714 304.606905L1258.662857 269.934108L1260.576000 266.431844
L1262.489143 331.740555L1264.402286 311.740514L1266.315429 281.533059
L1268.228571 268.476624L1270.141714 299.161798L1272.054857 287.531684
L1273.968000 293.270137L1275.881143 289.049285L1277.794286 283.921450
L1279.707429 266.664068L1281.620571 265.744420L1283.533714 259.858791
L1285.446857 275.016302L1287.360000 296.287646L1289.273143 287.185257
L1291.186286 266.212689L1293.099429 272.084043L1295.012571 282.226515
L1296.925714 302.942531L1298.838857 253.386669L1300.752000 235.527716
L1302.665143 229.661388L1304.578286 240.170392L1306.491429 255.218929
L1308.404571 244.068745L1310.317714 250.052290L1314.144000 235.532340
L1316.057143 217.944215L1317.970286 208.685200L1319.883429 230.886246
L1321.796571 226.933607L1323.709714 224.459564L1327.536000 257.125782
L1329.449143 238.249063L1333.275429 209.823401L1335.188571 178.497851
L1337.101714 217.160282L1339.014857 226.252014L1340.928000 228.481568
L1342.841143 205.134682L1344.754286 222.711749L1346.667429 190.045933
L1348.580571 191.201626L1350.493714 233.751351L1352.406857 252.859289
L1354.320000 211.716180L1356.233143 240.198943L1358.146286 249.458359
L1360.059429 249.458359L1361.972571 210.508010L1363.885714 190.237141
L1365.798857 191.701260L1367.712000 242.999910L1369.625143 230.956818
L1371.538286 225.523774L1373.451429 206.045886L1375.364571 216.806416
L1377.277714 182.678492L1379.190857 230.946966L1381.104000 232.136839
L1383.017143 225.005241L1384.930286 205.991198L1386.843429 242.947433
L1388.756571 238.498980L1390.669714 199.799957L1392.582857 204.841335
L1394.496000 180.583647L1396.409143 208.093481L1398.322286 211.858128
L1400.235429 206.281327L1402.148571 206.091728L1404.061714 221.489707
L1405.974857 226.717066L1407.888000 215.626395L1409.801143 223.429131
L1411.714286 214.492215L1413.627429 216.550065L1415.540571 202.943329
L1417.453714 180.788729L1419.366857 184.393533L1421.280000 216.470445
L1423.193143 209.826618L1425.106286 227.307177L1427.019429 205.365097
L1428.932571 191.746097L1430.845714 192.252366L1432.758857 186.120237
L1434.672000 229.382317L1436.585143 230.061095L1438.498286 213.293496
L1440.411429 204.722509L1442.324571 184.269882L1444.237714 188.449718
L1446.150857 217.779144L1448.064000 236.789568L1449.977143 221.050793
L1451.890286 198.360568L1453.803429 197.259966L1455.716571 189.067575
L1457.629714 201.005513L1459.542857 205.265170L1461.456000 201.014963
L1463.369143 222.679379L1465.282286 217.431310L1467.195429 188.512248
L1469.108571 188.842790L1471.021714 205.126036L1472.934857 203.124082
L1474.848000 203.648647L1476.761143 216.355237L1478.674286 209.915688
L1480.587429 201.229091L1482.500571 217.645640L1484.413714 202.996811
L1486.326857 204.242780L1488.240000 198.966563L1490.153143 216.267977
L1492.066286 216.985762L1493.979429 206.476959L1495.892571 181.920696
L1497.805714 216.176696L1499.718857 195.987256L1501.632000 198.471554
L1503.545143 234.132762L1505.458286 201.446437L1507.371429 204.102038
L1511.197714 267.434530L1513.110857 267.434530L1515.024000 271.156352
L1516.937143 230.191986L1518.850286 261.524573L1520.763429 266.993606
L1524.589714 266.993606L1526.502857 351.692946L1528.416000 351.692946
L1530.329143 425.787376L1532.242286 425.787376L1534.155429 496.398441
L1536.068571 492.947045L1537.981714 494.837412L1541.808000 493.891223
L1543.721143 496.621417L1545.634286 495.258833L1547.547429 498.271919
L1549.460571 500.383451L1549.460571 500.383451"/>
</g>
<g id="line2d3">
<path style="fill: none; stroke: #ff0000; stroke-width: 1.000000; stroke-linejoin: round; stroke-linecap: square;  opacity: 1.000000" clip-path="url(#p1093b519e0ea38bc825f2418caa11e40)" d="M216.000000 502.650000L256.176000 502.403500L260.002286 502.204250
L296.352000 501.919549L307.830857 501.633441L323.136000 501.331851
L334.614857 501.152103L351.833143 500.876450L355.659429 500.793613
L357.572571 500.665337L359.485714 499.627867L361.398857 499.411326
L363.312000 500.124485L365.225143 499.359050L367.138286 500.268042
L369.051429 500.540277L370.964571 497.013685L372.877714 496.786085
L374.790857 495.691716L376.704000 495.718255L378.617143 498.062414
L380.530286 495.516190L384.356571 493.991351L386.269714 492.637413
L388.182857 492.171557L390.096000 492.731509L392.009143 491.642166
L397.748571 491.893692L399.661714 492.760261L401.574857 491.865343
L403.488000 491.540832L405.401143 491.761797L407.314286 493.464172
L409.227429 492.868029L411.140571 493.577570L413.053714 493.438838
L414.966857 492.771319L416.880000 494.096505L418.793143 493.832514
L422.619429 496.652179L426.445714 496.652179L428.358857 496.241011
L430.272000 494.856110L432.185143 495.192886L436.011429 494.590309
L439.837714 496.443680L441.750857 495.741578L443.664000 495.572487
L445.577143 496.065687L447.490286 494.353058L453.229714 493.342329
L457.056000 494.580457L462.795429 497.397308L464.708571 495.985263
L466.621714 495.657736L470.448000 496.112936L472.361143 495.355543
L474.274286 495.575302L476.187429 495.124525L478.100571 495.124525
L481.926857 496.292885L483.840000 499.442088L485.753143 500.539674
L489.579429 501.280580L493.405714 498.198331L495.318857 496.560094
L497.232000 496.560094L499.145143 494.472689L501.058286 506.205143
L502.971429 514.845696L504.884571 532.231757L506.797714 528.426093
L508.710857 527.847040L512.537143 552.513684L514.450286 541.343997
L516.363429 536.149813L518.276571 543.468799L520.189714 544.778102
L522.102857 530.360290L524.016000 532.103480L525.929143 536.352280
L527.842286 543.075526L529.755429 545.139407L531.668571 554.518655
L533.581714 544.975342L535.494857 557.205218L537.408000 547.012482
L539.321143 540.343321L541.234286 536.538462L545.060571 539.733707
L546.973714 546.057044L548.886857 539.743760L550.800000 548.841323
L552.713143 556.164532L554.626286 520.862819L556.539429 553.190251
L558.452571 545.988081L560.365714 545.126137L562.278857 534.308304
L564.192000 535.581818L566.105143 537.399200L568.018286 535.286260
L569.931429 536.408577L571.844571 534.604667L573.757714 524.913977
L575.670857 522.225202L577.584000 545.425113L579.497143 539.561198
L583.323429 557.020042L585.236571 533.897338L587.149714 535.002766
L589.062857 536.960889L590.976000 537.929596L592.889143 537.896622
L594.802286 547.712170L596.715429 544.150795L598.628571 539.091321
L600.541714 538.565951L602.454857 553.081076L604.368000 549.152765
L608.194286 534.712033L610.107429 530.570800L612.020571 524.641541
L613.933714 536.925704L615.846857 542.075252L617.760000 542.483404
L619.673143 538.485527L621.586286 531.109641L623.499429 535.081782
L625.412571 535.069719L627.325714 532.357620L629.238857 545.126941
L631.152000 528.616698L633.065143 533.196242L634.978286 545.414457
L636.891429 529.416314L638.804571 531.569666L640.717714 524.883014
L642.630857 527.443312L644.544000 527.101912L646.457143 525.706757
L648.370286 524.941924L650.283429 519.405938L652.196571 526.138633
L654.109714 529.131814L656.022857 525.536258L657.936000 527.288295
L659.849143 536.130310L661.762286 532.327662L663.675429 524.008604
L665.588571 519.539844L669.414857 527.539217L671.328000 521.237394
L673.241143 525.337811L675.154286 524.277019L677.067429 519.297366
L678.980571 536.181983L680.893714 531.893373L682.806857 535.033729
L684.720000 527.607377L686.633143 527.240442L688.546286 528.357733
L690.459429 532.146105L692.372571 533.847073L694.285714 525.951849
L696.198857 514.938385L698.112000 515.748657L700.025143 497.616061
L701.938286 518.023450L703.851429 515.992141L705.764571 518.118953
L707.677714 516.548071L709.590857 527.135087L711.504000 531.087323
L713.417143 523.689924L715.330286 525.425474L717.243429 522.778720
L719.156571 524.498587L721.069714 525.479358L722.982857 528.034227
L724.896000 527.711928L726.809143 523.477001L728.722286 520.196305
L730.635429 520.293015L732.548571 529.957768L734.461714 521.355416
L736.374857 521.084789L738.288000 522.097730L740.201143 524.731213
L742.114286 538.335737L744.027429 541.992415L745.940571 533.562774
L749.766857 533.783940L751.680000 532.601908L761.245714 532.744460
L765.072000 534.636032L768.898286 529.639088L770.811429 529.867693
L772.724571 529.491912L774.637714 528.339034L776.550857 526.771771
L778.464000 526.047352L780.377143 524.843606L782.290286 524.843606
L784.203429 524.022879L786.116571 524.376141L788.029714 522.297382
L789.942857 521.808203L791.856000 522.292959L793.769143 523.185464
L795.682286 523.601256L799.508571 522.477130L801.421714 521.714911
L803.334857 521.555471L805.248000 517.498080L807.161143 516.572400
L809.074286 517.612081L810.987429 517.947248L812.900571 519.207492
L814.813714 521.916776L816.726857 522.693470L818.640000 522.288737
L820.553143 523.432165L822.466286 524.066509L824.379429 522.991441
L826.292571 524.080382L828.205714 524.282649L830.118857 524.043990
L832.032000 524.303961L833.945143 523.636442L837.771429 523.949492
L839.684571 525.641010L841.597714 525.640809L843.510857 524.813849
L845.424000 524.639932L847.337143 526.755687L849.250286 526.866471
L851.163429 526.222878L853.076571 526.040516L854.989714 525.393706
L856.902857 527.241045L858.816000 526.970017L860.729143 528.058354
L868.381714 526.331249L870.294857 524.035948L872.208000 523.638452
L874.121143 525.068592L876.034286 524.467825L881.773714 521.031709
L883.686857 521.031709L887.513143 522.201477L889.426286 520.608277
L891.339429 521.340337L893.252571 519.320689L895.165714 518.064868
L897.078857 517.847924L898.992000 518.647741L906.644571 517.059769
L908.557714 518.929024L910.470857 517.529847L912.384000 518.297897
L914.297143 519.689634L916.210286 525.156857L918.123429 532.911541
L920.036571 534.245775L921.949714 542.186639L923.862857 542.830836
L925.776000 542.569659L927.689143 536.460853L929.602286 539.826195
L931.515429 541.045624L933.428571 541.045624L935.341714 536.401741
L937.254857 510.906931L939.168000 517.523615L941.081143 503.108216
L944.907429 503.900794L950.646857 504.308142L958.299429 504.307941
L960.212571 508.134314L962.125714 508.880246L965.952000 508.772478
L967.865143 507.179882L969.778286 507.587229L971.691429 506.225249
L973.604571 501.725526L977.430857 507.529525L979.344000 508.157436
L981.257143 506.081692L983.170286 492.022169L985.083429 496.084185
L986.996571 496.031909L988.909714 501.141849L990.822857 496.015422
L992.736000 492.472745L994.649143 493.209228L996.562286 479.619180
L998.475429 481.288983L1000.388571 481.136178L1004.214857 481.399164
L1009.954286 481.399164L1011.867429 502.686794L1013.780571 503.308874
L1019.520000 503.474145L1023.346286 507.288655L1025.259429 510.292090
L1029.085714 510.466409L1030.998857 511.749573L1034.825143 511.749775
L1036.738286 511.257781L1038.651429 510.338937L1040.564571 508.946998
L1042.477714 509.967981L1044.390857 509.704391L1046.304000 511.025556
L1048.217143 511.291358L1050.130286 508.625302L1052.043429 509.608888
L1055.869714 508.931517L1059.696000 511.274670L1061.609143 511.534037
L1063.522286 512.392965L1065.435429 511.721023L1067.348571 508.488581
L1069.261714 507.620203L1071.174857 506.249778L1073.088000 507.078749
L1075.001143 507.360635L1076.914286 508.116419L1078.827429 507.126601
L1080.740571 506.885932L1086.480000 510.165422L1088.393143 512.274139
L1090.306286 511.505688L1092.219429 511.833013L1094.132571 510.834750
L1096.045714 512.916526L1097.958857 515.735186L1099.872000 516.713142
L1101.785143 512.535316L1103.698286 512.224879L1107.524571 515.377500
L1109.437714 514.627948L1111.350857 514.274284L1113.264000 514.365364
L1115.177143 516.092671L1117.090286 515.094207L1120.916571 515.960976
L1122.829714 514.446994L1124.742857 514.853940L1126.656000 516.267593
L1128.569143 513.830343L1132.395429 510.747088L1134.308571 511.577265
L1136.221714 511.935956L1138.134857 510.031717L1140.048000 511.568619
L1145.787429 513.672712L1147.700571 513.147343L1149.613714 512.264086
L1153.440000 512.793879L1155.353143 511.824368L1157.266286 511.824569
L1159.179429 513.835973L1163.005714 521.572561L1164.918857 523.013357
L1166.832000 521.166822L1168.745143 521.166822L1170.658286 523.497710
L1172.571429 523.497710L1174.484571 521.302738L1176.397714 555.982371
L1178.310857 558.744936L1180.224000 558.514923L1182.137143 551.945288
L1184.050286 566.576826L1185.963429 554.475226L1189.789714 540.286220
L1191.702857 542.099178L1193.616000 540.937052L1195.529143 542.416652
L1197.442286 542.416652L1199.355429 542.865619L1205.094857 541.779292
L1207.008000 542.271085L1208.921143 542.271085L1210.834286 543.411296
L1212.747429 543.730780L1214.660571 542.424292L1216.573714 542.424292
L1218.486857 536.859957L1220.400000 535.119984L1224.226286 535.291086
L1226.139429 537.362205L1228.052571 537.117113L1231.878857 535.485913
L1233.792000 534.807737L1235.705143 534.489862L1237.618286 536.218777
L1239.531429 535.406896L1241.444571 535.891049L1243.357714 537.565074
L1245.270857 537.565074L1247.184000 536.080045L1251.010286 535.518082
L1252.923429 535.006184L1254.836571 533.378402L1256.749714 535.405489
L1258.662857 535.274197L1260.576000 534.483629L1262.489143 536.044458
L1264.402286 534.840711L1266.315429 537.437602L1268.228571 539.047892
L1270.141714 541.357066L1273.968000 543.903893L1275.881143 545.661358
L1277.794286 545.964959L1279.707429 549.729606L1281.620571 548.107253
L1283.533714 547.799430L1291.186286 542.883714L1293.099429 544.667921
L1295.012571 543.481265L1296.925714 539.750999L1298.838857 540.022028
L1300.752000 539.354508L1302.665143 540.146685L1304.578286 543.764156
L1306.491429 542.488028L1308.404571 542.781576L1310.317714 544.178340
L1312.230857 543.789289L1316.057143 545.995922L1317.970286 547.903378
L1319.883429 549.253496L1321.796571 549.996614L1323.709714 551.559252
L1327.536000 551.204985L1329.449143 551.647920L1331.362286 550.885701
L1333.275429 548.653734L1335.188571 548.489468L1337.101714 547.217563
L1339.014857 546.948142L1340.928000 548.203963L1342.841143 548.622168
L1344.754286 550.135346L1346.667429 549.954995L1348.580571 550.280913
L1350.493714 545.667591L1354.320000 544.613434L1356.233143 543.052404
L1358.146286 543.675288L1360.059429 543.675288L1361.972571 533.953031
L1363.885714 533.531409L1365.798857 533.507885L1367.712000 534.813970
L1369.625143 524.539804L1371.538286 525.860970L1373.451429 526.402223
L1377.277714 539.622119L1379.190857 553.313099L1381.104000 549.270788
L1383.017143 536.949026L1386.843429 539.853539L1388.756571 534.703588
L1392.582857 534.471766L1394.496000 533.463852L1396.409143 538.848239
L1398.322286 537.949903L1402.148571 540.479238L1404.061714 538.592290
L1405.974857 539.844089L1407.888000 537.113091L1409.801143 531.671805
L1411.714286 538.645772L1413.627429 539.655696L1417.453714 535.603935
L1419.366857 534.463121L1421.280000 531.199515L1423.193143 531.151260
L1425.106286 534.790446L1427.019429 528.541099L1428.932571 527.669303
L1430.845714 527.165447L1432.758857 530.741098L1434.672000 532.245429
L1436.585143 537.548386L1438.498286 536.492218L1440.411429 531.199314
L1442.324571 524.748907L1444.237714 523.245782L1446.150857 524.685975
L1448.064000 528.549343L1449.977143 538.472659L1451.890286 540.167394
L1453.803429 545.805518L1455.716571 545.479198L1457.629714 547.838235
L1459.542857 540.367449L1461.456000 535.616803L1463.369143 541.650412
L1465.282286 544.963278L1467.195429 546.989159L1469.108571 550.860569
L1471.021714 540.273755L1472.934857 536.713786L1474.848000 533.923476
L1476.761143 541.010036L1480.587429 552.213301L1482.500571 549.998022
L1484.413714 542.801280L1486.326857 544.615846L1488.240000 543.402047
L1490.153143 546.165617L1492.066286 550.934358L1493.979429 539.551949
L1495.892571 535.366483L1497.805714 535.056851L1499.718857 541.984172
L1503.545143 530.621266L1505.458286 520.215607L1507.371429 527.208273
L1509.284571 539.015320L1511.197714 539.015320L1513.110857 514.049700
L1515.024000 541.044820L1516.937143 544.370955L1518.850286 540.898247
L1520.763429 543.268141L1522.676571 543.268141L1524.589714 563.615614
L1526.502857 563.615614L1528.416000 597.433102L1530.329143 597.433102
L1532.242286 598.531292L1534.155429 600.024966L1536.068571 599.617217
L1543.721143 599.707493L1545.634286 599.707493L1547.547429 496.787291
L1549.460571 494.270623L1549.460571 494.270623"/>
</g>
<g id="matplotlib.axis1">
<g id="xtick1">
<g id="line2d4">
<defs><path id="m30e32995789d870ad79a2e54c91cf9c6" d="M0.000000 0.000000L0.000000 -4.000000"/></defs>
<g ><use style="fill: none; stroke: #000000; stroke-width: 0.500000; stroke-linejoin: round; stroke-linecap: butt;  opacity: 1.000000" xlink:href="#m30e32995789d870ad79a2e54c91cf9c6" x="216.000000" y="904.770000"/>
</g></g>
<g id="line2d5">
<defs><path id="m9281cae24120827b11d5ea8a7ad3e96b" d="M0.000000 0.000000L0.000000 4.000000"/></defs>
<g ><use style="fill: none; stroke: #000000; stroke-width: 0.500000; stroke-linejoin: round; stroke-linecap: butt;  opacity: 1.000000" xlink:href="#m9281cae24120827b11d5ea8a7ad3e96b" x="216.000000" y="100.530000"/>
</g></g>
<g id="text1">
<defs>
<path id="c_7a2040fe3b94fcd41d0a72c84e93b115" d="M31.781250 -66.406250q-7.609375 0.000000 -11.453125 7.500000q-3.828125 7.484375 -3.828125 22.531250q0.000000 14.984375 3.828125 22.484375q3.843750 7.500000 11.453125 7.500000q7.671875 0.000000 11.500000 -7.500000q3.843750 -7.500000 3.843750 -22.484375q0.000000 -15.046875 -3.843750 -22.531250q-3.828125 -7.500000 -11.500000 -7.500000M31.781250 -74.218750q12.265625 0.000000 18.734375 9.703125q6.468750 9.687500 6.468750 28.140625q0.000000 18.406250 -6.468750 28.109375q-6.468750 9.687500 -18.734375 9.687500q-12.250000 0.000000 -18.718750 -9.687500q-6.468750 -9.703125 -6.468750 -28.109375q0.000000 -18.453125 6.468750 -28.140625q6.468750 -9.703125 18.718750 -9.703125"/>
</defs>
<g style="fill: #000000; opacity: 1.000000" transform="translate(212.976562,917.676250)scale(0.120000)">
<use xlink:href="#c_7a2040fe3b94fcd41d0a72c84e93b115"/>
</g>
</g>
</g>
<g id="xtick2">
<g id="line2d6">
<g ><use style="fill: none; stroke: #000000; stroke-width: 0.500000; stroke-linejoin: round; stroke-linecap: butt;  opacity: 1.000000" xlink:href="#m30e32995789d870ad79a2e54c91cf9c6" x="407.314286" y="904.770000"/>
</g></g>
<g id="line2d7">
<g ><use style="fill: none; stroke: #000000; stroke-width: 0.500000; stroke-linejoin: round; stroke-linecap: butt;  opacity: 1.000000" xlink:href="#m9281cae24120827b11d5ea8a7ad3e96b" x="407.314286" y="100.530000"/>
</g></g>
<g id="text2">
<defs>
<path id="c_42baa63129a918535c52adb20d687ea7" d="M12.406250 -8.296875l16.109375 0.000000l0.000000 -55.625000l-17.531250 3.515625l0.000000 -8.984375l17.437500 -3.515625l9.859375 0.000000l0.000000 64.609375l16.109375 0.000000l0.000000 8.296875l-41.984375 0.000000z"/>
</defs>
<g style="fill: #000000; opacity: 1.000000" transform="translate(396.908036,917.676250)scale(0.120000)">
<use xlink:href="#c_42baa63129a918535c52adb20d687ea7"/>
<use xlink:href="#c_7a2040fe3b94fcd41d0a72c84e93b115" x="63.623047"/>
<use xlink:href="#c_7a2040fe3b94fcd41d0a72c84e93b115" x="127.246094"/>
</g>
</g>
</g>
<g id="xtick3">
<g id="line2d8">
<g ><use style="fill: none; stroke: #000000; stroke-width: 0.500000; stroke-linejoin: round; stroke-linecap: butt;  opacity: 1.000000" xlink:href="#m30e32995789d870ad79a2e54c91cf9c6" x="598.628571" y="904.770000"/>
</g></g>
<g id="line2d9">
<g ><use style="fill: none; stroke: #000000; stroke-width: 0.500000; stroke-linejoin: round; stroke-linecap: butt;  opacity: 1.000000" xlink:href="#m9281cae24120827b11d5ea8a7ad3e96b" x="598.628571" y="100.530000"/>
</g></g>
<g id="text3">
<defs>
<path id="c_ed3f3ed3ebfbd18bcb9c012009a68ad1" d="M19.187500 -8.296875l34.421875 0.000000l0.000000 8.296875l-46.281250 0.000000l0.000000 -8.296875q5.609375 -5.812500 15.296875 -15.593750q9.703125 -9.796875 12.187500 -12.640625q4.734375 -5.312500 6.609375 -9.000000q1.890625 -3.687500 1.890625 -7.250000q0.000000 -5.812500 -4.078125 -9.468750q-4.078125 -3.671875 -10.625000 -3.671875q-4.640625 0.000000 -9.796875 1.609375q-5.140625 1.609375 -11.000000 4.890625l0.000000 -9.968750q5.953125 -2.390625 11.125000 -3.609375q5.187500 -1.218750 9.484375 -1.218750q11.328125 0.000000 18.062500 5.671875q6.734375 5.656250 6.734375 15.125000q0.000000 4.500000 -1.687500 8.531250q-1.671875 4.015625 -6.125000 9.484375q-1.218750 1.421875 -7.765625 8.187500q-6.531250 6.765625 -18.453125 18.921875"/>
</defs>
<g style="fill: #000000; opacity: 1.000000" transform="translate(588.003571,917.676250)scale(0.120000)">
<use xlink:href="#c_ed3f3ed3ebfbd18bcb9c012009a68ad1"/>
<use xlink:href="#c_7a2040fe3b94fcd41d0a72c84e93b115" x="63.623047"/>
<use xlink:href="#c_7a2040fe3b94fcd41d0a72c84e93b115" x="127.246094"/>
</g>
</g>
</g>
<g id="xtick4">
<g id="line2d10">
<g ><use style="fill: none; stroke: #000000; stroke-width: 0.500000; stroke-linejoin: round; stroke-linecap: butt;  opacity: 1.000000" xlink:href="#m30e32995789d870ad79a2e54c91cf9c6" x="789.942857" y="904.770000"/>
</g></g>
<g id="line2d11">
<g ><use style="fill: none; stroke: #000000; stroke-width: 0.500000; stroke-linejoin: round; stroke-linecap: butt;  opacity: 1.000000" xlink:href="#m9281cae24120827b11d5ea8a7ad3e96b" x="789.942857" y="100.530000"/>
</g></g>
<g id="text4">
<defs>
<path id="c_3dcfa38a02242cb63ec6726c6e70be7a" d="M40.578125 -39.312500q7.078125 1.515625 11.046875 6.312500q3.984375 4.781250 3.984375 11.812500q0.000000 10.781250 -7.421875 16.703125q-7.421875 5.906250 -21.093750 5.906250q-4.578125 0.000000 -9.437500 -0.906250q-4.859375 -0.906250 -10.031250 -2.718750l0.000000 -9.515625q4.093750 2.390625 8.968750 3.609375q4.890625 1.218750 10.218750 1.218750q9.265625 0.000000 14.125000 -3.656250q4.859375 -3.656250 4.859375 -10.640625q0.000000 -6.453125 -4.515625 -10.078125q-4.515625 -3.640625 -12.562500 -3.640625l-8.500000 0.000000l0.000000 -8.109375l8.890625 0.000000q7.265625 0.000000 11.125000 -2.906250q3.859375 -2.906250 3.859375 -8.375000q0.000000 -5.609375 -3.984375 -8.609375q-3.968750 -3.015625 -11.390625 -3.015625q-4.062500 0.000000 -8.703125 0.890625q-4.640625 0.875000 -10.203125 2.718750l0.000000 -8.781250q5.625000 -1.562500 10.531250 -2.343750q4.906250 -0.781250 9.250000 -0.781250q11.234375 0.000000 17.765625 5.109375q6.546875 5.093750 6.546875 13.781250q0.000000 6.062500 -3.468750 10.234375q-3.468750 4.171875 -9.859375 5.781250"/>
</defs>
<g style="fill: #000000; opacity: 1.000000" transform="translate(779.341295,917.676250)scale(0.120000)">
<use xlink:href="#c_3dcfa38a02242cb63ec6726c6e70be7a"/>
<use xlink:href="#c_7a2040fe3b94fcd41d0a72c84e93b115" x="63.623047"/>
<use xlink:href="#c_7a2040fe3b94fcd41d0a72c84e93b115" x="127.246094"/>
</g>
</g>
</g>
<g id="xtick5">
<g id="line2d12">
<g ><use style="fill: none; stroke: #000000; stroke-width: 0.500000; stroke-linejoin: round; stroke-linecap: butt;  opacity: 1.000000" xlink:href="#m30e32995789d870ad79a2e54c91cf9c6" x="981.257143" y="904.770000"/>
</g></g>
<g id="line2d13">
<g ><use style="fill: none; stroke: #000000; stroke-width: 0.500000; stroke-linejoin: round; stroke-linecap: butt;  opacity: 1.000000" xlink:href="#m9281cae24120827b11d5ea8a7ad3e96b" x="981.257143" y="100.530000"/>
</g></g>
<g id="text5">
<defs>
<path id="c_a0416418d96557a09b8c1332d34883ba" d="M37.796875 -64.312500l-24.906250 38.921875l24.906250 0.000000zM35.203125 -72.906250l12.406250 0.000000l0.000000 47.515625l10.406250 0.000000l0.000000 8.203125l-10.406250 0.000000l0.000000 17.187500l-9.812500 0.000000l0.000000 -17.187500l-32.906250 0.000000l0.000000 -9.515625z"/>
</defs>
<g style="fill: #000000; opacity: 1.000000" transform="translate(970.491518,917.676250)scale(0.120000)">
<use xlink:href="#c_a0416418d96557a09b8c1332d34883ba"/>
<use xlink:href="#c_7a2040fe3b94fcd41d0a72c84e93b115" x="63.623047"/>
<use xlink:href="#c_7a2040fe3b94fcd41d0a72c84e93b115" x="127.246094"/>
</g>
</g>
</g>
<g id="xtick6">
<g id="line2d14">
<g ><use style="fill: none; stroke: #000000; stroke-width: 0.500000; stroke-linejoin: round; stroke-linecap: butt;  opacity: 1.000000" xlink:href="#m30e32995789d870ad79a2e54c91cf9c6" x="1172.571429" y="904.770000"/>
</g></g>
<g id="line2d15">
<g ><use style="fill: none; stroke: #000000; stroke-width: 0.500000; stroke-linejoin: round; stroke-linecap: butt;  opacity: 1.000000" xlink:href="#m9281cae24120827b11d5ea8a7ad3e96b" x="1172.571429" y="100.530000"/>
</g></g>
<g id="text6">
<defs>
<path id="c_1260a2df50f305f3db244e29828f968e" d="M10.796875 -72.906250l38.718750 0.000000l0.000000 8.312500l-29.687500 0.000000l0.000000 17.859375q2.140625 -0.734375 4.281250 -1.093750q2.156250 -0.359375 4.312500 -0.359375q12.203125 0.000000 19.328125 6.687500q7.140625 6.687500 7.140625 18.109375q0.000000 11.765625 -7.328125 18.296875q-7.328125 6.515625 -20.656250 6.515625q-4.593750 0.000000 -9.359375 -0.781250q-4.750000 -0.781250 -9.828125 -2.343750l0.000000 -9.921875q4.390625 2.390625 9.078125 3.562500q4.687500 1.171875 9.906250 1.171875q8.453125 0.000000 13.375000 -4.437500q4.937500 -4.437500 4.937500 -12.062500q0.000000 -7.609375 -4.937500 -12.046875q-4.921875 -4.453125 -13.375000 -4.453125q-3.953125 0.000000 -7.890625 0.875000q-3.921875 0.875000 -8.015625 2.734375z"/>
</defs>
<g style="fill: #000000; opacity: 1.000000" transform="translate(1161.969866,917.676250)scale(0.120000)">
<use xlink:href="#c_1260a2df50f305f3db244e29828f968e"/>
<use xlink:href="#c_7a2040fe3b94fcd41d0a72c84e93b115" x="63.623047"/>
<use xlink:href="#c_7a2040fe3b94fcd41d0a72c84e93b115" x="127.246094"/>
</g>
</g>
</g>
<g id="xtick7">
<g id="line2d16">
<g ><use style="fill: none; stroke: #000000; stroke-width: 0.500000; stroke-linejoin: round; stroke-linecap: butt;  opacity: 1.000000" xlink:href="#m30e32995789d870ad79a2e54c91cf9c6" x="1363.885714" y="904.770000"/>
</g></g>
<g id="line2d17">
<g ><use style="fill: none; stroke: #000000; stroke-width: 0.500000; stroke-linejoin: round; stroke-linecap: butt;  opacity: 1.000000" xlink:href="#m9281cae24120827b11d5ea8a7ad3e96b" x="1363.885714" y="100.530000"/>
</g></g>
<g id="text7">
<defs>
<path id="c_cc8d6d580d1b10c8632f7a42cd53db8a" d="M33.015625 -40.375000q-6.640625 0.000000 -10.531250 4.546875q-3.875000 4.531250 -3.875000 12.437500q0.000000 7.859375 3.875000 12.437500q3.890625 4.562500 10.531250 4.562500q6.640625 0.000000 10.515625 -4.562500q3.875000 -4.578125 3.875000 -12.437500q0.000000 -7.906250 -3.875000 -12.437500q-3.875000 -4.546875 -10.515625 -4.546875M52.593750 -71.296875l0.000000 8.984375q-3.718750 -1.750000 -7.500000 -2.671875q-3.781250 -0.937500 -7.500000 -0.937500q-9.765625 0.000000 -14.921875 6.593750q-5.140625 6.593750 -5.875000 19.921875q2.875000 -4.250000 7.218750 -6.515625q4.359375 -2.265625 9.578125 -2.265625q10.984375 0.000000 17.359375 6.671875q6.375000 6.656250 6.375000 18.125000q0.000000 11.234375 -6.640625 18.031250q-6.640625 6.781250 -17.671875 6.781250q-12.656250 0.000000 -19.343750 -9.687500q-6.687500 -9.703125 -6.687500 -28.109375q0.000000 -17.281250 8.203125 -27.562500q8.203125 -10.281250 22.015625 -10.281250q3.718750 0.000000 7.500000 0.734375q3.781250 0.734375 7.890625 2.187500"/>
</defs>
<g style="fill: #000000; opacity: 1.000000" transform="translate(1353.245089,917.676250)scale(0.120000)">
<use xlink:href="#c_cc8d6d580d1b10c8632f7a42cd53db8a"/>
<use xlink:href="#c_7a2040fe3b94fcd41d0a72c84e93b115" x="63.623047"/>
<use xlink:href="#c_7a2040fe3b94fcd41d0a72c84e93b115" x="127.246094"/>
</g>
</g>
</g>
<g id="xtick8">
<g id="line2d18">
<g ><use style="fill: none; stroke: #000000; stroke-width: 0.500000; stroke-linejoin: round; stroke-linecap: butt;  opacity: 1.000000" xlink:href="#m30e32995789d870ad79a2e54c91cf9c6" x="1555.200000" y="904.770000"/>
</g></g>
<g id="line2d19">
<g ><use style="fill: none; stroke: #000000; stroke-width: 0.500000; stroke-linejoin: round; stroke-linecap: butt;  opacity: 1.000000" xlink:href="#m9281cae24120827b11d5ea8a7ad3e96b" x="1555.200000" y="100.530000"/>
</g></g>
<g id="text8">
<defs>
<path id="c_956f18cfdaf972f35a6c2b4aaac2532b" d="M8.203125 -72.906250l46.875000 0.000000l0.000000 4.203125l-26.468750 68.703125l-10.296875 0.000000l24.906250 -64.593750l-35.015625 0.000000z"/>
</defs>
<g style="fill: #000000; opacity: 1.000000" transform="translate(1544.629688,917.676250)scale(0.120000)">
<use xlink:href="#c_956f18cfdaf972f35a6c2b4aaac2532b"/>
<use xlink:href="#c_7a2040fe3b94fcd41d0a72c84e93b115" x="63.623047"/>
<use xlink:href="#c_7a2040fe3b94fcd41d0a72c84e93b115" x="127.246094"/>
</g>
</g>
</g>
<g id="text9">
<defs>
<path id="c_9e4b30cbdf32072672ded72e9074c4c9" d="M-0.296875 -72.906250l61.671875 0.000000l0.000000 8.312500l-25.875000 0.000000l0.000000 64.593750l-9.906250 0.000000l0.000000 -64.593750l-25.890625 0.000000z"/>
<path id="c_6a63bda47b2f3da1cec6aadd80692cfe" d="M9.421875 -54.687500l8.984375 0.000000l0.000000 54.687500l-8.984375 0.000000zM9.421875 -75.984375l8.984375 0.000000l0.000000 11.390625l-8.984375 0.000000z"/>
<path id="c_4653c6dfde66c7610eae0911760d3490" d="M52.000000 -44.187500q3.375000 -6.062500 8.062500 -8.937500q4.687500 -2.875000 11.031250 -2.875000q8.546875 0.000000 13.187500 5.984375q4.640625 5.968750 4.640625 17.000000l0.000000 33.015625l-9.031250 0.000000l0.000000 -32.718750q0.000000 -7.859375 -2.796875 -11.656250q-2.781250 -3.812500 -8.484375 -3.812500q-6.984375 0.000000 -11.046875 4.640625q-4.046875 4.625000 -4.046875 12.640625l0.000000 30.906250l-9.031250 0.000000l0.000000 -32.718750q0.000000 -7.906250 -2.781250 -11.687500q-2.781250 -3.781250 -8.593750 -3.781250q-6.890625 0.000000 -10.953125 4.656250q-4.046875 4.656250 -4.046875 12.625000l0.000000 30.906250l-9.031250 0.000000l0.000000 -54.687500l9.031250 0.000000l0.000000 8.500000q3.078125 -5.031250 7.375000 -7.421875q4.296875 -2.390625 10.203125 -2.390625q5.968750 0.000000 10.140625 3.031250q4.171875 3.015625 6.171875 8.781250"/>
<path id="c_0bce5afba2dc6b9024b26277c38ad8e8" d="M56.203125 -29.593750l0.000000 4.390625l-41.312500 0.000000q0.593750 9.281250 5.593750 14.140625q5.000000 4.859375 13.937500 4.859375q5.171875 0.000000 10.031250 -1.265625q4.859375 -1.265625 9.656250 -3.812500l0.000000 8.500000q-4.843750 2.046875 -9.921875 3.125000q-5.078125 1.078125 -10.296875 1.078125q-13.093750 0.000000 -20.734375 -7.609375q-7.640625 -7.625000 -7.640625 -20.625000q0.000000 -13.421875 7.250000 -21.296875q7.250000 -7.890625 19.562500 -7.890625q11.031250 0.000000 17.453125 7.109375q6.421875 7.093750 6.421875 19.296875M47.218750 -32.234375q-0.093750 -7.359375 -4.125000 -11.750000q-4.031250 -4.406250 -10.671875 -4.406250q-7.515625 0.000000 -12.031250 4.250000q-4.515625 4.250000 -5.203125 11.968750z"/>
<path id="c_d41d8cd98f00b204e9800998ecf8427e" d=""/>
<path id="c_7efa9804c2b4c09a4b614b91fdebee3d" d="M31.000000 -75.875000q-6.531250 11.218750 -9.718750 22.218750q-3.171875 10.984375 -3.171875 22.265625q0.000000 11.265625 3.203125 22.328125q3.203125 11.062500 9.687500 22.250000l-7.812500 0.000000q-7.312500 -11.484375 -10.953125 -22.562500q-3.640625 -11.078125 -3.640625 -22.015625q0.000000 -10.890625 3.609375 -21.921875q3.625000 -11.046875 10.984375 -22.562500z"/>
<path id="c_9c6d5cbc59c6231647eb409cc6b37bb3" d="M25.390625 -72.906250l8.296875 0.000000l-25.390625 82.187500l-8.296875 0.000000z"/>
<path id="c_0f8c41144cfbf448378cb6fd1cc8e549" d="M18.312500 -70.218750l0.000000 15.531250l18.500000 0.000000l0.000000 6.984375l-18.500000 0.000000l0.000000 29.687500q0.000000 6.687500 1.828125 8.593750q1.828125 1.906250 7.453125 1.906250l9.218750 0.000000l0.000000 7.515625l-9.218750 0.000000q-10.406250 0.000000 -14.359375 -3.875000q-3.953125 -3.890625 -3.953125 -14.140625l0.000000 -29.687500l-6.593750 0.000000l0.000000 -6.984375l6.593750 0.000000l0.000000 -15.531250z"/>
<path id="c_74d54c94aa871ec39e2bc6697dde6c00" d="M54.890625 -33.015625l0.000000 33.015625l-8.984375 0.000000l0.000000 -32.718750q0.000000 -7.765625 -3.031250 -11.609375q-3.031250 -3.859375 -9.078125 -3.859375q-7.281250 0.000000 -11.484375 4.640625q-4.203125 4.625000 -4.203125 12.640625l0.000000 30.906250l-9.031250 0.000000l0.000000 -75.984375l9.031250 0.000000l0.000000 29.796875q3.234375 -4.937500 7.593750 -7.375000q4.375000 -2.437500 10.093750 -2.437500q9.421875 0.000000 14.250000 5.828125q4.843750 5.828125 4.843750 17.156250"/>
<path id="c_8e0810ad13fe20a2a87a2619799b154d" d="M44.281250 -53.078125l0.000000 8.500000q-3.796875 -1.953125 -7.906250 -2.921875q-4.093750 -0.984375 -8.500000 -0.984375q-6.687500 0.000000 -10.031250 2.046875q-3.343750 2.046875 -3.343750 6.156250q0.000000 3.125000 2.390625 4.906250q2.390625 1.781250 9.625000 3.390625l3.078125 0.687500q9.562500 2.046875 13.593750 5.781250q4.031250 3.734375 4.031250 10.421875q0.000000 7.625000 -6.031250 12.078125q-6.031250 4.437500 -16.578125 4.437500q-4.390625 0.000000 -9.156250 -0.859375q-4.765625 -0.859375 -10.031250 -2.562500l0.000000 -9.281250q4.984375 2.593750 9.812500 3.890625q4.828125 1.281250 9.578125 1.281250q6.343750 0.000000 9.750000 -2.171875q3.421875 -2.171875 3.421875 -6.125000q0.000000 -3.656250 -2.468750 -5.609375q-2.453125 -1.953125 -10.812500 -3.765625l-3.125000 -0.734375q-8.343750 -1.750000 -12.062500 -5.390625q-3.703125 -3.640625 -3.703125 -9.984375q0.000000 -7.718750 5.468750 -11.906250q5.468750 -4.203125 15.531250 -4.203125q4.968750 0.000000 9.359375 0.734375q4.406250 0.718750 8.109375 2.187500"/>
<path id="c_e96974be642f6eac0427d72f9cec6c19" d="M8.015625 -75.875000l7.812500 0.000000q7.312500 11.515625 10.953125 22.562500q3.640625 11.031250 3.640625 21.921875q0.000000 10.937500 -3.640625 22.015625q-3.640625 11.078125 -10.953125 22.562500l-7.812500 0.000000q6.484375 -11.187500 9.687500 -22.250000q3.203125 -11.062500 3.203125 -22.328125q0.000000 -11.281250 -3.203125 -22.265625q-3.203125 -11.000000 -9.687500 -22.218750"/>
</defs>
<g style="fill: #000000; opacity: 1.000000" transform="translate(840.154688,931.973125)scale(0.120000)">
<use xlink:href="#c_9e4b30cbdf32072672ded72e9074c4c9"/>
<use xlink:href="#c_6a63bda47b2f3da1cec6aadd80692cfe" x="57.958984"/>
<use xlink:href="#c_4653c6dfde66c7610eae0911760d3490" x="85.742187"/>
<use xlink:href="#c_0bce5afba2dc6b9024b26277c38ad8e8" x="183.154297"/>
<use xlink:href="#c_d41d8cd98f00b204e9800998ecf8427e" x="244.677734"/>
<use xlink:href="#c_7efa9804c2b4c09a4b614b91fdebee3d" x="276.464844"/>
<use xlink:href="#c_42baa63129a918535c52adb20d687ea7" x="315.478516"/>
<use xlink:href="#c_9c6d5cbc59c6231647eb409cc6b37bb3" x="379.101562"/>
<use xlink:href="#c_42baa63129a918535c52adb20d687ea7" x="412.792969"/>
<use xlink:href="#c_7a2040fe3b94fcd41d0a72c84e93b115" x="476.416016"/>
<use xlink:href="#c_0f8c41144cfbf448378cb6fd1cc8e549" x="540.039062"/>
<use xlink:href="#c_74d54c94aa871ec39e2bc6697dde6c00" x="579.248047"/>
<use xlink:href="#c_d41d8cd98f00b204e9800998ecf8427e" x="642.626953"/>
<use xlink:href="#c_8e0810ad13fe20a2a87a2619799b154d" x="674.414062"/>
<use xlink:href="#c_e96974be642f6eac0427d72f9cec6c19" x="726.513672"/>
</g>
</g>
</g>
<g id="matplotlib.axis2">
<g id="ytick1">
<g id="line2d20">
<defs><path id="m3400efa6b1638b3fea9e19e898273957" d="M0.000000 0.000000L4.000000 0.000000"/></defs>
<g ><use style="fill: none; stroke: #000000; stroke-width: 0.500000; stroke-linejoin: round; stroke-linecap: butt;  opacity: 1.000000" xlink:href="#m3400efa6b1638b3fea9e19e898273957" x="216.000000" y="904.770000"/>
</g></g>
<g id="line2d21">
<defs><path id="m20b58b2501143cb5e0a5e8f1ef6f1643" d="M0.000000 0.000000L-4.000000 0.000000"/></defs>
<g ><use style="fill: none; stroke: #000000; stroke-width: 0.500000; stroke-linejoin: round; stroke-linecap: butt;  opacity: 1.000000" xlink:href="#m20b58b2501143cb5e0a5e8f1ef6f1643" x="1555.200000" y="904.770000"/>
</g></g>
<g id="text10">
<defs>
<path id="c_6a8d56c819c37117ab4cf023bec22a5a" d="M10.593750 -35.500000l62.593750 0.000000l0.000000 8.296875l-62.593750 0.000000z"/>
<path id="c_ed3e21196fb739f392806f09ca0594ef" d="M10.687500 -12.406250l10.312500 0.000000l0.000000 12.406250l-10.312500 0.000000z"/>
</defs>
<g style="fill: #000000; opacity: 1.000000" transform="translate(184.906250,909.137188)scale(0.120000)">
<use xlink:href="#c_6a8d56c819c37117ab4cf023bec22a5a"/>
<use xlink:href="#c_ed3f3ed3ebfbd18bcb9c012009a68ad1" x="83.789062"/>
<use xlink:href="#c_ed3e21196fb739f392806f09ca0594ef" x="147.412109"/>
<use xlink:href="#c_7a2040fe3b94fcd41d0a72c84e93b115" x="179.199219"/>
</g>
</g>
</g>
<g id="ytick2">
<g id="line2d22">
<g ><use style="fill: none; stroke: #000000; stroke-width: 0.500000; stroke-linejoin: round; stroke-linecap: butt;  opacity: 1.000000" xlink:href="#m3400efa6b1638b3fea9e19e898273957" x="216.000000" y="804.240000"/>
</g></g>
<g id="line2d23">
<g ><use style="fill: none; stroke: #000000; stroke-width: 0.500000; stroke-linejoin: round; stroke-linecap: butt;  opacity: 1.000000" xlink:href="#m20b58b2501143cb5e0a5e8f1ef6f1643" x="1555.200000" y="804.240000"/>
</g></g>
<g id="text11">
<g style="fill: #000000; opacity: 1.000000" transform="translate(185.156250,808.529063)scale(0.120000)">
<use xlink:href="#c_6a8d56c819c37117ab4cf023bec22a5a"/>
<use xlink:href="#c_42baa63129a918535c52adb20d687ea7" x="83.789062"/>
<use xlink:href="#c_ed3e21196fb739f392806f09ca0594ef" x="147.412109"/>
<use xlink:href="#c_1260a2df50f305f3db244e29828f968e" x="179.199219"/>
</g>
</g>
</g>
<g id="ytick3">
<g id="line2d24">
<g ><use style="fill: none; stroke: #000000; stroke-width: 0.500000; stroke-linejoin: round; stroke-linecap: butt;  opacity: 1.000000" xlink:href="#m3400efa6b1638b3fea9e19e898273957" x="216.000000" y="703.710000"/>
</g></g>
<g id="line2d25">
<g ><use style="fill: none; stroke: #000000; stroke-width: 0.500000; stroke-linejoin: round; stroke-linecap: butt;  opacity: 1.000000" xlink:href="#m20b58b2501143cb5e0a5e8f1ef6f1643" x="1555.200000" y="703.710000"/>
</g></g>
<g id="text12">
<g style="fill: #000000; opacity: 1.000000" transform="translate(184.906250,708.077188)scale(0.120000)">
<use xlink:href="#c_6a8d56c819c37117ab4cf023bec22a5a"/>
<use xlink:href="#c_42baa63129a918535c52adb20d687ea7" x="83.789062"/>
<use xlink:href="#c_ed3e21196fb739f392806f09ca0594ef" x="147.412109"/>
<use xlink:href="#c_7a2040fe3b94fcd41d0a72c84e93b115" x="179.199219"/>
</g>
</g>
</g>
<g id="ytick4">
<g id="line2d26">
<g ><use style="fill: none; stroke: #000000; stroke-width: 0.500000; stroke-linejoin: round; stroke-linecap: butt;  opacity: 1.000000" xlink:href="#m3400efa6b1638b3fea9e19e898273957" x="216.000000" y="603.180000"/>
</g></g>
<g id="line2d27">
<g ><use style="fill: none; stroke: #000000; stroke-width: 0.500000; stroke-linejoin: round; stroke-linecap: butt;  opacity: 1.000000" xlink:href="#m20b58b2501143cb5e0a5e8f1ef6f1643" x="1555.200000" y="603.180000"/>
</g></g>
<g id="text13">
<g style="fill: #000000; opacity: 1.000000" transform="translate(185.156250,607.547188)scale(0.120000)">
<use xlink:href="#c_6a8d56c819c37117ab4cf023bec22a5a"/>
<use xlink:href="#c_7a2040fe3b94fcd41d0a72c84e93b115" x="83.789062"/>
<use xlink:href="#c_ed3e21196fb739f392806f09ca0594ef" x="147.412109"/>
<use xlink:href="#c_1260a2df50f305f3db244e29828f968e" x="179.199219"/>
</g>
</g>
</g>
<g id="ytick5">
<g id="line2d28">
<g ><use style="fill: none; stroke: #000000; stroke-width: 0.500000; stroke-linejoin: round; stroke-linecap: butt;  opacity: 1.000000" xlink:href="#m3400efa6b1638b3fea9e19e898273957" x="216.000000" y="502.650000"/>
</g></g>
<g id="line2d29">
<g ><use style="fill: none; stroke: #000000; stroke-width: 0.500000; stroke-linejoin: round; stroke-linecap: butt;  opacity: 1.000000" xlink:href="#m20b58b2501143cb5e0a5e8f1ef6f1643" x="1555.200000" y="502.650000"/>
</g></g>
<g id="text14">
<g style="fill: #000000; opacity: 1.000000" transform="translate(194.500000,507.017188)scale(0.120000)">
<use xlink:href="#c_7a2040fe3b94fcd41d0a72c84e93b115"/>
<use xlink:href="#c_ed3e21196fb739f392806f09ca0594ef" x="63.623047"/>
<use xlink:href="#c_7a2040fe3b94fcd41d0a72c84e93b115" x="95.410156"/>
</g>
</g>
</g>
<g id="ytick6">
<g id="line2d30">
<g ><use style="fill: none; stroke: #000000; stroke-width: 0.500000; stroke-linejoin: round; stroke-linecap: butt;  opacity: 1.000000" xlink:href="#m3400efa6b1638b3fea9e19e898273957" x="216.000000" y="402.120000"/>
</g></g>
<g id="line2d31">
<g ><use style="fill: none; stroke: #000000; stroke-width: 0.500000; stroke-linejoin: round; stroke-linecap: butt;  opacity: 1.000000" xlink:href="#m20b58b2501143cb5e0a5e8f1ef6f1643" x="1555.200000" y="402.120000"/>
</g></g>
<g id="text15">
<g style="fill: #000000; opacity: 1.000000" transform="translate(194.750000,406.487188)scale(0.120000)">
<use xlink:href="#c_7a2040fe3b94fcd41d0a72c84e93b115"/>
<use xlink:href="#c_ed3e21196fb739f392806f09ca0594ef" x="63.623047"/>
<use xlink:href="#c_1260a2df50f305f3db244e29828f968e" x="95.410156"/>
</g>
</g>
</g>
<g id="ytick7">
<g id="line2d32">
<g ><use style="fill: none; stroke: #000000; stroke-width: 0.500000; stroke-linejoin: round; stroke-linecap: butt;  opacity: 1.000000" xlink:href="#m3400efa6b1638b3fea9e19e898273957" x="216.000000" y="301.590000"/>
</g></g>
<g id="line2d33">
<g ><use style="fill: none; stroke: #000000; stroke-width: 0.500000; stroke-linejoin: round; stroke-linecap: butt;  opacity: 1.000000" xlink:href="#m20b58b2501143cb5e0a5e8f1ef6f1643" x="1555.200000" y="301.590000"/>
</g></g>
<g id="text16">
<g style="fill: #000000; opacity: 1.000000" transform="translate(195.015625,305.957188)scale(0.120000)">
<use xlink:href="#c_42baa63129a918535c52adb20d687ea7"/>
<use xlink:href="#c_ed3e21196fb739f392806f09ca0594ef" x="63.623047"/>
<use xlink:href="#c_7a2040fe3b94fcd41d0a72c84e93b115" x="95.410156"/>
</g>
</g>
</g>
<g id="ytick8">
<g id="line2d34">
<g ><use style="fill: none; stroke: #000000; stroke-width: 0.500000; stroke-linejoin: round; stroke-linecap: butt;  opacity: 1.000000" xlink:href="#m3400efa6b1638b3fea9e19e898273957" x="216.000000" y="201.060000"/>
</g></g>
<g id="line2d35">
<g ><use style="fill: none; stroke: #000000; stroke-width: 0.500000; stroke-linejoin: round; stroke-linecap: butt;  opacity: 1.000000" xlink:href="#m20b58b2501143cb5e0a5e8f1ef6f1643" x="1555.200000" y="201.060000"/>
</g></g>
<g id="text17">
<g style="fill: #000000; opacity: 1.000000" transform="translate(195.265625,205.349062)scale(0.120000)">
<use xlink:href="#c_42baa63129a918535c52adb20d687ea7"/>
<use xlink:href="#c_ed3e21196fb739f392806f09ca0594ef" x="63.623047"/>
<use xlink:href="#c_1260a2df50f305f3db244e29828f968e" x="95.410156"/>
</g>
</g>
</g>
<g id="ytick9">
<g id="line2d36">
<g ><use style="fill: none; stroke: #000000; stroke-width: 0.500000; stroke-linejoin: round; stroke-linecap: butt;  opacity: 1.000000" xlink:href="#m3400efa6b1638b3fea9e19e898273957" x="216.000000" y="100.530000"/>
</g></g>
<g id="line2d37">
<g ><use style="fill: none; stroke: #000000; stroke-width: 0.500000; stroke-linejoin: round; stroke-linecap: butt;  opacity: 1.000000" xlink:href="#m20b58b2501143cb5e0a5e8f1ef6f1643" x="1555.200000" y="100.530000"/>
</g></g>
<g id="text18">
<g style="fill: #000000; opacity: 1.000000" transform="translate(194.578125,104.897187)scale(0.120000)">
<use xlink:href="#c_ed3f3ed3ebfbd18bcb9c012009a68ad1"/>
<use xlink:href="#c_ed3e21196fb739f392806f09ca0594ef" x="63.623047"/>
<use xlink:href="#c_7a2040fe3b94fcd41d0a72c84e93b115" x="95.410156"/>
</g>
</g>
</g>
<g id="text19">
<defs>
<path id="c_ff9441f72805bc441fcb0bfe0d774f13" d="M19.671875 -64.796875l0.000000 56.687500l11.921875 0.000000q15.093750 0.000000 22.093750 -6.828125q7.000000 -6.843750 7.000000 -21.593750q0.000000 -14.640625 -7.000000 -21.453125q-7.000000 -6.812500 -22.093750 -6.812500zM9.812500 -72.906250l20.265625 0.000000q21.187500 0.000000 31.093750 8.812500q9.921875 8.812500 9.921875 27.562500q0.000000 18.859375 -9.968750 27.703125q-9.953125 8.828125 -31.046875 8.828125l-20.265625 0.000000z"/>
<path id="c_01d93a582460e35a7945ca50d148ffeb" d="M34.281250 -27.484375q-10.890625 0.000000 -15.093750 2.484375q-4.203125 2.484375 -4.203125 8.500000q0.000000 4.781250 3.156250 7.593750q3.156250 2.796875 8.562500 2.796875q7.484375 0.000000 12.000000 -5.296875q4.515625 -5.296875 4.515625 -14.078125l0.000000 -2.000000zM52.203125 -31.203125l0.000000 31.203125l-8.984375 0.000000l0.000000 -8.296875q-3.078125 4.968750 -7.671875 7.343750q-4.593750 2.375000 -11.234375 2.375000q-8.390625 0.000000 -13.359375 -4.718750q-4.953125 -4.718750 -4.953125 -12.625000q0.000000 -9.218750 6.171875 -13.906250q6.187500 -4.687500 18.437500 -4.687500l12.609375 0.000000l0.000000 -0.890625q0.000000 -6.203125 -4.078125 -9.593750q-4.078125 -3.390625 -11.453125 -3.390625q-4.687500 0.000000 -9.140625 1.125000q-4.437500 1.125000 -8.531250 3.375000l0.000000 -8.312500q4.921875 -1.906250 9.562500 -2.843750q4.640625 -0.953125 9.031250 -0.953125q11.875000 0.000000 17.734375 6.156250q5.859375 6.140625 5.859375 18.640625"/>
</defs>
<g style="fill: #000000; opacity: 1.000000" transform="translate(179.906250,515.673438)rotate(-90.0)scale(0.120000)">
<use xlink:href="#c_ff9441f72805bc441fcb0bfe0d774f13"/>
<use xlink:href="#c_01d93a582460e35a7945ca50d148ffeb" x="77.001953"/>
<use xlink:href="#c_0f8c41144cfbf448378cb6fd1cc8e549" x="138.281250"/>
<use xlink:href="#c_01d93a582460e35a7945ca50d148ffeb" x="177.490234"/>
</g>
</g>
</g>
<g id="patch3">
<path style="fill: none; stroke: #000000; stroke-width: 1.000000; stroke-linejoin: round; stroke-linecap: square;  opacity: 1.000000"  d="M216.000000 100.530000L1555.200000 100.530000"/>
</g>
<g id="patch4">
<path style="fill: none; stroke: #000000; stroke-width: 1.000000; stroke-linejoin: round; stroke-linecap: square;  opacity: 1.000000"  d="M1555.200000 904.770000L1555.200000 100.530000"/>
</g>
<g id="patch5">
<path style="fill: none; stroke: #000000; stroke-width: 1.000000; stroke-linejoin: round; stroke-linecap: square;  opacity: 1.000000"  d="M216.000000 904.770000L1555.200000 904.770000"/>
</g>
<g id="patch6">
<path style="fill: none; stroke: #000000; stroke-width: 1.000000; stroke-linejoin: round; stroke-linecap: square;  opacity: 1.000000"  d="M216.000000 904.770000L216.000000 100.530000"/>
</g>
<g id="text20">
<defs>
<path id="c_518d586bee075aa0153eaebfcb5ab11f" d="M19.671875 -64.796875l0.000000 27.390625l12.406250 0.000000q6.890625 0.000000 10.640625 -3.562500q3.765625 -3.562500 3.765625 -10.156250q0.000000 -6.546875 -3.765625 -10.109375q-3.750000 -3.562500 -10.640625 -3.562500zM9.812500 -72.906250l22.265625 0.000000q12.265625 0.000000 18.531250 5.546875q6.281250 5.546875 6.281250 16.234375q0.000000 10.796875 -6.281250 16.312500q-6.265625 5.515625 -18.531250 5.515625l-12.406250 0.000000l0.000000 29.296875l-9.859375 0.000000z"/>
<path id="c_d650c37394b681142a10dfc54356d478" d="M48.781250 -52.593750l0.000000 8.406250q-3.812500 -2.109375 -7.640625 -3.156250q-3.828125 -1.046875 -7.734375 -1.046875q-8.750000 0.000000 -13.593750 5.546875q-4.828125 5.531250 -4.828125 15.546875q0.000000 10.015625 4.828125 15.562500q4.843750 5.531250 13.593750 5.531250q3.906250 0.000000 7.734375 -1.046875q3.828125 -1.046875 7.640625 -3.156250l0.000000 8.312500q-3.765625 1.750000 -7.796875 2.625000q-4.015625 0.890625 -8.562500 0.890625q-12.359375 0.000000 -19.640625 -7.765625q-7.265625 -7.765625 -7.265625 -20.953125q0.000000 -13.375000 7.343750 -21.031250q7.359375 -7.671875 20.156250 -7.671875q4.140625 0.000000 8.093750 0.859375q3.953125 0.843750 7.671875 2.546875"/>
<path id="c_dcb78ab3124be785176d70a27dde1356" d="M9.078125 -75.984375l9.031250 0.000000l0.000000 44.875000l26.812500 -23.578125l11.468750 0.000000l-29.000000 25.578125l30.234375 29.109375l-11.718750 0.000000l-27.796875 -26.703125l0.000000 26.703125l-9.031250 0.000000z"/>
<path id="c_425fd1cbcd899bef0a79975ae4756bf8" d="M19.671875 -34.812500l0.000000 26.703125l15.828125 0.000000q7.953125 0.000000 11.781250 -3.296875q3.843750 -3.296875 3.843750 -10.078125q0.000000 -6.843750 -3.843750 -10.078125q-3.828125 -3.250000 -11.781250 -3.250000zM19.671875 -64.796875l0.000000 21.968750l14.609375 0.000000q7.218750 0.000000 10.750000 -2.703125q3.546875 -2.718750 3.546875 -8.281250q0.000000 -5.515625 -3.546875 -8.250000q-3.531250 -2.734375 -10.750000 -2.734375zM9.812500 -72.906250l25.203125 0.000000q11.281250 0.000000 17.375000 4.687500q6.109375 4.687500 6.109375 13.328125q0.000000 6.703125 -3.125000 10.656250q-3.125000 3.953125 -9.187500 4.921875q7.281250 1.562500 11.312500 6.531250q4.031250 4.953125 4.031250 12.375000q0.000000 9.765625 -6.640625 15.093750q-6.640625 5.312500 -18.906250 5.312500l-26.171875 0.000000z"/>
<path id="c_f05dd90d41f04bb96ef1ca503cc2044b" d="M30.609375 -48.390625q-7.218750 0.000000 -11.421875 5.640625q-4.203125 5.640625 -4.203125 15.453125q0.000000 9.812500 4.171875 15.453125q4.187500 5.640625 11.453125 5.640625q7.187500 0.000000 11.375000 -5.656250q4.203125 -5.671875 4.203125 -15.437500q0.000000 -9.718750 -4.203125 -15.406250q-4.187500 -5.687500 -11.375000 -5.687500M30.609375 -56.000000q11.718750 0.000000 18.406250 7.625000q6.703125 7.609375 6.703125 21.078125q0.000000 13.421875 -6.703125 21.078125q-6.687500 7.640625 -18.406250 7.640625q-11.765625 0.000000 -18.437500 -7.640625q-6.656250 -7.656250 -6.656250 -21.078125q0.000000 -13.468750 6.656250 -21.078125q6.671875 -7.625000 18.437500 -7.625000"/>
<path id="c_c48ceabac27bf136feba2f4bf2716ab6" d="M2.984375 -54.687500l9.515625 0.000000l17.093750 45.890625l17.093750 -45.890625l9.515625 0.000000l-20.515625 54.687500l-12.203125 0.000000z"/>
</defs>
<g style="fill: #000000; opacity: 1.000000" transform="translate(805.404688,95.326875)scale(0.144000)">
<use xlink:href="#c_518d586bee075aa0153eaebfcb5ab11f"/>
<use xlink:href="#c_01d93a582460e35a7945ca50d148ffeb" x="55.802734"/>
<use xlink:href="#c_d650c37394b681142a10dfc54356d478" x="117.082031"/>
<use xlink:href="#c_dcb78ab3124be785176d70a27dde1356" x="172.062500"/>
<use xlink:href="#c_425fd1cbcd899bef0a79975ae4756bf8" x="229.972656"/>
<use xlink:href="#c_f05dd90d41f04bb96ef1ca503cc2044b" x="298.576172"/>
<use xlink:href="#c_0f8c41144cfbf448378cb6fd1cc8e549" x="359.757812"/>
<use xlink:href="#c_d41d8cd98f00b204e9800998ecf8427e" x="398.966797"/>
<use xlink:href="#c_ff9441f72805bc441fcb0bfe0d774f13" x="430.753906"/>
<use xlink:href="#c_01d93a582460e35a7945ca50d148ffeb" x="507.755859"/>
<use xlink:href="#c_0f8c41144cfbf448378cb6fd1cc8e549" x="569.035156"/>
<use xlink:href="#c_01d93a582460e35a7945ca50d148ffeb" x="608.244141"/>
<use xlink:href="#c_d41d8cd98f00b204e9800998ecf8427e" x="669.523438"/>
<use xlink:href="#c_c48ceabac27bf136feba2f4bf2716ab6" x="701.310547"/>
<use xlink:href="#c_8e0810ad13fe20a2a87a2619799b154d" x="760.490234"/>
<use xlink:href="#c_ed3e21196fb739f392806f09ca0594ef" x="812.589844"/>
<use xlink:href="#c_d41d8cd98f00b204e9800998ecf8427e" x="844.376953"/>
<use xlink:href="#c_9e4b30cbdf32072672ded72e9074c4c9" x="876.164062"/>
<use xlink:href="#c_6a63bda47b2f3da1cec6aadd80692cfe" x="934.123047"/>
<use xlink:href="#c_4653c6dfde66c7610eae0911760d3490" x="961.906250"/>
<use xlink:href="#c_0bce5afba2dc6b9024b26277c38ad8e8" x="1059.318359"/>
</g>
</g>
</g>
<g id="legend1">
<g id="patch7">
<path style="fill: #ffffff; stroke: #000000; stroke-width: 1.000000; stroke-linejoin: round; stroke-linecap: square;  opacity: 1.000000"  d="M1549.647500 71.057500L1720.800000 71.057500L1720.800000 7.200000
L1549.647500 7.200000L1549.647500 71.057500z"/>
</g>
<g id="line2d38">
<path style="fill: none; stroke: #0000ff; stroke-width: 1.000000; stroke-linejoin: round; stroke-linecap: square;  opacity: 1.000000"  d="M1559.727500 18.560625L1579.887500 18.560625"/>
</g>
<g id="line2d39">
</g>
<g id="text21">
<defs>
<path id="c_dbe439baa035de1a298d0549b22269d8" d="M9.812500 -72.906250l46.093750 0.000000l0.000000 8.312500l-36.234375 0.000000l0.000000 21.578125l34.718750 0.000000l0.000000 8.296875l-34.718750 0.000000l0.000000 26.421875l37.109375 0.000000l0.000000 8.296875l-46.968750 0.000000z"/>
<path id="c_fe791a90f5471e2ab20a5ed41a7fa451" d="M54.890625 -33.015625l0.000000 33.015625l-8.984375 0.000000l0.000000 -32.718750q0.000000 -7.765625 -3.031250 -11.609375q-3.031250 -3.859375 -9.078125 -3.859375q-7.281250 0.000000 -11.484375 4.640625q-4.203125 4.625000 -4.203125 12.640625l0.000000 30.906250l-9.031250 0.000000l0.000000 -54.687500l9.031250 0.000000l0.000000 8.500000q3.234375 -4.937500 7.593750 -7.375000q4.375000 -2.437500 10.093750 -2.437500q9.421875 0.000000 14.250000 5.828125q4.843750 5.828125 4.843750 17.156250"/>
<path id="c_d821beae607506e87470f334d9ff47af" d="M45.406250 -46.390625l0.000000 -29.593750l8.984375 0.000000l0.000000 75.984375l-8.984375 0.000000l0.000000 -8.203125q-2.828125 4.875000 -7.156250 7.250000q-4.312500 2.375000 -10.375000 2.375000q-9.906250 0.000000 -16.140625 -7.906250q-6.218750 -7.921875 -6.218750 -20.812500q0.000000 -12.890625 6.218750 -20.796875q6.234375 -7.906250 16.140625 -7.906250q6.062500 0.000000 10.375000 2.375000q4.328125 2.359375 7.156250 7.234375M14.796875 -27.296875q0.000000 9.906250 4.078125 15.546875q4.078125 5.640625 11.203125 5.640625q7.125000 0.000000 11.218750 -5.640625q4.109375 -5.640625 4.109375 -15.546875q0.000000 -9.906250 -4.109375 -15.546875q-4.093750 -5.640625 -11.218750 -5.640625q-7.125000 0.000000 -11.203125 5.640625q-4.078125 5.640625 -4.078125 15.546875"/>
<path id="c_6ec8d5749226675394676a5d2a3b468b" d="M41.109375 -46.296875q-1.515625 -0.875000 -3.296875 -1.281250q-1.781250 -0.421875 -3.921875 -0.421875q-7.625000 0.000000 -11.703125 4.953125q-4.078125 4.953125 -4.078125 14.234375l0.000000 28.812500l-9.031250 0.000000l0.000000 -54.687500l9.031250 0.000000l0.000000 8.500000q2.843750 -4.984375 7.375000 -7.390625q4.546875 -2.421875 11.046875 -2.421875q0.921875 0.000000 2.046875 0.125000q1.125000 0.109375 2.484375 0.359375z"/>
<path id="c_ae70b0af174184799fa4976b9c5da571" d="M28.609375 -0.000000l-27.828125 -72.906250l10.296875 0.000000l23.109375 61.375000l23.140625 -61.375000l10.250000 0.000000l-27.781250 72.906250z"/>
<path id="c_5099edb83619131346ae654950954dea" d="M9.421875 -75.984375l8.984375 0.000000l0.000000 75.984375l-8.984375 0.000000z"/>
<path id="c_3fe22c4af425ac970aec982ae9662abe" d="M32.171875 5.078125q-3.796875 9.765625 -7.421875 12.734375q-3.609375 2.984375 -9.656250 2.984375l-7.187500 0.000000l0.000000 -7.515625l5.281250 0.000000q3.703125 0.000000 5.750000 -1.765625q2.062500 -1.750000 4.546875 -8.296875l1.609375 -4.093750l-22.109375 -53.812500l9.515625 0.000000l17.093750 42.765625l17.093750 -42.765625l9.515625 0.000000z"/>
</defs>
<g style="fill: #000000; opacity: 1.000000" transform="translate(1595.727500,23.600625)scale(0.144000)">
<use xlink:href="#c_dbe439baa035de1a298d0549b22269d8"/>
<use xlink:href="#c_fe791a90f5471e2ab20a5ed41a7fa451" x="63.183594"/>
<use xlink:href="#c_d650c37394b681142a10dfc54356d478" x="126.562500"/>
<use xlink:href="#c_f05dd90d41f04bb96ef1ca503cc2044b" x="181.542969"/>
<use xlink:href="#c_d821beae607506e87470f334d9ff47af" x="242.724609"/>
<use xlink:href="#c_0bce5afba2dc6b9024b26277c38ad8e8" x="306.201172"/>
<use xlink:href="#c_6ec8d5749226675394676a5d2a3b468b" x="367.724609"/>
<use xlink:href="#c_d41d8cd98f00b204e9800998ecf8427e" x="408.837891"/>
<use xlink:href="#c_ae70b0af174184799fa4976b9c5da571" x="440.625000"/>
<use xlink:href="#c_0bce5afba2dc6b9024b26277c38ad8e8" x="501.283203"/>
<use xlink:href="#c_5099edb83619131346ae654950954dea" x="562.806641"/>
<use xlink:href="#c_f05dd90d41f04bb96ef1ca503cc2044b" x="590.589844"/>
<use xlink:href="#c_d650c37394b681142a10dfc54356d478" x="651.771484"/>
<use xlink:href="#c_6a63bda47b2f3da1cec6aadd80692cfe" x="706.751953"/>
<use xlink:href="#c_0f8c41144cfbf448378cb6fd1cc8e549" x="734.535156"/>
<use xlink:href="#c_3fe22c4af425ac970aec982ae9662abe" x="773.744141"/>
</g>
</g>
<g id="line2d40">
<path style="fill: none; stroke: #008000; stroke-width: 1.000000; stroke-linejoin: round; stroke-linecap: square;  opacity: 1.000000"  d="M1559.727500 39.307500L1579.887500 39.307500"/>
</g>
<g id="line2d41">
</g>
<g id="text22">
<defs>
<path id="c_3b86f9879deccc43ffac57ae939fe3b7" d="M59.515625 -10.406250l0.000000 -19.578125l-16.109375 0.000000l0.000000 -8.109375l25.875000 0.000000l0.000000 31.312500q-5.703125 4.046875 -12.593750 6.125000q-6.875000 2.078125 -14.687500 2.078125q-17.093750 0.000000 -26.750000 -9.984375q-9.640625 -10.000000 -9.640625 -27.812500q0.000000 -17.875000 9.640625 -27.859375q9.656250 -9.984375 26.750000 -9.984375q7.125000 0.000000 13.546875 1.765625q6.421875 1.750000 11.843750 5.171875l0.000000 10.500000q-5.468750 -4.640625 -11.625000 -6.984375q-6.156250 -2.343750 -12.937500 -2.343750q-13.390625 0.000000 -20.109375 7.468750q-6.703125 7.468750 -6.703125 22.265625q0.000000 14.750000 6.703125 22.218750q6.718750 7.468750 20.109375 7.468750q5.218750 0.000000 9.312500 -0.906250q4.109375 -0.906250 7.375000 -2.812500"/>
<path id="c_b672e4bee30772019085dff1098f516d" d="M53.515625 -70.515625l0.000000 9.625000q-5.609375 -2.687500 -10.593750 -4.000000q-4.984375 -1.328125 -9.625000 -1.328125q-8.046875 0.000000 -12.421875 3.125000q-4.375000 3.125000 -4.375000 8.890625q0.000000 4.843750 2.906250 7.312500q2.906250 2.453125 11.015625 3.968750l5.953125 1.218750q11.031250 2.109375 16.281250 7.406250q5.250000 5.296875 5.250000 14.171875q0.000000 10.609375 -7.109375 16.078125q-7.093750 5.468750 -20.812500 5.468750q-5.171875 0.000000 -11.015625 -1.171875q-5.828125 -1.171875 -12.078125 -3.468750l0.000000 -10.156250q6.000000 3.359375 11.765625 5.078125q5.765625 1.703125 11.328125 1.703125q8.437500 0.000000 13.031250 -3.312500q4.593750 -3.328125 4.593750 -9.484375q0.000000 -5.359375 -3.296875 -8.390625q-3.296875 -3.031250 -10.812500 -4.546875l-6.015625 -1.171875q-11.031250 -2.187500 -15.968750 -6.875000q-4.921875 -4.687500 -4.921875 -13.046875q0.000000 -9.671875 6.812500 -15.234375q6.812500 -5.562500 18.765625 -5.562500q5.140625 0.000000 10.453125 0.937500q5.328125 0.921875 10.890625 2.765625"/>
</defs>
<g style="fill: #000000; opacity: 1.000000" transform="translate(1595.727500,44.347500)scale(0.144000)">
<use xlink:href="#c_3b86f9879deccc43ffac57ae939fe3b7"/>
<use xlink:href="#c_518d586bee075aa0153eaebfcb5ab11f" x="77.490234"/>
<use xlink:href="#c_b672e4bee30772019085dff1098f516d" x="137.792969"/>
<use xlink:href="#c_d41d8cd98f00b204e9800998ecf8427e" x="201.269531"/>
<use xlink:href="#c_ae70b0af174184799fa4976b9c5da571" x="233.056641"/>
<use xlink:href="#c_0bce5afba2dc6b9024b26277c38ad8e8" x="293.714844"/>
<use xlink:href="#c_5099edb83619131346ae654950954dea" x="355.238281"/>
<use xlink:href="#c_f05dd90d41f04bb96ef1ca503cc2044b" x="383.021484"/>
<use xlink:href="#c_d650c37394b681142a10dfc54356d478" x="444.203125"/>
<use xlink:href="#c_6a63bda47b2f3da1cec6aadd80692cfe" x="499.183594"/>
<use xlink:href="#c_0f8c41144cfbf448378cb6fd1cc8e549" x="526.966797"/>
<use xlink:href="#c_3fe22c4af425ac970aec982ae9662abe" x="566.175781"/>
</g>
</g>
<g id="line2d42">
<path style="fill: none; stroke: #ff0000; stroke-width: 1.000000; stroke-linejoin: round; stroke-linecap: square;  opacity: 1.000000"  d="M1559.727500 60.054375L1579.887500 60.054375"/>
</g>
<g id="line2d43">
</g>
<g id="text23">
<defs>
<path id="c_867d5c614e055a6de802b159158cbff4" d="M-0.203125 -72.906250l10.609375 0.000000l20.203125 29.984375l20.078125 -29.984375l10.593750 0.000000l-25.781250 38.187500l0.000000 34.718750l-9.906250 0.000000l0.000000 -34.718750z"/>
<path id="c_57adaa7083d7229075db8bc2c5b2febe" d="M4.203125 -54.687500l8.984375 0.000000l11.234375 42.671875l11.171875 -42.671875l10.593750 0.000000l11.234375 42.671875l11.187500 -42.671875l8.984375 0.000000l-14.312500 54.687500l-10.593750 0.000000l-11.765625 -44.828125l-11.812500 44.828125l-10.609375 0.000000z"/>
</defs>
<g style="fill: #000000; opacity: 1.000000" transform="translate(1595.727500,65.094375)scale(0.144000)">
<use xlink:href="#c_867d5c614e055a6de802b159158cbff4"/>
<use xlink:href="#c_01d93a582460e35a7945ca50d148ffeb" x="47.333984"/>
<use xlink:href="#c_57adaa7083d7229075db8bc2c5b2febe" x="108.613281"/>
</g>
</g>
</g>
</g>
</svg>
