<?xml version="1.0" standalone="no"?>
<!DOCTYPE svg PUBLIC "-//W3C//DTD SVG 1.1//EN"
  "http://www.w3.org/Graphics/SVG/1.1/DTD/svg11.dtd">
<!-- Created with matplotlib (http://matplotlib.sourceforge.net/) -->
<svg width="1728pt" height="1005pt" viewBox="0 0 1728 1005"
   xmlns="http://www.w3.org/2000/svg"
   xmlns:xlink="http://www.w3.org/1999/xlink"
   version="1.1"
   id="svg1">
<g id="figure1">
<g id="patch1">
<path style="fill: #ffffff; stroke: #ffffff; stroke-width: 1.000000; stroke-linejoin: round; stroke-linecap: square;  opacity: 1.000000"  d="M0.000000 1005.300000L1728.000000 1005.300000L1728.000000 0.000000
L0.000000 0.000000L0.000000 1005.300000"/>
</g>
<g id="axes1">
<g id="patch2">
<path style="fill: #ffffff; opacity: 1.000000"  d="M216.000000 904.770000L1555.200000 904.770000L1555.200000 100.530000
L216.000000 100.530000L216.000000 904.770000"/>
</g>
<g id="line2d1">
<defs>
  <clipPath id="p1093b519e0ea38bc825f2418caa11e40">
<rect x="216.000000" y="100.530000" width="1339.200000" height="804.240000"/>
  </clipPath>
</defs><path style="fill: none; stroke: #0000ff; stroke-width: 1.000000; stroke-linejoin: round; stroke-linecap: square;  opacity: 1.000000" clip-path="url(#p1093b519e0ea38bc825f2418caa11e40)" d="M216.000000 603.180000L218.976000 590.677888L221.952000 587.981674
L224.928000 569.123050L227.904000 571.892048L230.880000 564.259609
L233.856000 570.091958L236.832000 571.083184L239.808000 570.698958
L242.784000 573.196324L245.760000 571.480478L251.712000 559.403005
L254.688000 562.828062L257.664000 556.201527L260.640000 551.920758
L263.616000 552.641759L266.592000 554.790287L269.568000 553.193669
L272.544000 557.209239L275.520000 555.895312L278.496000 549.789522
L281.472000 546.323650L284.448000 520.219025L287.424000 502.569576
L290.400000 508.486571L293.376000 501.085351L296.352000 504.743638
L299.328000 509.006713L302.304000 514.506709L305.280000 509.430950
L308.256000 513.307990L311.232000 510.928042L314.208000 513.540415
L317.184000 512.530491L320.160000 505.555719L323.136000 504.849797
L326.112000 514.127711L329.088000 511.091705L332.064000 520.248983
L335.040000 510.175274L338.016000 511.490608L340.992000 500.679813
L343.968000 509.430749L346.944000 495.564042L349.920000 494.881645
L352.896000 504.988931L355.872000 489.253573L361.824000 502.794361
L364.800000 498.187473L367.776000 498.333845L370.752000 497.826571
L373.728000 506.542119L376.704000 496.698624L379.680000 491.773659
L382.656000 496.746677L385.632000 499.164223L388.608000 499.343166
L391.584000 509.991505L394.560000 505.025122L397.536000 497.441742
L400.512000 499.029915L403.488000 505.336363L406.464000 497.887090
L409.440000 496.219096L412.416000 496.285848L415.392000 497.994054
L418.368000 498.640260L424.320000 496.293086L427.296000 502.221742
L430.272000 498.220447L433.248000 510.471435L439.200000 500.236074
L442.176000 486.121461L445.152000 504.193136L448.128000 496.603322
L451.104000 499.229366L454.080000 495.084715L457.056000 499.598512
L460.032000 494.504054L463.008000 500.711983L468.960000 498.067642
L471.936000 502.885441L474.912000 497.082649L480.864000 495.954099
L483.840000 499.163419L486.816000 498.671224L489.792000 502.234409
L492.768000 493.843773L495.744000 496.494950L498.720000 503.988456
L501.696000 502.248885L504.672000 496.680529L507.648000 505.227187
L510.624000 493.547612L513.600000 498.328215L516.576000 497.698093
L519.552000 498.578334L522.528000 494.627103L525.504000 501.409058
L528.480000 505.589095L531.456000 504.555245L534.432000 495.996321
L537.408000 504.999185L540.384000 495.699155L543.360000 499.361463
L546.336000 495.192685L549.312000 500.693887L552.288000 504.661806
L555.264000 506.958917L558.240000 502.252504L561.216000 498.797288
L564.192000 499.754334L567.168000 479.234552L570.144000 500.782153
L573.120000 492.549148L576.096000 506.173778L579.072000 507.712892
L582.048000 496.533956L585.024000 497.280894L588.000000 503.587141
L590.976000 502.271806L593.952000 494.793782L596.928000 495.314527
L599.904000 501.028652L602.880000 485.604334L605.856000 495.503322
L608.832000 502.192589L611.808000 500.560182L614.784000 505.035376
L617.760000 504.489900L620.736000 506.529051L623.712000 490.171613
L626.688000 494.434889L629.664000 491.144140L632.640000 500.131120
L635.616000 500.032199L638.592000 500.279704L641.568000 495.415861
L644.544000 500.083268L647.520000 493.904493L650.496000 496.551850
L653.472000 501.283194L656.448000 497.338799L659.424000 499.890049
L662.400000 500.059744L665.376000 473.166562L668.352000 458.812285
L671.328000 450.925304L674.304000 447.478131L680.256000 464.304842
L683.232000 456.081890L686.208000 470.244155L689.184000 461.668543
L692.160000 468.792099L695.136000 469.529185L698.112000 464.044872
L701.088000 455.561346L704.064000 462.763918L707.040000 465.380312
L710.016000 456.538095L712.992000 457.509014L715.968000 467.000454
L718.944000 470.266070L721.920000 469.148780L724.896000 459.506947
L727.872000 462.378687L730.848000 462.162749L733.824000 494.266803
L736.800000 569.042827L739.776000 604.422551L742.752000 618.181690
L745.728000 606.741175L748.704000 603.125915L769.536000 603.180000
L784.416000 603.180000L787.392000 624.699251L790.368000 678.686877
L793.344000 740.270750L796.320000 753.320751L799.296000 756.807935
L802.272000 738.886854L805.248000 730.310841L808.224000 729.307552
L811.200000 730.680993L814.176000 733.858746L817.152000 729.676497
L820.128000 736.125899L823.104000 723.003114L826.080000 733.499050
L829.056000 728.977813L832.032000 735.415554L835.008000 729.422960
L837.984000 732.001555L840.960000 737.101040L843.936000 728.039667
L846.912000 729.771397L849.888000 732.963627L852.864000 726.131206
L855.840000 748.630222L858.816000 748.989918L861.792000 753.442794
L864.768000 751.207610L867.744000 750.125706L870.720000 756.957323
L873.696000 770.183854L876.672000 769.664114L879.648000 774.139307
L882.624000 768.014819L885.600000 762.733777L888.576000 767.872468
L891.552000 770.738378L894.528000 763.948179L897.504000 769.014489
L900.480000 773.290432L903.456000 760.309797L906.432000 769.681204
L909.408000 767.127340L912.384000 766.348635L915.360000 773.647113
L918.336000 771.383378L921.312000 780.362919L924.288000 776.841152
L927.264000 757.605138L930.240000 768.171646L933.216000 761.918076
L936.192000 777.965278L939.168000 789.206744L942.144000 797.583104
L945.120000 802.970105L951.072000 794.527596L954.048000 789.872856
L957.024000 801.573140L960.000000 785.491356L962.976000 787.895028
L965.952000 786.851929L968.928000 794.868392L974.880000 804.466997
L977.856000 786.022959L980.832000 799.381385L983.808000 791.436298
L986.784000 790.977680L989.760000 785.394847L992.736000 802.682991
L995.712000 798.521854L998.688000 793.565725L1001.664000 801.740623
L1004.640000 784.017988L1007.616000 788.803820L1013.568000 792.473165
L1016.544000 799.220939L1019.520000 791.400107L1022.496000 799.623662
L1025.472000 806.409035L1028.448000 797.295187L1031.424000 790.935056
L1034.400000 799.638742L1037.376000 805.593938L1040.352000 805.593938
L1043.328000 809.966591L1046.304000 780.278876L1049.280000 794.256768
L1052.256000 785.984556L1055.232000 810.438278L1058.208000 816.411971
L1061.184000 800.239509L1064.160000 802.511286L1067.136000 794.948816
L1070.112000 794.481955L1073.088000 803.145027L1076.064000 791.063533
L1079.040000 795.883745L1082.016000 784.583168L1084.992000 793.886616
L1087.968000 801.470801L1090.944000 810.568364L1093.920000 796.322458
L1096.896000 797.329769L1099.872000 793.857664L1102.848000 793.859674
L1105.824000 793.233372L1108.800000 804.801158L1111.776000 808.142977
L1114.752000 799.619239L1117.728000 793.107710L1120.704000 794.808074
L1123.680000 801.598474L1126.656000 806.291616L1129.632000 810.240636
L1132.608000 808.961090L1135.584000 789.155675L1138.560000 798.920355
L1141.536000 792.720468L1144.512000 806.146853L1147.488000 804.561294
L1150.464000 811.462678L1153.440000 801.436419L1156.416000 800.208144
L1159.392000 803.817774L1162.368000 796.223939L1165.344000 790.062857
L1168.320000 811.438551L1171.296000 790.656386L1174.272000 808.406365
L1177.248000 799.338358L1180.224000 805.803443L1183.200000 797.838250
L1186.176000 780.526783L1189.152000 800.133551L1192.128000 794.673565
L1195.104000 808.731278L1198.080000 805.587504L1201.056000 805.001816
L1204.032000 794.775503L1207.008000 793.304950L1209.984000 789.948253
L1212.960000 815.284628L1218.912000 795.220649L1221.888000 794.972340
L1224.864000 791.931509L1227.840000 797.006464L1230.816000 810.057269
L1233.792000 792.269491L1236.768000 805.351460L1239.744000 793.272780
L1242.720000 787.750667L1245.696000 811.773517L1248.672000 820.896414
L1251.648000 814.198703L1254.624000 808.877047L1257.600000 782.902508
L1260.576000 803.947860L1263.552000 802.330935L1266.528000 803.210573
L1269.504000 794.062343L1272.480000 812.944893L1275.456000 807.659628
L1278.432000 813.020491L1281.408000 804.382350L1284.384000 797.227429
L1287.360000 794.277276L1290.336000 800.659926L1293.312000 788.953006
L1296.288000 809.412872L1299.264000 799.136092L1302.240000 798.504562
L1305.216000 802.607795L1308.192000 802.314649L1311.168000 804.348170
L1314.144000 788.067337L1320.096000 633.329751L1323.072000 597.489399
L1326.048000 577.749529L1329.024000 575.188628L1332.000000 600.493436
L1334.976000 604.522076L1337.952000 603.233683L1358.784000 603.180000
L1448.064000 603.233884L1448.064000 603.233884"/>
</g>
<g id="line2d2">
<path style="fill: none; stroke: #008000; stroke-width: 1.000000; stroke-linejoin: round; stroke-linecap: square;  opacity: 1.000000" clip-path="url(#p1093b519e0ea38bc825f2418caa11e40)" d="M216.000000 592.207754L218.976000 599.948765L221.952000 591.855698
L224.928000 570.507147L227.904000 556.045705L230.880000 566.884046
L233.856000 562.052775L236.832000 579.365247L239.808000 578.878682
L242.784000 566.197828L245.760000 571.090221L248.736000 562.272533
L251.712000 557.568534L254.688000 556.271496L257.664000 556.084108
L260.640000 552.940535L263.616000 551.034084L266.592000 553.653896
L269.568000 565.070082L272.544000 544.126466L275.520000 553.949454
L278.496000 558.056908L281.472000 532.962208L284.448000 519.796799
L287.424000 490.778412L290.400000 480.116603L293.376000 506.540712
L296.352000 508.101541L299.328000 513.424001L302.304000 506.894980
L305.280000 522.317890L308.256000 523.111273L311.232000 510.526123
L314.208000 507.139268L317.184000 511.920474L320.160000 497.631341
L323.136000 522.253350L326.112000 506.499897L329.088000 511.293167
L332.064000 517.578504L335.040000 527.339565L338.016000 498.088351
L340.992000 497.236661L343.968000 490.261889L346.944000 511.059536
L349.920000 494.158030L352.896000 515.926193L355.872000 517.181008
L358.848000 480.599549L361.824000 488.114568L364.800000 477.542431
L367.776000 503.376028L370.752000 492.782377L373.728000 502.057878
L376.704000 476.449469L379.680000 488.936703L382.656000 469.756182
L385.632000 496.561702L388.608000 513.163226L391.584000 508.258770
L394.560000 498.509571L397.536000 496.423976L400.512000 498.315347
L403.488000 505.901542L406.464000 499.626661L409.440000 479.728557
L412.416000 483.072788L415.392000 478.889332L424.320000 498.827246
L427.296000 519.845254L430.272000 491.017875L436.224000 522.154831
L442.176000 476.185478L445.152000 493.897456L448.128000 495.574900
L451.104000 498.201548L454.080000 508.003826L457.056000 495.601440
L460.032000 498.256236L463.008000 502.893082L465.984000 500.667951
L468.960000 477.875186L471.936000 488.346994L474.912000 493.742037
L477.888000 510.683553L483.840000 489.296600L486.816000 493.632057
L489.792000 495.150261L492.768000 492.508735L495.744000 495.523428
L498.720000 511.168711L501.696000 494.266602L504.672000 512.226488
L507.648000 494.713559L510.624000 483.612433L513.600000 503.536272
L516.576000 501.650732L519.552000 503.141592L522.528000 499.851446
L525.504000 502.016058L528.480000 505.762409L531.456000 506.747402
L534.432000 504.264110L537.408000 490.411076L540.384000 506.482807
L543.360000 476.325616L546.336000 493.809794L549.312000 507.106093
L552.288000 513.254508L555.264000 520.349915L558.240000 491.300364
L561.216000 487.913709L564.192000 475.900374L567.168000 479.876738
L570.144000 485.146119L573.120000 510.066701L576.096000 508.802838
L579.072000 508.439523L582.048000 515.403035L585.024000 504.016806
L588.000000 496.051211L590.976000 499.677328L593.952000 500.745962
L596.928000 498.349729L599.904000 479.315177L602.880000 492.435951
L605.856000 502.604560L608.832000 499.998823L611.808000 482.205817
L617.760000 515.356590L620.736000 486.764853L623.712000 493.489706
L626.688000 481.338645L629.664000 492.599815L632.640000 499.953986
L635.616000 498.486450L638.592000 492.657921L641.568000 493.715899
L644.544000 492.964940L647.520000 498.952507L650.496000 509.266482
L653.472000 501.524667L656.448000 492.298627L659.424000 504.105875
L662.400000 498.626186L665.376000 451.084544L668.352000 433.407751
L671.328000 437.848563L674.304000 452.437879L680.256000 457.894647
L683.232000 465.167993L686.208000 460.032719L689.184000 469.415988
L692.160000 467.911255L695.136000 460.055640L698.112000 455.136305
L701.088000 459.745002L704.064000 466.631508L707.040000 470.060185
L710.016000 461.979583L712.992000 473.532893L715.968000 470.423902
L718.944000 469.287712L721.920000 453.637001L724.896000 451.170195
L727.872000 461.723835L733.824000 486.603401L736.800000 564.608449
L739.776000 539.655495L742.752000 570.241144L745.728000 596.198795
L748.704000 593.912944L751.680000 593.724952L754.656000 597.404149
L757.632000 598.968396L760.608000 598.958745L763.584000 590.451092
L769.536000 596.446098L772.512000 599.074757L775.488000 593.031899
L778.464000 598.765125L781.440000 601.056605L784.416000 593.554051
L787.392000 580.872996L790.368000 487.678469L793.344000 437.289616
L796.320000 438.388409L799.296000 455.248094L802.272000 462.363608
L805.248000 479.325432L808.224000 475.027171L811.200000 481.106421
L814.176000 476.504962L817.152000 461.581283L820.128000 492.679234
L823.104000 475.507302L826.080000 494.551303L829.056000 477.240640
L832.032000 471.508018L835.008000 470.138397L837.984000 452.478292
L840.960000 466.864336L843.936000 477.141116L846.912000 473.049143
L849.888000 498.073874L852.864000 480.566173L855.840000 465.437815
L858.816000 456.907443L861.792000 444.755376L864.768000 445.497288
L867.744000 454.075110L870.720000 440.553021L873.696000 430.870374
L876.672000 423.351735L879.648000 431.055550L882.624000 461.482362
L885.600000 449.191564L888.576000 444.734265L891.552000 437.413067
L894.528000 435.967044L897.504000 435.868122L900.480000 460.393421
L903.456000 459.075070L906.432000 442.540901L909.408000 449.124611
L912.384000 426.644696L915.360000 430.433872L918.336000 440.560862
L921.312000 459.867247L924.288000 465.435402L927.264000 469.023318
L930.240000 460.365071L933.216000 444.392262L936.192000 441.401695
L942.144000 377.261947L945.120000 395.482607L948.096000 410.639113
L951.072000 411.901569L954.048000 415.857827L957.024000 423.015764
L960.000000 421.182298L962.976000 414.626535L965.952000 398.851971
L968.928000 412.496506L971.904000 418.888806L974.880000 410.368285
L977.856000 421.686556L980.832000 421.678514L983.808000 409.215810
L986.784000 413.620431L989.760000 399.512051L992.736000 415.407050
L995.712000 413.375339L998.688000 426.586388L1001.664000 422.354276
L1004.640000 415.257461L1007.616000 406.038458L1010.592000 391.689208
L1013.568000 413.978519L1016.544000 412.732148L1019.520000 410.945931
L1022.496000 397.237057L1025.472000 403.920693L1028.448000 403.466499
L1031.424000 403.434932L1034.400000 402.494575L1037.376000 396.613168
L1040.352000 425.367361L1043.328000 415.929806L1046.304000 423.698161
L1049.280000 426.507975L1052.256000 422.240074L1055.232000 422.240074
L1061.184000 389.625931L1064.160000 399.345573L1067.136000 419.322493
L1070.112000 398.523439L1073.088000 417.278919L1076.064000 419.729840
L1079.040000 404.370264L1082.016000 414.386671L1084.992000 403.855952
L1087.968000 396.332689L1090.944000 423.318962L1093.920000 382.753298
L1096.896000 408.849277L1099.872000 421.151133L1102.848000 412.417690
L1105.824000 411.672763L1108.800000 399.516273L1111.776000 399.231773
L1114.752000 407.907914L1117.728000 405.896309L1120.704000 401.346924
L1123.680000 386.814106L1126.656000 405.000587L1129.632000 430.709526
L1132.608000 412.708222L1135.584000 442.527229L1138.560000 428.489622
L1141.536000 397.958259L1144.512000 390.507378L1147.488000 403.882693
L1150.464000 389.975574L1153.440000 400.643817L1156.416000 424.984543
L1159.392000 412.711037L1162.368000 427.052445L1165.344000 414.406576
L1168.320000 396.872133L1171.296000 411.627725L1174.272000 385.701641
L1177.248000 398.113880L1180.224000 430.431862L1183.200000 399.288070
L1186.176000 403.936778L1189.152000 417.637409L1192.128000 423.955116
L1195.104000 437.907675L1198.080000 428.722048L1201.056000 416.173290
L1204.032000 413.268576L1207.008000 418.658592L1209.984000 385.300929
L1212.960000 362.316956L1215.936000 412.912097L1218.912000 411.450189
L1221.888000 418.514835L1224.864000 435.142094L1227.840000 387.938434
L1230.816000 408.868579L1233.792000 440.189505L1236.768000 405.595925
L1239.744000 416.136094L1242.720000 398.478200L1245.696000 374.615595
L1248.672000 386.407764L1251.648000 441.249091L1254.624000 463.427215
L1257.600000 468.084770L1260.576000 400.633161L1263.552000 376.084338
L1266.528000 401.566683L1269.504000 423.046727L1272.480000 375.050890
L1275.456000 393.483267L1278.432000 423.963359L1281.408000 410.567938
L1284.384000 415.607306L1287.360000 413.457170L1290.336000 438.938710
L1293.312000 414.092922L1296.288000 393.246619L1299.264000 396.922800
L1302.240000 406.779364L1308.192000 430.901136L1311.168000 442.933974
L1314.144000 461.727052L1317.120000 471.158575L1320.096000 516.983768
L1323.072000 551.906885L1326.048000 494.875010L1329.024000 522.815715
L1332.000000 571.359842L1334.976000 577.621454L1337.952000 593.239594
L1340.928000 596.274192L1343.904000 597.623908L1346.880000 601.424545
L1349.856000 596.432829L1352.832000 598.240961L1355.808000 596.129831
L1358.784000 595.228881L1364.736000 598.681484L1367.712000 593.339319
L1370.688000 596.977299L1373.664000 593.203202L1376.640000 596.423982
L1379.616000 601.898846L1382.592000 597.278688L1385.568000 595.763902
L1388.544000 600.473933L1391.520000 599.129847L1394.496000 600.691480
L1397.472000 599.949167L1400.448000 595.535498L1403.424000 595.393147
L1406.400000 598.939846L1409.376000 599.243647L1412.352000 599.109138
L1415.328000 598.088156L1418.304000 601.023430L1421.280000 593.485289
L1424.256000 595.398576L1427.232000 601.076309L1430.208000 600.822169
L1433.184000 595.294427L1436.160000 596.753117L1439.136000 597.531621
L1442.112000 598.883348L1445.088000 601.986307L1448.064000 596.919595
L1448.064000 596.919595"/>
</g>
<g id="line2d3">
<path style="fill: none; stroke: #ff0000; stroke-width: 1.000000; stroke-linejoin: round; stroke-linecap: square;  opacity: 1.000000" clip-path="url(#p1093b519e0ea38bc825f2418caa11e40)" d="M216.000000 235.432011L218.976000 235.604923L221.952000 235.733199
L224.928000 216.616012L227.904000 209.998927L230.880000 212.639850
L233.856000 221.695793L239.808000 228.983414L242.784000 227.080984
L245.760000 223.764701L248.736000 219.386016L251.712000 217.405374
L254.688000 219.523340L257.664000 218.241783L260.640000 215.852185
L263.616000 219.634526L266.592000 220.714419L269.568000 220.997914
L272.544000 218.585395L275.520000 217.951654L281.472000 221.412902
L284.448000 212.486843L287.424000 201.970601L290.400000 199.076141
L293.376000 220.760462L296.352000 231.540897L299.328000 236.562773
L302.304000 232.448281L305.280000 231.524812L308.256000 225.447774
L311.232000 223.934998L314.208000 223.224653L317.184000 212.587574
L320.160000 226.996941L323.136000 227.986156L326.112000 222.417196
L329.088000 215.467759L332.064000 214.984209L335.040000 215.590204
L338.016000 223.256622L343.968000 211.155022L346.944000 210.004154
L349.920000 207.734790L352.896000 207.476428L355.872000 214.331971
L358.848000 219.366513L361.824000 208.185969L364.800000 225.893323
L367.776000 212.381890L370.752000 215.804534L373.728000 222.769856
L376.704000 222.660881L379.680000 222.216337L382.656000 217.094736
L388.608000 240.752662L391.584000 235.688363L394.560000 228.437938
L397.536000 225.969726L400.512000 224.737228L403.488000 222.999064
L406.464000 230.966268L409.440000 220.860389L412.416000 219.638145
L418.368000 226.276945L421.344000 230.481110L424.320000 236.706330
L427.296000 240.564671L430.272000 245.535276L433.248000 229.950110
L436.224000 239.595361L439.200000 241.791338L442.176000 230.974511
L445.152000 226.819204L448.128000 229.481037L451.104000 234.610279
L454.080000 235.144696L457.056000 237.525649L460.032000 233.814685
L463.008000 240.225885L465.984000 243.749863L468.960000 240.718683
L471.936000 238.810825L474.912000 241.341567L477.888000 245.403984
L480.864000 244.596527L483.840000 240.761509L486.816000 247.276657
L489.792000 252.483910L492.768000 234.842905L495.744000 229.597049
L498.720000 237.975822L501.696000 236.544074L504.672000 234.270689
L507.648000 233.803224L513.600000 237.739175L516.576000 238.896074
L519.552000 238.108723L522.528000 243.051381L525.504000 237.428537
L528.480000 242.570244L534.432000 225.083252L537.408000 226.880929
L540.384000 231.307869L543.360000 237.349520L546.336000 231.523003
L549.312000 230.624868L552.288000 257.131814L555.264000 247.680586
L558.240000 224.432220L561.216000 220.451433L564.192000 225.035802
L567.168000 239.862569L570.144000 183.769242L573.120000 239.901776
L576.096000 245.655309L579.072000 235.488509L582.048000 237.333034
L585.024000 222.072580L588.000000 223.437576L590.976000 212.955112
L593.952000 214.190424L596.928000 213.283443L599.904000 212.763703
L602.880000 218.116121L605.856000 217.387278L608.832000 225.894328
L611.808000 219.058288L614.784000 220.249770L617.760000 231.330186
L623.712000 202.017649L626.688000 208.301779L629.664000 212.921937
L632.640000 215.933816L635.616000 216.183130L638.592000 214.666333
L641.568000 211.562369L647.520000 214.959077L650.496000 213.804188
L653.472000 213.966444L656.448000 215.260265L659.424000 212.446430
L662.400000 222.015479L665.376000 216.619028L668.352000 218.748656
L671.328000 218.015390L674.304000 230.024905L677.280000 228.737719
L680.256000 249.926628L683.232000 201.992918L686.208000 239.721224
L689.184000 210.334094L692.160000 196.916354L695.136000 229.474201
L698.112000 236.358496L701.088000 213.151748L704.064000 221.833921
L707.040000 208.254530L710.016000 196.306137L712.992000 222.943571
L715.968000 215.372858L718.944000 237.896404L721.920000 206.598801
L724.896000 210.080557L727.872000 198.668592L730.848000 231.088914
L733.824000 237.303880L736.800000 256.857367L739.776000 289.672973
L742.752000 316.883026L745.728000 231.341848L748.704000 205.762994
L751.680000 205.443912L754.656000 209.125321L757.632000 210.653779
L760.608000 211.459627L763.584000 210.451312L766.560000 210.728573
L769.536000 210.014006L772.512000 210.639303L778.464000 210.368676
L784.416000 210.834532L787.392000 210.038133L790.368000 220.776949
L796.320000 208.549887L799.296000 207.952940L802.272000 208.568988
L805.248000 203.500667L808.224000 204.032069L811.200000 206.339836
L814.176000 206.033420L817.152000 213.270575L820.128000 206.489223
L823.104000 207.031683L826.080000 203.634573L829.056000 199.184110
L832.032000 215.843942L835.008000 213.888834L837.984000 210.122780
L840.960000 201.474385L846.912000 212.438186L849.888000 208.663687
L852.864000 206.291782L855.840000 210.275786L858.816000 207.471602
L861.792000 210.869717L864.768000 215.882545L867.744000 216.607769
L873.696000 209.426911L876.672000 212.577521L879.648000 210.435026
L882.624000 209.601029L885.600000 211.925483L888.576000 217.685651
L891.552000 218.915334L894.528000 212.690919L897.504000 205.425214
L900.480000 211.245901L903.456000 206.541901L906.432000 218.477024
L909.408000 211.542263L912.384000 208.573009L915.360000 213.140489
L918.336000 211.105360L921.312000 210.469206L924.288000 216.459588
L927.264000 209.933783L930.240000 227.724376L933.216000 232.766961
L936.192000 234.193080L939.168000 228.364752L942.144000 210.529524
L945.120000 213.220913L948.096000 211.738498L951.072000 211.415595
L954.048000 213.668674L957.024000 211.271033L960.000000 209.324169
L962.976000 212.253412L965.952000 213.884210L968.928000 204.303500
L971.904000 208.172095L974.880000 217.052312L977.856000 219.154596
L980.832000 216.179109L983.808000 215.319979L989.760000 226.326004
L992.736000 217.901188L995.712000 205.596517L998.688000 216.390825
L1001.664000 213.752516L1007.616000 226.602863L1010.592000 216.066716
L1013.568000 222.340794L1016.544000 222.091881L1019.520000 217.595174
L1022.496000 224.731598L1025.472000 224.930044L1028.448000 221.142476
L1031.424000 228.103575L1034.400000 220.861796L1037.376000 220.451232
L1040.352000 215.651728L1043.328000 214.466279L1046.304000 222.285904
L1049.280000 222.285904L1052.256000 229.415090L1055.232000 229.415090
L1058.208000 308.917029L1061.184000 277.042786L1064.160000 281.417650
L1067.136000 303.757226L1070.112000 292.670978L1073.088000 300.357100
L1076.064000 284.482006L1079.040000 325.302011L1082.016000 280.027119
L1084.992000 318.610332L1087.968000 278.739330L1090.944000 304.976051
L1093.920000 252.395645L1096.896000 288.562518L1099.872000 292.782165
L1102.848000 258.950804L1105.824000 263.175074L1108.800000 299.465399
L1111.776000 287.155500L1114.752000 285.734207L1117.728000 292.016126
L1120.704000 285.230753L1123.680000 292.868017L1126.656000 283.961863
L1129.632000 273.649697L1132.608000 266.168858L1135.584000 290.074087
L1138.560000 295.598412L1141.536000 271.067282L1144.512000 297.085050
L1147.488000 300.852311L1150.464000 279.533316L1153.440000 264.594558
L1156.416000 241.255714L1159.392000 295.793641L1162.368000 290.570505
L1165.344000 281.428507L1168.320000 277.744083L1171.296000 280.458192
L1174.272000 269.073974L1177.248000 312.579336L1180.224000 323.765511
L1183.200000 310.361645L1186.176000 317.502291L1189.152000 297.215538
L1192.128000 313.038557L1195.104000 326.274337L1198.080000 321.789091
L1201.056000 260.997393L1204.032000 275.010672L1207.008000 285.650767
L1209.984000 281.860183L1212.960000 280.867952L1215.936000 308.958246
L1218.912000 268.516032L1221.888000 254.733771L1224.864000 286.693867
L1227.840000 273.661359L1230.816000 266.303568L1233.792000 273.612903
L1236.768000 306.094146L1239.744000 310.267951L1242.720000 298.442406
L1245.696000 294.969697L1248.672000 285.803774L1251.648000 304.882559
L1254.624000 312.179026L1257.600000 333.675557L1260.576000 324.815647
L1263.552000 320.333014L1266.528000 288.528137L1269.504000 272.295759
L1272.480000 285.055630L1275.456000 324.481686L1278.432000 290.564071
L1281.408000 309.661152L1284.384000 275.873421L1287.360000 305.679761
L1290.336000 280.082813L1293.312000 305.754757L1296.288000 326.218040
L1302.240000 284.755648L1305.216000 284.244755L1308.192000 294.957634
L1311.168000 296.546209L1314.144000 290.984487L1317.120000 296.095231
L1320.096000 338.436055L1323.072000 248.565854L1326.048000 169.675740
L1329.024000 200.939364L1332.000000 375.552736L1334.976000 376.578142
L1337.952000 356.803891L1340.928000 339.996682L1343.904000 331.235493
L1346.880000 331.494056L1349.856000 330.937924L1352.832000 331.697730
L1358.784000 331.787000L1364.736000 332.916756L1370.688000 333.243881
L1373.664000 331.409008L1376.640000 334.721471L1379.616000 332.971847
L1388.544000 332.332476L1391.520000 334.183233L1394.496000 331.854758
L1397.472000 333.803833L1400.448000 332.079744L1406.400000 333.773071
L1409.376000 333.115404L1412.352000 333.278262L1415.328000 332.778427
L1418.304000 332.929825L1421.280000 333.512899L1424.256000 332.721125
L1427.232000 333.476508L1430.208000 333.343205L1436.160000 335.143898
L1439.136000 333.530995L1442.112000 333.993433L1445.088000 333.007032
L1448.064000 333.507672L1448.064000 333.507672"/>
</g>
<g id="matplotlib.axis1">
<g id="xtick1">
<g id="line2d4">
<defs><path id="m30e32995789d870ad79a2e54c91cf9c6" d="M0.000000 0.000000L0.000000 -4.000000"/></defs>
<g ><use style="fill: none; stroke: #000000; stroke-width: 0.500000; stroke-linejoin: round; stroke-linecap: butt;  opacity: 1.000000" xlink:href="#m30e32995789d870ad79a2e54c91cf9c6" x="216.000000" y="904.770000"/>
</g></g>
<g id="line2d5">
<defs><path id="m9281cae24120827b11d5ea8a7ad3e96b" d="M0.000000 0.000000L0.000000 4.000000"/></defs>
<g ><use style="fill: none; stroke: #000000; stroke-width: 0.500000; stroke-linejoin: round; stroke-linecap: butt;  opacity: 1.000000" xlink:href="#m9281cae24120827b11d5ea8a7ad3e96b" x="216.000000" y="100.530000"/>
</g></g>
<g id="text1">
<defs>
<path id="c_7a2040fe3b94fcd41d0a72c84e93b115" d="M31.781250 -66.406250q-7.609375 0.000000 -11.453125 7.500000q-3.828125 7.484375 -3.828125 22.531250q0.000000 14.984375 3.828125 22.484375q3.843750 7.500000 11.453125 7.500000q7.671875 0.000000 11.500000 -7.500000q3.843750 -7.500000 3.843750 -22.484375q0.000000 -15.046875 -3.843750 -22.531250q-3.828125 -7.500000 -11.500000 -7.500000M31.781250 -74.218750q12.265625 0.000000 18.734375 9.703125q6.468750 9.687500 6.468750 28.140625q0.000000 18.406250 -6.468750 28.109375q-6.468750 9.687500 -18.734375 9.687500q-12.250000 0.000000 -18.718750 -9.687500q-6.468750 -9.703125 -6.468750 -28.109375q0.000000 -18.453125 6.468750 -28.140625q6.468750 -9.703125 18.718750 -9.703125"/>
</defs>
<g style="fill: #000000; opacity: 1.000000" transform="translate(212.976562,917.676250)scale(0.120000)">
<use xlink:href="#c_7a2040fe3b94fcd41d0a72c84e93b115"/>
</g>
</g>
</g>
<g id="xtick2">
<g id="line2d6">
<g ><use style="fill: none; stroke: #000000; stroke-width: 0.500000; stroke-linejoin: round; stroke-linecap: butt;  opacity: 1.000000" xlink:href="#m30e32995789d870ad79a2e54c91cf9c6" x="364.800000" y="904.770000"/>
</g></g>
<g id="line2d7">
<g ><use style="fill: none; stroke: #000000; stroke-width: 0.500000; stroke-linejoin: round; stroke-linecap: butt;  opacity: 1.000000" xlink:href="#m9281cae24120827b11d5ea8a7ad3e96b" x="364.800000" y="100.530000"/>
</g></g>
<g id="text2">
<defs>
<path id="c_1260a2df50f305f3db244e29828f968e" d="M10.796875 -72.906250l38.718750 0.000000l0.000000 8.312500l-29.687500 0.000000l0.000000 17.859375q2.140625 -0.734375 4.281250 -1.093750q2.156250 -0.359375 4.312500 -0.359375q12.203125 0.000000 19.328125 6.687500q7.140625 6.687500 7.140625 18.109375q0.000000 11.765625 -7.328125 18.296875q-7.328125 6.515625 -20.656250 6.515625q-4.593750 0.000000 -9.359375 -0.781250q-4.750000 -0.781250 -9.828125 -2.343750l0.000000 -9.921875q4.390625 2.390625 9.078125 3.562500q4.687500 1.171875 9.906250 1.171875q8.453125 0.000000 13.375000 -4.437500q4.937500 -4.437500 4.937500 -12.062500q0.000000 -7.609375 -4.937500 -12.046875q-4.921875 -4.453125 -13.375000 -4.453125q-3.953125 0.000000 -7.890625 0.875000q-3.921875 0.875000 -8.015625 2.734375z"/>
</defs>
<g style="fill: #000000; opacity: 1.000000" transform="translate(358.018750,917.676250)scale(0.120000)">
<use xlink:href="#c_1260a2df50f305f3db244e29828f968e"/>
<use xlink:href="#c_7a2040fe3b94fcd41d0a72c84e93b115" x="63.623047"/>
</g>
</g>
</g>
<g id="xtick3">
<g id="line2d8">
<g ><use style="fill: none; stroke: #000000; stroke-width: 0.500000; stroke-linejoin: round; stroke-linecap: butt;  opacity: 1.000000" xlink:href="#m30e32995789d870ad79a2e54c91cf9c6" x="513.600000" y="904.770000"/>
</g></g>
<g id="line2d9">
<g ><use style="fill: none; stroke: #000000; stroke-width: 0.500000; stroke-linejoin: round; stroke-linecap: butt;  opacity: 1.000000" xlink:href="#m9281cae24120827b11d5ea8a7ad3e96b" x="513.600000" y="100.530000"/>
</g></g>
<g id="text3">
<defs>
<path id="c_42baa63129a918535c52adb20d687ea7" d="M12.406250 -8.296875l16.109375 0.000000l0.000000 -55.625000l-17.531250 3.515625l0.000000 -8.984375l17.437500 -3.515625l9.859375 0.000000l0.000000 64.609375l16.109375 0.000000l0.000000 8.296875l-41.984375 0.000000z"/>
</defs>
<g style="fill: #000000; opacity: 1.000000" transform="translate(503.193750,917.676250)scale(0.120000)">
<use xlink:href="#c_42baa63129a918535c52adb20d687ea7"/>
<use xlink:href="#c_7a2040fe3b94fcd41d0a72c84e93b115" x="63.623047"/>
<use xlink:href="#c_7a2040fe3b94fcd41d0a72c84e93b115" x="127.246094"/>
</g>
</g>
</g>
<g id="xtick4">
<g id="line2d10">
<g ><use style="fill: none; stroke: #000000; stroke-width: 0.500000; stroke-linejoin: round; stroke-linecap: butt;  opacity: 1.000000" xlink:href="#m30e32995789d870ad79a2e54c91cf9c6" x="662.400000" y="904.770000"/>
</g></g>
<g id="line2d11">
<g ><use style="fill: none; stroke: #000000; stroke-width: 0.500000; stroke-linejoin: round; stroke-linecap: butt;  opacity: 1.000000" xlink:href="#m9281cae24120827b11d5ea8a7ad3e96b" x="662.400000" y="100.530000"/>
</g></g>
<g id="text4">
<g style="fill: #000000; opacity: 1.000000" transform="translate(651.993750,917.676250)scale(0.120000)">
<use xlink:href="#c_42baa63129a918535c52adb20d687ea7"/>
<use xlink:href="#c_1260a2df50f305f3db244e29828f968e" x="63.623047"/>
<use xlink:href="#c_7a2040fe3b94fcd41d0a72c84e93b115" x="127.246094"/>
</g>
</g>
</g>
<g id="xtick5">
<g id="line2d12">
<g ><use style="fill: none; stroke: #000000; stroke-width: 0.500000; stroke-linejoin: round; stroke-linecap: butt;  opacity: 1.000000" xlink:href="#m30e32995789d870ad79a2e54c91cf9c6" x="811.200000" y="904.770000"/>
</g></g>
<g id="line2d13">
<g ><use style="fill: none; stroke: #000000; stroke-width: 0.500000; stroke-linejoin: round; stroke-linecap: butt;  opacity: 1.000000" xlink:href="#m9281cae24120827b11d5ea8a7ad3e96b" x="811.200000" y="100.530000"/>
</g></g>
<g id="text5">
<defs>
<path id="c_ed3f3ed3ebfbd18bcb9c012009a68ad1" d="M19.187500 -8.296875l34.421875 0.000000l0.000000 8.296875l-46.281250 0.000000l0.000000 -8.296875q5.609375 -5.812500 15.296875 -15.593750q9.703125 -9.796875 12.187500 -12.640625q4.734375 -5.312500 6.609375 -9.000000q1.890625 -3.687500 1.890625 -7.250000q0.000000 -5.812500 -4.078125 -9.468750q-4.078125 -3.671875 -10.625000 -3.671875q-4.640625 0.000000 -9.796875 1.609375q-5.140625 1.609375 -11.000000 4.890625l0.000000 -9.968750q5.953125 -2.390625 11.125000 -3.609375q5.187500 -1.218750 9.484375 -1.218750q11.328125 0.000000 18.062500 5.671875q6.734375 5.656250 6.734375 15.125000q0.000000 4.500000 -1.687500 8.531250q-1.671875 4.015625 -6.125000 9.484375q-1.218750 1.421875 -7.765625 8.187500q-6.531250 6.765625 -18.453125 18.921875"/>
</defs>
<g style="fill: #000000; opacity: 1.000000" transform="translate(800.575000,917.676250)scale(0.120000)">
<use xlink:href="#c_ed3f3ed3ebfbd18bcb9c012009a68ad1"/>
<use xlink:href="#c_7a2040fe3b94fcd41d0a72c84e93b115" x="63.623047"/>
<use xlink:href="#c_7a2040fe3b94fcd41d0a72c84e93b115" x="127.246094"/>
</g>
</g>
</g>
<g id="xtick6">
<g id="line2d14">
<g ><use style="fill: none; stroke: #000000; stroke-width: 0.500000; stroke-linejoin: round; stroke-linecap: butt;  opacity: 1.000000" xlink:href="#m30e32995789d870ad79a2e54c91cf9c6" x="960.000000" y="904.770000"/>
</g></g>
<g id="line2d15">
<g ><use style="fill: none; stroke: #000000; stroke-width: 0.500000; stroke-linejoin: round; stroke-linecap: butt;  opacity: 1.000000" xlink:href="#m9281cae24120827b11d5ea8a7ad3e96b" x="960.000000" y="100.530000"/>
</g></g>
<g id="text6">
<g style="fill: #000000; opacity: 1.000000" transform="translate(949.375000,917.676250)scale(0.120000)">
<use xlink:href="#c_ed3f3ed3ebfbd18bcb9c012009a68ad1"/>
<use xlink:href="#c_1260a2df50f305f3db244e29828f968e" x="63.623047"/>
<use xlink:href="#c_7a2040fe3b94fcd41d0a72c84e93b115" x="127.246094"/>
</g>
</g>
</g>
<g id="xtick7">
<g id="line2d16">
<g ><use style="fill: none; stroke: #000000; stroke-width: 0.500000; stroke-linejoin: round; stroke-linecap: butt;  opacity: 1.000000" xlink:href="#m30e32995789d870ad79a2e54c91cf9c6" x="1108.800000" y="904.770000"/>
</g></g>
<g id="line2d17">
<g ><use style="fill: none; stroke: #000000; stroke-width: 0.500000; stroke-linejoin: round; stroke-linecap: butt;  opacity: 1.000000" xlink:href="#m9281cae24120827b11d5ea8a7ad3e96b" x="1108.800000" y="100.530000"/>
</g></g>
<g id="text7">
<defs>
<path id="c_3dcfa38a02242cb63ec6726c6e70be7a" d="M40.578125 -39.312500q7.078125 1.515625 11.046875 6.312500q3.984375 4.781250 3.984375 11.812500q0.000000 10.781250 -7.421875 16.703125q-7.421875 5.906250 -21.093750 5.906250q-4.578125 0.000000 -9.437500 -0.906250q-4.859375 -0.906250 -10.031250 -2.718750l0.000000 -9.515625q4.093750 2.390625 8.968750 3.609375q4.890625 1.218750 10.218750 1.218750q9.265625 0.000000 14.125000 -3.656250q4.859375 -3.656250 4.859375 -10.640625q0.000000 -6.453125 -4.515625 -10.078125q-4.515625 -3.640625 -12.562500 -3.640625l-8.500000 0.000000l0.000000 -8.109375l8.890625 0.000000q7.265625 0.000000 11.125000 -2.906250q3.859375 -2.906250 3.859375 -8.375000q0.000000 -5.609375 -3.984375 -8.609375q-3.968750 -3.015625 -11.390625 -3.015625q-4.062500 0.000000 -8.703125 0.890625q-4.640625 0.875000 -10.203125 2.718750l0.000000 -8.781250q5.625000 -1.562500 10.531250 -2.343750q4.906250 -0.781250 9.250000 -0.781250q11.234375 0.000000 17.765625 5.109375q6.546875 5.093750 6.546875 13.781250q0.000000 6.062500 -3.468750 10.234375q-3.468750 4.171875 -9.859375 5.781250"/>
</defs>
<g style="fill: #000000; opacity: 1.000000" transform="translate(1098.198437,917.676250)scale(0.120000)">
<use xlink:href="#c_3dcfa38a02242cb63ec6726c6e70be7a"/>
<use xlink:href="#c_7a2040fe3b94fcd41d0a72c84e93b115" x="63.623047"/>
<use xlink:href="#c_7a2040fe3b94fcd41d0a72c84e93b115" x="127.246094"/>
</g>
</g>
</g>
<g id="xtick8">
<g id="line2d18">
<g ><use style="fill: none; stroke: #000000; stroke-width: 0.500000; stroke-linejoin: round; stroke-linecap: butt;  opacity: 1.000000" xlink:href="#m30e32995789d870ad79a2e54c91cf9c6" x="1257.600000" y="904.770000"/>
</g></g>
<g id="line2d19">
<g ><use style="fill: none; stroke: #000000; stroke-width: 0.500000; stroke-linejoin: round; stroke-linecap: butt;  opacity: 1.000000" xlink:href="#m9281cae24120827b11d5ea8a7ad3e96b" x="1257.600000" y="100.530000"/>
</g></g>
<g id="text8">
<g style="fill: #000000; opacity: 1.000000" transform="translate(1246.998437,917.676250)scale(0.120000)">
<use xlink:href="#c_3dcfa38a02242cb63ec6726c6e70be7a"/>
<use xlink:href="#c_1260a2df50f305f3db244e29828f968e" x="63.623047"/>
<use xlink:href="#c_7a2040fe3b94fcd41d0a72c84e93b115" x="127.246094"/>
</g>
</g>
</g>
<g id="xtick9">
<g id="line2d20">
<g ><use style="fill: none; stroke: #000000; stroke-width: 0.500000; stroke-linejoin: round; stroke-linecap: butt;  opacity: 1.000000" xlink:href="#m30e32995789d870ad79a2e54c91cf9c6" x="1406.400000" y="904.770000"/>
</g></g>
<g id="line2d21">
<g ><use style="fill: none; stroke: #000000; stroke-width: 0.500000; stroke-linejoin: round; stroke-linecap: butt;  opacity: 1.000000" xlink:href="#m9281cae24120827b11d5ea8a7ad3e96b" x="1406.400000" y="100.530000"/>
</g></g>
<g id="text9">
<defs>
<path id="c_a0416418d96557a09b8c1332d34883ba" d="M37.796875 -64.312500l-24.906250 38.921875l24.906250 0.000000zM35.203125 -72.906250l12.406250 0.000000l0.000000 47.515625l10.406250 0.000000l0.000000 8.203125l-10.406250 0.000000l0.000000 17.187500l-9.812500 0.000000l0.000000 -17.187500l-32.906250 0.000000l0.000000 -9.515625z"/>
</defs>
<g style="fill: #000000; opacity: 1.000000" transform="translate(1395.634375,917.676250)scale(0.120000)">
<use xlink:href="#c_a0416418d96557a09b8c1332d34883ba"/>
<use xlink:href="#c_7a2040fe3b94fcd41d0a72c84e93b115" x="63.623047"/>
<use xlink:href="#c_7a2040fe3b94fcd41d0a72c84e93b115" x="127.246094"/>
</g>
</g>
</g>
<g id="xtick10">
<g id="line2d22">
<g ><use style="fill: none; stroke: #000000; stroke-width: 0.500000; stroke-linejoin: round; stroke-linecap: butt;  opacity: 1.000000" xlink:href="#m30e32995789d870ad79a2e54c91cf9c6" x="1555.200000" y="904.770000"/>
</g></g>
<g id="line2d23">
<g ><use style="fill: none; stroke: #000000; stroke-width: 0.500000; stroke-linejoin: round; stroke-linecap: butt;  opacity: 1.000000" xlink:href="#m9281cae24120827b11d5ea8a7ad3e96b" x="1555.200000" y="100.530000"/>
</g></g>
<g id="text10">
<g style="fill: #000000; opacity: 1.000000" transform="translate(1544.434375,917.676250)scale(0.120000)">
<use xlink:href="#c_a0416418d96557a09b8c1332d34883ba"/>
<use xlink:href="#c_1260a2df50f305f3db244e29828f968e" x="63.623047"/>
<use xlink:href="#c_7a2040fe3b94fcd41d0a72c84e93b115" x="127.246094"/>
</g>
</g>
</g>
<g id="text11">
<defs>
<path id="c_9e4b30cbdf32072672ded72e9074c4c9" d="M-0.296875 -72.906250l61.671875 0.000000l0.000000 8.312500l-25.875000 0.000000l0.000000 64.593750l-9.906250 0.000000l0.000000 -64.593750l-25.890625 0.000000z"/>
<path id="c_6a63bda47b2f3da1cec6aadd80692cfe" d="M9.421875 -54.687500l8.984375 0.000000l0.000000 54.687500l-8.984375 0.000000zM9.421875 -75.984375l8.984375 0.000000l0.000000 11.390625l-8.984375 0.000000z"/>
<path id="c_4653c6dfde66c7610eae0911760d3490" d="M52.000000 -44.187500q3.375000 -6.062500 8.062500 -8.937500q4.687500 -2.875000 11.031250 -2.875000q8.546875 0.000000 13.187500 5.984375q4.640625 5.968750 4.640625 17.000000l0.000000 33.015625l-9.031250 0.000000l0.000000 -32.718750q0.000000 -7.859375 -2.796875 -11.656250q-2.781250 -3.812500 -8.484375 -3.812500q-6.984375 0.000000 -11.046875 4.640625q-4.046875 4.625000 -4.046875 12.640625l0.000000 30.906250l-9.031250 0.000000l0.000000 -32.718750q0.000000 -7.906250 -2.781250 -11.687500q-2.781250 -3.781250 -8.593750 -3.781250q-6.890625 0.000000 -10.953125 4.656250q-4.046875 4.656250 -4.046875 12.625000l0.000000 30.906250l-9.031250 0.000000l0.000000 -54.687500l9.031250 0.000000l0.000000 8.500000q3.078125 -5.031250 7.375000 -7.421875q4.296875 -2.390625 10.203125 -2.390625q5.968750 0.000000 10.140625 3.031250q4.171875 3.015625 6.171875 8.781250"/>
<path id="c_0bce5afba2dc6b9024b26277c38ad8e8" d="M56.203125 -29.593750l0.000000 4.390625l-41.312500 0.000000q0.593750 9.281250 5.593750 14.140625q5.000000 4.859375 13.937500 4.859375q5.171875 0.000000 10.031250 -1.265625q4.859375 -1.265625 9.656250 -3.812500l0.000000 8.500000q-4.843750 2.046875 -9.921875 3.125000q-5.078125 1.078125 -10.296875 1.078125q-13.093750 0.000000 -20.734375 -7.609375q-7.640625 -7.625000 -7.640625 -20.625000q0.000000 -13.421875 7.250000 -21.296875q7.250000 -7.890625 19.562500 -7.890625q11.031250 0.000000 17.453125 7.109375q6.421875 7.093750 6.421875 19.296875M47.218750 -32.234375q-0.093750 -7.359375 -4.125000 -11.750000q-4.031250 -4.406250 -10.671875 -4.406250q-7.515625 0.000000 -12.031250 4.250000q-4.515625 4.250000 -5.203125 11.968750z"/>
<path id="c_d41d8cd98f00b204e9800998ecf8427e" d=""/>
<path id="c_7efa9804c2b4c09a4b614b91fdebee3d" d="M31.000000 -75.875000q-6.531250 11.218750 -9.718750 22.218750q-3.171875 10.984375 -3.171875 22.265625q0.000000 11.265625 3.203125 22.328125q3.203125 11.062500 9.687500 22.250000l-7.812500 0.000000q-7.312500 -11.484375 -10.953125 -22.562500q-3.640625 -11.078125 -3.640625 -22.015625q0.000000 -10.890625 3.609375 -21.921875q3.625000 -11.046875 10.984375 -22.562500z"/>
<path id="c_9c6d5cbc59c6231647eb409cc6b37bb3" d="M25.390625 -72.906250l8.296875 0.000000l-25.390625 82.187500l-8.296875 0.000000z"/>
<path id="c_0f8c41144cfbf448378cb6fd1cc8e549" d="M18.312500 -70.218750l0.000000 15.531250l18.500000 0.000000l0.000000 6.984375l-18.500000 0.000000l0.000000 29.687500q0.000000 6.687500 1.828125 8.593750q1.828125 1.906250 7.453125 1.906250l9.218750 0.000000l0.000000 7.515625l-9.218750 0.000000q-10.406250 0.000000 -14.359375 -3.875000q-3.953125 -3.890625 -3.953125 -14.140625l0.000000 -29.687500l-6.593750 0.000000l0.000000 -6.984375l6.593750 0.000000l0.000000 -15.531250z"/>
<path id="c_74d54c94aa871ec39e2bc6697dde6c00" d="M54.890625 -33.015625l0.000000 33.015625l-8.984375 0.000000l0.000000 -32.718750q0.000000 -7.765625 -3.031250 -11.609375q-3.031250 -3.859375 -9.078125 -3.859375q-7.281250 0.000000 -11.484375 4.640625q-4.203125 4.625000 -4.203125 12.640625l0.000000 30.906250l-9.031250 0.000000l0.000000 -75.984375l9.031250 0.000000l0.000000 29.796875q3.234375 -4.937500 7.593750 -7.375000q4.375000 -2.437500 10.093750 -2.437500q9.421875 0.000000 14.250000 5.828125q4.843750 5.828125 4.843750 17.156250"/>
<path id="c_8e0810ad13fe20a2a87a2619799b154d" d="M44.281250 -53.078125l0.000000 8.500000q-3.796875 -1.953125 -7.906250 -2.921875q-4.093750 -0.984375 -8.500000 -0.984375q-6.687500 0.000000 -10.031250 2.046875q-3.343750 2.046875 -3.343750 6.156250q0.000000 3.125000 2.390625 4.906250q2.390625 1.781250 9.625000 3.390625l3.078125 0.687500q9.562500 2.046875 13.593750 5.781250q4.031250 3.734375 4.031250 10.421875q0.000000 7.625000 -6.031250 12.078125q-6.031250 4.437500 -16.578125 4.437500q-4.390625 0.000000 -9.156250 -0.859375q-4.765625 -0.859375 -10.031250 -2.562500l0.000000 -9.281250q4.984375 2.593750 9.812500 3.890625q4.828125 1.281250 9.578125 1.281250q6.343750 0.000000 9.750000 -2.171875q3.421875 -2.171875 3.421875 -6.125000q0.000000 -3.656250 -2.468750 -5.609375q-2.453125 -1.953125 -10.812500 -3.765625l-3.125000 -0.734375q-8.343750 -1.750000 -12.062500 -5.390625q-3.703125 -3.640625 -3.703125 -9.984375q0.000000 -7.718750 5.468750 -11.906250q5.468750 -4.203125 15.531250 -4.203125q4.968750 0.000000 9.359375 0.734375q4.406250 0.718750 8.109375 2.187500"/>
<path id="c_e96974be642f6eac0427d72f9cec6c19" d="M8.015625 -75.875000l7.812500 0.000000q7.312500 11.515625 10.953125 22.562500q3.640625 11.031250 3.640625 21.921875q0.000000 10.937500 -3.640625 22.015625q-3.640625 11.078125 -10.953125 22.562500l-7.812500 0.000000q6.484375 -11.187500 9.687500 -22.250000q3.203125 -11.062500 3.203125 -22.328125q0.000000 -11.281250 -3.203125 -22.265625q-3.203125 -11.000000 -9.687500 -22.218750"/>
</defs>
<g style="fill: #000000; opacity: 1.000000" transform="translate(840.154688,931.973125)scale(0.120000)">
<use xlink:href="#c_9e4b30cbdf32072672ded72e9074c4c9"/>
<use xlink:href="#c_6a63bda47b2f3da1cec6aadd80692cfe" x="57.958984"/>
<use xlink:href="#c_4653c6dfde66c7610eae0911760d3490" x="85.742187"/>
<use xlink:href="#c_0bce5afba2dc6b9024b26277c38ad8e8" x="183.154297"/>
<use xlink:href="#c_d41d8cd98f00b204e9800998ecf8427e" x="244.677734"/>
<use xlink:href="#c_7efa9804c2b4c09a4b614b91fdebee3d" x="276.464844"/>
<use xlink:href="#c_42baa63129a918535c52adb20d687ea7" x="315.478516"/>
<use xlink:href="#c_9c6d5cbc59c6231647eb409cc6b37bb3" x="379.101562"/>
<use xlink:href="#c_42baa63129a918535c52adb20d687ea7" x="412.792969"/>
<use xlink:href="#c_7a2040fe3b94fcd41d0a72c84e93b115" x="476.416016"/>
<use xlink:href="#c_0f8c41144cfbf448378cb6fd1cc8e549" x="540.039062"/>
<use xlink:href="#c_74d54c94aa871ec39e2bc6697dde6c00" x="579.248047"/>
<use xlink:href="#c_d41d8cd98f00b204e9800998ecf8427e" x="642.626953"/>
<use xlink:href="#c_8e0810ad13fe20a2a87a2619799b154d" x="674.414062"/>
<use xlink:href="#c_e96974be642f6eac0427d72f9cec6c19" x="726.513672"/>
</g>
</g>
</g>
<g id="matplotlib.axis2">
<g id="ytick1">
<g id="line2d24">
<defs><path id="m3400efa6b1638b3fea9e19e898273957" d="M0.000000 0.000000L4.000000 0.000000"/></defs>
<g ><use style="fill: none; stroke: #000000; stroke-width: 0.500000; stroke-linejoin: round; stroke-linecap: butt;  opacity: 1.000000" xlink:href="#m3400efa6b1638b3fea9e19e898273957" x="216.000000" y="904.770000"/>
</g></g>
<g id="line2d25">
<defs><path id="m20b58b2501143cb5e0a5e8f1ef6f1643" d="M0.000000 0.000000L-4.000000 0.000000"/></defs>
<g ><use style="fill: none; stroke: #000000; stroke-width: 0.500000; stroke-linejoin: round; stroke-linecap: butt;  opacity: 1.000000" xlink:href="#m20b58b2501143cb5e0a5e8f1ef6f1643" x="1555.200000" y="904.770000"/>
</g></g>
<g id="text12">
<defs>
<path id="c_6a8d56c819c37117ab4cf023bec22a5a" d="M10.593750 -35.500000l62.593750 0.000000l0.000000 8.296875l-62.593750 0.000000z"/>
<path id="c_ed3e21196fb739f392806f09ca0594ef" d="M10.687500 -12.406250l10.312500 0.000000l0.000000 12.406250l-10.312500 0.000000z"/>
</defs>
<g style="fill: #000000; opacity: 1.000000" transform="translate(185.156250,909.059063)scale(0.120000)">
<use xlink:href="#c_6a8d56c819c37117ab4cf023bec22a5a"/>
<use xlink:href="#c_42baa63129a918535c52adb20d687ea7" x="83.789062"/>
<use xlink:href="#c_ed3e21196fb739f392806f09ca0594ef" x="147.412109"/>
<use xlink:href="#c_1260a2df50f305f3db244e29828f968e" x="179.199219"/>
</g>
</g>
</g>
<g id="ytick2">
<g id="line2d26">
<g ><use style="fill: none; stroke: #000000; stroke-width: 0.500000; stroke-linejoin: round; stroke-linecap: butt;  opacity: 1.000000" xlink:href="#m3400efa6b1638b3fea9e19e898273957" x="216.000000" y="804.240000"/>
</g></g>
<g id="line2d27">
<g ><use style="fill: none; stroke: #000000; stroke-width: 0.500000; stroke-linejoin: round; stroke-linecap: butt;  opacity: 1.000000" xlink:href="#m20b58b2501143cb5e0a5e8f1ef6f1643" x="1555.200000" y="804.240000"/>
</g></g>
<g id="text13">
<g style="fill: #000000; opacity: 1.000000" transform="translate(184.906250,808.607188)scale(0.120000)">
<use xlink:href="#c_6a8d56c819c37117ab4cf023bec22a5a"/>
<use xlink:href="#c_42baa63129a918535c52adb20d687ea7" x="83.789062"/>
<use xlink:href="#c_ed3e21196fb739f392806f09ca0594ef" x="147.412109"/>
<use xlink:href="#c_7a2040fe3b94fcd41d0a72c84e93b115" x="179.199219"/>
</g>
</g>
</g>
<g id="ytick3">
<g id="line2d28">
<g ><use style="fill: none; stroke: #000000; stroke-width: 0.500000; stroke-linejoin: round; stroke-linecap: butt;  opacity: 1.000000" xlink:href="#m3400efa6b1638b3fea9e19e898273957" x="216.000000" y="703.710000"/>
</g></g>
<g id="line2d29">
<g ><use style="fill: none; stroke: #000000; stroke-width: 0.500000; stroke-linejoin: round; stroke-linecap: butt;  opacity: 1.000000" xlink:href="#m20b58b2501143cb5e0a5e8f1ef6f1643" x="1555.200000" y="703.710000"/>
</g></g>
<g id="text14">
<g style="fill: #000000; opacity: 1.000000" transform="translate(185.156250,708.077188)scale(0.120000)">
<use xlink:href="#c_6a8d56c819c37117ab4cf023bec22a5a"/>
<use xlink:href="#c_7a2040fe3b94fcd41d0a72c84e93b115" x="83.789062"/>
<use xlink:href="#c_ed3e21196fb739f392806f09ca0594ef" x="147.412109"/>
<use xlink:href="#c_1260a2df50f305f3db244e29828f968e" x="179.199219"/>
</g>
</g>
</g>
<g id="ytick4">
<g id="line2d30">
<g ><use style="fill: none; stroke: #000000; stroke-width: 0.500000; stroke-linejoin: round; stroke-linecap: butt;  opacity: 1.000000" xlink:href="#m3400efa6b1638b3fea9e19e898273957" x="216.000000" y="603.180000"/>
</g></g>
<g id="line2d31">
<g ><use style="fill: none; stroke: #000000; stroke-width: 0.500000; stroke-linejoin: round; stroke-linecap: butt;  opacity: 1.000000" xlink:href="#m20b58b2501143cb5e0a5e8f1ef6f1643" x="1555.200000" y="603.180000"/>
</g></g>
<g id="text15">
<g style="fill: #000000; opacity: 1.000000" transform="translate(194.500000,607.547188)scale(0.120000)">
<use xlink:href="#c_7a2040fe3b94fcd41d0a72c84e93b115"/>
<use xlink:href="#c_ed3e21196fb739f392806f09ca0594ef" x="63.623047"/>
<use xlink:href="#c_7a2040fe3b94fcd41d0a72c84e93b115" x="95.410156"/>
</g>
</g>
</g>
<g id="ytick5">
<g id="line2d32">
<g ><use style="fill: none; stroke: #000000; stroke-width: 0.500000; stroke-linejoin: round; stroke-linecap: butt;  opacity: 1.000000" xlink:href="#m3400efa6b1638b3fea9e19e898273957" x="216.000000" y="502.650000"/>
</g></g>
<g id="line2d33">
<g ><use style="fill: none; stroke: #000000; stroke-width: 0.500000; stroke-linejoin: round; stroke-linecap: butt;  opacity: 1.000000" xlink:href="#m20b58b2501143cb5e0a5e8f1ef6f1643" x="1555.200000" y="502.650000"/>
</g></g>
<g id="text16">
<g style="fill: #000000; opacity: 1.000000" transform="translate(194.750000,507.017188)scale(0.120000)">
<use xlink:href="#c_7a2040fe3b94fcd41d0a72c84e93b115"/>
<use xlink:href="#c_ed3e21196fb739f392806f09ca0594ef" x="63.623047"/>
<use xlink:href="#c_1260a2df50f305f3db244e29828f968e" x="95.410156"/>
</g>
</g>
</g>
<g id="ytick6">
<g id="line2d34">
<g ><use style="fill: none; stroke: #000000; stroke-width: 0.500000; stroke-linejoin: round; stroke-linecap: butt;  opacity: 1.000000" xlink:href="#m3400efa6b1638b3fea9e19e898273957" x="216.000000" y="402.120000"/>
</g></g>
<g id="line2d35">
<g ><use style="fill: none; stroke: #000000; stroke-width: 0.500000; stroke-linejoin: round; stroke-linecap: butt;  opacity: 1.000000" xlink:href="#m20b58b2501143cb5e0a5e8f1ef6f1643" x="1555.200000" y="402.120000"/>
</g></g>
<g id="text17">
<g style="fill: #000000; opacity: 1.000000" transform="translate(195.015625,406.487188)scale(0.120000)">
<use xlink:href="#c_42baa63129a918535c52adb20d687ea7"/>
<use xlink:href="#c_ed3e21196fb739f392806f09ca0594ef" x="63.623047"/>
<use xlink:href="#c_7a2040fe3b94fcd41d0a72c84e93b115" x="95.410156"/>
</g>
</g>
</g>
<g id="ytick7">
<g id="line2d36">
<g ><use style="fill: none; stroke: #000000; stroke-width: 0.500000; stroke-linejoin: round; stroke-linecap: butt;  opacity: 1.000000" xlink:href="#m3400efa6b1638b3fea9e19e898273957" x="216.000000" y="301.590000"/>
</g></g>
<g id="line2d37">
<g ><use style="fill: none; stroke: #000000; stroke-width: 0.500000; stroke-linejoin: round; stroke-linecap: butt;  opacity: 1.000000" xlink:href="#m20b58b2501143cb5e0a5e8f1ef6f1643" x="1555.200000" y="301.590000"/>
</g></g>
<g id="text18">
<g style="fill: #000000; opacity: 1.000000" transform="translate(195.265625,305.879063)scale(0.120000)">
<use xlink:href="#c_42baa63129a918535c52adb20d687ea7"/>
<use xlink:href="#c_ed3e21196fb739f392806f09ca0594ef" x="63.623047"/>
<use xlink:href="#c_1260a2df50f305f3db244e29828f968e" x="95.410156"/>
</g>
</g>
</g>
<g id="ytick8">
<g id="line2d38">
<g ><use style="fill: none; stroke: #000000; stroke-width: 0.500000; stroke-linejoin: round; stroke-linecap: butt;  opacity: 1.000000" xlink:href="#m3400efa6b1638b3fea9e19e898273957" x="216.000000" y="201.060000"/>
</g></g>
<g id="line2d39">
<g ><use style="fill: none; stroke: #000000; stroke-width: 0.500000; stroke-linejoin: round; stroke-linecap: butt;  opacity: 1.000000" xlink:href="#m20b58b2501143cb5e0a5e8f1ef6f1643" x="1555.200000" y="201.060000"/>
</g></g>
<g id="text19">
<g style="fill: #000000; opacity: 1.000000" transform="translate(194.578125,205.427188)scale(0.120000)">
<use xlink:href="#c_ed3f3ed3ebfbd18bcb9c012009a68ad1"/>
<use xlink:href="#c_ed3e21196fb739f392806f09ca0594ef" x="63.623047"/>
<use xlink:href="#c_7a2040fe3b94fcd41d0a72c84e93b115" x="95.410156"/>
</g>
</g>
</g>
<g id="ytick9">
<g id="line2d40">
<g ><use style="fill: none; stroke: #000000; stroke-width: 0.500000; stroke-linejoin: round; stroke-linecap: butt;  opacity: 1.000000" xlink:href="#m3400efa6b1638b3fea9e19e898273957" x="216.000000" y="100.530000"/>
</g></g>
<g id="line2d41">
<g ><use style="fill: none; stroke: #000000; stroke-width: 0.500000; stroke-linejoin: round; stroke-linecap: butt;  opacity: 1.000000" xlink:href="#m20b58b2501143cb5e0a5e8f1ef6f1643" x="1555.200000" y="100.530000"/>
</g></g>
<g id="text20">
<g style="fill: #000000; opacity: 1.000000" transform="translate(194.828125,104.897187)scale(0.120000)">
<use xlink:href="#c_ed3f3ed3ebfbd18bcb9c012009a68ad1"/>
<use xlink:href="#c_ed3e21196fb739f392806f09ca0594ef" x="63.623047"/>
<use xlink:href="#c_1260a2df50f305f3db244e29828f968e" x="95.410156"/>
</g>
</g>
</g>
<g id="text21">
<defs>
<path id="c_ff9441f72805bc441fcb0bfe0d774f13" d="M19.671875 -64.796875l0.000000 56.687500l11.921875 0.000000q15.093750 0.000000 22.093750 -6.828125q7.000000 -6.843750 7.000000 -21.593750q0.000000 -14.640625 -7.000000 -21.453125q-7.000000 -6.812500 -22.093750 -6.812500zM9.812500 -72.906250l20.265625 0.000000q21.187500 0.000000 31.093750 8.812500q9.921875 8.812500 9.921875 27.562500q0.000000 18.859375 -9.968750 27.703125q-9.953125 8.828125 -31.046875 8.828125l-20.265625 0.000000z"/>
<path id="c_01d93a582460e35a7945ca50d148ffeb" d="M34.281250 -27.484375q-10.890625 0.000000 -15.093750 2.484375q-4.203125 2.484375 -4.203125 8.500000q0.000000 4.781250 3.156250 7.593750q3.156250 2.796875 8.562500 2.796875q7.484375 0.000000 12.000000 -5.296875q4.515625 -5.296875 4.515625 -14.078125l0.000000 -2.000000zM52.203125 -31.203125l0.000000 31.203125l-8.984375 0.000000l0.000000 -8.296875q-3.078125 4.968750 -7.671875 7.343750q-4.593750 2.375000 -11.234375 2.375000q-8.390625 0.000000 -13.359375 -4.718750q-4.953125 -4.718750 -4.953125 -12.625000q0.000000 -9.218750 6.171875 -13.906250q6.187500 -4.687500 18.437500 -4.687500l12.609375 0.000000l0.000000 -0.890625q0.000000 -6.203125 -4.078125 -9.593750q-4.078125 -3.390625 -11.453125 -3.390625q-4.687500 0.000000 -9.140625 1.125000q-4.437500 1.125000 -8.531250 3.375000l0.000000 -8.312500q4.921875 -1.906250 9.562500 -2.843750q4.640625 -0.953125 9.031250 -0.953125q11.875000 0.000000 17.734375 6.156250q5.859375 6.140625 5.859375 18.640625"/>
</defs>
<g style="fill: #000000; opacity: 1.000000" transform="translate(179.906250,515.673438)rotate(-90.0)scale(0.120000)">
<use xlink:href="#c_ff9441f72805bc441fcb0bfe0d774f13"/>
<use xlink:href="#c_01d93a582460e35a7945ca50d148ffeb" x="77.001953"/>
<use xlink:href="#c_0f8c41144cfbf448378cb6fd1cc8e549" x="138.281250"/>
<use xlink:href="#c_01d93a582460e35a7945ca50d148ffeb" x="177.490234"/>
</g>
</g>
</g>
<g id="patch3">
<path style="fill: none; stroke: #000000; stroke-width: 1.000000; stroke-linejoin: round; stroke-linecap: square;  opacity: 1.000000"  d="M216.000000 100.530000L1555.200000 100.530000"/>
</g>
<g id="patch4">
<path style="fill: none; stroke: #000000; stroke-width: 1.000000; stroke-linejoin: round; stroke-linecap: square;  opacity: 1.000000"  d="M1555.200000 904.770000L1555.200000 100.530000"/>
</g>
<g id="patch5">
<path style="fill: none; stroke: #000000; stroke-width: 1.000000; stroke-linejoin: round; stroke-linecap: square;  opacity: 1.000000"  d="M216.000000 904.770000L1555.200000 904.770000"/>
</g>
<g id="patch6">
<path style="fill: none; stroke: #000000; stroke-width: 1.000000; stroke-linejoin: round; stroke-linecap: square;  opacity: 1.000000"  d="M216.000000 904.770000L216.000000 100.530000"/>
</g>
<g id="text22">
<defs>
<path id="c_518d586bee075aa0153eaebfcb5ab11f" d="M19.671875 -64.796875l0.000000 27.390625l12.406250 0.000000q6.890625 0.000000 10.640625 -3.562500q3.765625 -3.562500 3.765625 -10.156250q0.000000 -6.546875 -3.765625 -10.109375q-3.750000 -3.562500 -10.640625 -3.562500zM9.812500 -72.906250l22.265625 0.000000q12.265625 0.000000 18.531250 5.546875q6.281250 5.546875 6.281250 16.234375q0.000000 10.796875 -6.281250 16.312500q-6.265625 5.515625 -18.531250 5.515625l-12.406250 0.000000l0.000000 29.296875l-9.859375 0.000000z"/>
<path id="c_d650c37394b681142a10dfc54356d478" d="M48.781250 -52.593750l0.000000 8.406250q-3.812500 -2.109375 -7.640625 -3.156250q-3.828125 -1.046875 -7.734375 -1.046875q-8.750000 0.000000 -13.593750 5.546875q-4.828125 5.531250 -4.828125 15.546875q0.000000 10.015625 4.828125 15.562500q4.843750 5.531250 13.593750 5.531250q3.906250 0.000000 7.734375 -1.046875q3.828125 -1.046875 7.640625 -3.156250l0.000000 8.312500q-3.765625 1.750000 -7.796875 2.625000q-4.015625 0.890625 -8.562500 0.890625q-12.359375 0.000000 -19.640625 -7.765625q-7.265625 -7.765625 -7.265625 -20.953125q0.000000 -13.375000 7.343750 -21.031250q7.359375 -7.671875 20.156250 -7.671875q4.140625 0.000000 8.093750 0.859375q3.953125 0.843750 7.671875 2.546875"/>
<path id="c_dcb78ab3124be785176d70a27dde1356" d="M9.078125 -75.984375l9.031250 0.000000l0.000000 44.875000l26.812500 -23.578125l11.468750 0.000000l-29.000000 25.578125l30.234375 29.109375l-11.718750 0.000000l-27.796875 -26.703125l0.000000 26.703125l-9.031250 0.000000z"/>
<path id="c_425fd1cbcd899bef0a79975ae4756bf8" d="M19.671875 -34.812500l0.000000 26.703125l15.828125 0.000000q7.953125 0.000000 11.781250 -3.296875q3.843750 -3.296875 3.843750 -10.078125q0.000000 -6.843750 -3.843750 -10.078125q-3.828125 -3.250000 -11.781250 -3.250000zM19.671875 -64.796875l0.000000 21.968750l14.609375 0.000000q7.218750 0.000000 10.750000 -2.703125q3.546875 -2.718750 3.546875 -8.281250q0.000000 -5.515625 -3.546875 -8.250000q-3.531250 -2.734375 -10.750000 -2.734375zM9.812500 -72.906250l25.203125 0.000000q11.281250 0.000000 17.375000 4.687500q6.109375 4.687500 6.109375 13.328125q0.000000 6.703125 -3.125000 10.656250q-3.125000 3.953125 -9.187500 4.921875q7.281250 1.562500 11.312500 6.531250q4.031250 4.953125 4.031250 12.375000q0.000000 9.765625 -6.640625 15.093750q-6.640625 5.312500 -18.906250 5.312500l-26.171875 0.000000z"/>
<path id="c_f05dd90d41f04bb96ef1ca503cc2044b" d="M30.609375 -48.390625q-7.218750 0.000000 -11.421875 5.640625q-4.203125 5.640625 -4.203125 15.453125q0.000000 9.812500 4.171875 15.453125q4.187500 5.640625 11.453125 5.640625q7.187500 0.000000 11.375000 -5.656250q4.203125 -5.671875 4.203125 -15.437500q0.000000 -9.718750 -4.203125 -15.406250q-4.187500 -5.687500 -11.375000 -5.687500M30.609375 -56.000000q11.718750 0.000000 18.406250 7.625000q6.703125 7.609375 6.703125 21.078125q0.000000 13.421875 -6.703125 21.078125q-6.687500 7.640625 -18.406250 7.640625q-11.765625 0.000000 -18.437500 -7.640625q-6.656250 -7.656250 -6.656250 -21.078125q0.000000 -13.468750 6.656250 -21.078125q6.671875 -7.625000 18.437500 -7.625000"/>
<path id="c_c48ceabac27bf136feba2f4bf2716ab6" d="M2.984375 -54.687500l9.515625 0.000000l17.093750 45.890625l17.093750 -45.890625l9.515625 0.000000l-20.515625 54.687500l-12.203125 0.000000z"/>
</defs>
<g style="fill: #000000; opacity: 1.000000" transform="translate(805.404688,95.326875)scale(0.144000)">
<use xlink:href="#c_518d586bee075aa0153eaebfcb5ab11f"/>
<use xlink:href="#c_01d93a582460e35a7945ca50d148ffeb" x="55.802734"/>
<use xlink:href="#c_d650c37394b681142a10dfc54356d478" x="117.082031"/>
<use xlink:href="#c_dcb78ab3124be785176d70a27dde1356" x="172.062500"/>
<use xlink:href="#c_425fd1cbcd899bef0a79975ae4756bf8" x="229.972656"/>
<use xlink:href="#c_f05dd90d41f04bb96ef1ca503cc2044b" x="298.576172"/>
<use xlink:href="#c_0f8c41144cfbf448378cb6fd1cc8e549" x="359.757812"/>
<use xlink:href="#c_d41d8cd98f00b204e9800998ecf8427e" x="398.966797"/>
<use xlink:href="#c_ff9441f72805bc441fcb0bfe0d774f13" x="430.753906"/>
<use xlink:href="#c_01d93a582460e35a7945ca50d148ffeb" x="507.755859"/>
<use xlink:href="#c_0f8c41144cfbf448378cb6fd1cc8e549" x="569.035156"/>
<use xlink:href="#c_01d93a582460e35a7945ca50d148ffeb" x="608.244141"/>
<use xlink:href="#c_d41d8cd98f00b204e9800998ecf8427e" x="669.523438"/>
<use xlink:href="#c_c48ceabac27bf136feba2f4bf2716ab6" x="701.310547"/>
<use xlink:href="#c_8e0810ad13fe20a2a87a2619799b154d" x="760.490234"/>
<use xlink:href="#c_ed3e21196fb739f392806f09ca0594ef" x="812.589844"/>
<use xlink:href="#c_d41d8cd98f00b204e9800998ecf8427e" x="844.376953"/>
<use xlink:href="#c_9e4b30cbdf32072672ded72e9074c4c9" x="876.164062"/>
<use xlink:href="#c_6a63bda47b2f3da1cec6aadd80692cfe" x="934.123047"/>
<use xlink:href="#c_4653c6dfde66c7610eae0911760d3490" x="961.906250"/>
<use xlink:href="#c_0bce5afba2dc6b9024b26277c38ad8e8" x="1059.318359"/>
</g>
</g>
</g>
<g id="legend1">
<g id="patch7">
<path style="fill: #ffffff; stroke: #000000; stroke-width: 1.000000; stroke-linejoin: round; stroke-linecap: square;  opacity: 1.000000"  d="M1549.647500 71.057500L1720.800000 71.057500L1720.800000 7.200000
L1549.647500 7.200000L1549.647500 71.057500z"/>
</g>
<g id="line2d42">
<path style="fill: none; stroke: #0000ff; stroke-width: 1.000000; stroke-linejoin: round; stroke-linecap: square;  opacity: 1.000000"  d="M1559.727500 18.560625L1579.887500 18.560625"/>
</g>
<g id="line2d43">
</g>
<g id="text23">
<defs>
<path id="c_dbe439baa035de1a298d0549b22269d8" d="M9.812500 -72.906250l46.093750 0.000000l0.000000 8.312500l-36.234375 0.000000l0.000000 21.578125l34.718750 0.000000l0.000000 8.296875l-34.718750 0.000000l0.000000 26.421875l37.109375 0.000000l0.000000 8.296875l-46.968750 0.000000z"/>
<path id="c_fe791a90f5471e2ab20a5ed41a7fa451" d="M54.890625 -33.015625l0.000000 33.015625l-8.984375 0.000000l0.000000 -32.718750q0.000000 -7.765625 -3.031250 -11.609375q-3.031250 -3.859375 -9.078125 -3.859375q-7.281250 0.000000 -11.484375 4.640625q-4.203125 4.625000 -4.203125 12.640625l0.000000 30.906250l-9.031250 0.000000l0.000000 -54.687500l9.031250 0.000000l0.000000 8.500000q3.234375 -4.937500 7.593750 -7.375000q4.375000 -2.437500 10.093750 -2.437500q9.421875 0.000000 14.250000 5.828125q4.843750 5.828125 4.843750 17.156250"/>
<path id="c_d821beae607506e87470f334d9ff47af" d="M45.406250 -46.390625l0.000000 -29.593750l8.984375 0.000000l0.000000 75.984375l-8.984375 0.000000l0.000000 -8.203125q-2.828125 4.875000 -7.156250 7.250000q-4.312500 2.375000 -10.375000 2.375000q-9.906250 0.000000 -16.140625 -7.906250q-6.218750 -7.921875 -6.218750 -20.812500q0.000000 -12.890625 6.218750 -20.796875q6.234375 -7.906250 16.140625 -7.906250q6.062500 0.000000 10.375000 2.375000q4.328125 2.359375 7.156250 7.234375M14.796875 -27.296875q0.000000 9.906250 4.078125 15.546875q4.078125 5.640625 11.203125 5.640625q7.125000 0.000000 11.218750 -5.640625q4.109375 -5.640625 4.109375 -15.546875q0.000000 -9.906250 -4.109375 -15.546875q-4.093750 -5.640625 -11.218750 -5.640625q-7.125000 0.000000 -11.203125 5.640625q-4.078125 5.640625 -4.078125 15.546875"/>
<path id="c_6ec8d5749226675394676a5d2a3b468b" d="M41.109375 -46.296875q-1.515625 -0.875000 -3.296875 -1.281250q-1.781250 -0.421875 -3.921875 -0.421875q-7.625000 0.000000 -11.703125 4.953125q-4.078125 4.953125 -4.078125 14.234375l0.000000 28.812500l-9.031250 0.000000l0.000000 -54.687500l9.031250 0.000000l0.000000 8.500000q2.843750 -4.984375 7.375000 -7.390625q4.546875 -2.421875 11.046875 -2.421875q0.921875 0.000000 2.046875 0.125000q1.125000 0.109375 2.484375 0.359375z"/>
<path id="c_ae70b0af174184799fa4976b9c5da571" d="M28.609375 -0.000000l-27.828125 -72.906250l10.296875 0.000000l23.109375 61.375000l23.140625 -61.375000l10.250000 0.000000l-27.781250 72.906250z"/>
<path id="c_5099edb83619131346ae654950954dea" d="M9.421875 -75.984375l8.984375 0.000000l0.000000 75.984375l-8.984375 0.000000z"/>
<path id="c_3fe22c4af425ac970aec982ae9662abe" d="M32.171875 5.078125q-3.796875 9.765625 -7.421875 12.734375q-3.609375 2.984375 -9.656250 2.984375l-7.187500 0.000000l0.000000 -7.515625l5.281250 0.000000q3.703125 0.000000 5.750000 -1.765625q2.062500 -1.750000 4.546875 -8.296875l1.609375 -4.093750l-22.109375 -53.812500l9.515625 0.000000l17.093750 42.765625l17.093750 -42.765625l9.515625 0.000000z"/>
</defs>
<g style="fill: #000000; opacity: 1.000000" transform="translate(1595.727500,23.600625)scale(0.144000)">
<use xlink:href="#c_dbe439baa035de1a298d0549b22269d8"/>
<use xlink:href="#c_fe791a90f5471e2ab20a5ed41a7fa451" x="63.183594"/>
<use xlink:href="#c_d650c37394b681142a10dfc54356d478" x="126.562500"/>
<use xlink:href="#c_f05dd90d41f04bb96ef1ca503cc2044b" x="181.542969"/>
<use xlink:href="#c_d821beae607506e87470f334d9ff47af" x="242.724609"/>
<use xlink:href="#c_0bce5afba2dc6b9024b26277c38ad8e8" x="306.201172"/>
<use xlink:href="#c_6ec8d5749226675394676a5d2a3b468b" x="367.724609"/>
<use xlink:href="#c_d41d8cd98f00b204e9800998ecf8427e" x="408.837891"/>
<use xlink:href="#c_ae70b0af174184799fa4976b9c5da571" x="440.625000"/>
<use xlink:href="#c_0bce5afba2dc6b9024b26277c38ad8e8" x="501.283203"/>
<use xlink:href="#c_5099edb83619131346ae654950954dea" x="562.806641"/>
<use xlink:href="#c_f05dd90d41f04bb96ef1ca503cc2044b" x="590.589844"/>
<use xlink:href="#c_d650c37394b681142a10dfc54356d478" x="651.771484"/>
<use xlink:href="#c_6a63bda47b2f3da1cec6aadd80692cfe" x="706.751953"/>
<use xlink:href="#c_0f8c41144cfbf448378cb6fd1cc8e549" x="734.535156"/>
<use xlink:href="#c_3fe22c4af425ac970aec982ae9662abe" x="773.744141"/>
</g>
</g>
<g id="line2d44">
<path style="fill: none; stroke: #008000; stroke-width: 1.000000; stroke-linejoin: round; stroke-linecap: square;  opacity: 1.000000"  d="M1559.727500 39.307500L1579.887500 39.307500"/>
</g>
<g id="line2d45">
</g>
<g id="text24">
<defs>
<path id="c_3b86f9879deccc43ffac57ae939fe3b7" d="M59.515625 -10.406250l0.000000 -19.578125l-16.109375 0.000000l0.000000 -8.109375l25.875000 0.000000l0.000000 31.312500q-5.703125 4.046875 -12.593750 6.125000q-6.875000 2.078125 -14.687500 2.078125q-17.093750 0.000000 -26.750000 -9.984375q-9.640625 -10.000000 -9.640625 -27.812500q0.000000 -17.875000 9.640625 -27.859375q9.656250 -9.984375 26.750000 -9.984375q7.125000 0.000000 13.546875 1.765625q6.421875 1.750000 11.843750 5.171875l0.000000 10.500000q-5.468750 -4.640625 -11.625000 -6.984375q-6.156250 -2.343750 -12.937500 -2.343750q-13.390625 0.000000 -20.109375 7.468750q-6.703125 7.468750 -6.703125 22.265625q0.000000 14.750000 6.703125 22.218750q6.718750 7.468750 20.109375 7.468750q5.218750 0.000000 9.312500 -0.906250q4.109375 -0.906250 7.375000 -2.812500"/>
<path id="c_b672e4bee30772019085dff1098f516d" d="M53.515625 -70.515625l0.000000 9.625000q-5.609375 -2.687500 -10.593750 -4.000000q-4.984375 -1.328125 -9.625000 -1.328125q-8.046875 0.000000 -12.421875 3.125000q-4.375000 3.125000 -4.375000 8.890625q0.000000 4.843750 2.906250 7.312500q2.906250 2.453125 11.015625 3.968750l5.953125 1.218750q11.031250 2.109375 16.281250 7.406250q5.250000 5.296875 5.250000 14.171875q0.000000 10.609375 -7.109375 16.078125q-7.093750 5.468750 -20.812500 5.468750q-5.171875 0.000000 -11.015625 -1.171875q-5.828125 -1.171875 -12.078125 -3.468750l0.000000 -10.156250q6.000000 3.359375 11.765625 5.078125q5.765625 1.703125 11.328125 1.703125q8.437500 0.000000 13.031250 -3.312500q4.593750 -3.328125 4.593750 -9.484375q0.000000 -5.359375 -3.296875 -8.390625q-3.296875 -3.031250 -10.812500 -4.546875l-6.015625 -1.171875q-11.031250 -2.187500 -15.968750 -6.875000q-4.921875 -4.687500 -4.921875 -13.046875q0.000000 -9.671875 6.812500 -15.234375q6.812500 -5.562500 18.765625 -5.562500q5.140625 0.000000 10.453125 0.937500q5.328125 0.921875 10.890625 2.765625"/>
</defs>
<g style="fill: #000000; opacity: 1.000000" transform="translate(1595.727500,44.347500)scale(0.144000)">
<use xlink:href="#c_3b86f9879deccc43ffac57ae939fe3b7"/>
<use xlink:href="#c_518d586bee075aa0153eaebfcb5ab11f" x="77.490234"/>
<use xlink:href="#c_b672e4bee30772019085dff1098f516d" x="137.792969"/>
<use xlink:href="#c_d41d8cd98f00b204e9800998ecf8427e" x="201.269531"/>
<use xlink:href="#c_ae70b0af174184799fa4976b9c5da571" x="233.056641"/>
<use xlink:href="#c_0bce5afba2dc6b9024b26277c38ad8e8" x="293.714844"/>
<use xlink:href="#c_5099edb83619131346ae654950954dea" x="355.238281"/>
<use xlink:href="#c_f05dd90d41f04bb96ef1ca503cc2044b" x="383.021484"/>
<use xlink:href="#c_d650c37394b681142a10dfc54356d478" x="444.203125"/>
<use xlink:href="#c_6a63bda47b2f3da1cec6aadd80692cfe" x="499.183594"/>
<use xlink:href="#c_0f8c41144cfbf448378cb6fd1cc8e549" x="526.966797"/>
<use xlink:href="#c_3fe22c4af425ac970aec982ae9662abe" x="566.175781"/>
</g>
</g>
<g id="line2d46">
<path style="fill: none; stroke: #ff0000; stroke-width: 1.000000; stroke-linejoin: round; stroke-linecap: square;  opacity: 1.000000"  d="M1559.727500 60.054375L1579.887500 60.054375"/>
</g>
<g id="line2d47">
</g>
<g id="text25">
<defs>
<path id="c_867d5c614e055a6de802b159158cbff4" d="M-0.203125 -72.906250l10.609375 0.000000l20.203125 29.984375l20.078125 -29.984375l10.593750 0.000000l-25.781250 38.187500l0.000000 34.718750l-9.906250 0.000000l0.000000 -34.718750z"/>
<path id="c_57adaa7083d7229075db8bc2c5b2febe" d="M4.203125 -54.687500l8.984375 0.000000l11.234375 42.671875l11.171875 -42.671875l10.593750 0.000000l11.234375 42.671875l11.187500 -42.671875l8.984375 0.000000l-14.312500 54.687500l-10.593750 0.000000l-11.765625 -44.828125l-11.812500 44.828125l-10.609375 0.000000z"/>
</defs>
<g style="fill: #000000; opacity: 1.000000" transform="translate(1595.727500,65.094375)scale(0.144000)">
<use xlink:href="#c_867d5c614e055a6de802b159158cbff4"/>
<use xlink:href="#c_01d93a582460e35a7945ca50d148ffeb" x="47.333984"/>
<use xlink:href="#c_57adaa7083d7229075db8bc2c5b2febe" x="108.613281"/>
</g>
</g>
</g>
</g>
</svg>
