<?xml version="1.0" encoding="UTF-8" standalone="no"?>
<!-- Created with Inkscape (http://www.inkscape.org/) -->
<svg
   xmlns:dc="http://purl.org/dc/elements/1.1/"
   xmlns:cc="http://creativecommons.org/ns#"
   xmlns:rdf="http://www.w3.org/1999/02/22-rdf-syntax-ns#"
   xmlns:svg="http://www.w3.org/2000/svg"
   xmlns="http://www.w3.org/2000/svg"
   xmlns:xlink="http://www.w3.org/1999/xlink"
   xmlns:sodipodi="http://sodipodi.sourceforge.net/DTD/sodipodi-0.dtd"
   xmlns:inkscape="http://www.inkscape.org/namespaces/inkscape"
   id="svg2443"
   sodipodi:version="0.32"
   inkscape:version="0.46"
   width="1944"
   height="2592"
   version="1.0"
   sodipodi:docname="urbotaxes.svg"
   inkscape:output_extension="org.inkscape.output.svg.inkscape"
   inkscape:export-filename="/home/thomas/code/thesis/thomas/images/urbotaxes.png"
   inkscape:export-xdpi="90"
   inkscape:export-ydpi="90">
  <metadata
     id="metadata2448">
    <rdf:RDF>
      <cc:Work
         rdf:about="">
        <dc:format>image/svg+xml</dc:format>
        <dc:type
           rdf:resource="http://purl.org/dc/dcmitype/StillImage" />
      </cc:Work>
    </rdf:RDF>
  </metadata>
  <defs
     id="defs2446">
    <marker
       inkscape:stockid="Arrow1Lend"
       orient="auto"
       refY="0.0"
       refX="0.0"
       id="Arrow1Lend"
       style="overflow:visible;">
      <path
         id="path3238"
         d="M 0.0,0.0 L 5.0,-5.0 L -12.5,0.0 L 5.0,5.0 L 0.0,0.0 z "
         style="fill-rule:evenodd;stroke:#000000;stroke-width:1.0pt;marker-start:none;"
         transform="scale(0.8) rotate(180) translate(12.5,0)" />
    </marker>
    <marker
       inkscape:stockid="Arrow1Lstart"
       orient="auto"
       refY="0.0"
       refX="0.0"
       id="Arrow1Lstart"
       style="overflow:visible">
      <path
         id="path3235"
         d="M 0.0,0.0 L 5.0,-5.0 L -12.5,0.0 L 5.0,5.0 L 0.0,0.0 z "
         style="fill-rule:evenodd;stroke:#000000;stroke-width:1.0pt;marker-start:none"
         transform="scale(0.8) translate(12.5,0)" />
    </marker>
    <marker
       inkscape:stockid="Arrow1Mstart"
       orient="auto"
       refY="0.0"
       refX="0.0"
       id="Arrow1Mstart"
       style="overflow:visible">
      <path
         id="path3241"
         d="M 0.0,0.0 L 5.0,-5.0 L -12.5,0.0 L 5.0,5.0 L 0.0,0.0 z "
         style="fill-rule:evenodd;stroke:#000000;stroke-width:1.0pt;marker-start:none"
         transform="scale(0.4) translate(10,0)" />
    </marker>
    <inkscape:perspective
       sodipodi:type="inkscape:persp3d"
       inkscape:vp_x="0 : 526.18109 : 1"
       inkscape:vp_y="0 : 1000 : 0"
       inkscape:vp_z="744.09448 : 526.18109 : 1"
       inkscape:persp3d-origin="372.04724 : 350.78739 : 1"
       id="perspective2450" />
    <clipPath
       clipPathUnits="userSpaceOnUse"
       id="clipPath5687">
      <path
         style="fill:none;fill-rule:evenodd;stroke:#000000;stroke-width:1px;stroke-linecap:butt;stroke-linejoin:miter;stroke-opacity:1"
         d="M 254.47773,1983.3522 L 181.02024,1671.1579 L 259.7247,1049.3927 L 393.52227,275.46559 L 461.73279,251.85425 L 619.1417,254.47773 L 655.87045,178.39676 L 1230.413,233.48988 L 1254.0243,251.85425 L 1277.6356,233.48988 L 1466.5263,225.61943 L 1505.8785,267.59514 L 1747.2389,1571.4656 L 1713.1336,1867.919 L 1665.9109,1946.6235 L 1579.336,1962.3644 L 1416.6802,1970.2348 L 1379.9514,1933.5061 L 1364.2105,1881.0364 L 870.99595,1896.7773 L 781.79757,1925.6356 L 692.59919,1915.1417 L 671.61134,1902.0243 L 579.78947,1902.0243 L 556.17814,1951.8704 L 522.07287,1983.3522 L 335.80567,1988.5992 L 254.47773,1983.3522 z"
         id="path5689" />
    </clipPath>
  </defs>
  <sodipodi:namedview
     inkscape:window-height="1150"
     inkscape:window-width="1920"
     inkscape:pageshadow="2"
     inkscape:pageopacity="0.0"
     guidetolerance="10.0"
     gridtolerance="10.0"
     objecttolerance="10.0"
     borderopacity="1.0"
     bordercolor="#666666"
     pagecolor="#ffffff"
     id="base"
     showgrid="false"
     inkscape:zoom="0.50000001"
     inkscape:cx="1253.3844"
     inkscape:cy="1516.9339"
     inkscape:window-x="0"
     inkscape:window-y="25"
     inkscape:current-layer="svg2443" />
  <path
     style="opacity:0.2;fill:#0000ff;fill-opacity:1;stroke:#0000ff;stroke-width:2.52116609;stroke-miterlimit:4;stroke-dasharray:none;stroke-opacity:1"
     d="M 968.97496,1401.2484 L 969.04856,1151.0557 L 1058.8096,1072.0234 C 1108.2186,1028.6265 1194.9017,952.47542 1251.4386,902.79872 L 1353.8588,813.01452 L 1354.1926,1063.1055 L 1354.0142,1313.7611 L 1165.0701,1479.8499 C 1061.0751,1571.214 974.51426,1647.2793 972.58566,1648.8202 L 969.10516,1651.8823 L 968.97496,1401.2484 z"
     id="path5681"
     sodipodi:nodetypes="ccccccccccc" />
  <path
     style="opacity:0.2;fill:#f4818a;fill-opacity:1;stroke:#ff0000;stroke-width:1.78273344;stroke-miterlimit:4;stroke-dasharray:none;stroke-opacity:1"
     d="M 1446.5417,1310.9007 C 1442.1888,1309.354 1334.2211,1272.9615 1206.6133,1230.0284 C 1079.0056,1187.0954 970.72446,1151.0653 969.39316,1150.5341 C 966.97896,1149.5709 987.58136,1133.716 1154.5769,987.61832 C 1256.2271,898.28812 1340.7929,823.65912 1341.5463,823.11262 C 1342.6731,822.29522 1385.0759,837.67182 1584.0735,904.68102 C 1717.1394,949.48892 1828.9499,986.51832 1828.4439,986.90892 C 1827.2586,987.82392 1457.3185,1312.9789 1455.9201,1313.8566 C 1455.4258,1314.1668 1450.8945,1312.4475 1446.5417,1310.9007 z"
     id="path5623"
     sodipodi:nodetypes="ccscssssc" />
  <path
     sodipodi:nodetypes="ccccccccccc"
     id="path5679"
     d="M 582.66786,1740.5899 L 582.74156,1490.3972 L 672.50246,1411.365 C 721.91156,1367.9681 808.59456,1291.817 865.13156,1242.1403 L 967.55166,1152.356 L 967.88546,1402.4471 L 967.70706,1653.1026 L 778.76306,1819.1915 C 674.76796,1910.5555 588.20716,1986.6208 586.27856,1988.1618 L 582.79806,1991.2239 L 582.66786,1740.5899 z"
     style="opacity:0.2;fill:#0000ff;fill-opacity:1;stroke:#0000ff;stroke-width:2.52116609;stroke-miterlimit:4;stroke-dasharray:none;stroke-opacity:1" />
  <path
     style="opacity:0.2;fill:#f4818a;fill-opacity:1;stroke:#ff0000;stroke-width:1.78273344;stroke-miterlimit:4;stroke-dasharray:none;stroke-opacity:1"
     d="M 585.07656,1474.7977 C 580.72366,1473.251 472.75596,1436.8584 345.14826,1393.9254 C 217.54056,1350.9924 109.25936,1314.9623 107.92806,1314.4311 C 105.51386,1313.4679 126.11626,1297.613 293.11176,1151.5153 C 394.76196,1062.1851 479.32776,987.55612 480.08126,987.00962 C 481.20806,986.19222 523.61086,1001.5688 722.60836,1068.578 C 855.67436,1113.3859 967.48486,1150.4152 966.97886,1150.8058 C 965.79356,1151.7209 595.85336,1476.8759 594.45496,1477.7536 C 593.96076,1478.0638 589.42946,1476.3445 585.07656,1474.7977 z"
     id="path5647"
     sodipodi:nodetypes="ccscssssc" />
  <path
     sodipodi:nodetypes="ccscssssc"
     id="path5645"
     d="M 1073.3081,1638.9968 C 1068.9553,1637.4501 960.98746,1601.0576 833.37976,1558.1245 C 705.77206,1515.1916 597.49096,1479.1614 596.15966,1478.6302 C 593.74546,1477.667 614.34786,1461.8121 781.34336,1315.7145 C 882.99356,1226.3842 967.55936,1151.7553 968.31276,1151.2087 C 969.43956,1150.3913 1011.8424,1165.7679 1210.84,1232.7771 C 1343.9059,1277.585 1455.7164,1314.6144 1455.2104,1315.005 C 1454.0251,1315.92 1084.085,1641.075 1082.6866,1641.9527 C 1082.1923,1642.2629 1077.661,1640.5436 1073.3081,1638.9968 z"
     style="opacity:0.2;fill:#f4818a;fill-opacity:1;stroke:#ff0000;stroke-width:1.78273344;stroke-miterlimit:4;stroke-dasharray:none;stroke-opacity:1" />
  <image
     xlink:href="urbot.jpg"
     sodipodi:absref="/home/thomas/tmp/urbot.jpg"
     width="1944"
     height="2592"
     id="image2452"
     x="0"
     y="0"
     clip-path="url(#clipPath5687)"
     transform="matrix(0.2528382,0.2805734,-0.2805801,0.2528321,986.86176,640.18122)" />
  <path
     sodipodi:nodetypes="ccscssssc"
     id="path5649"
     d="M 959.05736,1146.7669 C 954.70446,1145.2202 846.73676,1108.8277 719.12906,1065.8946 C 591.52136,1022.9617 483.24016,986.93152 481.90886,986.40032 C 479.49466,985.43712 500.09706,969.58222 667.09256,823.48452 C 768.74276,734.15432 853.30856,659.52532 854.06206,658.97882 C 855.18886,658.16142 897.59166,673.53802 1096.5892,740.54722 C 1229.6552,785.35512 1341.4656,822.38452 1340.9597,822.77512 C 1339.7744,823.69012 969.83416,1148.8451 968.43576,1149.7228 C 967.94156,1150.033 963.41016,1148.3137 959.05736,1146.7669 z"
     style="opacity:0.2;fill:#f4818a;fill-opacity:1;stroke:#ff0000;stroke-width:1.78273344;stroke-miterlimit:4;stroke-dasharray:none;stroke-opacity:1" />
  <path
     style="fill:none;fill-rule:evenodd;stroke:#000000;stroke-width:5;stroke-linecap:butt;stroke-linejoin:miter;marker-start:url(#Arrow1Lstart);stroke-miterlimit:4;stroke-dasharray:none;stroke-opacity:1"
     d="M 968.26906,234.98901 L 968.26906,1896.0972"
     id="path2454" />
  <path
     style="fill:none;fill-rule:evenodd;stroke:#000000;stroke-width:5;stroke-linecap:butt;stroke-linejoin:miter;marker-start:none;marker-end:url(#Arrow1Lend);stroke-miterlimit:4;stroke-dasharray:none;stroke-opacity:1"
     d="M 399.82057,959.1913 L 1871.5506,1455.7799"
     id="path3228"
     sodipodi:nodetypes="cc" />
  <path
     style="fill:none;fill-rule:evenodd;stroke:#000000;stroke-width:5;stroke-linecap:butt;stroke-linejoin:miter;marker-end:url(#Arrow1Lend);stroke-miterlimit:4;stroke-dasharray:none;stroke-opacity:1"
     d="M 1424.7595,748.3445 L 245.07225,1786.2451"
     id="path3230" />
  <text
     xml:space="preserve"
     style="font-size:72px;font-style:italic;font-variant:normal;font-weight:normal;font-stretch:normal;text-align:start;line-height:125%;writing-mode:lr-tb;text-anchor:start;fill:#000000;fill-opacity:1;stroke:none;stroke-width:1px;stroke-linecap:butt;stroke-linejoin:miter;stroke-opacity:1;font-family:Bitstream Vera Serif;-inkscape-font-specification:Bitstream Vera Serif Italic"
     x="943.78003"
     y="208.67715"
     id="text5589"
     sodipodi:linespacing="125%"
     transform="scale(1.0000121,0.9999879)"><tspan
       sodipodi:role="line"
       id="tspan5591"
       x="943.78003"
       y="208.67715">z</tspan></text>
  <text
     xml:space="preserve"
     style="font-size:72px;font-style:italic;font-variant:normal;font-weight:normal;font-stretch:normal;text-align:start;line-height:125%;writing-mode:lr-tb;text-anchor:start;fill:#000000;fill-opacity:1;stroke:none;stroke-width:1px;stroke-linecap:butt;stroke-linejoin:miter;stroke-opacity:1;font-family:Bitstream Vera Serif;-inkscape-font-specification:Bitstream Vera Serif Italic"
     x="1888.1676"
     y="1488.3773"
     id="text5593"
     sodipodi:linespacing="125%"
     transform="scale(1.0000121,0.9999879)"><tspan
       sodipodi:role="line"
       id="tspan5595"
       x="1888.1676"
       y="1488.3773">y</tspan></text>
  <text
     xml:space="preserve"
     style="font-size:72px;font-style:italic;font-variant:normal;font-weight:normal;font-stretch:normal;text-align:start;line-height:125%;writing-mode:lr-tb;text-anchor:start;fill:#000000;fill-opacity:1;stroke:none;stroke-width:1px;stroke-linecap:butt;stroke-linejoin:miter;stroke-opacity:1;font-family:Bitstream Vera Serif;-inkscape-font-specification:Bitstream Vera Serif Italic"
     x="189.31883"
     y="1832.9492"
     id="text5597"
     sodipodi:linespacing="125%"
     transform="scale(1.0000121,0.9999879)"><tspan
       sodipodi:role="line"
       id="tspan5599"
       x="189.31883"
       y="1832.9492">x</tspan></text>
  <g
     id="g5665"
     style="opacity:0.2"
     transform="matrix(0.4490823,0,0,0.4490715,-898.49914,633.14032)">
    <path
       sodipodi:nodetypes="cc"
       id="path5657"
       d="M 4156.8359,1152.5359 L 4156.8179,31.987172"
       style="fill:none;fill-rule:evenodd;stroke:#0000ff;stroke-width:2.22678995px;stroke-linecap:butt;stroke-linejoin:miter;stroke-opacity:1" />
    <path
       style="fill:none;fill-rule:evenodd;stroke:#0000ff;stroke-width:2.22678995px;stroke-linecap:butt;stroke-linejoin:miter;stroke-opacity:1"
       d="M 4157.0102,1152.1475 L 5017.6429,396.08508"
       id="path5659"
       sodipodi:nodetypes="cc" />
    <path
       sodipodi:nodetypes="cc"
       id="path5661"
       d="M 4156.6538,32.356489 L 5017.2865,-723.70592"
       style="fill:none;fill-rule:evenodd;stroke:#0000ff;stroke-width:2.22678995px;stroke-linecap:butt;stroke-linejoin:miter;stroke-opacity:1" />
    <path
       style="fill:none;fill-rule:evenodd;stroke:#0000ff;stroke-width:2.22678995px;stroke-linecap:butt;stroke-linejoin:miter;stroke-opacity:1"
       d="M 5017.459,396.49446 L 5017.1149,-723.32963"
       id="path5663"
       sodipodi:nodetypes="cc" />
  </g>
  <path
     sodipodi:nodetypes="ccccccccccc"
     id="path5683"
     d="M 582.45626,1237.7 L 582.52996,987.50732 L 672.29096,908.47502 C 721.69996,865.07812 808.38306,788.92702 864.91996,739.25032 L 967.34016,649.46602 L 967.67396,899.55712 L 967.49556,1150.2127 L 778.55146,1316.3015 C 674.55646,1407.6655 587.99556,1483.7308 586.06706,1485.2718 L 582.58646,1488.3339 L 582.45626,1237.7 z"
     style="opacity:0.2;fill:#0000ff;fill-opacity:1;stroke:#0000ff;stroke-width:2.52116609;stroke-miterlimit:4;stroke-dasharray:none;stroke-opacity:1" />
  <path
     style="opacity:0.2;fill:#0000ff;fill-opacity:1;stroke:#0000ff;stroke-width:2.52116609;stroke-miterlimit:4;stroke-dasharray:none;stroke-opacity:1"
     d="M 968.92586,898.18722 L 968.99956,647.99452 L 1058.7606,568.96232 C 1108.1696,525.56542 1194.8527,449.41432 1251.3896,399.73762 L 1353.8098,309.95332 L 1354.1436,560.04442 L 1353.9651,810.69992 L 1165.0211,976.78882 C 1061.0261,1068.1528 974.46516,1144.2181 972.53656,1145.7591 L 969.05606,1148.8212 L 968.92586,898.18722 z"
     id="path5677"
     sodipodi:nodetypes="ccccccccccc" />
  <path
     style="fill:none;fill-rule:evenodd;stroke:#000000;stroke-width:5;stroke-linecap:butt;stroke-linejoin:miter;marker-start:url(#Arrow1Lstart);marker-end:none;stroke-miterlimit:4;stroke-dasharray:none;stroke-opacity:1"
     d="M 1684.0792,1449.2856 C 1312.5573,1490.4683 1616.5513,1108.0698 1727.6388,1376.9793"
     id="path2549"
     sodipodi:nodetypes="cc" />
  <text
     xml:space="preserve"
     style="font-size:10.77784634px;font-style:italic;font-variant:normal;font-weight:normal;font-stretch:normal;text-align:start;line-height:125%;writing-mode:lr-tb;text-anchor:start;fill:#000000;fill-opacity:1;stroke:none;stroke-width:1px;stroke-linecap:butt;stroke-linejoin:miter;stroke-opacity:1;font-family:Bitstream Vera Serif;-inkscape-font-specification:Bitstream Vera Serif Italic"
     x="406.94391"
     y="843.08325"
     id="text4924"
     sodipodi:linespacing="125%"
     transform="scale(1.0000121,0.9999879)"><tspan
       sodipodi:role="line"
       id="tspan4926"
       x="406.94391"
       y="843.08325" /></text>
  <text
     xml:space="preserve"
     style="font-size:72px;font-style:italic;font-variant:normal;font-weight:normal;font-stretch:normal;text-align:start;line-height:125%;writing-mode:lr-tb;text-anchor:start;fill:#000000;fill-opacity:1;stroke:none;stroke-width:1px;stroke-linecap:butt;stroke-linejoin:miter;stroke-opacity:1;font-family:Bitstream Vera Serif;-inkscape-font-specification:Bitstream Vera Serif Italic"
     x="1613.9562"
     y="1545.4475"
     id="text4928"
     sodipodi:linespacing="125%"
     transform="scale(1.0000121,0.9999879)"><tspan
       sodipodi:role="line"
       id="tspan4930"
       x="1613.9562"
       y="1545.4475">θ</tspan></text>
  <path
     sodipodi:nodetypes="cc"
     id="path4932"
     d="M 926.98943,514.71224 C 794.575,214.87977 1165.0165,325.24434 1010.422,509.65854"
     style="fill:none;fill-rule:evenodd;stroke:#000000;stroke-width:5;stroke-linecap:butt;stroke-linejoin:miter;marker-start:url(#Arrow1Lstart);marker-end:none;stroke-miterlimit:4;stroke-dasharray:none;stroke-opacity:1" />
  <text
     xml:space="preserve"
     style="font-size:72px;font-style:italic;font-variant:normal;font-weight:normal;font-stretch:normal;text-align:start;line-height:125%;writing-mode:lr-tb;text-anchor:start;fill:#000000;fill-opacity:1;stroke:none;stroke-width:1px;stroke-linecap:butt;stroke-linejoin:miter;stroke-opacity:1;font-family:Bitstream Vera Serif;-inkscape-font-specification:Bitstream Vera Serif Italic"
     x="800.58612"
     y="516.52466"
     id="text4934"
     sodipodi:linespacing="125%"
     transform="scale(1.0000121,0.9999879)"><tspan
       sodipodi:role="line"
       id="tspan4936"
       x="800.58612"
       y="516.52466">ψ</tspan></text>
  <path
     style="fill:none;fill-rule:evenodd;stroke:#000000;stroke-width:5;stroke-linecap:butt;stroke-linejoin:miter;marker-start:none;marker-end:url(#Arrow1Lend);stroke-miterlimit:4;stroke-dasharray:none;stroke-opacity:1"
     d="M 387.33166,1630.0144 C 351.11076,1419.952 799.1338,1519.4448 428.94066,1674.2712"
     id="path4938"
     sodipodi:nodetypes="cc" />
  <text
     xml:space="preserve"
     style="font-size:72px;font-style:italic;font-variant:normal;font-weight:normal;font-stretch:normal;text-align:start;line-height:125%;writing-mode:lr-tb;text-anchor:start;fill:#000000;fill-opacity:1;stroke:none;stroke-width:1px;stroke-linecap:butt;stroke-linejoin:miter;stroke-opacity:1;font-family:Bitstream Vera Serif;-inkscape-font-specification:Bitstream Vera Serif Italic"
     x="462.95844"
     y="1740.5956"
     id="text4940"
     sodipodi:linespacing="125%"
     transform="scale(1.0000121,0.9999879)"><tspan
       sodipodi:role="line"
       id="tspan4942"
       x="462.95844"
       y="1740.5956">ϕ</tspan></text>
  <text
     xml:space="preserve"
     style="font-size:72px;font-style:italic;font-variant:normal;font-weight:normal;font-stretch:normal;text-align:start;line-height:125%;writing-mode:lr-tb;text-anchor:start;fill:#000000;fill-opacity:1;stroke:none;stroke-width:1px;stroke-linecap:butt;stroke-linejoin:miter;stroke-opacity:1;font-family:Bitstream Vera Serif;-inkscape-font-specification:Bitstream Vera Serif Italic"
     x="1721.0955"
     y="402.36823"
     id="text5430"
     sodipodi:linespacing="125%"
     transform="matrix(0.9453654,0.3260127,-0.3260127,0.9453654,0,0)"
     inkscape:transform-center-y="-161.47909"
     inkscape:transform-center-x="-110.27936"><tspan
       sodipodi:role="line"
       id="tspan5432"
       x="1721.0955"
       y="402.36823">Lateral</tspan></text>
  <text
     xml:space="preserve"
     style="font-size:72px;font-style:italic;font-variant:normal;font-weight:normal;font-stretch:normal;text-align:start;line-height:125%;writing-mode:lr-tb;text-anchor:start;fill:#000000;fill-opacity:1;stroke:none;stroke-width:1px;stroke-linecap:butt;stroke-linejoin:miter;stroke-opacity:1;font-family:Bitstream Vera Serif;-inkscape-font-specification:Bitstream Vera Serif Italic"
     x="271.32535"
     y="1217.6259"
     id="text5434"
     sodipodi:linespacing="125%"
     transform="matrix(0.7495344,-0.6619654,0.6619654,0.7495344,0,0)"
     inkscape:transform-center-x="-14"
     inkscape:transform-center-y="14"><tspan
       sodipodi:role="line"
       id="tspan5436"
       x="271.32535"
       y="1217.6259">Longitudinal</tspan></text>
</svg>
